<svg width="1121" height="72" viewBox="0 0 1121 72" fill="none" xmlns="http://www.w3.org/2000/svg">
<mask id="mask0_2_11221" style="mask-type:luminance" maskUnits="userSpaceOnUse" x="0" y="0" width="1121" height="72">
<path d="M0 0H1121V72H0V0Z" fill="white"/>
</mask>
<g mask="url(#mask0_2_11221)">
<path d="M0 0H1121V72H0V0Z" fill="white"/>
<path d="M1121 71H0V73H1121V71Z" fill="#EAECF0"/>
<path d="M1083 16H1055C1051.69 16 1049 18.6863 1049 22V50C1049 53.3137 1051.69 56 1055 56H1083C1086.31 56 1089 53.3137 1089 50V22C1089 18.6863 1086.31 16 1083 16Z" fill="white"/>
<path d="M1066.8 43.5C1067.38 44.0186 1068.15 44.3333 1069 44.3333C1069.85 44.3333 1070.62 44.0186 1071.21 43.5M1074 32.6666C1074 31.3405 1073.47 30.0688 1072.54 29.1311C1071.6 28.1934 1070.33 27.6666 1069 27.6666C1067.67 27.6666 1066.4 28.1934 1065.46 29.1311C1064.53 30.0688 1064 31.3405 1064 32.6666C1064 35.2418 1063.35 37.0049 1062.63 38.1711C1062.01 39.1549 1061.71 39.6467 1061.72 39.7839C1061.73 39.9359 1061.76 39.9938 1061.89 40.0846C1062 40.1666 1062.49 40.1666 1063.49 40.1666H1074.51C1075.51 40.1666 1076 40.1666 1076.12 40.0846C1076.24 39.9938 1076.27 39.9359 1076.28 39.7839C1076.29 39.6467 1075.99 39.1549 1075.38 38.1711C1074.65 37.0049 1074 35.2418 1074 32.6666Z" stroke="#667085" stroke-width="1.66667" stroke-linecap="round" stroke-linejoin="round"/>
</g>
</svg>
