<svg width="205" height="16" viewBox="0 0 205 16" fill="none" xmlns="http://www.w3.org/2000/svg">
<path d="M0 1.25326V0H8.74975V1.25326H5.08121V11.6663H3.66854V1.25326H0ZM9.83959 11.6663V2.91658H11.1379V4.23803H11.2292C11.3886 3.8049 11.6774 3.45398 12.0955 3.18428C12.5125 2.91458 12.9838 2.77923 13.5081 2.77923C13.6064 2.77923 13.7297 2.78123 13.8781 2.78524C14.0265 2.78925 14.1388 2.79527 14.214 2.80229V4.16984C14.1689 4.15781 14.0646 4.14077 13.9011 4.11871C13.7417 4.09164 13.5723 4.07862 13.3938 4.07862C12.9687 4.07862 12.5887 4.16785 12.2549 4.34631C11.924 4.52076 11.6623 4.76439 11.4688 5.0752C11.2783 5.383 11.1841 5.73392 11.1841 6.12895V11.6663H9.83959ZM18.3828 11.8719C17.8284 11.8719 17.325 11.7666 16.8729 11.5581C16.4217 11.3455 16.0628 11.0397 15.7961 10.6407C15.5304 10.2386 15.3981 9.75236 15.3981 9.18288C15.3981 8.68158 15.4963 8.27453 15.6938 7.96372C15.8913 7.6479 16.155 7.40125 16.4859 7.22278C16.8157 7.04432 17.1807 6.91198 17.5797 6.82375C17.9818 6.73351 18.3868 6.66133 18.7929 6.60819C19.3243 6.53901 19.7554 6.48787 20.0862 6.45378C20.4201 6.41568 20.6637 6.35353 20.8151 6.2663C20.9705 6.17907 21.0487 6.02667 21.0487 5.81011V5.76499C21.0487 5.20253 20.8953 4.7654 20.5875 4.45459C20.2838 4.14278 19.8225 3.98738 19.2029 3.98738C18.5613 3.98738 18.058 4.12774 17.693 4.40847C17.3291 4.6902 17.0724 4.98998 16.924 5.30881L15.6487 4.85363C15.8763 4.32124 16.1801 3.90717 16.5601 3.6114C16.9431 3.31162 17.3612 3.10207 17.8133 2.98477C18.2685 2.86345 18.7167 2.80229 19.1578 2.80229C19.4386 2.80229 19.7614 2.83638 20.1263 2.90456C20.4943 2.96973 20.8492 3.10407 21.1911 3.3096C21.537 3.51414 21.8238 3.82395 22.0513 4.23803C22.2789 4.65211 22.3932 5.20654 22.3932 5.90135V11.6663H21.0487V10.4813H20.9806C20.8893 10.6718 20.7369 10.8743 20.5244 11.0908C20.3118 11.3074 20.0291 11.4919 19.6762 11.6433C19.3223 11.7957 18.8921 11.8719 18.3828 11.8719ZM18.5873 10.6637C19.1197 10.6637 19.5679 10.5595 19.9318 10.3509C20.3008 10.1414 20.5775 9.87167 20.764 9.54182C20.9535 9.21096 21.0487 8.86406 21.0487 8.49911V7.26891C20.9916 7.33708 20.8663 7.39924 20.6728 7.45639C20.4833 7.50953 20.2627 7.55765 20.012 7.59876C19.7654 7.63686 19.5238 7.67095 19.2881 7.70103C19.0565 7.7281 18.8691 7.75116 18.7247 7.77021C18.3748 7.81533 18.0489 7.88953 17.7451 7.99179C17.4443 8.09105 17.2017 8.24043 17.0152 8.44196C16.8338 8.63947 16.7425 8.90918 16.7425 9.25107C16.7425 9.71828 16.915 10.0712 17.2609 10.3108C17.6098 10.5464 18.052 10.6637 18.5873 10.6637ZM28.4019 11.8488C27.5817 11.8488 26.8749 11.6553 26.2823 11.2673C25.6898 10.8803 25.2346 10.3469 24.9158 9.66714C24.596 8.98737 24.4365 8.21036 24.4365 7.33709C24.4365 6.44778 24.6 5.66374 24.9268 4.98397C25.2567 4.30019 25.7169 3.7668 26.3054 3.3838C26.898 2.99579 27.5888 2.80229 28.3788 2.80229C28.9944 2.80229 29.5488 2.91659 30.0421 3.14418C30.5364 3.37177 30.9405 3.6906 31.2553 4.10167C31.5711 4.51174 31.7666 4.98998 31.8428 5.5364H30.4983C30.395 5.13837 30.1675 4.78445 29.8145 4.47765C29.4646 4.16584 28.9944 4.01043 28.4019 4.01043C27.8775 4.01043 27.4183 4.14678 27.0233 4.42049C26.6323 4.6902 26.3265 5.07118 26.1059 5.56547C25.8893 6.05474 25.781 6.63025 25.781 7.29097C25.781 7.96773 25.8873 8.55625 26.0999 9.05756C26.3164 9.55886 26.6202 9.94787 27.0112 10.2246C27.4063 10.5023 27.8705 10.6407 28.4019 10.6407C28.7508 10.6407 29.0686 10.5805 29.3533 10.4582C29.6381 10.3369 29.8787 10.1624 30.0762 9.93484C30.2737 9.70624 30.4141 9.43354 30.4983 9.11471H31.8428C31.7666 9.63105 31.5781 10.0963 31.2783 10.5103C30.9826 10.9204 30.5896 11.2463 30.0993 11.4899C29.613 11.7285 29.0476 11.8488 28.4019 11.8488ZM35.0612 8.47604L35.0381 6.81272H35.3118L39.1398 2.91658H40.8031L36.7245 7.04031H36.6102L35.0612 8.47604ZM33.8079 11.6663V0H35.1524V11.6663H33.8079ZM39.3674 11.6663L35.9495 7.33709L36.907 6.40265L41.0768 11.6663H39.3674ZM44.5388 10.0712L44.4476 10.6868C44.3834 11.1199 44.2842 11.5831 44.1518 12.0764C44.0225 12.5707 43.8871 13.0359 43.7468 13.472C43.6064 13.9092 43.4911 14.2561 43.3999 14.5148H42.3742C42.4233 14.2711 42.4885 13.9503 42.5677 13.5522C42.6479 13.1532 42.7271 12.7071 42.8073 12.2128C42.8905 11.7235 42.9587 11.2222 43.0119 10.7089L43.08 10.0712H44.5388ZM51.541 11.6663V2.91658H52.8404V4.28314H52.9537C53.1362 3.81593 53.431 3.45398 53.837 3.19531C54.2431 2.93363 54.7313 2.80229 55.3008 2.80229C55.8783 2.80229 56.3586 2.93363 56.7426 3.19531C57.1296 3.45398 57.4314 3.81593 57.6479 4.28314H57.7392C57.9638 3.83197 58.2996 3.47303 58.7478 3.20634C59.196 2.93764 59.7334 2.80229 60.36 2.80229C61.142 2.80229 61.7817 3.04692 62.28 3.5372C62.7773 4.02347 63.0259 4.78143 63.0259 5.81011V11.6663H61.6814V5.81011C61.6814 5.16443 61.505 4.70323 61.152 4.42551C60.7981 4.14879 60.383 4.01043 59.9038 4.01043C59.2892 4.01043 58.812 4.19591 58.4741 4.56788C58.1362 4.93684 57.9667 5.40405 57.9667 5.96952V11.6663H56.6002V5.67375C56.6002 5.17646 56.4388 4.77543 56.116 4.47164C55.7931 4.16384 55.377 4.01043 54.8687 4.01043C54.5188 4.01043 54.1919 4.10267 53.8881 4.28916C53.5884 4.47564 53.3457 4.73331 53.1593 5.06417C52.9768 5.39102 52.8855 5.768 52.8855 6.19712V11.6663H51.541ZM68.059 11.8719C67.5046 11.8719 67.0012 11.7666 66.5491 11.5581C66.0969 11.3455 65.738 11.0397 65.4723 10.6407C65.2066 10.2386 65.0743 9.75236 65.0743 9.18288C65.0743 8.68158 65.1725 8.27453 65.37 7.96372C65.5675 7.6479 65.8312 7.40125 66.1621 7.22278C66.4919 7.04432 66.8569 6.91198 67.2559 6.82375C67.658 6.73351 68.063 6.66133 68.4691 6.60819C69.0005 6.53901 69.4316 6.48787 69.7624 6.45378C70.0963 6.41568 70.3389 6.35353 70.4913 6.2663C70.6467 6.17907 70.7249 6.02667 70.7249 5.81011V5.76499C70.7249 5.20253 70.5715 4.7654 70.2637 4.45459C69.96 4.14278 69.4977 3.98738 68.8791 3.98738C68.2375 3.98738 67.7342 4.12774 67.3692 4.40847C67.0053 4.6902 66.7486 4.98998 66.6002 5.30881L65.3249 4.85363C65.5525 4.32124 65.8563 3.90717 66.2363 3.6114C66.6193 3.31162 67.0374 3.10207 67.4895 2.98477C67.9447 2.86345 68.3929 2.80229 68.834 2.80229C69.1148 2.80229 69.4376 2.83638 69.8015 2.90456C70.1705 2.96973 70.5254 3.10407 70.8673 3.3096C71.2132 3.51414 71.5 3.82395 71.7275 4.23803C71.9551 4.65211 72.0694 5.20654 72.0694 5.90135V11.6663H70.7249V10.4813H70.6568C70.5655 10.6718 70.4131 10.8743 70.2006 11.0908C69.988 11.3074 69.7053 11.4919 69.3524 11.6433C68.9985 11.7957 68.5673 11.8719 68.059 11.8719ZM68.2636 10.6637C68.7959 10.6637 69.2441 10.5595 69.6081 10.3509C69.977 10.1414 70.2537 9.87167 70.4402 9.54182C70.6297 9.21096 70.7249 8.86406 70.7249 8.49911V7.26891C70.6678 7.33708 70.5425 7.39924 70.349 7.45639C70.1595 7.50953 69.9389 7.55765 69.6882 7.59876C69.4416 7.63686 69.2 7.67095 68.9644 7.70103C68.7328 7.7281 68.5453 7.75116 68.4009 7.77021C68.051 7.81533 67.7241 7.88953 67.4204 7.99179C67.1206 8.09105 66.8779 8.24043 66.6914 8.44196C66.509 8.63947 66.4177 8.90918 66.4177 9.25107C66.4177 9.71828 66.5912 10.0712 66.9371 10.3108C67.286 10.5464 67.7282 10.6637 68.2636 10.6637ZM75.8673 6.40265V11.6663H74.5228V2.91658H75.8222V4.28314H75.9355C76.141 3.83899 76.4528 3.48205 76.8699 3.21235C77.288 2.93864 77.8274 2.80229 78.4881 2.80229C79.0807 2.80229 79.599 2.9236 80.0432 3.16723C80.4873 3.40586 80.8332 3.77081 81.0799 4.26108C81.3265 4.74635 81.4498 5.36195 81.4498 6.10689V11.6663H80.1054V6.19712C80.1054 5.51033 79.9269 4.97493 79.5699 4.59094C79.213 4.20393 78.7238 4.01043 78.1001 4.01043C77.671 4.01043 77.288 4.10267 76.9501 4.28916C76.6153 4.47564 76.3516 4.74635 76.1581 5.10428C75.9646 5.46121 75.8673 5.89333 75.8673 6.40265ZM86.4819 11.8719C85.9275 11.8719 85.4242 11.7666 84.972 11.5581C84.5198 11.3455 84.1609 11.0397 83.8952 10.6407C83.6295 10.2386 83.4972 9.75236 83.4972 9.18288C83.4972 8.68158 83.5954 8.27453 83.7929 7.96372C83.9904 7.6479 84.2541 7.40125 84.585 7.22278C84.9149 7.04432 85.2798 6.91198 85.6788 6.82375C86.0809 6.73351 86.4859 6.66133 86.892 6.60819C87.4234 6.53901 87.8545 6.48787 88.1854 6.45378C88.5192 6.41568 88.7619 6.35353 88.9142 6.2663C89.0697 6.17907 89.1479 6.02667 89.1479 5.81011V5.76499C89.1479 5.20253 88.9945 4.7654 88.6867 4.45459C88.3829 4.14278 87.9207 3.98738 87.3021 3.98738C86.6604 3.98738 86.1571 4.12774 85.7921 4.40847C85.4282 4.6902 85.1715 4.98998 85.0231 5.30881L83.7478 4.85363C83.9754 4.32124 84.2792 3.90717 84.6592 3.6114C85.0422 3.31162 85.4603 3.10207 85.9125 2.98477C86.3676 2.86345 86.8158 2.80229 87.257 2.80229C87.5377 2.80229 87.8605 2.83638 88.2245 2.90456C88.5934 2.96973 88.9483 3.10407 89.2902 3.3096C89.6361 3.51414 89.9229 3.82395 90.1505 4.23803C90.3781 4.65211 90.4924 5.20654 90.4924 5.90135V11.6663H89.1479V10.4813H89.0797C88.9884 10.6718 88.836 10.8743 88.6235 11.0908C88.4109 11.3074 88.1282 11.4919 87.7753 11.6433C87.4214 11.7957 86.9903 11.8719 86.4819 11.8719ZM86.6865 10.6637C87.2189 10.6637 87.667 10.5595 88.031 10.3509C88.3999 10.1414 88.6766 9.87167 88.8631 9.54182C89.0526 9.21096 89.1479 8.86406 89.1479 8.49911V7.26891C89.0907 7.33708 88.9654 7.39924 88.7719 7.45639C88.5824 7.50953 88.3618 7.55765 88.1112 7.59876C87.8645 7.63686 87.6229 7.67095 87.3873 7.70103C87.1557 7.7281 86.9682 7.75116 86.8238 7.77021C86.4739 7.81533 86.1471 7.88953 85.8433 7.99179C85.5435 8.09105 85.3008 8.24043 85.1144 8.44196C84.9319 8.63947 84.8407 8.90918 84.8407 9.25107C84.8407 9.71828 85.0141 10.0712 85.36 10.3108C85.7089 10.5464 86.1511 10.6637 86.6865 10.6637ZM96.4779 15.1304C95.8282 15.1304 95.2698 15.0461 94.8036 14.8797C94.3363 14.7163 93.9463 14.4997 93.6355 14.23C93.3277 13.9643 93.0831 13.6796 92.9006 13.3758L93.9714 12.6238C94.0927 12.7833 94.2471 12.9647 94.4326 13.1703C94.6191 13.3788 94.8737 13.5593 95.1966 13.7117C95.5224 13.8671 95.9496 13.9453 96.4779 13.9453C97.1848 13.9453 97.7673 13.7738 98.2265 13.4319C98.6867 13.0901 98.9163 12.5547 98.9163 11.8258V10.0481H98.802C98.7037 10.2076 98.5634 10.4051 98.3809 10.6407C98.2024 10.8723 97.9437 11.0798 97.6059 11.2623C97.272 11.4408 96.8198 11.53 96.2503 11.53C95.5435 11.53 94.9098 11.3626 94.3474 11.0287C93.7889 10.6938 93.3468 10.2075 93.0199 9.56989C92.6971 8.93223 92.5357 8.15722 92.5357 7.24585C92.5357 6.34952 92.6931 5.56948 93.0089 4.90476C93.3237 4.23602 93.7629 3.71968 94.3243 3.35473C94.8868 2.98678 95.5365 2.80229 96.2724 2.80229C96.8429 2.80229 97.2941 2.89753 97.6289 3.08702C97.9668 3.27351 98.2245 3.48607 98.4029 3.72569C98.5854 3.9603 98.7258 4.1548 98.825 4.3062H98.9614V2.91658H100.261V11.917C100.261 12.669 100.089 13.2805 99.7474 13.7518C99.4095 14.226 98.9544 14.5739 98.3809 14.7935C97.8114 15.0181 97.1767 15.1304 96.4779 15.1304ZM96.4328 10.3218C96.9712 10.3218 97.4274 10.1985 97.7994 9.95188C98.1713 9.70524 98.4551 9.34932 98.6486 8.88612C98.8421 8.42291 98.9393 7.86846 98.9393 7.22278C98.9393 6.59214 98.8441 6.0357 98.6536 5.55345C98.4641 5.07119 98.1834 4.6932 97.8114 4.42049C97.4384 4.14678 96.9792 4.01043 96.4328 4.01043C95.8623 4.01043 95.3881 4.15481 95.0081 4.44255C94.6321 4.73131 94.3494 5.11932 94.1599 5.60558C93.9734 6.09085 93.8802 6.63024 93.8802 7.22278C93.8802 7.83036 93.9754 8.36776 94.1649 8.83498C94.3584 9.29818 94.6432 9.66313 95.0191 9.92882C95.3991 10.1905 95.8703 10.3218 96.4328 10.3218ZM106.39 11.8488C105.546 11.8488 104.82 11.6623 104.208 11.2904C103.6 10.9144 103.131 10.39 102.801 9.71829C102.475 9.04253 102.311 8.25548 102.311 7.36015C102.311 6.46382 102.475 5.67376 102.801 4.98998C103.131 4.3022 103.591 3.7668 104.18 3.3838C104.773 2.99579 105.463 2.80229 106.253 2.80229C106.71 2.80229 107.159 2.87849 107.604 3.02988C108.048 3.18228 108.452 3.42892 108.817 3.77081C109.181 4.10869 109.472 4.55686 109.688 5.11531C109.905 5.67376 110.013 6.36054 110.013 7.17767V7.74716H103.269V6.58514H108.646C108.646 6.09085 108.547 5.6507 108.35 5.26369C108.156 4.87568 107.879 4.56989 107.518 4.34631C107.161 4.12173 106.74 4.01043 106.253 4.01043C105.718 4.01043 105.255 4.14278 104.864 4.40847C104.476 4.67115 104.178 5.01304 103.969 5.43413C103.76 5.85623 103.656 6.30741 103.656 6.78966V7.56467C103.656 8.22539 103.77 8.78586 103.997 9.24505C104.229 9.70124 104.55 10.0481 104.96 10.2878C105.37 10.5234 105.847 10.6407 106.39 10.6407C106.744 10.6407 107.062 10.5916 107.347 10.4933C107.636 10.39 107.885 10.2386 108.093 10.0371C108.303 9.83157 108.464 9.57791 108.577 9.27412L109.877 9.63808C109.739 10.0792 109.51 10.4662 109.187 10.8001C108.864 11.131 108.465 11.3886 107.991 11.5751C107.516 11.7576 106.982 11.8488 106.39 11.8488ZM117.435 14.9479C117.208 14.9479 117.004 14.9288 116.826 14.8907C116.647 14.8566 116.524 14.8226 116.456 14.7885L116.798 13.6034C117.125 13.6866 117.413 13.7167 117.664 13.6946C117.915 13.6716 118.136 13.5593 118.33 13.3588C118.527 13.1612 118.708 12.8394 118.871 12.3952L119.122 11.7115L115.886 2.91658H117.344L119.76 9.88873H119.851L122.267 2.91658H123.725L120.011 12.9427C119.844 13.3938 119.636 13.7688 119.39 14.0646C119.143 14.3644 118.856 14.5869 118.529 14.7313C118.206 14.8757 117.843 14.9479 117.435 14.9479ZM128.741 11.8488C127.951 11.8488 127.258 11.6603 126.661 11.2844C126.069 10.9084 125.606 10.383 125.272 9.70625C124.941 9.03049 124.776 8.24044 124.776 7.33709C124.776 6.42572 124.941 5.62964 125.272 4.94987C125.606 4.2701 126.069 3.74274 126.661 3.36676C127.258 2.99078 127.951 2.80229 128.741 2.80229C129.531 2.80229 130.222 2.99078 130.814 3.36676C131.411 3.74274 131.874 4.2701 132.205 4.94987C132.539 5.62964 132.706 6.42572 132.706 7.33709C132.706 8.24044 132.539 9.03049 132.205 9.70625C131.874 10.383 131.411 10.9084 130.814 11.2844C130.222 11.6603 129.531 11.8488 128.741 11.8488ZM128.741 10.6407C129.34 10.6407 129.835 10.4873 130.222 10.1795C130.61 9.87168 130.896 9.46763 131.082 8.96633C131.268 8.46503 131.362 7.92161 131.362 7.33709C131.362 6.75157 131.268 6.20714 131.082 5.70183C130.896 5.19651 130.61 4.78846 130.222 4.47765C129.835 4.16584 129.34 4.01043 128.741 4.01043C128.14 4.01043 127.647 4.16584 127.26 4.47765C126.872 4.78846 126.585 5.19651 126.4 5.70183C126.213 6.20714 126.12 6.75157 126.12 7.33709C126.12 7.92161 126.213 8.46503 126.4 8.96633C126.585 9.46763 126.872 9.87168 127.26 10.1795C127.647 10.4873 128.14 10.6407 128.741 10.6407ZM140.272 8.08905V2.91658H141.616V11.6663H140.272V10.1855H140.181C139.976 10.6296 139.657 11.0076 139.224 11.3184C138.791 11.6262 138.245 11.7806 137.584 11.7806C137.036 11.7806 136.55 11.6603 136.125 11.4217C135.7 11.1781 135.365 10.8141 135.122 10.3279C134.88 9.83758 134.757 9.22098 134.757 8.47604V2.91658H136.102V8.38482C136.102 9.02348 136.28 9.53179 136.637 9.91178C136.998 10.2918 137.459 10.4813 138.016 10.4813C138.351 10.4813 138.691 10.396 139.036 10.2246C139.386 10.0541 139.678 9.79247 139.913 9.43855C140.153 9.08563 140.272 8.63547 140.272 8.08905ZM144.079 11.6663V2.91658H145.378V4.23803H145.469C145.629 3.8049 145.918 3.45398 146.335 3.18428C146.753 2.91458 147.224 2.77923 147.747 2.77923C147.847 2.77923 147.97 2.78123 148.118 2.78524C148.266 2.78925 148.378 2.79527 148.454 2.80229V4.16984C148.408 4.15781 148.304 4.14077 148.14 4.11871C147.981 4.09164 147.812 4.07862 147.634 4.07862C147.208 4.07862 146.829 4.16785 146.494 4.34631C146.164 4.52076 145.901 4.76439 145.708 5.0752C145.518 5.383 145.423 5.73392 145.423 6.12895V11.6663H144.079ZM158.091 15.1304C157.442 15.1304 156.884 15.0461 156.417 14.8797C155.95 14.7163 155.561 14.4997 155.249 14.23C154.941 13.9643 154.696 13.6796 154.514 13.3758L155.585 12.6238C155.706 12.7833 155.86 12.9647 156.046 13.1703C156.232 13.3788 156.487 13.5593 156.81 13.7117C157.136 13.8671 157.564 13.9453 158.091 13.9453C158.798 13.9453 159.381 13.7738 159.84 13.4319C160.3 13.0901 160.53 12.5547 160.53 11.8258V10.0481H160.415C160.317 10.2076 160.177 10.4051 159.994 10.6407C159.816 10.8723 159.557 11.0798 159.219 11.2623C158.885 11.4408 158.433 11.53 157.864 11.53C157.157 11.53 156.523 11.3626 155.961 11.0287C155.402 10.6938 154.96 10.2075 154.633 9.56989C154.31 8.93223 154.149 8.15722 154.149 7.24585C154.149 6.34952 154.307 5.56948 154.622 4.90476C154.937 4.23602 155.376 3.71968 155.938 3.35473C156.5 2.98678 157.15 2.80229 157.887 2.80229C158.456 2.80229 158.908 2.89753 159.242 3.08702C159.58 3.27351 159.839 3.48607 160.017 3.72569C160.199 3.9603 160.34 4.1548 160.438 4.3062H160.575V2.91658H161.874V11.917C161.874 12.669 161.703 13.2805 161.361 13.7518C161.023 14.226 160.568 14.5739 159.994 14.7935C159.425 15.0181 158.79 15.1304 158.091 15.1304ZM158.046 10.3218C158.585 10.3218 159.041 10.1985 159.413 9.95188C159.786 9.70524 160.068 9.34932 160.262 8.88612C160.455 8.42291 160.553 7.86846 160.553 7.22278C160.553 6.59214 160.457 6.0357 160.268 5.55345C160.077 5.07119 159.797 4.6932 159.425 4.42049C159.052 4.14678 158.592 4.01043 158.046 4.01043C157.476 4.01043 157.001 4.15481 156.621 4.44255C156.245 4.73131 155.963 5.11932 155.773 5.60558C155.587 6.09085 155.493 6.63024 155.493 7.22278C155.493 7.83036 155.589 8.36776 155.778 8.83498C155.972 9.29818 156.257 9.66313 156.633 9.92882C157.012 10.1905 157.484 10.3218 158.046 10.3218ZM164.334 11.6663V2.91658H165.634V4.23803H165.725C165.884 3.8049 166.173 3.45398 166.59 3.18428C167.008 2.91458 167.48 2.77923 168.003 2.77923C168.102 2.77923 168.226 2.78123 168.374 2.78524C168.522 2.78925 168.634 2.79527 168.71 2.80229V4.16984C168.665 4.15781 168.559 4.14077 168.397 4.11871C168.237 4.09164 168.068 4.07862 167.89 4.07862C167.465 4.07862 167.085 4.16785 166.75 4.34631C166.42 4.52076 166.158 4.76439 165.964 5.0752C165.774 5.383 165.679 5.73392 165.679 6.12895V11.6663H164.334ZM172.879 11.8719C172.324 11.8719 171.821 11.7666 171.369 11.5581C170.917 11.3455 170.558 11.0397 170.292 10.6407C170.026 10.2386 169.893 9.75236 169.893 9.18288C169.893 8.68158 169.992 8.27453 170.19 7.96372C170.387 7.6479 170.651 7.40125 170.982 7.22278C171.312 7.04432 171.677 6.91198 172.076 6.82375C172.478 6.73351 172.882 6.66133 173.289 6.60819C173.82 6.53901 174.251 6.48787 174.582 6.45378C174.916 6.41568 175.159 6.35353 175.311 6.2663C175.466 6.17907 175.545 6.02667 175.545 5.81011V5.76499C175.545 5.20253 175.39 4.7654 175.083 4.45459C174.78 4.14278 174.317 3.98738 173.699 3.98738C173.057 3.98738 172.554 4.12774 172.189 4.40847C171.825 4.6902 171.568 4.98998 171.42 5.30881L170.144 4.85363C170.372 4.32124 170.676 3.90717 171.056 3.6114C171.439 3.31162 171.857 3.10207 172.309 2.98477C172.764 2.86345 173.213 2.80229 173.653 2.80229C173.934 2.80229 174.257 2.83638 174.621 2.90456C174.99 2.96973 175.345 3.10407 175.687 3.3096C176.033 3.51414 176.32 3.82395 176.547 4.23803C176.775 4.65211 176.889 5.20654 176.889 5.90135V11.6663H175.545V10.4813H175.476C175.385 10.6718 175.233 10.8743 175.02 11.0908C174.808 11.3074 174.525 11.4919 174.171 11.6433C173.818 11.7957 173.387 11.8719 172.879 11.8719ZM173.083 10.6637C173.616 10.6637 174.064 10.5595 174.428 10.3509C174.797 10.1414 175.073 9.87167 175.26 9.54182C175.449 9.21096 175.545 8.86406 175.545 8.49911V7.26891C175.487 7.33708 175.362 7.39924 175.169 7.45639C174.978 7.50953 174.759 7.55765 174.508 7.59876C174.26 7.63686 174.02 7.67095 173.784 7.70103C173.552 7.7281 173.365 7.75116 173.221 7.77021C172.871 7.81533 172.544 7.88953 172.24 7.99179C171.94 8.09105 171.698 8.24043 171.511 8.44196C171.329 8.63947 171.237 8.90918 171.237 9.25107C171.237 9.71828 171.411 10.0712 171.756 10.3108C172.106 10.5464 172.548 10.6637 173.083 10.6637ZM182.647 11.8488C181.917 11.8488 181.273 11.6643 180.715 11.2964C180.158 10.9234 179.72 10.4 179.406 9.72329C179.09 9.04352 178.932 8.24043 178.932 7.31402C178.932 6.39463 179.09 5.59756 179.406 4.9218C179.72 4.24504 180.16 3.72369 180.721 3.35473C181.283 2.98678 181.932 2.80229 182.669 2.80229C183.24 2.80229 183.689 2.89753 184.02 3.08702C184.354 3.27351 184.608 3.48607 184.783 3.72569C184.961 3.9603 185.1 4.1548 185.199 4.3062H185.313V0H186.657V11.6663H185.358V10.3218H185.199C185.1 10.4813 184.959 10.6828 184.778 10.9254C184.595 11.165 184.334 11.3796 183.997 11.5691C183.659 11.7556 183.209 11.8488 182.647 11.8488ZM182.829 10.6407C183.368 10.6407 183.824 10.5003 184.196 10.2196C184.568 9.93485 184.851 9.54182 185.045 9.04051C185.239 8.5352 185.335 7.95169 185.335 7.29097C185.335 6.63827 185.241 6.06678 185.05 5.5765C184.861 5.08322 184.58 4.69922 184.207 4.42551C183.835 4.14879 183.376 4.01043 182.829 4.01043C182.259 4.01043 181.785 4.15581 181.405 4.44857C181.029 4.73732 180.746 5.13035 180.556 5.62764C180.37 6.12193 180.277 6.67637 180.277 7.29097C180.277 7.91459 180.372 8.48006 180.562 8.98938C180.755 9.4937 181.04 9.89674 181.416 10.1965C181.796 10.4933 182.267 10.6407 182.829 10.6407ZM192.975 11.8488C192.132 11.8488 191.404 11.6623 190.793 11.2904C190.186 10.9144 189.716 10.39 189.386 9.71829C189.059 9.04253 188.896 8.25548 188.896 7.36015C188.896 6.46382 189.059 5.67376 189.386 4.98998C189.716 4.3022 190.176 3.7668 190.764 3.3838C191.357 2.99579 192.048 2.80229 192.838 2.80229C193.294 2.80229 193.744 2.87849 194.188 3.02988C194.632 3.18228 195.037 3.42892 195.401 3.77081C195.766 4.10869 196.057 4.55686 196.274 5.11531C196.489 5.67376 196.597 6.36054 196.597 7.17767V7.74716H189.853V6.58514H195.231C195.231 6.09085 195.132 5.6507 194.934 5.26369C194.741 4.87568 194.464 4.56989 194.103 4.34631C193.746 4.12173 193.324 4.01043 192.838 4.01043C192.302 4.01043 191.839 4.14278 191.448 4.40847C191.061 4.67115 190.762 5.01304 190.554 5.43413C190.345 5.85623 190.24 6.30741 190.24 6.78966V7.56467C190.24 8.22539 190.354 8.78586 190.582 9.24505C190.813 9.70124 191.135 10.0481 191.545 10.2878C191.955 10.5234 192.431 10.6407 192.975 10.6407C193.328 10.6407 193.647 10.5916 193.931 10.4933C194.22 10.39 194.469 10.2386 194.678 10.0371C194.887 9.83157 195.048 9.57791 195.163 9.27412L196.461 9.63808C196.325 10.0792 196.094 10.4662 195.772 10.8001C195.449 11.131 195.05 11.3886 194.575 11.5751C194.101 11.7576 193.567 11.8488 192.975 11.8488ZM204.841 4.87569L203.633 5.21757C203.557 5.01604 203.445 4.82054 203.297 4.63105C203.152 4.43755 202.955 4.27813 202.704 4.1528C202.454 4.02747 202.133 3.96431 201.742 3.96431C201.206 3.96431 200.76 4.08764 200.403 4.33528C200.05 4.57791 199.873 4.88771 199.873 5.26369C199.873 5.59756 199.995 5.86125 200.238 6.05475C200.48 6.24926 200.86 6.41068 201.377 6.53901L202.676 6.85884C203.458 7.04834 204.042 7.3391 204.425 7.73011C204.809 8.11712 205 8.61641 205 9.228C205 9.7293 204.856 10.1775 204.567 10.5725C204.282 10.9675 203.883 11.2793 203.371 11.5069C202.859 11.7345 202.262 11.8488 201.582 11.8488C200.69 11.8488 199.951 11.6553 199.367 11.2673C198.781 10.8803 198.411 10.3148 198.256 9.56989L199.532 9.25107C199.653 9.72229 199.883 10.0752 200.221 10.3108C200.563 10.5464 201.009 10.6637 201.559 10.6637C202.186 10.6637 202.683 10.5304 203.052 10.2647C203.424 9.995 203.611 9.67216 203.611 9.29618C203.611 8.99239 203.504 8.73873 203.292 8.5332C203.078 8.32465 202.752 8.16824 202.311 8.06598L200.853 7.72409C200.051 7.53459 199.463 7.23984 199.087 6.8418C198.715 6.43875 198.529 5.93545 198.529 5.33188C198.529 4.83759 198.668 4.40145 198.944 4.02146C199.226 3.64147 199.607 3.3437 200.089 3.12714C200.576 2.91057 201.126 2.80229 201.742 2.80229C202.608 2.80229 203.288 2.99179 203.781 3.37178C204.278 3.75176 204.632 4.25307 204.841 4.87569Z" fill="#475467"/>
</svg>
