<svg width="110" height="13" viewBox="0 0 110 13" fill="none" xmlns="http://www.w3.org/2000/svg">
<path d="M0 0.564922H2.5878L6.05464 9.02476H6.19109L9.65792 0.564922H12.2457V12.2407H10.2168V4.21938H10.1084L6.88146 12.2066H5.36427L2.13729 4.20232H2.02892V12.2407H0V0.564922ZM16.9779 12.4173C16.423 12.4173 15.9233 12.319 15.4788 12.1213C15.0373 11.9196 14.6881 11.6226 14.4292 11.2313C14.1753 10.84 14.0479 10.3573 14.0479 9.78334C14.0479 9.28966 14.1392 8.88128 14.3208 8.55817C14.5034 8.23507 14.7523 7.9762 15.0684 7.78254C15.3834 7.58888 15.7386 7.44237 16.134 7.34303C16.5333 7.24068 16.9458 7.16642 17.3712 7.12127C17.885 7.06809 18.3004 7.01993 18.6205 6.97879C18.9395 6.93263 19.1714 6.86439 19.3158 6.77308C19.4634 6.67776 19.5376 6.53227 19.5376 6.33459V6.30048C19.5376 5.87101 19.4102 5.53788 19.1563 5.30208C18.9014 5.06628 18.5342 4.94887 18.0555 4.94887C17.5498 4.94887 17.1494 5.05924 16.8524 5.27899C16.5604 5.49974 16.3628 5.76064 16.2594 6.06066L14.3329 5.78672C14.4844 5.25491 14.7352 4.81039 15.0854 4.45318C15.4346 4.09195 15.8621 3.82203 16.3678 3.64343C16.8735 3.4608 17.4324 3.36948 18.0445 3.36948C18.466 3.36948 18.8864 3.41866 19.3038 3.518C19.7222 3.61633 20.1045 3.77988 20.4497 4.00766C20.7959 4.23242 21.0738 4.53848 21.2825 4.9258C21.4953 5.31412 21.6016 5.79876 21.6016 6.37974V12.2407H19.6179V11.0376H19.5496C19.4242 11.2815 19.2476 11.5092 19.0188 11.722C18.7951 11.9307 18.5121 12.1002 18.1699 12.2297C17.8318 12.3551 17.4344 12.4173 16.9779 12.4173ZM17.5137 10.9012C17.9281 10.9012 18.2873 10.8189 18.5914 10.6553C18.8954 10.4888 19.1292 10.268 19.2928 9.99407C19.4603 9.72114 19.5436 9.42212 19.5436 9.09902V8.0675C19.4794 8.12069 19.369 8.16985 19.2125 8.21601C19.061 8.26116 18.8894 8.3013 18.6997 8.33542C18.5101 8.36953 18.3214 8.39964 18.1358 8.42673C17.9492 8.45282 17.7876 8.47589 17.6512 8.49496C17.3431 8.5371 17.0672 8.60533 16.8244 8.70066C16.5805 8.79498 16.3889 8.92844 16.2484 9.09902C16.1079 9.26659 16.0377 9.48332 16.0377 9.74923C16.0377 10.1295 16.1762 10.4165 16.4531 10.6102C16.731 10.8038 17.0842 10.9012 17.5137 10.9012ZM28.0496 3.48387V5.08032H23.0154V3.48387H28.0496ZM24.2587 1.38573H26.3227V9.60675C26.3227 9.8847 26.3639 10.0974 26.4482 10.2449C26.5355 10.3894 26.6488 10.4888 26.7903 10.5419C26.9308 10.5951 27.0863 10.6212 27.2569 10.6212C27.3864 10.6212 27.5048 10.6122 27.6111 10.5931C27.7215 10.574 27.8048 10.557 27.862 10.5419L28.2091 12.1554C28.0998 12.1936 27.9413 12.2347 27.7366 12.2809C27.5349 12.326 27.288 12.3531 26.995 12.3601C26.4783 12.3752 26.0127 12.2979 25.5983 12.1263C25.1838 11.9517 24.8557 11.6818 24.6119 11.3176C24.3731 10.9523 24.2547 10.4958 24.2587 9.94892V1.38573ZM29.7755 12.2407V3.48387H31.8395V12.2407H29.7755ZM30.814 2.24063C30.4869 2.24063 30.205 2.13227 29.9702 1.91553C29.7343 1.69579 29.6159 1.43087 29.6159 1.12282C29.6159 0.811763 29.7343 0.547862 29.9702 0.331123C30.205 0.11037 30.4869 0 30.814 0C31.1442 0 31.4251 0.11037 31.6569 0.331123C31.8927 0.547862 32.0111 0.811763 32.0111 1.12282C32.0111 1.43087 31.8927 1.69579 31.6569 1.91553C31.4251 2.13227 31.1442 2.24063 30.814 2.24063ZM36.0258 0.564922V12.2407H33.9618V0.564922H36.0258ZM41.3981 12.3943C40.7098 12.3943 40.0947 12.2176 39.5508 11.8644C39.007 11.5112 38.5775 10.9975 38.2624 10.3252C37.9464 9.65191 37.7888 8.83511 37.7888 7.87384C37.7888 6.90052 37.9484 6.07972 38.2685 5.41044C38.5906 4.73814 39.026 4.23041 39.5739 3.88825C40.1208 3.54207 40.7309 3.36948 41.4042 3.36948C41.9169 3.36948 42.3383 3.45678 42.6695 3.63138C42.9996 3.80296 43.2625 4.00966 43.4561 4.25349C43.6498 4.49231 43.8003 4.71909 43.9067 4.93181H43.992V0.564922H46.062V12.2407H44.0321V10.861H43.9067C43.8003 11.0737 43.6458 11.2995 43.4451 11.5393C43.2434 11.7751 42.9775 11.9768 42.6464 12.1434C42.3162 12.311 41.8998 12.3943 41.3981 12.3943ZM41.9741 10.7015C42.4106 10.7015 42.7839 10.5831 43.0909 10.3483C43.399 10.1085 43.6327 9.77633 43.7923 9.34988C43.9518 8.92443 44.0321 8.42873 44.0321 7.8618C44.0321 7.29587 43.9518 6.80318 43.7923 6.38576C43.6367 5.96733 43.405 5.64223 43.0969 5.41044C42.7929 5.17865 42.4186 5.06326 41.9741 5.06326C41.5135 5.06326 41.1302 5.18267 40.8221 5.42249C40.5141 5.6613 40.2823 5.99242 40.1268 6.41386C39.9703 6.8363 39.893 7.31895 39.893 7.8618C39.893 8.40967 39.9703 8.89833 40.1268 9.3278C40.2863 9.75325 40.5201 10.0894 40.8282 10.3362C41.1392 10.5801 41.5215 10.7015 41.9741 10.7015ZM50.7811 12.4173C50.2262 12.4173 49.7265 12.319 49.281 12.1213C48.8405 11.9196 48.4903 11.6226 48.2324 11.2313C47.9776 10.84 47.8501 10.3573 47.8501 9.78334C47.8501 9.28966 47.9414 8.88128 48.1241 8.55817C48.3067 8.23507 48.5555 7.9762 48.8706 7.78254C49.1867 7.58888 49.5419 7.44237 49.9372 7.34303C50.3366 7.24068 50.748 7.16642 51.1745 7.12127C51.6872 7.06809 52.1036 7.01993 52.4227 6.97879C52.7418 6.93263 52.9736 6.86439 53.1181 6.77308C53.2666 6.67776 53.3408 6.53227 53.3408 6.33459V6.30048C53.3408 5.87101 53.2134 5.53788 52.9585 5.30208C52.7037 5.06628 52.3374 4.94887 51.8588 4.94887C51.353 4.94887 50.9517 5.05924 50.6557 5.27899C50.3627 5.49974 50.165 5.76064 50.0627 6.06066L48.1351 5.78672C48.2876 5.25491 48.5385 4.81039 48.8876 4.45318C49.2378 4.09195 49.6653 3.82203 50.171 3.64343C50.6768 3.4608 51.2346 3.36948 51.8467 3.36948C52.2692 3.36948 52.6886 3.41866 53.107 3.518C53.5255 3.61633 53.9068 3.77988 54.2529 4.00766C54.5991 4.23242 54.8761 4.53848 55.0848 4.9258C55.2985 5.31412 55.4049 5.79876 55.4049 6.37974V12.2407H53.4201V11.0376H53.3519C53.2264 11.2815 53.0499 11.5092 52.8221 11.722C52.5973 11.9307 52.3143 12.1002 51.9722 12.2297C51.634 12.3551 51.2367 12.4173 50.7811 12.4173ZM51.3169 10.9012C51.7314 10.9012 52.0906 10.8189 52.3946 10.6553C52.6987 10.4888 52.9325 10.268 53.095 9.99407C53.2626 9.72114 53.3459 9.42212 53.3459 9.09902V8.0675C53.2816 8.12069 53.1713 8.16985 53.0157 8.21601C52.8632 8.26116 52.6926 8.3013 52.503 8.33542C52.3123 8.36953 52.1247 8.39964 51.938 8.42673C51.7514 8.45282 51.5909 8.47589 51.4534 8.49496C51.1453 8.5371 50.8704 8.60533 50.6266 8.70066C50.3837 8.79498 50.1921 8.92844 50.0506 9.09902C49.9102 9.26659 49.8399 9.48332 49.8399 9.74923C49.8399 10.1295 49.9784 10.4165 50.2563 10.6102C50.5333 10.8038 50.8875 10.9012 51.3169 10.9012ZM61.5528 12.2407V0.564922H66.0231C66.867 0.564922 67.5683 0.697377 68.1272 0.963283C68.6892 1.22618 69.1096 1.58541 69.3865 2.04096C69.6685 2.49752 69.809 3.01427 69.809 3.59224C69.809 4.06686 69.7177 4.47325 69.5351 4.8124C69.3524 5.14654 69.1076 5.41847 68.7995 5.62718C68.4915 5.83589 68.1473 5.98641 67.768 6.07772V6.19211C68.1824 6.21418 68.5788 6.34162 68.9591 6.57341C69.3434 6.80219 69.6565 7.12528 69.9003 7.5427C70.1431 7.96113 70.2645 8.46686 70.2645 9.05989C70.2645 9.66394 70.118 10.2068 69.826 10.6904C69.533 11.1691 69.0925 11.5474 68.5035 11.8243C67.9135 12.1023 67.173 12.2407 66.2799 12.2407H61.5528ZM63.668 10.4737H65.9428C66.7114 10.4737 67.2643 10.3272 67.6024 10.0342C67.9446 9.73819 68.1152 9.35789 68.1152 8.89431C68.1152 8.54813 68.0299 8.23608 67.8593 7.95913C67.6877 7.67817 67.4449 7.45743 67.1288 7.29788C66.8138 7.13432 66.4375 7.05304 66 7.05304H63.668V10.4737ZM63.668 5.52985H65.7612C66.1254 5.52985 66.4545 5.46362 66.7475 5.33117C67.0395 5.1937 67.2693 5.00204 67.4369 4.7552C67.6085 4.50435 67.6938 4.20734 67.6938 3.86517C67.6938 3.41363 67.5342 3.04036 67.2151 2.74836C66.8991 2.45536 66.4295 2.30887 65.8063 2.30887H63.668V5.52985ZM74.5341 12.4173C73.9792 12.4173 73.4785 12.319 73.034 12.1213C72.5935 11.9196 72.2433 11.6226 71.9854 11.2313C71.7305 10.84 71.6031 10.3573 71.6031 9.78334C71.6031 9.28966 71.6944 8.88128 71.877 8.55817C72.0596 8.23507 72.3085 7.9762 72.6236 7.78254C72.9396 7.58888 73.2949 7.44237 73.6902 7.34303C74.0886 7.24068 74.501 7.16642 74.9274 7.12127C75.4402 7.06809 75.8566 7.01993 76.1757 6.97879C76.4948 6.93263 76.7266 6.86439 76.8711 6.77308C77.0196 6.67776 77.0938 6.53227 77.0938 6.33459V6.30048C77.0938 5.87101 76.9664 5.53788 76.7115 5.30208C76.4567 5.06628 76.0904 4.94887 75.6108 4.94887C75.106 4.94887 74.7047 5.05924 74.4087 5.27899C74.1157 5.49974 73.918 5.76064 73.8156 6.06066L71.888 5.78672C72.0406 5.25491 72.2914 4.81039 72.6406 4.45318C72.9908 4.09195 73.4183 3.82203 73.924 3.64343C74.4287 3.4608 74.9876 3.36948 75.5997 3.36948C76.0221 3.36948 76.4416 3.41866 76.86 3.518C77.2774 3.61633 77.6597 3.77988 78.0059 4.00766C78.3511 4.23242 78.629 4.53848 78.8377 4.9258C79.0505 5.31412 79.1579 5.79876 79.1579 6.37974V12.2407H77.1731V11.0376H77.1048C76.9794 11.2815 76.8028 11.5092 76.575 11.722C76.3503 11.9307 76.0673 12.1002 75.7251 12.2297C75.387 12.3551 74.9896 12.4173 74.5341 12.4173ZM75.0699 10.9012C75.4843 10.9012 75.8426 10.8189 76.1476 10.6553C76.4516 10.4888 76.6844 10.268 76.848 9.99407C77.0156 9.72114 77.0988 9.42212 77.0988 9.09902V8.0675C77.0346 8.12069 76.9243 8.16985 76.7687 8.21601C76.6162 8.26116 76.4456 8.3013 76.255 8.33542C76.0653 8.36953 75.8777 8.39964 75.691 8.42673C75.5044 8.45282 75.3428 8.47589 75.2064 8.49496C74.8983 8.5371 74.6234 8.60533 74.3795 8.70066C74.1367 8.79498 73.9441 8.92844 73.8036 9.09902C73.6631 9.26659 73.5929 9.48332 73.5929 9.74923C73.5929 10.1295 73.7313 10.4165 74.0093 10.6102C74.2862 10.8038 74.6405 10.9012 75.0699 10.9012ZM85.668 3.48387V5.08032H80.4914V3.48387H85.668ZM81.7858 12.2407V2.65706C81.7858 2.06805 81.9072 1.57738 82.1501 1.18604C82.3979 0.794708 82.728 0.50171 83.1424 0.308049C83.5569 0.114389 84.0164 0.0170564 84.5222 0.0170564C84.8794 0.0170564 85.1964 0.0461547 85.4744 0.102346C85.7513 0.159541 85.957 0.210723 86.0905 0.25688L85.6801 1.85331C85.5918 1.82622 85.4824 1.80013 85.3489 1.77304C85.2155 1.74293 85.068 1.72788 84.9044 1.72788C84.5201 1.72788 84.2482 1.8212 84.0887 2.00683C83.9331 2.18946 83.8548 2.45136 83.8548 2.79353V12.2407H81.7858ZM91.7197 3.48387V5.08032H86.543V3.48387H91.7197ZM87.8374 12.2407V2.65706C87.8374 2.06805 87.9588 1.57738 88.2027 1.18604C88.4495 0.794708 88.7797 0.50171 89.1941 0.308049C89.6085 0.114389 90.0691 0.0170564 90.5738 0.0170564C90.931 0.0170564 91.2491 0.0461547 91.526 0.102346C91.804 0.159541 92.0087 0.210723 92.1421 0.25688L91.7317 1.85331C91.6444 1.82622 91.534 1.80013 91.4006 1.77304C91.2681 1.74293 91.1196 1.72788 90.9561 1.72788C90.5718 1.72788 90.3008 1.8212 90.1413 2.00683C89.9848 2.18946 89.9075 2.45136 89.9075 2.79353V12.2407H87.8374ZM95.5587 12.4173C95.0038 12.4173 94.5041 12.319 94.0586 12.1213C93.6181 11.9196 93.268 11.6226 93.0101 11.2313C92.7552 10.84 92.6278 10.3573 92.6278 9.78334C92.6278 9.28966 92.719 8.88128 92.9017 8.55817C93.0843 8.23507 93.3332 7.9762 93.6482 7.78254C93.9643 7.58888 94.3195 7.44237 94.7149 7.34303C95.1142 7.24068 95.5257 7.16642 95.9521 7.12127C96.4649 7.06809 96.8813 7.01993 97.2004 6.97879C97.5195 6.93263 97.7513 6.86439 97.8957 6.77308C98.0443 6.67776 98.1185 6.53227 98.1185 6.33459V6.30048C98.1185 5.87101 97.9911 5.53788 97.7362 5.30208C97.4813 5.06628 97.1151 4.94887 96.6364 4.94887C96.1307 4.94887 95.7293 5.05924 95.4333 5.27899C95.1403 5.49974 94.9426 5.76064 94.8403 6.06066L92.9128 5.78672C93.0653 5.25491 93.3161 4.81039 93.6653 4.45318C94.0155 4.09195 94.443 3.82203 94.9487 3.64343C95.4544 3.4608 96.0123 3.36948 96.6244 3.36948C97.0468 3.36948 97.4662 3.41866 97.8847 3.518C98.3031 3.61633 98.6844 3.77988 99.0306 4.00766C99.3768 4.23242 99.6537 4.53848 99.8624 4.9258C100.076 5.31412 100.183 5.79876 100.183 6.37974V12.2407H98.1977V11.0376H98.1295C98.0041 11.2815 97.8275 11.5092 97.5997 11.722C97.3749 11.9307 97.092 12.1002 96.7498 12.2297C96.4117 12.3551 96.0143 12.4173 95.5587 12.4173ZM96.0946 10.9012C96.509 10.9012 96.8682 10.8189 97.1723 10.6553C97.4763 10.4888 97.7101 10.268 97.8736 9.99407C98.0402 9.72114 98.1245 9.42212 98.1245 9.09902V8.0675C98.0593 8.12069 97.9489 8.16985 97.7933 8.21601C97.6408 8.26116 97.4703 8.3013 97.2806 8.33542C97.09 8.36953 96.9023 8.39964 96.7157 8.42673C96.5291 8.45282 96.3685 8.47589 96.2311 8.49496C95.923 8.5371 95.648 8.60533 95.4042 8.70066C95.1614 8.79498 94.9698 8.92844 94.8283 9.09902C94.6878 9.26659 94.6175 9.48332 94.6175 9.74923C94.6175 10.1295 94.756 10.4165 95.0339 10.6102C95.3109 10.8038 95.6651 10.9012 96.0946 10.9012ZM104.322 7.10924V12.2407H102.258V0.564922H104.275V4.97194H104.378C104.584 4.47726 104.901 4.08794 105.33 3.80297C105.764 3.51398 106.314 3.36948 106.984 3.36948C107.592 3.36948 108.123 3.49691 108.574 3.75178C109.027 4.00665 109.377 4.37893 109.624 4.86859C109.875 5.35927 110 5.9583 110 6.66471V12.2407H107.936V6.98381C107.936 6.3948 107.783 5.93724 107.479 5.61012C107.179 5.27899 106.758 5.11443 106.214 5.11443C105.849 5.11443 105.523 5.1937 105.234 5.35325C104.949 5.50978 104.724 5.73555 104.56 6.03156C104.401 6.32857 104.322 6.6878 104.322 7.10924Z" fill="#344054"/>
</svg>
