<svg width="456" height="20" viewBox="0 0 456 20" fill="none" xmlns="http://www.w3.org/2000/svg">
<path d="M0 15.0108V0.455329H8.78531V2.01845H1.76329V6.937H8.33003V8.50012H1.76329V13.4477H8.89843V15.0108H0ZM20.6619 4.09395L16.624 15.0108H14.9188L10.8819 4.09395H12.7012L15.7143 12.7932H15.8284L18.8416 4.09395H20.6619ZM27.0615 15.238C26.0097 15.238 25.1021 15.0058 24.3395 14.5415C23.581 14.0721 22.9965 13.4187 22.5842 12.5801C22.177 11.7365 21.9728 10.7557 21.9728 9.63793C21.9728 8.51913 22.177 7.53342 22.5842 6.6808C22.9965 5.82319 23.57 5.15571 24.3035 4.67637C25.043 4.19302 25.9056 3.95185 26.8914 3.95185C27.4598 3.95185 28.0212 4.04691 28.5756 4.23605C29.13 4.42519 29.6343 4.73341 30.0896 5.15972C30.544 5.58202 30.9062 6.14042 31.1764 6.83692C31.4466 7.53342 31.5817 8.39104 31.5817 9.40977V10.1213H23.1667V8.67123H29.8765C29.8765 8.05479 29.7535 7.5054 29.5063 7.02205C29.2651 6.5387 28.9188 6.15742 28.4685 5.87822C28.0232 5.59802 27.4978 5.45893 26.8914 5.45893C26.2229 5.45893 25.6445 5.62404 25.1571 5.95628C24.6738 6.28252 24.3015 6.70982 24.0413 7.2352C23.7801 7.76158 23.65 8.32499 23.65 8.92642V9.89312C23.65 10.7177 23.7921 11.4172 24.0763 11.9906C24.3656 12.559 24.7659 12.9924 25.2772 13.2906C25.7896 13.5848 26.384 13.7319 27.0615 13.7319C27.5018 13.7319 27.9001 13.6698 28.2554 13.5467C28.6156 13.4186 28.9258 13.2295 29.187 12.9783C29.4472 12.7221 29.6484 12.4049 29.7905 12.0257L31.4116 12.481C31.2405 13.0304 30.9543 13.5137 30.551 13.93C30.1487 14.3423 29.6514 14.6645 29.0589 14.8967C28.4665 15.1249 27.801 15.238 27.0615 15.238ZM34.1336 15.0108V4.09395H35.7538V5.74313H35.8679C36.067 5.20274 36.4272 4.76443 36.9476 4.42819C37.469 4.09195 38.0564 3.92282 38.7109 3.92282C38.834 3.92282 38.9881 3.92582 39.1722 3.93082C39.3574 3.93483 39.4974 3.94184 39.5915 3.95185V5.65707C39.5354 5.64306 39.4044 5.62205 39.2012 5.59303C39.0021 5.56001 38.7909 5.54398 38.5688 5.54398C38.0374 5.54398 37.564 5.65506 37.1467 5.87822C36.7344 6.09538 36.4082 6.39861 36.166 6.78789C35.9289 7.17116 35.8108 7.60948 35.8108 8.10283V15.0108H34.1336ZM42.993 19.1048C42.7088 19.1048 42.4546 19.0807 42.2324 19.0337C42.0093 18.9907 41.8561 18.9486 41.77 18.9056L42.1964 17.4275C42.6047 17.5316 42.9639 17.5697 43.2772 17.5406C43.5894 17.5126 43.8666 17.3725 44.1088 17.1213C44.3549 16.8752 44.5801 16.4749 44.7842 15.9205L45.0965 15.0678L41.0596 4.09395H42.8789L45.8931 12.7932H46.0061L49.0203 4.09395H50.8396L46.2052 16.603C45.9971 17.1664 45.7389 17.6337 45.4307 18.0029C45.1225 18.3772 44.7652 18.6544 44.3579 18.8346C43.9546 19.0147 43.5003 19.1048 42.993 19.1048ZM57.8006 4.09395V5.51497H52.1435V4.09395H57.8006ZM53.7927 1.47807H55.4699V11.8836C55.4699 12.3569 55.5389 12.7132 55.676 12.9493C55.8181 13.1815 55.9983 13.3386 56.2165 13.4187C56.4386 13.4947 56.6738 13.5327 56.92 13.5327C57.1041 13.5327 57.2562 13.5227 57.3743 13.5037C57.4934 13.4807 57.5874 13.4617 57.6585 13.4477L57.9997 14.9538C57.8867 14.9968 57.7275 15.0388 57.5234 15.0819C57.3202 15.1289 57.0621 15.1529 56.7488 15.1529C56.2755 15.1529 55.8112 15.0508 55.3559 14.8477C54.9055 14.6435 54.5313 14.3333 54.2331 13.916C53.9398 13.4997 53.7927 12.9733 53.7927 12.3389V1.47807ZM62.2358 8.44408V15.0108H60.5586V0.455329H62.2358V5.79917H62.3779C62.6341 5.23577 63.0184 4.78845 63.5297 4.45621C64.0461 4.11997 64.7336 3.95185 65.5912 3.95185C66.3347 3.95185 66.9862 4.10095 67.5456 4.39916C68.104 4.69337 68.5383 5.14571 68.8456 5.75715C69.1588 6.36358 69.3149 7.13613 69.3149 8.0738V15.0108H67.6377V8.1879C67.6377 7.32027 67.4125 6.64978 66.9622 6.17644C66.5169 5.6981 65.8985 5.45893 65.1079 5.45893C64.5575 5.45893 64.0651 5.57501 63.6288 5.80717C63.1975 6.03934 62.8573 6.37758 62.6061 6.8229C62.3589 7.26822 62.2358 7.80862 62.2358 8.44408ZM72.3841 15.0108V4.09395H74.0613V15.0108H72.3841ZM73.2367 2.27463C72.9095 2.27463 72.6272 2.16255 72.3911 1.94039C72.1589 1.71723 72.0429 1.45004 72.0429 1.13682C72.0429 0.824595 72.1589 0.5564 72.3911 0.33424C72.6272 0.11108 72.9095 0 73.2367 0C73.564 0 73.8432 0.11108 74.0753 0.33424C74.3125 0.5564 74.4306 0.824595 74.4306 1.13682C74.4306 1.45004 74.3125 1.71723 74.0753 1.94039C73.8432 2.16255 73.564 2.27463 73.2367 2.27463ZM78.8107 8.44408V15.0108H77.1335V4.09395H78.7537V5.79917H78.8958C79.1519 5.24477 79.5403 4.79946 80.0616 4.46322C80.583 4.12197 81.2555 3.95185 82.0801 3.95185C82.8186 3.95185 83.4661 4.10295 84.0205 4.40617C84.5749 4.70539 85.0062 5.15971 85.3134 5.77115C85.6216 6.37759 85.7757 7.14513 85.7757 8.0738V15.0108H84.0985V8.1879C84.0985 7.33028 83.8753 6.66179 83.43 6.18345C82.9847 5.7001 82.3733 5.45893 81.5967 5.45893C81.0614 5.45893 80.583 5.57501 80.1607 5.80717C79.7444 6.03934 79.4142 6.37758 79.173 6.8229C78.9318 7.26822 78.8107 7.80862 78.8107 8.44408ZM93.2471 19.3319C92.4375 19.3319 91.7411 19.2278 91.1576 19.0197C90.5752 18.8156 90.0898 18.5454 89.7005 18.2091C89.3173 17.8779 89.0111 17.5216 88.7839 17.1433L90.1198 16.2047C90.272 16.4038 90.4641 16.631 90.6963 16.8872C90.9285 17.1473 91.2457 17.3725 91.648 17.5626C92.0553 17.7568 92.5886 17.8539 93.2471 17.8539C94.1287 17.8539 94.8563 17.6407 95.4297 17.2144C96.0031 16.7881 96.2893 16.1196 96.2893 15.2099V12.9924H96.1472C96.0241 13.1915 95.849 13.4377 95.6208 13.7319C95.3986 14.0201 95.0764 14.2783 94.6551 14.5064C94.2378 14.7286 93.6734 14.8407 92.9629 14.8407C92.0823 14.8407 91.2907 14.6315 90.5892 14.2152C89.8927 13.7979 89.3403 13.1915 88.933 12.3949C88.5307 11.5993 88.3296 10.6326 88.3296 9.49583C88.3296 8.37703 88.5257 7.40333 88.919 6.57474C89.3123 5.74014 89.8597 5.09567 90.5612 4.64134C91.2617 4.18201 92.0722 3.95185 92.9919 3.95185C93.7024 3.95185 94.2658 4.06993 94.6831 4.3071C95.1044 4.53927 95.4267 4.80446 95.6498 5.10267C95.877 5.39688 96.0521 5.63806 96.1752 5.8282H96.3464V4.09395H97.9665V15.323C97.9665 16.2617 97.7534 17.0242 97.3271 17.6117C96.9058 18.2041 96.3363 18.6384 95.6208 18.9126C94.9103 19.1928 94.1187 19.3319 93.2471 19.3319ZM93.1901 13.3336C93.8636 13.3336 94.432 13.1795 94.8963 12.8713C95.3606 12.563 95.7139 12.1207 95.955 11.5423C96.1972 10.9639 96.3174 10.2724 96.3174 9.46682C96.3174 8.68025 96.1992 7.98675 95.9621 7.38431C95.7259 6.78288 95.3747 6.31155 94.9103 5.9703C94.446 5.62905 93.8726 5.45893 93.1901 5.45893C92.4796 5.45893 91.8871 5.63806 91.4138 5.99832C90.9445 6.35858 90.5912 6.84192 90.3551 7.44835C90.1229 8.05479 90.0068 8.72829 90.0068 9.46682C90.0068 10.2254 90.1248 10.8958 90.362 11.4783C90.6032 12.0567 90.9584 12.511 91.4278 12.8433C91.9021 13.1705 92.4896 13.3336 93.1901 13.3336ZM107.747 19.1048C107.462 19.1048 107.209 19.0807 106.986 19.0337C106.763 18.9907 106.61 18.9486 106.524 18.9056L106.95 17.4275C107.358 17.5316 107.719 17.5697 108.031 17.5406C108.344 17.5126 108.62 17.3725 108.862 17.1213C109.109 16.8752 109.334 16.4749 109.538 15.9205L109.85 15.0678L105.813 4.09395H107.632L110.647 12.7932H110.76L113.774 4.09395H115.593L110.959 16.603C110.751 17.1664 110.493 17.6337 110.184 18.0029C109.876 18.3772 109.519 18.6544 109.112 18.8346C108.708 19.0147 108.254 19.1048 107.747 19.1048ZM121.851 15.238C120.866 15.238 120 15.0038 119.257 14.5344C118.517 14.0651 117.94 13.4097 117.523 12.566C117.11 11.7224 116.904 10.7367 116.904 9.60892C116.904 8.4721 117.11 7.47939 117.523 6.63078C117.94 5.78317 118.517 5.12468 119.257 4.65534C120 4.18601 120.866 3.95185 121.851 3.95185C122.836 3.95185 123.699 4.18601 124.439 4.65534C125.182 5.12468 125.761 5.78317 126.173 6.63078C126.589 7.47939 126.798 8.4721 126.798 9.60892C126.798 10.7367 126.589 11.7224 126.173 12.566C125.761 13.4097 125.182 14.0651 124.439 14.5344C123.699 15.0038 122.836 15.238 121.851 15.238ZM121.851 13.7319C122.599 13.7319 123.216 13.5397 123.699 13.1555C124.182 12.7722 124.54 12.2678 124.772 11.6424C125.004 11.0169 125.12 10.3384 125.12 9.60892C125.12 8.87939 125.004 8.1999 124.772 7.56944C124.54 6.93899 124.182 6.42963 123.699 6.04135C123.216 5.65307 122.599 5.45893 121.851 5.45893C121.102 5.45893 120.487 5.65307 120.003 6.04135C119.52 6.42963 119.162 6.93899 118.93 7.56944C118.697 8.1999 118.581 8.87939 118.581 9.60892C118.581 10.3384 118.697 11.0169 118.93 11.6424C119.162 12.2678 119.52 12.7722 120.003 13.1555C120.487 13.5397 121.102 13.7319 121.851 13.7319ZM136.238 10.5476V4.09395H137.915V15.0108H136.238V13.1625H136.125C135.869 13.7169 135.47 14.1892 134.93 14.5775C134.391 14.9608 133.708 15.1529 132.884 15.1529C132.201 15.1529 131.595 15.0038 131.064 14.7056C130.533 14.4024 130.117 13.947 129.813 13.3406C129.51 12.7292 129.358 11.9596 129.358 11.0309V4.09395H131.035V10.9169C131.035 11.7134 131.258 12.3479 131.704 12.8212C132.154 13.2956 132.728 13.5327 133.424 13.5327C133.84 13.5327 134.265 13.4257 134.696 13.2125C135.132 12.9994 135.496 12.6721 135.791 12.2318C136.089 11.7915 136.238 11.2301 136.238 10.5476ZM148.294 8.44408V15.0108H146.616V4.09395H148.238V5.79917H148.38C148.635 5.24477 149.024 4.79946 149.545 4.46322C150.066 4.12197 150.74 3.95185 151.563 3.95185C152.303 3.95185 152.949 4.10295 153.503 4.40617C154.058 4.70539 154.489 5.15971 154.797 5.77115C155.106 6.37759 155.26 7.14513 155.26 8.0738V15.0108H153.582V8.1879C153.582 7.33028 153.359 6.66179 152.914 6.18345C152.469 5.7001 151.857 5.45893 151.08 5.45893C150.544 5.45893 150.066 5.57501 149.645 5.80717C149.227 6.03934 148.898 6.37758 148.657 6.8229C148.415 7.26822 148.294 7.80862 148.294 8.44408ZM162.901 15.238C161.849 15.238 160.942 15.0058 160.179 14.5415C159.422 14.0721 158.836 13.4187 158.424 12.5801C158.017 11.7365 157.813 10.7557 157.813 9.63793C157.813 8.51913 158.017 7.53342 158.424 6.6808C158.836 5.82319 159.41 5.15571 160.144 4.67637C160.883 4.19302 161.745 3.95185 162.731 3.95185C163.3 3.95185 163.861 4.04691 164.415 4.23605C164.97 4.42519 165.474 4.73341 165.929 5.15972C166.384 5.58202 166.747 6.14042 167.017 6.83692C167.286 7.53342 167.421 8.39104 167.421 9.40977V10.1213H159.006V8.67123H165.716C165.716 8.05479 165.593 7.5054 165.347 7.02205C165.105 6.5387 164.759 6.15742 164.309 5.87822C163.864 5.59802 163.338 5.45893 162.731 5.45893C162.063 5.45893 161.485 5.62404 160.997 5.95628C160.514 6.28252 160.141 6.70982 159.881 7.2352C159.62 7.76158 159.49 8.32499 159.49 8.92642V9.89312C159.49 10.7177 159.632 11.4172 159.916 11.9906C160.205 12.559 160.606 12.9924 161.118 13.2906C161.629 13.5848 162.224 13.7319 162.901 13.7319C163.343 13.7319 163.74 13.6698 164.096 13.5467C164.455 13.4186 164.766 13.2295 165.027 12.9783C165.287 12.7221 165.489 12.4049 165.631 12.0257L167.251 12.481C167.08 13.0304 166.794 13.5137 166.392 13.93C165.988 14.3423 165.491 14.6645 164.899 14.8967C164.306 15.1249 163.641 15.238 162.901 15.238ZM174.551 15.238C173.499 15.238 172.591 15.0058 171.829 14.5415C171.07 14.0721 170.485 13.4187 170.073 12.5801C169.665 11.7365 169.462 10.7557 169.462 9.63793C169.462 8.51913 169.665 7.53342 170.073 6.6808C170.485 5.82319 171.058 5.15571 171.793 4.67637C172.532 4.19302 173.395 3.95185 174.38 3.95185C174.949 3.95185 175.51 4.04691 176.065 4.23605C176.619 4.42519 177.123 4.73341 177.579 5.15972C178.033 5.58202 178.395 6.14042 178.666 6.83692C178.936 7.53342 179.071 8.39104 179.071 9.40977V10.1213H170.656V8.67123H177.365C177.365 8.05479 177.242 7.5054 176.995 7.02205C176.754 6.5387 176.408 6.15742 175.958 5.87822C175.512 5.59802 174.987 5.45893 174.38 5.45893C173.712 5.45893 173.134 5.62404 172.646 5.95628C172.163 6.28252 171.791 6.70982 171.529 7.2352C171.269 7.76158 171.139 8.32499 171.139 8.92642V9.89312C171.139 10.7177 171.281 11.4172 171.565 11.9906C171.855 12.559 172.255 12.9924 172.766 13.2906C173.279 13.5848 173.873 13.7319 174.551 13.7319C174.991 13.7319 175.389 13.6698 175.745 13.5467C176.105 13.4186 176.415 13.2295 176.676 12.9783C176.936 12.7221 177.138 12.4049 177.28 12.0257L178.901 12.481C178.73 13.0304 178.443 13.5137 178.04 13.93C177.638 14.3423 177.14 14.6645 176.548 14.8967C175.956 15.1249 175.29 15.238 174.551 15.238ZM185.745 15.238C184.835 15.238 184.031 15.0088 183.335 14.5485C182.638 14.0841 182.094 13.4307 181.701 12.5871C181.307 11.7395 181.11 10.7367 181.11 9.5809C181.11 8.43407 181.307 7.43936 181.701 6.59575C182.094 5.75214 182.641 5.10067 183.342 4.64134C184.043 4.18201 184.854 3.95185 185.773 3.95185C186.484 3.95185 187.046 4.06993 187.458 4.3071C187.874 4.53927 188.192 4.80446 188.41 5.10267C188.633 5.39688 188.806 5.63806 188.929 5.8282H189.071V0.455329H190.748V15.0108H189.128V13.3336H188.929C188.806 13.5327 188.631 13.7839 188.403 14.0871C188.175 14.3853 187.851 14.6535 187.429 14.8897C187.008 15.1219 186.446 15.238 185.745 15.238ZM185.972 13.7319C186.645 13.7319 187.214 13.5558 187.678 13.2055C188.142 12.8503 188.496 12.3599 188.737 11.7345C188.979 11.104 189.099 10.3765 189.099 9.55187C189.099 8.73729 188.981 8.02378 188.744 7.41334C188.507 6.7969 188.156 6.31855 187.692 5.97731C187.228 5.63106 186.654 5.45893 185.972 5.45893C185.261 5.45893 184.669 5.64107 184.196 6.00533C183.726 6.36559 183.373 6.85593 183.136 7.47738C182.904 8.09282 182.788 8.78432 182.788 9.55187C182.788 10.3294 182.907 11.0349 183.144 11.6704C183.385 12.3008 183.74 12.8032 184.21 13.1775C184.683 13.5467 185.271 13.7319 185.972 13.7319ZM204.43 4.09395V5.51497H198.773V4.09395H204.43ZM200.421 1.47807H202.098V11.8836C202.098 12.3569 202.167 12.7132 202.305 12.9493C202.447 13.1815 202.627 13.3386 202.845 13.4187C203.068 13.4947 203.302 13.5327 203.549 13.5327C203.734 13.5327 203.885 13.5227 204.004 13.5037C204.122 13.4807 204.217 13.4617 204.288 13.4477L204.629 14.9538C204.515 14.9968 204.357 15.0388 204.153 15.0819C203.949 15.1289 203.691 15.1529 203.378 15.1529C202.904 15.1529 202.44 15.0508 201.985 14.8477C201.535 14.6435 201.161 14.3333 200.863 13.916C200.568 13.4997 200.421 12.9733 200.421 12.3389V1.47807ZM211.271 15.238C210.285 15.238 209.421 15.0038 208.677 14.5344C207.938 14.0651 207.359 13.4097 206.943 12.566C206.531 11.7224 206.324 10.7367 206.324 9.60892C206.324 8.4721 206.531 7.47939 206.943 6.63078C207.359 5.78317 207.938 5.12468 208.677 4.65534C209.421 4.18601 210.285 3.95185 211.271 3.95185C212.257 3.95185 213.118 4.18601 213.858 4.65534C214.601 5.12468 215.18 5.78317 215.592 6.63078C216.009 7.47939 216.218 8.4721 216.218 9.60892C216.218 10.7367 216.009 11.7224 215.592 12.566C215.18 13.4097 214.601 14.0651 213.858 14.5344C213.118 15.0038 212.257 15.238 211.271 15.238ZM211.271 13.7319C212.02 13.7319 212.635 13.5397 213.118 13.1555C213.602 12.7722 213.96 12.2678 214.192 11.6424C214.424 11.0169 214.54 10.3384 214.54 9.60892C214.54 8.87939 214.424 8.1999 214.192 7.56944C213.96 6.93899 213.602 6.42963 213.118 6.04135C212.635 5.65307 212.02 5.45893 211.271 5.45893C210.523 5.45893 209.906 5.65307 209.423 6.04135C208.939 6.42963 208.582 6.93899 208.35 7.56944C208.118 8.1999 208.002 8.87939 208.002 9.60892C208.002 10.3384 208.118 11.0169 208.35 11.6424C208.582 12.2678 208.939 12.7722 209.423 13.1555C209.906 13.5397 210.523 13.7319 211.271 13.7319ZM225.971 11.0309L225.943 8.95545H226.284L231.059 4.09395H233.135L228.046 9.23965H227.904L225.971 11.0309ZM224.408 15.0108V0.455329H226.085V15.0108H224.408ZM231.343 15.0108L227.079 9.60892L228.273 8.44408L233.476 15.0108H231.343ZM236.972 8.44408V15.0108H235.294V4.09395H236.914V5.79917H237.057C237.313 5.24477 237.701 4.79946 238.222 4.46322C238.743 4.12197 239.416 3.95185 240.241 3.95185C240.979 3.95185 241.627 4.10295 242.181 4.40617C242.736 4.70539 243.166 5.15971 243.474 5.77115C243.782 6.37759 243.937 7.14513 243.937 8.0738V15.0108H242.259V8.1879C242.259 7.33028 242.036 6.66179 241.591 6.18345C241.146 5.7001 240.534 5.45893 239.758 5.45893C239.222 5.45893 238.743 5.57501 238.322 5.80717C237.904 6.03934 237.575 6.37758 237.334 6.8229C237.092 7.26822 236.972 7.80862 236.972 8.44408ZM251.437 15.238C250.451 15.238 249.587 15.0038 248.842 14.5344C248.104 14.0651 247.525 13.4097 247.108 12.566C246.696 11.7224 246.489 10.7367 246.489 9.60892C246.489 8.4721 246.696 7.47939 247.108 6.63078C247.525 5.78317 248.104 5.12468 248.842 4.65534C249.587 4.18601 250.451 3.95185 251.437 3.95185C252.422 3.95185 253.284 4.18601 254.024 4.65534C254.767 5.12468 255.346 5.78317 255.758 6.63078C256.174 7.47939 256.384 8.4721 256.384 9.60892C256.384 10.7367 256.174 11.7224 255.758 12.566C255.346 13.4097 254.767 14.0651 254.024 14.5344C253.284 15.0038 252.422 15.238 251.437 15.238ZM251.437 13.7319C252.186 13.7319 252.801 13.5397 253.284 13.1555C253.768 12.7722 254.126 12.2678 254.358 11.6424C254.59 11.0169 254.706 10.3384 254.706 9.60892C254.706 8.87939 254.59 8.1999 254.358 7.56944C254.126 6.93899 253.768 6.42963 253.284 6.04135C252.801 5.65307 252.186 5.45893 251.437 5.45893C250.687 5.45893 250.072 5.65307 249.589 6.04135C249.105 6.42963 248.748 6.93899 248.516 7.56944C248.284 8.1999 248.168 8.87939 248.168 9.60892C248.168 10.3384 248.284 11.0169 248.516 11.6424C248.748 12.2678 249.105 12.7722 249.589 13.1555C250.072 13.5397 250.687 13.7319 251.437 13.7319ZM261.046 15.0108L257.719 4.09395H259.482L261.841 12.452H261.956L264.286 4.09395H266.077L268.38 12.4239H268.494L270.854 4.09395H272.616L269.29 15.0108H267.642L265.253 6.62377H265.083L262.695 15.0108H261.046ZM283.675 15.267C282.984 15.267 282.356 15.1359 281.792 14.8757C281.228 14.6105 280.78 14.2292 280.449 13.7319C280.118 13.2295 279.951 12.6231 279.951 11.9116C279.951 11.2861 280.075 10.7798 280.321 10.3915C280.567 9.9982 280.896 9.68998 281.308 9.46682C281.721 9.24466 282.176 9.07853 282.673 8.96945C283.176 8.85537 283.68 8.7653 284.188 8.69925C284.851 8.61419 285.388 8.55016 285.801 8.50713C286.218 8.46009 286.521 8.38203 286.71 8.27295C286.904 8.16387 287.002 7.97474 287.002 7.70455V7.6475C287.002 6.946 286.81 6.40161 286.426 6.01333C286.047 5.62405 285.471 5.4299 284.699 5.4299C283.898 5.4299 283.271 5.60503 282.816 5.95628C282.361 6.30653 282.041 6.68081 281.856 7.0791L280.264 6.51068C280.548 5.8472 280.927 5.33084 281.402 4.96057C281.88 4.5863 282.401 4.32611 282.965 4.179C283.533 4.02789 284.092 3.95185 284.642 3.95185C284.993 3.95185 285.395 3.99387 285.851 4.07993C286.31 4.15999 286.753 4.32811 287.18 4.58429C287.611 4.84048 287.968 5.22676 288.252 5.74313C288.537 6.2595 288.679 6.951 288.679 7.81762V15.0108H287.002V13.5327H286.916C286.802 13.7689 286.613 14.0231 286.348 14.2933C286.083 14.5635 285.73 14.7926 285.289 14.9828C284.848 15.1719 284.311 15.267 283.675 15.267ZM283.931 13.7599C284.595 13.7599 285.154 13.6298 285.609 13.3686C286.069 13.1084 286.414 12.7722 286.646 12.3599C286.883 11.9476 287.002 11.5143 287.002 11.059V9.52385C286.93 9.60891 286.774 9.68698 286.533 9.75803C286.296 9.82508 286.021 9.88411 285.709 9.93615C285.4 9.98318 285.099 10.0262 284.806 10.0642C284.517 10.0973 284.283 10.1253 284.102 10.1493C283.666 10.2063 283.259 10.2984 282.88 10.4265C282.505 10.5496 282.202 10.7367 281.97 10.9879C281.743 11.2341 281.629 11.5703 281.629 11.9976C281.629 12.5801 281.844 13.0204 282.275 13.3196C282.711 13.6128 283.264 13.7599 283.931 13.7599ZM291.968 15.0108V0.455329H293.645V5.8282H293.787C293.91 5.63806 294.082 5.39688 294.3 5.10267C294.522 4.80446 294.839 4.53927 295.251 4.3071C295.669 4.06993 296.232 3.95185 296.944 3.95185C297.862 3.95185 298.673 4.18201 299.374 4.64134C300.075 5.10067 300.622 5.75214 301.016 6.59575C301.409 7.43936 301.606 8.43407 301.606 9.5809C301.606 10.7367 301.409 11.7395 301.016 12.5871C300.622 13.4307 300.078 14.0841 299.381 14.5485C298.685 15.0088 297.881 15.238 296.972 15.238C296.27 15.238 295.709 15.1219 295.287 14.8897C294.865 14.6535 294.541 14.3853 294.314 14.0871C294.087 13.7839 293.91 13.5327 293.787 13.3336H293.588V15.0108H291.968ZM293.617 9.55187C293.617 10.3765 293.738 11.104 293.98 11.7345C294.221 12.3599 294.574 12.8503 295.038 13.2055C295.503 13.5558 296.071 13.7319 296.745 13.7319C297.446 13.7319 298.03 13.5467 298.5 13.1775C298.974 12.8032 299.329 12.3008 299.566 11.6704C299.808 11.0349 299.929 10.3294 299.929 9.55187C299.929 8.78432 299.81 8.09282 299.573 7.47738C299.34 6.85593 298.988 6.36559 298.514 6.00533C298.044 5.64107 297.455 5.45893 296.745 5.45893C296.062 5.45893 295.489 5.63106 295.024 5.97731C294.56 6.31855 294.21 6.7969 293.973 7.41334C293.735 8.02378 293.617 8.73729 293.617 9.55187ZM308.606 15.238C307.621 15.238 306.757 15.0038 306.012 14.5344C305.274 14.0651 304.695 13.4097 304.278 12.566C303.866 11.7224 303.66 10.7367 303.66 9.60892C303.66 8.4721 303.866 7.47939 304.278 6.63078C304.695 5.78317 305.274 5.12468 306.012 4.65534C306.757 4.18601 307.621 3.95185 308.606 3.95185C309.592 3.95185 310.454 4.18601 311.194 4.65534C311.938 5.12468 312.516 5.78317 312.928 6.63078C313.344 7.47939 313.554 8.4721 313.554 9.60892C313.554 10.7367 313.344 11.7224 312.928 12.566C312.516 13.4097 311.938 14.0651 311.194 14.5344C310.454 15.0038 309.592 15.238 308.606 15.238ZM308.606 13.7319C309.356 13.7319 309.971 13.5397 310.454 13.1555C310.938 12.7722 311.295 12.2678 311.528 11.6424C311.76 11.0169 311.876 10.3384 311.876 9.60892C311.876 8.87939 311.76 8.1999 311.528 7.56944C311.295 6.93899 310.938 6.42963 310.454 6.04135C309.971 5.65307 309.356 5.45893 308.606 5.45893C307.858 5.45893 307.242 5.65307 306.759 6.04135C306.275 6.42963 305.917 6.93899 305.685 7.56944C305.453 8.1999 305.337 8.87939 305.337 9.60892C305.337 10.3384 305.453 11.0169 305.685 11.6424C305.917 12.2678 306.275 12.7722 306.759 13.1555C307.242 13.5397 307.858 13.7319 308.606 13.7319ZM322.993 10.5476V4.09395H324.671V15.0108H322.993V13.1625H322.88C322.624 13.7169 322.226 14.1892 321.686 14.5775C321.146 14.9608 320.464 15.1529 319.639 15.1529C318.957 15.1529 318.35 15.0038 317.82 14.7056C317.288 14.4024 316.872 13.947 316.569 13.3406C316.266 12.7292 316.113 11.9596 316.113 11.0309V4.09395H317.791V10.9169C317.791 11.7134 318.014 12.3479 318.459 12.8212C318.91 13.2956 319.483 13.5327 320.179 13.5327C320.596 13.5327 321.02 13.4257 321.451 13.2125C321.888 12.9994 322.252 12.6721 322.546 12.2318C322.844 11.7915 322.993 11.2301 322.993 10.5476ZM332.491 4.09395V5.51497H326.833V4.09395H332.491ZM328.482 1.47807H330.16V11.8836C330.16 12.3569 330.229 12.7132 330.366 12.9493C330.508 13.1815 330.688 13.3386 330.906 13.4187C331.128 13.4947 331.363 13.5327 331.61 13.5327C331.795 13.5327 331.946 13.5227 332.065 13.5037C332.183 13.4807 332.278 13.4617 332.349 13.4477L332.69 14.9538C332.576 14.9968 332.417 15.0388 332.214 15.0819C332.01 15.1289 331.752 15.1529 331.439 15.1529C330.965 15.1529 330.501 15.0508 330.046 14.8477C329.596 14.6435 329.222 14.3333 328.923 13.916C328.63 13.4997 328.482 12.9733 328.482 12.3389V1.47807ZM341.724 19.1048C341.439 19.1048 341.186 19.0807 340.963 19.0337C340.74 18.9907 340.586 18.9486 340.501 18.9056L340.927 17.4275C341.335 17.5316 341.695 17.5697 342.008 17.5406C342.32 17.5126 342.598 17.3725 342.84 17.1213C343.086 16.8752 343.311 16.4749 343.514 15.9205L343.827 15.0678L339.791 4.09395H341.61L344.623 12.7932H344.737L347.75 4.09395H349.574L344.936 16.603C344.727 17.1664 344.469 17.6337 344.162 18.0029C343.853 18.3772 343.495 18.6544 343.088 18.8346C342.686 19.0147 342.23 19.1048 341.724 19.1048ZM355.828 15.238C354.847 15.238 353.977 15.0038 353.236 14.5344C352.496 14.0651 351.915 13.4097 351.495 12.566C351.085 11.7224 350.885 10.7367 350.885 9.60892C350.885 8.4721 351.085 7.47939 351.495 6.63078C351.915 5.78317 352.496 5.12468 353.236 4.65534C353.977 4.18601 354.847 3.95185 355.828 3.95185C356.809 3.95185 357.679 4.18601 358.42 4.65534C359.16 5.12468 359.741 5.78317 360.151 6.63078C360.561 7.47939 360.772 8.4721 360.772 9.60892C360.772 10.7367 360.561 11.7224 360.151 12.566C359.741 13.4097 359.16 14.0651 358.42 14.5344C357.679 15.0038 356.809 15.238 355.828 15.238ZM355.828 13.7319C356.579 13.7319 357.189 13.5397 357.679 13.1555C358.16 12.7722 358.52 12.2678 358.75 11.6424C358.98 11.0169 359.1 10.3384 359.1 9.60892C359.1 8.87939 358.98 8.1999 358.75 7.56944C358.52 6.93899 358.16 6.42963 357.679 6.04135C357.189 5.65307 356.579 5.45893 355.828 5.45893C355.078 5.45893 354.467 5.65307 353.977 6.04135C353.496 6.42963 353.136 6.93899 352.906 7.56944C352.676 8.1999 352.556 8.87939 352.556 9.60892C352.556 10.3384 352.676 11.0169 352.906 11.6424C353.136 12.2678 353.496 12.7722 353.977 13.1555C354.467 13.5397 355.078 13.7319 355.828 13.7319ZM370.218 10.5476V4.09395H371.89V15.0108H370.218V13.1625H370.098C369.848 13.7169 369.448 14.1892 368.907 14.5775C368.367 14.9608 367.687 15.1529 366.856 15.1529C366.176 15.1529 365.575 15.0038 365.045 14.7056C364.514 14.4024 364.094 13.947 363.794 13.3406C363.484 12.7292 363.333 11.9596 363.333 11.0309V4.09395H365.015V10.9169C365.015 11.7134 365.235 12.3479 365.685 12.8212C366.135 13.2956 366.706 13.5327 367.396 13.5327C367.817 13.5327 368.237 13.4257 368.677 13.2125C369.108 12.9994 369.478 12.6721 369.768 12.2318C370.068 11.7915 370.218 11.2301 370.218 10.5476ZM374.962 15.0108V4.09395H376.583V5.74313H376.703C376.893 5.20274 377.253 4.76443 377.784 4.42819C378.304 4.09195 378.885 3.92282 379.545 3.92282C379.665 3.92282 379.815 3.92582 380.005 3.93082C380.186 3.93483 380.326 3.94184 380.426 3.95185V5.65707C380.366 5.64306 380.236 5.62205 380.035 5.59303C379.835 5.56001 379.625 5.54398 379.395 5.54398C378.865 5.54398 378.394 5.65506 377.974 5.87822C377.564 6.09538 377.243 6.39861 376.993 6.78789C376.763 7.17116 376.643 7.60948 376.643 8.10283V15.0108H374.962ZM392.444 19.3319C391.634 19.3319 390.943 19.2278 390.353 19.0197C389.773 18.8156 389.292 18.5454 388.902 18.2091C388.522 17.8779 388.211 17.5216 387.981 17.1433L389.322 16.2047C389.472 16.4038 389.662 16.631 389.893 16.8872C390.123 17.1473 390.443 17.3725 390.843 17.5626C391.254 17.7568 391.784 17.8539 392.444 17.8539C393.325 17.8539 394.056 17.6407 394.626 17.2144C395.206 16.7881 395.487 16.1196 395.487 15.2099V12.9924H395.346C395.226 13.1915 395.046 13.4377 394.816 13.7319C394.596 14.0201 394.276 14.2783 393.855 14.5064C393.435 14.7286 392.875 14.8407 392.164 14.8407C391.284 14.8407 390.493 14.6315 389.792 14.2152C389.092 13.7979 388.542 13.1915 388.131 12.3949C387.731 11.5993 387.531 10.6326 387.531 9.49583C387.531 8.37703 387.721 7.40333 388.121 6.57474C388.512 5.74014 389.062 5.09567 389.763 4.64134C390.463 4.18201 391.274 3.95185 392.194 3.95185C392.905 3.95185 393.465 4.06993 393.885 4.3071C394.306 4.53927 394.626 4.80446 394.846 5.10267C395.076 5.39688 395.256 5.63806 395.377 5.8282H395.547V4.09395H397.168V15.323C397.168 16.2617 396.958 17.0242 396.527 17.6117C396.107 18.2041 395.537 18.6384 394.816 18.9126C394.106 19.1928 393.315 19.3319 392.444 19.3319ZM392.394 13.3336C393.065 13.3336 393.635 13.1795 394.096 12.8713C394.556 12.563 394.916 12.1207 395.156 11.5423C395.397 10.9639 395.517 10.2724 395.517 9.46682C395.517 8.68025 395.396 7.98675 395.166 7.38431C394.926 6.78288 394.576 6.31155 394.106 5.9703C393.645 5.62905 393.075 5.45893 392.394 5.45893C391.684 5.45893 391.083 5.63806 390.613 5.99832C390.143 6.35858 389.792 6.84192 389.552 7.44835C389.322 8.05479 389.202 8.72829 389.202 9.46682C389.202 10.2254 389.322 10.8958 389.562 11.4783C389.802 12.0567 390.163 12.511 390.623 12.8433C391.103 13.1705 391.694 13.3336 392.394 13.3336ZM400.24 15.0108V4.09395H401.861V5.74313H401.971C402.171 5.20274 402.532 4.76443 403.052 4.42819C403.572 4.09195 404.163 3.92282 404.813 3.92282C404.933 3.92282 405.094 3.92582 405.274 3.93082C405.464 3.93483 405.604 3.94184 405.694 3.95185V5.65707C405.634 5.64306 405.504 5.62205 405.304 5.59303C405.103 5.56001 404.893 5.54398 404.673 5.54398C404.143 5.54398 403.663 5.65506 403.252 5.87822C402.842 6.09538 402.512 6.39861 402.272 6.78789C402.031 7.17116 401.911 7.60948 401.911 8.10283V15.0108H400.24ZM410.898 15.267C410.207 15.267 409.577 15.1359 409.016 14.8757C408.446 14.6105 408.006 14.2292 407.665 13.7319C407.335 13.2295 407.175 12.6231 407.175 11.9116C407.175 11.2861 407.295 10.7798 407.545 10.3915C407.785 9.9982 408.116 9.68998 408.526 9.46682C408.946 9.24466 409.397 9.07853 409.897 8.96945C410.397 8.85537 410.898 8.7653 411.408 8.69925C412.069 8.61419 412.609 8.55016 413.019 8.50713C413.44 8.46009 413.74 8.38203 413.93 8.27295C414.13 8.16387 414.22 7.97474 414.22 7.70455V7.6475C414.22 6.946 414.03 6.40161 413.65 6.01333C413.269 5.62405 412.689 5.4299 411.918 5.4299C411.118 5.4299 410.487 5.60503 410.037 5.95628C409.577 6.30653 409.256 6.68081 409.076 7.0791L407.485 6.51068C407.765 5.8472 408.146 5.33084 408.626 4.96057C409.096 4.5863 409.617 4.32611 410.187 4.179C410.758 4.02789 411.318 3.95185 411.858 3.95185C412.209 3.95185 412.619 3.99387 413.069 4.07993C413.53 4.15999 413.97 4.32811 414.4 4.58429C414.831 4.84048 415.191 5.22676 415.471 5.74313C415.761 6.2595 415.901 6.951 415.901 7.81762V15.0108H414.22V13.5327H414.14C414.02 13.7689 413.83 14.0231 413.57 14.2933C413.299 14.5635 412.949 14.7926 412.509 14.9828C412.069 15.1719 411.528 15.267 410.898 15.267ZM411.148 13.7599C411.818 13.7599 412.379 13.6298 412.829 13.3686C413.289 13.1084 413.64 12.7722 413.87 12.3599C414.1 11.9476 414.22 11.5143 414.22 11.059V9.52385C414.15 9.60891 413.99 9.68698 413.75 9.75803C413.52 9.82508 413.239 9.88411 412.929 9.93615C412.619 9.98318 412.319 10.0262 412.029 10.0642C411.738 10.0973 411.498 10.1253 411.318 10.1493C410.888 10.2063 410.477 10.2984 410.097 10.4265C409.727 10.5496 409.427 10.7367 409.186 10.9879C408.966 11.2341 408.846 11.5703 408.846 11.9976C408.846 12.5801 409.066 13.0204 409.497 13.3196C409.927 13.6128 410.487 13.7599 411.148 13.7599ZM423.086 15.238C422.176 15.238 421.375 15.0088 420.675 14.5485C419.974 14.0841 419.434 13.4307 419.044 12.5871C418.643 11.7395 418.453 10.7367 418.453 9.5809C418.453 8.43407 418.643 7.43936 419.044 6.59575C419.434 5.75214 419.984 5.10067 420.685 4.64134C421.385 4.18201 422.196 3.95185 423.116 3.95185C423.827 3.95185 424.387 4.06993 424.798 4.3071C425.218 4.53927 425.528 4.80446 425.748 5.10267C425.969 5.39688 426.149 5.63806 426.269 5.8282H426.409V0.455329H428.09V15.0108H426.469V13.3336H426.269C426.149 13.5327 425.969 13.7839 425.738 14.0871C425.518 14.3853 425.188 14.6535 424.768 14.8897C424.347 15.1219 423.787 15.238 423.086 15.238ZM423.307 13.7319C423.987 13.7319 424.548 13.5558 425.018 13.2055C425.478 12.8503 425.838 12.3599 426.079 11.7345C426.319 11.104 426.439 10.3765 426.439 9.55187C426.439 8.73729 426.319 8.02378 426.079 7.41334C425.848 6.7969 425.498 6.31855 425.028 5.97731C424.568 5.63106 423.997 5.45893 423.307 5.45893C422.596 5.45893 422.006 5.64107 421.535 6.00533C421.065 6.36559 420.715 6.85593 420.475 7.47738C420.244 8.09282 420.124 8.78432 420.124 9.55187C420.124 10.3294 420.244 11.0349 420.485 11.6704C420.725 12.3008 421.075 12.8032 421.545 13.1775C422.026 13.5467 422.606 13.7319 423.307 13.7319ZM435.966 15.238C434.915 15.238 434.014 15.0058 433.244 14.5415C432.493 14.0721 431.903 13.4187 431.492 12.5801C431.082 11.7365 430.882 10.7557 430.882 9.63793C430.882 8.51913 431.082 7.53342 431.492 6.6808C431.903 5.82319 432.473 5.15571 433.214 4.67637C433.954 4.19302 434.815 3.95185 435.796 3.95185C436.366 3.95185 436.926 4.04691 437.487 4.23605C438.037 4.42519 438.538 4.73341 438.998 5.15972C439.448 5.58202 439.818 6.14042 440.089 6.83692C440.359 7.53342 440.489 8.39104 440.489 9.40977V10.1213H432.073V8.67123H438.788C438.788 8.05479 438.658 7.5054 438.418 7.02205C438.177 6.5387 437.827 6.15742 437.377 5.87822C436.926 5.59802 436.406 5.45893 435.796 5.45893C435.135 5.45893 434.555 5.62404 434.064 5.95628C433.584 6.28252 433.214 6.70982 432.943 7.2352C432.683 7.76158 432.553 8.32499 432.553 8.92642V9.89312C432.553 10.7177 432.703 11.4172 432.984 11.9906C433.274 12.559 433.674 12.9924 434.184 13.2906C434.695 13.5848 435.295 13.7319 435.966 13.7319C436.406 13.7319 436.806 13.6698 437.167 13.5467C437.527 13.4186 437.837 13.2295 438.097 12.9783C438.357 12.7221 438.558 12.4049 438.698 12.0257L440.319 12.481C440.149 13.0304 439.858 13.5137 439.458 13.93C439.058 14.3423 438.558 14.6645 437.967 14.8967C437.377 15.1249 436.706 15.238 435.966 15.238ZM450.776 6.5387L449.265 6.96502C449.175 6.71384 449.035 6.46966 448.845 6.23349C448.665 5.99131 448.425 5.79217 448.104 5.63606C447.794 5.47995 447.394 5.40188 446.904 5.40188C446.243 5.40188 445.683 5.55599 445.232 5.86321C444.792 6.16643 444.572 6.55271 444.572 7.02205C444.572 7.43935 444.732 7.76859 445.032 8.00976C445.332 8.25194 445.813 8.45308 446.453 8.6142L448.074 9.01248C449.045 9.24865 449.776 9.61191 450.256 10.0993C450.736 10.5826 450.976 11.2061 450.976 11.9686C450.976 12.5941 450.796 13.1535 450.436 13.6458C450.076 14.1392 449.576 14.5274 448.945 14.8117C448.305 15.0959 447.554 15.238 446.703 15.238C445.593 15.238 444.672 14.9968 443.942 14.5134C443.211 14.0301 442.751 13.3236 442.561 12.3949L444.152 11.9976C444.302 12.5851 444.592 13.0254 445.012 13.3196C445.433 13.6128 445.993 13.7599 446.683 13.7599C447.464 13.7599 448.084 13.5938 448.545 13.2625C449.005 12.9263 449.235 12.523 449.235 12.0537C449.235 11.6754 449.105 11.3572 448.845 11.102C448.575 10.8408 448.164 10.6467 447.614 10.5186L445.803 10.0923C444.802 9.8551 444.062 9.48882 443.591 8.99046C443.131 8.4881 442.901 7.86066 442.901 7.10712C442.901 6.49168 443.071 5.94627 443.421 5.47293C443.771 4.99859 444.242 4.62733 444.842 4.35714C445.452 4.08694 446.143 3.95185 446.904 3.95185C447.984 3.95185 448.835 4.18901 449.455 4.66235C450.076 5.13669 450.516 5.76214 450.776 6.5387ZM454.719 15.1249C454.369 15.1249 454.069 14.9988 453.819 14.7476C453.568 14.4964 453.438 14.1962 453.438 13.845C453.438 13.4947 453.568 13.1935 453.819 12.9423C454.069 12.6911 454.369 12.566 454.719 12.566C455.069 12.566 455.37 12.6911 455.62 12.9423C455.87 13.1935 456 13.4947 456 13.845C456 14.0771 455.94 14.2903 455.82 14.4844C455.71 14.6796 455.55 14.8357 455.36 14.9538C455.17 15.0678 454.959 15.1249 454.719 15.1249Z" fill="#475467"/>
</svg>
