<svg width="113" height="16" viewBox="0 0 113 16" fill="none" xmlns="http://www.w3.org/2000/svg">
<path d="M1.86671 12.1263H0L4.19537 0.466938H6.22846L10.4238 12.1263H8.5571L5.26052 2.58418H5.16934L1.86671 12.1263ZM2.18036 7.56012H8.23746V9.04009H2.18036V7.56012ZM15.514 12.3026C14.6673 12.3026 13.9389 12.1112 13.3277 11.7275C12.7204 11.3407 12.2535 10.8076 11.9268 10.1283C11.6002 9.44891 11.4369 8.67035 11.4369 7.79359C11.4369 6.90582 11.6042 6.12226 11.9379 5.4429C12.2726 4.75953 12.7435 4.22646 13.3507 3.84269C13.9579 3.45893 14.6734 3.26754 15.497 3.26754C16.1613 3.26754 16.7525 3.39079 17.2725 3.63728C17.7926 3.88077 18.2124 4.22245 18.5311 4.66233C18.8537 5.10321 19.0451 5.61725 19.1062 6.20542H17.4489C17.3587 5.7956 17.1493 5.44289 16.8236 5.1463C16.501 4.85071 16.0681 4.70242 15.525 4.70242C15.0511 4.70242 14.6353 4.82767 14.2786 5.07817C13.9249 5.32466 13.6503 5.67736 13.4529 6.13728C13.2555 6.59219 13.1563 7.13127 13.1563 7.75352C13.1563 8.3918 13.2535 8.94189 13.4469 9.40482C13.6403 9.86774 13.9138 10.2265 14.2665 10.481C14.6232 10.7355 15.0431 10.8627 15.525 10.8627C15.8477 10.8627 16.1403 10.8036 16.4018 10.6854C16.6673 10.5641 16.8898 10.3918 17.0681 10.1673C17.2505 9.9439 17.3778 9.67436 17.4489 9.35973H19.1062C19.0451 9.92486 18.8617 10.4299 18.5541 10.8738C18.2465 11.3176 17.8347 11.6673 17.3186 11.9209C16.8056 12.1754 16.2044 12.3026 15.514 12.3026ZM23.4709 12.3196C22.9168 12.3196 22.4158 12.2174 21.9679 12.012C21.52 11.8036 21.1653 11.502 20.9038 11.1072C20.6453 10.7124 20.517 10.2285 20.517 9.65532C20.517 9.16233 20.6112 8.75551 20.8016 8.43688C20.991 8.11824 21.2475 7.86574 21.5701 7.67937C21.8928 7.49399 22.2535 7.35372 22.6513 7.25853C23.0501 7.16333 23.4559 7.09119 23.8697 7.04209C24.3938 6.98197 24.8187 6.93187 25.1453 6.8938C25.472 6.85271 25.7084 6.78558 25.8567 6.6954C26.005 6.60422 26.0792 6.45592 26.0792 6.25051V6.21143C26.0792 5.71344 25.9389 5.32866 25.6573 5.05511C25.3808 4.78156 24.9669 4.6453 24.4168 4.6453C23.8437 4.6453 23.3918 4.77255 23.0611 5.02706C22.7355 5.27756 22.509 5.55612 22.3838 5.86374L20.7846 5.49901C20.9739 4.96795 21.2515 4.53909 21.6152 4.21244C21.984 3.88278 22.4068 3.6433 22.8848 3.495C23.3627 3.3437 23.8657 3.26754 24.3938 3.26754C24.7425 3.26754 25.1132 3.30962 25.504 3.39279C25.8988 3.47295 26.2665 3.62025 26.6082 3.83669C26.9539 4.05312 27.2365 4.36273 27.4569 4.76454C27.6763 5.16333 27.7866 5.68137 27.7866 6.31965V12.1263H26.1243V10.9309H26.0561C25.9459 11.1513 25.7806 11.3667 25.5611 11.5802C25.3407 11.7926 25.0581 11.969 24.7124 12.1092C24.3667 12.2495 23.9539 12.3196 23.4709 12.3196ZM23.8417 10.9539C24.3116 10.9539 24.7144 10.8607 25.0481 10.6744C25.3858 10.489 25.6423 10.2455 25.8166 9.94591C25.995 9.6423 26.0842 9.31765 26.0842 8.97196V7.8447C26.024 7.90583 25.9058 7.96293 25.7315 8.01604C25.5611 8.06514 25.3657 8.10923 25.1453 8.1463C24.9249 8.18037 24.7104 8.21344 24.502 8.2435C24.2936 8.27055 24.1182 8.29259 23.978 8.31163C23.6483 8.35371 23.3457 8.42386 23.0731 8.52205C22.8036 8.62125 22.5872 8.76354 22.4239 8.94991C22.2645 9.13128 22.1844 9.37477 22.1844 9.67837C22.1844 10.0992 22.3407 10.4178 22.6513 10.6343C22.9629 10.8467 23.3597 10.9539 23.8417 10.9539ZM33.3277 12.2966C32.6223 12.2966 31.992 12.1172 31.4379 11.7565C30.8868 11.3918 30.4549 10.8738 30.1393 10.2024C29.8287 9.52607 29.6723 8.71644 29.6723 7.77055C29.6723 6.82566 29.8307 6.01704 30.1453 5.3457C30.4639 4.67336 30.9008 4.15932 31.4549 3.80261C32.009 3.44589 32.6373 3.26754 33.3387 3.26754C33.8818 3.26754 34.3186 3.35873 34.6483 3.5411C34.983 3.71945 35.2405 3.92787 35.4229 4.16735C35.6092 4.40583 35.7535 4.61725 35.8557 4.79961H35.9579V0.466938H37.6603V12.1263H35.998V10.7655H35.8557C35.7535 10.9519 35.6052 11.1643 35.4119 11.4028C35.2215 11.6423 34.9599 11.8507 34.6263 12.0291C34.2916 12.2074 33.8587 12.2966 33.3277 12.2966ZM33.7034 10.8457C34.1934 10.8457 34.6072 10.7165 34.9449 10.4579C35.2866 10.1964 35.5441 9.83368 35.7185 9.37075C35.8968 8.90783 35.986 8.36875 35.986 7.75352C35.986 7.1463 35.8988 6.61524 35.7245 6.15933C35.5501 5.70442 35.2936 5.34971 34.9559 5.0952C34.6182 4.84069 34.2004 4.71344 33.7034 4.71344C33.1914 4.71344 32.7646 4.8467 32.4229 5.11223C32.0812 5.37776 31.8227 5.7405 31.6483 6.19941C31.478 6.65933 31.3918 7.17737 31.3918 7.75352C31.3918 8.33869 31.479 8.86375 31.6543 9.33068C31.8287 9.79761 32.0862 10.1673 32.4279 10.4409C32.7735 10.7104 33.1984 10.8457 33.7034 10.8457ZM43.8587 12.3026C42.997 12.3026 42.2555 12.1182 41.6323 11.7505C41.014 11.3788 40.5361 10.8567 40.1984 10.1844C39.8637 9.50903 39.6974 8.71744 39.6974 7.81062C39.6974 6.91483 39.8637 6.12526 40.1984 5.4429C40.5361 4.75953 41.006 4.22646 41.6102 3.84269C42.2174 3.45893 42.9269 3.26754 43.7395 3.26754C44.2325 3.26754 44.7104 3.34971 45.1744 3.51203C45.6373 3.67536 46.0521 3.93187 46.4209 4.28057C46.7886 4.63027 47.0792 5.08418 47.2916 5.64129C47.504 6.1954 47.6102 6.86975 47.6102 7.66233V8.26654H40.6593V6.99099H45.9429C45.9429 6.5431 45.8517 6.14631 45.6694 5.80162C45.487 5.45192 45.2305 5.17636 44.9008 4.97596C44.5742 4.77456 44.1904 4.67335 43.7505 4.67335C43.2726 4.67335 42.8547 4.79158 42.498 5.02706C42.1453 5.25852 41.8718 5.56214 41.6784 5.93789C41.489 6.30963 41.3938 6.71343 41.3938 7.15031V8.1463C41.3938 8.73147 41.496 9.22847 41.7014 9.63829C41.9098 10.0481 42.2004 10.3617 42.5722 10.5782C42.9439 10.7906 43.3788 10.8968 43.8758 10.8968C44.1984 10.8968 44.493 10.8507 44.7585 10.7595C45.0241 10.6653 45.2535 10.5251 45.4469 10.3387C45.6403 10.1523 45.7886 9.92286 45.8908 9.64931L47.502 9.93988C47.3738 10.4148 47.1423 10.8297 46.8076 11.1864C46.478 11.5401 46.0622 11.8146 45.5612 12.012C45.0642 12.2064 44.496 12.3026 43.8587 12.3026ZM49.499 12.1263V3.38177H51.1333V4.80461H51.2415C51.4239 4.32265 51.7215 3.94689 52.1353 3.67736C52.5491 3.40381 53.0441 3.26754 53.6213 3.26754C54.2054 3.26754 54.6954 3.40381 55.0902 3.67736C55.489 3.9509 55.7826 4.32665 55.973 4.80461H56.0632C56.2726 4.33768 56.6042 3.96594 57.0601 3.68939C57.5151 3.40782 58.0581 3.26754 58.6884 3.26754C59.481 3.26754 60.1283 3.51604 60.6293 4.01303C61.1343 4.51103 61.3868 5.26052 61.3868 6.26253V12.1263H59.6844V6.42186C59.6844 5.82967 59.5231 5.40081 59.2004 5.13527C58.8778 4.86974 58.493 4.73648 58.0451 4.73648C57.491 4.73648 57.0601 4.90682 56.7525 5.24851C56.4449 5.58618 56.2916 6.02105 56.2916 6.55312V12.1263H54.5952V6.31364C54.5952 5.83869 54.4469 5.45793 54.1503 5.16935C53.8547 4.88078 53.4689 4.73648 52.995 4.73648C52.6724 4.73648 52.3748 4.82165 52.1012 4.99299C51.8317 5.15932 51.6132 5.3928 51.4459 5.6934C51.2836 5.993 51.2014 6.33969 51.2014 6.73448V12.1263H49.499ZM63.6684 12.1263V3.38177H65.3708V12.1263H63.6684ZM64.5281 2.03207C64.2315 2.03207 63.978 1.93387 63.7656 1.73648C63.5562 1.53507 63.4519 1.29559 63.4519 1.01904C63.4519 0.737474 63.5562 0.499008 63.7656 0.301614C63.978 0.100211 64.2315 0 64.5281 0C64.8237 0 65.0762 0.100211 65.2856 0.301614C65.498 0.499008 65.6042 0.737474 65.6042 1.01904C65.6042 1.29559 65.498 1.53507 65.2856 1.73648C65.0762 1.93387 64.8237 2.03207 64.5281 2.03207ZM71.3437 12.3026C70.498 12.3026 69.7686 12.1112 69.1584 11.7275C68.5511 11.3407 68.0842 10.8076 67.7575 10.1283C67.4309 9.44891 67.2676 8.67035 67.2676 7.79359C67.2676 6.90582 67.4349 6.12226 67.7686 5.4429C68.1032 4.75953 68.5732 4.22646 69.1804 3.84269C69.7876 3.45893 70.503 3.26754 71.3267 3.26754C71.991 3.26754 72.5832 3.39079 73.1033 3.63728C73.6233 3.88077 74.0431 4.22245 74.3618 4.66233C74.6844 5.10321 74.8758 5.61725 74.9369 6.20542H73.2796C73.1884 5.7956 72.98 5.44289 72.6534 5.1463C72.3307 4.85071 71.8978 4.70242 71.3557 4.70242C70.8808 4.70242 70.466 4.82767 70.1082 5.07817C69.7555 5.32466 69.481 5.67736 69.2836 6.13728C69.0862 6.59219 68.987 7.13127 68.987 7.75352C68.987 8.3918 69.0842 8.94189 69.2776 9.40482C69.471 9.86774 69.7445 10.2265 70.0972 10.481C70.454 10.7355 70.8738 10.8627 71.3557 10.8627C71.6784 10.8627 71.97 10.8036 72.2325 10.6854C72.498 10.5641 72.7205 10.3918 72.8988 10.1673C73.0802 9.9439 73.2075 9.67436 73.2796 9.35973H74.9369C74.8758 9.92486 74.6914 10.4299 74.3848 10.8738C74.0772 11.3176 73.6654 11.6673 73.1493 11.9209C72.6363 12.1754 72.0351 12.3026 71.3437 12.3026ZM82.0762 15.4058C81.8217 15.4058 81.5902 15.3848 81.3808 15.3427C81.1724 15.3046 81.0171 15.2635 80.9149 15.2175L81.3247 13.8227C81.6353 13.9068 81.9129 13.9429 82.1554 13.9309C82.3988 13.9198 82.6133 13.8287 82.7986 13.6573C82.989 13.487 83.1554 13.2084 83.2996 12.8206L83.5101 12.2405L80.3107 3.38177H82.1323L84.3477 10.1673H84.4389L86.6533 3.38177H88.481L84.8768 13.2936C84.7095 13.7485 84.497 14.1343 84.2395 14.4489C83.981 14.7675 83.6734 15.007 83.3167 15.1663C82.96 15.3257 82.5461 15.4058 82.0762 15.4058ZM93.5522 12.3026C92.6904 12.3026 91.9479 12.1182 91.3257 11.7505C90.7075 11.3788 90.2285 10.8567 89.8908 10.1844C89.5572 9.50903 89.3898 8.71744 89.3898 7.81062C89.3898 6.91483 89.5572 6.12526 89.8908 5.4429C90.2285 4.75953 90.6995 4.22646 91.3027 3.84269C91.9109 3.45893 92.6203 3.26754 93.4319 3.26754C93.9259 3.26754 94.4039 3.34971 94.8668 3.51203C95.3297 3.67536 95.7456 3.93187 96.1143 4.28057C96.482 4.63027 96.7726 5.08418 96.985 5.64129C97.1974 6.1954 97.3036 6.86975 97.3036 7.66233V8.26654H90.3528V6.99099H95.6353C95.6353 6.5431 95.5441 6.14631 95.3628 5.80162C95.1804 5.45192 94.9239 5.17636 94.5942 4.97596C94.2676 4.77456 93.8838 4.67335 93.4439 4.67335C92.966 4.67335 92.5481 4.79158 92.1914 5.02706C91.8387 5.25852 91.5652 5.56214 91.3718 5.93789C91.1814 6.30963 91.0872 6.71343 91.0872 7.15031V8.1463C91.0872 8.73147 91.1894 9.22847 91.3938 9.63829C91.6033 10.0481 91.8928 10.3617 92.2656 10.5782C92.6373 10.7906 93.0722 10.8968 93.5692 10.8968C93.8918 10.8968 94.1854 10.8507 94.452 10.7595C94.7175 10.6653 94.9469 10.5251 95.1403 10.3387C95.3337 10.1523 95.482 9.92286 95.5842 9.64931L97.1954 9.93988C97.0662 10.4148 96.8347 10.8297 96.501 11.1864C96.1704 11.5401 95.7556 11.8146 95.2546 12.012C94.7566 12.2064 94.1894 12.3026 93.5522 12.3026ZM101.738 12.3196C101.183 12.3196 100.682 12.2174 100.235 12.012C99.7866 11.8036 99.4319 11.502 99.1694 11.1072C98.9119 10.7124 98.7826 10.2285 98.7826 9.65532C98.7826 9.16233 98.8778 8.75551 99.0672 8.43688C99.2566 8.11824 99.5131 7.86574 99.8357 7.67937C100.158 7.49399 100.519 7.35372 100.918 7.25853C101.316 7.16333 101.722 7.09119 102.136 7.04209C102.659 6.98197 103.085 6.93187 103.411 6.8938C103.738 6.85271 103.975 6.78558 104.122 6.6954C104.271 6.60422 104.345 6.45592 104.345 6.25051V6.21143C104.345 5.71344 104.204 5.32866 103.924 5.05511C103.646 4.78156 103.233 4.6453 102.682 4.6453C102.109 4.6453 101.657 4.77255 101.328 5.02706C101.001 5.27756 100.776 5.55612 100.65 5.86374L99.0502 5.49901C99.2395 4.96795 99.5171 4.53909 99.8818 4.21244C100.25 3.88278 100.672 3.6433 101.151 3.495C101.629 3.3437 102.132 3.26754 102.659 3.26754C103.009 3.26754 103.379 3.30962 103.77 3.39279C104.164 3.47295 104.533 3.62025 104.874 3.83669C105.22 4.05312 105.502 4.36273 105.723 4.76454C105.943 5.16333 106.053 5.68137 106.053 6.31965V12.1263H104.391V10.9309H104.322C104.212 11.1513 104.047 11.3667 103.827 11.5802C103.606 11.7926 103.324 11.969 102.978 12.1092C102.633 12.2495 102.22 12.3196 101.738 12.3196ZM102.107 10.9539C102.578 10.9539 102.98 10.8607 103.315 10.6744C103.652 10.489 103.908 10.2455 104.083 9.94591C104.262 9.6423 104.351 9.31765 104.351 8.97196V7.8447C104.29 7.90583 104.172 7.96293 103.998 8.01604C103.827 8.06514 103.631 8.10923 103.411 8.1463C103.191 8.18037 102.977 8.21344 102.768 8.2435C102.559 8.27055 102.385 8.29259 102.245 8.31163C101.914 8.35371 101.612 8.42386 101.339 8.52205C101.069 8.62125 100.853 8.76354 100.689 8.94991C100.53 9.13128 100.451 9.37477 100.451 9.67837C100.451 10.0992 100.606 10.4178 100.918 10.6343C101.229 10.8467 101.625 10.9539 102.107 10.9539ZM108.32 12.1263V3.38177H109.965V4.77055H110.056C110.215 4.2996 110.497 3.92986 110.899 3.66032C111.306 3.38678 111.765 3.25051 112.277 3.25051C112.383 3.25051 112.508 3.25452 112.652 3.26153C112.801 3.26955 112.917 3.27857 113 3.2906V4.91885C112.932 4.89981 112.81 4.87877 112.635 4.85572C112.461 4.82967 112.287 4.81664 112.112 4.81664C111.709 4.81664 111.351 4.90182 111.036 5.07216C110.725 5.23949 110.478 5.47295 110.296 5.77255C110.113 6.06914 110.022 6.40682 110.022 6.78558V12.1263H108.32Z" fill="#344054"/>
</svg>
