<svg width="174" height="56" viewBox="0 0 174 56" fill="none" xmlns="http://www.w3.org/2000/svg">
<g filter="url(#filter0_d_2_11261)">
<path d="M162 0H12C5.37258 0 0 5.37258 0 12V44C0 50.6274 5.37258 56 12 56H162C168.627 56 174 50.6274 174 44V12C174 5.37258 168.627 0 162 0Z" fill="white"/>
<path d="M162 0.5H12C5.64873 0.5 0.5 5.64873 0.5 12V44C0.5 50.3513 5.64873 55.5 12 55.5H162C168.351 55.5 173.5 50.3513 173.5 44V12C173.5 5.64873 168.351 0.5 162 0.5Z" stroke="#EAECF0"/>
<path d="M43.5909 34H39.6479V22.364H43.67C44.826 22.364 45.8179 22.597 46.6479 23.062C47.4809 23.525 48.1209 24.189 48.5679 25.057C49.0149 25.924 49.239 26.962 49.239 28.17C49.239 29.383 49.013 30.424 48.562 31.295C48.116 32.167 47.4699 32.835 46.6249 33.301C45.7839 33.767 44.7729 34 43.5909 34ZM41.756 32.176H43.489C44.299 32.176 44.9749 32.028 45.5169 31.733C46.0589 31.434 46.466 30.989 46.739 30.398C47.011 29.803 47.1479 29.061 47.1479 28.17C47.1479 27.28 47.011 26.542 46.739 25.955C46.466 25.364 46.063 24.922 45.528 24.631C44.998 24.335 44.3389 24.188 43.5509 24.188H41.756V32.176ZM61.2019 26.29H59.0769C59.0159 25.941 58.9039 25.633 58.7409 25.364C58.5789 25.091 58.3759 24.86 58.1339 24.67C57.8909 24.481 57.6149 24.339 57.3039 24.244C56.9969 24.146 56.6659 24.097 56.3099 24.097C55.6769 24.097 55.1159 24.256 54.6279 24.574C54.1389 24.888 53.757 25.35 53.4799 25.96C53.2039 26.566 53.0649 27.307 53.0649 28.182C53.0649 29.072 53.2039 29.822 53.4799 30.432C53.7599 31.038 54.1429 31.496 54.6279 31.807C55.1159 32.114 55.6749 32.267 56.3039 32.267C56.6519 32.267 56.9779 32.222 57.2809 32.131C57.5879 32.036 57.8629 31.898 58.1049 31.716C58.351 31.534 58.5579 31.311 58.7239 31.045C58.8949 30.78 59.0119 30.477 59.0769 30.136L61.2019 30.148C61.1219 30.701 60.9499 31.22 60.6849 31.705C60.4229 32.189 60.0799 32.617 59.6559 32.989C59.2319 33.356 58.7359 33.644 58.1679 33.852C57.5989 34.057 56.9689 34.159 56.2759 34.159C55.2529 34.159 54.3399 33.922 53.5369 33.449C52.7339 32.975 52.1009 32.292 51.6389 31.398C51.1769 30.504 50.946 29.432 50.946 28.182C50.946 26.928 51.1789 25.856 51.6449 24.966C52.1109 24.072 52.7449 23.388 53.5479 22.915C54.3509 22.441 55.2599 22.205 56.2759 22.205C56.9229 22.205 57.5259 22.295 58.0819 22.477C58.6389 22.659 59.135 22.926 59.571 23.278C60.007 23.627 60.3649 24.055 60.6449 24.562C60.9289 25.066 61.1149 25.642 61.2019 26.29ZM65.2399 22.364V34H63.1319V22.364H65.2399ZM67.0109 24.131V22.364H76.295V24.131H72.6989V34H70.6079V24.131H67.0109ZM81.9399 34V32.477L85.9799 28.517C86.366 28.127 86.688 27.78 86.946 27.477C87.204 27.174 87.3969 26.881 87.5259 26.597C87.6539 26.312 87.7189 26.009 87.7189 25.688C87.7189 25.32 87.6349 25.006 87.4689 24.744C87.3019 24.479 87.0729 24.275 86.7809 24.131C86.4899 23.987 86.1579 23.915 85.7869 23.915C85.4039 23.915 85.0689 23.994 84.7809 24.153C84.4929 24.309 84.2699 24.53 84.1109 24.818C83.9549 25.106 83.8779 25.449 83.8779 25.847H81.8719C81.8719 25.108 82.0409 24.466 82.3779 23.92C82.7149 23.375 83.1789 22.953 83.7699 22.653C84.3649 22.354 85.0459 22.205 85.8149 22.205C86.5959 22.205 87.2809 22.35 87.8719 22.642C88.4629 22.934 88.9209 23.333 89.2469 23.841C89.577 24.348 89.7409 24.928 89.7409 25.58C89.7409 26.015 89.6579 26.443 89.4909 26.864C89.3249 27.284 89.0309 27.75 88.6109 28.261C88.1939 28.773 87.609 29.392 86.8549 30.119L84.8489 32.159V32.239H89.9179V34H81.9399ZM96.6109 22.364V34H94.5029V24.415H94.4349L91.713 26.153V24.222L94.6049 22.364H96.6109ZM99.5649 34V32.477L103.605 28.517C103.991 28.127 104.313 27.78 104.571 27.477C104.829 27.174 105.022 26.881 105.151 26.597C105.279 26.312 105.344 26.009 105.344 25.688C105.344 25.32 105.26 25.006 105.094 24.744C104.927 24.479 104.698 24.275 104.406 24.131C104.115 23.987 103.783 23.915 103.412 23.915C103.029 23.915 102.694 23.994 102.406 24.153C102.118 24.309 101.895 24.53 101.736 24.818C101.58 25.106 101.503 25.449 101.503 25.847H99.4969C99.4969 25.108 99.6659 24.466 100.003 23.92C100.34 23.375 100.804 22.953 101.395 22.653C101.99 22.354 102.671 22.205 103.44 22.205C104.221 22.205 104.906 22.35 105.497 22.642C106.088 22.934 106.546 23.333 106.872 23.841C107.202 24.348 107.366 24.928 107.366 25.58C107.366 26.015 107.283 26.443 107.116 26.864C106.95 27.284 106.656 27.75 106.236 28.261C105.819 28.773 105.234 29.392 104.48 30.119L102.474 32.159V32.239H107.543V34H99.5649Z" fill="#101828"/>
</g>
<defs>
<filter id="filter0_d_2_11261" x="-2" y="-1" width="178" height="60" filterUnits="userSpaceOnUse" color-interpolation-filters="sRGB">
<feFlood flood-opacity="0" result="BackgroundImageFix"/>
<feColorMatrix in="SourceAlpha" type="matrix" values="0 0 0 0 0 0 0 0 0 0 0 0 0 0 0 0 0 0 127 0" result="hardAlpha"/>
<feOffset dy="1"/>
<feGaussianBlur stdDeviation="1"/>
<feColorMatrix type="matrix" values="0 0 0 0 0.0627451 0 0 0 0 0.0941176 0 0 0 0 0.156863 0 0 0 0.05 0"/>
<feBlend mode="normal" in2="BackgroundImageFix" result="effect1_dropShadow_2_11261"/>
<feBlend mode="normal" in="SourceGraphic" in2="effect1_dropShadow_2_11261" result="shape"/>
</filter>
</defs>
</svg>
