<svg width="742" height="50" viewBox="0 0 742 50" fill="none" xmlns="http://www.w3.org/2000/svg">
<path d="M0 2.24415V0.682052H10.9097V2.24415H6.33642V15.228H4.57428V2.24415H0ZM15.078 8.66558V15.228H13.4019V0.682052H15.078V6.0224H15.22C15.475 5.45936 15.859 5.01234 16.37 4.68032C16.8861 4.3443 17.5732 4.17629 18.4302 4.17629C19.1733 4.17629 19.8243 4.32529 20.3833 4.62331C20.9423 4.91733 21.3754 5.36937 21.6834 5.98041C21.9955 6.58645 22.1525 7.35849 22.1525 8.29555V15.228H20.4754V8.40957C20.4754 7.54251 20.2513 6.87246 19.8013 6.39943C19.3563 5.92139 18.7382 5.68238 17.9472 5.68238C17.3981 5.68238 16.9051 5.79838 16.4701 6.0304C16.0391 6.26241 15.698 6.60043 15.447 7.04546C15.201 7.49049 15.078 8.03054 15.078 8.66558ZM29.793 15.455C28.7419 15.455 27.8348 15.223 27.0728 14.759C26.3147 14.29 25.7297 13.6369 25.3177 12.7989C24.9106 11.9558 24.7076 10.9757 24.7076 9.85865C24.7076 8.74058 24.9106 7.75551 25.3177 6.90346C25.7297 6.0464 26.3027 5.37937 27.0368 4.90033C27.7758 4.4173 28.6379 4.17629 29.622 4.17629C30.191 4.17629 30.752 4.27129 31.3061 4.4603C31.8601 4.64931 32.3641 4.95734 32.8181 5.38337C33.2732 5.80539 33.6352 6.36343 33.9053 7.05947C34.1753 7.75552 34.3103 8.61257 34.3103 9.63064V10.3417H25.9007V8.89259H32.6051C32.6051 8.27655 32.4822 7.72751 32.2361 7.24448C31.9951 6.76145 31.6491 6.38042 31.199 6.1014C30.754 5.82138 30.228 5.68238 29.622 5.68238C28.9549 5.68238 28.3768 5.84739 27.8888 6.17941C27.4058 6.50543 27.0348 6.93246 26.7737 7.45749C26.5137 7.98353 26.3837 8.54657 26.3837 9.14761V10.1137C26.3837 10.9377 26.5257 11.6368 26.8098 12.2098C27.0988 12.7778 27.4988 13.2109 28.0098 13.5089C28.5219 13.8029 29.1159 13.9499 29.793 13.9499C30.233 13.9499 30.631 13.8879 30.9861 13.7649C31.3461 13.6369 31.6561 13.4479 31.9161 13.1969C32.1771 12.9409 32.3781 12.6238 32.5202 12.2448L34.1392 12.6998C33.9692 13.2489 33.6832 13.7319 33.2802 14.148C32.8782 14.56 32.3801 14.882 31.7891 15.114C31.1971 15.342 30.531 15.455 29.793 15.455ZM44.5879 6.76145L43.0818 7.18749C42.9868 6.93647 42.8478 6.69245 42.6628 6.45644C42.4828 6.21442 42.2368 6.01541 41.9248 5.8594C41.6117 5.70339 41.2117 5.62537 40.7237 5.62537C40.0567 5.62537 39.4996 5.77938 39.0546 6.0864C38.6146 6.38942 38.3945 6.77545 38.3945 7.24448C38.3945 7.66151 38.5456 7.99053 38.8486 8.23155C39.1516 8.47356 39.6256 8.67458 40.2696 8.83559L41.8888 9.23361C42.8638 9.46963 43.5909 9.83265 44.0689 10.3197C44.5479 10.8027 44.787 11.4258 44.787 12.1878C44.787 12.8128 44.6069 13.3719 44.2469 13.8639C43.8919 14.3569 43.3949 14.745 42.7548 15.029C42.1158 15.313 41.3727 15.455 40.5247 15.455C39.4126 15.455 38.4916 15.214 37.7625 14.731C37.0325 14.2479 36.5714 13.5419 36.3774 12.6138L37.9685 12.2168C38.1195 12.8039 38.4066 13.2439 38.8276 13.5379C39.2536 13.8309 39.8096 13.9779 40.4966 13.9779C41.2777 13.9779 41.8978 13.8119 42.3578 13.4809C42.8218 13.1449 43.0538 12.7419 43.0538 12.2728C43.0538 11.8948 42.9209 11.5768 42.6558 11.3217C42.3908 11.0607 41.9837 10.8667 41.4337 10.7387L39.6156 10.3127C38.6165 10.0757 37.8825 9.70964 37.4145 9.21161C36.9504 8.70957 36.7184 8.08254 36.7184 7.32949C36.7184 6.71445 36.8904 6.16941 37.2365 5.69638C37.5865 5.22234 38.0625 4.85133 38.6645 4.58131C39.2706 4.31129 39.9567 4.17629 40.7237 4.17629C41.8038 4.17629 42.6508 4.41329 43.2668 4.88632C43.8869 5.36036 44.3269 5.9854 44.5879 6.76145ZM51.8844 15.455C50.8333 15.455 49.9263 15.223 49.1643 14.759C48.4062 14.29 47.8212 13.6369 47.4091 12.7989C47.0021 11.9558 46.7981 10.9757 46.7981 9.85865C46.7981 8.74058 47.0021 7.75551 47.4091 6.90346C47.8212 6.0464 48.3942 5.37937 49.1282 4.90033C49.8673 4.4173 50.7283 4.17629 51.7134 4.17629C52.2814 4.17629 52.8425 4.27129 53.3965 4.4603C53.9506 4.64931 54.4556 4.95734 54.9096 5.38337C55.3647 5.80539 55.7267 6.36343 55.9967 7.05947C56.2667 7.75552 56.4017 8.61257 56.4017 9.63064V10.3417H47.9922V8.89259H54.6966C54.6966 8.27655 54.5736 7.72751 54.3276 7.24448C54.0856 6.76145 53.7405 6.38042 53.2905 6.1014C52.8455 5.82138 52.3194 5.68238 51.7134 5.68238C51.0463 5.68238 50.4683 5.84739 49.9803 6.17941C49.4973 6.50543 49.1263 6.93246 48.8652 7.45749C48.6052 7.98353 48.4752 8.54657 48.4752 9.14761V10.1137C48.4752 10.9377 48.6172 11.6368 48.9012 12.2098C49.1903 12.7778 49.5902 13.2109 50.1013 13.5089C50.6123 13.8029 51.2074 13.9499 51.8844 13.9499C52.3244 13.9499 52.7225 13.8879 53.0775 13.7649C53.4375 13.6369 53.7475 13.4479 54.0075 13.1969C54.2686 12.9409 54.4696 12.6238 54.6116 12.2448L56.2307 12.6998C56.0607 13.2489 55.7737 13.7319 55.3716 14.148C54.9686 14.56 54.4716 14.882 53.8795 15.114C53.2885 15.342 52.6225 15.455 51.8844 15.455ZM67.7874 15.484C67.0954 15.484 66.4684 15.353 65.9054 15.093C65.3413 14.828 64.8943 14.4469 64.5623 13.9499C64.2312 13.4479 64.0652 12.8419 64.0652 12.1308C64.0652 11.5058 64.1882 10.9997 64.4343 10.6117C64.6813 10.2187 65.0103 9.91067 65.4223 9.68765C65.8343 9.46564 66.2884 9.29962 66.7854 9.19061C67.2875 9.0766 67.7915 8.98659 68.2985 8.92059C68.9616 8.83558 69.4986 8.77159 69.9106 8.72859C70.3277 8.68159 70.6307 8.60357 70.8197 8.49457C71.0137 8.38556 71.1117 8.19655 71.1117 7.92653V7.86952C71.1117 7.16848 70.9197 6.62445 70.5357 6.23642C70.1566 5.84739 69.5816 5.65337 68.8095 5.65337C68.0095 5.65337 67.3824 5.82839 66.9274 6.17941C66.4734 6.52943 66.1534 6.90347 65.9684 7.30149L64.3782 6.73345C64.6622 6.0704 65.0403 5.55437 65.5143 5.18435C65.9924 4.81032 66.5134 4.5503 67.0764 4.40329C67.6454 4.25228 68.2035 4.17629 68.7535 4.17629C69.1035 4.17629 69.5056 4.21828 69.9606 4.30429C70.4197 4.38429 70.8627 4.5523 71.2887 4.80832C71.7197 5.06433 72.0768 5.45036 72.3618 5.9664C72.6458 6.48243 72.7878 7.17348 72.7878 8.03953V15.228H71.1117V13.7509H71.0257C70.9127 13.9869 70.7227 14.2409 70.4577 14.511C70.1926 14.781 69.8396 15.01 69.3995 15.2C68.9595 15.389 68.4215 15.484 67.7874 15.484ZM68.0425 13.9779C68.7055 13.9779 69.2646 13.8479 69.7186 13.5869C70.1786 13.3269 70.5236 12.9909 70.7557 12.5789C70.9927 12.1668 71.1117 11.7338 71.1117 11.2787V9.74465C71.0407 9.82965 70.8837 9.90767 70.6427 9.97867C70.4057 10.0457 70.1306 10.1047 69.8186 10.1567C69.5106 10.2037 69.2096 10.2467 68.9165 10.2847C68.6275 10.3177 68.3935 10.3457 68.2135 10.3697C67.7775 10.4267 67.3705 10.5187 66.9914 10.6467C66.6174 10.7697 66.3144 10.9567 66.0824 11.2077C65.8554 11.4538 65.7413 11.7898 65.7413 12.2168C65.7413 12.7989 65.9573 13.2389 66.3884 13.5379C66.8234 13.8309 67.3754 13.9779 68.0425 13.9779ZM75.847 15.228V4.31829H77.4661V5.9664H77.5801C77.7792 5.42636 78.1392 4.98834 78.6592 4.65232C79.1802 4.31629 79.7673 4.14728 80.4213 4.14728C80.5443 4.14728 80.6984 4.15027 80.8824 4.15527C81.0674 4.15927 81.2074 4.16629 81.3024 4.17629V5.88039C81.2454 5.86639 81.1144 5.8454 80.9114 5.81639C80.7123 5.78339 80.5013 5.76738 80.2793 5.76738C79.7483 5.76738 79.2752 5.87839 78.8582 6.1014C78.4462 6.31842 78.1201 6.62145 77.8781 7.01047C77.6411 7.3935 77.5231 7.83152 77.5231 8.32456V15.228H75.847ZM87.5308 15.455C86.4797 15.455 85.5727 15.223 84.8106 14.759C84.0525 14.29 83.4685 13.6369 83.0565 12.7989C82.6494 11.9558 82.4455 10.9757 82.4455 9.85865C82.4455 8.74058 82.6494 7.75551 83.0565 6.90346C83.4685 6.0464 84.0415 5.37937 84.7756 4.90033C85.5136 4.4173 86.3757 4.17629 87.3608 4.17629C87.9288 4.17629 88.4898 4.27129 89.0439 4.4603C89.5979 4.64931 90.1019 4.95734 90.557 5.38337C91.011 5.80539 91.374 6.36343 91.643 7.05947C91.913 7.75552 92.0481 8.61257 92.0481 9.63064V10.3417H83.6385V8.89259H90.344C90.344 8.27655 90.2209 7.72751 89.9739 7.24448C89.7329 6.76145 89.3869 6.38042 88.9369 6.1014C88.4918 5.82138 87.9668 5.68238 87.3608 5.68238C86.6927 5.68238 86.1147 5.84739 85.6277 6.17941C85.1446 6.50543 84.7726 6.93246 84.5125 7.45749C84.2515 7.98353 84.1215 8.54657 84.1215 9.14761V10.1137C84.1215 10.9377 84.2636 11.6368 84.5476 12.2098C84.8366 12.7778 85.2366 13.2109 85.7487 13.5089C86.2597 13.8029 86.8537 13.9499 87.5308 13.9499C87.9718 13.9499 88.3688 13.8879 88.7238 13.7649C89.0838 13.6369 89.3939 13.4479 89.6549 13.1969C89.9149 12.9409 90.116 12.6238 90.258 12.2448L91.8781 12.6998C91.7071 13.2489 91.421 13.7319 91.018 14.148C90.616 14.56 90.119 14.882 89.5269 15.114C88.9349 15.342 88.2698 15.455 87.5308 15.455ZM101.304 19.3193C101.019 19.3193 100.766 19.2953 100.544 19.2483C100.321 19.2053 100.167 19.1633 100.082 19.1203L100.508 17.6432C100.915 17.7472 101.275 17.7852 101.588 17.7562C101.9 17.7282 102.177 17.5882 102.419 17.3372C102.665 17.0911 102.89 16.6911 103.093 16.1371L103.406 15.285L99.3716 4.31829H101.19L104.201 13.0119H104.315L107.326 4.31829H109.144L104.514 16.8191C104.305 17.3822 104.047 17.8492 103.74 18.2182C103.432 18.5922 103.074 18.8693 102.667 19.0493C102.265 19.2293 101.81 19.3193 101.304 19.3193ZM115.399 15.455C114.414 15.455 113.55 15.221 112.806 14.752C112.067 14.2829 111.489 13.6279 111.073 12.7849C110.661 11.9418 110.455 10.9567 110.455 9.82966C110.455 8.69359 110.661 7.70152 111.073 6.85347C111.489 6.00641 112.067 5.34835 112.806 4.87932C113.55 4.41029 114.414 4.17629 115.399 4.17629C116.384 4.17629 117.246 4.41029 117.984 4.87932C118.728 5.34835 119.305 6.00641 119.717 6.85347C120.134 7.70152 120.342 8.69359 120.342 9.82966C120.342 10.9567 120.134 11.9418 119.717 12.7849C119.305 13.6279 118.728 14.2829 117.984 14.752C117.246 15.221 116.384 15.455 115.399 15.455ZM115.399 13.9499C116.147 13.9499 116.763 13.7579 117.246 13.3739C117.729 12.9909 118.086 12.4868 118.318 11.8618C118.55 11.2368 118.666 10.5587 118.666 9.82966C118.666 9.10061 118.55 8.42156 118.318 7.79152C118.086 7.16147 117.729 6.65245 117.246 6.26442C116.763 5.8764 116.147 5.68238 115.399 5.68238C114.651 5.68238 114.035 5.8764 113.552 6.26442C113.068 6.65245 112.711 7.16147 112.479 7.79152C112.247 8.42156 112.131 9.10061 112.131 9.82966C112.131 10.5587 112.247 11.2368 112.479 11.8618C112.711 12.4868 113.068 12.9909 113.552 13.3739C114.035 13.7579 114.651 13.9499 115.399 13.9499ZM129.777 10.7677V4.31829H131.453V15.228H129.777V13.3809H129.663C129.407 13.9349 129.01 14.4069 128.469 14.795C127.929 15.178 127.247 15.37 126.423 15.37C125.742 15.37 125.136 15.221 124.605 14.923C124.075 14.62 123.658 14.1649 123.355 13.5589C123.052 12.9479 122.901 12.1788 122.901 11.2508V4.31829H124.577V11.1367C124.577 11.9328 124.799 12.5668 125.244 13.0399C125.694 13.5139 126.267 13.7509 126.963 13.7509C127.38 13.7509 127.804 13.6439 128.235 13.4309C128.67 13.2179 129.036 12.8908 129.329 12.4508C129.628 12.0108 129.777 11.4498 129.777 10.7677ZM134.523 15.228V4.31829H136.142V5.9664H136.256C136.455 5.42636 136.815 4.98834 137.335 4.65232C137.856 4.31629 138.443 4.14728 139.097 4.14728C139.22 4.14728 139.374 4.15027 139.558 4.15527C139.743 4.15927 139.883 4.16629 139.977 4.17629V5.88039C139.921 5.86639 139.79 5.8454 139.587 5.81639C139.388 5.78339 139.177 5.76738 138.955 5.76738C138.424 5.76738 137.951 5.87839 137.534 6.1014C137.122 6.31842 136.796 6.62145 136.554 7.01047C136.317 7.3935 136.199 7.83152 136.199 8.32456V15.228H134.523ZM147.59 15.228V4.31829H149.266V15.228H147.59ZM148.443 2.50017C148.116 2.50017 147.834 2.38816 147.597 2.16614C147.365 1.94313 147.249 1.67612 147.249 1.3631C147.249 1.05108 147.365 0.783056 147.597 0.561042C147.834 0.338027 148.116 0.22702 148.443 0.22702C148.769 0.22702 149.049 0.338027 149.281 0.561042C149.517 0.783056 149.636 1.05108 149.636 1.3631C149.636 1.67612 149.517 1.94313 149.281 2.16614C149.049 2.38816 148.769 2.50017 148.443 2.50017ZM154.012 8.66558V15.228H152.336V4.31829H153.956V6.0224H154.098C154.353 5.46836 154.742 5.02334 155.262 4.68732C155.783 4.3463 156.456 4.17629 157.28 4.17629C158.018 4.17629 158.665 4.32729 159.219 4.63031C159.773 4.92933 160.204 5.38336 160.512 5.9944C160.82 6.60044 160.974 7.36749 160.974 8.29555V15.228H159.298V8.40957C159.298 7.55251 159.074 6.88446 158.629 6.40643C158.184 5.9234 157.573 5.68238 156.797 5.68238C156.262 5.68238 155.783 5.79838 155.362 6.0304C154.945 6.26241 154.616 6.60043 154.375 7.04546C154.133 7.49049 154.012 8.03054 154.012 8.66558ZM171.764 6.76145L170.258 7.18749C170.163 6.93647 170.024 6.69245 169.839 6.45644C169.659 6.21442 169.413 6.01541 169.1 5.8594C168.788 5.70339 168.388 5.62537 167.9 5.62537C167.233 5.62537 166.676 5.77938 166.231 6.0864C165.791 6.38942 165.571 6.77545 165.571 7.24448C165.571 7.66151 165.722 7.99053 166.025 8.23155C166.328 8.47356 166.802 8.67458 167.446 8.83559L169.065 9.23361C170.04 9.46963 170.767 9.83265 171.245 10.3197C171.724 10.8027 171.963 11.4258 171.963 12.1878C171.963 12.8128 171.783 13.3719 171.423 13.8639C171.068 14.3569 170.571 14.745 169.931 15.029C169.292 15.313 168.549 15.455 167.701 15.455C166.589 15.455 165.668 15.214 164.939 14.731C164.209 14.2479 163.748 13.5419 163.554 12.6138L165.145 12.2168C165.296 12.8039 165.582 13.2439 166.004 13.5379C166.43 13.8309 166.986 13.9779 167.673 13.9779C168.454 13.9779 169.074 13.8119 169.534 13.4809C169.998 13.1449 170.23 12.7419 170.23 12.2728C170.23 11.8948 170.097 11.5768 169.832 11.3217C169.567 11.0607 169.16 10.8667 168.61 10.7387L166.792 10.3127C165.793 10.0757 165.059 9.70964 164.591 9.21161C164.127 8.70957 163.895 8.08254 163.895 7.32949C163.895 6.71445 164.067 6.16941 164.413 5.69638C164.763 5.22234 165.239 4.85133 165.841 4.58131C166.447 4.31129 167.133 4.17629 167.9 4.17629C168.98 4.17629 169.827 4.41329 170.443 4.88632C171.063 5.36036 171.503 5.9854 171.764 6.76145ZM179.231 4.31829V5.73839H173.577V4.31829H179.231ZM175.225 1.70412H176.902V12.1028C176.902 12.5758 176.97 12.9319 177.108 13.1679C177.25 13.3999 177.429 13.5569 177.647 13.6369C177.87 13.7129 178.104 13.7509 178.35 13.7509C178.535 13.7509 178.687 13.7409 178.805 13.7219C178.923 13.6989 179.018 13.6799 179.089 13.6659L179.43 15.171C179.316 15.214 179.158 15.256 178.954 15.299C178.751 15.346 178.492 15.37 178.18 15.37C177.706 15.37 177.242 15.268 176.788 15.065C176.338 14.861 175.964 14.551 175.666 14.1339C175.372 13.7179 175.225 13.1919 175.225 12.5578V1.70412ZM181.752 15.228V4.31829H183.372V5.9664H183.485C183.684 5.42636 184.044 4.98834 184.565 4.65232C185.086 4.31629 185.673 4.14728 186.326 4.14728C186.449 4.14728 186.603 4.15027 186.788 4.15527C186.973 4.15927 187.112 4.16629 187.207 4.17629V5.88039C187.15 5.86639 187.02 5.8454 186.816 5.81639C186.617 5.78339 186.407 5.76738 186.184 5.76738C185.654 5.76738 185.18 5.87839 184.764 6.1014C184.352 6.31842 184.025 6.62145 183.784 7.01047C183.547 7.3935 183.429 7.83152 183.429 8.32456V15.228H181.752ZM196.07 10.7677V4.31829H197.746V15.228H196.07V13.3809H195.956C195.7 13.9349 195.303 14.4069 194.763 14.795C194.223 15.178 193.541 15.37 192.718 15.37C192.036 15.37 191.43 15.221 190.899 14.923C190.369 14.62 189.952 14.1649 189.649 13.5589C189.346 12.9479 189.195 12.1788 189.195 11.2508V4.31829H190.871V11.1367C190.871 11.9328 191.093 12.5668 191.539 13.0399C191.988 13.5139 192.561 13.7509 193.257 13.7509C193.674 13.7509 194.098 13.6439 194.529 13.4309C194.964 13.2179 195.329 12.8908 195.622 12.4508C195.921 12.0108 196.07 11.4498 196.07 10.7677ZM205.249 15.455C204.225 15.455 203.344 15.214 202.606 14.731C201.867 14.2479 201.299 13.5829 200.901 12.7348C200.503 11.8878 200.305 10.9187 200.305 9.82966C200.305 8.72159 200.508 7.74452 200.915 6.89647C201.327 6.04441 201.9 5.37937 202.634 4.90033C203.373 4.4173 204.235 4.17629 205.22 4.17629C205.987 4.17629 206.679 4.31829 207.294 4.60231C207.91 4.88633 208.414 5.28435 208.807 5.79538C209.2 6.30742 209.444 6.90346 209.538 7.58551H207.862C207.735 7.08848 207.45 6.64745 207.01 6.26442C206.574 5.8764 205.987 5.68238 205.249 5.68238C204.595 5.68238 204.021 5.8524 203.529 6.19342C203.041 6.52944 202.66 7.00547 202.386 7.62051C202.116 8.23155 201.981 8.9496 201.981 9.77265C201.981 10.6157 202.113 11.3498 202.378 11.9748C202.648 12.5998 203.027 13.0849 203.515 13.4309C204.008 13.7769 204.586 13.9499 205.249 13.9499C205.684 13.9499 206.08 13.8739 206.435 13.7219C206.79 13.5709 207.091 13.3529 207.337 13.0689C207.583 12.7849 207.758 12.4438 207.862 12.0458H209.538C209.444 12.6898 209.209 13.2699 208.835 13.7859C208.466 14.298 207.976 14.705 207.365 15.008C206.759 15.306 206.054 15.455 205.249 15.455ZM216.733 4.31829V5.73839H211.08V4.31829H216.733ZM212.727 1.70412H214.404V12.1028C214.404 12.5758 214.472 12.9319 214.61 13.1679C214.752 13.3999 214.931 13.5569 215.149 13.6369C215.372 13.7129 215.606 13.7509 215.852 13.7509C216.037 13.7509 216.189 13.7409 216.307 13.7219C216.425 13.6989 216.52 13.6799 216.591 13.6659L216.932 15.171C216.818 15.214 216.66 15.256 216.456 15.299C216.253 15.346 215.994 15.37 215.682 15.37C215.208 15.37 214.744 15.268 214.29 15.065C213.84 14.861 213.466 14.551 213.168 14.1339C212.874 13.7179 212.727 13.1919 212.727 12.5578V1.70412ZM223.57 15.455C222.585 15.455 221.721 15.221 220.978 14.752C220.239 14.2829 219.661 13.6279 219.244 12.7849C218.832 11.9418 218.626 10.9567 218.626 9.82966C218.626 8.69359 218.832 7.70152 219.244 6.85347C219.661 6.00641 220.239 5.34835 220.978 4.87932C221.721 4.41029 222.585 4.17629 223.57 4.17629C224.555 4.17629 225.417 4.41029 226.155 4.87932C226.899 5.34835 227.476 6.00641 227.888 6.85347C228.305 7.70152 228.513 8.69359 228.513 9.82966C228.513 10.9567 228.305 11.9418 227.888 12.7849C227.476 13.6279 226.899 14.2829 226.155 14.752C225.417 15.221 224.555 15.455 223.57 15.455ZM223.57 13.9499C224.318 13.9499 224.934 13.7579 225.417 13.3739C225.9 12.9909 226.257 12.4868 226.489 11.8618C226.721 11.2368 226.837 10.5587 226.837 9.82966C226.837 9.10061 226.721 8.42156 226.489 7.79152C226.257 7.16147 225.9 6.65245 225.417 6.26442C224.934 5.8764 224.318 5.68238 223.57 5.68238C222.822 5.68238 222.206 5.8764 221.723 6.26442C221.24 6.65245 220.883 7.16147 220.651 7.79152C220.419 8.42156 220.303 9.10061 220.303 9.82966C220.303 10.5587 220.419 11.2368 220.651 11.8618C220.883 12.4868 221.24 12.9909 221.723 13.3739C222.206 13.7579 222.822 13.9499 223.57 13.9499ZM231.072 15.228V4.31829H232.691V5.9664H232.805C233.004 5.42636 233.363 4.98834 233.884 4.65232C234.405 4.31629 234.993 4.14728 235.647 4.14728C235.77 4.14728 235.924 4.15027 236.108 4.15527C236.293 4.15927 236.433 4.16629 236.527 4.17629V5.88039C236.471 5.86639 236.34 5.8454 236.137 5.81639C235.938 5.78339 235.727 5.76738 235.505 5.76738C234.974 5.76738 234.501 5.87839 234.083 6.1014C233.671 6.31842 233.345 6.62145 233.103 7.01047C232.866 7.3935 232.748 7.83152 232.748 8.32456V15.228H231.072ZM246.241 6.76145L244.736 7.18749C244.641 6.93647 244.501 6.69245 244.317 6.45644C244.137 6.21442 243.891 6.01541 243.578 5.8594C243.266 5.70339 242.866 5.62537 242.378 5.62537C241.71 5.62537 241.154 5.77938 240.709 6.0864C240.268 6.38942 240.048 6.77545 240.048 7.24448C240.048 7.66151 240.2 7.99053 240.503 8.23155C240.806 8.47356 241.279 8.67458 241.923 8.83559L243.543 9.23361C244.518 9.46963 245.245 9.83265 245.723 10.3197C246.201 10.8027 246.44 11.4258 246.44 12.1878C246.44 12.8128 246.26 13.3719 245.901 13.8639C245.545 14.3569 245.048 14.745 244.409 15.029C243.77 15.313 243.027 15.455 242.179 15.455C241.066 15.455 240.145 15.214 239.416 14.731C238.687 14.2479 238.225 13.5419 238.031 12.6138L239.622 12.2168C239.774 12.8039 240.06 13.2439 240.482 13.5379C240.908 13.8309 241.464 13.9779 242.151 13.9779C242.932 13.9779 243.552 13.8119 244.011 13.4809C244.475 13.1449 244.707 12.7419 244.707 12.2728C244.707 11.8948 244.575 11.5768 244.31 11.3217C244.045 11.0607 243.637 10.8667 243.088 10.7387L241.27 10.3127C240.271 10.0757 239.537 9.70964 239.068 9.21161C238.604 8.70957 238.372 8.08254 238.372 7.32949C238.372 6.71445 238.545 6.16941 238.891 5.69638C239.241 5.22234 239.717 4.85133 240.318 4.58131C240.924 4.31129 241.611 4.17629 242.378 4.17629C243.457 4.17629 244.305 4.41329 244.92 4.88632C245.541 5.36036 245.981 5.9854 246.241 6.76145ZM251.464 13.2389L251.351 14.0059C251.27 14.546 251.147 15.124 250.981 15.739C250.82 16.3551 250.652 16.9351 250.477 17.4792C250.302 18.0242 250.158 18.4572 250.044 18.7792H248.765C248.826 18.4762 248.907 18.0762 249.006 17.5792C249.105 17.0821 249.205 16.5251 249.304 15.9101C249.409 15.299 249.495 14.674 249.561 14.0349L249.645 13.2389H251.464ZM250.442 7.24448C250.091 7.24448 249.791 7.11948 249.54 6.86847C249.288 6.61745 249.162 6.31642 249.162 5.9664C249.162 5.61537 249.288 5.31536 249.54 5.06435C249.791 4.81333 250.091 4.68732 250.442 4.68732C250.792 4.68732 251.093 4.81333 251.344 5.06435C251.595 5.31536 251.72 5.61537 251.72 5.9664C251.72 6.19841 251.661 6.41143 251.543 6.60545C251.429 6.79946 251.275 6.95547 251.081 7.07447C250.892 7.18748 250.678 7.24448 250.442 7.24448ZM264.314 15.455C263.405 15.455 262.603 15.226 261.907 14.766C261.211 14.3019 260.666 13.6489 260.273 12.8059C259.88 11.9588 259.684 10.9567 259.684 9.80166C259.684 8.65558 259.88 7.66152 260.273 6.81846C260.666 5.9754 261.213 5.32436 261.914 4.86533C262.614 4.4063 263.424 4.17629 264.343 4.17629C265.054 4.17629 265.615 4.29429 266.027 4.53131C266.444 4.76332 266.761 5.02834 266.979 5.32636C267.201 5.62038 267.374 5.8614 267.497 6.05141H267.639V0.682052H269.315V15.228H267.696V13.5519H267.497C267.374 13.7509 267.199 14.0019 266.971 14.3049C266.744 14.603 266.42 14.871 265.998 15.107C265.577 15.339 265.016 15.455 264.314 15.455ZM264.541 13.9499C265.215 13.9499 265.783 13.7739 266.247 13.4239C266.711 13.0689 267.064 12.5789 267.305 11.9538C267.547 11.3238 267.667 10.5967 267.667 9.77265C267.667 8.9586 267.549 8.24555 267.312 7.63551C267.076 7.01947 266.725 6.54144 266.261 6.20042C265.797 5.8544 265.224 5.68238 264.541 5.68238C263.831 5.68238 263.239 5.8644 262.766 6.22842C262.297 6.58845 261.944 7.07847 261.708 7.69951C261.476 8.31455 261.36 9.0056 261.36 9.77265C261.36 10.5497 261.478 11.2547 261.715 11.8898C261.956 12.5198 262.311 13.0219 262.78 13.3959C263.254 13.7649 263.841 13.9499 264.541 13.9499ZM277.05 15.455C276.065 15.455 275.201 15.221 274.457 14.752C273.719 14.2829 273.141 13.6279 272.724 12.7849C272.312 11.9418 272.106 10.9567 272.106 9.82966C272.106 8.69359 272.312 7.70152 272.724 6.85347C273.141 6.00641 273.719 5.34835 274.457 4.87932C275.201 4.41029 276.065 4.17629 277.05 4.17629C278.034 4.17629 278.896 4.41029 279.635 4.87932C280.379 5.34835 280.957 6.00641 281.369 6.85347C281.785 7.70152 281.994 8.69359 281.994 9.82966C281.994 10.9567 281.785 11.9418 281.369 12.7849C280.957 13.6279 280.379 14.2829 279.635 14.752C278.896 15.221 278.034 15.455 277.05 15.455ZM277.05 13.9499C277.798 13.9499 278.413 13.7579 278.896 13.3739C279.379 12.9909 279.737 12.4868 279.97 11.8618C280.202 11.2368 280.318 10.5587 280.318 9.82966C280.318 9.10061 280.202 8.42156 279.97 7.79152C279.737 7.16147 279.379 6.65245 278.896 6.26442C278.413 5.8764 277.798 5.68238 277.05 5.68238C276.301 5.68238 275.686 5.8764 275.203 6.26442C274.72 6.65245 274.363 7.16147 274.131 7.79152C273.899 8.42156 273.783 9.10061 273.783 9.82966C273.783 10.5587 273.899 11.2368 274.131 11.8618C274.363 12.4868 274.72 12.9909 275.203 13.3739C275.686 13.7579 276.301 13.9499 277.05 13.9499ZM286.229 8.66558V15.228H284.552V4.31829H286.172V6.0224H286.314C286.569 5.46836 286.958 5.02334 287.479 4.68732C287.999 4.3463 288.672 4.17629 289.496 4.17629C290.234 4.17629 290.88 4.32729 291.434 4.63031C291.988 4.92933 292.419 5.38336 292.727 5.9944C293.035 6.60044 293.189 7.36749 293.189 8.29555V15.228H291.513V8.40957C291.513 7.55251 291.29 6.88446 290.845 6.40643C290.4 5.9234 289.789 5.68238 289.013 5.68238C288.478 5.68238 287.999 5.79838 287.578 6.0304C287.161 6.26241 286.832 6.60043 286.591 7.04546C286.349 7.49049 286.229 8.03054 286.229 8.66558ZM297.701 0.682052V5.68238H296.139V0.682052H297.701ZM305.431 4.31829V5.73839H299.777V4.31829H305.431ZM301.425 1.70412H303.101V12.1028C303.101 12.5758 303.17 12.9319 303.307 13.1679C303.449 13.3999 303.629 13.5569 303.847 13.6369C304.069 13.7129 304.304 13.7509 304.55 13.7509C304.734 13.7509 304.886 13.7409 305.004 13.7219C305.123 13.6989 305.217 13.6799 305.288 13.6659L305.629 15.171C305.516 15.214 305.357 15.256 305.154 15.299C304.95 15.346 304.692 15.37 304.379 15.37C303.906 15.37 303.442 15.268 302.987 15.065C302.538 14.861 302.163 14.551 301.865 14.1339C301.572 13.7179 301.425 13.1919 301.425 12.5578V1.70412ZM315.254 8.66558V15.228H313.578V0.682052H315.254V6.0224H315.396C315.652 5.45936 316.035 5.01234 316.547 4.68032C317.063 4.3443 317.749 4.17629 318.606 4.17629C319.35 4.17629 320.001 4.32529 320.559 4.62331C321.118 4.91733 321.551 5.36937 321.859 5.98041C322.172 6.58645 322.328 7.35849 322.328 8.29555V15.228H320.652V8.40957C320.652 7.54251 320.427 6.87246 319.977 6.39943C319.532 5.92139 318.914 5.68238 318.123 5.68238C317.574 5.68238 317.082 5.79838 316.646 6.0304C316.215 6.26241 315.874 6.60043 315.623 7.04546C315.377 7.49049 315.254 8.03054 315.254 8.66558ZM329.969 15.455C328.918 15.455 328.011 15.223 327.249 14.759C326.491 14.29 325.907 13.6369 325.494 12.7989C325.086 11.9558 324.883 10.9757 324.883 9.85865C324.883 8.74058 325.086 7.75551 325.494 6.90346C325.907 6.0464 326.479 5.37937 327.213 4.90033C327.952 4.4173 328.814 4.17629 329.799 4.17629C330.367 4.17629 330.928 4.27129 331.482 4.4603C332.036 4.64931 332.54 4.95734 332.995 5.38337C333.449 5.80539 333.811 6.36343 334.081 7.05947C334.351 7.75552 334.486 8.61257 334.486 9.63064V10.3417H326.077V8.89259H332.782C332.782 8.27655 332.658 7.72751 332.412 7.24448C332.171 6.76145 331.825 6.38042 331.375 6.1014C330.93 5.82138 330.405 5.68238 329.799 5.68238C329.131 5.68238 328.553 5.84739 328.066 6.17941C327.583 6.50543 327.211 6.93246 326.951 7.45749C326.69 7.98353 326.56 8.54657 326.56 9.14761V10.1137C326.56 10.9377 326.702 11.6368 326.986 12.2098C327.275 12.7778 327.675 13.2109 328.186 13.5089C328.698 13.8029 329.292 13.9499 329.969 13.9499C330.409 13.9499 330.807 13.8879 331.162 13.7649C331.522 13.6369 331.832 13.4479 332.093 13.1969C332.353 12.9409 332.554 12.6238 332.696 12.2448L334.316 12.6998C334.145 13.2489 333.859 13.7319 333.456 14.148C333.054 14.56 332.557 14.882 331.965 15.114C331.373 15.342 330.708 15.455 329.969 15.455ZM344.764 6.76145L343.258 7.18749C343.164 6.93647 343.024 6.69245 342.839 6.45644C342.659 6.21442 342.413 6.01541 342.101 5.8594C341.788 5.70339 341.388 5.62537 340.9 5.62537C340.233 5.62537 339.676 5.77938 339.23 6.0864C338.79 6.38942 338.57 6.77545 338.57 7.24448C338.57 7.66151 338.721 7.99053 339.024 8.23155C339.328 8.47356 339.801 8.67458 340.445 8.83559L342.065 9.23361C343.041 9.46963 343.767 9.83265 344.246 10.3197C344.724 10.8027 344.963 11.4258 344.963 12.1878C344.963 12.8128 344.783 13.3719 344.423 13.8639C344.068 14.3569 343.571 14.745 342.932 15.029C342.293 15.313 341.549 15.455 340.702 15.455C339.588 15.455 338.667 15.214 337.938 14.731C337.209 14.2479 336.747 13.5419 336.553 12.6138L338.144 12.2168C338.295 12.8039 338.582 13.2439 339.003 13.5379C339.429 13.8309 339.986 13.9779 340.672 13.9779C341.454 13.9779 342.075 13.8119 342.534 13.4809C342.998 13.1449 343.23 12.7419 343.23 12.2728C343.23 11.8948 343.097 11.5768 342.832 11.3217C342.567 11.0607 342.16 10.8667 341.611 10.7387L339.792 10.3127C338.792 10.0757 338.059 9.70964 337.59 9.21161C337.126 8.70957 336.894 8.08254 336.894 7.32949C336.894 6.71445 337.067 6.16941 337.412 5.69638C337.763 5.22234 338.238 4.85133 338.84 4.58131C339.446 4.31129 340.133 4.17629 340.9 4.17629C341.98 4.17629 342.828 4.41329 343.443 4.88632C344.063 5.36036 344.504 5.9854 344.764 6.76145ZM347.486 15.228V4.31829H349.162V15.228H347.486ZM348.338 2.50017C348.012 2.50017 347.73 2.38816 347.493 2.16614C347.261 1.94313 347.145 1.67612 347.145 1.3631C347.145 1.05108 347.261 0.783056 347.493 0.561042C347.73 0.338027 348.012 0.22702 348.338 0.22702C348.665 0.22702 348.944 0.338027 349.176 0.561042C349.413 0.783056 349.532 1.05108 349.532 1.3631C349.532 1.67612 349.413 1.94313 349.176 2.16614C348.944 2.38816 348.665 2.50017 348.338 2.50017ZM356.977 4.31829V5.73839H351.323V4.31829H356.977ZM352.971 1.70412H354.647V12.1028C354.647 12.5758 354.716 12.9319 354.853 13.1679C354.995 13.3999 355.175 13.5569 355.393 13.6369C355.615 13.7129 355.851 13.7509 356.097 13.7509C356.281 13.7509 356.433 13.7409 356.551 13.7219C356.67 13.6989 356.764 13.6799 356.835 13.6659L357.176 15.171C357.063 15.214 356.904 15.256 356.7 15.299C356.497 15.346 356.239 15.37 355.926 15.37C355.452 15.37 354.988 15.268 354.533 15.065C354.083 14.861 353.709 14.551 353.411 14.1339C353.118 13.7179 352.971 13.1919 352.971 12.5578V1.70412ZM362.709 15.484C362.018 15.484 361.39 15.353 360.827 15.093C360.263 14.828 359.816 14.4469 359.485 13.9499C359.153 13.4479 358.987 12.8419 358.987 12.1308C358.987 11.5058 359.111 10.9997 359.357 10.6117C359.603 10.2187 359.932 9.91067 360.344 9.68765C360.756 9.46564 361.21 9.29962 361.708 9.19061C362.209 9.0766 362.714 8.98659 363.22 8.92059C363.883 8.83558 364.421 8.77159 364.833 8.72859C365.249 8.68159 365.552 8.60357 365.742 8.49457C365.936 8.38556 366.033 8.19655 366.033 7.92653V7.86952C366.033 7.16848 365.841 6.62445 365.458 6.23642C365.079 5.84739 364.504 5.65337 363.732 5.65337C362.932 5.65337 362.304 5.82839 361.85 6.17941C361.395 6.52943 361.075 6.90347 360.891 7.30149L359.3 6.73345C359.584 6.0704 359.963 5.55437 360.436 5.18435C360.914 4.81032 361.435 4.5503 361.999 4.40329C362.567 4.25228 363.126 4.17629 363.675 4.17629C364.025 4.17629 364.428 4.21828 364.882 4.30429C365.342 4.38429 365.784 4.5523 366.21 4.80832C366.641 5.06433 366.999 5.45036 367.283 5.9664C367.567 6.48243 367.709 7.17348 367.709 8.03953V15.228H366.033V13.7509H365.948C365.834 13.9869 365.645 14.2409 365.379 14.511C365.114 14.781 364.762 15.01 364.321 15.2C363.881 15.389 363.343 15.484 362.709 15.484ZM362.965 13.9779C363.628 13.9779 364.186 13.8479 364.641 13.5869C365.1 13.3269 365.446 12.9909 365.678 12.5789C365.914 12.1668 366.033 11.7338 366.033 11.2787V9.74465C365.962 9.82965 365.806 9.90767 365.564 9.97867C365.327 10.0457 365.053 10.1047 364.74 10.1567C364.432 10.2037 364.132 10.2467 363.838 10.2847C363.549 10.3177 363.315 10.3457 363.135 10.3697C362.7 10.4267 362.292 10.5187 361.914 10.6467C361.539 10.7697 361.236 10.9567 361.004 11.2077C360.777 11.4538 360.664 11.7898 360.664 12.2168C360.664 12.7989 360.879 13.2389 361.31 13.5379C361.745 13.8309 362.297 13.9779 362.965 13.9779ZM375.514 4.31829V5.73839H369.859V4.31829H375.514ZM371.508 1.70412H373.184V12.1028C373.184 12.5758 373.253 12.9319 373.39 13.1679C373.532 13.3999 373.712 13.5569 373.93 13.6369C374.152 13.7129 374.387 13.7509 374.633 13.7509C374.818 13.7509 374.969 13.7409 375.087 13.7219C375.206 13.6989 375.301 13.6799 375.372 13.6659L375.712 15.171C375.599 15.214 375.44 15.256 375.237 15.299C375.033 15.346 374.775 15.37 374.462 15.37C373.989 15.37 373.525 15.268 373.07 15.065C372.621 14.861 372.247 14.551 371.948 14.1339C371.655 13.7179 371.508 13.1919 371.508 12.5578V1.70412ZM382.492 15.455C381.44 15.455 380.534 15.223 379.771 14.759C379.014 14.29 378.429 13.6369 378.017 12.7989C377.61 11.9558 377.406 10.9757 377.406 9.85865C377.406 8.74058 377.61 7.75551 378.017 6.90346C378.429 6.0464 379.002 5.37937 379.736 4.90033C380.475 4.4173 381.336 4.17629 382.321 4.17629C382.889 4.17629 383.45 4.27129 384.004 4.4603C384.558 4.64931 385.063 4.95734 385.518 5.38337C385.973 5.80539 386.335 6.36343 386.605 7.05947C386.875 7.75552 387.01 8.61257 387.01 9.63064V10.3417H378.6V8.89259H385.304C385.304 8.27655 385.181 7.72751 384.935 7.24448C384.693 6.76145 384.348 6.38042 383.898 6.1014C383.453 5.82138 382.927 5.68238 382.321 5.68238C381.654 5.68238 381.076 5.84739 380.588 6.17941C380.105 6.50543 379.734 6.93246 379.473 7.45749C379.213 7.98353 379.083 8.54657 379.083 9.14761V10.1137C379.083 10.9377 379.225 11.6368 379.509 12.2098C379.797 12.7778 380.198 13.2109 380.709 13.5089C381.22 13.8029 381.815 13.9499 382.492 13.9499C382.932 13.9499 383.33 13.8879 383.685 13.7649C384.045 13.6369 384.355 13.4479 384.615 13.1969C384.876 12.9409 385.077 12.6238 385.219 12.2448L386.839 12.6998C386.669 13.2489 386.382 13.7319 385.98 14.148C385.576 14.56 385.079 14.882 384.487 15.114C383.895 15.342 383.23 15.455 382.492 15.455ZM399.929 4.31829V5.73839H394.275V4.31829H399.929ZM395.923 1.70412H397.599V12.1028C397.599 12.5758 397.668 12.9319 397.805 13.1679C397.947 13.3999 398.127 13.5569 398.345 13.6369C398.567 13.7129 398.802 13.7509 399.048 13.7509C399.233 13.7509 399.384 13.7409 399.503 13.7219C399.621 13.6989 399.716 13.6799 399.787 13.6659L400.128 15.171C400.014 15.214 399.855 15.256 399.652 15.299C399.448 15.346 399.19 15.37 398.878 15.37C398.404 15.37 397.94 15.268 397.486 15.065C397.036 14.861 396.662 14.551 396.363 14.1339C396.07 13.7179 395.923 13.1919 395.923 12.5578V1.70412ZM406.766 15.455C405.781 15.455 404.917 15.221 404.173 14.752C403.435 14.2829 402.857 13.6279 402.44 12.7849C402.028 11.9418 401.822 10.9567 401.822 9.82966C401.822 8.69359 402.028 7.70152 402.44 6.85347C402.857 6.00641 403.435 5.34835 404.173 4.87932C404.917 4.41029 405.781 4.17629 406.766 4.17629C407.75 4.17629 408.612 4.41029 409.351 4.87932C410.094 5.34835 410.672 6.00641 411.084 6.85347C411.5 7.70152 411.709 8.69359 411.709 9.82966C411.709 10.9567 411.5 11.9418 411.084 12.7849C410.672 13.6279 410.094 14.2829 409.351 14.752C408.612 15.221 407.75 15.455 406.766 15.455ZM406.766 13.9499C407.514 13.9499 408.129 13.7579 408.612 13.3739C409.095 12.9909 409.453 12.4868 409.685 11.8618C409.917 11.2368 410.033 10.5587 410.033 9.82966C410.033 9.10061 409.917 8.42156 409.685 7.79152C409.453 7.16147 409.095 6.65245 408.612 6.26442C408.129 5.8764 407.514 5.68238 406.766 5.68238C406.018 5.68238 405.402 5.8764 404.919 6.26442C404.436 6.65245 404.079 7.16147 403.847 7.79152C403.615 8.42156 403.499 9.10061 403.499 9.82966C403.499 10.5587 403.615 11.2368 403.847 11.8618C404.079 12.4868 404.436 12.9909 404.919 13.3739C405.402 13.7579 406.018 13.9499 406.766 13.9499ZM419.893 15.228V4.31829H421.513V5.9664H421.626C421.825 5.42636 422.185 4.98834 422.706 4.65232C423.227 4.31629 423.814 4.14728 424.467 4.14728C424.59 4.14728 424.744 4.15027 424.929 4.15527C425.114 4.15927 425.253 4.16629 425.348 4.17629V5.88039C425.291 5.86639 425.161 5.8454 424.957 5.81639C424.758 5.78339 424.548 5.76738 424.325 5.76738C423.795 5.76738 423.321 5.87839 422.905 6.1014C422.493 6.31842 422.166 6.62145 421.925 7.01047C421.688 7.3935 421.57 7.83152 421.57 8.32456V15.228H419.893ZM431.578 15.455C430.526 15.455 429.619 15.223 428.856 14.759C428.099 14.29 427.514 13.6369 427.102 12.7989C426.695 11.9558 426.491 10.9757 426.491 9.85865C426.491 8.74058 426.695 7.75551 427.102 6.90346C427.514 6.0464 428.087 5.37937 428.821 4.90033C429.56 4.4173 430.421 4.17629 431.407 4.17629C431.975 4.17629 432.536 4.27129 433.09 4.4603C433.644 4.64931 434.149 4.95734 434.603 5.38337C435.058 5.80539 435.42 6.36343 435.69 7.05947C435.96 7.75552 436.095 8.61257 436.095 9.63064V10.3417H427.685V8.89259H434.39C434.39 8.27655 434.267 7.72751 434.021 7.24448C433.779 6.76145 433.434 6.38042 432.984 6.1014C432.539 5.82138 432.013 5.68238 431.407 5.68238C430.739 5.68238 430.161 5.84739 429.673 6.17941C429.19 6.50543 428.819 6.93246 428.558 7.45749C428.298 7.98353 428.168 8.54657 428.168 9.14761V10.1137C428.168 10.9377 428.31 11.6368 428.594 12.2098C428.883 12.7778 429.283 13.2109 429.794 13.5089C430.305 13.8029 430.901 13.9499 431.578 13.9499C432.018 13.9499 432.416 13.8879 432.771 13.7649C433.131 13.6369 433.441 13.4479 433.701 13.1969C433.962 12.9409 434.163 12.6238 434.305 12.2448L435.924 12.6998C435.754 13.2489 435.467 13.7319 435.065 14.148C434.662 14.56 434.165 14.882 433.573 15.114C432.982 15.342 432.316 15.455 431.578 15.455ZM441.855 15.484C441.163 15.484 440.536 15.353 439.973 15.093C439.409 14.828 438.962 14.4469 438.63 13.9499C438.299 13.4479 438.133 12.8419 438.133 12.1308C438.133 11.5058 438.256 10.9997 438.502 10.6117C438.749 10.2187 439.078 9.91067 439.49 9.68765C439.902 9.46564 440.356 9.29962 440.853 9.19061C441.355 9.0766 441.859 8.98659 442.366 8.92059C443.029 8.83558 443.566 8.77159 443.978 8.72859C444.395 8.68159 444.698 8.60357 444.887 8.49457C445.081 8.38556 445.178 8.19655 445.178 7.92653V7.86952C445.178 7.16848 444.987 6.62445 444.603 6.23642C444.224 5.84739 443.649 5.65337 442.877 5.65337C442.077 5.65337 441.45 5.82839 440.995 6.17941C440.541 6.52943 440.221 6.90347 440.036 7.30149L438.446 6.73345C438.73 6.0704 439.108 5.55437 439.582 5.18435C440.06 4.81032 440.581 4.5503 441.144 4.40329C441.713 4.25228 442.271 4.17629 442.821 4.17629C443.171 4.17629 443.573 4.21828 444.028 4.30429C444.487 4.38429 444.93 4.5523 445.356 4.80832C445.787 5.06433 446.144 5.45036 446.429 5.9664C446.714 6.48243 446.856 7.17348 446.856 8.03953V15.228H445.178V13.7509H445.093C444.98 13.9869 444.79 14.2409 444.525 14.511C444.26 14.781 443.907 15.01 443.467 15.2C443.027 15.389 442.489 15.484 441.855 15.484ZM442.11 13.9779C442.773 13.9779 443.332 13.8479 443.786 13.5869C444.246 13.3269 444.591 12.9909 444.823 12.5789C445.06 12.1668 445.178 11.7338 445.178 11.2787V9.74465C445.107 9.82965 444.951 9.90767 444.71 9.97867C444.473 10.0457 444.198 10.1047 443.886 10.1567C443.578 10.2037 443.277 10.2467 442.984 10.2847C442.695 10.3177 442.461 10.3457 442.281 10.3697C441.845 10.4267 441.438 10.5187 441.059 10.6467C440.685 10.7697 440.382 10.9567 440.15 11.2077C439.923 11.4538 439.809 11.7898 439.809 12.2168C439.809 12.7989 440.025 13.2389 440.455 13.5379C440.891 13.8309 441.443 13.9779 442.11 13.9779ZM454.347 15.455C453.324 15.455 452.443 15.214 451.705 14.731C450.966 14.2479 450.398 13.5829 450 12.7348C449.602 11.8878 449.404 10.9187 449.404 9.82966C449.404 8.72159 449.607 7.74452 450.014 6.89647C450.426 6.04441 450.999 5.37937 451.733 4.90033C452.472 4.4173 453.333 4.17629 454.318 4.17629C455.085 4.17629 455.777 4.31829 456.392 4.60231C457.008 4.88633 457.512 5.28435 457.905 5.79538C458.298 6.30742 458.542 6.90346 458.637 7.58551H456.96C456.833 7.08848 456.548 6.64745 456.108 6.26442C455.673 5.8764 455.085 5.68238 454.347 5.68238C453.693 5.68238 453.12 5.8524 452.628 6.19342C452.14 6.52944 451.759 7.00547 451.485 7.62051C451.215 8.23155 451.08 8.9496 451.08 9.77265C451.08 10.6157 451.212 11.3498 451.477 11.9748C451.747 12.5998 452.126 13.0849 452.614 13.4309C453.106 13.7769 453.684 13.9499 454.347 13.9499C454.782 13.9499 455.178 13.8739 455.533 13.7219C455.888 13.5709 456.189 13.3529 456.435 13.0689C456.681 12.7849 456.856 12.4438 456.96 12.0458H458.637C458.542 12.6898 458.307 13.2699 457.933 13.7859C457.564 14.298 457.074 14.705 456.463 15.008C455.857 15.306 455.152 15.455 454.347 15.455ZM462.764 8.66558V15.228H461.088V0.682052H462.764V6.0224H462.906C463.162 5.45936 463.545 5.01234 464.057 4.68032C464.573 4.3443 465.259 4.17629 466.116 4.17629C466.86 4.17629 467.511 4.32529 468.069 4.62331C468.628 4.91733 469.061 5.36937 469.369 5.98041C469.682 6.58645 469.838 7.35849 469.838 8.29555V15.228H468.162V8.40957C468.162 7.54251 467.937 6.87246 467.487 6.39943C467.042 5.92139 466.424 5.68238 465.633 5.68238C465.084 5.68238 464.592 5.79838 464.156 6.0304C463.725 6.26241 463.384 6.60043 463.133 7.04546C462.887 7.49049 462.764 8.03054 462.764 8.66558ZM482.962 15.455C481.977 15.455 481.113 15.221 480.37 14.752C479.631 14.2829 479.053 13.6279 478.637 12.7849C478.225 11.9418 478.019 10.9567 478.019 9.82966C478.019 8.69359 478.225 7.70152 478.637 6.85347C479.053 6.00641 479.631 5.34835 480.37 4.87932C481.113 4.41029 481.977 4.17629 482.962 4.17629C483.947 4.17629 484.809 4.41029 485.547 4.87932C486.291 5.34835 486.868 6.00641 487.28 6.85347C487.697 7.70152 487.905 8.69359 487.905 9.82966C487.905 10.9567 487.697 11.9418 487.28 12.7849C486.868 13.6279 486.291 14.2829 485.547 14.752C484.809 15.221 483.947 15.455 482.962 15.455ZM482.962 13.9499C483.71 13.9499 484.326 13.7579 484.809 13.3739C485.292 12.9909 485.649 12.4868 485.881 11.8618C486.113 11.2368 486.229 10.5587 486.229 9.82966C486.229 9.10061 486.113 8.42156 485.881 7.79152C485.649 7.16147 485.292 6.65245 484.809 6.26442C484.326 5.8764 483.71 5.68238 482.962 5.68238C482.214 5.68238 481.598 5.8764 481.115 6.26442C480.632 6.65245 480.275 7.16147 480.043 7.79152C479.811 8.42156 479.695 9.10061 479.695 9.82966C479.695 10.5587 479.811 11.2368 480.043 11.8618C480.275 12.4868 480.632 12.9909 481.115 13.3739C481.598 13.7579 482.214 13.9499 482.962 13.9499ZM497.344 10.7677V4.31829H499.014V15.228H497.344V13.3809H497.224C496.974 13.9349 496.574 14.4069 496.034 14.795C495.494 15.178 494.814 15.37 493.984 15.37C493.304 15.37 492.704 15.221 492.174 14.923C491.639 14.62 491.221 14.1649 490.918 13.5589C490.615 12.9479 490.464 12.1788 490.464 11.2508V4.31829H492.144V11.1367C492.144 11.9328 492.364 12.5668 492.804 13.0399C493.254 13.5139 493.834 13.7509 494.524 13.7509C494.944 13.7509 495.364 13.6439 495.794 13.4309C496.234 13.2179 496.594 12.8908 496.894 12.4508C497.194 12.0108 497.344 11.4498 497.344 10.7677ZM506.834 4.31829V5.73839H501.174V4.31829H506.834ZM502.824 1.70412H504.504V12.1028C504.504 12.5758 504.574 12.9319 504.704 13.1679C504.844 13.3999 505.024 13.5569 505.244 13.6369C505.464 13.7129 505.704 13.7509 505.954 13.7509C506.134 13.7509 506.284 13.7409 506.404 13.7219C506.524 13.6989 506.614 13.6799 506.685 13.6659L507.035 15.171C506.915 15.214 506.755 15.256 506.554 15.299C506.354 15.346 506.094 15.37 505.784 15.37C505.304 15.37 504.844 15.268 504.384 15.065C503.934 14.861 503.564 14.551 503.264 14.1339C502.974 13.7179 502.824 13.1919 502.824 12.5578V1.70412ZM519.725 4.31829V5.73839H514.065V4.31829H519.725ZM515.715 1.70412H517.395V12.1028C517.395 12.5758 517.465 12.9319 517.595 13.1679C517.745 13.3999 517.925 13.5569 518.135 13.6369C518.365 13.7129 518.595 13.7509 518.845 13.7509C519.025 13.7509 519.175 13.7409 519.295 13.7219C519.415 13.6989 519.505 13.6799 519.575 13.6659L519.925 15.171C519.805 15.214 519.645 15.256 519.445 15.299C519.245 15.346 518.985 15.37 518.675 15.37C518.195 15.37 517.735 15.268 517.275 15.065C516.825 14.861 516.455 14.551 516.155 14.1339C515.865 13.7179 515.715 13.1919 515.715 12.5578V1.70412ZM526.556 15.455C525.576 15.455 524.706 15.221 523.966 14.752C523.226 14.2829 522.645 13.6279 522.235 12.7849C521.825 11.9418 521.615 10.9567 521.615 9.82966C521.615 8.69359 521.825 7.70152 522.235 6.85347C522.645 6.00641 523.226 5.34835 523.966 4.87932C524.706 4.41029 525.576 4.17629 526.556 4.17629C527.546 4.17629 528.406 4.41029 529.146 4.87932C529.886 5.34835 530.466 6.00641 530.876 6.85347C531.296 7.70152 531.506 8.69359 531.506 9.82966C531.506 10.9567 531.296 11.9418 530.876 12.7849C530.466 13.6279 529.886 14.2829 529.146 14.752C528.406 15.221 527.546 15.455 526.556 15.455ZM526.556 13.9499C527.306 13.9499 527.926 13.7579 528.406 13.3739C528.886 12.9909 529.246 12.4868 529.476 11.8618C529.706 11.2368 529.826 10.5587 529.826 9.82966C529.826 9.10061 529.706 8.42156 529.476 7.79152C529.246 7.16147 528.886 6.65245 528.406 6.26442C527.926 5.8764 527.306 5.68238 526.556 5.68238C525.806 5.68238 525.196 5.8764 524.716 6.26442C524.226 6.65245 523.876 7.16147 523.636 7.79152C523.406 8.42156 523.296 9.10061 523.296 9.82966C523.296 10.5587 523.406 11.2368 523.636 11.8618C523.876 12.4868 524.226 12.9909 524.716 13.3739C525.196 13.7579 525.806 13.9499 526.556 13.9499ZM544.427 4.31829V5.73839H538.777V4.31829H544.427ZM540.427 1.70412H542.097V12.1028C542.097 12.5758 542.167 12.9319 542.307 13.1679C542.447 13.3999 542.627 13.5569 542.847 13.6369C543.067 13.7129 543.307 13.7509 543.547 13.7509C543.737 13.7509 543.887 13.7409 544.007 13.7219C544.127 13.6989 544.217 13.6799 544.287 13.6659L544.627 15.171C544.517 15.214 544.357 15.256 544.157 15.299C543.947 15.346 543.697 15.37 543.377 15.37C542.907 15.37 542.447 15.268 541.987 15.065C541.537 14.861 541.167 14.551 540.867 14.1339C540.567 13.7179 540.427 13.1919 540.427 12.5578V1.70412ZM548.867 8.66558V15.228H547.187V0.682052H548.867V6.0224H549.007C549.257 5.45936 549.647 5.01234 550.157 4.68032C550.667 4.3443 551.358 4.17629 552.218 4.17629C552.958 4.17629 553.608 4.32529 554.168 4.62331C554.728 4.91733 555.158 5.36937 555.468 5.98041C555.778 6.58645 555.938 7.35849 555.938 8.29555V15.228H554.258V8.40957C554.258 7.54251 554.038 6.87246 553.588 6.39943C553.138 5.92139 552.527 5.68238 551.737 5.68238C551.187 5.68238 550.687 5.79838 550.257 6.0304C549.827 6.26241 549.487 6.60043 549.237 7.04546C548.987 7.49049 548.867 8.03054 548.867 8.66558ZM563.578 15.455C562.528 15.455 561.618 15.223 560.858 14.759C560.098 14.29 559.518 13.6369 559.108 12.7989C558.698 11.9558 558.488 10.9757 558.488 9.85865C558.488 8.74058 558.698 7.75551 559.108 6.90346C559.518 6.0464 560.088 5.37937 560.818 4.90033C561.558 4.4173 562.418 4.17629 563.408 4.17629C563.978 4.17629 564.538 4.27129 565.088 4.4603C565.648 4.64931 566.148 4.95734 566.609 5.38337C567.059 5.80539 567.419 6.36343 567.689 7.05947C567.959 7.75552 568.099 8.61257 568.099 9.63064V10.3417H559.688V8.89259H566.388C566.388 8.27655 566.268 7.72751 566.018 7.24448C565.778 6.76145 565.438 6.38042 564.988 6.1014C564.538 5.82138 564.018 5.68238 563.408 5.68238C562.738 5.68238 562.158 5.84739 561.678 6.17941C561.188 6.50543 560.818 6.93246 560.558 7.45749C560.298 7.98353 560.168 8.54657 560.168 9.14761V10.1137C560.168 10.9377 560.308 11.6368 560.598 12.2098C560.888 12.7778 561.288 13.2109 561.798 13.5089C562.308 13.8029 562.898 13.9499 563.578 13.9499C564.018 13.9499 564.418 13.8879 564.768 13.7649C565.128 13.6369 565.438 13.4479 565.698 13.1969C565.958 12.9409 566.168 12.6238 566.308 12.2448L567.929 12.6998C567.759 13.2489 567.469 13.7319 567.069 14.148C566.659 14.56 566.168 14.882 565.578 15.114C564.978 15.342 564.318 15.455 563.578 15.455ZM570.649 15.228V4.31829H572.269V6.0224H572.409C572.639 5.44036 572.999 4.98833 573.509 4.66631C574.019 4.33929 574.619 4.17629 575.329 4.17629C576.049 4.17629 576.649 4.33929 577.129 4.66631C577.609 4.98833 577.989 5.44036 578.259 6.0224H578.369C578.649 5.45936 579.069 5.01234 579.629 4.68032C580.189 4.3443 580.859 4.17629 581.639 4.17629C582.619 4.17629 583.41 4.48131 584.03 5.09235C584.65 5.69839 584.96 6.64345 584.96 7.92653V15.228H583.29V7.92653C583.29 7.12148 583.07 6.54645 582.629 6.20042C582.189 5.8544 581.669 5.68238 581.069 5.68238C580.309 5.68238 579.709 5.9144 579.289 6.37843C578.869 6.83746 578.659 7.41949 578.659 8.12554V15.228H576.949V7.75552C576.949 7.13548 576.749 6.63644 576.349 6.25742C575.949 5.87339 575.429 5.68238 574.789 5.68238C574.359 5.68238 573.949 5.79838 573.569 6.0304C573.199 6.26241 572.899 6.58445 572.659 6.99547C572.439 7.4035 572.319 7.87453 572.319 8.40957V15.228H570.649ZM598.511 4.31829V5.73839H592.63V4.31829H598.511ZM594.39 15.228V2.8122C594.39 2.18716 594.54 1.66611 594.83 1.25008C595.13 0.833055 595.51 0.521046 595.98 0.312032C596.45 0.104019 596.94 0 597.461 0C597.871 0 598.211 0.0330012 598.471 0.0990056C598.731 0.16501 598.921 0.227027 599.051 0.284031L598.571 1.73312C598.481 1.70411 598.371 1.66912 598.211 1.62611C598.071 1.58411 597.87 1.56212 597.63 1.56212C597.08 1.56212 596.68 1.70212 596.43 1.98113C596.19 2.26115 596.07 2.67018 596.07 3.21022V15.228H594.39ZM604.841 15.455C603.861 15.455 603.001 15.221 602.251 14.752C601.511 14.2829 600.941 13.6279 600.521 12.7849C600.111 11.9418 599.901 10.9567 599.901 9.82966C599.901 8.69359 600.111 7.70152 600.521 6.85347C600.941 6.00641 601.511 5.34835 602.251 4.87932C603.001 4.41029 603.861 4.17629 604.841 4.17629C605.831 4.17629 606.691 4.41029 607.431 4.87932C608.171 5.34835 608.751 6.00641 609.161 6.85347C609.581 7.70152 609.791 8.69359 609.791 9.82966C609.791 10.9567 609.581 11.9418 609.161 12.7849C608.751 13.6279 608.171 14.2829 607.431 14.752C606.691 15.221 605.831 15.455 604.841 15.455ZM604.841 13.9499C605.591 13.9499 606.211 13.7579 606.691 13.3739C607.171 12.9909 607.531 12.4868 607.761 11.8618C608.001 11.2368 608.111 10.5587 608.111 9.82966C608.111 9.10061 608.001 8.42156 607.761 7.79152C607.531 7.16147 607.171 6.65245 606.691 6.26442C606.211 5.8764 605.591 5.68238 604.841 5.68238C604.101 5.68238 603.481 5.8764 603.001 6.26442C602.511 6.65245 602.161 7.16147 601.921 7.79152C601.691 8.42156 601.581 9.10061 601.581 9.82966C601.581 10.5587 601.691 11.2368 601.921 11.8618C602.161 12.4868 602.511 12.9909 603.001 13.3739C603.481 13.7579 604.101 13.9499 604.841 13.9499ZM612.352 15.228V4.31829H613.972V5.9664H614.082C614.282 5.42636 614.642 4.98834 615.162 4.65232C615.682 4.31629 616.272 4.14728 616.922 4.14728C617.042 4.14728 617.202 4.15027 617.382 4.15527C617.572 4.15927 617.712 4.16629 617.802 4.17629V5.88039C617.742 5.86639 617.612 5.8454 617.412 5.81639C617.212 5.78339 617.002 5.76738 616.782 5.76738C616.252 5.76738 615.772 5.87839 615.362 6.1014C614.952 6.31842 614.622 6.62145 614.382 7.01047C614.142 7.3935 614.022 7.83152 614.022 8.32456V15.228H612.352ZM628.623 15.484C627.932 15.484 627.302 15.353 626.742 15.093C626.182 14.828 625.732 14.4469 625.402 13.9499C625.072 13.4479 624.902 12.8419 624.902 12.1308C624.902 11.5058 625.022 10.9997 625.272 10.6117C625.522 10.2187 625.852 9.91067 626.262 9.68765C626.672 9.46564 627.122 9.29962 627.622 9.19061C628.122 9.0766 628.633 8.98659 629.133 8.92059C629.803 8.83558 630.333 8.77159 630.753 8.72859C631.163 8.68159 631.473 8.60357 631.663 8.49457C631.853 8.38556 631.953 8.19655 631.953 7.92653V7.86952C631.953 7.16848 631.753 6.62445 631.373 6.23642C630.993 5.84739 630.423 5.65337 629.653 5.65337C628.843 5.65337 628.223 5.82839 627.762 6.17941C627.312 6.52943 626.992 6.90347 626.802 7.30149L625.212 6.73345C625.502 6.0704 625.882 5.55437 626.352 5.18435C626.832 4.81032 627.352 4.5503 627.912 4.40329C628.483 4.25228 629.043 4.17629 629.593 4.17629C629.943 4.17629 630.343 4.21828 630.803 4.30429C631.263 4.38429 631.703 4.5523 632.123 4.80832C632.553 5.06433 632.913 5.45036 633.203 5.9664C633.483 6.48243 633.623 7.17348 633.623 8.03953V15.228H631.953V13.7509H631.863C631.753 13.9869 631.563 14.2409 631.293 14.511C631.033 14.781 630.683 15.01 630.233 15.2C629.793 15.389 629.263 15.484 628.623 15.484ZM628.883 13.9779C629.543 13.9779 630.103 13.8479 630.553 13.5869C631.013 13.3269 631.363 12.9909 631.593 12.5789C631.833 12.1668 631.953 11.7338 631.953 11.2787V9.74465C631.883 9.82965 631.723 9.90767 631.483 9.97867C631.243 10.0457 630.973 10.1047 630.653 10.1567C630.353 10.2037 630.053 10.2467 629.753 10.2847C629.463 10.3177 629.233 10.3457 629.053 10.3697C628.613 10.4267 628.213 10.5187 627.833 10.6467C627.453 10.7697 627.152 10.9567 626.922 11.2077C626.692 11.4538 626.582 11.7898 626.582 12.2168C626.582 12.7989 626.792 13.2389 627.223 13.5379C627.663 13.8309 628.213 13.9779 628.883 13.9779ZM638.363 8.66558V15.228H636.683V4.31829H638.303V6.0224H638.443C638.703 5.46836 639.093 5.02334 639.613 4.68732C640.133 4.3463 640.803 4.17629 641.623 4.17629C642.363 4.17629 643.014 4.32729 643.564 4.63031C644.124 4.92933 644.554 5.38336 644.864 5.9944C645.164 6.60044 645.324 7.36749 645.324 8.29555V15.228H643.644V8.40957C643.644 7.55251 643.424 6.88446 642.974 6.40643C642.534 5.9234 641.923 5.68238 641.143 5.68238C640.613 5.68238 640.133 5.79838 639.713 6.0304C639.293 6.26241 638.963 6.60043 638.723 7.04546C638.483 7.49049 638.363 8.03054 638.363 8.66558ZM649.074 19.3193C648.794 19.3193 648.534 19.2953 648.314 19.2483C648.094 19.2053 647.934 19.1633 647.854 19.1203L648.274 17.6432C648.684 17.7472 649.044 17.7852 649.354 17.7562C649.674 17.7282 649.944 17.5882 650.184 17.3372C650.434 17.0911 650.664 16.6911 650.864 16.1371L651.174 15.285L647.144 4.31829H648.964L651.974 13.0119H652.084L655.094 4.31829H656.914L652.284 16.8191C652.074 17.3822 651.814 17.8492 651.514 18.2182C651.204 18.5922 650.844 18.8693 650.434 19.0493C650.034 19.2293 649.584 19.3193 649.074 19.3193ZM666.425 8.66558V15.228H664.755V0.682052H666.425V6.0224H666.575C666.825 5.45936 667.215 5.01234 667.725 4.68032C668.235 4.3443 668.925 4.17629 669.785 4.17629C670.525 4.17629 671.175 4.32529 671.735 4.62331C672.295 4.91733 672.725 5.36937 673.035 5.98041C673.345 6.58645 673.505 7.35849 673.505 8.29555V15.228H671.825V8.40957C671.825 7.54251 671.605 6.87246 671.155 6.39943C670.705 5.92139 670.085 5.68238 669.295 5.68238C668.745 5.68238 668.255 5.79838 667.825 6.0304C667.395 6.26241 667.045 6.60043 666.795 7.04546C666.555 7.49049 666.425 8.03054 666.425 8.66558ZM681.146 15.455C680.096 15.455 679.186 15.223 678.426 14.759C677.666 14.29 677.086 13.6369 676.666 12.7989C676.266 11.9558 676.056 10.9757 676.056 9.85865C676.056 8.74058 676.266 7.75551 676.666 6.90346C677.086 6.0464 677.656 5.37937 678.386 4.90033C679.126 4.4173 679.986 4.17629 680.976 4.17629C681.546 4.17629 682.106 4.27129 682.656 4.4603C683.216 4.64931 683.716 4.95734 684.166 5.38337C684.626 5.80539 684.986 6.36343 685.256 7.05947C685.526 7.75552 685.666 8.61257 685.666 9.63064V10.3417H677.256V8.89259H683.956C683.956 8.27655 683.836 7.72751 683.586 7.24448C683.346 6.76145 682.996 6.38042 682.546 6.1014C682.106 5.82138 681.576 5.68238 680.976 5.68238C680.306 5.68238 679.726 5.84739 679.246 6.17941C678.756 6.50543 678.386 6.93246 678.126 7.45749C677.866 7.98353 677.736 8.54657 677.736 9.14761V10.1137C677.736 10.9377 677.876 11.6368 678.166 12.2098C678.446 12.7778 678.846 13.2109 679.366 13.5089C679.876 13.8029 680.466 13.9499 681.146 13.9499C681.586 13.9499 681.986 13.8879 682.336 13.7649C682.696 13.6369 683.006 13.4479 683.266 13.1969C683.526 12.9409 683.726 12.6238 683.876 12.2448L685.496 12.6998C685.316 13.2489 685.036 13.7319 684.636 14.148C684.226 14.56 683.736 14.882 683.136 15.114C682.546 15.342 681.886 15.455 681.146 15.455ZM689.887 0.682052V15.228H688.217V0.682052H689.887ZM692.957 19.3193V4.31829H694.577V6.05141H694.777C694.897 5.8614 695.067 5.62038 695.287 5.32636C695.507 5.02834 695.827 4.76332 696.237 4.53131C696.657 4.29429 697.217 4.17629 697.927 4.17629C698.847 4.17629 699.657 4.4063 700.357 4.86533C701.057 5.32436 701.607 5.9754 701.997 6.81846C702.397 7.66152 702.587 8.65558 702.587 9.80166C702.587 10.9567 702.397 11.9588 701.997 12.8059C701.607 13.6489 701.057 14.3019 700.367 14.766C699.667 15.226 698.867 15.455 697.957 15.455C697.257 15.455 696.697 15.339 696.277 15.107C695.857 14.871 695.527 14.603 695.307 14.3049C695.077 14.0019 694.897 13.7509 694.777 13.5519H694.637V19.3193H692.957ZM694.607 9.77265C694.607 10.5967 694.727 11.3238 694.967 11.9538C695.207 12.5789 695.567 13.0689 696.027 13.4239C696.487 13.7739 697.057 13.9499 697.727 13.9499C698.427 13.9499 699.017 13.7649 699.487 13.3959C699.957 13.0219 700.317 12.5198 700.547 11.8898C700.797 11.2547 700.917 10.5497 700.917 9.77265C700.917 9.0056 700.797 8.31455 700.557 7.69951C700.327 7.07847 699.977 6.58845 699.497 6.22842C699.027 5.8644 698.437 5.68238 697.727 5.68238C697.047 5.68238 696.477 5.8544 696.017 6.20042C695.547 6.54144 695.197 7.01947 694.957 7.63551C694.727 8.24555 694.607 8.9586 694.607 9.77265ZM711.848 19.3193C711.568 19.3193 711.318 19.2953 711.088 19.2483C710.868 19.2053 710.718 19.1633 710.628 19.1203L711.058 17.6432C711.468 17.7472 711.818 17.7852 712.138 17.7562C712.448 17.7282 712.728 17.5882 712.968 17.3372C713.208 17.0911 713.438 16.6911 713.638 16.1371L713.958 15.285L709.918 4.31829H711.738L714.748 13.0119H714.858L717.878 4.31829H719.689L715.058 16.8191C714.858 17.3822 714.598 17.8492 714.288 18.2182C713.978 18.5922 713.618 18.8693 713.218 19.0493C712.808 19.2293 712.358 19.3193 711.848 19.3193ZM725.949 15.455C724.959 15.455 724.099 15.221 723.359 14.752C722.619 14.2829 722.039 13.6279 721.619 12.7849C721.209 11.9418 720.999 10.9567 720.999 9.82966C720.999 8.69359 721.209 7.70152 721.619 6.85347C722.039 6.00641 722.619 5.34835 723.359 4.87932C724.099 4.41029 724.959 4.17629 725.949 4.17629C726.929 4.17629 727.789 4.41029 728.529 4.87932C729.279 5.34835 729.849 6.00641 730.269 6.85347C730.679 7.70152 730.889 8.69359 730.889 9.82966C730.889 10.9567 730.679 11.9418 730.269 12.7849C729.849 13.6279 729.279 14.2829 728.529 14.752C727.789 15.221 726.929 15.455 725.949 15.455ZM725.949 13.9499C726.699 13.9499 727.309 13.7579 727.789 13.3739C728.279 12.9909 728.629 12.4868 728.869 11.8618C729.099 11.2368 729.209 10.5587 729.209 9.82966C729.209 9.10061 729.099 8.42156 728.869 7.79152C728.629 7.16147 728.279 6.65245 727.789 6.26442C727.309 5.8764 726.699 5.68238 725.949 5.68238C725.199 5.68238 724.579 5.8764 724.099 6.26442C723.619 6.65245 723.259 7.16147 723.029 7.79152C722.799 8.42156 722.679 9.10061 722.679 9.82966C722.679 10.5587 722.799 11.2368 723.029 11.8618C723.259 12.4868 723.619 12.9909 724.099 13.3739C724.579 13.7579 725.199 13.9499 725.949 13.9499ZM740.32 10.7677V4.31829H742V15.228H740.32V13.3809H740.21C739.96 13.9349 739.56 14.4069 739.02 14.795C738.48 15.178 737.8 15.37 736.97 15.37C736.29 15.37 735.68 15.221 735.15 14.923C734.62 14.62 734.21 14.1649 733.899 13.5589C733.599 12.9479 733.45 12.1788 733.45 11.2508V4.31829H735.13V11.1367C735.13 11.9328 735.35 12.5668 735.79 13.0399C736.24 13.5139 736.82 13.7509 737.51 13.7509C737.93 13.7509 738.35 13.6439 738.78 13.4309C739.22 13.2179 739.58 12.8908 739.88 12.4508C740.18 12.0108 740.32 11.4498 740.32 10.7677ZM314.525 45.23V34.3203H316.144V36.0244H316.286C316.514 35.4424 316.881 34.9903 317.387 34.6683C317.894 34.3413 318.502 34.1783 319.213 34.1783C319.932 34.1783 320.531 34.3413 321.009 34.6683C321.492 34.9903 321.869 35.4424 322.139 36.0244H322.252C322.532 35.4614 322.951 35.0143 323.509 34.6823C324.068 34.3463 324.738 34.1783 325.52 34.1783C326.496 34.1783 327.294 34.4833 327.914 35.0943C328.534 35.7004 328.844 36.6454 328.844 37.9285V45.23H327.168V37.9285C327.168 37.1235 326.948 36.5484 326.508 36.2024C326.067 35.8564 325.549 35.6844 324.951 35.6844C324.184 35.6844 323.59 35.9164 323.169 36.3804C322.747 36.8394 322.536 37.4215 322.536 38.1275V45.23H320.832V37.7575C320.832 37.1375 320.631 36.6384 320.228 36.2594C319.826 35.8754 319.307 35.6844 318.673 35.6844C318.237 35.6844 317.83 35.8004 317.451 36.0324C317.077 36.2644 316.774 36.5864 316.542 36.9975C316.315 37.4055 316.201 37.8765 316.201 38.4116V45.23H314.525ZM335.119 45.486C334.428 45.486 333.8 45.355 333.237 45.095C332.674 44.83 332.226 44.4489 331.895 43.9519C331.563 43.4499 331.398 42.8439 331.398 42.1328C331.398 41.5078 331.521 41.0017 331.767 40.6137C332.013 40.2207 332.342 39.9126 332.754 39.6896C333.166 39.4676 333.621 39.3016 334.118 39.1926C334.62 39.0786 335.124 38.9886 335.63 38.9226C336.293 38.8376 336.831 38.7736 337.243 38.7306C337.659 38.6836 337.962 38.6056 338.152 38.4965C338.346 38.3875 338.443 38.1985 338.443 37.9285V37.8715C338.443 37.1705 338.251 36.6264 337.868 36.2384C337.489 35.8494 336.914 35.6554 336.142 35.6554C335.342 35.6554 334.714 35.8304 334.26 36.1814C333.805 36.5314 333.486 36.9055 333.301 37.3035L331.71 36.7354C331.994 36.0724 332.373 35.5564 332.846 35.1863C333.325 34.8123 333.845 34.5523 334.409 34.4053C334.977 34.2543 335.536 34.1783 336.085 34.1783C336.435 34.1783 336.838 34.2203 337.292 34.3063C337.752 34.3863 338.194 34.5543 338.621 34.8103C339.051 35.0663 339.409 35.4524 339.693 35.9684C339.977 36.4844 340.119 37.1755 340.119 38.0415V45.23H338.443V43.7529H338.358C338.244 43.9889 338.055 44.2429 337.79 44.5129C337.524 44.783 337.172 45.012 336.731 45.202C336.291 45.391 335.754 45.486 335.119 45.486ZM335.375 43.9799C336.038 43.9799 336.596 43.8499 337.051 43.5889C337.51 43.3289 337.856 42.9929 338.088 42.5808C338.325 42.1688 338.443 41.7358 338.443 41.2807V39.7466C338.372 39.8316 338.216 39.9097 337.974 39.9807C337.737 40.0477 337.463 40.1066 337.15 40.1586C336.843 40.2057 336.542 40.2487 336.248 40.2867C335.96 40.3197 335.725 40.3477 335.545 40.3717C335.11 40.4287 334.702 40.5207 334.324 40.6487C333.95 40.7717 333.647 40.9587 333.415 41.2097C333.187 41.4558 333.074 41.7918 333.074 42.2188C333.074 42.8009 333.289 43.2409 333.72 43.5399C334.156 43.8329 334.707 43.9799 335.375 43.9799ZM343.868 49.3213C343.584 49.3213 343.331 49.2973 343.108 49.2503C342.886 49.2072 342.732 49.1653 342.647 49.1223L343.073 47.6452C343.48 47.7492 343.84 47.7872 344.152 47.7582C344.465 47.7302 344.742 47.5902 344.983 47.3391C345.23 47.0931 345.455 46.6931 345.658 46.1391L345.971 45.287L341.937 34.3203H343.755L346.766 43.0138H346.88L349.891 34.3203H351.709L347.079 46.8211C346.87 47.3841 346.612 47.8512 346.304 48.2202C345.997 48.5942 345.639 48.8713 345.232 49.0513C344.83 49.2313 344.375 49.3213 343.868 49.3213ZM359.548 45.23V34.3203H361.167V35.9684H361.281C361.479 35.4284 361.839 34.9903 362.36 34.6543C362.881 34.3183 363.468 34.1493 364.121 34.1493C364.245 34.1493 364.398 34.1523 364.583 34.1573C364.768 34.1613 364.907 34.1683 365.002 34.1783V35.8824C364.945 35.8684 364.815 35.8474 364.612 35.8184C364.413 35.7854 364.202 35.7694 363.979 35.7694C363.449 35.7694 362.976 35.8804 362.559 36.1034C362.147 36.3204 361.82 36.6234 361.579 37.0124C361.342 37.3955 361.224 37.8335 361.224 38.3265V45.23H359.548ZM371.232 45.457C370.18 45.457 369.273 45.225 368.511 44.761C367.753 44.2919 367.168 43.6389 366.756 42.8009C366.349 41.9578 366.146 40.9777 366.146 39.8607C366.146 38.7426 366.349 37.7575 366.756 36.9054C367.168 36.0484 367.741 35.3813 368.475 34.9023C369.214 34.4193 370.076 34.1783 371.061 34.1783C371.63 34.1783 372.191 34.2733 372.745 34.4623C373.299 34.6513 373.803 34.9593 374.257 35.3854C374.712 35.8074 375.074 36.3654 375.344 37.0615C375.614 37.7575 375.749 38.6146 375.749 39.6326V40.3437H367.339V38.8946H374.044C374.044 38.2785 373.921 37.7295 373.675 37.2465C373.434 36.7634 373.088 36.3824 372.638 36.1034C372.193 35.8234 371.667 35.6844 371.061 35.6844C370.394 35.6844 369.815 35.8494 369.327 36.1814C368.844 36.5074 368.473 36.9345 368.212 37.4595C367.952 37.9855 367.822 38.5486 367.822 39.1496V40.1156C367.822 40.9397 367.964 41.6388 368.248 42.2118C368.537 42.7798 368.937 43.2129 369.448 43.5109C369.96 43.8049 370.554 43.9519 371.232 43.9519C371.672 43.9519 372.07 43.8899 372.425 43.7669C372.785 43.6389 373.095 43.4499 373.355 43.1989C373.616 42.9428 373.817 42.6258 373.959 42.2468L375.578 42.7018C375.408 43.2509 375.122 43.7339 374.719 44.1499C374.317 44.562 373.819 44.884 373.228 45.116C372.636 45.344 371.97 45.457 371.232 45.457ZM385.742 49.3213V43.5539H385.601C385.478 43.7529 385.301 44.0039 385.074 44.3069C384.847 44.605 384.523 44.873 384.101 45.109C383.68 45.341 383.119 45.457 382.418 45.457C381.509 45.457 380.706 45.228 380.01 44.768C379.314 44.3039 378.77 43.6509 378.377 42.8078C377.984 41.9608 377.787 40.9587 377.787 39.8036C377.787 38.6576 377.984 37.6635 378.377 36.8204C378.77 35.9774 379.317 35.3263 380.017 34.8673C380.718 34.4083 381.528 34.1783 382.446 34.1783C383.157 34.1783 383.718 34.2963 384.13 34.5333C384.546 34.7653 384.863 35.0303 385.081 35.3283C385.304 35.6224 385.478 35.8634 385.601 36.0534H385.8V34.3203H387.419V49.3213H385.742ZM382.645 43.9519C383.318 43.9519 383.886 43.7759 384.35 43.4259C384.814 43.0709 385.167 42.5808 385.408 41.9558C385.649 41.3258 385.771 40.5987 385.771 39.7746C385.771 38.9606 385.653 38.2475 385.416 37.6375C385.178 37.0214 384.828 36.5434 384.364 36.2024C383.9 35.8564 383.327 35.6844 382.645 35.6844C381.935 35.6844 381.343 35.8664 380.87 36.2304C380.401 36.5904 380.048 37.0804 379.811 37.7015C379.579 38.3165 379.463 39.0076 379.463 39.7746C379.463 40.5517 379.582 41.2567 379.818 41.8918C380.06 42.5218 380.415 43.0238 380.884 43.3979C381.357 43.7669 381.944 43.9519 382.645 43.9519ZM397.362 40.7697V34.3203H399.038V45.23H397.362V43.3829H397.248C396.993 43.9369 396.595 44.4089 396.055 44.797C395.516 45.18 394.834 45.372 394.01 45.372C393.328 45.372 392.722 45.223 392.192 44.925C391.661 44.622 391.245 44.1669 390.942 43.5609C390.639 42.9498 390.487 42.1808 390.487 41.2527V34.3203H392.163V41.1387C392.163 41.9348 392.386 42.5688 392.831 43.0419C393.281 43.5159 393.854 43.7529 394.55 43.7529C394.966 43.7529 395.39 43.6459 395.821 43.4329C396.257 43.2199 396.621 42.8928 396.915 42.4528C397.213 42.0128 397.362 41.4518 397.362 40.7697ZM402.109 45.23V34.3203H403.785V45.23H402.109ZM402.961 32.5022C402.635 32.5022 402.353 32.3901 402.116 32.1681C401.884 31.9451 401.768 31.6781 401.768 31.3651C401.768 31.053 401.884 30.7851 402.116 30.563C402.353 30.34 402.635 30.229 402.961 30.229C403.288 30.229 403.568 30.34 403.8 30.563C404.036 30.7851 404.155 31.053 404.155 31.3651C404.155 31.6781 404.036 31.9451 403.8 32.1681C403.568 32.3901 403.288 32.5022 402.961 32.5022ZM406.855 45.23V34.3203H408.475V35.9684H408.588C408.787 35.4284 409.147 34.9903 409.668 34.6543C410.189 34.3183 410.776 34.1493 411.429 34.1493C411.552 34.1493 411.706 34.1523 411.891 34.1573C412.075 34.1613 412.215 34.1683 412.31 34.1783V35.8824C412.253 35.8684 412.123 35.8474 411.919 35.8184C411.72 35.7854 411.51 35.7694 411.287 35.7694C410.757 35.7694 410.283 35.8804 409.867 36.1034C409.455 36.3204 409.128 36.6234 408.887 37.0124C408.65 37.3955 408.531 37.8335 408.531 38.3265V45.23H406.855ZM418.54 45.457C417.488 45.457 416.582 45.225 415.819 44.761C415.061 44.2919 414.476 43.6389 414.064 42.8009C413.657 41.9578 413.453 40.9777 413.453 39.8607C413.453 38.7426 413.657 37.7575 414.064 36.9054C414.476 36.0484 415.049 35.3813 415.783 34.9023C416.522 34.4193 417.384 34.1783 418.369 34.1783C418.937 34.1783 419.498 34.2733 420.052 34.4623C420.606 34.6513 421.111 34.9593 421.565 35.3854C422.02 35.8074 422.382 36.3654 422.652 37.0615C422.922 37.7575 423.057 38.6146 423.057 39.6326V40.3437H414.646V38.8946H421.352C421.352 38.2785 421.229 37.7295 420.983 37.2465C420.741 36.7634 420.396 36.3824 419.946 36.1034C419.501 35.8234 418.975 35.6844 418.369 35.6844C417.701 35.6844 417.124 35.8494 416.636 36.1814C416.152 36.5074 415.78 36.9345 415.52 37.4595C415.26 37.9855 415.129 38.5486 415.129 39.1496V40.1156C415.129 40.9397 415.271 41.6388 415.556 42.2118C415.844 42.7798 416.245 43.2129 416.757 43.5109C417.268 43.8049 417.862 43.9519 418.54 43.9519C418.98 43.9519 419.378 43.8899 419.733 43.7669C420.093 43.6389 420.403 43.4499 420.663 43.1989C420.924 42.9428 421.125 42.6258 421.267 42.2468L422.886 42.7018C422.716 43.2509 422.429 43.7339 422.027 44.1499C421.624 44.562 421.127 44.884 420.535 45.116C419.943 45.344 419.278 45.457 418.54 45.457ZM426.828 45.344C426.478 45.344 426.177 45.218 425.926 44.967C425.675 44.716 425.549 44.4159 425.549 44.0649C425.549 43.7149 425.675 43.4139 425.926 43.1629C426.177 42.9119 426.478 42.7868 426.828 42.7868C427.178 42.7868 427.479 42.9119 427.73 43.1629C427.981 43.4139 428.106 43.7149 428.106 44.0649C428.106 44.2969 428.047 44.5099 427.929 44.704C427.815 44.899 427.661 45.055 427.467 45.173C427.278 45.287 427.065 45.344 426.828 45.344Z" fill="#475467"/>
</svg>
