<svg width="174" height="56" viewBox="0 0 174 56" fill="none" xmlns="http://www.w3.org/2000/svg">
<g filter="url(#filter0_d_2_11253)">
<path d="M162 0H12C5.37258 0 0 5.37258 0 12V44C0 50.6274 5.37258 56 12 56H162C168.627 56 174 50.6274 174 44V12C174 5.37258 168.627 0 162 0Z" fill="white"/>
<path d="M162 0.5H12C5.64873 0.5 0.5 5.64873 0.5 12V44C0.5 50.3513 5.64873 55.5 12 55.5H162C168.351 55.5 173.5 50.3513 173.5 44V12C173.5 5.64873 168.351 0.5 162 0.5Z" stroke="#EAECF0"/>
<path d="M43.5909 34H39.6479V22.364H43.6699C44.8259 22.364 45.8179 22.597 46.6479 23.062C47.4809 23.525 48.1209 24.189 48.5679 25.057C49.0149 25.924 49.239 26.962 49.239 28.17C49.239 29.383 49.013 30.424 48.562 31.295C48.116 32.167 47.4699 32.835 46.6249 33.301C45.7839 33.767 44.7729 34 43.5909 34ZM41.7559 32.176H43.489C44.299 32.176 44.975 32.028 45.517 31.733C46.059 31.434 46.466 30.989 46.739 30.398C47.011 29.803 47.1479 29.061 47.1479 28.17C47.1479 27.28 47.011 26.542 46.739 25.955C46.466 25.364 46.063 24.922 45.528 24.631C44.998 24.335 44.339 24.188 43.551 24.188H41.7559V32.176ZM61.2 26.29H59.08C59.02 25.941 58.8999 25.633 58.7399 25.364C58.5799 25.091 58.3799 24.86 58.1299 24.67C57.8899 24.481 57.6099 24.339 57.2999 24.244C56.9999 24.146 56.6699 24.097 56.3099 24.097C55.6799 24.097 55.1199 24.256 54.6279 24.574C54.1389 24.888 53.7569 25.35 53.4799 25.96C53.2039 26.566 53.0649 27.307 53.0649 28.182C53.0649 29.072 53.2039 29.822 53.4799 30.432C53.7599 31.038 54.1429 31.496 54.6279 31.807C55.1199 32.114 55.6799 32.267 56.2999 32.267C56.6499 32.267 56.98 32.222 57.28 32.131C57.59 32.036 57.8599 31.898 58.1099 31.716C58.3499 31.534 58.5599 31.311 58.7199 31.045C58.8899 30.78 59.01 30.477 59.08 30.136L61.2 30.148C61.12 30.701 60.9499 31.22 60.6799 31.705C60.4199 32.189 60.0799 32.617 59.6599 32.989C59.2299 33.356 58.7399 33.644 58.1699 33.852C57.5999 34.057 56.97 34.159 56.28 34.159C55.25 34.159 54.3399 33.922 53.5369 33.449C52.7339 32.975 52.1009 32.292 51.6389 31.398C51.1769 30.504 50.9459 29.432 50.9459 28.182C50.9459 26.928 51.179 25.856 51.645 24.966C52.111 24.072 52.7449 23.388 53.5479 22.915C54.3509 22.441 55.26 22.205 56.28 22.205C56.92 22.205 57.53 22.295 58.08 22.477C58.64 22.659 59.1399 22.926 59.5699 23.278C60.0099 23.627 60.36 24.055 60.64 24.562C60.93 25.066 61.11 25.642 61.2 26.29ZM65.2399 22.364V34H63.1299V22.364H65.2399ZM67.0099 24.131V22.364H76.2999V24.131H72.7V34H70.6099V24.131H67.0099ZM81.9399 34V32.477L85.9799 28.517C86.3699 28.127 86.6899 27.78 86.9499 27.477C87.1999 27.174 87.4 26.881 87.53 26.597C87.65 26.312 87.7199 26.009 87.7199 25.688C87.7199 25.32 87.6399 25.006 87.4699 24.744C87.2999 24.479 87.07 24.275 86.78 24.131C86.49 23.987 86.16 23.915 85.79 23.915C85.4 23.915 85.07 23.994 84.78 24.153C84.49 24.309 84.2699 24.53 84.1099 24.818C83.9599 25.106 83.8799 25.449 83.8799 25.847H81.8699C81.8699 25.108 82.0399 24.466 82.3799 23.92C82.7099 23.375 83.18 22.953 83.77 22.653C84.36 22.354 85.0499 22.205 85.8199 22.205C86.5999 22.205 87.2799 22.35 87.8699 22.642C88.4599 22.934 88.9199 23.333 89.2499 23.841C89.5799 24.348 89.7399 24.928 89.7399 25.58C89.7399 26.015 89.6599 26.443 89.4899 26.864C89.3199 27.284 89.0299 27.75 88.6099 28.261C88.1899 28.773 87.6099 29.392 86.8599 30.119L84.8499 32.159V32.239H89.92V34H81.9399ZM96.18 34.222C95.24 34.222 94.44 33.985 93.77 33.511C93.1 33.034 92.5899 32.347 92.2299 31.449C91.8699 30.547 91.6999 29.462 91.6999 28.193C91.6999 26.924 91.8799 25.845 92.2399 24.955C92.5999 24.061 93.11 23.379 93.78 22.909C94.45 22.439 95.25 22.205 96.18 22.205C97.11 22.205 97.9099 22.439 98.5799 22.909C99.2499 23.379 99.7699 24.061 100.12 24.955C100.48 25.848 100.66 26.928 100.66 28.193C100.66 29.466 100.48 30.553 100.12 31.455C99.7699 32.352 99.2499 33.038 98.5799 33.511C97.9199 33.985 97.11 34.222 96.18 34.222ZM96.18 32.443C96.91 32.443 97.48 32.085 97.9 31.369C98.32 30.65 98.54 29.591 98.54 28.193C98.54 27.269 98.4399 26.492 98.2499 25.864C98.0499 25.235 97.78 24.761 97.43 24.443C97.08 24.121 96.66 23.96 96.18 23.96C95.46 23.96 94.8799 24.32 94.4599 25.04C94.0399 25.756 93.8299 26.807 93.8299 28.193C93.8199 29.121 93.9199 29.902 94.1099 30.534C94.2999 31.167 94.57 31.644 94.92 31.966C95.28 32.284 95.69 32.443 96.18 32.443ZM106.81 34.159C106.25 34.155 105.71 34.059 105.18 33.869C104.65 33.676 104.17 33.364 103.75 32.932C103.32 32.496 102.99 31.919 102.74 31.199C102.49 30.475 102.36 29.58 102.37 28.511C102.37 27.515 102.47 26.627 102.69 25.847C102.9 25.066 103.2 24.407 103.6 23.869C104 23.328 104.48 22.915 105.04 22.631C105.6 22.347 106.23 22.205 106.93 22.205C107.66 22.205 108.31 22.348 108.87 22.636C109.44 22.924 109.9 23.318 110.25 23.818C110.6 24.314 110.81 24.875 110.9 25.5H108.82C108.72 25.053 108.5 24.697 108.17 24.432C107.84 24.163 107.43 24.028 106.93 24.028C106.12 24.028 105.5 24.379 105.07 25.08C104.63 25.78 104.42 26.742 104.41 27.966H104.49C104.68 27.633 104.92 27.347 105.21 27.108C105.51 26.869 105.84 26.686 106.21 26.557C106.59 26.424 106.99 26.358 107.4 26.358C108.08 26.358 108.7 26.521 109.24 26.847C109.78 27.172 110.21 27.621 110.53 28.193C110.85 28.761 111.01 29.413 111 30.148C111.01 30.913 110.83 31.6 110.48 32.21C110.13 32.816 109.64 33.294 109.01 33.642C108.38 33.991 107.65 34.163 106.81 34.159ZM106.8 32.455C107.21 32.455 107.58 32.354 107.91 32.153C108.23 31.953 108.49 31.682 108.68 31.341C108.87 31 108.96 30.617 108.96 30.193C108.96 29.777 108.87 29.4 108.69 29.062C108.5 28.725 108.25 28.458 107.93 28.261C107.61 28.064 107.24 27.966 106.83 27.966C106.52 27.966 106.24 28.025 105.97 28.142C105.71 28.259 105.47 28.422 105.28 28.631C105.08 28.835 104.92 29.074 104.81 29.347C104.7 29.616 104.64 29.903 104.64 30.21C104.64 30.616 104.74 30.989 104.92 31.33C105.11 31.67 105.37 31.943 105.69 32.148C106.02 32.352 106.39 32.455 106.8 32.455Z" fill="#101828"/>
</g>
<defs>
<filter id="filter0_d_2_11253" x="-2" y="-1" width="178" height="60" filterUnits="userSpaceOnUse" color-interpolation-filters="sRGB">
<feFlood flood-opacity="0" result="BackgroundImageFix"/>
<feColorMatrix in="SourceAlpha" type="matrix" values="0 0 0 0 0 0 0 0 0 0 0 0 0 0 0 0 0 0 127 0" result="hardAlpha"/>
<feOffset dy="1"/>
<feGaussianBlur stdDeviation="1"/>
<feColorMatrix type="matrix" values="0 0 0 0 0.0627451 0 0 0 0 0.0941176 0 0 0 0 0.156863 0 0 0 0.05 0"/>
<feBlend mode="normal" in2="BackgroundImageFix" result="effect1_dropShadow_2_11253"/>
<feBlend mode="normal" in="SourceGraphic" in2="effect1_dropShadow_2_11253" result="shape"/>
</filter>
</defs>
</svg>
