<svg width="160" height="14" viewBox="0 0 160 14" fill="none" xmlns="http://www.w3.org/2000/svg">
<path d="M4.43886 13.7328H0V0.633403H4.52891C5.82975 0.633403 6.94646 0.895582 7.88006 1.41992C8.81866 1.94025 9.53914 2.68872 10.0425 3.66535C10.5458 4.64198 10.7969 5.80972 10.7969 7.17059C10.7969 8.53447 10.5438 9.70724 10.0364 10.6879C9.53312 11.6685 8.80566 12.422 7.85505 12.9463C6.90844 13.4706 5.76971 13.7328 4.43886 13.7328ZM2.37353 11.6795H4.32379C5.23638 11.6795 5.99785 11.5134 6.60724 11.1812C7.21763 10.844 7.67593 10.3426 7.98313 9.67721C8.29032 9.00778 8.44344 8.17224 8.44344 7.17059C8.44344 6.16795 8.29032 5.33643 7.98313 4.67601C7.67593 4.01058 7.22164 3.51425 6.62025 3.18604C6.02387 2.85282 5.28139 2.68672 4.39482 2.68672H2.37353V11.6795ZM13.0514 13.7328V0.633403H17.9635C18.9702 0.633403 19.8147 0.808532 20.4972 1.15776C21.1836 1.50798 21.702 1.9983 22.0512 2.6287C22.4054 3.25611 22.5825 3.98757 22.5825 4.82311C22.5825 5.66264 22.4034 6.39212 22.0452 7.01052C21.6909 7.62491 21.1686 8.1002 20.4782 8.43642C19.7867 8.76963 18.9382 8.93573 17.9325 8.93573H14.4333V6.96547H17.6123C18.2007 6.96547 18.683 6.88441 19.0583 6.72231C19.4335 6.5562 19.7107 6.31506 19.8888 5.99986C20.0729 5.67965 20.164 5.2874 20.164 4.82311C20.164 4.35781 20.0729 3.96156 19.8888 3.63335C19.7057 3.30113 19.4265 3.04897 19.0512 2.87886C18.676 2.70375 18.1917 2.61667 17.5993 2.61667H15.4249V13.7328H13.0514ZM19.8187 7.797L23.0618 13.7328H20.4141L17.2281 7.797H19.8187ZM26.0908 13.8739C25.7025 13.8739 25.3693 13.7368 25.0921 13.4646C24.815 13.1915 24.6789 12.8583 24.6829 12.466C24.6789 12.0828 24.815 11.7545 25.0921 11.4814C25.3693 11.2082 25.7025 11.0721 26.0908 11.0721C26.466 11.0721 26.7922 11.2082 27.0694 11.4814C27.3506 11.7545 27.4937 12.0828 27.4977 12.466C27.4937 12.7262 27.4246 12.9633 27.2926 13.1765C27.1645 13.3896 26.9943 13.5597 26.7812 13.6878C26.5721 13.8119 26.3419 13.8739 26.0908 13.8739ZM34.0539 0.633403H36.9578L40.8462 10.1255H40.9994L44.8889 0.633403H47.7927V13.7328H45.5153V4.73305H45.3942L41.7738 13.6948H40.0727L36.4524 4.71403H36.3303V13.7328H34.0539V0.633403ZM53.1011 13.9309C52.4787 13.9309 51.9184 13.8199 51.419 13.5987C50.9247 13.3726 50.5325 13.0404 50.2423 12.6011C49.9561 12.1618 49.814 11.6195 49.814 10.976C49.814 10.4217 49.9161 9.9634 50.1202 9.60117C50.3253 9.23894 50.6045 8.94876 50.9587 8.73061C51.313 8.51348 51.7112 8.34937 52.1545 8.23829C52.6028 8.12322 53.0651 8.04017 53.5424 7.98914C54.1188 7.9291 54.5851 7.87606 54.9433 7.82903C55.3015 7.778 55.5617 7.70094 55.7238 7.59888C55.8899 7.49181 55.973 7.3277 55.973 7.10655V7.06753C55.973 6.58622 55.8299 6.213 55.5447 5.94883C55.2585 5.68466 54.8473 5.55258 54.3099 5.55258C53.7435 5.55258 53.2932 5.67565 52.961 5.92281C52.6318 6.16997 52.4107 6.46216 52.2956 6.79938L50.1332 6.49218C50.3043 5.89579 50.5855 5.39647 50.9778 4.99521C51.37 4.59095 51.8493 4.28775 52.4167 4.08762C52.984 3.88249 53.6105 3.78041 54.2969 3.78041C54.7702 3.78041 55.2415 3.83546 55.7108 3.94654C56.1801 4.05761 56.6084 4.24071 56.9966 4.49688C57.3849 4.74804 57.6961 5.09128 57.9302 5.52656C58.1694 5.96184 58.2885 6.50516 58.2885 7.15758V13.7328H56.063V12.383H55.986C55.8449 12.6561 55.6468 12.9123 55.3916 13.1504C55.1394 13.3856 54.8222 13.5747 54.438 13.7198C54.0587 13.8609 53.6135 13.9309 53.1011 13.9309ZM53.7025 12.2298C54.1678 12.2298 54.5701 12.1378 54.9113 11.9547C55.2525 11.7676 55.5147 11.5194 55.6978 11.2132C55.8859 10.906 55.98 10.5708 55.98 10.2086V9.05083C55.9069 9.11087 55.7838 9.16589 55.6087 9.21692C55.4376 9.26795 55.2465 9.31298 55.0334 9.35101C54.8202 9.39003 54.6091 9.42405 54.4 9.45407C54.1908 9.48409 54.0097 9.5091 53.8556 9.53011C53.5104 9.57714 53.2012 9.65421 52.929 9.76128C52.6558 9.86734 52.4407 10.0164 52.2826 10.2086C52.1245 10.3957 52.0455 10.6388 52.0455 10.938C52.0455 11.3643 52.2015 11.6865 52.5127 11.9036C52.8239 12.1208 53.2202 12.2298 53.7025 12.2298ZM65.5231 3.90852V5.69965H59.8745V3.90852H65.5231ZM61.2694 1.55498H63.5849V10.7779C63.5849 11.0891 63.6319 11.3283 63.725 11.4944C63.823 11.6565 63.9511 11.7676 64.1092 11.8266C64.2673 11.8866 64.4414 11.9167 64.6335 11.9167C64.7786 11.9167 64.9107 11.9057 65.0298 11.8846C65.1539 11.8626 65.2479 11.8436 65.312 11.8266L65.7022 13.6368C65.5781 13.6798 65.401 13.7268 65.1709 13.7779C64.9447 13.8289 64.6675 13.8589 64.3393 13.8669C63.759 13.8839 63.2366 13.7969 62.7723 13.6047C62.307 13.4086 61.9388 13.1064 61.6656 12.6961C61.3974 12.2869 61.2654 11.7756 61.2694 11.1612V1.55498ZM67.4594 13.7328V3.90852H69.7748V13.7328H67.4594ZM68.6231 2.51361C68.2569 2.51361 67.9406 2.39255 67.6765 2.14939C67.4123 1.90223 67.2802 1.60604 67.2802 1.26082C67.2802 0.910595 67.4123 0.614397 67.6765 0.371241C67.9406 0.124082 68.2569 0 68.6231 0C68.9943 0 69.3095 0.124082 69.5697 0.371241C69.8339 0.614397 69.966 0.910595 69.966 1.26082C69.966 1.60604 69.8339 1.90223 69.5697 2.14939C69.3095 2.39255 68.9943 2.51361 68.6231 2.51361ZM74.4708 0.633403V13.7328H72.1554V0.633403H74.4708ZM80.4977 13.9059C79.7262 13.9059 79.0348 13.7068 78.4254 13.3106C77.816 12.9143 77.3337 12.3389 76.9795 11.5834C76.6263 10.8289 76.4491 9.91237 76.4491 8.83368C76.4491 7.74198 76.6282 6.82039 76.9865 6.06991C77.3487 5.31542 77.837 4.74603 78.4504 4.36279C79.0648 3.97454 79.7492 3.78041 80.5037 3.78041C81.0801 3.78041 81.5534 3.87848 81.9236 4.07461C82.2949 4.26673 82.5891 4.4989 82.8062 4.77208C83.0244 5.04025 83.1924 5.29439 83.3115 5.53255H83.4076V0.633403H85.7301V13.7328H83.4526V12.1848H83.3115C83.1924 12.424 83.0193 12.6771 82.7942 12.9463C82.568 13.2105 82.2689 13.4366 81.8986 13.6237C81.5274 13.8119 81.0601 13.9059 80.4977 13.9059ZM81.1431 12.0057C81.6344 12.0057 82.0517 11.8736 82.397 11.6094C82.7432 11.3403 83.0053 10.968 83.1844 10.4897C83.3636 10.0124 83.4526 9.45608 83.4526 8.82067C83.4526 8.18526 83.3636 7.6329 83.1844 7.1636C83.0093 6.6953 82.7492 6.33008 82.4039 6.06991C82.0627 5.80974 81.6425 5.67964 81.1431 5.67964C80.6278 5.67964 80.1965 5.81475 79.8513 6.08292C79.5061 6.35209 79.2459 6.72233 79.0708 7.19563C78.8967 7.66894 78.8086 8.21128 78.8086 8.82067C78.8086 9.43506 78.8967 9.98242 79.0708 10.4647C79.2499 10.942 79.5131 11.3193 79.8583 11.5964C80.2075 11.8696 80.6358 12.0057 81.1431 12.0057ZM91.0245 13.9309C90.4011 13.9309 89.8407 13.8199 89.3424 13.5987C88.8471 13.3726 88.4548 13.0404 88.1646 12.6011C87.8795 12.1618 87.7364 11.6195 87.7364 10.976C87.7364 10.4217 87.8384 9.9634 88.0436 9.60117C88.2477 9.23894 88.5279 8.94876 88.8811 8.73061C89.2353 8.51348 89.6336 8.34937 90.0779 8.23829C90.5252 8.12322 90.9875 8.04017 91.4658 7.98914C92.0411 7.9291 92.5084 7.87606 92.8667 7.82903C93.2239 7.778 93.484 7.70094 93.6462 7.59888C93.8133 7.49181 93.8963 7.3277 93.8963 7.10655V7.06753C93.8963 6.58622 93.7532 6.213 93.4671 5.94883C93.1819 5.68466 92.7706 5.55258 92.2333 5.55258C91.6659 5.55258 91.2156 5.67565 90.8834 5.92281C90.5552 6.16997 90.333 6.46216 90.218 6.79938L88.0566 6.49218C88.2267 5.89579 88.5079 5.39647 88.9001 4.99521C89.2924 4.59095 89.7727 4.28775 90.34 4.08762C90.9064 3.88249 91.5338 3.78041 92.2203 3.78041C92.6936 3.78041 93.1649 3.83546 93.6342 3.94654C94.1025 4.05761 94.5317 4.24071 94.919 4.49688C95.3072 4.74804 95.6184 5.09128 95.8536 5.52656C96.0918 5.96184 96.2118 6.50516 96.2118 7.15758V13.7328H93.9854V12.383H93.9083C93.7683 12.6561 93.5701 12.9123 93.3139 13.1504C93.0628 13.3856 92.7446 13.5747 92.3613 13.7198C91.9811 13.8609 91.5358 13.9309 91.0245 13.9309ZM91.6249 12.2298C92.0902 12.2298 92.4934 12.1378 92.8347 11.9547C93.1749 11.7676 93.438 11.5194 93.6211 11.2132C93.8083 10.906 93.9023 10.5708 93.9023 10.2086V9.05083C93.8303 9.11087 93.7062 9.16589 93.5311 9.21692C93.361 9.26795 93.1688 9.31298 92.9557 9.35101C92.7426 9.39003 92.5314 9.42405 92.3223 9.45407C92.1132 9.48409 91.9321 9.5091 91.779 9.53011C91.4337 9.57714 91.1245 9.65421 90.8514 9.76128C90.5782 9.86734 90.363 10.0164 90.205 10.2086C90.0479 10.3957 89.9688 10.6388 89.9688 10.938C89.9688 11.3643 90.1239 11.6865 90.4361 11.9036C90.7473 12.1208 91.1436 12.2298 91.6249 12.2298ZM105.866 13.7328L102.17 0.633403H104.721L107.082 10.2596H107.203L109.724 0.633403H112.045L114.572 10.2666H114.687L117.047 0.633403H119.599L115.901 13.7328H113.561L110.938 4.54192H110.836L108.208 13.7328H105.866ZM121.142 13.7328V3.90852H123.457V13.7328H121.142ZM122.307 2.51361C121.939 2.51361 121.624 2.39255 121.359 2.14939C121.095 1.90223 120.963 1.60604 120.963 1.26082C120.963 0.910595 121.095 0.614397 121.359 0.371241C121.624 0.124082 121.939 0 122.307 0C122.677 0 122.993 0.124082 123.253 0.371241C123.517 0.614397 123.649 0.910595 123.649 1.26082C123.649 1.60604 123.517 1.90223 123.253 2.14939C122.993 2.39255 122.677 2.51361 122.307 2.51361ZM128.153 0.633403V13.7328H125.839V0.633403H128.153ZM138.3 6.50519L136.188 6.73531C136.129 6.52218 136.024 6.32207 135.875 6.13395C135.73 5.94683 135.534 5.79472 135.287 5.67964C135.04 5.56457 134.737 5.50754 134.378 5.50754C133.897 5.50754 133.492 5.61159 133.164 5.82073C132.839 6.02986 132.679 6.30004 132.684 6.63326C132.679 6.91844 132.784 7.15158 132.997 7.3307C133.215 7.50981 133.573 7.65692 134.072 7.77199L135.747 8.13022C136.677 8.33035 137.368 8.64755 137.82 9.08283C138.276 9.51811 138.506 10.0875 138.511 10.7909C138.506 11.4093 138.325 11.9547 137.967 12.428C137.613 12.8973 137.121 13.2635 136.49 13.5277C135.858 13.7929 135.134 13.9249 134.315 13.9249C133.113 13.9249 132.145 13.6728 131.411 13.1704C130.678 12.6621 130.241 11.9567 130.1 11.0531L132.358 10.835C132.46 11.2792 132.677 11.6135 133.01 11.8396C133.343 12.0658 133.776 12.1788 134.308 12.1788C134.859 12.1788 135.3 12.0658 135.632 11.8396C135.969 11.6135 136.137 11.3343 136.137 11.0021C136.137 10.7199 136.029 10.4877 135.811 10.3046C135.598 10.1215 135.266 9.98042 134.814 9.88236L133.138 9.53011C132.196 9.33398 131.499 9.00378 131.046 8.53948C130.595 8.07018 130.371 7.47779 130.375 6.76133C130.371 6.15594 130.535 5.63061 130.867 5.18732C131.204 4.74004 131.672 4.39481 132.268 4.15165C132.869 3.9045 133.562 3.78041 134.347 3.78041C135.498 3.78041 136.405 4.02559 137.065 4.5159C137.73 5.00622 138.142 5.66965 138.3 6.50519ZM144.705 13.9249C143.746 13.9249 142.915 13.7138 142.211 13.2915C141.507 12.8693 140.962 12.2789 140.573 11.5194C140.19 10.7609 139.998 9.87334 139.998 8.85869C139.998 7.84404 140.19 6.95546 140.573 6.19197C140.962 5.42848 141.507 4.83612 142.211 4.41385C142.915 3.99157 143.746 3.78041 144.705 3.78041C145.665 3.78041 146.496 3.99157 147.2 4.41385C147.903 4.83612 148.447 5.42848 148.831 6.19197C149.219 6.95546 149.413 7.84404 149.413 8.85869C149.413 9.87334 149.219 10.7609 148.831 11.5194C148.447 12.2789 147.903 12.8693 147.2 13.2915C146.496 13.7138 145.665 13.9249 144.705 13.9249ZM144.718 12.0698C145.238 12.0698 145.674 11.9267 146.023 11.6415C146.373 11.3513 146.633 10.963 146.803 10.4767C146.978 9.99142 147.065 9.44905 147.065 8.85267C147.065 8.25129 146.978 7.70796 146.803 7.22165C146.633 6.73133 146.373 6.34107 146.023 6.05088C145.674 5.7607 145.238 5.61561 144.718 5.61561C144.186 5.61561 143.741 5.7607 143.388 6.05088C143.038 6.34107 142.776 6.73133 142.601 7.22165C142.431 7.70796 142.345 8.25129 142.345 8.85267C142.345 9.44905 142.431 9.99142 142.601 10.4767C142.776 10.963 143.038 11.3513 143.388 11.6415C143.741 11.9267 144.186 12.0698 144.718 12.0698ZM153.694 7.97613V13.7328H151.378V3.90852H153.592V5.57759H153.707C153.933 5.02723 154.293 4.59096 154.787 4.26675C155.286 3.94254 155.902 3.78041 156.636 3.78041C157.314 3.78041 157.904 3.92553 158.408 4.21572C158.915 4.50491 159.307 4.92515 159.585 5.4755C159.866 6.02586 160.005 6.69229 160 7.4778V13.7328H157.685V7.83603C157.685 7.17861 157.514 6.66529 157.173 6.29405C156.836 5.92281 156.369 5.73769 155.772 5.73769C155.367 5.73769 155.007 5.82676 154.691 6.00587C154.38 6.18098 154.135 6.43513 153.956 6.76735C153.781 7.09956 153.694 7.50283 153.694 7.97613Z" fill="#101828"/>
</svg>
