<svg width="198" height="20" viewBox="0 0 198 20" fill="none" xmlns="http://www.w3.org/2000/svg">
<path d="M8.46487 4.7194C8.3986 4.09683 8.11847 3.6149 7.62343 3.26345C7.13441 2.92204 6.49677 2.75133 5.71254 2.75133C5.16126 2.75133 4.68832 2.83165 4.29369 2.99231C3.89907 3.16301 3.59681 3.38398 3.38795 3.67518C3.17809 3.95634 3.07167 4.28767 3.06665 4.64916C3.06665 4.96045 3.13593 5.22156 3.2735 5.44247C3.41609 5.66338 3.60886 5.85411 3.85086 6.01478C4.09386 6.1654 4.36198 6.29594 4.65719 6.39635C4.9514 6.50681 5.24863 6.58715 5.54887 6.65744L6.91751 7.00886C7.46979 7.12936 7.99895 7.31011 8.50805 7.52098C9.02117 7.74189 9.48006 8.02301 9.88473 8.35437C10.2934 8.68574 10.6167 9.08747 10.8547 9.55941C11.0917 10.0314 11.2112 10.5837 11.2112 11.2163C11.2112 12.0698 10.9923 12.8229 10.5545 13.4756C10.1177 14.1182 9.4851 14.6303 8.65769 14.9918C7.8353 15.3533 6.83918 15.534 5.66936 15.534C4.53368 15.534 3.54662 15.3532 2.71017 15.0018C1.87774 14.6503 1.22705 14.1383 0.756106 13.4655C0.290187 12.7928 0.0381572 11.9693 0 10.9953H2.60274C2.64089 11.5074 2.79854 11.9291 3.07367 12.2705C3.34981 12.6019 3.70828 12.8529 4.15111 13.0236C4.59795 13.1943 5.097 13.2747 5.64828 13.2747C6.22365 13.2747 6.72774 13.1843 7.16052 13.0136C7.59732 12.8429 7.93973 12.6019 8.18675 12.2906C8.43477 11.9794 8.56027 11.6078 8.56529 11.1861C8.56027 10.8146 8.44883 10.4932 8.22993 10.2522C8.01103 10.0012 7.70475 9.7903 7.31012 9.6196C6.92052 9.44889 6.46365 9.29832 5.9405 9.16778L4.27865 8.73595C3.0767 8.42467 2.12575 7.96286 1.42687 7.33026C0.732006 6.69765 0.385592 5.86421 0.385592 4.81991C0.385592 3.95635 0.618566 3.20324 1.08449 2.55055C1.55442 1.9079 2.19403 1.40584 3.00236 1.05439C3.81069 0.692904 4.72648 0.51212 5.7487 0.51212C6.78497 0.51212 7.69269 0.692904 8.4729 1.05439C9.25714 1.40584 9.87269 1.90789 10.3195 2.5405C10.7664 3.17311 10.9973 3.89601 11.0114 4.7194H8.46487ZM18.926 4.35792V6.35615H12.628V4.35792H18.926ZM14.1834 1.73714H16.7651V12.0195C16.7651 12.3609 16.8173 12.6321 16.9217 12.8128C17.0312 12.9936 17.1738 13.1241 17.3495 13.1843C17.5252 13.2546 17.72 13.2847 17.9349 13.2847C18.0966 13.2847 18.2432 13.2747 18.3767 13.2546C18.5143 13.2244 18.6187 13.2044 18.69 13.1843L19.1258 15.2027C18.9872 15.2529 18.7904 15.3031 18.5334 15.3634C18.2813 15.4236 17.9721 15.4537 17.6065 15.4637C16.9599 15.4838 16.3775 15.3834 15.8594 15.1725C15.3412 14.9516 14.9295 14.6102 14.6253 14.1583C14.326 13.6964 14.1784 13.1341 14.1834 12.4413V1.73714ZM21.0849 15.3131V4.35792H23.6665V15.3131H21.0849ZM22.3833 2.80158C21.9736 2.80158 21.6221 2.67102 21.3269 2.3999C21.0327 2.11875 20.8851 1.78739 20.8851 1.40582C20.8851 1.0142 21.0327 0.682848 21.3269 0.411731C21.6221 0.140614 21.9736 0 22.3833 0C22.797 0 23.1484 0.140614 23.4386 0.411731C23.7328 0.682848 23.8804 1.0142 23.8804 1.40582C23.8804 1.78739 23.7328 2.11875 23.4386 2.3999C23.1484 2.67102 22.797 2.80158 22.3833 2.80158ZM28.9031 0.702847V15.3131H26.3215V0.702847H28.9031ZM34.1397 0.702847V15.3131H31.5581V0.702847H34.1397ZM44.3568 8.89665V15.3131H41.7751V0.702847H44.3006V6.21555H44.4281C44.6851 5.60303 45.0828 5.11105 45.62 4.7596C46.1612 4.39811 46.8511 4.21733 47.6875 4.21733C48.4486 4.21733 49.1114 4.37809 49.6777 4.68937C50.243 5.01069 50.6808 5.48254 50.9901 6.09506C51.3034 6.70759 51.4601 7.45075 51.4601 8.33439V15.3131H48.8784V8.73595C48.8784 8.00293 48.6886 7.43061 48.3081 7.01891C47.9325 6.60722 47.4044 6.39635 46.7246 6.39635C46.2687 6.39635 45.86 6.49682 45.4985 6.69764C45.142 6.88843 44.8609 7.17961 44.657 7.55114C44.4572 7.91263 44.3568 8.36445 44.3568 8.89665ZM57.2439 15.534C56.55 15.534 55.9245 15.4135 55.3682 15.1625C54.8169 14.9114 54.3801 14.5399 54.0568 14.0479C53.7375 13.5659 53.5788 12.9533 53.5788 12.2404C53.5788 11.6178 53.6923 11.1058 53.9212 10.7041C54.1491 10.3025 54.4604 9.98108 54.855 9.74009C55.2497 9.48905 55.6945 9.30838 56.1885 9.18789C56.6876 9.05735 57.2037 8.96695 57.7359 8.9067C58.3786 8.84645 58.8987 8.78615 59.2984 8.7259C59.697 8.67569 59.9872 8.58532 60.168 8.47486C60.3537 8.35437 60.4461 8.1737 60.4461 7.92266V7.88246C60.4461 7.34022 60.2874 6.92854 59.9681 6.63734C59.6498 6.33609 59.1909 6.19557 58.5925 6.19557C57.9599 6.19557 57.4578 6.32602 57.0872 6.60718C56.7207 6.8783 56.4737 7.20976 56.3452 7.58129L53.9353 7.23979C54.1251 6.57706 54.4393 6.01483 54.8761 5.57301C55.3139 5.12115 55.8492 4.77974 56.4808 4.55883C57.1134 4.32787 57.8122 4.21733 58.5774 4.21733C59.1056 4.21733 59.6307 4.27763 60.1539 4.39813C60.677 4.52867 61.155 4.72948 61.5878 5.01064C62.0196 5.2918 62.367 5.67339 62.6281 6.16542C62.8952 6.64741 63.0277 7.24983 63.0277 7.98285V15.3131H60.5465V13.8069H60.4601C60.3035 14.1081 60.0826 14.3993 59.7974 14.6604C59.5173 14.9215 59.1628 15.1323 58.735 15.3031C58.3113 15.4537 57.8142 15.534 57.2439 15.534ZM57.9146 13.6361C58.4328 13.6361 58.8816 13.5358 59.2622 13.335C59.6428 13.1241 59.935 12.8429 60.1398 12.5015C60.3487 12.1601 60.4531 11.7885 60.4531 11.3869V10.0916C60.3728 10.1619 60.2342 10.2221 60.0394 10.2824C59.8496 10.3326 59.6358 10.3828 59.3978 10.423C59.1598 10.4732 58.9248 10.5133 58.6919 10.5434C58.4589 10.5736 58.2571 10.6037 58.0854 10.6237C57.7008 10.684 57.3564 10.7643 57.0511 10.8848C56.7469 11.0053 56.5069 11.166 56.3311 11.3869C56.1554 11.5877 56.067 11.8589 56.067 12.2003C56.067 12.6722 56.2408 13.0337 56.5882 13.2747C56.9346 13.5157 57.3774 13.6361 57.9146 13.6361ZM75.0161 4.35792L71.115 15.3131H68.2623L64.3612 4.35792H67.1146L69.6319 12.4914H69.7464L72.2708 4.35792H75.0161ZM81.2799 15.5239C80.1814 15.5239 79.2325 15.3031 78.4342 14.8412C77.6399 14.3793 77.0294 13.7265 76.6017 12.8931C76.1729 12.0396 75.959 11.0455 75.959 9.90078C75.959 8.77615 76.1729 7.78209 76.6017 6.92858C77.0335 6.07506 77.6379 5.41235 78.4131 4.9404C79.1873 4.45842 80.0981 4.21733 81.1444 4.21733C81.8192 4.21733 82.4568 4.32786 83.0553 4.54877C83.6588 4.75964 84.192 5.091 84.6529 5.54286C85.1188 5.99472 85.4853 6.56705 85.7514 7.26995C86.0175 7.9628 86.151 8.78617 86.151 9.75014V10.5434H77.172V8.80631H83.6758C83.6708 8.30424 83.5644 7.87239 83.3545 7.48078C83.1456 7.08916 82.8534 6.78801 82.4779 6.5671C82.1073 6.33615 81.6746 6.22561 81.1795 6.22561C80.6524 6.22561 80.1884 6.35616 79.7888 6.61723C79.3901 6.86827 79.0779 7.19962 78.8549 7.61132C78.636 8.02302 78.5246 8.46493 78.5196 8.95695V10.4732C78.5196 11.1159 78.636 11.658 78.869 12.1199C79.102 12.5718 79.4273 12.9132 79.846 13.1642C80.2648 13.3952 80.7538 13.5157 81.3151 13.5157C81.6906 13.5157 82.031 13.4655 82.3353 13.3551C82.6395 13.2547 82.9036 13.0939 83.1265 12.883C83.3505 12.6722 83.5192 12.4112 83.6326 12.0999L86.0436 12.3709C85.8909 13.0136 85.6017 13.5659 85.174 14.0479C84.7502 14.5098 84.208 14.8813 83.5473 15.1424C82.8866 15.4034 82.1305 15.5239 81.2799 15.5239ZM100.626 19.42V13.586H100.519C100.386 13.8571 100.194 14.1383 99.9419 14.4395C99.6898 14.7307 99.3564 14.9817 98.9427 15.1926C98.529 15.4035 98.0089 15.5038 97.3813 15.5038C96.5207 15.5038 95.7506 15.283 95.0708 14.8412C94.391 14.3994 93.8538 13.7567 93.4591 12.9132C93.0645 12.0798 92.8667 11.0556 92.8667 9.85065C92.8667 8.63564 93.0665 7.60131 93.4661 6.76788C93.8698 5.9244 94.4141 5.29178 95.0989 4.87004C95.7837 4.42822 96.5469 4.21733 97.3883 4.21733C98.03 4.21733 98.5582 4.32786 98.9719 4.54877C99.3856 4.75964 99.7129 5.02074 99.9559 5.32198C100.198 5.62322 100.386 5.90435 100.519 6.16542H100.676V4.35792H103.215V19.42H100.626ZM98.1013 13.3851C98.6485 13.3851 99.1144 13.2446 99.499 12.9434C99.8846 12.6421 100.177 12.2304 100.377 11.6982C100.576 11.166 100.676 10.5435 100.676 9.8406C100.676 9.12766 100.576 8.51505 100.377 7.9929C100.182 7.47075 99.8916 7.05908 99.5061 6.76788C99.1265 6.47668 98.6576 6.33617 98.1013 6.33617C97.5259 6.33617 97.0459 6.48674 96.6613 6.78798C96.2757 7.07918 95.9855 7.5009 95.7907 8.02305C95.5959 8.55524 95.4985 9.15779 95.4985 9.8406C95.4985 10.5234 95.5959 11.1359 95.7907 11.6681C95.9906 12.2003 96.2828 12.622 96.6684 12.9333C97.058 13.2345 97.5359 13.3851 98.1013 13.3851ZM112.85 10.7041V4.35792H115.432V15.3131H112.928V13.3651H112.814C112.567 13.9777 112.16 14.4797 111.595 14.8713C111.034 15.263 110.342 15.4537 109.519 15.4537C108.801 15.4537 108.167 15.2931 107.615 14.9818C107.068 14.6504 106.64 14.1885 106.331 13.576C106.022 12.9534 105.868 12.2104 105.868 11.3368V4.35792H108.45V10.9351C108.45 11.6279 108.64 12.1802 109.02 12.5919C109.401 12.9936 109.9 13.2044 110.517 13.2044C110.898 13.2044 111.267 13.114 111.623 12.9232C111.979 12.7425 112.272 12.4614 112.501 12.0999C112.734 11.7284 112.85 11.2665 112.85 10.7041ZM122.936 15.5239C121.837 15.5239 120.889 15.3031 120.09 14.8412C119.297 14.3793 118.685 13.7265 118.257 12.8931C117.83 12.0396 117.616 11.0455 117.616 9.90078C117.616 8.77615 117.83 7.78209 118.257 6.92858C118.69 6.07506 119.294 5.41235 120.069 4.9404C120.844 4.45842 121.754 4.21733 122.8 4.21733C123.475 4.21733 124.112 4.32786 124.712 4.54877C125.315 4.75964 125.848 5.091 126.309 5.54286C126.774 5.99472 127.141 6.56705 127.407 7.26995C127.673 7.9628 127.807 8.78617 127.807 9.75014V10.5434H118.828V8.80631H125.331C125.327 8.30424 125.22 7.87239 125.011 7.48078C124.801 7.08916 124.509 6.78801 124.134 6.5671C123.763 6.33615 123.33 6.22561 122.836 6.22561C122.308 6.22561 121.844 6.35616 121.445 6.61723C121.046 6.86827 120.734 7.19962 120.511 7.61132C120.292 8.02302 120.18 8.46493 120.175 8.95695V10.4732C120.175 11.1159 120.292 11.658 120.526 12.1199C120.759 12.5718 121.084 12.9132 121.503 13.1642C121.92 13.3952 122.41 13.5157 122.972 13.5157C123.347 13.5157 123.687 13.4655 123.991 13.3551C124.295 13.2547 124.559 13.0939 124.783 12.883C125.006 12.6722 125.175 12.4112 125.289 12.0999L127.699 12.3709C127.548 13.0136 127.257 13.5659 126.83 14.0479C126.407 14.5098 125.865 14.8813 125.204 15.1424C124.542 15.4034 123.787 15.5239 122.936 15.5239ZM138.648 7.24985L136.295 7.51093C136.228 7.26994 136.112 7.04911 135.945 6.83824C135.784 6.62737 135.566 6.46671 135.289 6.33617C135.013 6.20563 134.676 6.14532 134.276 6.14532C133.739 6.14532 133.288 6.25574 132.922 6.48669C132.56 6.72768 132.383 7.02896 132.387 7.40049C132.383 7.71177 132.499 7.97287 132.736 8.1737C132.979 8.37452 133.379 8.53518 133.935 8.66571L135.803 9.06739C136.84 9.2883 137.61 9.63969 138.113 10.1317C138.622 10.6137 138.879 11.2463 138.884 12.0296C138.879 12.7224 138.677 13.335 138.278 13.8572C137.883 14.3793 137.334 14.791 136.63 15.0822C135.926 15.3834 135.119 15.5239 134.205 15.5239C132.864 15.5239 131.785 15.2428 130.968 14.6905C130.15 14.1182 129.662 13.335 129.506 12.3208L132.023 12.0798C132.138 12.5819 132.379 12.9534 132.751 13.2044C133.122 13.4555 133.604 13.576 134.198 13.576C134.812 13.576 135.304 13.4555 135.675 13.2044C136.051 12.9534 136.238 12.6421 136.238 12.2705C136.238 11.9492 136.117 11.6981 135.874 11.4873C135.637 11.2865 135.265 11.1258 134.761 11.0154L132.894 10.6237C131.842 10.4129 131.065 10.0414 130.561 9.51921C130.057 8.99706 129.808 8.33435 129.812 7.54109C129.808 6.86831 129.991 6.27587 130.361 5.78384C130.737 5.28177 131.258 4.90018 131.924 4.62906C132.593 4.35794 133.367 4.21733 134.241 4.21733C135.524 4.21733 136.536 4.48852 137.272 5.04079C138.014 5.58303 138.473 6.32604 138.648 7.24985ZM146.483 4.35792V6.35615H140.186V4.35792H146.483ZM141.74 1.73714H144.322V12.0195C144.322 12.3609 144.374 12.6321 144.478 12.8128C144.588 12.9936 144.73 13.1241 144.906 13.1843C145.083 13.2546 145.278 13.2847 145.492 13.2847C145.653 13.2847 145.801 13.2747 145.933 13.2546C146.071 13.2244 146.176 13.2044 146.248 13.1843L146.682 15.2027C146.545 15.2529 146.347 15.3031 146.09 15.3634C145.838 15.4236 145.53 15.4537 145.163 15.4637C144.517 15.4838 143.934 15.3834 143.416 15.1725C142.898 14.9516 142.486 14.6102 142.182 14.1583C141.883 13.6964 141.735 13.1341 141.74 12.4413V1.73714ZM148.642 15.3131V4.35792H151.223V15.3131H148.642ZM149.94 2.80158C149.531 2.80158 149.179 2.67102 148.885 2.3999C148.589 2.11875 148.442 1.78739 148.442 1.40582C148.442 1.0142 148.589 0.682848 148.885 0.411731C149.179 0.140614 149.531 0 149.94 0C150.354 0 150.705 0.140614 150.995 0.411731C151.29 0.682848 151.437 1.0142 151.437 1.40582C151.437 1.78739 151.29 2.11875 150.995 2.3999C150.705 2.67102 150.354 2.80158 149.94 2.80158ZM158.657 15.5239C157.586 15.5239 156.66 15.293 155.875 14.8211C155.09 14.3491 154.482 13.6965 154.05 12.843C153.621 11.9995 153.407 11.0053 153.407 9.88068C153.407 8.74601 153.621 7.75195 154.05 6.90847C154.482 6.05496 155.09 5.39224 155.875 4.9203C156.66 4.44836 157.586 4.21733 158.657 4.21733C159.726 4.21733 160.653 4.44836 161.437 4.9203C162.223 5.39224 162.828 6.05496 163.257 6.90847C163.689 7.75195 163.905 8.74601 163.905 9.88068C163.905 11.0053 163.689 11.9995 163.257 12.843C162.828 13.6965 162.223 14.3491 161.437 14.8211C160.653 15.293 159.726 15.5239 158.657 15.5239ZM158.671 13.4555C159.25 13.4555 159.735 13.2948 160.126 12.9836C160.515 12.6622 160.806 12.2204 160.995 11.6781C161.19 11.1459 161.288 10.5334 161.288 9.87063C161.288 9.19786 161.19 8.59544 160.995 8.05321C160.806 7.51097 160.515 7.0691 160.126 6.74778C159.735 6.42645 159.25 6.26581 158.671 6.26581C158.076 6.26581 157.582 6.42645 157.188 6.74778C156.797 7.0691 156.505 7.51097 156.31 8.05321C156.12 8.59544 156.025 9.19786 156.025 9.87063C156.025 10.5334 156.12 11.1459 156.31 11.6781C156.505 12.2204 156.797 12.6622 157.188 12.9836C157.582 13.2948 158.076 13.4555 158.671 13.4555ZM168.678 8.89665V15.3131H166.096V4.35792H168.564V6.21555H168.692C168.944 5.60303 169.346 5.12109 169.898 4.7596C170.454 4.39811 171.141 4.21733 171.959 4.21733C172.715 4.21733 173.373 4.37809 173.934 4.69942C174.5 5.02074 174.937 5.49259 175.246 6.10511C175.56 6.71764 175.715 7.46079 175.71 8.33439V15.3131H173.128V8.73595C173.128 8.00293 172.938 7.43061 172.558 7.01891C172.183 6.60722 171.661 6.39635 170.996 6.39635C170.544 6.39635 170.142 6.49682 169.791 6.69764C169.443 6.88843 169.17 7.17961 168.97 7.55114C168.775 7.91263 168.678 8.36445 168.678 8.89665ZM186.993 7.24985L184.639 7.51093C184.573 7.26994 184.456 7.04911 184.289 6.83824C184.128 6.62737 183.909 6.46671 183.634 6.33617C183.358 6.20563 183.02 6.14532 182.621 6.14532C182.083 6.14532 181.631 6.25574 181.266 6.48669C180.904 6.72768 180.726 7.02896 180.731 7.40049C180.726 7.71177 180.842 7.97287 181.08 8.1737C181.322 8.37452 181.722 8.53518 182.278 8.66571L184.147 9.06739C185.183 9.2883 185.953 9.63969 186.457 10.1317C186.966 10.6137 187.222 11.2463 187.228 12.0296C187.222 12.7224 187.021 13.335 186.621 13.8572C186.226 14.3793 185.677 14.791 184.974 15.0822C184.27 15.3834 183.462 15.5239 182.549 15.5239C181.209 15.5239 180.129 15.2428 179.312 14.6905C178.494 14.1182 178.007 13.335 177.85 12.3208L180.367 12.0798C180.481 12.5819 180.724 12.9534 181.094 13.2044C181.465 13.4555 181.948 13.576 182.542 13.576C183.156 13.576 183.648 13.4555 184.018 13.2044C184.394 12.9534 184.582 12.6421 184.582 12.2705C184.582 11.9492 184.46 11.6981 184.218 11.4873C183.98 11.2865 183.61 11.1258 183.106 11.0154L181.237 10.6237C180.186 10.4129 179.409 10.0414 178.905 9.51921C178.401 8.99706 178.151 8.33435 178.156 7.54109C178.151 6.86831 178.335 6.27587 178.705 5.78384C179.081 5.28177 179.601 4.90018 180.267 4.62906C180.938 4.35794 181.71 4.21733 182.584 4.21733C183.869 4.21733 184.879 4.48852 185.616 5.04079C186.358 5.58303 186.816 6.32604 186.993 7.24985ZM191.823 11.0154V10.8347C191.829 9.97113 191.91 9.28827 192.066 8.77615C192.228 8.27409 192.456 7.86242 192.751 7.55114C193.046 7.23985 193.405 6.94867 193.828 6.68759C194.118 6.50685 194.377 6.31597 194.605 6.09506C194.838 5.88419 195.022 5.63319 195.154 5.37211C195.288 5.101 195.354 4.79973 195.354 4.46836C195.354 4.08679 195.267 3.76549 195.09 3.48433C194.914 3.21321 194.676 3.00234 194.377 2.85172C194.083 2.69106 193.751 2.62079 193.386 2.62079C193.049 2.62079 192.727 2.69105 192.423 2.84167C192.124 2.98225 191.874 3.20318 191.674 3.49438C191.479 3.78558 191.37 4.15709 191.346 4.59891H188.807C188.831 3.69518 189.05 2.94207 189.464 2.32955C189.881 1.72706 190.434 1.26517 191.118 0.963933C191.807 0.662692 192.568 0.51212 193.4 0.51212C194.308 0.51212 195.107 0.662711 195.796 0.984035C196.491 1.30536 197.03 1.75721 197.415 2.34965C197.805 2.93205 198 3.62497 198 4.42828C198 4.97052 197.912 5.45245 197.736 5.88423C197.565 6.31601 197.32 6.6976 197.002 7.02896C196.682 7.36033 196.305 7.65154 195.867 7.91261C195.483 8.1536 195.166 8.40463 194.919 8.65566C194.676 8.91674 194.495 9.21801 194.377 9.56946C194.263 9.91087 194.203 10.3326 194.199 10.8347V11.0154H191.823ZM193.065 15.4738C192.637 15.4738 192.268 15.3131 191.959 15.0118C191.651 14.7106 191.496 14.3391 191.496 13.8972C191.496 13.4755 191.651 13.104 191.959 12.8028C192.268 12.5015 192.637 12.3509 193.065 12.3509C193.488 12.3509 193.854 12.5015 194.163 12.8028C194.477 13.104 194.634 13.4755 194.634 13.8972C194.634 14.1884 194.56 14.4596 194.413 14.6905C194.271 14.9315 194.08 15.1223 193.842 15.2628C193.609 15.4034 193.35 15.4738 193.065 15.4738Z" fill="#101828"/>
</svg>
