<svg width="79" height="11" viewBox="0 0 79 11" fill="none" xmlns="http://www.w3.org/2000/svg">
<path d="M5.911 2.94248C5.86392 2.50782 5.66862 2.16929 5.3231 1.92693C4.98158 1.68456 4.5359 1.56338 3.98907 1.56338C3.60348 1.56338 3.27299 1.62147 2.99757 1.73764C2.72215 1.85382 2.51182 2.01106 2.3656 2.21036C2.21937 2.40966 2.14426 2.63701 2.14126 2.8924C2.14126 3.10572 2.18934 3.29 2.28549 3.44524C2.38564 3.60148 2.51986 3.73468 2.68912 3.84384C2.85837 3.95 3.04564 4.04014 3.25195 4.11325C3.45727 4.18536 3.66458 4.24745 3.8739 4.29653L4.83037 4.53589C5.21496 4.62603 5.58549 4.74722 5.94003 4.89945C6.29858 5.05168 6.61909 5.24497 6.90152 5.47732C7.18695 5.70968 7.41229 5.99011 7.57854 6.31861C7.74479 6.64711 7.82791 7.0327 7.82791 7.47337C7.82791 8.07128 7.67467 8.59707 7.36921 9.05176C7.06374 9.50344 6.62308 9.85699 6.0452 10.1124C5.47033 10.3648 4.77526 10.491 3.95902 10.491C3.16582 10.491 2.47678 10.3678 1.89289 10.1224C1.31201 9.87701 0.85631 9.51848 0.527811 9.04676C0.203317 8.57604 0.0270411 8.00117 0 7.32414H1.81777C1.84481 7.67968 1.95398 7.97512 2.14627 8.21048C2.33856 8.44584 2.58995 8.62212 2.89842 8.73829C3.20989 8.85447 3.55843 8.91255 3.94402 8.91255C4.34563 8.91255 4.69715 8.85246 4.99961 8.73328C5.30507 8.61109 5.54344 8.44083 5.7167 8.2255C5.88896 8.00617 5.9771 7.75079 5.9801 7.45835C5.9771 7.19294 5.89898 6.9746 5.74674 6.80134C5.59351 6.62607 5.37919 6.47986 5.10377 6.36368C4.83135 6.2435 4.51289 6.13734 4.14834 6.04419L2.98754 5.74574C2.14827 5.53041 1.48428 5.20291 0.996541 4.76524C0.511804 4.32357 0.269422 3.73769 0.269422 3.00758C0.269422 2.40667 0.431668 1.88086 0.757163 1.42917C1.08566 0.977488 1.53235 0.626959 2.0962 0.378582C2.66106 0.126198 3.30004 0 4.01312 0C4.73722 0 5.37118 0.126198 5.91601 0.378582C6.46284 0.626959 6.89348 0.974474 7.20496 1.41915C7.51743 1.86082 7.6787 2.3686 7.68771 2.94248H5.911ZM12.7804 10.4859C12.0143 10.4859 11.3513 10.3267 10.7944 10.0082C10.2396 9.68572 9.81292 9.23103 9.51447 8.64414C9.21601 8.05324 9.06579 7.35719 9.06579 6.55798C9.06579 5.77078 9.21601 5.08073 9.51447 4.48582C9.81592 3.88892 10.2376 3.42421 10.7794 3.09171C11.3202 2.7572 11.9562 2.58894 12.6863 2.58894C13.157 2.58894 13.6027 2.66505 14.0203 2.81828C14.442 2.96751 14.8135 3.19986 15.136 3.51534C15.4615 3.83082 15.7169 4.23243 15.9022 4.72017C16.0885 5.20491 16.1816 5.78279 16.1816 6.4528V7.00565H9.91308V5.7908H14.454C14.45 5.44528 14.3759 5.13881 14.2296 4.8694C14.0834 4.59699 13.8791 4.38366 13.6167 4.22742C13.3583 4.07118 13.0559 3.99307 12.7113 3.99307C12.3428 3.99307 12.0193 4.08321 11.7399 4.26248C11.4614 4.43774 11.2441 4.6701 11.0879 4.95954C10.9346 5.24497 10.8575 5.55846 10.8535 5.89998V6.96058C10.8535 7.40526 10.9346 7.78784 11.0979 8.10632C11.2601 8.4218 11.4875 8.66417 11.7799 8.83342C12.0724 8.99867 12.4139 9.0818 12.8055 9.0818C13.0679 9.0818 13.3052 9.04575 13.5176 8.97264C13.7299 8.89653 13.9142 8.78535 14.0704 8.63913C14.2266 8.49291 14.3438 8.31164 14.4239 8.09631L16.1065 8.28559C16.0003 8.73027 15.798 9.11887 15.4996 9.45037C15.2041 9.77887 14.8256 10.0343 14.3639 10.2175C13.9021 10.3968 13.3744 10.4859 12.7804 10.4859ZM19.0159 2.68909L20.5593 5.51238L22.1277 2.68909H24.0346L21.7291 6.51291L24.0746 10.3367H22.1777L20.5593 7.58354L18.9558 10.3367H17.0439L19.3745 6.51291L17.104 2.68909H19.0159ZM26.4352 9.03174C26.1888 9.03174 25.9785 8.9446 25.8022 8.76834C25.626 8.59207 25.5388 8.38174 25.5388 8.13636C25.5388 7.88999 25.626 7.67968 25.8022 7.50341C25.9785 7.32815 26.1888 7.24001 26.4352 7.24001C26.6806 7.24001 26.8909 7.32815 27.0672 7.50341C27.2434 7.67968 27.3306 7.88999 27.3306 8.13636C27.3306 8.29861 27.2895 8.44784 27.2064 8.58405C27.1273 8.72026 27.0191 8.82943 26.8829 8.91255C26.7497 8.99268 26.6005 9.03174 26.4352 9.03174ZM26.4352 3.87389C26.1888 3.87389 25.9785 3.78576 25.8022 3.60949C25.626 3.43423 25.5388 3.22289 25.5388 2.97752C25.5388 2.73215 25.626 2.52083 25.8022 2.34556C25.9785 2.16929 26.1888 2.08117 26.4352 2.08117C26.6806 2.08117 26.8909 2.16929 27.0672 2.34556C27.2434 2.52083 27.3306 2.73215 27.3306 2.97752C27.3306 3.13977 27.2895 3.29 27.2064 3.42521C27.1273 3.56141 27.0191 3.67158 26.8829 3.7547C26.7497 3.83382 26.6005 3.87389 26.4352 3.87389ZM33.542 10.3367V0.139204H39.6573V1.23488H34.7769V4.68012H39.1986V5.77578H34.7769V10.3367H33.542ZM44.2573 10.496C43.5212 10.496 42.8852 10.3337 42.3504 10.0082C41.8196 9.67971 41.41 9.22102 41.1205 8.63413C40.8351 8.04323 40.6929 7.35618 40.6929 6.57199C40.6929 5.7888 40.8351 5.09876 41.1205 4.50085C41.41 3.89993 41.8116 3.43221 42.3254 3.0967C42.8432 2.75819 43.4481 2.58894 44.1381 2.58894C44.5367 2.58894 44.9303 2.65503 45.3179 2.78824C45.7065 2.92144 46.06 3.13676 46.3785 3.43522C46.697 3.73067 46.9514 4.12227 47.1407 4.61101C47.33 5.09876 47.4241 5.69967 47.4241 6.41275V6.91151H41.5291V5.89496H46.2293C46.2293 5.46331 46.1432 5.07872 45.9709 4.74021C45.8016 4.40169 45.5593 4.13428 45.2438 3.93899C44.9313 3.74269 44.5628 3.64453 44.1381 3.64453C43.6704 3.64453 43.2648 3.76072 42.9233 3.99307C42.5847 4.22242 42.3244 4.52088 42.1411 4.88944C41.9588 5.258 41.8677 5.6526 41.8677 6.07424V6.75126C41.8677 7.32914 41.9668 7.81888 42.1661 8.22049C42.3684 8.6191 42.6499 8.92256 43.0074 9.13188C43.366 9.33719 43.7826 9.44035 44.2573 9.44035C44.5668 9.44035 44.8452 9.39729 45.0946 9.31115C45.3459 9.22102 45.5643 9.08882 45.7466 8.91255C45.9288 8.73328 46.07 8.51094 46.1692 8.24554L47.3049 8.56402C47.1857 8.9496 46.9845 9.28812 46.702 9.57957C46.4206 9.86901 46.0721 10.0943 45.6564 10.2566C45.2418 10.4168 44.7751 10.496 44.2573 10.496ZM49.2118 10.3367V2.68909H50.3476V3.88391H50.4467C50.606 3.47529 50.8634 3.1588 51.2189 2.93245C51.5734 2.70411 52.0001 2.58894 52.4978 2.58894C53.0026 2.58894 53.4223 2.70411 53.7578 2.93245C54.0963 3.1588 54.3607 3.47529 54.55 3.88391H54.6291C54.8254 3.48831 55.1188 3.17483 55.5104 2.94248C55.902 2.70712 56.3717 2.58894 56.9196 2.58894C57.6036 2.58894 58.1624 2.80327 58.5981 3.23192C59.0328 3.65656 59.2501 4.31857 59.2501 5.21794V10.3367H58.0753V5.21794C58.0753 4.65408 57.9201 4.25046 57.6116 4.00809C57.3031 3.76572 56.9396 3.64453 56.521 3.64453C55.9832 3.64453 55.5665 3.80778 55.2721 4.13227C54.9766 4.45477 54.8284 4.86339 54.8284 5.35714V10.3367H53.6336V5.09876C53.6336 4.6641 53.4924 4.31355 53.2099 4.04815C52.9285 3.77874 52.5649 3.64453 52.1193 3.64453C51.8148 3.64453 51.5294 3.72566 51.263 3.88891C51.0016 4.05116 50.7882 4.27751 50.626 4.56595C50.4667 4.85138 50.3866 5.18188 50.3866 5.55645V10.3367H49.2118ZM63.6488 10.516C63.164 10.516 62.7244 10.4249 62.3298 10.2426C61.9342 10.0563 61.6207 9.78888 61.3884 9.44035C61.156 9.08881 61.0398 8.66417 61.0398 8.16542C61.0398 7.72775 61.126 7.37221 61.2992 7.0998C61.4715 6.82438 61.7018 6.60904 61.9913 6.4528C62.2797 6.29657 62.5982 6.1804 62.9467 6.10428C63.2993 6.02516 63.6528 5.96207 64.0073 5.915C64.472 5.85591 64.8486 5.81084 65.138 5.78079C65.4295 5.74774 65.6428 5.69266 65.775 5.61654C65.9112 5.54043 65.9793 5.40723 65.9793 5.21794V5.17787C65.9793 4.68713 65.8451 4.30554 65.5757 4.03313C65.3103 3.76071 64.9067 3.62451 64.3659 3.62451C63.805 3.62451 63.3654 3.7477 63.0469 3.99307C62.7274 4.23844 62.5041 4.50084 62.3739 4.78026L61.2592 4.38166C61.4585 3.91696 61.7238 3.55541 62.0554 3.29601C62.3909 3.03361 62.7564 2.85134 63.151 2.74818C63.5496 2.64202 63.9412 2.58894 64.3258 2.58894C64.5722 2.58894 64.8536 2.61899 65.1731 2.67908C65.4946 2.73516 65.8051 2.85334 66.1035 3.03261C66.406 3.21188 66.6564 3.48229 66.8557 3.84384C67.055 4.20539 67.1541 4.69012 67.1541 5.29805V10.3367H65.9793V9.30114H65.9192C65.8401 9.4674 65.7069 9.64466 65.5217 9.83395C65.3354 10.0232 65.088 10.1845 64.7795 10.3167C64.471 10.4499 64.0935 10.516 63.6488 10.516ZM63.8281 9.46038C64.2928 9.46038 64.6844 9.36925 65.0029 9.18697C65.3253 9.00369 65.5677 8.76833 65.7299 8.47989C65.8962 8.19045 65.9793 7.88698 65.9793 7.5685V6.49287C65.9293 6.55297 65.8201 6.60705 65.6508 6.65713C65.4846 6.7032 65.2923 6.74525 65.0729 6.78131C64.8576 6.81436 64.6463 6.8444 64.441 6.87144C64.2387 6.89448 64.0734 6.91451 63.9482 6.93054C63.6428 6.9706 63.3574 7.0357 63.091 7.12483C62.8296 7.21096 62.6162 7.34217 62.454 7.51844C62.2947 7.6907 62.2146 7.92705 62.2146 8.2255C62.2146 8.63413 62.3659 8.9426 62.6683 9.15192C62.9738 9.35723 63.3604 9.46038 63.8281 9.46038ZM70.4742 0.139204V10.3367H69.2994V0.139204H70.4742ZM75.8333 10.496C75.0962 10.496 74.4602 10.3337 73.9264 10.0082C73.3946 9.67971 72.985 9.22102 72.6965 8.63413C72.4111 8.04323 72.2679 7.35618 72.2679 6.57199C72.2679 5.7888 72.4111 5.09876 72.6965 4.50085C72.985 3.89993 73.3866 3.43221 73.9014 3.0967C74.4192 2.75819 75.0231 2.58894 75.7131 2.58894C76.1118 2.58894 76.5054 2.65503 76.894 2.78824C77.2815 2.92144 77.635 3.13676 77.9545 3.43522C78.273 3.73067 78.5264 4.12227 78.7157 4.61101C78.905 5.09876 79.0001 5.69967 79.0001 6.41275V6.91151H73.1042V5.89496H77.8043C77.8043 5.46331 77.7182 5.07872 77.5459 4.74021C77.3767 4.40169 77.1343 4.13428 76.8188 3.93899C76.5074 3.74269 76.1388 3.64453 75.7131 3.64453C75.2454 3.64453 74.8408 3.76072 74.4983 3.99307C74.1598 4.22242 73.8994 4.52088 73.7171 4.88944C73.5338 5.258 73.4427 5.6526 73.4427 6.07424V6.75126C73.4427 7.32914 73.5428 7.81888 73.7421 8.22049C73.9444 8.6191 74.2249 8.92256 74.5834 9.13188C74.9419 9.33719 75.3586 9.44035 75.8333 9.44035C76.1418 9.44035 76.4202 9.39729 76.6696 9.31115C76.922 9.22102 77.1393 9.08882 77.3216 8.91255C77.5039 8.73328 77.6451 8.51094 77.7452 8.24554L78.8799 8.56402C78.7608 8.9496 78.5594 9.28812 78.278 9.57957C77.9956 9.86901 77.6471 10.0943 77.2324 10.2566C76.8168 10.4168 76.3511 10.496 75.8333 10.496Z" fill="#475467"/>
</svg>
