<svg width="387" height="46" viewBox="0 0 387 46" fill="none" xmlns="http://www.w3.org/2000/svg">
<path d="M0 35.4368V0.47769H6.33306V15.2769H22.5323V0.47769H28.8824V35.4368H22.5323V20.5855H6.33306V35.4368H0ZM46.1432 35.9486C43.5145 35.9486 41.2442 35.4028 39.3324 34.3102C37.4317 33.2066 35.9696 31.6474 34.9452 29.6335C33.9207 27.6076 33.409 25.2232 33.409 22.4802C33.409 19.7834 33.9207 17.417 34.9452 15.3801C35.9806 13.3311 37.4257 11.7378 39.2803 10.6002C41.136 9.45056 43.3151 8.87574 45.8187 8.87574C47.434 8.87574 48.9592 9.13811 50.3933 9.66086C51.8384 10.1736 53.1132 10.9697 54.2168 12.0513C55.3324 13.1318 56.2086 14.5088 56.8455 16.1822C57.4834 17.8436 57.8019 19.8234 57.8019 22.1227V24.0175H36.3111V19.8525H51.8784C51.8674 18.6688 51.611 17.6163 51.1103 16.6939C50.6096 15.7606 49.9096 15.0266 49.0103 14.4918C48.123 13.957 47.0876 13.6896 45.9039 13.6896C44.6411 13.6896 43.5314 13.9971 42.5751 14.612C41.6197 15.2148 40.8736 16.011 40.3389 17.0014C39.8161 17.9798 39.5477 19.0553 39.5367 20.227V23.8632C39.5367 25.3884 39.8161 26.6973 40.3729 27.7899C40.9307 28.8704 41.7108 29.7016 42.7123 30.2814C43.7137 30.8503 44.8854 31.1357 46.2283 31.1357C47.1276 31.1357 47.9408 31.0105 48.6688 30.7601C49.3979 30.4978 50.0288 30.1172 50.5636 29.6165C51.0993 29.1158 51.5029 28.4949 51.7763 27.7558L57.5456 28.4038C57.181 29.9289 56.4871 31.2609 55.4636 32.3985C54.4501 33.5251 53.1533 34.4014 51.571 35.0273C49.9897 35.6421 48.1801 35.9486 46.1432 35.9486ZM68.2469 0.47769V35.4368H62.068V0.47769H68.2469ZM73.6407 45.2689V9.21722H79.7174V13.5534H80.0759C80.3943 12.9155 80.844 12.2386 81.4238 11.5215C82.0046 10.7935 82.7898 10.1736 83.7802 9.66086C84.7696 9.13811 86.0335 8.87574 87.5697 8.87574C89.5946 8.87574 91.4211 9.39348 93.0485 10.429C94.6878 11.4534 95.9847 12.9726 96.9411 14.9875C97.9075 16.9904 98.3911 19.4479 98.3911 22.3611C98.3911 25.2402 97.9195 27.6867 96.9751 29.7016C96.0298 31.7155 94.7439 33.2517 93.1166 34.3102C91.4893 35.3687 89.6456 35.8975 87.5866 35.8975C86.0845 35.8975 84.8377 35.6471 83.8483 35.1464C82.8579 34.6457 82.0617 34.0428 81.4579 33.3368C80.866 32.6198 80.4053 31.9428 80.0759 31.3059H79.8195V45.2689H73.6407ZM79.7003 22.327C79.7003 24.0225 79.9387 25.5076 80.4174 26.7824C80.9061 28.0573 81.6061 29.0527 82.5164 29.7697C83.4387 30.4747 84.5533 30.8282 85.8622 30.8282C87.2281 30.8282 88.3718 30.4637 89.2931 29.7357C90.2154 28.9956 90.9094 27.9881 91.3761 26.7143C91.8538 25.4285 92.0931 23.9654 92.0931 22.327C92.0931 20.6997 91.8598 19.2546 91.3931 17.9918C90.9265 16.728 90.2324 15.7386 89.3101 15.0215C88.3888 14.3045 87.2392 13.946 85.8622 13.946C84.5423 13.946 83.4217 14.2925 82.4993 14.9875C81.578 15.6815 80.8781 16.6539 80.4004 17.9057C79.9337 19.1575 79.7003 20.6316 79.7003 22.327ZM121.229 35.9656C119.568 35.9656 118.07 35.6702 116.739 35.0783C115.42 34.4755 114.372 33.5872 113.599 32.4155C112.836 31.2428 112.455 29.7977 112.455 28.0793C112.455 26.6002 112.728 25.3774 113.274 24.41C113.82 23.4426 114.565 22.6685 115.511 22.0877C116.455 21.5079 117.519 21.0692 118.702 20.7738C119.897 20.4664 121.132 20.245 122.407 20.1078C123.943 19.9486 125.189 19.8064 126.145 19.6812C127.101 19.545 127.795 19.3397 128.228 19.0664C128.672 18.7819 128.893 18.3443 128.893 17.7525V17.6503C128.893 16.3645 128.512 15.368 127.749 14.663C126.987 13.957 125.889 13.6045 124.455 13.6045C122.941 13.6045 121.741 13.934 120.853 14.5949C119.977 15.2549 119.385 16.034 119.078 16.9333L113.309 16.1141C113.763 14.5208 114.514 13.1889 115.562 12.1194C116.608 11.0378 117.889 10.2307 119.402 9.69491C120.915 9.14912 122.589 8.87574 124.42 8.87574C125.684 8.87574 126.941 9.02395 128.193 9.31937C129.445 9.61579 130.588 10.1055 131.625 10.7875C132.66 11.4594 133.491 12.3758 134.116 13.5364C134.754 14.6971 135.073 16.1482 135.073 17.8887V35.4368H129.132V31.8347H128.927C128.551 32.5637 128.023 33.2457 127.34 33.8836C126.669 34.5095 125.821 35.0162 124.796 35.4028C123.784 35.7783 122.595 35.9656 121.229 35.9656ZM122.833 31.4251C124.074 31.4251 125.15 31.1807 126.06 30.691C126.97 30.1903 127.67 29.5304 128.159 28.7112C128.66 27.892 128.91 26.9987 128.91 26.0313V22.9419C128.717 23.1011 128.387 23.2494 127.921 23.3856C127.465 23.5217 126.953 23.6419 126.384 23.7441C125.814 23.8462 125.252 23.9373 124.694 24.0175C124.136 24.0966 123.652 24.1647 123.243 24.2217C122.321 24.3469 121.496 24.5522 120.768 24.8366C120.039 25.121 119.465 25.5196 119.044 26.0313C118.623 26.5321 118.412 27.181 118.412 27.9771C118.412 29.1158 118.827 29.974 119.659 30.5548C120.489 31.1357 121.547 31.4251 122.833 31.4251ZM146.504 20.0738V35.4368H140.324V9.21722H146.231V13.6726H146.538C147.141 12.2045 148.102 11.0378 149.422 10.1736C150.754 9.30835 152.399 8.87574 154.356 8.87574C156.165 8.87574 157.741 9.26329 159.084 10.0364C160.438 10.8105 161.486 11.9311 162.226 13.3992C162.977 14.8673 163.346 16.6489 163.335 18.7429V35.4368H157.155V19.6983C157.155 17.9457 156.701 16.5748 155.789 15.5844C154.891 14.5939 153.644 14.0992 152.051 14.0992C150.971 14.0992 150.009 14.3386 149.167 14.8163C148.336 15.2829 147.682 15.9599 147.204 16.8482C146.737 17.7354 146.504 18.811 146.504 20.0738ZM178.385 35.8975C176.325 35.8975 174.481 35.3687 172.854 34.3102C171.227 33.2517 169.941 31.7155 168.996 29.7016C168.052 27.6867 167.579 25.2402 167.579 22.3611C167.579 19.4479 168.058 16.9904 169.013 14.9875C169.981 12.9726 171.284 11.4534 172.923 10.429C174.561 9.39348 176.388 8.87574 178.402 8.87574C179.938 8.87574 181.202 9.13811 182.191 9.66086C183.182 10.1736 183.967 10.7935 184.548 11.5215C185.128 12.2386 185.577 12.9155 185.896 13.5534H186.152V0.47769H192.348V35.4368H186.271V31.3059H185.896C185.577 31.9428 185.117 32.6198 184.514 33.3368C183.91 34.0428 183.114 34.6457 182.123 35.1464C181.134 35.6471 179.887 35.8975 178.385 35.8975ZM180.109 30.8282C181.418 30.8282 182.533 30.4747 183.455 29.7697C184.377 29.0527 185.077 28.0573 185.554 26.7824C186.033 25.5076 186.271 24.0225 186.271 22.327C186.271 20.6316 186.033 19.1575 185.554 17.9057C185.088 16.6539 184.394 15.6815 183.472 14.9875C182.562 14.2925 181.44 13.946 180.109 13.946C178.732 13.946 177.583 14.3045 176.661 15.0215C175.739 15.7386 175.045 16.728 174.578 17.9918C174.112 19.2546 173.878 20.6997 173.878 22.327C173.878 23.9654 174.112 25.4285 174.578 26.7143C175.056 27.9881 175.756 28.9956 176.678 29.7357C177.611 30.4637 178.755 30.8282 180.109 30.8282ZM228.205 10.0885C228.046 8.59734 227.375 7.43668 226.191 6.60548C225.019 5.77529 223.495 5.35969 221.617 5.35969C220.296 5.35969 219.164 5.55897 218.22 5.95654C217.275 6.35511 216.553 6.8959 216.052 7.57888C215.551 8.26186 215.295 9.04097 215.284 9.91723C215.284 10.6453 215.449 11.2772 215.779 11.8119C216.12 12.3467 216.581 12.8024 217.162 13.1779C217.741 13.5414 218.384 13.8489 219.09 14.0992C219.795 14.3496 220.507 14.5599 221.224 14.7311L224.501 15.5503C225.822 15.8577 227.091 16.2733 228.308 16.7961C229.537 17.3199 230.635 17.9798 231.602 18.7769C232.582 19.5731 233.355 20.5345 233.924 21.6611C234.493 22.7877 234.778 24.1076 234.778 25.6218C234.778 27.6697 234.254 29.4733 233.208 31.0325C232.16 32.5807 230.647 33.7925 228.666 34.6687C226.698 35.534 224.314 35.9656 221.514 35.9656C218.794 35.9656 216.433 35.545 214.431 34.7028C212.439 33.8606 210.88 32.6318 209.753 31.0155C208.637 29.4002 208.034 27.4314 207.943 25.11H214.174C214.265 26.3268 214.641 27.3402 215.301 28.1484C215.961 28.9555 216.82 29.5594 217.879 29.957C218.948 30.3555 220.143 30.5548 221.463 30.5548C222.84 30.5548 224.046 30.3495 225.082 29.94C226.128 29.5194 226.949 28.9385 227.539 28.1995C228.131 27.4484 228.433 26.5721 228.445 25.5707C228.433 24.6604 228.165 23.9093 227.643 23.3174C227.119 22.7136 226.385 22.2129 225.44 21.8153C224.507 21.4057 223.414 21.0412 222.163 20.7227L218.186 19.6983C215.307 18.9582 213.031 17.8376 211.357 16.3354C209.696 14.8223 208.866 12.8134 208.866 10.3098C208.866 8.24983 209.423 6.44625 210.538 4.89903C211.665 3.35081 213.196 2.15008 215.13 1.29686C217.064 0.431617 219.256 0 221.702 0C224.183 0 226.357 0.431617 228.222 1.29686C230.1 2.15008 231.574 3.33979 232.644 4.86498C233.713 6.37815 234.265 8.11965 234.299 10.0885H228.205ZM255.9 24.41V9.21722H262.08V35.4368H256.088V30.7772H255.815C255.223 32.2443 254.251 33.445 252.896 34.3783C251.553 35.3117 249.897 35.7783 247.929 35.7783C246.21 35.7783 244.691 35.3968 243.371 34.6347C242.062 33.8606 241.038 32.74 240.299 31.2719C239.559 29.7927 239.189 28.0062 239.189 25.9122V9.21722H245.368V24.9558C245.368 26.6172 245.824 27.9371 246.734 28.9165C247.644 29.8949 248.839 30.3846 250.318 30.3846C251.228 30.3846 252.111 30.1623 252.964 29.7186C253.818 29.275 254.518 28.615 255.064 27.7378C255.622 26.8505 255.9 25.7409 255.9 24.41ZM267.473 45.2689V9.21722H273.549V13.5534H273.908C274.226 12.9155 274.676 12.2386 275.257 11.5215C275.837 10.7935 276.622 10.1736 277.612 9.66086C278.603 9.13811 279.865 8.87574 281.402 8.87574C283.428 8.87574 285.254 9.39348 286.882 10.429C288.52 11.4534 289.817 12.9726 290.773 14.9875C291.741 16.9904 292.224 19.4479 292.224 22.3611C292.224 25.2402 291.752 27.6867 290.807 29.7016C289.863 31.7155 288.577 33.2517 286.95 34.3102C285.322 35.3687 283.479 35.8975 281.419 35.8975C279.917 35.8975 278.671 35.6471 277.68 35.1464C276.69 34.6457 275.894 34.0428 275.291 33.3368C274.699 32.6198 274.238 31.9428 273.908 31.3059H273.652V45.2689H267.473ZM273.532 22.327C273.532 24.0225 273.772 25.5076 274.249 26.7824C274.739 28.0573 275.438 29.0527 276.349 29.7697C277.271 30.4747 278.386 30.8282 279.694 30.8282C281.06 30.8282 282.204 30.4637 283.126 29.7357C284.048 28.9956 284.741 27.9881 285.208 26.7143C285.686 25.4285 285.925 23.9654 285.925 22.327C285.925 20.6997 285.692 19.2546 285.225 17.9918C284.758 16.728 284.065 15.7386 283.143 15.0215C282.221 14.3045 281.071 13.946 279.694 13.946C278.374 13.946 277.254 14.2925 276.331 14.9875C275.41 15.6815 274.71 16.6539 274.232 17.9057C273.766 19.1575 273.532 20.6316 273.532 22.327ZM296.554 45.2689V9.21722H302.631V13.5534H302.99C303.308 12.9155 303.758 12.2386 304.339 11.5215C304.918 10.7935 305.704 10.1736 306.694 9.66086C307.684 9.13811 308.947 8.87574 310.483 8.87574C312.509 8.87574 314.336 9.39348 315.958 10.429C317.601 11.4534 318.902 12.9726 319.854 14.9875C320.825 16.9904 321.306 19.4479 321.306 22.3611C321.306 25.2402 320.835 27.6867 319.894 29.7016C318.943 31.7155 317.661 33.2517 316.028 34.3102C314.406 35.3687 312.56 35.8975 310.5 35.8975C308.998 35.8975 307.753 35.6471 306.762 35.1464C305.772 34.6457 304.976 34.0428 304.373 33.3368C303.781 32.6198 303.32 31.9428 302.99 31.3059H302.733V45.2689H296.554ZM302.614 22.327C302.614 24.0225 302.853 25.5076 303.331 26.7824C303.821 28.0573 304.52 29.0527 305.431 29.7697C306.352 30.4747 307.468 30.8282 308.776 30.8282C310.142 30.8282 311.286 30.4637 312.208 29.7357C313.129 28.9956 313.825 27.9881 314.286 26.7143C314.767 25.4285 315.007 23.9654 315.007 22.327C315.007 20.6997 314.777 19.2546 314.306 17.9918C313.845 16.728 313.146 15.7386 312.225 15.0215C311.303 14.3045 310.153 13.946 308.776 13.946C307.456 13.946 306.335 14.2925 305.414 14.9875C304.492 15.6815 303.792 16.6539 303.314 17.9057C302.847 19.1575 302.614 20.6316 302.614 22.327ZM337.069 35.9486C334.515 35.9486 332.292 35.3858 330.419 34.2592C328.536 33.1325 327.084 31.5563 326.043 29.5304C325.021 27.5055 324.511 25.1381 324.511 22.4292C324.511 19.7213 325.021 17.3479 326.043 15.311C327.084 13.274 328.536 11.6928 330.419 10.5662C332.292 9.43954 334.515 8.87574 337.069 8.87574C339.632 8.87574 341.855 9.43954 343.728 10.5662C345.611 11.6928 347.063 13.274 348.084 15.311C349.116 17.3479 349.637 19.7213 349.637 22.4292C349.637 25.1381 349.116 27.5055 348.084 29.5304C347.063 31.5563 345.611 33.1325 343.728 34.2592C341.855 35.3858 339.632 35.9486 337.069 35.9486ZM337.109 30.9985C338.491 30.9985 339.652 30.6169 340.594 29.8548C341.525 29.0807 342.216 28.0452 342.677 26.7484C343.137 25.4505 343.368 24.0054 343.368 22.4122C343.368 20.8079 343.137 19.3568 342.677 18.0599C342.216 16.751 341.525 15.7095 340.594 14.9354C339.652 14.1623 338.491 13.7748 337.109 13.7748C335.687 13.7748 334.505 14.1623 333.554 14.9354C332.622 15.7095 331.921 16.751 331.46 18.0599C331 19.3568 330.769 20.8079 330.769 22.4122C330.769 24.0054 331 25.4505 331.46 26.7484C331.921 28.0452 332.622 29.0807 333.554 29.8548C334.505 30.6169 335.687 30.9985 337.109 30.9985ZM353.923 35.4368V9.21722H359.911V13.5875H360.182C360.662 12.0733 361.484 10.9077 362.645 10.0885C363.817 9.25729 365.149 8.84168 366.651 8.84168C366.991 8.84168 367.372 8.85871 367.793 8.89276C368.233 8.91579 368.584 8.95585 368.874 9.01293V14.6971C368.614 14.6059 368.193 14.5258 367.622 14.4577C367.072 14.3786 366.531 14.3386 366.01 14.3386C364.878 14.3386 363.867 14.5829 362.966 15.0726C362.074 15.5503 361.383 16.2163 360.863 17.0695C360.352 17.9227 360.102 18.9071 360.102 20.0227V35.4368H353.923ZM386.519 9.21722V13.9971H371.448V9.21722H386.519ZM375.163 2.93521H381.342V27.5505C381.342 28.3817 381.472 29.0186 381.723 29.4623C381.983 29.8949 382.323 30.1903 382.744 30.3495C383.165 30.5098 383.635 30.5889 384.146 30.5889C384.537 30.5889 384.887 30.5608 385.208 30.5038C385.538 30.4467 385.788 30.3956 385.959 30.3495L387 35.1805C386.67 35.2946 386.189 35.4198 385.578 35.556C384.977 35.6932 384.236 35.7723 383.365 35.7954C381.813 35.8404 380.421 35.6071 379.179 35.0953C377.937 34.5716 376.956 33.7644 376.225 32.6719C375.504 31.5793 375.153 30.2133 375.163 28.575V2.93521Z" fill="#101828"/>
</svg>
