<svg width="185" height="12" viewBox="0 0 185 12" fill="none" xmlns="http://www.w3.org/2000/svg">
<path d="M3.6046 11.6801H0V0H3.7642C4.89748 0 5.86614 0.23388 6.67319 0.700642C7.47923 1.1654 8.09657 1.8319 8.52619 2.70319C8.95581 3.56946 9.17062 4.60837 9.17062 5.81693C9.17062 7.03352 8.95379 8.08146 8.52015 8.95977C8.08752 9.83407 7.45615 10.5067 6.62702 10.9784C5.7979 11.4462 4.79108 11.6801 3.6046 11.6801ZM1.41433 10.4253H3.51326C4.4789 10.4253 5.27892 10.2386 5.91431 9.8662C6.54871 9.4938 7.0225 8.96378 7.33468 8.27518C7.64585 7.58658 7.80245 6.76752 7.80245 5.81693C7.80245 4.87437 7.64787 4.06228 7.3397 3.38172C7.03154 2.69713 6.57181 2.17216 5.9595 1.80779C5.34719 1.43839 4.5853 1.25473 3.67285 1.25473H1.41433V10.4253ZM13.9386 11.8858C13.3835 11.8858 12.8796 11.7805 12.4269 11.5717C11.9752 11.3589 11.6158 11.0527 11.3498 10.6532C11.0828 10.2507 10.9503 9.76384 10.9503 9.19368C10.9503 8.69179 11.0487 8.28425 11.2464 7.97308C11.4442 7.65688 11.7092 7.40994 12.0394 7.23126C12.3707 7.05259 12.7351 6.92008 13.1346 6.83175C13.5381 6.7414 13.9426 6.66917 14.3492 6.61597C14.8822 6.5467 15.3128 6.49552 15.644 6.46139C15.9783 6.42325 16.2222 6.361 16.3738 6.27367C16.5304 6.18634 16.6077 6.03375 16.6077 5.81693V5.77178C16.6077 5.20865 16.4541 4.77099 16.1459 4.45982C15.8418 4.14764 15.38 3.99205 14.7597 3.99205C14.1173 3.99205 13.6134 4.13256 13.249 4.41363C12.8836 4.69569 12.6266 4.99583 12.4791 5.31504L11.2013 4.85934C11.4291 4.32633 11.7333 3.91175 12.1137 3.61563C12.4982 3.3155 12.9158 3.10571 13.3685 2.98826C13.8252 2.86681 14.2728 2.80557 14.7145 2.80557C14.9956 2.80557 15.3188 2.83969 15.6842 2.90794C16.0526 2.97319 16.4079 3.10769 16.7502 3.31347C17.0965 3.51824 17.3836 3.82843 17.6115 4.243C17.8403 4.65756 17.9538 5.21265 17.9538 5.90828V11.6801H16.6077V10.4936H16.5394C16.4481 10.6843 16.2965 10.8871 16.0837 11.1039C15.8699 11.3207 15.5868 11.5054 15.2335 11.657C14.8802 11.8095 14.4485 11.8858 13.9386 11.8858ZM14.1444 10.6763C14.6764 10.6763 15.1251 10.5719 15.4905 10.3631C15.8588 10.1533 16.1369 9.88326 16.3226 9.55301C16.5133 9.22176 16.6077 8.87447 16.6077 8.50909V7.27746C16.5505 7.34571 16.425 7.40796 16.2313 7.46518C16.0415 7.51838 15.8207 7.56653 15.5698 7.60768C15.3228 7.64583 15.0809 7.67995 14.846 7.71006C14.6131 7.73716 14.4254 7.76028 14.2809 7.77935C13.9316 7.82452 13.6043 7.89881 13.3002 8.0012C13 8.10057 12.7561 8.25011 12.5704 8.45187C12.3877 8.64962 12.2964 8.91964 12.2964 9.26193C12.2964 9.7297 12.469 10.083 12.8154 10.3229C13.1647 10.5588 13.6083 10.6763 14.1444 10.6763ZM24.2204 2.92001V4.0603H19.6803V2.92001H24.2204ZM21.0033 0.821091H22.3493V9.17059C22.3493 9.55102 22.4046 9.83609 22.515 10.0258C22.6294 10.2125 22.7739 10.338 22.9486 10.4022C23.1273 10.4635 23.316 10.4936 23.5127 10.4936C23.6613 10.4936 23.7828 10.4865 23.8781 10.4705C23.9735 10.4524 24.0498 10.4364 24.106 10.4253L24.38 11.6349C24.2887 11.669 24.1612 11.7031 23.9976 11.7373C23.8349 11.7754 23.6272 11.7945 23.3762 11.7945C22.9958 11.7945 22.6234 11.7122 22.258 11.5486C21.8976 11.385 21.5965 11.136 21.3576 10.8017C21.1217 10.4675 21.0033 10.0449 21.0033 9.53598V0.821091ZM28.8228 11.8858C28.2677 11.8858 27.7638 11.7805 27.3121 11.5717C26.8594 11.3589 26.5 11.0527 26.234 10.6532C25.968 10.2507 25.8345 9.76384 25.8345 9.19368C25.8345 8.69179 25.9329 8.28425 26.1306 7.97308C26.3283 7.65688 26.5934 7.40994 26.9236 7.23126C27.2549 7.05259 27.6192 6.92008 28.0187 6.83175C28.4223 6.7414 28.8268 6.66917 29.2333 6.61597C29.7663 6.5467 30.198 6.49552 30.5282 6.46139C30.8625 6.42325 31.1064 6.361 31.2579 6.27367C31.4145 6.18634 31.4918 6.03375 31.4918 5.81693V5.77178C31.4918 5.20865 31.3383 4.77099 31.0301 4.45982C30.726 4.14764 30.2642 3.99205 29.6439 3.99205C29.0014 3.99205 28.4975 4.13256 28.1332 4.41363C27.7678 4.69569 27.5108 4.99583 27.3633 5.31504L26.0854 4.85934C26.3133 4.32633 26.6174 3.91175 26.9979 3.61563C27.3823 3.3155 27.7999 3.10571 28.2526 2.98826C28.7093 2.86681 29.158 2.80557 29.5987 2.80557C29.8797 2.80557 30.203 2.83969 30.5683 2.90794C30.9367 2.97319 31.2921 3.10769 31.6344 3.31347C31.9807 3.51824 32.2678 3.82843 32.4956 4.243C32.7245 4.65756 32.8379 5.21265 32.8379 5.90828V11.6801H31.4918V10.4936H31.4236C31.3322 10.6843 31.1807 10.8871 30.9679 11.1039C30.7551 11.3207 30.471 11.5054 30.1176 11.657C29.7643 11.8095 29.3327 11.8858 28.8228 11.8858ZM29.0285 10.6763C29.5605 10.6763 30.0092 10.5719 30.3746 10.3631C30.743 10.1533 31.0211 9.88326 31.2068 9.55301C31.3975 9.22176 31.4918 8.87447 31.4918 8.50909V7.27746C31.4356 7.34571 31.3101 7.40796 31.1154 7.46518C30.9257 7.51838 30.7049 7.56653 30.4539 7.60768C30.207 7.64583 29.9661 7.67995 29.7302 7.71006C29.4983 7.73716 29.3096 7.76028 29.1651 7.77935C28.8157 7.82452 28.4885 7.89881 28.1843 8.0012C27.8842 8.10057 27.6403 8.25011 27.4546 8.45187C27.2719 8.64962 27.1806 8.91964 27.1806 9.26193C27.1806 9.7297 27.3532 10.083 27.6995 10.3229C28.0488 10.5588 28.4925 10.6763 29.0285 10.6763ZM35.4779 11.6801V0H36.823V4.31125H36.9374C37.0367 4.15968 37.1733 3.96496 37.3479 3.73008C37.5266 3.49017 37.7816 3.27734 38.1128 3.09064C38.4471 2.90092 38.8998 2.80557 39.4699 2.80557C40.2077 2.80557 40.8572 2.99029 41.4203 3.35868C41.9834 3.72807 42.4221 4.25003 42.7373 4.92759C43.0535 5.60414 43.211 6.40214 43.211 7.32261C43.211 8.25011 43.0535 9.05416 42.7373 9.73473C42.4221 10.4123 41.9844 10.9362 41.4263 11.3096C40.8672 11.678 40.2228 11.8628 39.493 11.8628C38.9299 11.8628 38.4792 11.7694 38.1409 11.5827C37.8026 11.393 37.5417 11.1781 37.36 10.9382C37.1773 10.6953 37.0367 10.4936 36.9374 10.334H36.7778V11.6801H35.4779ZM36.8009 7.29951C36.8009 7.96101 36.8972 8.54521 37.091 9.05112C37.2857 9.55301 37.5688 9.94652 37.9412 10.2316C38.3136 10.5127 38.7703 10.6532 39.3103 10.6532C39.8725 10.6532 40.3422 10.5056 40.7186 10.2085C41.0991 9.90837 41.3842 9.50487 41.5739 8.99996C41.7686 8.49004 41.865 7.92387 41.865 7.29951C41.865 6.68419 41.7696 6.1291 41.5799 5.63423C41.3932 5.13636 41.1101 4.74291 40.7297 4.45382C40.3533 4.16071 39.8805 4.01515 39.3103 4.01515C38.7623 4.01515 38.3025 4.15367 37.9301 4.43072C37.5567 4.70475 37.2757 5.08921 37.0859 5.58308C36.8952 6.07393 36.8009 6.64605 36.8009 7.29951ZM47.8475 11.8858C47.2925 11.8858 46.7886 11.7805 46.3368 11.5717C45.8841 11.3589 45.5248 11.0527 45.2588 10.6532C44.9928 10.2507 44.8593 9.76384 44.8593 9.19368C44.8593 8.69179 44.9587 8.28425 45.1564 7.97308C45.3541 7.65688 45.6181 7.40994 45.9484 7.23126C46.2796 7.05259 46.645 6.92008 47.0435 6.83175C47.447 6.7414 47.8516 6.66917 48.2581 6.61597C48.7911 6.5467 49.2227 6.49552 49.553 6.46139C49.8882 6.42325 50.1312 6.361 50.2837 6.27367C50.4393 6.18634 50.5166 6.03375 50.5166 5.81693V5.77178C50.5166 5.20865 50.363 4.77099 50.0549 4.45982C49.7507 4.14764 49.289 3.99205 48.6697 3.99205C48.0262 3.99205 47.5233 4.13256 47.1579 4.41363C46.7926 4.69569 46.5366 4.99583 46.388 5.31504L45.1102 4.85934C45.3381 4.32633 45.6422 3.91175 46.0226 3.61563C46.4071 3.3155 46.8247 3.10571 47.2774 2.98826C47.7341 2.86681 48.1828 2.80557 48.6235 2.80557C48.9045 2.80557 49.2277 2.83969 49.5931 2.90794C49.9615 2.97319 50.3179 3.10769 50.6602 3.31347C51.0055 3.51824 51.2925 3.82843 51.5204 4.243C51.7493 4.65756 51.8627 5.21265 51.8627 5.90828V11.6801H50.5166V10.4936H50.4483C50.357 10.6843 50.2054 10.8871 49.9926 11.1039C49.7798 11.3207 49.4957 11.5054 49.1424 11.657C48.7891 11.8095 48.3575 11.8858 47.8475 11.8858ZM48.0533 10.6763C48.5853 10.6763 49.034 10.5719 49.3994 10.3631C49.7678 10.1533 50.0458 9.88326 50.2315 9.55301C50.4223 9.22176 50.5166 8.87447 50.5166 8.50909V7.27746C50.4604 7.34571 50.3349 7.40796 50.1402 7.46518C49.9505 7.51838 49.7297 7.56653 49.4787 7.60768C49.2318 7.64583 48.9909 7.67995 48.755 7.71006C48.5231 7.73716 48.3344 7.76028 48.1898 7.77935C47.8405 7.82452 47.5133 7.89881 47.2091 8.0012C46.909 8.10057 46.6651 8.25011 46.4794 8.45187C46.2967 8.64962 46.2053 8.91964 46.2053 9.26193C46.2053 9.7297 46.378 10.083 46.7243 10.3229C47.0746 10.5588 47.5173 10.6763 48.0533 10.6763ZM60.5254 4.88139L59.3158 5.22369C59.2395 5.02193 59.1281 4.82617 58.9795 4.63645C58.835 4.44272 58.6373 4.28313 58.3863 4.15765C58.1354 4.03218 57.8142 3.96895 57.4227 3.96895C56.8867 3.96895 56.4399 4.09241 56.0826 4.34035C55.7283 4.58327 55.5516 4.89346 55.5516 5.26988C55.5516 5.60414 55.6731 5.86814 55.917 6.06187C56.1599 6.25661 56.5403 6.41819 57.0573 6.54667L58.3582 6.86691C59.1411 7.05663 59.7244 7.34768 60.1088 7.73916C60.4923 8.12662 60.685 8.62653 60.685 9.23884C60.685 9.74073 60.5404 10.1894 60.2513 10.5849C59.9663 10.9804 59.5668 11.2926 59.0538 11.5205C58.5399 11.7483 57.9436 11.8628 57.263 11.8628C56.3697 11.8628 55.6299 11.669 55.0437 11.2805C54.4585 10.8931 54.0881 10.3269 53.9315 9.58113L55.2093 9.26193C55.3308 9.73371 55.5617 10.0871 55.8999 10.3229C56.2422 10.5588 56.6889 10.6763 57.24 10.6763C57.8673 10.6763 58.3652 10.5428 58.7346 10.2767C59.107 10.0067 59.2927 9.68351 59.2927 9.30709C59.2927 9.00294 59.1863 8.749 58.9735 8.54322C58.7607 8.33443 58.4335 8.17784 57.9928 8.07545L56.5323 7.73316C55.7303 7.54344 55.1411 7.24832 54.7646 6.84982C54.3922 6.4463 54.2055 5.94241 54.2055 5.33813C54.2055 4.84327 54.3441 4.40661 54.6221 4.02618C54.9032 3.64574 55.2856 3.34759 55.7684 3.13077C56.2553 2.91395 56.8064 2.80557 57.4227 2.80557C58.2889 2.80557 58.9695 2.99528 59.4644 3.37571C59.9623 3.75615 60.3156 4.25804 60.5254 4.88139ZM66.3835 11.8628C65.5393 11.8628 64.8115 11.676 64.1992 11.3036C63.5909 10.9272 63.1212 10.4022 62.7909 9.7297C62.4637 9.05315 62.3001 8.26519 62.3001 7.36881C62.3001 6.47142 62.4637 5.68042 62.7909 4.99584C63.1212 4.30724 63.5819 3.77123 64.1711 3.38778C64.7644 2.99932 65.456 2.80557 66.247 2.80557C66.7027 2.80557 67.1534 2.88185 67.5991 3.03342C68.0438 3.18599 68.4483 3.43294 68.8136 3.77523C69.178 4.11351 69.4691 4.5622 69.6859 5.12131C69.9027 5.68042 70.0112 6.36802 70.0112 7.18611V7.75625H63.2587V6.59287H68.642C68.642 6.098 68.5436 5.65735 68.3459 5.26988C68.1521 4.88142 67.8741 4.57522 67.5127 4.35138C67.1554 4.12653 66.7338 4.01515 66.247 4.01515C65.7109 4.01515 65.2472 4.14762 64.8557 4.41363C64.4673 4.67662 64.1691 5.01892 63.9603 5.44051C63.7506 5.8631 63.6461 6.3148 63.6461 6.79762V7.57356C63.6461 8.23505 63.7606 8.7962 63.9884 9.25593C64.2203 9.71265 64.5415 10.0599 64.9521 10.2998C65.3626 10.5357 65.8404 10.6532 66.3835 10.6532C66.7378 10.6532 67.057 10.604 67.3421 10.5056C67.6312 10.4023 67.8801 10.2507 68.0889 10.0489C68.2977 9.84312 68.4593 9.58918 68.5737 9.28503L69.8747 9.64938C69.7371 10.091 69.5073 10.4785 69.184 10.8128C68.8608 11.144 68.4613 11.402 67.9865 11.5887C67.5107 11.7714 66.9767 11.8628 66.3835 11.8628ZM76.7586 11.6801V0H83.762V1.25473H78.173V5.20059H83.2371V6.45532H78.173V11.6801H76.7586ZM90.9732 8.09855V2.92001H92.3193V11.6801H90.9732V10.1975H90.8829C90.6771 10.6421 90.3579 11.0206 89.9243 11.3318C89.4907 11.6399 88.9436 11.7945 88.2821 11.7945C87.734 11.7945 87.2472 11.674 86.8216 11.4351C86.396 11.1912 86.0617 10.8268 85.8178 10.34C85.5749 9.84912 85.4524 9.23181 85.4524 8.486V2.92001H86.7985V8.39465C86.7985 9.03406 86.9772 9.54299 87.3345 9.92343C87.6959 10.3039 88.1566 10.4936 88.7147 10.4936C89.05 10.4936 89.3903 10.4083 89.7366 10.2366C90.0859 10.066 90.379 9.80399 90.6149 9.44965C90.8538 9.09632 90.9732 8.64561 90.9732 8.09855ZM96.1307 6.41017V11.6801H94.7846V2.92001H96.0855V4.28815H96.199C96.4047 3.84347 96.7169 3.48613 97.1345 3.21611C97.5531 2.94208 98.0931 2.80557 98.7546 2.80557C99.3479 2.80557 99.8668 2.92704 100.311 3.17096C100.756 3.40986 101.102 3.77524 101.349 4.2661C101.596 4.75193 101.72 5.36826 101.72 6.11407V11.6801H100.375V6.20438C100.375 5.51678 100.195 4.98077 99.8377 4.59632C99.4803 4.20886 98.9905 4.01515 98.3671 4.01515C97.9365 4.01515 97.5531 4.10751 97.2148 4.29422C96.8795 4.48092 96.6155 4.75193 96.4218 5.11028C96.2281 5.46763 96.1307 5.90025 96.1307 6.41017ZM107.488 11.8628C106.758 11.8628 106.113 11.678 105.554 11.3096C104.995 10.9362 104.558 10.4123 104.242 9.73473C103.927 9.05416 103.77 8.25011 103.77 7.32261C103.77 6.40214 103.927 5.60414 104.242 4.92759C104.558 4.25003 104.997 3.72807 105.56 3.35868C106.122 2.99029 106.773 2.80557 107.511 2.80557C108.081 2.80557 108.532 2.90092 108.862 3.09064C109.197 3.27734 109.452 3.49017 109.627 3.73008C109.805 3.96496 109.944 4.15968 110.043 4.31125H110.157V0H111.503V11.6801H110.203V10.334H110.043C109.944 10.4936 109.803 10.6953 109.621 10.9382C109.438 11.1781 109.178 11.393 108.84 11.5827C108.501 11.7694 108.051 11.8628 107.488 11.8628ZM107.67 10.6532C108.21 10.6532 108.666 10.5127 109.039 10.2316C109.412 9.94652 109.695 9.55301 109.889 9.05112C110.082 8.54521 110.18 7.96101 110.18 7.29951C110.18 6.64605 110.084 6.07393 109.895 5.58308C109.704 5.08921 109.423 4.70475 109.05 4.43072C108.678 4.15367 108.217 4.01515 107.67 4.01515C107.1 4.01515 106.624 4.16071 106.245 4.45382C105.868 4.74291 105.584 5.13636 105.395 5.63423C105.208 6.1291 105.116 6.68419 105.116 7.29951C105.116 7.92387 105.21 8.49004 105.401 8.99996C105.594 9.50487 105.879 9.90837 106.256 10.2085C106.636 10.5056 107.107 10.6532 107.67 10.6532ZM116.732 11.8858C116.177 11.8858 115.673 11.7805 115.222 11.5717C114.769 11.3589 114.41 11.0527 114.144 10.6532C113.878 10.2507 113.744 9.76384 113.744 9.19368C113.744 8.69179 113.844 8.28425 114.041 7.97308C114.239 7.65688 114.503 7.40994 114.833 7.23126C115.165 7.05259 115.53 6.92008 115.928 6.83175C116.332 6.7414 116.736 6.66917 117.143 6.61597C117.676 6.5467 118.108 6.49552 118.438 6.46139C118.773 6.42325 119.016 6.361 119.169 6.27367C119.324 6.18634 119.401 6.03375 119.401 5.81693V5.77178C119.401 5.20865 119.248 4.77099 118.94 4.45982C118.636 4.14764 118.174 3.99205 117.555 3.99205C116.911 3.99205 116.408 4.13256 116.043 4.41363C115.677 4.69569 115.421 4.99583 115.273 5.31504L113.995 4.85934C114.223 4.32633 114.527 3.91175 114.908 3.61563C115.292 3.3155 115.71 3.10571 116.162 2.98826C116.619 2.86681 117.068 2.80557 117.508 2.80557C117.789 2.80557 118.113 2.83969 118.478 2.90794C118.846 2.97319 119.203 3.10769 119.545 3.31347C119.89 3.51824 120.177 3.82843 120.405 4.243C120.634 4.65756 120.748 5.21265 120.748 5.90828V11.6801H119.401V10.4936H119.333C119.242 10.6843 119.09 10.8871 118.878 11.1039C118.665 11.3207 118.381 11.5054 118.027 11.657C117.674 11.8095 117.242 11.8858 116.732 11.8858ZM116.938 10.6763C117.47 10.6763 117.919 10.5719 118.284 10.3631C118.653 10.1533 118.931 9.88326 119.116 9.55301C119.307 9.22176 119.401 8.87447 119.401 8.50909V7.27746C119.345 7.34571 119.22 7.40796 119.025 7.46518C118.835 7.51838 118.615 7.56653 118.364 7.60768C118.117 7.64583 117.876 7.67995 117.64 7.71006C117.408 7.73716 117.219 7.76028 117.075 7.77935C116.725 7.82452 116.398 7.89881 116.094 8.0012C115.794 8.10057 115.55 8.25011 115.364 8.45187C115.182 8.64962 115.09 8.91964 115.09 9.26193C115.09 9.7297 115.263 10.083 115.609 10.3229C115.96 10.5588 116.402 10.6763 116.938 10.6763ZM123.205 11.6801V2.92001H124.505V4.28815H124.619C124.802 3.82039 125.096 3.45806 125.504 3.19908C125.91 2.93709 126.399 2.80557 126.969 2.80557C127.547 2.80557 128.028 2.93709 128.411 3.19908C128.8 3.45806 129.102 3.82039 129.319 4.28815H129.41C129.634 3.83645 129.97 3.47712 130.419 3.21011C130.868 2.94109 131.406 2.80557 132.033 2.80557C132.817 2.80557 133.458 3.05052 133.955 3.54138C134.453 4.02821 134.702 4.78704 134.702 5.81693V11.6801H133.356V5.81693C133.356 5.17049 133.179 4.70877 132.826 4.43072C132.473 4.15367 132.056 4.01515 131.577 4.01515C130.961 4.01515 130.484 4.20082 130.146 4.57322C129.807 4.94262 129.638 5.41039 129.638 5.97653V11.6801H128.269V5.68043C128.269 5.18255 128.107 4.781 127.784 4.47685C127.461 4.16869 127.045 4.01515 126.535 4.01515C126.186 4.01515 125.859 4.10751 125.555 4.29422C125.255 4.48092 125.011 4.73884 124.824 5.07009C124.642 5.39733 124.551 5.77476 124.551 6.20438V11.6801H123.205ZM140.836 11.8628C139.992 11.8628 139.264 11.676 138.652 11.3036C138.044 10.9272 137.574 10.4022 137.244 9.7297C136.917 9.05315 136.753 8.26519 136.753 7.36881C136.753 6.47142 136.917 5.68042 137.244 4.99584C137.574 4.30724 138.035 3.77123 138.624 3.38778C139.217 2.99932 139.909 2.80557 140.7 2.80557C141.156 2.80557 141.606 2.88185 142.051 3.03342C142.497 3.18599 142.901 3.43294 143.267 3.77523C143.631 4.11351 143.922 4.5622 144.139 5.12131C144.356 5.68042 144.464 6.36802 144.464 7.18611V7.75625H137.712V6.59287H143.095C143.095 6.098 142.997 5.65735 142.799 5.26988C142.605 4.88142 142.327 4.57522 141.966 4.35138C141.608 4.12653 141.187 4.01515 140.7 4.01515C140.164 4.01515 139.7 4.14762 139.308 4.41363C138.92 4.67662 138.622 5.01892 138.412 5.44051C138.203 5.8631 138.099 6.3148 138.099 6.79762V7.57356C138.099 8.23505 138.213 8.7962 138.441 9.25593C138.673 9.71265 138.994 10.0599 139.405 10.2998C139.816 10.5357 140.293 10.6532 140.836 10.6532C141.19 10.6532 141.51 10.604 141.795 10.5056C142.084 10.4023 142.333 10.2507 142.542 10.0489C142.751 9.84312 142.912 9.58918 143.027 9.28503L144.327 9.64938C144.19 10.091 143.96 10.4785 143.637 10.8128C143.314 11.144 142.914 11.402 142.439 11.5887C141.964 11.7714 141.43 11.8628 140.836 11.8628ZM147.857 6.41017V11.6801H146.512V2.92001H147.812V4.28815H147.926C148.131 3.84347 148.443 3.48613 148.861 3.21611C149.279 2.94208 149.819 2.80557 150.481 2.80557C151.074 2.80557 151.593 2.92704 152.038 3.17096C152.482 3.40986 152.829 3.77524 153.076 4.2661C153.323 4.75193 153.447 5.36826 153.447 6.11407V11.6801H152.101V6.20438C152.101 5.51678 151.922 4.98077 151.565 4.59632C151.207 4.20886 150.717 4.01515 150.093 4.01515C149.664 4.01515 149.279 4.10751 148.941 4.29422C148.607 4.48092 148.342 4.75193 148.148 5.11028C147.954 5.46763 147.857 5.90025 147.857 6.41017ZM159.716 2.92001V4.0603H155.176V2.92001H159.716ZM156.499 0.821091H157.846V9.17059C157.846 9.55102 157.901 9.83609 158.011 10.0258C158.125 10.2125 158.269 10.338 158.444 10.4022C158.622 10.4635 158.811 10.4936 159.009 10.4936C159.157 10.4936 159.279 10.4865 159.374 10.4705C159.469 10.4524 159.545 10.4364 159.602 10.4253L159.876 11.6349C159.785 11.669 159.657 11.7031 159.494 11.7373C159.33 11.7754 159.123 11.7945 158.872 11.7945C158.492 11.7945 158.12 11.7122 157.754 11.5486C157.393 11.385 157.093 11.136 156.853 10.8017C156.617 10.4675 156.499 10.0449 156.499 9.53598V0.821091ZM164.319 11.8858C163.764 11.8858 163.26 11.7805 162.807 11.5717C162.355 11.3589 161.995 11.0527 161.729 10.6532C161.463 10.2507 161.33 9.76384 161.33 9.19368C161.33 8.69179 161.429 8.28425 161.627 7.97308C161.825 7.65688 162.089 7.40994 162.42 7.23126C162.75 7.05259 163.115 6.92008 163.515 6.83175C163.917 6.7414 164.322 6.66917 164.73 6.61597C165.262 6.5467 165.693 6.49552 166.024 6.46139C166.359 6.42325 166.602 6.361 166.754 6.27367C166.91 6.18634 166.988 6.03375 166.988 5.81693V5.77178C166.988 5.20865 166.833 4.77099 166.526 4.45982C166.221 4.14764 165.759 3.99205 165.14 3.99205C164.498 3.99205 163.994 4.13256 163.628 4.41363C163.264 4.69569 163.007 4.99583 162.858 5.31504L161.581 4.85934C161.81 4.32633 162.114 3.91175 162.493 3.61563C162.878 3.3155 163.296 3.10571 163.748 2.98826C164.205 2.86681 164.653 2.80557 165.094 2.80557C165.376 2.80557 165.699 2.83969 166.064 2.90794C166.433 2.97319 166.788 3.10769 167.131 3.31347C167.476 3.51824 167.763 3.82843 167.992 4.243C168.22 4.65756 168.334 5.21265 168.334 5.90828V11.6801H166.988V10.4936H166.92C166.828 10.6843 166.676 10.8871 166.463 11.1039C166.25 11.3207 165.967 11.5054 165.613 11.657C165.26 11.8095 164.828 11.8858 164.319 11.8858ZM164.524 10.6763C165.056 10.6763 165.504 10.5719 165.87 10.3631C166.239 10.1533 166.516 9.88326 166.703 9.55301C166.893 9.22176 166.988 8.87447 166.988 8.50909V7.27746C166.931 7.34571 166.805 7.40796 166.612 7.46518C166.421 7.51838 166.201 7.56653 165.95 7.60768C165.702 7.64583 165.461 7.67995 165.225 7.71006C164.994 7.73716 164.805 7.76028 164.661 7.77935C164.311 7.82452 163.984 7.89881 163.68 8.0012C163.379 8.10057 163.137 8.25011 162.95 8.45187C162.767 8.64962 162.676 8.91964 162.676 9.26193C162.676 9.7297 162.849 10.083 163.195 10.3229C163.545 10.5588 163.988 10.6763 164.524 10.6763ZM172.136 0V11.6801H170.79V0H172.136ZM180.807 4.88139L179.598 5.22369C179.521 5.02193 179.41 4.82617 179.261 4.63645C179.117 4.44272 178.919 4.28313 178.668 4.15765C178.417 4.03218 178.096 3.96895 177.704 3.96895C177.168 3.96895 176.722 4.09241 176.364 4.34035C176.01 4.58327 175.833 4.89346 175.833 5.26988C175.833 5.60414 175.955 5.86814 176.199 6.06187C176.442 6.25661 176.822 6.41819 177.339 6.54667L178.64 6.86691C179.423 7.05663 180.006 7.34768 180.391 7.73916C180.775 8.12662 180.967 8.62653 180.967 9.23884C180.967 9.74073 180.822 10.1894 180.533 10.5849C180.248 10.9804 179.849 11.2926 179.336 11.5205C178.823 11.7483 178.225 11.8628 177.545 11.8628C176.652 11.8628 175.912 11.669 175.327 11.2805C174.74 10.8931 174.37 10.3269 174.214 9.58113L175.491 9.26193C175.614 9.73371 175.843 10.0871 176.182 10.3229C176.524 10.5588 176.971 10.6763 177.522 10.6763C178.149 10.6763 178.647 10.5428 179.016 10.2767C179.389 10.0067 179.576 9.68351 179.576 9.30709C179.576 9.00294 179.468 8.749 179.255 8.54322C179.043 8.33443 178.715 8.17784 178.275 8.07545L176.815 7.73316C176.012 7.54344 175.423 7.24832 175.046 6.84982C174.674 6.4463 174.487 5.94241 174.487 5.33813C174.487 4.84327 174.627 4.40661 174.904 4.02618C175.185 3.64574 175.567 3.34759 176.05 3.13077C176.537 2.91395 177.088 2.80557 177.704 2.80557C178.572 2.80557 179.252 2.99528 179.746 3.37571C180.244 3.75615 180.597 4.25804 180.807 4.88139ZM183.974 11.7714C183.692 11.7714 183.451 11.671 183.249 11.4692C183.048 11.2675 182.947 11.0256 182.947 10.7445C182.947 10.4635 183.048 10.2215 183.249 10.0208C183.451 9.81902 183.692 9.71763 183.974 9.71763C184.255 9.71763 184.496 9.81902 184.698 10.0208C184.9 10.2215 185 10.4635 185 10.7445C185 10.9312 184.953 11.1019 184.857 11.2585C184.766 11.4141 184.643 11.5395 184.487 11.6349C184.335 11.7252 184.164 11.7714 183.974 11.7714Z" fill="#475467"/>
</svg>
