<svg width="133" height="47" viewBox="0 0 133 47" fill="none" xmlns="http://www.w3.org/2000/svg">
<g filter="url(#filter0_d_2_10845)">
<path d="M125.5 0H7.5C3.35786 0 0 3.35786 0 7.5V39.5C0 43.6421 3.35786 47 7.5 47H125.5C129.642 47 133 43.6421 133 39.5V7.5C133 3.35786 129.642 0 125.5 0Z" stroke="#4D7ADD"/>
<path d="M28.4431 21.58C28.3481 21.273 28.2181 20.998 28.0511 20.756C27.8881 20.509 27.6911 20.299 27.4601 20.125C27.2331 19.951 26.9721 19.82 26.6761 19.733C26.3811 19.642 26.0591 19.597 25.7101 19.597C25.0851 19.597 24.5281 19.754 24.0401 20.068C23.5511 20.383 23.167 20.845 22.886 21.455C22.61 22.061 22.472 22.799 22.472 23.67C22.472 24.549 22.61 25.294 22.886 25.903C23.163 26.513 23.5471 26.977 24.0401 27.295C24.5321 27.61 25.1041 27.767 25.7561 27.767C26.3471 27.767 26.8581 27.653 27.2901 27.426C27.7251 27.199 28.0611 26.877 28.2951 26.46C28.5301 26.04 28.6481 25.547 28.6481 24.983L29.1251 25.057H25.9661V23.409H30.6871V24.807C30.6871 25.803 30.4751 26.665 30.0511 27.392C29.6271 28.119 29.0441 28.68 28.3011 29.074C27.5591 29.464 26.706 29.659 25.744 29.659C24.672 29.659 23.7311 29.419 22.9201 28.938C22.1141 28.453 21.4831 27.765 21.0281 26.875C20.5781 25.981 20.3521 24.92 20.3521 23.693C20.3521 22.754 20.4851 21.915 20.7501 21.176C21.0191 20.438 21.3941 19.811 21.8751 19.295C22.3561 18.777 22.9201 18.383 23.5681 18.114C24.2161 17.841 24.9201 17.705 25.6821 17.705C26.3261 17.705 26.9261 17.799 27.4831 17.989C28.0401 18.174 28.5341 18.439 28.9661 18.784C29.4021 19.129 29.7591 19.538 30.0401 20.011C30.3201 20.485 30.5041 21.008 30.5911 21.58H28.4431ZM36.4991 29.67C35.6241 29.67 34.8681 29.489 34.2321 29.125C33.5991 28.758 33.1121 28.239 32.7711 27.568C32.4301 26.894 32.2601 26.1 32.2601 25.188C32.2601 24.29 32.4301 23.502 32.7711 22.824C33.1161 22.142 33.5971 21.612 34.2141 21.233C34.8321 20.85 35.5571 20.659 36.3911 20.659C36.9291 20.659 37.4361 20.746 37.9131 20.92C38.3941 21.091 38.8191 21.356 39.1861 21.716C39.5571 22.076 39.8491 22.534 40.0611 23.091C40.2731 23.644 40.3791 24.303 40.3791 25.068V25.699H33.2261V24.312H38.4081C38.4041 23.919 38.3191 23.568 38.1521 23.261C37.9851 22.951 37.7521 22.706 37.4531 22.528C37.1581 22.35 36.8131 22.261 36.4191 22.261C35.9991 22.261 35.6291 22.364 35.3111 22.568C34.9931 22.769 34.745 23.034 34.567 23.364C34.393 23.689 34.304 24.047 34.3 24.438V25.648C34.3 26.155 34.3931 26.591 34.5781 26.955C34.7641 27.314 35.0231 27.591 35.3571 27.784C35.6901 27.973 36.0801 28.068 36.5271 28.068C36.8261 28.068 37.097 28.027 37.3391 27.943C37.5821 27.856 37.7921 27.729 37.9701 27.562C38.1481 27.396 38.2831 27.189 38.3741 26.943L40.2941 27.159C40.1731 27.667 39.9421 28.11 39.6011 28.489C39.2641 28.864 38.8321 29.155 38.3051 29.364C37.7791 29.568 37.1771 29.67 36.4991 29.67ZM46.4771 20.773V22.364H41.4601V20.773H46.4771ZM42.6991 18.682H44.7561V26.875C44.7561 27.152 44.7971 27.364 44.8811 27.511C44.9681 27.655 45.081 27.754 45.222 27.807C45.362 27.86 45.5171 27.886 45.6871 27.886C45.8161 27.886 45.9341 27.877 46.0401 27.858C46.1501 27.839 46.2331 27.822 46.2901 27.807L46.636 29.415C46.527 29.453 46.3691 29.494 46.1651 29.54C45.9641 29.585 45.7181 29.612 45.4261 29.619C44.9111 29.634 44.4471 29.557 44.0341 29.386C43.6211 29.212 43.2941 28.943 43.0511 28.58C42.8131 28.216 42.6951 27.761 42.6991 27.216V18.682ZM52.166 29.5V20.773H54.2231V29.5H52.166ZM53.2001 19.534C52.8751 19.534 52.5941 19.426 52.3591 19.21C52.1251 18.991 52.007 18.727 52.007 18.42C52.007 18.11 52.1251 17.847 52.3591 17.631C52.5941 17.411 52.8751 17.301 53.2001 17.301C53.5301 17.301 53.81 17.411 54.041 17.631C54.276 17.847 54.3931 18.11 54.3931 18.42C54.3931 18.727 54.276 18.991 54.041 19.21C53.81 19.426 53.5301 19.534 53.2001 19.534ZM58.3951 24.386V29.5H56.3381V20.773H58.304V22.256H58.4061C58.6071 21.767 58.9271 21.379 59.3661 21.091C59.8101 20.803 60.3571 20.659 61.0091 20.659C61.6111 20.659 62.1351 20.788 62.5821 21.045C63.0331 21.303 63.3821 21.676 63.6281 22.165C63.8781 22.653 64.0011 23.246 63.9971 23.943V29.5H61.9401V24.261C61.9401 23.678 61.7891 23.222 61.4861 22.892C61.1871 22.562 60.7721 22.398 60.2411 22.398C59.8821 22.398 59.5621 22.477 59.2811 22.636C59.0051 22.792 58.7871 23.017 58.6281 23.312C58.4731 23.608 58.3951 23.966 58.3951 24.386ZM74.4151 20.773V22.364H69.3981V20.773H74.4151ZM70.636 18.682H72.6931V26.875C72.6931 27.152 72.7351 27.364 72.8181 27.511C72.9051 27.655 73.0191 27.754 73.1591 27.807C73.2991 27.86 73.4551 27.886 73.6251 27.886C73.7541 27.886 73.8711 27.877 73.9771 27.858C74.0871 27.839 74.1701 27.822 74.2271 27.807L74.5741 29.415C74.4641 29.453 74.3071 29.494 74.1021 29.54C73.9021 29.585 73.6551 29.612 73.3641 29.619C72.8481 29.634 72.384 29.557 71.972 29.386C71.559 29.212 71.2311 28.943 70.9891 28.58C70.7501 28.216 70.633 27.761 70.636 27.216V18.682ZM79.8481 29.67C78.9961 29.67 78.257 29.483 77.632 29.108C77.007 28.733 76.5221 28.208 76.1781 27.534C75.8371 26.86 75.666 26.072 75.666 25.17C75.666 24.269 75.8371 23.479 76.1781 22.801C76.5221 22.123 77.007 21.597 77.632 21.222C78.257 20.847 78.9961 20.659 79.8481 20.659C80.7001 20.659 81.4391 20.847 82.0641 21.222C82.6891 21.597 83.1721 22.123 83.5131 22.801C83.8571 23.479 84.0301 24.269 84.0301 25.17C84.0301 26.072 83.8571 26.86 83.5131 27.534C83.1721 28.208 82.6891 28.733 82.0641 29.108C81.4391 29.483 80.7001 29.67 79.8481 29.67ZM79.8591 28.023C80.3211 28.023 80.7081 27.896 81.0181 27.642C81.3291 27.384 81.5601 27.04 81.7121 26.608C81.8671 26.176 81.9451 25.695 81.9451 25.165C81.9451 24.631 81.8671 24.148 81.7121 23.716C81.5601 23.28 81.3291 22.934 81.0181 22.676C80.7081 22.419 80.3211 22.29 79.8591 22.29C79.3861 22.29 78.9921 22.419 78.6781 22.676C78.3671 22.934 78.1341 23.28 77.9791 23.716C77.8271 24.148 77.7511 24.631 77.7511 25.165C77.7511 25.695 77.8271 26.176 77.9791 26.608C78.1341 27.04 78.3671 27.384 78.6781 27.642C78.9921 27.896 79.3861 28.023 79.8591 28.023ZM91.3381 25.83V20.773H93.3951V29.5H91.4011V27.949H91.3101C91.1131 28.437 90.7891 28.837 90.3381 29.148C89.8911 29.458 89.3401 29.614 88.6851 29.614C88.1131 29.614 87.6071 29.487 87.1681 29.233C86.7321 28.975 86.3911 28.602 86.1451 28.114C85.8991 27.621 85.7761 27.027 85.7761 26.33V20.773H87.832V26.011C87.832 26.564 87.984 27.004 88.287 27.33C88.59 27.655 88.988 27.818 89.48 27.818C89.783 27.818 90.0771 27.744 90.3611 27.597C90.6451 27.449 90.8781 27.229 91.0601 26.938C91.2451 26.642 91.3381 26.273 91.3381 25.83ZM99.3171 29.67C98.4461 29.67 97.6971 29.479 97.0721 29.097C96.4511 28.714 95.9721 28.186 95.6351 27.511C95.3021 26.833 95.1351 26.053 95.1351 25.17C95.1351 24.284 95.3051 23.502 95.6461 22.824C95.9871 22.142 96.468 21.612 97.0891 21.233C97.7141 20.85 98.4531 20.659 99.3051 20.659C100.014 20.659 100.641 20.79 101.186 21.051C101.735 21.309 102.173 21.674 102.499 22.148C102.824 22.617 103.01 23.167 103.055 23.795H101.089C101.01 23.375 100.821 23.025 100.521 22.744C100.226 22.46 99.83 22.318 99.334 22.318C98.913 22.318 98.5441 22.432 98.2261 22.659C97.9081 22.883 97.6601 23.205 97.4821 23.625C97.3071 24.045 97.22 24.549 97.22 25.136C97.22 25.731 97.3071 26.242 97.4821 26.67C97.6561 27.095 97.9 27.422 98.2141 27.653C98.5331 27.881 98.906 27.994 99.334 27.994C99.637 27.994 99.9081 27.937 100.146 27.824C100.389 27.706 100.591 27.538 100.754 27.318C100.917 27.098 101.029 26.831 101.089 26.517H103.055C103.006 27.134 102.824 27.682 102.51 28.159C102.196 28.633 101.768 29.004 101.226 29.273C100.684 29.538 100.048 29.67 99.3171 29.67ZM106.801 24.386V29.5H104.744V17.864H106.756V22.256H106.858C107.063 21.763 107.379 21.375 107.807 21.091C108.239 20.803 108.788 20.659 109.455 20.659C110.061 20.659 110.589 20.786 111.04 21.04C111.491 21.294 111.839 21.665 112.085 22.153C112.335 22.642 112.46 23.239 112.46 23.943V29.5H110.403V24.261C110.403 23.674 110.252 23.218 109.949 22.892C109.65 22.562 109.229 22.398 108.687 22.398C108.324 22.398 107.998 22.477 107.71 22.636C107.426 22.792 107.203 23.017 107.04 23.312C106.881 23.608 106.801 23.966 106.801 24.386Z" fill="#1751D0"/>
</g>
<defs>
<filter id="filter0_d_2_10845" x="-2.5" y="-1.5" width="138" height="52" filterUnits="userSpaceOnUse" color-interpolation-filters="sRGB">
<feFlood flood-opacity="0" result="BackgroundImageFix"/>
<feColorMatrix in="SourceAlpha" type="matrix" values="0 0 0 0 0 0 0 0 0 0 0 0 0 0 0 0 0 0 127 0" result="hardAlpha"/>
<feOffset dy="1"/>
<feGaussianBlur stdDeviation="1"/>
<feColorMatrix type="matrix" values="0 0 0 0 0.0627451 0 0 0 0 0.0941176 0 0 0 0 0.156863 0 0 0 0.05 0"/>
<feBlend mode="normal" in2="BackgroundImageFix" result="effect1_dropShadow_2_10845"/>
<feBlend mode="normal" in="SourceGraphic" in2="effect1_dropShadow_2_10845" result="shape"/>
</filter>
</defs>
</svg>
