<svg width="568" height="18" viewBox="0 0 568 18" fill="none" xmlns="http://www.w3.org/2000/svg">
<path d="M11.0568 4.70496H9.47008C9.37598 4.24447 9.2118 3.84409 8.97755 3.50373C8.7473 3.15336 8.46601 2.86305 8.13266 2.63281C7.80431 2.39255 7.43993 2.21232 7.0385 2.09219C6.63808 1.97207 6.21961 1.91195 5.78415 1.91195C4.9913 1.91195 4.27254 2.11226 3.62786 2.51269C2.98818 2.91311 2.47865 3.50364 2.09824 4.28447C1.72284 5.0653 1.53563 6.02632 1.53563 7.15753C1.53563 8.29874 1.72284 9.24975 2.09824 10.0306C2.47865 10.8114 2.98818 11.4021 3.62786 11.8125C4.27254 12.2129 4.9913 12.4131 5.78415 12.4131C6.21961 12.4131 6.63808 12.3531 7.0385 12.233C7.43993 12.1129 7.80431 11.9327 8.13266 11.7024C8.46601 11.4622 8.7473 11.1718 8.97755 10.8215C9.2118 10.4711 9.37598 10.0707 9.47008 9.62023H11.0568C10.9376 10.2909 10.7204 10.8915 10.4041 11.4221C10.0888 11.9426 9.69631 12.3932 9.22681 12.7636C8.75731 13.134 8.23077 13.4143 7.64614 13.6045C7.06653 13.7947 6.44585 13.8948 5.78415 13.8948C4.66696 13.8948 3.6729 13.6244 2.80297 13.0739C1.93205 12.5333 1.24731 11.7525 0.748783 10.7414C0.249251 9.74035 0 8.54901 0 7.15753C0 5.77605 0.249251 4.58484 0.748783 3.58377C1.24731 2.5727 1.93205 1.79191 2.80297 1.25133C3.6729 0.700746 4.66696 0.43039 5.78415 0.43039C6.44585 0.43039 7.06653 0.530536 7.64614 0.720738C8.23077 0.910941 8.75731 1.19121 9.22681 1.5616C9.69631 1.93199 10.0888 2.38244 10.4041 2.90299C10.7204 3.43356 10.9376 4.03425 11.0568 4.70496ZM16.3094 13.9448C15.6857 13.9448 15.1211 13.8247 14.6136 13.5944C14.106 13.3542 13.7026 13.0138 13.4043 12.5633C13.1049 12.1128 12.9558 11.5622 12.9558 10.9215C12.9558 10.3609 13.0669 9.90047 13.2891 9.56011C13.5104 9.19973 13.8067 8.91946 14.1781 8.71925C14.5495 8.51903 14.9589 8.36881 15.4064 8.27872C15.8589 8.1686 16.3134 8.08851 16.7698 8.02845C17.3665 7.95837 17.851 7.89839 18.2224 7.85835C18.5978 7.8183 18.8711 7.74815 19.0413 7.64804C19.2165 7.54793 19.3035 7.37786 19.3035 7.13761V7.08751C19.3035 6.45683 19.1304 5.96634 18.785 5.61597C18.4436 5.26559 17.9261 5.08537 17.2304 5.08537C16.5096 5.08537 15.944 5.24552 15.5346 5.56586C15.1251 5.8762 14.8368 6.21657 14.6706 6.57695L13.2371 6.0664C13.4934 5.46576 13.8347 4.99523 14.2612 4.66488C14.6927 4.32452 15.1612 4.09432 15.6687 3.96418C16.1812 3.82403 16.6848 3.754 17.1793 3.754C17.4946 3.754 17.857 3.79404 18.2674 3.87412C18.6809 3.9442 19.0793 4.09431 19.4637 4.32455C19.8521 4.5548 20.1735 4.90521 20.4297 5.3657C20.686 5.8362 20.8142 6.45686 20.8142 7.23769V13.7146H19.3035V12.3832H19.2265C19.1244 12.5934 18.9542 12.8236 18.7149 13.0638C18.4757 13.3141 18.1583 13.5143 17.7619 13.6845C17.3645 13.8547 16.881 13.9448 16.3094 13.9448ZM16.5396 12.5934C17.1363 12.5934 17.6398 12.4733 18.0492 12.233C18.4637 12.0028 18.775 11.7024 18.9832 11.332C19.1974 10.9616 19.3035 10.5712 19.3035 10.1607V8.77925C19.2395 8.84932 19.0993 8.91948 18.8811 8.98956C18.6679 9.04962 18.4206 9.09958 18.1393 9.14964C17.862 9.18968 17.5907 9.22983 17.3264 9.25986C17.0662 9.28989 16.8549 9.31988 16.6928 9.3399C16.3003 9.38996 15.934 9.47004 15.5926 9.59017C15.2552 9.70029 14.9819 9.87047 14.7727 10.0907C14.5685 10.3109 14.4664 10.6213 14.4664 11.0017C14.4664 11.5223 14.6606 11.9226 15.048 12.1929C15.4404 12.4532 15.938 12.5934 16.5396 12.5934ZM25.0797 7.79822V13.7146H23.5701V3.88414H25.0286V5.4257H25.1568C25.387 4.92517 25.7374 4.52478 26.2059 4.21445C26.6754 3.91413 27.281 3.754 28.0238 3.754C28.6895 3.754 29.2712 3.89406 29.7707 4.16435C30.2692 4.43464 30.6577 4.84505 30.935 5.39564C31.2123 5.94623 31.3514 6.63703 31.3514 7.46792V13.7146H29.8408V7.568C29.8408 6.79718 29.6406 6.19661 29.2392 5.76615C28.8387 5.33569 28.2881 5.11543 27.5884 5.11543C27.1069 5.11543 26.6754 5.21548 26.296 5.4257C25.9206 5.63592 25.6243 5.9463 25.4061 6.34673C25.1888 6.74715 25.0797 7.22761 25.0797 7.79822ZM35.4417 0.610636V1.76189C35.4417 2.11226 35.3777 2.48265 35.2496 2.88308C35.1254 3.27349 34.9422 3.65379 34.6989 4.02418C34.4607 4.39458 34.1704 4.715 33.829 4.98529L33.0102 4.32455C33.2785 3.93414 33.5117 3.53376 33.7079 3.12332C33.9081 2.70287 34.0082 2.26233 34.0082 1.79183V0.610636H35.4417ZM41.9747 3.88414V5.16541H36.8813V3.88414H41.9747ZM38.3658 1.53154H39.8755V10.9015C39.8755 11.322 39.9375 11.6424 40.0617 11.8626C40.1898 12.0728 40.352 12.2129 40.5482 12.283C40.7484 12.3531 40.9596 12.3832 41.1809 12.3832C41.348 12.3832 41.4842 12.3731 41.5913 12.3531C41.6974 12.3331 41.7825 12.323 41.8466 12.303L42.1539 13.6645C42.0518 13.7045 41.9086 13.7446 41.7254 13.7747C41.5422 13.8247 41.309 13.8447 41.0277 13.8447C40.6013 13.8447 40.1828 13.7546 39.7734 13.5644C39.3679 13.3842 39.0316 13.1039 38.7623 12.7335C38.498 12.3531 38.3658 11.8826 38.3658 11.312V1.53154ZM53.6912 3.88414V5.16541H48.3925V3.88414H53.6912ZM49.9802 13.7146V2.5326C49.9802 1.962 50.1124 1.50159 50.3767 1.12119C50.6409 0.750795 50.9843 0.460398 51.4067 0.280206C51.8292 0.0900031 52.2747 0 52.7442 0C53.1156 0 53.4179 0.029988 53.6532 0.0800413C53.8874 0.140105 54.0626 0.200213 54.1777 0.250267L53.7422 1.5616C53.6652 1.53157 53.559 1.50156 53.4219 1.46152C53.2897 1.42147 53.1156 1.40139 52.8973 1.40139C52.3988 1.40139 52.0384 1.53154 51.8162 1.78181C51.5989 2.03207 51.4898 2.40256 51.4898 2.88308V13.7146H49.9802ZM55.8074 13.7146V3.88414H57.318V13.7146H55.8074ZM56.5752 2.2524C56.2809 2.2524 56.0277 2.15224 55.8134 1.95203C55.6052 1.74181 55.5001 1.50157 55.5001 1.22127C55.5001 0.940973 55.6052 0.700746 55.8134 0.500533C56.0277 0.30032 56.2809 0.200164 56.5752 0.200164C56.8696 0.200164 57.1218 0.30032 57.33 0.500533C57.5433 0.700746 57.6504 0.940973 57.6504 1.22127C57.6504 1.50157 57.5433 1.74181 57.33 1.95203C57.1218 2.15224 56.8696 2.2524 56.5752 2.2524ZM61.5936 7.79822V13.7146H60.084V3.88414H61.5425V5.4257H61.6707C61.9009 4.92517 62.2503 4.52478 62.7198 4.21445C63.1893 3.91413 63.7949 3.754 64.5367 3.754C65.2024 3.754 65.785 3.89406 66.2836 4.16435C66.7831 4.43464 67.1715 4.84505 67.4488 5.39564C67.7261 5.94623 67.8643 6.63703 67.8643 7.46792V13.7146H66.3547V7.568C66.3547 6.79718 66.1534 6.19661 65.753 5.76615C65.3516 5.33569 64.802 5.11543 64.1023 5.11543C63.6198 5.11543 63.1893 5.21548 62.8099 5.4257C62.4345 5.63592 62.1372 5.9463 61.92 6.34673C61.7027 6.74715 61.5936 7.22761 61.5936 7.79822ZM74.3352 13.9147C73.5163 13.9147 72.7935 13.7145 72.1659 13.2941C71.5392 12.8836 71.0487 12.293 70.6943 11.5322C70.3399 10.7714 70.1637 9.87046 70.1637 8.82935C70.1637 7.79825 70.3399 6.89735 70.6943 6.13654C71.0487 5.37573 71.5412 4.7951 72.1729 4.37465C72.8035 3.96422 73.5333 3.754 74.3612 3.754C75.0009 3.754 75.5064 3.86406 75.8778 4.07429C76.2532 4.28451 76.5385 4.52474 76.7347 4.79502C76.9359 5.0553 77.0911 5.27556 77.2022 5.44574H77.3304V0.610636H78.84V13.7146H77.3814V12.2029H77.2022C77.0911 12.3831 76.9329 12.6134 76.7287 12.8837C76.5235 13.154 76.2312 13.3942 75.8518 13.6045C75.4724 13.8147 74.9668 13.9147 74.3352 13.9147ZM74.5404 12.5633C75.146 12.5633 75.6576 12.4032 76.076 12.0928C76.4945 11.7725 76.8118 11.3321 77.029 10.7615C77.2473 10.2009 77.3554 9.54008 77.3554 8.79929C77.3554 8.06851 77.2493 7.42791 77.0361 6.87732C76.8228 6.31672 76.5065 5.88623 76.089 5.58591C75.6706 5.26556 75.154 5.11543 74.5404 5.11543C73.9007 5.11543 73.3672 5.27559 72.9407 5.60595C72.5182 5.9363 72.1999 6.37671 71.9867 6.9273C71.7785 7.4879 71.6733 8.10855 71.6733 8.79929C71.6733 9.50004 71.7804 10.1307 71.9937 10.7114C72.2109 11.272 72.5313 11.7224 72.9537 12.0628C73.3802 12.3931 73.9087 12.5633 74.5404 12.5633ZM91.1581 3.88414V5.16541H86.0647V3.88414H91.1581ZM87.5492 1.53154H89.0588V10.9015C89.0588 11.322 89.1209 11.6424 89.245 11.8626C89.3732 12.0728 89.5344 12.2129 89.7316 12.283C89.9318 12.3531 90.143 12.3832 90.3643 12.3832C90.5314 12.3832 90.6676 12.3731 90.7737 12.3531C90.8808 12.3331 90.9659 12.323 91.0299 12.303L91.3373 13.6645C91.2352 13.7045 91.092 13.7446 90.9088 13.7747C90.7246 13.8247 90.4924 13.8447 90.2111 13.8447C89.7846 13.8447 89.3662 13.7546 88.9567 13.5644C88.5513 13.3842 88.2149 13.1039 87.9457 12.7335C87.6814 12.3531 87.5492 11.8826 87.5492 11.312V1.53154ZM95.1513 7.79822V13.7146H93.6407V0.610636H95.1513V5.4257H95.2785C95.5097 4.91516 95.8551 4.51477 96.3156 4.21445C96.7801 3.91413 97.3987 3.754 98.1715 3.754C98.8413 3.754 99.4279 3.89406 99.9304 4.16435C100.434 4.42463 100.824 4.83515 101.102 5.38574C101.383 5.92632 101.524 6.62702 101.524 7.46792V13.7146H100.015V7.568C100.015 6.78717 99.8113 6.18659 99.4059 5.75613C99.0055 5.32567 98.4488 5.11543 97.7361 5.11543C97.2416 5.11543 96.7971 5.21548 96.4047 5.4257C96.0172 5.63592 95.7099 5.9463 95.4837 6.34673C95.2615 6.74715 95.1513 7.22761 95.1513 7.79822ZM108.407 13.9147C107.46 13.9147 106.644 13.7145 105.957 13.2941C105.274 12.8736 104.748 12.2831 104.376 11.5223C104.01 10.7715 103.827 9.88052 103.827 8.87945C103.827 7.86838 104.01 6.9874 104.376 6.21658C104.748 5.44576 105.264 4.84507 105.925 4.41461C106.591 3.97414 107.367 3.754 108.254 3.754C108.766 3.754 109.271 3.8441 109.771 4.01429C110.269 4.18447 110.724 4.46472 111.133 4.84513C111.543 5.22553 111.869 5.72607 112.112 6.35675C112.356 6.98742 112.478 7.75818 112.478 8.66915V9.30984H104.901V8.00853H110.942C110.942 7.44793 110.831 6.95731 110.609 6.52685C110.392 6.08638 110.08 5.74611 109.675 5.49584C109.273 5.23557 108.8 5.11543 108.254 5.11543C107.653 5.11543 107.132 5.26554 106.693 5.56586C106.258 5.85617 105.923 6.2366 105.689 6.71712C105.453 7.18762 105.336 7.69818 105.336 8.23876V9.10968C105.336 9.85047 105.464 10.4811 105.721 10.9917C105.981 11.5022 106.341 11.8926 106.802 12.1629C107.262 12.4331 107.798 12.5633 108.407 12.5633C108.805 12.5633 109.163 12.5033 109.483 12.3932C109.807 12.2831 110.086 12.1129 110.322 11.8827C110.556 11.6524 110.737 11.372 110.865 11.0316L112.324 11.4321C112.17 11.9326 111.912 12.3631 111.55 12.7436C111.187 13.1139 110.739 13.4043 110.205 13.6145C109.673 13.8147 109.073 13.9147 108.407 13.9147ZM122.735 13.9448C122.112 13.9448 121.546 13.8247 121.039 13.5944C120.531 13.3542 120.128 13.0138 119.83 12.5633C119.531 12.1128 119.382 11.5622 119.382 10.9215C119.382 10.3609 119.492 9.90047 119.715 9.56011C119.937 9.19973 120.233 8.91946 120.604 8.71925C120.975 8.51903 121.384 8.36881 121.833 8.27872C122.285 8.1686 122.739 8.08851 123.195 8.02845C123.793 7.95837 124.277 7.89839 124.648 7.85835C125.023 7.8183 125.296 7.74815 125.467 7.64804C125.642 7.54793 125.73 7.37786 125.73 7.13761V7.08751C125.73 6.45683 125.557 5.96634 125.211 5.61597C124.87 5.26559 124.351 5.08537 123.657 5.08537C122.935 5.08537 122.37 5.24552 121.961 5.56586C121.551 5.8762 121.263 6.21657 121.097 6.57695L119.663 6.0664C119.92 5.46576 120.26 4.99523 120.688 4.66488C121.118 4.32452 121.587 4.09432 122.095 3.96418C122.607 3.82403 123.11 3.754 123.605 3.754C123.921 3.754 124.283 3.79404 124.693 3.87412C125.106 3.9442 125.506 4.09431 125.889 4.32455C126.277 4.5548 126.6 4.90521 126.856 5.3657C127.111 5.8362 127.239 6.45686 127.239 7.23769V13.7146H125.73V12.3832H125.653C125.551 12.5934 125.38 12.8236 125.14 13.0638C124.902 13.3141 124.584 13.5143 124.187 13.6845C123.791 13.8547 123.306 13.9448 122.735 13.9448ZM122.965 12.5934C123.563 12.5934 124.066 12.4733 124.476 12.233C124.889 12.0028 125.2 11.7024 125.41 11.332C125.623 10.9616 125.73 10.5712 125.73 10.1607V8.77925C125.666 8.84932 125.525 8.91948 125.307 8.98956C125.094 9.04962 124.846 9.09958 124.565 9.14964C124.287 9.18968 124.017 9.22983 123.752 9.25986C123.491 9.28989 123.281 9.31988 123.119 9.3399C122.727 9.38996 122.359 9.47004 122.018 9.59017C121.682 9.70029 121.408 9.87047 121.199 10.0907C120.994 10.3109 120.892 10.6213 120.892 11.0017C120.892 11.5223 121.086 11.9226 121.474 12.1929C121.867 12.4532 122.363 12.5934 122.965 12.5934ZM131.506 7.79822V13.7146H129.995V3.88414H131.455V5.4257H131.583C131.813 4.92517 132.163 4.52478 132.632 4.21445C133.102 3.91413 133.707 3.754 134.449 3.754C135.115 3.754 135.698 3.89406 136.196 4.16435C136.696 4.43464 137.084 4.84505 137.361 5.39564C137.639 5.94623 137.777 6.63703 137.777 7.46792V13.7146H136.267V7.568C136.267 6.79718 136.066 6.19661 135.665 5.76615C135.264 5.33569 134.714 5.11543 134.015 5.11543C133.532 5.11543 133.102 5.21548 132.721 5.4257C132.346 5.63592 132.05 5.9463 131.832 6.34673C131.615 6.74715 131.506 7.22761 131.506 7.79822ZM147.498 6.08644L146.142 6.46685C146.057 6.24661 145.93 6.02636 145.764 5.81613C145.602 5.5959 145.381 5.41567 145.099 5.27552C144.817 5.13537 144.457 5.06533 144.017 5.06533C143.416 5.06533 142.914 5.20552 142.514 5.4758C142.117 5.7561 141.918 6.09639 141.918 6.52685C141.918 6.89724 142.055 7.19757 142.329 7.40779C142.601 7.62803 143.027 7.80827 143.608 7.95843L145.067 8.3188C145.945 8.52902 146.6 8.84933 147.032 9.2898C147.462 9.73027 147.677 10.2909 147.677 10.9716C147.677 11.5423 147.515 12.0428 147.191 12.4833C146.871 12.9337 146.423 13.284 145.847 13.5343C145.272 13.7946 144.602 13.9147 143.838 13.9147C142.836 13.9147 142.006 13.7046 141.35 13.2641C140.692 12.8337 140.276 12.193 140.101 11.3621L141.535 11.0017C141.671 11.5323 141.929 11.9226 142.309 12.1929C142.693 12.4532 143.194 12.5934 143.812 12.5934C144.517 12.5934 145.076 12.4433 145.489 12.1429C145.907 11.8326 146.117 11.4721 146.117 11.0517C146.117 10.7113 145.997 10.421 145.758 10.1908C145.519 9.96054 145.153 9.79034 144.657 9.67021L143.019 9.2898C142.119 9.06957 141.458 8.73922 141.035 8.29876C140.618 7.83827 140.409 7.27772 140.409 6.59699C140.409 6.04641 140.564 5.55591 140.876 5.12545C141.191 4.70501 141.62 4.36464 142.161 4.12439C142.708 3.88413 143.327 3.754 144.017 3.754C144.99 3.754 145.753 3.97413 146.308 4.39457C146.867 4.82503 147.264 5.38569 147.498 6.08644ZM152.177 13.7146L149.183 3.88414H150.77L152.894 11.4121H152.997L155.095 3.88414H156.708L158.781 11.3821H158.883L161.008 3.88414H162.595L159.6 13.7146H158.115L155.966 6.16648H155.812L153.662 13.7146H152.177ZM168.378 13.9147C167.431 13.9147 166.613 13.7145 165.927 13.2941C165.245 12.8736 164.717 12.2831 164.347 11.5223C163.98 10.7715 163.796 9.88052 163.796 8.87945C163.796 7.86838 163.98 6.9874 164.347 6.21658C164.717 5.44576 165.234 4.84507 165.895 4.41461C166.56 3.97414 167.337 3.754 168.224 3.754C168.737 3.754 169.241 3.8441 169.741 4.01429C170.24 4.18447 170.694 4.46472 171.104 4.84513C171.514 5.22553 171.84 5.72607 172.083 6.35675C172.326 6.98742 172.448 7.75818 172.448 8.66915V9.30984H164.872V8.00853H170.912C170.912 7.44793 170.801 6.95731 170.579 6.52685C170.361 6.08638 170.05 5.74611 169.645 5.49584C169.244 5.23557 168.771 5.11543 168.224 5.11543C167.623 5.11543 167.102 5.26554 166.663 5.56586C166.228 5.85617 165.893 6.2366 165.658 6.71712C165.424 7.18762 165.306 7.69818 165.306 8.23876V9.10968C165.306 9.85047 165.434 10.4811 165.69 10.9917C165.951 11.5022 166.311 11.8926 166.772 12.1629C167.232 12.4331 167.768 12.5633 168.378 12.5633C168.775 12.5633 169.133 12.5033 169.452 12.3932C169.777 12.2831 170.056 12.1129 170.291 11.8827C170.526 11.6524 170.707 11.372 170.835 11.0316L172.294 11.4321C172.14 11.9326 171.882 12.3631 171.52 12.7436C171.157 13.1139 170.709 13.4043 170.176 13.6145C169.643 13.8147 169.043 13.9147 168.378 13.9147ZM174.745 13.7146V3.88414H176.204V5.3657H176.306C176.485 4.88519 176.809 4.48471 177.279 4.18439C177.748 3.88407 178.277 3.73396 178.866 3.73396C178.977 3.73396 179.115 3.73396 179.282 3.73396C179.448 3.74397 179.573 3.754 179.659 3.754V5.29556C179.608 5.28555 179.49 5.26559 179.307 5.23556C179.128 5.20552 178.939 5.19548 178.737 5.19548C178.26 5.19548 177.833 5.29563 177.458 5.49584C177.087 5.68605 176.792 5.95627 176.575 6.30664C176.362 6.65702 176.255 7.0475 176.255 7.49798V13.7146H174.745ZM187.49 17.3985C187.233 17.3985 187.005 17.3785 186.805 17.3384C186.605 17.2984 186.466 17.2583 186.39 17.2183L186.773 15.8869C187.14 15.987 187.464 16.017 187.746 15.997C188.027 15.967 188.277 15.8368 188.495 15.6166C188.716 15.3964 188.919 15.0359 189.102 14.5354L189.384 13.7647L185.749 3.88414H187.388L190.1 11.7224H190.203L192.915 3.88414H194.554L190.382 15.1461C190.195 15.6567 189.961 16.077 189.684 16.4074C189.407 16.7477 189.085 16.998 188.718 17.1582C188.356 17.3183 187.946 17.3985 187.49 17.3985ZM200.188 13.9147C199.301 13.9147 198.522 13.7045 197.853 13.284C197.187 12.8636 196.666 12.2731 196.291 11.5123C195.921 10.7515 195.734 9.87048 195.734 8.84939C195.734 7.8283 195.921 6.9373 196.291 6.16648C196.666 5.40567 197.187 4.81502 197.853 4.39457C198.522 3.96411 199.301 3.754 200.188 3.754C201.075 3.754 201.852 3.96411 202.518 4.39457C203.187 4.81502 203.708 5.40567 204.078 6.16648C204.454 6.9373 204.642 7.8283 204.642 8.84939C204.642 9.87048 204.454 10.7515 204.078 11.5123C203.708 12.2731 203.187 12.8636 202.518 13.284C201.852 13.7045 201.075 13.9147 200.188 13.9147ZM200.188 12.5633C200.862 12.5633 201.417 12.3931 201.852 12.0427C202.287 11.7024 202.609 11.2419 202.818 10.6813C203.027 10.1207 203.131 9.51009 203.131 8.84939C203.131 8.1987 203.027 7.57808 202.818 7.01748C202.609 6.44688 202.287 5.98638 201.852 5.63601C201.417 5.28563 200.862 5.11543 200.188 5.11543C199.515 5.11543 198.96 5.28563 198.524 5.63601C198.089 5.98638 197.768 6.44688 197.558 7.01748C197.349 7.57808 197.245 8.1987 197.245 8.84939C197.245 9.51009 197.349 10.1207 197.558 10.6813C197.768 11.2419 198.089 11.7024 198.524 12.0427C198.96 12.3931 199.515 12.5633 200.188 12.5633ZM213.141 9.70027V3.88414H214.652V13.7146H213.141V12.0528H213.039C212.809 12.5533 212.45 12.9738 211.964 13.3241C211.477 13.6745 210.864 13.8447 210.121 13.8447C209.506 13.8447 208.961 13.7045 208.483 13.4443C208.005 13.164 207.629 12.7535 207.357 12.213C207.084 11.6624 206.947 10.9717 206.947 10.1308V3.88414H208.457V10.0306C208.457 10.7413 208.657 11.322 209.059 11.7425C209.464 12.1729 209.98 12.3832 210.607 12.3832C210.983 12.3832 211.364 12.283 211.753 12.0928C212.145 11.9026 212.473 11.6123 212.738 11.2119C213.007 10.8115 213.141 10.3109 213.141 9.70027ZM219.012 0.610636V1.76189C219.012 2.11226 218.948 2.48265 218.82 2.88308C218.696 3.27349 218.513 3.65379 218.269 4.02418C218.031 4.39458 217.741 4.715 217.4 4.98529L216.581 4.32455C216.849 3.93414 217.082 3.53376 217.278 3.12332C217.479 2.70287 217.579 2.26233 217.579 1.79183V0.610636H219.012ZM220.62 13.7146V3.88414H222.079V5.3657H222.181C222.36 4.88519 222.684 4.48471 223.154 4.18439C223.623 3.88407 224.152 3.73396 224.74 3.73396C224.851 3.73396 224.991 3.73396 225.157 3.73396C225.323 3.74397 225.449 3.754 225.534 3.754V5.29556C225.483 5.28555 225.366 5.26559 225.182 5.23556C225.003 5.20552 224.813 5.19548 224.612 5.19548C224.135 5.19548 223.708 5.29563 223.333 5.49584C222.961 5.68605 222.667 5.95627 222.45 6.30664C222.237 6.65702 222.13 7.0475 222.13 7.49798V13.7146H220.62ZM231.146 13.9147C230.199 13.9147 229.382 13.7145 228.696 13.2941C228.013 12.8736 227.485 12.2831 227.115 11.5223C226.748 10.7715 226.564 9.88052 226.564 8.87945C226.564 7.86838 226.748 6.9874 227.115 6.21658C227.485 5.44576 228.002 4.84507 228.664 4.41461C229.328 3.97414 230.105 3.754 230.992 3.754C231.505 3.754 232.01 3.8441 232.509 4.01429C233.008 4.18447 233.463 4.46472 233.872 4.84513C234.282 5.22553 234.608 5.72607 234.851 6.35675C235.094 6.98742 235.216 7.75818 235.216 8.66915V9.30984H227.639V8.00853H233.68C233.68 7.44793 233.569 6.95731 233.348 6.52685C233.129 6.08638 232.818 5.74611 232.413 5.49584C232.012 5.23557 231.539 5.11543 230.992 5.11543C230.39 5.11543 229.871 5.26554 229.431 5.56586C228.996 5.85617 228.661 6.2366 228.426 6.71712C228.192 7.18762 228.075 7.69818 228.075 8.23876V9.10968C228.075 9.85047 228.202 10.4811 228.458 10.9917C228.719 11.5022 229.079 11.8926 229.539 12.1629C230.001 12.4331 230.536 12.5633 231.146 12.5633C231.543 12.5633 231.901 12.5033 232.221 12.3932C232.545 12.2831 232.825 12.1129 233.059 11.8827C233.293 11.6524 233.475 11.372 233.603 11.0316L235.062 11.4321C234.908 11.9326 234.65 12.3631 234.288 12.7436C233.925 13.1139 233.478 13.4043 232.944 13.6145C232.411 13.8147 231.811 13.9147 231.146 13.9147ZM244.091 0.610636V13.7146H242.58V0.610636H244.091ZM250.849 13.9147C249.962 13.9147 249.183 13.7045 248.514 13.284C247.849 12.8636 247.328 12.2731 246.953 11.5123C246.582 10.7515 246.396 9.87048 246.396 8.84939C246.396 7.8283 246.582 6.9373 246.953 6.16648C247.328 5.40567 247.849 4.81502 248.514 4.39457C249.183 3.96411 249.962 3.754 250.849 3.754C251.737 3.754 252.513 3.96411 253.179 4.39457C253.848 4.81502 254.369 5.40567 254.74 6.16648C255.116 6.9373 255.303 7.8283 255.303 8.84939C255.303 9.87048 255.116 10.7515 254.74 11.5123C254.369 12.2731 253.848 12.8636 253.179 13.284C252.513 13.7045 251.737 13.9147 250.849 13.9147ZM250.849 12.5633C251.524 12.5633 252.078 12.3931 252.513 12.0427C252.948 11.7024 253.271 11.2419 253.48 10.6813C253.688 10.1207 253.793 9.51009 253.793 8.84939C253.793 8.1987 253.688 7.57808 253.48 7.01748C253.271 6.44688 252.948 5.98638 252.513 5.63601C252.078 5.28563 251.524 5.11543 250.849 5.11543C250.175 5.11543 249.621 5.28563 249.185 5.63601C248.751 5.98638 248.429 6.44688 248.219 7.01748C248.01 7.57808 247.906 8.1987 247.906 8.84939C247.906 9.51009 248.01 10.1207 248.219 10.6813C248.429 11.2419 248.751 11.7024 249.185 12.0427C249.621 12.3931 250.175 12.5633 250.849 12.5633ZM261.602 13.9147C260.714 13.9147 259.936 13.7045 259.266 13.284C258.6 12.8636 258.08 12.2731 257.705 11.5123C257.333 10.7515 257.148 9.87048 257.148 8.84939C257.148 7.8283 257.333 6.9373 257.705 6.16648C258.08 5.40567 258.6 4.81502 259.266 4.39457C259.936 3.96411 260.714 3.754 261.602 3.754C262.489 3.754 263.265 3.96411 263.93 4.39457C264.6 4.81502 265.12 5.40567 265.492 6.16648C265.867 6.9373 266.055 7.8283 266.055 8.84939C266.055 9.87048 265.867 10.7515 265.492 11.5123C265.12 12.2731 264.6 12.8636 263.93 13.284C263.265 13.7045 262.489 13.9147 261.602 13.9147ZM261.602 12.5633C262.275 12.5633 262.83 12.3931 263.265 12.0427C263.7 11.7024 264.022 11.2419 264.231 10.6813C264.441 10.1207 264.545 9.51009 264.545 8.84939C264.545 8.1987 264.441 7.57808 264.231 7.01748C264.022 6.44688 263.7 5.98638 263.265 5.63601C262.83 5.28563 262.275 5.11543 261.602 5.11543C260.927 5.11543 260.372 5.28563 259.938 5.63601C259.502 5.98638 259.18 6.44688 258.972 7.01748C258.763 7.57808 258.657 8.1987 258.657 8.84939C258.657 9.51009 258.763 10.1207 258.972 10.6813C259.18 11.2419 259.502 11.7024 259.938 12.0427C260.372 12.3931 260.927 12.5633 261.602 12.5633ZM269.768 10.1308L269.742 8.2588H270.05L274.349 3.88414H276.218L271.636 8.51908H271.508L269.768 10.1308ZM268.36 13.7146V0.610636H269.87V13.7146H268.36ZM274.606 13.7146L270.766 8.84939L271.842 7.79822L276.526 13.7146H274.606ZM278.161 13.7146V3.88414H279.672V13.7146H278.161ZM278.929 2.2524C278.635 2.2524 278.381 2.15224 278.168 1.95203C277.959 1.74181 277.854 1.50157 277.854 1.22127C277.854 0.940973 277.959 0.700746 278.168 0.500533C278.381 0.30032 278.635 0.200164 278.929 0.200164C279.223 0.200164 279.476 0.30032 279.685 0.500533C279.898 0.700746 280.004 0.940973 280.004 1.22127C280.004 1.50157 279.898 1.74181 279.685 1.95203C279.476 2.15224 279.223 2.2524 278.929 2.2524ZM283.947 7.79822V13.7146H282.438V3.88414H283.896V5.4257H284.025C284.255 4.92517 284.605 4.52478 285.074 4.21445C285.543 3.91413 286.149 3.754 286.892 3.754C287.556 3.754 288.139 3.89406 288.638 4.16435C289.137 4.43464 289.525 4.84505 289.803 5.39564C290.08 5.94623 290.218 6.63703 290.218 7.46792V13.7146H288.708V7.568C288.708 6.79718 288.508 6.19661 288.107 5.76615C287.706 5.33569 287.156 5.11543 286.456 5.11543C285.974 5.11543 285.543 5.21548 285.164 5.4257C284.788 5.63592 284.492 5.9463 284.274 6.34673C284.057 6.74715 283.947 7.22761 283.947 7.79822ZM296.945 17.6087C296.215 17.6087 295.589 17.5086 295.064 17.3284C294.54 17.1382 294.102 16.898 293.752 16.5976C293.407 16.2973 293.131 15.977 292.927 15.6366L294.13 14.7856C294.266 14.9658 294.44 15.1761 294.648 15.4063C294.857 15.6365 295.143 15.8369 295.506 16.007C295.872 16.1872 296.353 16.2773 296.945 16.2773C297.739 16.2773 298.394 16.0871 298.909 15.6967C299.426 15.3162 299.684 14.7157 299.684 13.8948V11.8927H299.556C299.445 12.0729 299.288 12.303 299.083 12.5633C298.882 12.8236 298.592 13.0539 298.213 13.2641C297.837 13.4643 297.33 13.5644 296.689 13.5644C295.896 13.5644 295.183 13.3742 294.552 12.9938C293.925 12.6234 293.429 12.0728 293.061 11.3621C292.699 10.6413 292.518 9.7704 292.518 8.74931C292.518 7.73823 292.695 6.8673 293.048 6.1165C293.403 5.3657 293.895 4.78509 294.527 4.37465C295.158 3.96422 295.887 3.754 296.715 3.754C297.355 3.754 297.862 3.86406 298.238 4.07429C298.618 4.28451 298.907 4.52474 299.109 4.79502C299.313 5.0553 299.471 5.27556 299.582 5.44574H299.735V3.88414H301.194V13.9949C301.194 14.8358 301.003 15.5265 300.618 16.057C300.239 16.5876 299.727 16.978 299.083 17.2283C298.443 17.4786 297.73 17.6087 296.945 17.6087ZM296.894 12.2029C297.5 12.2029 298.011 12.0628 298.43 11.7925C298.848 11.5122 299.166 11.1118 299.383 10.5912C299.601 10.0707 299.709 9.45003 299.709 8.71925C299.709 8.0185 299.603 7.38783 299.39 6.84726C299.177 6.30668 298.86 5.88622 298.443 5.57589C298.024 5.26555 297.509 5.11543 296.894 5.11543C296.255 5.11543 295.721 5.27558 295.295 5.59593C294.872 5.92628 294.555 6.35667 294.341 6.90726C294.132 7.44784 294.027 8.05854 294.027 8.71925C294.027 9.40998 294.134 10.0106 294.347 10.5311C294.565 11.0517 294.885 11.4622 295.308 11.7625C295.734 12.0528 296.263 12.2029 296.894 12.2029ZM313.403 3.88414V5.16541H308.105V3.88414H313.403ZM309.692 13.7146V2.5326C309.692 1.962 309.824 1.50159 310.088 1.12119C310.354 0.750795 310.697 0.460398 311.119 0.280206C311.541 0.0900031 311.987 0 312.456 0C312.827 0 313.13 0.029988 313.365 0.0800413C313.599 0.140105 313.774 0.200213 313.889 0.250267L313.455 1.5616C313.378 1.53157 313.271 1.50156 313.135 1.46152C313.002 1.42147 312.827 1.40139 312.61 1.40139C312.11 1.40139 311.75 1.53154 311.529 1.78181C311.311 2.03207 311.202 2.40256 311.202 2.88308V13.7146H309.692ZM319.108 13.9147C318.221 13.9147 317.442 13.7045 316.772 13.284C316.107 12.8636 315.586 12.2731 315.211 11.5123C314.839 10.7515 314.654 9.87048 314.654 8.84939C314.654 7.8283 314.839 6.9373 315.211 6.16648C315.586 5.40567 316.107 4.81502 316.772 4.39457C317.442 3.96411 318.221 3.754 319.108 3.754C319.995 3.754 320.772 3.96411 321.437 4.39457C322.107 4.81502 322.628 5.40567 322.998 6.16648C323.373 6.9373 323.562 7.8283 323.562 8.84939C323.562 9.87048 323.373 10.7515 322.998 11.5123C322.628 12.2731 322.107 12.8636 321.437 13.284C320.772 13.7045 319.995 13.9147 319.108 13.9147ZM319.108 12.5633C319.782 12.5633 320.336 12.3931 320.772 12.0427C321.207 11.7024 321.528 11.2419 321.738 10.6813C321.947 10.1207 322.051 9.51009 322.051 8.84939C322.051 8.1987 321.947 7.57808 321.738 7.01748C321.528 6.44688 321.207 5.98638 320.772 5.63601C320.336 5.28563 319.782 5.11543 319.108 5.11543C318.434 5.11543 317.88 5.28563 317.444 5.63601C317.009 5.98638 316.687 6.44688 316.478 7.01748C316.269 7.57808 316.165 8.1987 316.165 8.84939C316.165 9.51009 316.269 10.1207 316.478 10.6813C316.687 11.2419 317.009 11.7024 317.444 12.0427C317.88 12.3931 318.434 12.5633 319.108 12.5633ZM325.867 13.7146V3.88414H327.326V5.3657H327.428C327.607 4.88519 327.931 4.48471 328.401 4.18439C328.87 3.88407 329.399 3.73396 329.987 3.73396C330.099 3.73396 330.237 3.73396 330.404 3.73396C330.57 3.74397 330.695 3.754 330.781 3.754V5.29556C330.73 5.28555 330.612 5.26559 330.429 5.23556C330.25 5.20552 330.06 5.19548 329.859 5.19548C329.382 5.19548 328.955 5.29563 328.58 5.49584C328.209 5.68605 327.914 5.95627 327.697 6.30664C327.484 6.65702 327.377 7.0475 327.377 7.49798V13.7146H325.867ZM334.542 10.0306V9.95054C334.55 9.13968 334.635 8.48904 334.798 8.00853C334.96 7.52802 335.19 7.13756 335.489 6.83724C335.788 6.53692 336.146 6.26667 336.563 6.0064C336.816 5.85624 337.042 5.67601 337.242 5.46578C337.442 5.25556 337.601 5.00531 337.716 4.73502C337.835 4.45473 337.895 4.14435 337.895 3.814C337.895 3.39355 337.797 3.0332 337.601 2.72287C337.404 2.41254 337.142 2.18233 336.814 2.01215C336.485 1.84197 336.12 1.76189 335.72 1.76189C335.369 1.76189 335.033 1.83193 334.709 1.98209C334.384 2.12224 334.113 2.35242 333.896 2.66275C333.678 2.97308 333.552 3.38361 333.518 3.88414H331.905C331.94 3.16337 332.128 2.54261 332.469 2.02205C332.815 1.51151 333.269 1.11115 333.832 0.840861C334.399 0.570574 335.028 0.43039 335.72 0.43039C336.47 0.43039 337.123 0.580623 337.678 0.880943C338.236 1.18126 338.667 1.58166 338.97 2.10221C339.277 2.62277 339.431 3.22344 339.431 3.88414C339.431 4.35464 339.358 4.77499 339.213 5.15539C339.072 5.5358 338.868 5.87618 338.599 6.1765C338.334 6.47682 338.014 6.73714 337.639 6.96738C337.263 7.20764 336.963 7.44788 336.737 7.70816C336.51 7.96844 336.346 8.2688 336.244 8.62919C336.142 8.97956 336.086 9.41997 336.078 9.95054V10.0306H334.542ZM335.361 13.8146C335.045 13.8146 334.775 13.7046 334.548 13.4743C334.322 13.2541 334.209 12.9837 334.209 12.6634C334.209 12.3531 334.322 12.0828 334.548 11.8526C334.775 11.6223 335.045 11.5123 335.361 11.5123C335.677 11.5123 335.948 11.6223 336.174 11.8526C336.399 12.0828 336.512 12.3531 336.512 12.6634C336.512 12.8736 336.459 13.0639 336.353 13.2441C336.25 13.4143 336.112 13.5543 335.937 13.6645C335.767 13.7646 335.574 13.8146 335.361 13.8146ZM346.977 13.7146V0.610636H354.834V2.02205H348.563V6.44681H354.245V7.84833H348.563V13.7146H346.977ZM360.747 13.9147C359.8 13.9147 358.983 13.7145 358.296 13.2941C357.614 12.8736 357.086 12.2831 356.716 11.5223C356.349 10.7715 356.165 9.88052 356.165 8.87945C356.165 7.86838 356.349 6.9874 356.716 6.21658C357.086 5.44576 357.603 4.84507 358.264 4.41461C358.929 3.97414 359.706 3.754 360.593 3.754C361.106 3.754 361.611 3.8441 362.11 4.01429C362.609 4.18447 363.064 4.46472 363.473 4.84513C363.883 5.22553 364.209 5.72607 364.452 6.35675C364.695 6.98742 364.817 7.75818 364.817 8.66915V9.30984H357.241V8.00853H363.281C363.281 7.44793 363.17 6.95731 362.948 6.52685C362.73 6.08638 362.419 5.74611 362.014 5.49584C361.613 5.23557 361.14 5.11543 360.593 5.11543C359.991 5.11543 359.471 5.26554 359.032 5.56586C358.597 5.85617 358.262 6.2366 358.027 6.71712C357.793 7.18762 357.675 7.69818 357.675 8.23876V9.10968C357.675 9.85047 357.803 10.4811 358.059 10.9917C358.32 11.5022 358.68 11.8926 359.14 12.1629C359.601 12.4331 360.137 12.5633 360.747 12.5633C361.144 12.5633 361.502 12.5033 361.821 12.3932C362.146 12.2831 362.425 12.1129 362.66 11.8827C362.895 11.6524 363.076 11.372 363.204 11.0316L364.663 11.4321C364.509 11.9326 364.251 12.3631 363.889 12.7436C363.526 13.1139 363.078 13.4043 362.545 13.6145C362.012 13.8147 361.412 13.9147 360.747 13.9147ZM371.234 13.9147C370.287 13.9147 369.471 13.7145 368.784 13.2941C368.101 12.8736 367.574 12.2831 367.203 11.5223C366.837 10.7715 366.653 9.88052 366.653 8.87945C366.653 7.86838 366.837 6.9874 367.203 6.21658C367.574 5.44576 368.091 4.84507 368.752 4.41461C369.417 3.97414 370.193 3.754 371.081 3.754C371.593 3.754 372.098 3.8441 372.598 4.01429C373.096 4.18447 373.551 4.46472 373.96 4.84513C374.37 5.22553 374.696 5.72607 374.939 6.35675C375.183 6.98742 375.305 7.75818 375.305 8.66915V9.30984H367.728V8.00853H373.768C373.768 7.44793 373.658 6.95731 373.436 6.52685C373.219 6.08638 372.907 5.74611 372.502 5.49584C372.1 5.23557 371.627 5.11543 371.081 5.11543C370.48 5.11543 369.959 5.26554 369.52 5.56586C369.084 5.85617 368.75 6.2366 368.516 6.71712C368.28 7.18762 368.163 7.69818 368.163 8.23876V9.10968C368.163 9.85047 368.291 10.4811 368.548 10.9917C368.807 11.5022 369.168 11.8926 369.629 12.1629C370.089 12.4331 370.625 12.5633 371.234 12.5633C371.631 12.5633 371.989 12.5033 372.31 12.3932C372.634 12.2831 372.913 12.1129 373.147 11.8827C373.383 11.6524 373.564 11.372 373.692 11.0316L375.151 11.4321C374.997 11.9326 374.739 12.3631 374.377 12.7436C374.013 13.1139 373.566 13.4043 373.032 13.6145C372.5 13.8147 371.9 13.9147 371.234 13.9147ZM379.112 0.610636V13.7146H377.601V0.610636H379.112ZM391.322 3.88414V5.16541H386.024V3.88414H391.322ZM387.611 13.7146V2.5326C387.611 1.962 387.743 1.50159 388.007 1.12119C388.273 0.750795 388.616 0.460398 389.037 0.280206C389.46 0.0900031 389.906 0 390.375 0C390.746 0 391.049 0.029988 391.284 0.0800413C391.518 0.140105 391.693 0.200213 391.808 0.250267L391.374 1.5616C391.297 1.53157 391.19 1.50156 391.054 1.46152C390.921 1.42147 390.746 1.40139 390.529 1.40139C390.029 1.40139 389.669 1.53154 389.448 1.78181C389.23 2.03207 389.121 2.40256 389.121 2.88308V13.7146H387.611ZM393.439 13.7146V3.88414H394.898V5.3657H395C395.179 4.88519 395.503 4.48471 395.973 4.18439C396.442 3.88407 396.971 3.73396 397.559 3.73396C397.671 3.73396 397.809 3.73396 397.976 3.73396C398.142 3.74397 398.267 3.754 398.353 3.754V5.29556C398.302 5.28555 398.184 5.26559 398.001 5.23556C397.822 5.20552 397.631 5.19548 397.431 5.19548C396.954 5.19548 396.527 5.29563 396.152 5.49584C395.781 5.68605 395.486 5.95627 395.269 6.30664C395.056 6.65702 394.949 7.0475 394.949 7.49798V13.7146H393.439ZM403.964 13.9147C403.017 13.9147 402.2 13.7145 401.514 13.2941C400.832 12.8736 400.304 12.2831 399.933 11.5223C399.567 10.7715 399.383 9.88052 399.383 8.87945C399.383 7.86838 399.567 6.9874 399.933 6.21658C400.304 5.44576 400.821 4.84507 401.482 4.41461C402.147 3.97414 402.924 3.754 403.811 3.754C404.323 3.754 404.828 3.8441 405.328 4.01429C405.827 4.18447 406.281 4.46472 406.69 4.84513C407.101 5.22553 407.427 5.72607 407.669 6.35675C407.912 6.98742 408.035 7.75818 408.035 8.66915V9.30984H400.459V8.00853H406.499C406.499 7.44793 406.388 6.95731 406.166 6.52685C405.948 6.08638 405.637 5.74611 405.232 5.49584C404.831 5.23557 404.358 5.11543 403.811 5.11543C403.209 5.11543 402.689 5.26554 402.249 5.56586C401.815 5.85617 401.48 6.2366 401.245 6.71712C401.01 7.18762 400.893 7.69818 400.893 8.23876V9.10968C400.893 9.85047 401.021 10.4811 401.277 10.9917C401.538 11.5022 401.898 11.8926 402.359 12.1629C402.819 12.4331 403.355 12.5633 403.964 12.5633C404.362 12.5633 404.72 12.5033 405.039 12.3932C405.364 12.2831 405.643 12.1129 405.878 11.8827C406.113 11.6524 406.294 11.372 406.422 11.0316L407.88 11.4321C407.727 11.9326 407.469 12.3631 407.107 12.7436C406.744 13.1139 406.296 13.4043 405.763 13.6145C405.23 13.8147 404.63 13.9147 403.964 13.9147ZM414.452 13.9147C413.505 13.9147 412.689 13.7145 412.002 13.2941C411.319 12.8736 410.793 12.2831 410.421 11.5223C410.055 10.7715 409.871 9.88052 409.871 8.87945C409.871 7.86838 410.055 6.9874 410.421 6.21658C410.793 5.44576 411.308 4.84507 411.97 4.41461C412.635 3.97414 413.411 3.754 414.299 3.754C414.811 3.754 415.316 3.8441 415.816 4.01429C416.314 4.18447 416.769 4.46472 417.178 4.84513C417.588 5.22553 417.914 5.72607 418.157 6.35675C418.401 6.98742 418.522 7.75818 418.522 8.66915V9.30984H410.946V8.00853H416.986C416.986 7.44793 416.876 6.95731 416.654 6.52685C416.437 6.08638 416.125 5.74611 415.72 5.49584C415.318 5.23557 414.845 5.11543 414.299 5.11543C413.698 5.11543 413.177 5.26554 412.738 5.56586C412.302 5.85617 411.968 6.2366 411.733 6.71712C411.498 7.18762 411.381 7.69818 411.381 8.23876V9.10968C411.381 9.85047 411.509 10.4811 411.765 10.9917C412.025 11.5022 412.385 11.8926 412.847 12.1629C413.307 12.4331 413.843 12.5633 414.452 12.5633C414.849 12.5633 415.207 12.5033 415.528 12.3932C415.852 12.2831 416.131 12.1129 416.365 11.8827C416.601 11.6524 416.782 11.372 416.91 11.0316L418.369 11.4321C418.215 11.9326 417.957 12.3631 417.595 12.7436C417.231 13.1139 416.784 13.4043 416.25 13.6145C415.718 13.8147 415.118 13.9147 414.452 13.9147ZM430.162 3.88414V5.16541H425.068V3.88414H430.162ZM426.552 1.53154H428.063V10.9015C428.063 11.322 428.125 11.6424 428.248 11.8626C428.376 12.0728 428.538 12.2129 428.735 12.283C428.935 12.3531 429.146 12.3832 429.368 12.3832C429.534 12.3832 429.671 12.3731 429.778 12.3531C429.885 12.3331 429.97 12.323 430.034 12.303L430.34 13.6645C430.238 13.7045 430.095 13.7446 429.912 13.7747C429.729 13.8247 429.496 13.8447 429.214 13.8447C428.788 13.8447 428.37 13.7546 427.961 13.5644C427.555 13.3842 427.218 13.1039 426.95 12.7335C426.685 12.3531 426.552 11.8826 426.552 11.312V1.53154ZM436.321 13.9147C435.434 13.9147 434.655 13.7045 433.985 13.284C433.32 12.8636 432.799 12.2731 432.424 11.5123C432.052 10.7515 431.867 9.87048 431.867 8.84939C431.867 7.8283 432.052 6.9373 432.424 6.16648C432.799 5.40567 433.32 4.81502 433.985 4.39457C434.655 3.96411 435.434 3.754 436.321 3.754C437.208 3.754 437.985 3.96411 438.65 4.39457C439.32 4.81502 439.839 5.40567 440.211 6.16648C440.586 6.9373 440.774 7.8283 440.774 8.84939C440.774 9.87048 440.586 10.7515 440.211 11.5123C439.839 12.2731 439.32 12.8636 438.65 13.284C437.985 13.7045 437.208 13.9147 436.321 13.9147ZM436.321 12.5633C436.994 12.5633 437.549 12.3931 437.984 12.0427C438.419 11.7024 438.741 11.2419 438.951 10.6813C439.16 10.1207 439.264 9.51009 439.264 8.84939C439.264 8.1987 439.16 7.57808 438.951 7.01748C438.741 6.44688 438.419 5.98638 437.984 5.63601C437.549 5.28563 436.994 5.11543 436.321 5.11543C435.647 5.11543 435.092 5.28563 434.657 5.63601C434.221 5.98638 433.9 6.44688 433.691 7.01748C433.482 7.57808 433.378 8.1987 433.378 8.84939C433.378 9.51009 433.482 10.1207 433.691 10.6813C433.9 11.2419 434.221 11.7024 434.657 12.0427C435.092 12.3931 435.647 12.5633 436.321 12.5633ZM455.11 6.08644L453.752 6.46685C453.667 6.24661 453.541 6.02636 453.375 5.81613C453.213 5.5959 452.992 5.41567 452.709 5.27552C452.428 5.13537 452.067 5.06533 451.628 5.06533C451.026 5.06533 450.526 5.20552 450.124 5.4758C449.728 5.7561 449.53 6.09639 449.53 6.52685C449.53 6.89724 449.666 7.19757 449.939 7.40779C450.212 7.62803 450.639 7.80827 451.219 7.95843L452.678 8.3188C453.556 8.52902 454.211 8.84933 454.642 9.2898C455.073 9.73027 455.288 10.2909 455.288 10.9716C455.288 11.5423 455.127 12.0428 454.802 12.4833C454.482 12.9337 454.035 13.284 453.458 13.5343C452.882 13.7946 452.213 13.9147 451.449 13.9147C450.447 13.9147 449.617 13.7046 448.96 13.2641C448.304 12.8337 447.887 12.193 447.712 11.3621L449.145 11.0017C449.282 11.5323 449.54 11.9226 449.92 12.1929C450.304 12.4532 450.805 12.5934 451.424 12.5934C452.128 12.5934 452.686 12.4433 453.1 12.1429C453.518 11.8326 453.727 11.4721 453.727 11.0517C453.727 10.7113 453.608 10.421 453.369 10.1908C453.13 9.96054 452.763 9.79034 452.268 9.67021L450.63 9.2898C449.73 9.06957 449.068 8.73922 448.647 8.29876C448.228 7.83827 448.019 7.27772 448.019 6.59699C448.019 6.04641 448.175 5.55591 448.487 5.12545C448.802 4.70501 449.23 4.36464 449.773 4.12439C450.319 3.88413 450.937 3.754 451.628 3.754C452.601 3.754 453.365 3.97413 453.919 4.39457C454.478 4.82503 454.874 5.38569 455.11 6.08644ZM461.683 13.9147C460.736 13.9147 459.919 13.7145 459.232 13.2941C458.549 12.8736 458.022 12.2831 457.651 11.5223C457.284 10.7715 457.101 9.88052 457.101 8.87945C457.101 7.86838 457.284 6.9874 457.651 6.21658C458.022 5.44576 458.538 4.84507 459.2 4.41461C459.865 3.97414 460.642 3.754 461.529 3.754C462.041 3.754 462.547 3.8441 463.045 4.01429C463.545 4.18447 463.999 4.46472 464.409 4.84513C464.818 5.22553 465.144 5.72607 465.388 6.35675C465.631 6.98742 465.752 7.75818 465.752 8.66915V9.30984H458.176V8.00853H464.216C464.216 7.44793 464.105 6.95731 463.884 6.52685C463.666 6.08638 463.355 5.74611 462.949 5.49584C462.549 5.23557 462.075 5.11543 461.529 5.11543C460.927 5.11543 460.407 5.26554 459.968 5.56586C459.532 5.85617 459.197 6.2366 458.963 6.71712C458.729 7.18762 458.611 7.69818 458.611 8.23876V9.10968C458.611 9.85047 458.739 10.4811 458.995 10.9917C459.255 11.5022 459.616 11.8926 460.076 12.1629C460.537 12.4331 461.072 12.5633 461.683 12.5633C462.079 12.5633 462.438 12.5033 462.758 12.3932C463.081 12.2831 463.362 12.1129 463.596 11.8827C463.83 11.6524 464.011 11.372 464.139 11.0316L465.599 11.4321C465.445 11.9326 465.186 12.3631 464.824 12.7436C464.462 13.1139 464.014 13.4043 463.481 13.6145C462.947 13.8147 462.348 13.9147 461.683 13.9147ZM469.559 7.79822V13.7146H468.05V3.88414H469.508V5.4257H469.636C469.866 4.92517 470.217 4.52478 470.685 4.21445C471.155 3.91413 471.76 3.754 472.503 3.754C473.168 3.754 473.751 3.89406 474.25 4.16435C474.749 4.43464 475.137 4.84505 475.414 5.39564C475.692 5.94623 475.831 6.63703 475.831 7.46792V13.7146H474.32V7.568C474.32 6.79718 474.12 6.19661 473.719 5.76615C473.318 5.33569 472.768 5.11543 472.068 5.11543C471.585 5.11543 471.155 5.21548 470.775 5.4257C470.4 5.63592 470.104 5.9463 469.885 6.34673C469.668 6.74715 469.559 7.22761 469.559 7.79822ZM482.302 13.9147C481.482 13.9147 480.759 13.7145 480.132 13.2941C479.505 12.8836 479.014 12.293 478.66 11.5322C478.306 10.7714 478.129 9.87046 478.129 8.82935C478.129 7.79825 478.306 6.89735 478.66 6.13654C479.014 5.37573 479.507 4.7951 480.138 4.37465C480.77 3.96422 481.499 3.754 482.327 3.754C482.966 3.754 483.472 3.86406 483.843 4.07429C484.219 4.28451 484.505 4.52474 484.701 4.79502C484.901 5.0553 485.057 5.27556 485.168 5.44574H485.296V0.610636H486.806V13.7146H485.347V12.2029H485.168C485.057 12.3831 484.899 12.6134 484.694 12.8837C484.49 13.154 484.198 13.3942 483.817 13.6045C483.438 13.8147 482.932 13.9147 482.302 13.9147ZM482.506 12.5633C483.112 12.5633 483.624 12.4032 484.042 12.0928C484.46 11.7725 484.777 11.3321 484.996 10.7615C485.213 10.2009 485.322 9.54008 485.322 8.79929C485.322 8.06851 485.215 7.42791 485.002 6.87732C484.788 6.31672 484.473 5.88623 484.055 5.58591C483.636 5.26556 483.121 5.11543 482.506 5.11543C481.866 5.11543 481.333 5.27559 480.906 5.60595C480.484 5.9363 480.166 6.37671 479.953 6.9273C479.744 7.4879 479.639 8.10855 479.639 8.79929C479.639 9.50004 479.746 10.1307 479.959 10.7114C480.176 11.272 480.497 11.7224 480.919 12.0628C481.346 12.3931 481.874 12.5633 482.506 12.5633ZM497.742 13.9448C497.119 13.9448 496.554 13.8247 496.046 13.5944C495.539 13.3542 495.135 13.0138 494.837 12.5633C494.538 12.1128 494.389 11.5622 494.389 10.9215C494.389 10.3609 494.5 9.90047 494.721 9.56011C494.943 9.19973 495.239 8.91946 495.611 8.71925C495.982 8.51903 496.392 8.36881 496.839 8.27872C497.292 8.1686 497.746 8.08851 498.203 8.02845C498.799 7.95837 499.284 7.89839 499.655 7.85835C500.031 7.8183 500.303 7.74815 500.474 7.64804C500.649 7.54793 500.736 7.37786 500.736 7.13761V7.08751C500.736 6.45683 500.563 5.96634 500.218 5.61597C499.876 5.26559 499.359 5.08537 498.663 5.08537C497.942 5.08537 497.377 5.24552 496.967 5.56586C496.558 5.8762 496.27 6.21657 496.103 6.57695L494.67 6.0664C494.926 5.46576 495.268 4.99523 495.694 4.66488C496.124 4.32452 496.594 4.09432 497.101 3.96418C497.614 3.82403 498.118 3.754 498.612 3.754C498.927 3.754 499.29 3.79404 499.699 3.87412C500.114 3.9442 500.512 4.09431 500.897 4.32455C501.285 4.5548 501.606 4.90521 501.863 5.3657C502.119 5.8362 502.247 6.45686 502.247 7.23769V13.7146H500.736V12.3832H500.659C500.557 12.5934 500.387 12.8236 500.148 13.0638C499.908 13.3141 499.591 13.5143 499.195 13.6845C498.797 13.8547 498.314 13.9448 497.742 13.9448ZM497.972 12.5934C498.569 12.5934 499.073 12.4733 499.482 12.233C499.896 12.0028 500.208 11.7024 500.416 11.332C500.629 10.9616 500.736 10.5712 500.736 10.1607V8.77925C500.672 8.84932 500.531 8.91948 500.314 8.98956C500.101 9.04962 499.853 9.09958 499.572 9.14964C499.295 9.18968 499.024 9.22983 498.759 9.25986C498.499 9.28989 498.288 9.31988 498.126 9.3399C497.733 9.38996 497.367 9.47004 497.025 9.59017C496.688 9.70029 496.415 9.87047 496.205 10.0907C496.001 10.3109 495.899 10.6213 495.899 11.0017C495.899 11.5223 496.092 11.9226 496.481 12.1929C496.873 12.4532 497.371 12.5934 497.972 12.5934ZM506.512 7.79822V13.7146H505.003V3.88414H506.461V5.4257H506.59C506.82 4.92517 507.17 4.52478 507.639 4.21445C508.108 3.91413 508.714 3.754 509.457 3.754C510.122 3.754 510.704 3.89406 511.203 4.16435C511.702 4.43464 512.09 4.84505 512.368 5.39564C512.645 5.94623 512.784 6.63703 512.784 7.46792V13.7146H511.274V7.568C511.274 6.79718 511.073 6.19661 510.672 5.76615C510.272 5.33569 509.721 5.11543 509.021 5.11543C508.54 5.11543 508.108 5.21548 507.729 5.4257C507.353 5.63592 507.057 5.9463 506.839 6.34673C506.622 6.74715 506.512 7.22761 506.512 7.79822ZM520.816 13.7146V0.610636H528.725V2.02205H522.402V6.44681H528.316V7.84833H522.402V12.303H528.827V13.7146H520.816ZM531.38 13.7146V3.88414H532.84V5.4257H532.968C533.172 4.89514 533.503 4.48473 533.959 4.20443C534.415 3.90411 534.964 3.754 535.603 3.754C536.252 3.754 536.792 3.90411 537.222 4.20443C537.658 4.48473 537.997 4.89514 538.24 5.4257H538.342C538.594 4.91516 538.972 4.51477 539.475 4.21445C539.978 3.91413 540.582 3.754 541.286 3.754C542.164 3.754 542.883 4.03425 543.443 4.58484C544.001 5.12542 544.281 5.97637 544.281 7.13761V13.7146H542.77V7.13761C542.77 6.40683 542.572 5.89624 542.175 5.58591C541.779 5.26556 541.312 5.11543 540.774 5.11543C540.083 5.11543 539.548 5.32566 539.168 5.74611C538.788 6.15655 538.599 6.67705 538.599 7.31773V13.7146H537.063V6.98742C537.063 6.42683 536.882 5.97637 536.518 5.63601C536.156 5.28563 535.689 5.11543 535.117 5.11543C534.725 5.11543 534.358 5.21548 534.017 5.4257C533.679 5.63592 533.407 5.92623 533.198 6.29662C532.993 6.66702 532.891 7.08749 532.891 7.568V13.7146H531.38ZM549.934 13.9448C549.311 13.9448 548.746 13.8247 548.238 13.5944C547.73 13.3542 547.328 13.0138 547.029 12.5633C546.73 12.1128 546.581 11.5622 546.581 10.9215C546.581 10.3609 546.692 9.90047 546.914 9.56011C547.136 9.19973 547.432 8.91946 547.803 8.71925C548.174 8.51903 548.584 8.36881 549.032 8.27872C549.484 8.1686 549.938 8.08851 550.394 8.02845C550.992 7.95837 551.476 7.89839 551.847 7.85835C552.222 7.8183 552.495 7.74815 552.667 7.64804C552.841 7.54793 552.929 7.37786 552.929 7.13761V7.08751C552.929 6.45683 552.756 5.96634 552.41 5.61597C552.069 5.26559 551.55 5.08537 550.856 5.08537C550.135 5.08537 549.569 5.24552 549.16 5.56586C548.75 5.8762 548.462 6.21657 548.296 6.57695L546.862 6.0664C547.119 5.46576 547.46 4.99523 547.887 4.66488C548.317 4.32452 548.786 4.09432 549.294 3.96418C549.806 3.82403 550.309 3.754 550.805 3.754C551.12 3.754 551.482 3.79404 551.892 3.87412C552.306 3.9442 552.705 4.09431 553.089 4.32455C553.477 4.5548 553.799 4.90521 554.055 5.3657C554.31 5.8362 554.439 6.45686 554.439 7.23769V13.7146H552.929V12.3832H552.852C552.75 12.5934 552.578 12.8236 552.34 13.0638C552.101 13.3141 551.784 13.5143 551.386 13.6845C550.99 13.8547 550.505 13.9448 549.934 13.9448ZM550.164 12.5934C550.762 12.5934 551.265 12.4733 551.675 12.233C552.088 12.0028 552.399 11.7024 552.609 11.332C552.822 10.9616 552.929 10.5712 552.929 10.1607V8.77925C552.865 8.84932 552.724 8.91948 552.506 8.98956C552.293 9.04962 552.046 9.09958 551.764 9.14964C551.486 9.18968 551.216 9.22983 550.952 9.25986C550.692 9.28989 550.48 9.31988 550.318 9.3399C549.926 9.38996 549.558 9.47004 549.217 9.59017C548.881 9.70029 548.607 9.87047 548.398 10.0907C548.194 10.3109 548.091 10.6213 548.091 11.0017C548.091 11.5223 548.285 11.9226 548.673 12.1929C549.066 12.4532 549.562 12.5934 550.164 12.5934ZM557.196 13.7146V3.88414H558.705V13.7146H557.196ZM557.963 2.2524C557.669 2.2524 557.415 2.15224 557.202 1.95203C556.992 1.74181 556.888 1.50157 556.888 1.22127C556.888 0.940973 556.992 0.700746 557.202 0.500533C557.415 0.30032 557.669 0.200164 557.963 0.200164C558.258 0.200164 558.509 0.30032 558.718 0.500533C558.931 0.700746 559.038 0.940973 559.038 1.22127C559.038 1.50157 558.931 1.74181 558.718 1.95203C558.509 2.15224 558.258 2.2524 557.963 2.2524ZM562.982 0.610636V13.7146H561.471V0.610636H562.982ZM566.848 13.8146C566.532 13.8146 566.261 13.7046 566.035 13.4743C565.809 13.2541 565.696 12.9837 565.696 12.6634C565.696 12.3531 565.809 12.0828 566.035 11.8526C566.261 11.6223 566.532 11.5123 566.848 11.5123C567.163 11.5123 567.434 11.6223 567.661 11.8526C567.887 12.0828 568 12.3531 568 12.6634C568 12.8736 567.946 13.0639 567.84 13.2441C567.737 13.4143 567.599 13.5543 567.423 13.6645C567.253 13.7646 567.061 13.8146 566.848 13.8146Z" fill="#475467"/>
</svg>
