<svg width="563" height="30" viewBox="0 0 563 30" fill="none" xmlns="http://www.w3.org/2000/svg">
<path d="M19.2542 8.42703H15.265C15.1508 7.77317 14.9416 7.19342 14.6352 6.68876C14.3298 6.17609 13.9493 5.74252 13.4947 5.38706C13.0391 5.03159 12.5204 4.76523 11.9366 4.587C11.3609 4.40175 10.7381 4.30964 10.0702 4.30964C8.88263 4.30964 7.83026 4.60804 6.91206 5.20582C5.99486 5.79559 5.27691 6.66373 4.75723 7.80822C4.23855 8.94671 3.97921 10.3365 3.97921 11.9797C3.97921 13.6509 4.23855 15.0587 4.75723 16.2042C5.28392 17.3417 6.00187 18.2018 6.91206 18.7856C7.83026 19.3613 8.87864 19.6497 10.0592 19.6497C10.714 19.6497 11.3248 19.5636 11.8946 19.3934C12.4703 19.2151 12.986 18.9558 13.4406 18.6144C13.9032 18.2729 14.2907 17.8534 14.6041 17.3557C14.9236 16.8581 15.1438 16.2893 15.265 15.6495L19.2542 15.6705C19.105 16.7089 18.7816 17.6831 18.2839 18.5933C17.7933 19.5035 17.1494 20.3076 16.3534 21.0045C15.5564 21.6944 14.6251 22.2341 13.5578 22.6256C12.4914 23.0101 11.3078 23.2014 10.0061 23.2014C8.08559 23.2014 6.37234 22.7568 4.86437 21.8686C3.35639 20.9795 2.16886 19.6958 1.30172 18.0176C0.433586 16.3394 0 14.3268 0 11.9797C0 9.6256 0.43757 7.61297 1.31171 5.94178C2.18686 4.26359 3.37842 2.9799 4.88539 2.09073C6.39337 1.20157 8.10061 0.757996 10.0061 0.757996C11.2217 0.757996 12.3532 0.92822 13.3985 1.26967C14.4439 1.61111 15.3751 2.11277 16.1932 2.77363C17.0113 3.42749 17.6831 4.23153 18.2088 5.18478C18.7425 6.13002 19.091 7.21144 19.2542 8.42703ZM33.1514 16.012V6.51753H37.0134V22.903H33.2685V19.9912H33.0983C32.7289 20.9084 32.12 21.6583 31.2739 22.2411C30.4348 22.8249 29.4005 23.1163 28.1699 23.1163C27.0965 23.1163 26.1462 22.8779 25.3221 22.4013C24.5041 21.9177 23.8642 21.2178 23.4016 20.3006C22.939 19.3754 22.7077 18.2589 22.7077 16.9502V6.51753H26.5698V16.3534C26.5698 17.3918 26.8541 18.2168 27.4229 18.8276C27.9916 19.4394 28.7386 19.7458 29.6628 19.7458C30.2326 19.7458 30.7833 19.6067 31.317 19.3293C31.8497 19.0519 32.2873 18.6394 32.6287 18.0917C32.9772 17.537 33.1514 16.844 33.1514 16.012ZM40.9837 22.903V6.51753H44.7286V9.2491H44.8988C45.1981 8.30287 45.7098 7.57391 46.4348 7.06224C47.1677 6.54256 48.0028 6.28322 48.9421 6.28322C49.1554 6.28322 49.3937 6.29424 49.657 6.31527C49.9274 6.32929 50.1506 6.35432 50.3289 6.39037V9.94201C50.1647 9.88494 49.9053 9.83587 49.5499 9.79281C49.2014 9.74275 48.864 9.71772 48.5365 9.71772C47.8326 9.71772 47.1998 9.87091 46.638 10.1763C46.0833 10.4757 45.6458 10.8913 45.3253 11.425C45.0059 11.9587 44.8457 12.5735 44.8457 13.2704V22.903H40.9837ZM52.8942 22.903V6.51753H56.6381V9.2491H56.8094C57.1078 8.30287 57.6194 7.57391 58.3454 7.06224C59.0773 6.54256 59.9134 6.28322 60.8516 6.28322C61.0649 6.28322 61.3033 6.29424 61.5666 6.31527C61.837 6.32929 62.0612 6.35432 62.2385 6.39037V9.94201C62.0753 9.88494 61.8159 9.83587 61.4604 9.79281C61.112 9.74275 60.7735 9.71772 60.4471 9.71772C59.7422 9.71772 59.1094 9.87091 58.5476 10.1763C57.9929 10.4757 57.5553 10.8913 57.2359 11.425C56.9155 11.9587 56.7553 12.5735 56.7553 13.2704V22.903H52.8942ZM71.3834 23.2234C69.7403 23.2234 68.3214 22.8819 67.1269 22.1991C65.9393 21.5091 65.0261 20.5349 64.3853 19.2762C63.7454 18.0106 63.426 16.5206 63.426 14.8064C63.426 13.1212 63.7454 11.6422 64.3853 10.3686C65.0331 9.08889 65.9363 8.09359 67.0948 7.38165C68.2543 6.66372 69.6161 6.30426 71.1812 6.30426C72.1905 6.30426 73.1437 6.46846 74.0399 6.79489C74.9431 7.11531 75.7391 7.61296 76.429 8.28885C77.1259 8.96473 77.6737 9.82486 78.0722 10.8702C78.4697 11.9086 78.669 13.1462 78.669 14.5821V15.7666H65.2394V13.1632H74.9681C74.9601 12.4243 74.8009 11.7664 74.4875 11.1906C74.1751 10.6069 73.7375 10.1483 73.1758 9.81384C72.6211 9.4794 71.9732 9.31318 71.2342 9.31318C70.4442 9.31318 69.7513 9.50445 69.1535 9.88895C68.5567 10.2654 68.0911 10.7631 67.7567 11.3819C67.4292 11.9937 67.2621 12.6656 67.255 13.3985V15.6705C67.255 16.6237 67.4292 17.4408 67.7777 18.1237C68.1262 18.7996 68.6138 19.3183 69.2396 19.6818C69.8655 20.0372 70.5974 20.2145 71.4365 20.2145C71.9982 20.2145 72.5069 20.1363 72.9625 19.9801C73.4171 19.8169 73.8116 19.5786 74.146 19.2652C74.4805 18.9528 74.7328 18.5653 74.904 18.1027L78.5088 18.5082C78.2815 19.4605 77.8479 20.2926 77.208 21.0045C76.5752 21.7084 75.7642 22.2561 74.7759 22.6466C73.7876 23.0311 72.6561 23.2234 71.3834 23.2234ZM85.7973 13.3024V22.903H81.9362V6.51753H85.6271V9.30218H85.8193C86.1958 8.38498 86.7966 7.65602 87.6217 7.11531C88.4538 6.57461 89.4811 6.30426 90.7047 6.30426C91.8352 6.30426 92.8205 6.54656 93.6596 7.0302C94.5057 7.51383 95.1606 8.21375 95.6222 9.13095C96.0918 10.0492 96.3231 11.1616 96.3161 12.4703V22.903H92.454V13.0681C92.454 11.9727 92.1696 11.1155 91.6009 10.4967C91.0392 9.87793 90.2601 9.56852 89.2648 9.56852C88.5889 9.56852 87.9882 9.71772 87.4615 10.0171C86.9428 10.3085 86.5333 10.731 86.2349 11.2858C85.9435 11.8405 85.7973 12.5134 85.7973 13.3024ZM108.423 6.51753V9.50444H99.0036V6.51753H108.423ZM101.33 2.5924H105.191V17.9745C105.191 18.4942 105.269 18.8917 105.426 19.1691C105.589 19.4394 105.802 19.6247 106.066 19.7238C106.329 19.8239 106.621 19.873 106.94 19.873C107.182 19.873 107.403 19.856 107.602 19.8199C107.808 19.7849 107.964 19.7528 108.071 19.7238L108.722 22.7428C108.516 22.8139 108.221 22.892 107.836 22.9781C107.46 23.0632 106.997 23.1132 106.449 23.1273C105.482 23.1553 104.611 23.0101 103.836 22.6897C103.061 22.3623 102.446 21.8576 101.99 21.1747C101.543 20.4918 101.323 19.6387 101.33 18.6144V2.5924ZM126.229 29.3885C124.843 29.3885 123.652 29.2002 122.657 28.8237C121.66 28.4532 120.86 27.9556 120.256 27.3298C119.652 26.704 119.232 26.011 118.997 25.25L122.474 24.4069C122.631 24.7274 122.859 25.0438 123.157 25.3562C123.457 25.6766 123.858 25.9399 124.363 26.1462C124.874 26.3595 125.518 26.4656 126.293 26.4656C127.389 26.4656 128.296 26.1993 129.014 25.6656C129.732 25.1399 130.091 24.2718 130.091 23.0632V19.9591H129.899C129.7 20.3566 129.408 20.7662 129.025 21.1857C128.647 21.6053 128.147 21.9567 127.521 22.2411C126.902 22.5265 126.123 22.6687 125.184 22.6687C123.925 22.6687 122.784 22.3733 121.76 21.7825C120.743 21.1857 119.932 20.2966 119.328 19.116C118.73 17.9285 118.432 16.4425 118.432 14.6572C118.432 12.8578 118.73 11.3398 119.328 10.1022C119.932 8.8576 120.747 7.91537 121.77 7.27553C122.795 6.62768 123.936 6.30426 125.195 6.30426C126.155 6.30426 126.944 6.46846 127.563 6.79489C128.189 7.11531 128.686 7.50282 129.057 7.95841C129.426 8.406 129.707 8.82955 129.899 9.22707H130.112V6.51753H133.921V23.1693C133.921 24.5702 133.587 25.7297 132.918 26.6469C132.25 27.5651 131.336 28.251 130.176 28.7056C129.018 29.1612 127.702 29.3885 126.229 29.3885ZM126.261 19.6387C127.079 19.6387 127.776 19.4394 128.352 19.0409C128.929 18.6434 129.366 18.0706 129.665 17.3237C129.963 16.5777 130.112 15.6815 130.112 14.6362C130.112 13.6048 129.963 12.7016 129.665 11.9266C129.373 11.1506 128.939 10.5498 128.363 10.1232C127.794 9.68968 127.093 9.4724 126.261 9.4724C125.401 9.4724 124.683 9.69669 124.106 10.1453C123.531 10.5929 123.097 11.2077 122.806 11.9907C122.514 12.7657 122.368 13.6469 122.368 14.6362C122.368 15.6385 122.514 16.5166 122.806 17.2706C123.104 18.0176 123.542 18.6003 124.117 19.0199C124.7 19.4324 125.415 19.6387 126.261 19.6387ZM137.878 22.903V6.51753H141.622V9.2491H141.794C142.092 8.30287 142.604 7.57391 143.33 7.06224C144.062 6.54256 144.898 6.28322 145.836 6.28322C146.049 6.28322 146.287 6.29424 146.551 6.31527C146.821 6.32929 147.045 6.35432 147.223 6.39037V9.94201C147.059 9.88494 146.8 9.83587 146.445 9.79281C146.096 9.74275 145.758 9.71772 145.431 9.71772C144.726 9.71772 144.094 9.87091 143.532 10.1763C142.977 10.4757 142.541 10.8913 142.22 11.425C141.9 11.9587 141.741 12.5735 141.741 13.2704V22.903H137.878ZM154.21 23.2334C153.171 23.2334 152.236 23.0492 151.405 22.6787C150.58 22.3022 149.925 21.7475 149.442 21.0145C148.965 20.2825 148.728 19.3794 148.728 18.305C148.728 17.3808 148.898 16.6167 149.239 16.012C149.581 15.4072 150.046 14.9235 150.636 14.5611C151.227 14.1986 151.892 13.9242 152.632 13.74C153.378 13.5477 154.15 13.4085 154.946 13.3234C155.906 13.2243 156.685 13.1352 157.283 13.0571C157.88 12.972 158.313 12.8438 158.584 12.6726C158.861 12.4954 159 12.221 159 11.8515V11.7874C159 10.9844 158.762 10.3616 158.285 9.92099C157.809 9.47941 157.123 9.25911 156.226 9.25911C155.28 9.25911 154.53 9.46539 153.976 9.87793C153.428 10.2905 153.058 10.7781 152.866 11.3398L149.26 10.8272C149.545 9.83187 150.014 8.99979 150.668 8.33091C151.323 7.65603 152.123 7.15036 153.068 6.81692C154.015 6.47547 155.06 6.30426 156.205 6.30426C156.994 6.30426 157.78 6.39737 158.563 6.58161C159.345 6.76685 160.059 7.07225 160.706 7.49881C161.354 7.91936 161.873 8.49111 162.264 9.21706C162.662 9.94201 162.861 10.8492 162.861 11.9366V22.903H159.149V20.652H159.021C158.787 21.1076 158.455 21.5342 158.029 21.9327C157.609 22.3232 157.08 22.6396 156.44 22.882C155.807 23.1163 155.064 23.2334 154.21 23.2334ZM155.213 20.3957C155.988 20.3957 156.66 20.2435 157.229 19.9371C157.798 19.6247 158.235 19.2121 158.542 18.7005C158.854 18.1878 159.01 17.6301 159.01 17.0253V15.0948C158.89 15.1939 158.684 15.286 158.391 15.3721C158.107 15.4572 157.788 15.5313 157.432 15.5954C157.077 15.6595 156.724 15.7166 156.376 15.7666C156.027 15.8167 155.725 15.8588 155.468 15.8948C154.893 15.9729 154.377 16.1011 153.922 16.2783C153.467 16.4565 153.108 16.7049 152.845 17.0253C152.582 17.3377 152.451 17.7432 152.451 18.2409C152.451 18.9528 152.71 19.4895 153.229 19.852C153.748 20.2145 154.409 20.3957 155.213 20.3957ZM172.825 23.1913C171.538 23.1913 170.385 22.8599 169.369 22.1991C168.351 21.5372 167.548 20.5779 166.957 19.3183C166.368 18.0596 166.072 16.5306 166.072 14.7313C166.072 12.9109 166.371 11.3749 166.969 10.1232C167.573 8.8646 168.387 7.91537 169.411 7.27553C170.435 6.62768 171.577 6.30426 172.835 6.30426C173.795 6.30426 174.585 6.46846 175.203 6.79489C175.822 7.11531 176.313 7.50282 176.675 7.95841C177.039 8.406 177.319 8.82955 177.518 9.22707H177.679V1.05639H181.551V22.903H177.753V20.3216H177.518C177.319 20.7201 177.032 21.1427 176.654 21.5913C176.278 22.0318 175.78 22.4083 175.161 22.7217C174.542 23.0341 173.763 23.1913 172.825 23.1913ZM173.903 20.0232C174.72 20.0232 175.417 19.8019 175.993 19.3613C176.569 18.9138 177.007 18.2909 177.305 17.4949C177.603 16.6979 177.753 15.7696 177.753 14.7102C177.753 13.6509 177.603 12.7297 177.305 11.9476C177.014 11.1656 176.58 10.5568 176.003 10.1232C175.435 9.68968 174.735 9.4724 173.903 9.4724C173.041 9.4724 172.324 9.69669 171.748 10.1453C171.171 10.5929 170.737 11.2117 170.446 12.0007C170.155 12.7907 170.008 13.6939 170.008 14.7102C170.008 15.7346 170.155 16.6488 170.446 17.4518C170.744 18.2489 171.182 18.8777 171.758 19.3403C172.342 19.7949 173.056 20.0232 173.903 20.0232ZM192.92 23.2234C191.276 23.2234 189.857 22.8819 188.663 22.1991C187.475 21.5091 186.561 20.5349 185.921 19.2762C185.281 18.0106 184.961 16.5206 184.961 14.8064C184.961 13.1212 185.281 11.6422 185.921 10.3686C186.569 9.08889 187.472 8.09359 188.631 7.38165C189.79 6.66372 191.152 6.30426 192.716 6.30426C193.727 6.30426 194.68 6.46846 195.576 6.79489C196.479 7.11531 197.275 7.61296 197.965 8.28885C198.662 8.96473 199.21 9.82486 199.608 10.8702C200.006 11.9086 200.205 13.1462 200.205 14.5821V15.7666H186.775V13.1632H196.503C196.496 12.4243 196.337 11.7664 196.024 11.1906C195.711 10.6069 195.274 10.1483 194.712 9.81384C194.157 9.4794 193.509 9.31318 192.77 9.31318C191.98 9.31318 191.287 9.50445 190.69 9.88895C190.093 10.2654 189.627 10.7631 189.293 11.3819C188.965 11.9937 188.798 12.6656 188.791 13.3985V15.6705C188.791 16.6237 188.965 17.4408 189.314 18.1237C189.662 18.7996 190.15 19.3183 190.776 19.6818C191.402 20.0372 192.133 20.2145 192.973 20.2145C193.534 20.2145 194.043 20.1363 194.499 19.9801C194.953 19.8169 195.348 19.5786 195.682 19.2652C196.017 18.9528 196.269 18.5653 196.44 18.1027L200.045 18.5082C199.817 19.4605 199.384 20.2926 198.744 21.0045C198.111 21.7084 197.3 22.2561 196.312 22.6466C195.323 23.0311 194.192 23.2234 192.92 23.2234ZM210.923 22.903V6.51753H214.668V9.2491H214.838C215.137 8.30287 215.649 7.57391 216.374 7.06224C217.107 6.54256 217.942 6.28322 218.881 6.28322C219.095 6.28322 219.333 6.29424 219.595 6.31527C219.866 6.32929 220.09 6.35432 220.268 6.39037V9.94201C220.104 9.88494 219.845 9.83587 219.489 9.79281C219.141 9.74275 218.803 9.71772 218.476 9.71772C217.772 9.71772 217.139 9.87091 216.577 10.1763C216.023 10.4757 215.585 10.8913 215.265 11.425C214.945 11.9587 214.785 12.5735 214.785 13.2704V22.903H210.923ZM229.412 23.2234C227.77 23.2234 226.351 22.8819 225.157 22.1991C223.968 21.5091 223.055 20.5349 222.415 19.2762C221.774 18.0106 221.455 16.5206 221.455 14.8064C221.455 13.1212 221.774 11.6422 222.415 10.3686C223.062 9.08889 223.965 8.09359 225.125 7.38165C226.283 6.66372 227.645 6.30426 229.21 6.30426C230.219 6.30426 231.173 6.46846 232.069 6.79489C232.972 7.11531 233.768 7.61296 234.458 8.28885C235.155 8.96473 235.702 9.82486 236.101 10.8702C236.5 11.9086 236.699 13.1462 236.699 14.5821V15.7666H223.268V13.1632H232.997C232.99 12.4243 232.83 11.7664 232.516 11.1906C232.204 10.6069 231.766 10.1483 231.205 9.81384C230.65 9.4794 230.003 9.31318 229.263 9.31318C228.474 9.31318 227.78 9.50445 227.183 9.88895C226.586 10.2654 226.12 10.7631 225.786 11.3819C225.458 11.9937 225.291 12.6656 225.284 13.3985V15.6705C225.284 16.6237 225.458 17.4408 225.807 18.1237C226.155 18.7996 226.643 19.3183 227.268 19.6818C227.894 20.0372 228.626 20.2145 229.465 20.2145C230.028 20.2145 230.536 20.1363 230.991 19.9801C231.446 19.8169 231.841 19.5786 232.175 19.2652C232.509 18.9528 232.762 18.5653 232.933 18.1027L236.539 18.5082C236.31 19.4605 235.877 20.2926 235.237 21.0045C234.604 21.7084 233.793 22.2561 232.805 22.6466C231.816 23.0311 230.686 23.2234 229.412 23.2234ZM239.965 29.047V6.51753H243.763V9.22707H243.986C244.186 8.82955 244.467 8.406 244.829 7.95841C245.192 7.50282 245.683 7.11531 246.301 6.79489C246.92 6.46846 247.709 6.30426 248.669 6.30426C249.935 6.30426 251.077 6.62768 252.094 7.27553C253.118 7.91537 253.928 8.8646 254.526 10.1232C255.131 11.3749 255.433 12.9109 255.433 14.7313C255.433 16.5306 255.138 18.0596 254.547 19.3183C253.957 20.5779 253.153 21.5372 252.137 22.1991C251.12 22.8599 249.967 23.1913 248.68 23.1913C247.741 23.1913 246.963 23.0341 246.344 22.7217C245.726 22.4083 245.228 22.0318 244.85 21.5913C244.481 21.1427 244.193 20.7201 243.986 20.3216H243.827V29.047H239.965ZM243.752 14.7102C243.752 15.7696 243.901 16.6979 244.201 17.4949C244.506 18.2909 244.944 18.9138 245.512 19.3613C246.088 19.8019 246.785 20.0232 247.603 20.0232C248.456 20.0232 249.171 19.7949 249.747 19.3403C250.324 18.8777 250.757 18.2489 251.049 17.4518C251.347 16.6488 251.496 15.7346 251.496 14.7102C251.496 13.6939 251.351 12.7907 251.06 12.0007C250.767 11.2117 250.334 10.5929 249.758 10.1453C249.182 9.69669 248.463 9.4724 247.603 9.4724C246.778 9.4724 246.078 9.68968 245.501 10.1232C244.926 10.5568 244.488 11.1656 244.19 11.9476C243.898 12.7297 243.752 13.6509 243.752 14.7102ZM265.887 23.2234C264.287 23.2234 262.9 22.8709 261.727 22.167C260.553 21.4631 259.643 20.4778 258.996 19.2121C258.356 17.9465 258.036 16.4666 258.036 14.7743C258.036 13.0821 258.356 11.5992 258.996 10.3265C259.643 9.05285 260.553 8.06455 261.727 7.36063C262.9 6.65671 264.287 6.30426 265.887 6.30426C267.487 6.30426 268.874 6.65671 270.047 7.36063C271.221 8.06455 272.127 9.05285 272.767 10.3265C273.415 11.5992 273.738 13.0821 273.738 14.7743C273.738 16.4666 273.415 17.9465 272.767 19.2121C272.127 20.4778 271.221 21.4631 270.047 22.167C268.874 22.8709 267.487 23.2234 265.887 23.2234ZM265.908 20.1293C266.776 20.1293 267.501 19.891 268.084 19.4144C268.668 18.9308 269.101 18.2839 269.386 17.4729C269.677 16.6628 269.823 15.7596 269.823 14.7633C269.823 13.761 269.677 12.8538 269.386 12.0438C269.101 11.2257 268.668 10.5748 268.084 10.0912C267.501 9.60758 266.776 9.36626 265.908 9.36626C265.019 9.36626 264.28 9.60758 263.689 10.0912C263.106 10.5748 262.669 11.2257 262.377 12.0438C262.093 12.8538 261.951 13.761 261.951 14.7633C261.951 15.7596 262.093 16.6628 262.377 17.4729C262.669 18.2839 263.106 18.9308 263.689 19.4144C264.28 19.891 265.019 20.1293 265.908 20.1293ZM277.016 22.903V6.51753H280.759V9.2491H280.931C281.229 8.30287 281.742 7.57391 282.467 7.06224C283.199 6.54256 284.035 6.28322 284.974 6.28322C285.187 6.28322 285.426 6.29424 285.688 6.31527C285.958 6.32929 286.183 6.35432 286.36 6.39037V9.94201C286.197 9.88494 285.937 9.83587 285.582 9.79281C285.233 9.74275 284.895 9.71772 284.568 9.71772C283.865 9.71772 283.231 9.87091 282.669 10.1763C282.114 10.4757 281.678 10.8913 281.357 11.425C281.037 11.9587 280.878 12.5735 280.878 13.2704V22.903H277.016ZM297.988 6.51753V9.50444H288.569V6.51753H297.988ZM290.894 2.5924H294.756V17.9745C294.756 18.4942 294.834 18.8917 294.99 19.1691C295.153 19.4394 295.367 19.6247 295.63 19.7238C295.893 19.8239 296.185 19.873 296.505 19.873C296.746 19.873 296.967 19.856 297.166 19.8199C297.372 19.7849 297.529 19.7528 297.636 19.7238L298.286 22.7428C298.08 22.8139 297.785 22.892 297.401 22.9781C297.024 23.0632 296.562 23.1132 296.014 23.1273C295.047 23.1553 294.176 23.0101 293.401 22.6897C292.626 22.3623 292.01 21.8576 291.556 21.1747C291.107 20.4918 290.887 19.6387 290.894 18.6144V2.5924ZM316.968 6.51753V9.50444H307.281V6.51753H316.968ZM309.703 22.903V4.9715C309.703 3.86906 309.931 2.95187 310.386 2.21891C310.848 1.48695 311.467 0.939226 312.242 0.57575C313.017 0.213276 313.878 0.0320396 314.823 0.0320396C315.492 0.0320396 316.086 0.0851127 316.605 0.192253C317.124 0.298392 317.509 0.394512 317.757 0.480625L316.989 3.46654C316.826 3.41748 316.619 3.36741 316.37 3.31735C316.122 3.26127 315.844 3.23223 315.538 3.23223C314.82 3.23223 314.311 3.40646 314.013 3.75491C313.722 4.09636 313.575 4.587 313.575 5.22684V22.903H309.703ZM326.523 23.2234C324.923 23.2234 323.536 22.8709 322.363 22.167C321.189 21.4631 320.279 20.4778 319.631 19.2121C318.991 17.9465 318.672 16.4666 318.672 14.7743C318.672 13.0821 318.991 11.5992 319.631 10.3265C320.279 9.05285 321.189 8.06455 322.363 7.36063C323.536 6.65671 324.923 6.30426 326.523 6.30426C328.123 6.30426 329.509 6.65671 330.683 7.36063C331.856 8.06455 332.764 9.05285 333.403 10.3265C334.05 11.5992 334.374 13.0821 334.374 14.7743C334.374 16.4666 334.05 17.9465 333.403 19.2121C332.764 20.4778 331.856 21.4631 330.683 22.167C329.509 22.8709 328.123 23.2234 326.523 23.2234ZM326.544 20.1293C327.412 20.1293 328.137 19.891 328.72 19.4144C329.304 18.9308 329.738 18.2839 330.022 17.4729C330.313 16.6628 330.459 15.7596 330.459 14.7633C330.459 13.761 330.313 12.8538 330.022 12.0438C329.738 11.2257 329.304 10.5748 328.72 10.0912C328.137 9.60758 327.412 9.36626 326.544 9.36626C325.655 9.36626 324.915 9.60758 324.325 10.0912C323.743 10.5748 323.305 11.2257 323.014 12.0438C322.728 12.8538 322.586 13.761 322.586 14.7633C322.586 15.7596 322.728 16.6628 323.014 17.4729C323.305 18.2839 323.743 18.9308 324.325 19.4144C324.915 19.891 325.655 20.1293 326.544 20.1293ZM337.652 22.903V6.51753H341.396V9.2491H341.567C341.865 8.30287 342.377 7.57391 343.103 7.06224C343.835 6.54256 344.671 6.28322 345.609 6.28322C345.823 6.28322 346.061 6.29424 346.324 6.31527C346.595 6.32929 346.819 6.35432 346.996 6.39037V9.94201C346.833 9.88494 346.574 9.83587 346.217 9.79281C345.869 9.74275 345.531 9.71772 345.204 9.71772C344.5 9.71772 343.867 9.87091 343.305 10.1763C342.751 10.4757 342.313 10.8913 341.994 11.425C341.673 11.9587 341.513 12.5735 341.513 13.2704V22.903H337.652ZM357.183 1.05639H362.027L368.512 16.8861H368.769L375.254 1.05639H380.097V22.903H376.3V7.89433H376.097L370.059 22.8389H367.222L361.184 7.86229H360.981V22.903H357.183V1.05639ZM388.951 23.2334C387.913 23.2334 386.977 23.0492 386.145 22.6787C385.32 22.3022 384.666 21.7475 384.183 21.0145C383.706 20.2825 383.468 19.3794 383.468 18.305C383.468 17.3808 383.639 16.6167 383.98 16.012C384.321 15.4072 384.788 14.9235 385.377 14.5611C385.968 14.1986 386.633 13.9242 387.372 13.74C388.119 13.5477 388.891 13.4085 389.687 13.3234C390.647 13.2243 391.426 13.1352 392.023 13.0571C392.621 12.972 393.054 12.8438 393.325 12.6726C393.602 12.4954 393.74 12.221 393.74 11.8515V11.7874C393.74 10.9844 393.502 10.3616 393.026 9.92099C392.55 9.47941 391.863 9.25911 390.967 9.25911C390.021 9.25911 389.271 9.46539 388.717 9.87793C388.169 10.2905 387.799 10.7781 387.607 11.3398L384.002 10.8272C384.286 9.83187 384.756 8.99979 385.409 8.33091C386.063 7.65603 386.863 7.15036 387.81 6.81692C388.756 6.47547 389.801 6.30426 390.946 6.30426C391.735 6.30426 392.521 6.39737 393.304 6.58161C394.086 6.76685 394.801 7.07225 395.448 7.49881C396.094 7.91936 396.614 8.49111 397.005 9.21706C397.403 9.94201 397.602 10.8492 397.602 11.9366V22.903H393.889V20.652H393.762C393.527 21.1076 393.197 21.5342 392.77 21.9327C392.35 22.3232 391.821 22.6396 391.181 22.882C390.547 23.1163 389.804 23.2334 388.951 23.2334ZM389.953 20.3957C390.729 20.3957 391.401 20.2435 391.97 19.9371C392.539 19.6247 392.976 19.2121 393.282 18.7005C393.595 18.1878 393.751 17.6301 393.751 17.0253V15.0948C393.63 15.1939 393.424 15.286 393.133 15.3721C392.848 15.4572 392.528 15.5313 392.172 15.5954C391.817 15.6595 391.465 15.7166 391.117 15.7666C390.768 15.8167 390.466 15.8588 390.21 15.8948C389.634 15.9729 389.118 16.1011 388.663 16.2783C388.208 16.4565 387.849 16.7049 387.585 17.0253C387.323 17.3377 387.191 17.7432 387.191 18.2409C387.191 18.9528 387.45 19.4895 387.97 19.852C388.488 20.2145 389.15 20.3957 389.953 20.3957ZM409.667 6.51753V9.50444H400.248V6.51753H409.667ZM402.573 2.5924H406.435V17.9745C406.435 18.4942 406.513 18.8917 406.669 19.1691C406.833 19.4394 407.047 19.6247 407.309 19.7238C407.572 19.8239 407.864 19.873 408.184 19.873C408.427 19.873 408.647 19.856 408.846 19.8199C409.052 19.7849 409.209 19.7528 409.315 19.7238L409.966 22.7428C409.759 22.8139 409.464 22.892 409.08 22.9781C408.704 23.0632 408.241 23.1132 407.694 23.1273C406.726 23.1553 405.855 23.0101 405.08 22.6897C404.305 22.3623 403.689 21.8576 403.235 21.1747C402.786 20.4918 402.566 19.6387 402.573 18.6144V2.5924ZM412.896 22.903V6.51753H416.758V22.903H412.896ZM414.838 4.19248C414.226 4.19248 413.7 3.99022 413.259 3.58469C412.818 3.17215 412.598 2.6775 412.598 2.10175C412.598 1.51799 412.818 1.02434 413.259 0.618806C413.7 0.206266 414.226 0 414.838 0C415.457 0 415.983 0.206266 416.417 0.618806C416.858 1.02434 417.078 1.51799 417.078 2.10175C417.078 2.6775 416.858 3.17215 416.417 3.58469C415.983 3.99022 415.457 4.19248 414.838 4.19248ZM424.591 1.05639V22.903H420.729V1.05639H424.591ZM434.642 23.1913C433.355 23.1913 432.203 22.8599 431.185 22.1991C430.169 21.5372 429.365 20.5779 428.775 19.3183C428.184 18.0596 427.89 16.5306 427.89 14.7313C427.89 12.9109 428.188 11.3749 428.785 10.1232C429.39 8.8646 430.204 7.91537 431.228 7.27553C432.253 6.62768 433.394 6.30426 434.653 6.30426C435.613 6.30426 436.402 6.46846 437.021 6.79489C437.64 7.11531 438.13 7.50282 438.493 7.95841C438.855 8.406 439.137 8.82955 439.336 9.22707H439.495V1.05639H443.368V22.903H439.57V20.3216H439.336C439.137 20.7201 438.848 21.1427 438.472 21.5913C438.094 22.0318 437.597 22.4083 436.978 22.7217C436.359 23.0341 435.581 23.1913 434.642 23.1913ZM435.719 20.0232C436.537 20.0232 437.234 19.8019 437.81 19.3613C438.387 18.9138 438.823 18.2909 439.123 17.4949C439.421 16.6979 439.57 15.7696 439.57 14.7102C439.57 13.6509 439.421 12.7297 439.123 11.9476C438.83 11.1656 438.397 10.5568 437.821 10.1232C437.252 9.68968 436.551 9.4724 435.719 9.4724C434.859 9.4724 434.14 9.69669 433.564 10.1453C432.989 10.5929 432.555 11.2117 432.263 12.0007C431.971 12.7907 431.826 13.6939 431.826 14.7102C431.826 15.7346 431.971 16.6488 432.263 17.4518C432.562 18.2489 433 18.8777 433.575 19.3403C434.158 19.7949 434.873 20.0232 435.719 20.0232ZM452.198 23.2334C451.159 23.2334 450.224 23.0492 449.392 22.6787C448.567 22.3022 447.913 21.7475 447.43 21.0145C446.953 20.2825 446.715 19.3794 446.715 18.305C446.715 17.3808 446.886 16.6167 447.227 16.012C447.568 15.4072 448.034 14.9235 448.624 14.5611C449.215 14.1986 449.88 13.9242 450.619 13.74C451.366 13.5477 452.138 13.4085 452.934 13.3234C453.894 13.2243 454.673 13.1352 455.27 13.0571C455.868 12.972 456.301 12.8438 456.572 12.6726C456.849 12.4954 456.987 12.221 456.987 11.8515V11.7874C456.987 10.9844 456.749 10.3616 456.273 9.92099C455.796 9.47941 455.11 9.25911 454.214 9.25911C453.268 9.25911 452.518 9.46539 451.963 9.87793C451.416 10.2905 451.045 10.7781 450.854 11.3398L447.248 10.8272C447.533 9.83187 448.002 8.99979 448.656 8.33091C449.31 7.65603 450.11 7.15036 451.056 6.81692C452.003 6.47547 453.048 6.30426 454.192 6.30426C454.982 6.30426 455.767 6.39737 456.551 6.58161C457.333 6.76685 458.047 7.07225 458.694 7.49881C459.341 7.91936 459.861 8.49111 460.251 9.21706C460.65 9.94201 460.849 10.8492 460.849 11.9366V22.903H457.137V20.652H457.009C456.774 21.1076 456.443 21.5342 456.017 21.9327C455.597 22.3232 455.068 22.6396 454.428 22.882C453.794 23.1163 453.051 23.2334 452.198 23.2334ZM453.2 20.3957C453.976 20.3957 454.648 20.2435 455.217 19.9371C455.785 19.6247 456.223 19.2121 456.528 18.7005C456.842 18.1878 456.998 17.6301 456.998 17.0253V15.0948C456.877 15.1939 456.671 15.286 456.379 15.3721C456.095 15.4572 455.775 15.5313 455.419 15.5954C455.064 15.6595 454.712 15.7166 454.364 15.7666C454.015 15.8167 453.713 15.8588 453.456 15.8948C452.881 15.9729 452.365 16.1011 451.909 16.2783C451.455 16.4565 451.095 16.7049 450.832 17.0253C450.57 17.3377 450.437 17.7432 450.437 18.2409C450.437 18.9528 450.697 19.4895 451.217 19.852C451.735 20.2145 452.397 20.3957 453.2 20.3957ZM472.354 22.903V1.05639H480.717C482.296 1.05639 483.608 1.3047 484.653 1.80335C485.706 2.294 486.492 2.96588 487.01 3.81899C487.537 4.67211 487.8 5.63939 487.8 6.7208C487.8 7.60997 487.629 8.37096 487.288 9.00379C486.946 9.62961 486.488 10.1373 485.912 10.5288C485.336 10.9203 484.692 11.2007 483.981 11.3719V11.5852C484.756 11.6272 485.499 11.8655 486.21 12.3001C486.929 12.7267 487.516 13.3304 487.971 14.1135C488.426 14.8955 488.654 15.8407 488.654 16.9502C488.654 18.0817 488.38 19.098 487.832 20.0012C487.285 20.8974 486.46 21.6053 485.357 22.124C484.255 22.6436 482.868 22.903 481.197 22.903H472.354ZM476.311 19.5957H480.568C482.004 19.5957 483.039 19.3223 483.672 18.7746C484.312 18.2198 484.632 17.5089 484.632 16.6408C484.632 15.9939 484.472 15.4112 484.152 14.8915C483.832 14.3658 483.377 13.9533 482.787 13.6539C482.196 13.3485 481.492 13.1953 480.674 13.1953H476.311V19.5957ZM476.311 10.3475H480.226C480.909 10.3475 481.524 10.2234 482.072 9.97405C482.62 9.71772 483.049 9.35924 483.363 8.89664C483.683 8.42702 483.842 7.87231 483.842 7.23247C483.842 6.38636 483.544 5.68944 482.946 5.14172C482.356 4.59401 481.478 4.32066 480.312 4.32066H476.311V10.3475ZM496.641 23.2334C495.603 23.2334 494.667 23.0492 493.835 22.6787C493.01 22.3022 492.356 21.7475 491.873 21.0145C491.396 20.2825 491.158 19.3794 491.158 18.305C491.158 17.3808 491.328 16.6167 491.669 16.012C492.011 15.4072 492.477 14.9235 493.067 14.5611C493.657 14.1986 494.322 13.9242 495.062 13.74C495.809 13.5477 496.58 13.4085 497.377 13.3234C498.337 13.2243 499.115 13.1352 499.713 13.0571C500.311 12.972 500.744 12.8438 501.015 12.6726C501.292 12.4954 501.43 12.221 501.43 11.8515V11.7874C501.43 10.9844 501.192 10.3616 500.715 9.92099C500.24 9.47941 499.553 9.25911 498.657 9.25911C497.711 9.25911 496.96 9.46539 496.406 9.87793C495.859 10.2905 495.488 10.7781 495.296 11.3398L491.691 10.8272C491.976 9.83187 492.444 8.99979 493.099 8.33091C493.753 7.65603 494.553 7.15036 495.499 6.81692C496.445 6.47547 497.491 6.30426 498.636 6.30426C499.425 6.30426 500.211 6.39737 500.993 6.58161C501.776 6.76685 502.49 7.07225 503.138 7.49881C503.784 7.91936 504.303 8.49111 504.695 9.21706C505.093 9.94201 505.292 10.8492 505.292 11.9366V22.903H501.579V20.652H501.451C501.217 21.1076 500.887 21.5342 500.46 21.9327C500.04 22.3232 499.511 22.6396 498.87 22.882C498.237 23.1163 497.494 23.2334 496.641 23.2334ZM497.643 20.3957C498.418 20.3957 499.091 20.2435 499.66 19.9371C500.229 19.6247 500.666 19.2121 500.972 18.7005C501.285 18.1878 501.441 17.6301 501.441 17.0253V15.0948C501.32 15.1939 501.114 15.286 500.822 15.3721C500.538 15.4572 500.218 15.5313 499.862 15.5954C499.507 15.6595 499.154 15.7166 498.806 15.7666C498.457 15.8167 498.156 15.8588 497.9 15.8948C497.324 15.9729 496.808 16.1011 496.353 16.2783C495.898 16.4565 495.539 16.7049 495.275 17.0253C495.012 17.3377 494.881 17.7432 494.881 18.2409C494.881 18.9528 495.14 19.4895 495.66 19.852C496.178 20.2145 496.84 20.3957 497.643 20.3957ZM517.474 6.51753V9.50444H507.789V6.51753H517.474ZM510.21 22.903V4.9715C510.21 3.86906 510.437 2.95187 510.893 2.21891C511.354 1.48695 511.973 0.939226 512.748 0.57575C513.524 0.213276 514.384 0.0320396 515.33 0.0320396C515.998 0.0320396 516.592 0.0851127 517.112 0.192253C517.631 0.298392 518.015 0.394512 518.263 0.480625L517.495 3.46654C517.332 3.41748 517.126 3.36741 516.876 3.31735C516.628 3.26127 516.351 3.23223 516.044 3.23223C515.326 3.23223 514.818 3.40646 514.519 3.75491C514.228 4.09636 514.082 4.587 514.082 5.22684V22.903H510.21ZM528.797 6.51753V9.50444H519.111V6.51753H528.797ZM521.533 22.903V4.9715C521.533 3.86906 521.761 2.95187 522.215 2.21891C522.678 1.48695 523.297 0.939226 524.072 0.57575C524.847 0.213276 525.708 0.0320396 526.653 0.0320396C527.322 0.0320396 527.916 0.0851127 528.435 0.192253C528.954 0.298392 529.338 0.394512 529.587 0.480625L528.819 3.46654C528.655 3.41748 528.449 3.36741 528.2 3.31735C527.951 3.26127 527.674 3.23223 527.368 3.23223C526.65 3.23223 526.142 3.40646 525.842 3.75491C525.551 4.09636 525.406 4.587 525.406 5.22684V22.903H521.533ZM535.979 23.2334C534.941 23.2334 534.006 23.0492 533.174 22.6787C532.349 22.3022 531.695 21.7475 531.211 21.0145C530.735 20.2825 530.496 19.3794 530.496 18.305C530.496 17.3808 530.666 16.6167 531.008 16.012C531.349 15.4072 531.816 14.9235 532.406 14.5611C532.996 14.1986 533.661 13.9242 534.4 13.74C535.147 13.5477 535.919 13.4085 536.715 13.3234C537.676 13.2243 538.454 13.1352 539.051 13.0571C539.649 12.972 540.083 12.8438 540.353 12.6726C540.631 12.4954 540.769 12.221 540.769 11.8515V11.7874C540.769 10.9844 540.53 10.3616 540.054 9.92099C539.578 9.47941 538.891 9.25911 537.995 9.25911C537.05 9.25911 536.299 9.46539 535.745 9.87793C535.198 10.2905 534.827 10.7781 534.636 11.3398L531.03 10.8272C531.314 9.83187 531.784 8.99979 532.438 8.33091C533.092 7.65603 533.892 7.15036 534.838 6.81692C535.784 6.47547 536.83 6.30426 537.974 6.30426C538.763 6.30426 539.549 6.39737 540.331 6.58161C541.114 6.76685 541.829 7.07225 542.476 7.49881C543.123 7.91936 543.643 8.49111 544.033 9.21706C544.432 9.94201 544.631 10.8492 544.631 11.9366V22.903H540.918V20.652H540.791C540.555 21.1076 540.225 21.5342 539.798 21.9327C539.379 22.3232 538.849 22.6396 538.208 22.882C537.576 23.1163 536.833 23.2334 535.979 23.2334ZM536.982 20.3957C537.757 20.3957 538.43 20.2435 538.998 19.9371C539.567 19.6247 540.005 19.2121 540.31 18.7005C540.624 18.1878 540.78 17.6301 540.78 17.0253V15.0948C540.659 15.1939 540.452 15.286 540.161 15.3721C539.877 15.4572 539.556 15.5313 539.201 15.5954C538.845 15.6595 538.494 15.7166 538.145 15.7666C537.797 15.8167 537.494 15.8588 537.238 15.8948C536.662 15.9729 536.147 16.1011 535.691 16.2783C535.236 16.4565 534.877 16.7049 534.614 17.0253C534.35 17.3377 534.219 17.7432 534.219 18.2409C534.219 18.9528 534.478 19.4895 534.998 19.852C535.517 20.2145 536.179 20.3957 536.982 20.3957ZM552.375 13.3024V22.903H548.514V1.05639H552.29V9.30218H552.482C552.866 8.37797 553.459 7.64901 554.263 7.11531C555.073 6.57461 556.105 6.30426 557.356 6.30426C558.495 6.30426 559.486 6.54256 560.333 7.01918C561.179 7.4958 561.833 8.19273 562.296 9.10993C562.766 10.0271 563 11.1476 563 12.4703V22.903H559.138V13.0681C559.138 11.9657 558.853 11.1085 558.285 10.4967C557.723 9.87793 556.934 9.56852 555.917 9.56852C555.234 9.56852 554.622 9.71772 554.082 10.0171C553.548 10.3085 553.129 10.731 552.823 11.2858C552.524 11.8405 552.375 12.5134 552.375 13.3024Z" fill="#101828"/>
</svg>
