<svg width="174" height="56" viewBox="0 0 174 56" fill="none" xmlns="http://www.w3.org/2000/svg">
<g filter="url(#filter0_d_2_11241)">
<path d="M162 0H12C5.37258 0 0 5.37258 0 12V44C0 50.6274 5.37258 56 12 56H162C168.627 56 174 50.6274 174 44V12C174 5.37258 168.627 0 162 0Z" fill="#F9FAFB"/>
<path d="M162 1H12C5.92487 1 1 5.92487 1 12V44C1 50.0751 5.92487 55 12 55H162C168.075 55 173 50.0751 173 44V12C173 5.92487 168.075 1 162 1Z" stroke="#1751D0" stroke-width="2"/>
<path d="M43.5909 34H39.6479V22.364H43.67C44.826 22.364 45.8179 22.597 46.6479 23.062C47.4809 23.525 48.1209 24.189 48.5679 25.057C49.0149 25.924 49.239 26.962 49.239 28.17C49.239 29.383 49.013 30.424 48.562 31.295C48.116 32.167 47.4699 32.835 46.6249 33.301C45.7839 33.767 44.7729 34 43.5909 34ZM41.756 32.176H43.489C44.299 32.176 44.9749 32.028 45.5169 31.733C46.0589 31.434 46.466 30.989 46.739 30.398C47.011 29.803 47.1479 29.061 47.1479 28.17C47.1479 27.28 47.011 26.542 46.739 25.955C46.466 25.364 46.063 24.922 45.528 24.631C44.998 24.335 44.3389 24.188 43.5509 24.188H41.756V32.176ZM61.2019 26.29H59.0769C59.0159 25.941 58.9039 25.633 58.7409 25.364C58.5789 25.091 58.3759 24.86 58.1339 24.67C57.8909 24.481 57.6149 24.339 57.3039 24.244C56.9969 24.146 56.6659 24.097 56.3099 24.097C55.6769 24.097 55.1159 24.256 54.6279 24.574C54.1389 24.888 53.757 25.35 53.4799 25.96C53.2039 26.566 53.0649 27.307 53.0649 28.182C53.0649 29.072 53.2039 29.822 53.4799 30.432C53.7599 31.038 54.1429 31.496 54.6279 31.807C55.1159 32.114 55.6749 32.267 56.3039 32.267C56.6519 32.267 56.9779 32.222 57.2809 32.131C57.5879 32.036 57.8629 31.898 58.1049 31.716C58.351 31.534 58.5579 31.311 58.7239 31.045C58.8949 30.78 59.0119 30.477 59.0769 30.136L61.2019 30.148C61.1219 30.701 60.9499 31.22 60.6849 31.705C60.4229 32.189 60.0799 32.617 59.6559 32.989C59.2319 33.356 58.7359 33.644 58.1679 33.852C57.5989 34.057 56.9689 34.159 56.2759 34.159C55.2529 34.159 54.3399 33.922 53.5369 33.449C52.7339 32.975 52.1009 32.292 51.6389 31.398C51.1769 30.504 50.946 29.432 50.946 28.182C50.946 26.928 51.1789 25.856 51.6449 24.966C52.1109 24.072 52.7449 23.388 53.5479 22.915C54.3509 22.441 55.2599 22.205 56.2759 22.205C56.9229 22.205 57.5259 22.295 58.0819 22.477C58.6389 22.659 59.135 22.926 59.571 23.278C60.007 23.627 60.3649 24.055 60.6449 24.562C60.9289 25.066 61.1149 25.642 61.2019 26.29ZM65.2399 22.364V34H63.1319V22.364H65.2399ZM67.0109 24.131V22.364H76.295V24.131H72.6989V34H70.6079V24.131H67.0109ZM81.9399 34V32.477L85.9799 28.517C86.366 28.127 86.688 27.78 86.946 27.477C87.204 27.174 87.3969 26.881 87.5259 26.597C87.6539 26.312 87.7189 26.009 87.7189 25.688C87.7189 25.32 87.6349 25.006 87.4689 24.744C87.3019 24.479 87.0729 24.275 86.7809 24.131C86.4899 23.987 86.1579 23.915 85.7869 23.915C85.4039 23.915 85.0689 23.994 84.7809 24.153C84.4929 24.309 84.2699 24.53 84.1109 24.818C83.9549 25.106 83.8779 25.449 83.8779 25.847H81.8719C81.8719 25.108 82.0409 24.466 82.3779 23.92C82.7149 23.375 83.1789 22.953 83.7699 22.653C84.3649 22.354 85.0459 22.205 85.8149 22.205C86.5959 22.205 87.2809 22.35 87.8719 22.642C88.4629 22.934 88.9209 23.333 89.2469 23.841C89.577 24.348 89.7409 24.928 89.7409 25.58C89.7409 26.015 89.6579 26.443 89.4909 26.864C89.3249 27.284 89.0309 27.75 88.6109 28.261C88.1939 28.773 87.609 29.392 86.8549 30.119L84.8489 32.159V32.239H89.9179V34H81.9399ZM96.1789 34.222C95.2429 34.222 94.4399 33.985 93.7699 33.511C93.1029 33.034 92.59 32.347 92.2299 31.449C91.874 30.547 91.696 29.462 91.696 28.193C91.7 26.924 91.8799 25.845 92.2359 24.955C92.5959 24.061 93.1089 23.379 93.7759 22.909C94.4459 22.439 95.2469 22.205 96.1789 22.205C97.1109 22.205 97.9119 22.439 98.5819 22.909C99.2529 23.379 99.7659 24.061 100.122 24.955C100.482 25.848 100.662 26.928 100.662 28.193C100.662 29.466 100.482 30.553 100.122 31.455C99.7659 32.352 99.2529 33.038 98.5819 33.511C97.9159 33.985 97.1149 34.222 96.1789 34.222ZM96.1789 32.443C96.9059 32.443 97.4799 32.085 97.9009 31.369C98.3249 30.65 98.5369 29.591 98.5369 28.193C98.5369 27.269 98.4399 26.492 98.2469 25.864C98.0539 25.235 97.7809 24.761 97.4289 24.443C97.0769 24.121 96.6599 23.96 96.1789 23.96C95.4549 23.96 94.884 24.32 94.463 25.04C94.043 25.756 93.8299 26.807 93.8269 28.193C93.8229 29.121 93.916 29.902 94.1049 30.534C94.298 31.167 94.5709 31.644 94.9229 31.966C95.2759 32.284 95.6939 32.443 96.1789 32.443ZM106.851 34.222C105.915 34.222 105.112 33.985 104.442 33.511C103.775 33.034 103.262 32.347 102.902 31.449C102.546 30.547 102.368 29.462 102.368 28.193C102.372 26.924 102.552 25.845 102.908 24.955C103.268 24.061 103.781 23.379 104.447 22.909C105.118 22.439 105.919 22.205 106.851 22.205C107.783 22.205 108.584 22.439 109.254 22.909C109.925 23.379 110.438 24.061 110.794 24.955C111.154 25.848 111.334 26.928 111.334 28.193C111.334 29.466 111.154 30.553 110.794 31.455C110.438 32.352 109.925 33.038 109.254 33.511C108.588 33.985 107.786 34.222 106.851 34.222ZM106.851 32.443C107.578 32.443 108.152 32.085 108.572 31.369C108.997 30.65 109.209 29.591 109.209 28.193C109.209 27.269 109.112 26.492 108.919 25.864C108.726 25.235 108.453 24.761 108.101 24.443C107.749 24.121 107.332 23.96 106.851 23.96C106.127 23.96 105.555 24.32 105.135 25.04C104.714 25.756 104.502 26.807 104.499 28.193C104.495 29.121 104.588 29.902 104.777 30.534C104.97 31.167 105.243 31.644 105.595 31.966C105.947 32.284 106.366 32.443 106.851 32.443Z" fill="#101828"/>
</g>
<defs>
<filter id="filter0_d_2_11241" x="-2" y="-1" width="178" height="60" filterUnits="userSpaceOnUse" color-interpolation-filters="sRGB">
<feFlood flood-opacity="0" result="BackgroundImageFix"/>
<feColorMatrix in="SourceAlpha" type="matrix" values="0 0 0 0 0 0 0 0 0 0 0 0 0 0 0 0 0 0 127 0" result="hardAlpha"/>
<feOffset dy="1"/>
<feGaussianBlur stdDeviation="1"/>
<feColorMatrix type="matrix" values="0 0 0 0 0.0627451 0 0 0 0 0.0941176 0 0 0 0 0.156863 0 0 0 0.05 0"/>
<feBlend mode="normal" in2="BackgroundImageFix" result="effect1_dropShadow_2_11241"/>
<feBlend mode="normal" in="SourceGraphic" in2="effect1_dropShadow_2_11241" result="shape"/>
</filter>
</defs>
</svg>
