<svg width="282" height="40" viewBox="0 0 282 40" fill="none" xmlns="http://www.w3.org/2000/svg">
<g filter="url(#filter0_d_2_11004)">
<mask id="mask0_2_11004" style="mask-type:luminance" maskUnits="userSpaceOnUse" x="0" y="0" width="282" height="40">
<path d="M274 0H8C3.58172 0 0 3.58172 0 8V32C0 36.4183 3.58172 40 8 40H274C278.418 40 282 36.4183 282 32V8C282 3.58172 278.418 0 274 0Z" fill="white"/>
</mask>
<g mask="url(#mask0_2_11004)">
<path d="M0 0H131V40H0V0Z" fill="#F0F0F0"/>
<path d="M130.5 0V40H131.5V0H130.5Z" fill="#D0D5DD"/>
<path d="M17 25V14.818H23.53V16.364H18.85V19.129H23.08V20.675H18.85V25H17ZM25.13 25V17.364H26.9301V25H25.13ZM26.03 16.28C25.75 16.28 25.5 16.185 25.3 15.996C25.09 15.804 24.99 15.574 24.99 15.305C24.99 15.034 25.09 14.803 25.3 14.614C25.5 14.422 25.75 14.326 26.03 14.326C26.32 14.326 26.57 14.422 26.77 14.614C26.97 14.803 27.08 15.034 27.08 15.305C27.08 15.574 26.97 15.804 26.77 15.996C26.57 16.185 26.32 16.28 26.03 16.28ZM28.78 25V17.364H30.52V18.636H30.6C30.74 18.196 30.9799 17.856 31.3199 17.617C31.6599 17.375 32.05 17.254 32.49 17.254C32.59 17.254 32.6999 17.259 32.8199 17.269C32.9499 17.276 33.05 17.287 33.13 17.304V18.96C33.06 18.933 32.94 18.91 32.77 18.89C32.61 18.867 32.45 18.855 32.3 18.855C31.97 18.855 31.68 18.926 31.41 19.069C31.15 19.208 30.95 19.402 30.8 19.651C30.65 19.899 30.58 20.186 30.58 20.511V25H28.78ZM40.36 19.382L38.72 19.561C38.68 19.395 38.6 19.24 38.48 19.094C38.37 18.948 38.22 18.83 38.02 18.741C37.83 18.651 37.5999 18.607 37.3199 18.607C36.9399 18.607 36.63 18.688 36.37 18.85C36.12 19.013 36 19.223 36 19.482C36 19.704 36.08 19.884 36.24 20.023C36.41 20.163 36.69 20.277 37.08 20.366L38.38 20.645C39.1 20.801 39.64 21.048 39.99 21.386C40.35 21.724 40.53 22.166 40.53 22.713C40.53 23.194 40.38 23.618 40.11 23.986C39.83 24.35 39.45 24.635 38.96 24.841C38.47 25.046 37.9 25.149 37.27 25.149C36.33 25.149 35.58 24.954 35.01 24.562C34.44 24.168 34.1 23.62 33.99 22.917L35.75 22.748C35.83 23.093 35.99 23.353 36.25 23.528C36.51 23.704 36.85 23.792 37.26 23.792C37.69 23.792 38.03 23.704 38.29 23.528C38.55 23.353 38.6801 23.136 38.6801 22.877C38.6801 22.658 38.6001 22.478 38.4301 22.335C38.2601 22.193 38.01 22.083 37.66 22.007L36.35 21.734C35.62 21.581 35.08 21.324 34.73 20.963C34.38 20.598 34.2 20.138 34.2 19.581C34.2 19.11 34.33 18.703 34.59 18.358C34.85 18.01 35.2101 17.741 35.6801 17.553C36.1401 17.36 36.68 17.264 37.29 17.264C38.19 17.264 38.89 17.455 39.41 17.836C39.92 18.217 40.24 18.732 40.36 19.382ZM45.83 17.364V18.756H41.4399V17.364H45.83ZM42.52 15.534H44.3199V22.703C44.3199 22.945 44.3601 23.131 44.4301 23.26C44.5101 23.386 44.6 23.472 44.73 23.518C44.85 23.565 44.99 23.588 45.13 23.588C45.25 23.588 45.3499 23.58 45.4399 23.563C45.5399 23.547 45.61 23.532 45.66 23.518L45.97 24.925C45.87 24.959 45.73 24.995 45.55 25.035C45.38 25.075 45.16 25.098 44.91 25.104C44.46 25.118 44.0499 25.05 43.6899 24.901C43.3299 24.748 43.04 24.513 42.83 24.195C42.62 23.876 42.52 23.479 42.52 23.001V15.534ZM56.42 17.617C56.37 17.183 56.17 16.845 55.83 16.603C55.49 16.361 55.04 16.24 54.5 16.24C54.11 16.24 53.78 16.298 53.51 16.414C53.23 16.53 53.02 16.687 52.88 16.886C52.73 17.085 52.66 17.312 52.65 17.567C52.65 17.78 52.7001 17.964 52.8 18.119C52.9 18.275 53.03 18.408 53.2 18.517C53.3699 18.623 53.56 18.713 53.76 18.786C53.97 18.858 54.17 18.92 54.38 18.969L55.34 19.208C55.72 19.298 56.09 19.419 56.45 19.571C56.7999 19.723 57.12 19.916 57.41 20.148C57.69 20.38 57.92 20.66 58.08 20.988C58.25 21.316 58.33 21.701 58.33 22.141C58.33 22.738 58.18 23.263 57.87 23.717C57.57 24.168 57.1301 24.521 56.55 24.776C55.98 25.028 55.28 25.154 54.47 25.154C53.68 25.154 52.99 25.031 52.4 24.786C51.82 24.541 51.37 24.183 51.04 23.712C50.72 23.242 50.54 22.668 50.52 21.992H52.33C52.36 22.347 52.47 22.642 52.66 22.877C52.85 23.112 53.1 23.288 53.41 23.404C53.72 23.52 54.07 23.578 54.45 23.578C54.85 23.578 55.21 23.518 55.51 23.399C55.81 23.277 56.05 23.107 56.22 22.892C56.4 22.673 56.48 22.418 56.49 22.126C56.48 21.861 56.4 21.643 56.25 21.47C56.1 21.295 55.89 21.149 55.61 21.033C55.34 20.913 55.02 20.807 54.66 20.714L53.5 20.416C52.66 20.201 52 19.874 51.51 19.437C51.03 18.996 50.78 18.411 50.78 17.682C50.78 17.082 50.95 16.557 51.27 16.106C51.6 15.655 52.04 15.305 52.61 15.057C53.17 14.805 53.81 14.679 54.52 14.679C55.24 14.679 55.88 14.805 56.42 15.057C56.97 15.305 57.4 15.652 57.71 16.096C58.02 16.537 58.1799 17.044 58.1899 17.617H56.42ZM63.28 25.149C62.51 25.149 61.85 24.99 61.29 24.672C60.74 24.35 60.31 23.896 60.01 23.31C59.72 22.72 59.5699 22.025 59.5699 21.227C59.5699 20.441 59.72 19.752 60.01 19.158C60.32 18.562 60.74 18.098 61.28 17.766C61.82 17.432 62.4501 17.264 63.1801 17.264C63.6501 17.264 64.1 17.34 64.51 17.493C64.93 17.642 65.31 17.874 65.63 18.189C65.95 18.504 66.21 18.905 66.39 19.392C66.58 19.876 66.67 20.453 66.67 21.122V21.674H60.41V20.461H64.95C64.94 20.116 64.87 19.81 64.72 19.541C64.58 19.269 64.37 19.056 64.11 18.9C63.85 18.744 63.55 18.666 63.21 18.666C62.84 18.666 62.52 18.756 62.24 18.935C61.96 19.11 61.74 19.342 61.59 19.631C61.43 19.916 61.36 20.229 61.35 20.57V21.629C61.35 22.073 61.43 22.455 61.6 22.773C61.76 23.088 61.99 23.33 62.28 23.499C62.57 23.664 62.91 23.747 63.3 23.747C63.56 23.747 63.8 23.711 64.01 23.638C64.22 23.562 64.4101 23.451 64.5601 23.305C64.7201 23.159 64.84 22.978 64.92 22.763L66.6 22.952C66.49 23.396 66.29 23.784 65.99 24.115C65.7 24.443 65.32 24.698 64.86 24.881C64.4 25.06 63.87 25.149 63.28 25.149ZM68.1899 25V17.364H69.91V18.661H70C70.16 18.224 70.43 17.882 70.79 17.637C71.16 17.388 71.6 17.264 72.11 17.264C72.63 17.264 73.06 17.39 73.42 17.642C73.78 17.891 74.0301 18.23 74.1801 18.661H74.25C74.42 18.237 74.71 17.899 75.11 17.647C75.51 17.392 75.99 17.264 76.55 17.264C77.25 17.264 77.82 17.486 78.27 17.93C78.71 18.375 78.9301 19.022 78.9301 19.874V25H77.13V20.153C77.13 19.679 77 19.332 76.75 19.114C76.5 18.892 76.19 18.781 75.83 18.781C75.39 18.781 75.0501 18.916 74.8101 19.188C74.5601 19.457 74.4399 19.806 74.4399 20.237V25H72.6801V20.078C72.6801 19.684 72.5599 19.369 72.3199 19.134C72.0899 18.898 71.78 18.781 71.4 18.781C71.14 18.781 70.8999 18.847 70.6899 18.979C70.4799 19.109 70.3101 19.293 70.1801 19.531C70.0601 19.767 69.99 20.042 69.99 20.357V25H68.1899ZM84.14 25.149C83.37 25.149 82.71 24.99 82.16 24.672C81.6 24.35 81.18 23.896 80.88 23.31C80.58 22.72 80.4301 22.025 80.4301 21.227C80.4301 20.441 80.58 19.752 80.88 19.158C81.18 18.562 81.6 18.098 82.14 17.766C82.68 17.432 83.32 17.264 84.04 17.264C84.52 17.264 84.96 17.34 85.38 17.493C85.8 17.642 86.17 17.874 86.49 18.189C86.82 18.504 87.07 18.905 87.26 19.392C87.44 19.876 87.53 20.453 87.53 21.122V21.674H81.28V20.461H85.8101C85.8101 20.116 85.73 19.81 85.59 19.541C85.44 19.269 85.24 19.056 84.97 18.9C84.72 18.744 84.4099 18.666 84.0699 18.666C83.6999 18.666 83.38 18.756 83.1 18.935C82.82 19.11 82.6 19.342 82.45 19.631C82.2999 19.916 82.22 20.229 82.22 20.57V21.629C82.22 22.073 82.3 22.455 82.46 22.773C82.62 23.088 82.85 23.33 83.14 23.499C83.43 23.664 83.77 23.747 84.16 23.747C84.43 23.747 84.66 23.711 84.88 23.638C85.09 23.562 85.2701 23.451 85.4301 23.305C85.5801 23.159 85.7 22.978 85.78 22.763L87.46 22.952C87.35 23.396 87.15 23.784 86.85 24.115C86.56 24.443 86.18 24.698 85.72 24.881C85.26 25.06 84.73 25.149 84.14 25.149ZM95.09 19.382L93.45 19.561C93.41 19.395 93.32 19.24 93.21 19.094C93.1 18.948 92.94 18.83 92.75 18.741C92.56 18.651 92.32 18.607 92.05 18.607C91.6701 18.607 91.36 18.688 91.1 18.85C90.85 19.013 90.72 19.223 90.73 19.482C90.72 19.704 90.81 19.884 90.97 20.023C91.14 20.163 91.4201 20.277 91.8101 20.366L93.11 20.645C93.83 20.801 94.37 21.048 94.72 21.386C95.07 21.724 95.25 22.166 95.26 22.713C95.25 23.194 95.11 23.618 94.83 23.986C94.56 24.35 94.1799 24.635 93.6899 24.841C93.1999 25.046 92.63 25.149 92 25.149C91.06 25.149 90.31 24.954 89.74 24.562C89.17 24.168 88.83 23.62 88.72 22.917L90.47 22.748C90.55 23.093 90.72 23.353 90.98 23.528C91.24 23.704 91.58 23.792 91.99 23.792C92.42 23.792 92.76 23.704 93.02 23.528C93.28 23.353 93.41 23.136 93.41 22.877C93.41 22.658 93.33 22.478 93.16 22.335C92.99 22.193 92.73 22.083 92.38 22.007L91.08 21.734C90.35 21.581 89.81 21.324 89.46 20.963C89.1 20.598 88.9301 20.138 88.9301 19.581C88.9301 19.11 89.0599 18.703 89.3199 18.358C89.5799 18.01 89.94 17.741 90.4 17.553C90.87 17.36 91.41 17.264 92.02 17.264C92.92 17.264 93.62 17.455 94.13 17.836C94.65 18.217 94.97 18.732 95.09 19.382ZM100.55 17.364V18.756H96.16V17.364H100.55ZM97.25 15.534H99.05V22.703C99.05 22.945 99.08 23.131 99.16 23.26C99.23 23.386 99.33 23.472 99.46 23.518C99.58 23.565 99.71 23.588 99.86 23.588C99.98 23.588 100.08 23.58 100.17 23.563C100.27 23.547 100.34 23.532 100.39 23.518L100.69 24.925C100.6 24.959 100.46 24.995 100.28 25.035C100.11 25.075 99.89 25.098 99.63 25.104C99.18 25.118 98.78 25.05 98.42 24.901C98.06 24.748 97.7701 24.513 97.5601 24.195C97.3501 23.876 97.24 23.479 97.25 23.001V15.534ZM105.36 25.149C104.59 25.149 103.93 24.99 103.37 24.672C102.82 24.35 102.4 23.896 102.1 23.31C101.8 22.72 101.65 22.025 101.65 21.227C101.65 20.441 101.8 19.752 102.1 19.158C102.4 18.562 102.82 18.098 103.36 17.766C103.9 17.432 104.53 17.264 105.26 17.264C105.73 17.264 106.18 17.34 106.6 17.493C107.02 17.642 107.39 17.874 107.71 18.189C108.03 18.504 108.29 18.905 108.48 19.392C108.66 19.876 108.75 20.453 108.75 21.122V21.674H102.49V20.461H107.03C107.03 20.116 106.95 19.81 106.8 19.541C106.66 19.269 106.46 19.056 106.19 18.9C105.93 18.744 105.63 18.666 105.29 18.666C104.92 18.666 104.6 18.756 104.32 18.935C104.04 19.11 103.82 19.342 103.67 19.631C103.52 19.916 103.44 20.229 103.43 20.57V21.629C103.43 22.073 103.52 22.455 103.68 22.773C103.84 23.088 104.07 23.33 104.36 23.499C104.65 23.664 104.99 23.747 105.38 23.747C105.64 23.747 105.88 23.711 106.09 23.638C106.31 23.562 106.49 23.451 106.65 23.305C106.8 23.159 106.92 22.978 107 22.763L108.68 22.952C108.57 23.396 108.37 23.784 108.07 24.115C107.78 24.443 107.4 24.698 106.94 24.881C106.48 25.06 105.95 25.149 105.36 25.149ZM110.28 25V17.364H112.02V18.636H112.1C112.24 18.196 112.48 17.856 112.82 17.617C113.16 17.375 113.55 17.254 113.99 17.254C114.08 17.254 114.2 17.259 114.32 17.269C114.44 17.276 114.55 17.287 114.63 17.304V18.96C114.56 18.933 114.43 18.91 114.27 18.89C114.11 18.867 113.95 18.855 113.8 18.855C113.47 18.855 113.17 18.926 112.91 19.069C112.65 19.208 112.45 19.402 112.3 19.651C112.15 19.899 112.08 20.186 112.08 20.511V25H110.28Z" fill="#475467"/>
<path d="M131 0H282V40H131V0Z" fill="white"/>
<path d="M281.5 0V40H282.5V0H281.5Z" fill="#D0D5DD"/>
<path d="M153.67 17.493C153.62 17.022 153.4 16.658 153.02 16.399C152.63 16.137 152.15 16.006 151.56 16.006C151.15 16.006 150.79 16.073 150.48 16.205C150.18 16.335 149.94 16.513 149.77 16.742C149.6 16.968 149.52 17.224 149.52 17.513C149.52 17.755 149.58 17.964 149.69 18.139C149.81 18.315 149.96 18.462 150.14 18.582C150.33 18.698 150.53 18.795 150.75 18.875C150.96 18.951 151.17 19.014 151.37 19.064L152.36 19.322C152.69 19.402 153.02 19.51 153.36 19.646C153.71 19.781 154.02 19.96 154.31 20.183C154.6 20.405 154.84 20.68 155.02 21.008C155.2 21.336 155.29 21.729 155.29 22.186C155.29 22.763 155.14 23.275 154.85 23.722C154.55 24.17 154.12 24.523 153.56 24.781C153 25.04 152.32 25.169 151.52 25.169C150.76 25.169 150.1 25.048 149.55 24.806C148.99 24.564 148.55 24.221 148.24 23.777C147.92 23.33 147.75 22.799 147.72 22.186H149.26C149.29 22.554 149.41 22.861 149.62 23.106C149.83 23.348 150.1 23.528 150.43 23.648C150.76 23.764 151.12 23.822 151.51 23.822C151.95 23.822 152.33 23.754 152.67 23.618C153.01 23.479 153.28 23.286 153.48 23.041C153.67 22.793 153.77 22.503 153.77 22.171C153.77 21.87 153.69 21.623 153.51 21.43C153.34 21.238 153.11 21.079 152.82 20.953C152.53 20.827 152.21 20.716 151.84 20.62L150.64 20.292C149.82 20.07 149.18 19.743 148.7 19.312C148.23 18.882 147.99 18.312 147.99 17.602C147.99 17.016 148.15 16.504 148.47 16.066C148.78 15.629 149.22 15.289 149.76 15.047C150.3 14.802 150.92 14.679 151.6 14.679C152.29 14.679 152.9 14.8 153.42 15.042C153.95 15.284 154.37 15.617 154.68 16.041C154.98 16.462 155.14 16.946 155.15 17.493H153.67ZM160.3 25.154C159.55 25.154 158.9 24.993 158.36 24.672C157.82 24.347 157.4 23.891 157.1 23.305C156.81 22.715 156.67 22.024 156.67 21.232C156.67 20.449 156.81 19.76 157.1 19.163C157.4 18.567 157.81 18.101 158.34 17.766C158.87 17.432 159.49 17.264 160.2 17.264C160.63 17.264 161.04 17.335 161.45 17.478C161.85 17.621 162.22 17.844 162.54 18.149C162.86 18.454 163.11 18.85 163.3 19.337C163.48 19.821 163.58 20.41 163.58 21.102V21.629H157.51V20.516H162.12C162.12 20.125 162.04 19.778 161.88 19.477C161.72 19.172 161.5 18.931 161.21 18.756C160.93 18.58 160.59 18.492 160.21 18.492C159.79 18.492 159.42 18.595 159.11 18.8C158.8 19.003 158.57 19.268 158.4 19.596C158.23 19.921 158.15 20.274 158.15 20.655V21.525C158.15 22.035 158.24 22.469 158.42 22.827C158.6 23.185 158.85 23.459 159.18 23.648C159.5 23.833 159.88 23.926 160.32 23.926C160.6 23.926 160.85 23.886 161.09 23.807C161.32 23.724 161.52 23.601 161.69 23.439C161.86 23.277 161.99 23.076 162.08 22.837L163.48 23.091C163.37 23.505 163.17 23.868 162.88 24.18C162.59 24.488 162.22 24.728 161.79 24.901C161.35 25.07 160.86 25.154 160.3 25.154ZM168.44 25.154C167.7 25.154 167.07 24.987 166.53 24.652C166 24.314 165.6 23.848 165.31 23.255C165.03 22.662 164.88 21.982 164.88 21.217C164.88 20.441 165.03 19.757 165.32 19.163C165.61 18.567 166.02 18.101 166.55 17.766C167.08 17.432 167.71 17.264 168.43 17.264C169.01 17.264 169.52 17.372 169.98 17.587C170.43 17.799 170.8 18.098 171.08 18.482C171.36 18.867 171.53 19.316 171.58 19.83H170.13C170.05 19.472 169.87 19.163 169.59 18.905C169.3 18.646 168.93 18.517 168.45 18.517C168.04 18.517 167.68 18.626 167.36 18.845C167.06 19.061 166.82 19.369 166.64 19.77C166.47 20.168 166.38 20.638 166.38 21.182C166.38 21.739 166.47 22.219 166.64 22.624C166.81 23.028 167.05 23.341 167.35 23.563C167.67 23.785 168.03 23.896 168.45 23.896C168.73 23.896 168.99 23.845 169.22 23.742C169.45 23.636 169.64 23.485 169.8 23.29C169.96 23.094 170.07 22.859 170.13 22.584H171.58C171.53 23.078 171.37 23.518 171.1 23.906C170.83 24.294 170.47 24.599 170.02 24.821C169.57 25.043 169.05 25.154 168.44 25.154ZM176.39 25.154C175.67 25.154 175.05 24.99 174.51 24.662C173.98 24.334 173.56 23.875 173.27 23.285C172.97 22.695 172.83 22.005 172.83 21.217C172.83 20.424 172.97 19.732 173.27 19.138C173.56 18.545 173.98 18.085 174.51 17.756C175.05 17.428 175.67 17.264 176.39 17.264C177.1 17.264 177.73 17.428 178.26 17.756C178.79 18.085 179.21 18.545 179.5 19.138C179.8 19.732 179.95 20.424 179.95 21.217C179.95 22.005 179.8 22.695 179.5 23.285C179.21 23.875 178.79 24.334 178.26 24.662C177.73 24.99 177.1 25.154 176.39 25.154ZM176.39 23.906C176.85 23.906 177.24 23.784 177.54 23.538C177.85 23.293 178.07 22.967 178.22 22.559C178.37 22.151 178.44 21.702 178.44 21.212C178.44 20.724 178.37 20.277 178.22 19.869C178.07 19.458 177.85 19.129 177.54 18.88C177.24 18.631 176.85 18.507 176.39 18.507C175.92 18.507 175.54 18.631 175.23 18.88C174.92 19.129 174.7 19.458 174.55 19.869C174.4 20.277 174.33 20.724 174.33 21.212C174.33 21.702 174.4 22.151 174.55 22.559C174.7 22.967 174.92 23.293 175.23 23.538C175.54 23.784 175.92 23.906 176.39 23.906ZM183.09 20.466V25H181.6V17.364H183.03V18.607H183.13C183.3 18.202 183.58 17.877 183.95 17.632C184.33 17.387 184.8 17.264 185.38 17.264C185.9 17.264 186.35 17.374 186.75 17.592C187.14 17.808 187.44 18.129 187.66 18.557C187.87 18.984 187.98 19.513 187.98 20.143V25H186.49V20.322C186.49 19.768 186.35 19.336 186.06 19.024C185.77 18.709 185.37 18.552 184.87 18.552C184.53 18.552 184.22 18.626 183.95 18.776C183.69 18.925 183.48 19.143 183.32 19.432C183.17 19.717 183.09 20.062 183.09 20.466ZM192.83 25.149C192.21 25.149 191.66 24.992 191.18 24.677C190.7 24.359 190.32 23.906 190.05 23.32C189.77 22.73 189.64 22.022 189.64 21.197C189.64 20.371 189.78 19.665 190.05 19.079C190.33 18.492 190.71 18.043 191.19 17.732C191.68 17.42 192.23 17.264 192.84 17.264C193.31 17.264 193.7 17.344 193.98 17.503C194.28 17.659 194.5 17.841 194.66 18.05C194.82 18.259 194.95 18.442 195.04 18.602H195.13V14.818H196.61V25H195.16V23.812H195.04C194.95 23.974 194.82 24.16 194.65 24.369C194.48 24.577 194.26 24.76 193.96 24.915C193.67 25.071 193.29 25.149 192.83 25.149ZM193.16 23.881C193.59 23.881 193.95 23.769 194.24 23.543C194.54 23.315 194.77 22.998 194.92 22.594C195.07 22.189 195.15 21.719 195.15 21.182C195.15 20.652 195.08 20.187 194.92 19.79C194.77 19.392 194.55 19.082 194.25 18.86C193.96 18.638 193.59 18.527 193.16 18.527C192.71 18.527 192.34 18.643 192.04 18.875C191.74 19.107 191.52 19.424 191.36 19.825C191.21 20.226 191.14 20.678 191.14 21.182C191.14 21.692 191.22 22.151 191.37 22.559C191.52 22.967 191.75 23.29 192.05 23.528C192.35 23.764 192.72 23.881 193.16 23.881ZM208.11 17.493C208.06 17.022 207.84 16.658 207.46 16.399C207.07 16.137 206.59 16.006 206.01 16.006C205.59 16.006 205.23 16.073 204.92 16.205C204.62 16.335 204.38 16.513 204.21 16.742C204.04 16.968 203.96 17.224 203.96 17.513C203.96 17.755 204.02 17.964 204.13 18.139C204.25 18.315 204.4 18.462 204.58 18.582C204.77 18.698 204.97 18.795 205.19 18.875C205.41 18.951 205.61 19.014 205.81 19.064L206.81 19.322C207.13 19.402 207.46 19.51 207.81 19.646C208.15 19.781 208.46 19.96 208.75 20.183C209.05 20.405 209.28 20.68 209.46 21.008C209.64 21.336 209.73 21.729 209.73 22.186C209.73 22.763 209.58 23.275 209.29 23.722C208.99 24.17 208.56 24.523 208 24.781C207.44 25.04 206.76 25.169 205.97 25.169C205.2 25.169 204.54 25.048 203.99 24.806C203.43 24.564 202.99 24.221 202.68 23.777C202.36 23.33 202.19 22.799 202.16 22.186H203.7C203.73 22.554 203.85 22.861 204.06 23.106C204.27 23.348 204.54 23.528 204.87 23.648C205.2 23.764 205.56 23.822 205.96 23.822C206.39 23.822 206.78 23.754 207.11 23.618C207.46 23.479 207.72 23.286 207.92 23.041C208.11 22.793 208.21 22.503 208.21 22.171C208.21 21.87 208.13 21.623 207.95 21.43C207.79 21.238 207.55 21.079 207.26 20.953C206.97 20.827 206.65 20.716 206.28 20.62L205.08 20.292C204.27 20.07 203.62 19.743 203.14 19.312C202.67 18.882 202.43 18.312 202.43 17.602C202.43 17.016 202.59 16.504 202.91 16.066C203.23 15.629 203.66 15.289 204.2 15.047C204.74 14.802 205.36 14.679 206.04 14.679C206.73 14.679 207.34 14.8 207.86 15.042C208.4 15.284 208.81 15.617 209.12 16.041C209.42 16.462 209.58 16.946 209.59 17.493H208.11ZM214.74 25.154C213.99 25.154 213.34 24.993 212.8 24.672C212.26 24.347 211.84 23.891 211.54 23.305C211.25 22.715 211.11 22.024 211.11 21.232C211.11 20.449 211.25 19.76 211.54 19.163C211.84 18.567 212.25 18.101 212.78 17.766C213.31 17.432 213.93 17.264 214.64 17.264C215.07 17.264 215.49 17.335 215.89 17.478C216.29 17.621 216.66 17.844 216.98 18.149C217.3 18.454 217.55 18.85 217.74 19.337C217.93 19.821 218.02 20.41 218.02 21.102V21.629H211.95V20.516H216.56C216.56 20.125 216.48 19.778 216.32 19.477C216.16 19.172 215.94 18.931 215.65 18.756C215.37 18.58 215.03 18.492 214.65 18.492C214.23 18.492 213.86 18.595 213.55 18.8C213.25 19.003 213.01 19.268 212.84 19.596C212.67 19.921 212.59 20.274 212.59 20.655V21.525C212.59 22.035 212.68 22.469 212.86 22.827C213.04 23.185 213.29 23.459 213.62 23.648C213.94 23.833 214.32 23.926 214.76 23.926C215.04 23.926 215.3 23.886 215.53 23.807C215.76 23.724 215.96 23.601 216.13 23.439C216.3 23.277 216.43 23.076 216.52 22.837L217.92 23.091C217.81 23.505 217.61 23.868 217.32 24.18C217.03 24.488 216.67 24.728 216.23 24.901C215.79 25.07 215.3 25.154 214.74 25.154ZM219.67 25V17.364H221.09V18.607H221.19C221.35 18.186 221.61 17.857 221.97 17.622C222.33 17.384 222.76 17.264 223.27 17.264C223.78 17.264 224.2 17.384 224.55 17.622C224.9 17.861 225.15 18.189 225.32 18.607H225.4C225.58 18.199 225.87 17.874 226.27 17.632C226.67 17.387 227.14 17.264 227.69 17.264C228.38 17.264 228.95 17.481 229.39 17.915C229.83 18.35 230.05 19.004 230.05 19.879V25H228.56V20.018C228.56 19.501 228.42 19.127 228.14 18.895C227.86 18.663 227.52 18.547 227.13 18.547C226.65 18.547 226.27 18.696 226 18.994C225.73 19.289 225.6 19.669 225.6 20.133V25H224.12V19.924C224.12 19.51 223.99 19.177 223.73 18.925C223.47 18.673 223.13 18.547 222.72 18.547C222.44 18.547 222.18 18.621 221.94 18.771C221.7 18.916 221.51 19.12 221.37 19.382C221.23 19.644 221.15 19.947 221.15 20.292V25H219.67ZM235.33 25.154C234.58 25.154 233.93 24.993 233.39 24.672C232.85 24.347 232.43 23.891 232.13 23.305C231.84 22.715 231.7 22.024 231.7 21.232C231.7 20.449 231.84 19.76 232.13 19.163C232.43 18.567 232.84 18.101 233.37 17.766C233.9 17.432 234.52 17.264 235.23 17.264C235.66 17.264 236.08 17.335 236.48 17.478C236.88 17.621 237.25 17.844 237.57 18.149C237.89 18.454 238.14 18.85 238.33 19.337C238.51 19.821 238.61 20.41 238.61 21.102V21.629H232.54V20.516H237.15C237.15 20.125 237.07 19.778 236.91 19.477C236.75 19.172 236.53 18.931 236.24 18.756C235.96 18.58 235.62 18.492 235.24 18.492C234.82 18.492 234.45 18.595 234.14 18.8C233.84 19.003 233.6 19.268 233.43 19.596C233.26 19.921 233.18 20.274 233.18 20.655V21.525C233.18 22.035 233.27 22.469 233.45 22.827C233.63 23.185 233.88 23.459 234.21 23.648C234.53 23.833 234.91 23.926 235.35 23.926C235.63 23.926 235.89 23.886 236.12 23.807C236.35 23.724 236.55 23.601 236.72 23.439C236.89 23.277 237.02 23.076 237.11 22.837L238.51 23.091C238.4 23.505 238.2 23.868 237.91 24.18C237.62 24.488 237.26 24.728 236.82 24.901C236.38 25.07 235.89 25.154 235.33 25.154ZM245.98 19.228L244.63 19.467C244.58 19.294 244.49 19.13 244.36 18.974C244.24 18.819 244.08 18.691 243.88 18.592C243.67 18.492 243.41 18.442 243.11 18.442C242.68 18.442 242.33 18.537 242.05 18.726C241.77 18.911 241.63 19.152 241.63 19.447C241.63 19.702 241.72 19.907 241.91 20.063C242.1 20.219 242.41 20.347 242.83 20.446L244.04 20.724C244.74 20.887 245.27 21.137 245.61 21.475C245.96 21.813 246.13 22.252 246.13 22.793C246.13 23.25 246 23.658 245.73 24.016C245.47 24.37 245.1 24.649 244.63 24.851C244.16 25.053 243.62 25.154 243.01 25.154C242.15 25.154 241.45 24.972 240.91 24.607C240.37 24.239 240.04 23.717 239.92 23.041L241.36 22.822C241.45 23.197 241.63 23.48 241.91 23.673C242.19 23.862 242.55 23.956 243 23.956C243.48 23.956 243.87 23.855 244.16 23.653C244.46 23.447 244.6 23.197 244.6 22.902C244.6 22.663 244.51 22.463 244.33 22.3C244.16 22.138 243.89 22.015 243.52 21.933L242.23 21.649C241.52 21.487 240.99 21.228 240.65 20.874C240.31 20.519 240.14 20.07 240.14 19.526C240.14 19.076 240.27 18.681 240.52 18.343C240.77 18.005 241.12 17.741 241.56 17.553C242.01 17.36 242.52 17.264 243.09 17.264C243.92 17.264 244.57 17.443 245.04 17.801C245.51 18.156 245.83 18.631 245.98 19.228ZM251.33 17.364V18.557H247.16V17.364H251.33ZM248.28 15.534H249.76V22.758C249.76 23.046 249.8 23.263 249.89 23.409C249.98 23.552 250.09 23.649 250.22 23.702C250.36 23.752 250.51 23.777 250.68 23.777C250.8 23.777 250.9 23.769 250.99 23.752C251.08 23.736 251.15 23.722 251.2 23.712L251.47 24.94C251.38 24.973 251.26 25.007 251.1 25.04C250.94 25.076 250.74 25.096 250.5 25.099C250.11 25.106 249.75 25.036 249.41 24.891C249.07 24.745 248.8 24.519 248.59 24.214C248.38 23.91 248.28 23.527 248.28 23.066V15.534ZM256.18 25.154C255.43 25.154 254.78 24.993 254.24 24.672C253.7 24.347 253.28 23.891 252.98 23.305C252.69 22.715 252.55 22.024 252.55 21.232C252.55 20.449 252.69 19.76 252.98 19.163C253.28 18.567 253.69 18.101 254.22 17.766C254.75 17.432 255.37 17.264 256.08 17.264C256.51 17.264 256.93 17.335 257.33 17.478C257.73 17.621 258.1 17.844 258.42 18.149C258.74 18.454 258.99 18.85 259.18 19.337C259.36 19.821 259.46 20.41 259.46 21.102V21.629H253.39V20.516H258C258 20.125 257.92 19.778 257.76 19.477C257.6 19.172 257.38 18.931 257.09 18.756C256.81 18.58 256.47 18.492 256.09 18.492C255.67 18.492 255.3 18.595 254.99 18.8C254.68 19.003 254.45 19.268 254.28 19.596C254.11 19.921 254.03 20.274 254.03 20.655V21.525C254.03 22.035 254.12 22.469 254.3 22.827C254.48 23.185 254.73 23.459 255.06 23.648C255.38 23.833 255.76 23.926 256.2 23.926C256.48 23.926 256.73 23.886 256.97 23.807C257.2 23.724 257.4 23.601 257.57 23.439C257.74 23.277 257.87 23.076 257.96 22.837L259.36 23.091C259.25 23.505 259.05 23.868 258.76 24.18C258.47 24.488 258.11 24.728 257.67 24.901C257.23 25.07 256.74 25.154 256.18 25.154ZM261.11 25V17.364H262.54V18.577H262.62C262.76 18.166 263.01 17.843 263.36 17.607C263.71 17.369 264.11 17.249 264.56 17.249C264.65 17.249 264.76 17.253 264.89 17.259C265.02 17.266 265.12 17.274 265.19 17.284V18.706C265.13 18.689 265.03 18.671 264.88 18.651C264.72 18.628 264.57 18.616 264.42 18.616C264.07 18.616 263.75 18.691 263.48 18.84C263.21 18.986 262.99 19.19 262.83 19.452C262.67 19.71 262.59 20.005 262.59 20.337V25H261.11Z" fill="#344054"/>
</g>
<path d="M274 0.5H8C3.85786 0.5 0.5 3.85786 0.5 8V32C0.5 36.1421 3.85786 39.5 8 39.5H274C278.142 39.5 281.5 36.1421 281.5 32V8C281.5 3.85786 278.142 0.5 274 0.5Z" stroke="#D0D5DD"/>
</g>
<defs>
<filter id="filter0_d_2_11004" x="-2" y="-1" width="286" height="44" filterUnits="userSpaceOnUse" color-interpolation-filters="sRGB">
<feFlood flood-opacity="0" result="BackgroundImageFix"/>
<feColorMatrix in="SourceAlpha" type="matrix" values="0 0 0 0 0 0 0 0 0 0 0 0 0 0 0 0 0 0 127 0" result="hardAlpha"/>
<feOffset dy="1"/>
<feGaussianBlur stdDeviation="1"/>
<feColorMatrix type="matrix" values="0 0 0 0 0.0627451 0 0 0 0 0.0941176 0 0 0 0 0.156863 0 0 0 0.05 0"/>
<feBlend mode="normal" in2="BackgroundImageFix" result="effect1_dropShadow_2_11004"/>
<feBlend mode="normal" in="SourceGraphic" in2="effect1_dropShadow_2_11004" result="shape"/>
</filter>
</defs>
</svg>
