<svg width="284" height="18" viewBox="0 0 284 18" fill="none" xmlns="http://www.w3.org/2000/svg">
<path d="M3.635 13.6337L0 0.524707H2.07985L4.63436 10.6766H4.75552L7.41219 0.524707H9.473L12.1297 10.6826H12.2508L14.7983 0.524707H16.8852L13.2432 13.6337H11.2525L8.49366 3.81524H8.39153L5.63274 13.6337H3.635ZM20.4491 7.79568V13.6337H18.5355V0.524707H20.423V5.40244H20.5452C20.7755 4.87271 21.127 4.4531 21.6006 4.14167C22.0743 3.83025 22.6932 3.67405 23.4572 3.67405C24.1311 3.67405 24.7199 3.81222 25.2236 4.0896C25.7313 4.36698 26.1239 4.78158 26.4012 5.33234C26.6836 5.87808 26.8238 6.56101 26.8238 7.38013V13.6337H24.9102V7.61043C24.9102 6.88944 24.725 6.33068 24.3535 5.93314C23.9819 5.53259 23.4662 5.33234 22.8043 5.33234C22.3517 5.33234 21.9461 5.42745 21.5886 5.61972C21.2342 5.81198 20.9548 6.09336 20.7495 6.46487C20.5492 6.83138 20.4491 7.27597 20.4491 7.79568ZM30.2355 17.3208C29.9501 17.3208 29.6898 17.2967 29.4545 17.2507C29.2201 17.2076 29.0449 17.1606 28.9297 17.1095L29.3904 15.5414C29.7408 15.6355 30.0523 15.6755 30.3256 15.6625C30.598 15.6495 30.8394 15.5473 31.0487 15.3551C31.2619 15.1638 31.4502 14.8494 31.6114 14.4148L31.8487 13.7619L28.2518 3.80222H30.2996L32.79 11.4317H32.8922L35.3816 3.80222H37.4364L33.3848 14.9455C33.1976 15.4582 32.9582 15.8908 32.6678 16.2453C32.3774 16.6038 32.032 16.8722 31.6315 17.0514C31.2299 17.2307 30.7652 17.3208 30.2355 17.3208ZM46.8664 13.851C46.2435 13.851 45.6807 13.7359 45.177 13.5055C44.6733 13.2712 44.2748 12.9318 43.9794 12.4882C43.69 12.0445 43.5448 11.4998 43.5448 10.8559C43.5448 10.3011 43.6509 9.84448 43.8642 9.48599C44.0775 9.1275 44.3659 8.84413 44.7284 8.63484C45.0919 8.42556 45.4965 8.26732 45.9451 8.16117C46.3927 8.05402 46.8493 7.97293 47.315 7.91786C47.9038 7.84976 48.3814 7.79367 48.749 7.75161C49.1155 7.70455 49.3818 7.62945 49.549 7.5273C49.7153 7.42516 49.7984 7.25897 49.7984 7.02766V6.98359C49.7984 6.42382 49.6402 5.99119 49.3247 5.68377C49.0133 5.37635 48.5477 5.22318 47.9288 5.22318C47.2849 5.22318 46.7772 5.36635 46.4057 5.65174C46.0392 5.93313 45.7849 6.24756 45.6437 6.59304L43.8452 6.18348C44.0585 5.58566 44.3699 5.10399 44.7795 4.73649C45.1941 4.36498 45.6697 4.09661 46.2075 3.93039C46.7452 3.75915 47.31 3.67405 47.9038 3.67405C48.2963 3.67405 48.7119 3.72111 49.1515 3.81524C49.5951 3.90436 50.0097 4.07057 50.3932 4.31391C50.7817 4.55724 51.1002 4.90471 51.3475 5.35733C51.5949 5.80595 51.718 6.38774 51.718 7.10473V13.6337H49.8495V12.2899H49.7724C49.6492 12.5372 49.4629 12.7805 49.2156 13.0189C48.9683 13.2582 48.6508 13.4565 48.2623 13.6147C47.8737 13.7719 47.4081 13.851 46.8664 13.851ZM47.2829 12.3149C47.8116 12.3149 48.2643 12.2108 48.6398 12.0015C49.0193 11.7922 49.3077 11.5188 49.504 11.1823C49.7043 10.8409 49.8044 10.4764 49.8044 10.0878V8.8201C49.7363 8.88819 49.6041 8.95229 49.4078 9.01238C49.2156 9.06745 48.9963 9.11649 48.749 9.15955C48.5006 9.1976 48.2603 9.23466 48.0249 9.26871C47.7906 9.29775 47.5944 9.32377 47.4361 9.3448C47.0646 9.39187 46.7262 9.47098 46.4188 9.58213C46.1153 9.69328 45.872 9.8525 45.6888 10.0618C45.5095 10.2671 45.4204 10.5404 45.4204 10.8809C45.4204 11.3546 45.5946 11.7131 45.9451 11.9564C46.2946 12.1958 46.7412 12.3149 47.2829 12.3149ZM54.2675 13.6337V3.80222H56.1171V5.36338H56.2202C56.3995 4.83466 56.7149 4.41905 57.1675 4.11564C57.6241 3.80822 58.1398 3.65498 58.7166 3.65498C58.8358 3.65498 58.977 3.65899 59.1382 3.668C59.3055 3.67601 59.4356 3.68707 59.5287 3.70009V5.53061C59.4526 5.50858 59.3155 5.4855 59.1192 5.45946C58.9229 5.43042 58.7267 5.41546 58.5304 5.41546C58.0778 5.41546 57.6752 5.51058 57.3207 5.70284C56.9712 5.8911 56.6939 6.15347 56.4886 6.48993C56.2843 6.82339 56.1812 7.20291 56.1812 7.6295V13.6337H54.2675ZM65.0703 13.832C64.102 13.832 63.2679 13.6247 62.5679 13.2111C61.872 12.7936 61.3342 12.2068 60.9547 11.4507C60.5792 10.6917 60.3919 9.80148 60.3919 8.78208C60.3919 7.7747 60.5792 6.88742 60.9547 6.11937C61.3342 5.35131 61.864 4.75153 62.5419 4.32094C63.2248 3.88934 64.0229 3.67405 64.9362 3.67405C65.4909 3.67405 66.0287 3.76614 66.5494 3.94939C67.0701 4.13265 67.5367 4.42108 67.9513 4.81362C68.3649 5.20616 68.6913 5.71583 68.9307 6.34269C69.169 6.96655 69.2892 7.72361 69.2892 8.61584V9.29377H61.4734V7.85979H67.4136C67.4136 7.3571 67.3104 6.91049 67.1062 6.52196C66.9009 6.12942 66.6135 5.81997 66.242 5.59466C65.8755 5.36835 65.4439 5.2552 64.9492 5.2552C64.4114 5.2552 63.9418 5.38738 63.5413 5.65174C63.1437 5.9121 62.8363 6.25358 62.619 6.67616C62.4057 7.09373 62.2995 7.54838 62.2995 8.03906V9.15955C62.2995 9.81645 62.4147 10.3752 62.645 10.8368C62.8793 11.2975 63.2058 11.649 63.6244 11.8923C64.0419 12.1316 64.5306 12.2508 65.0894 12.2508C65.4529 12.2508 65.7833 12.1997 66.0817 12.0976C66.3812 11.9905 66.6385 11.8332 66.8568 11.6239C67.0741 11.4146 67.2403 11.1563 67.3555 10.8489L69.167 11.1753C69.0218 11.7091 68.7614 12.1767 68.3859 12.5773C68.0154 12.9748 67.5478 13.2842 66.984 13.5055C66.4252 13.7228 65.7873 13.832 65.0703 13.832ZM76.1826 13.6337V3.80222H78.0191V5.40244H78.1413C78.3456 4.86069 78.681 4.43806 79.1457 4.13465C79.6113 3.82722 80.1681 3.67405 80.817 3.67405C81.4739 3.67405 82.0247 3.82722 82.4683 4.13465C82.9159 4.44207 83.2473 4.8647 83.4606 5.40244H83.5628C83.7971 4.87772 84.1706 4.45909 84.6833 4.14766C85.195 3.83223 85.8048 3.67405 86.5138 3.67405C87.405 3.67405 88.133 3.95341 88.6958 4.51218C89.2636 5.07195 89.547 5.91413 89.547 7.04067V13.6337H87.6333V7.21988C87.6333 6.55396 87.4521 6.07233 87.0896 5.77392C86.7271 5.47451 86.2935 5.32531 85.7898 5.32531C85.167 5.32531 84.6833 5.51758 84.3368 5.90111C83.9914 6.28163 83.8191 6.77029 83.8191 7.36711V13.6337H81.9115V7.09874C81.9115 6.565 81.7452 6.13644 81.4118 5.812C81.0793 5.48755 80.6457 5.32531 80.113 5.32531C79.7495 5.32531 79.4151 5.42146 79.1076 5.61373C78.8042 5.80098 78.5589 6.06329 78.3716 6.40076C78.1884 6.73822 78.0962 7.1288 78.0962 7.57241V13.6337H76.1826ZM92.9707 17.3208C92.6843 17.3208 92.4239 17.2967 92.1896 17.2507C91.9543 17.2076 91.78 17.1606 91.6649 17.1095L92.1255 15.5414C92.475 15.6355 92.7864 15.6755 93.0598 15.6625C93.3332 15.6495 93.5745 15.5473 93.7828 15.3551C93.9961 15.1638 94.1844 14.8494 94.3466 14.4148L94.5829 13.7619L90.9859 3.80222H93.0348L95.5242 11.4317H95.6263L98.1167 3.80222H100.172L96.119 14.9455C95.9317 15.4582 95.6924 15.8908 95.403 16.2453C95.1126 16.6038 94.7671 16.8722 94.3656 17.0514C93.964 17.2307 93.4994 17.3208 92.9707 17.3208ZM110.862 17.525C110.081 17.525 109.409 17.4229 108.845 17.2187C108.287 17.0134 107.83 16.742 107.477 16.4055C107.122 16.0681 106.858 15.6995 106.683 15.298L108.328 14.6191C108.443 14.8073 108.596 15.0056 108.788 15.2149C108.985 15.4282 109.249 15.6094 109.582 15.7586C109.919 15.9078 110.353 15.9829 110.881 15.9829C111.607 15.9829 112.206 15.8057 112.68 15.4512C113.153 15.1017 113.391 14.543 113.391 13.7749V11.8413H113.269C113.153 12.0506 112.987 12.2828 112.77 12.5392C112.557 12.7955 112.262 13.0169 111.887 13.2051C111.511 13.3924 111.022 13.4865 110.421 13.4865C109.644 13.4865 108.944 13.3053 108.321 12.9428C107.702 12.5753 107.211 12.0355 106.849 11.3226C106.49 10.6066 106.311 9.72532 106.311 8.67989C106.311 7.63445 106.488 6.73822 106.843 5.9912C107.201 5.24417 107.692 4.67244 108.315 4.27589C108.938 3.87434 109.644 3.67405 110.434 3.67405C111.044 3.67405 111.536 3.7762 111.912 3.98148C112.287 4.18176 112.58 4.41608 112.789 4.68545C113.002 4.95382 113.166 5.19113 113.282 5.39541H113.423V3.80222H115.298V13.851C115.298 14.6962 115.102 15.3901 114.71 15.9319C114.317 16.4736 113.785 16.8751 113.115 17.1345C112.449 17.3949 111.698 17.525 110.862 17.525ZM110.843 11.8993C111.394 11.8993 111.859 11.7711 112.238 11.5148C112.623 11.2544 112.913 10.8839 113.109 10.4012C113.31 9.91458 113.41 9.33278 113.41 8.65385C113.41 7.99194 113.312 7.41015 113.115 6.90646C112.919 6.40277 112.631 6.01026 112.251 5.72888C111.872 5.44248 111.402 5.30025 110.843 5.30025C110.267 5.30025 109.787 5.44947 109.403 5.74788C109.019 6.04229 108.728 6.44387 108.532 6.95156C108.341 7.45926 108.245 8.02699 108.245 8.65385C108.245 9.29774 108.343 9.86354 108.539 10.3502C108.735 10.8369 109.025 11.2164 109.409 11.4898C109.798 11.7622 110.275 11.8993 110.843 11.8993ZM117.865 13.6337V3.80222H119.714V5.36338H119.817C119.996 4.83466 120.312 4.41905 120.764 4.11564C121.22 3.80822 121.737 3.65498 122.313 3.65498C122.433 3.65498 122.573 3.65899 122.736 3.668C122.902 3.67601 123.032 3.68707 123.126 3.70009V5.53061C123.049 5.50858 122.913 5.4855 122.717 5.45946C122.52 5.43042 122.324 5.41546 122.128 5.41546C121.675 5.41546 121.273 5.51058 120.918 5.70284C120.568 5.8911 120.29 6.15347 120.086 6.48993C119.881 6.82339 119.778 7.20291 119.778 7.6295V13.6337H117.865ZM127.555 13.851C126.932 13.851 126.37 13.7359 125.866 13.5055C125.362 13.2712 124.964 12.9318 124.669 12.4882C124.379 12.0445 124.234 11.4998 124.234 10.8559C124.234 10.3011 124.34 9.84448 124.554 9.48599C124.767 9.1275 125.055 8.84413 125.417 8.63484C125.781 8.42556 126.186 8.26732 126.634 8.16117C127.082 8.05402 127.538 7.97293 128.004 7.91786C128.593 7.84976 129.07 7.79367 129.438 7.75161C129.804 7.70455 130.071 7.62945 130.238 7.5273C130.404 7.42516 130.487 7.25897 130.487 7.02766V6.98359C130.487 6.42382 130.329 5.99119 130.014 5.68377C129.702 5.37635 129.236 5.22318 128.618 5.22318C127.974 5.22318 127.466 5.36635 127.095 5.65174C126.728 5.93313 126.474 6.24756 126.333 6.59304L124.534 6.18348C124.747 5.58566 125.06 5.10399 125.469 4.73649C125.883 4.36498 126.359 4.09661 126.896 3.93039C127.434 3.75915 128 3.67405 128.593 3.67405C128.985 3.67405 129.401 3.72111 129.84 3.81524C130.285 3.90436 130.698 4.07057 131.082 4.31391C131.471 4.55724 131.789 4.90471 132.036 5.35733C132.284 5.80595 132.408 6.38774 132.408 7.10473V13.6337H130.538V12.2899H130.461C130.338 12.5372 130.152 12.7805 129.904 13.0189C129.657 13.2582 129.34 13.4565 128.951 13.6147C128.563 13.7719 128.098 13.851 127.555 13.851ZM127.972 12.3149C128.5 12.3149 128.953 12.2108 129.329 12.0015C129.708 11.7922 129.997 11.5188 130.193 11.1823C130.393 10.8409 130.493 10.4764 130.493 10.0878V8.8201C130.425 8.88819 130.293 8.95229 130.097 9.01238C129.904 9.06745 129.685 9.11649 129.438 9.15955C129.19 9.1976 128.949 9.23466 128.714 9.26871C128.479 9.29775 128.283 9.32377 128.125 9.3448C127.754 9.39187 127.415 9.47098 127.108 9.58213C126.804 9.69328 126.562 9.8525 126.378 10.0618C126.198 10.2671 126.109 10.5404 126.109 10.8809C126.109 11.3546 126.284 11.7131 126.634 11.9564C126.983 12.1958 127.43 12.3149 127.972 12.3149ZM138.637 13.826C137.843 13.826 137.135 13.6227 136.511 13.2182C135.894 12.8076 135.407 12.2258 135.052 11.4697C134.703 10.7107 134.528 9.79943 134.528 8.73697C134.528 7.67452 134.705 6.76531 135.058 6.01027C135.417 5.25523 135.909 4.67644 136.532 4.27589C137.154 3.87434 137.86 3.67405 138.649 3.67405C139.26 3.67405 139.751 3.7762 140.122 3.98148C140.498 4.18176 140.787 4.41608 140.993 4.68545C141.202 4.95382 141.364 5.19113 141.479 5.39541H141.594V0.524707H143.508V13.6337H141.639V12.1036H141.479C141.364 12.3129 141.197 12.5522 140.98 12.8206C140.766 13.09 140.472 13.3243 140.096 13.5246C139.721 13.7258 139.234 13.826 138.637 13.826ZM139.06 12.1937C139.61 12.1937 140.075 12.0486 140.455 11.7582C140.839 11.4637 141.129 11.0562 141.325 10.5355C141.526 10.0147 141.626 9.40891 141.626 8.71797C141.626 8.03503 141.528 7.43723 141.332 6.92553C141.136 6.41382 140.847 6.01427 140.468 5.72888C140.088 5.44248 139.619 5.30025 139.06 5.30025C138.483 5.30025 138.004 5.44947 137.619 5.74788C137.235 6.04629 136.945 6.45386 136.749 6.97057C136.557 7.48728 136.46 8.06908 136.46 8.71797C136.46 9.37487 136.559 9.96568 136.755 10.4914C136.951 11.0161 137.241 11.4317 137.626 11.7391C138.014 12.0425 138.492 12.1937 139.06 12.1937ZM150.477 13.832C149.508 13.832 148.674 13.6247 147.974 13.2111C147.278 12.7936 146.742 12.2068 146.361 11.4507C145.985 10.6917 145.798 9.80148 145.798 8.78208C145.798 7.7747 145.985 6.88742 146.361 6.11937C146.742 5.35131 147.27 4.75153 147.948 4.32094C148.631 3.88934 149.429 3.67405 150.342 3.67405C150.897 3.67405 151.435 3.76614 151.956 3.94939C152.476 4.13265 152.943 4.42108 153.358 4.81362C153.771 5.20616 154.098 5.71583 154.337 6.34269C154.575 6.96655 154.695 7.72361 154.695 8.61584V9.29377H146.88V7.85979H152.82C152.82 7.3571 152.718 6.91049 152.512 6.52196C152.307 6.12942 152.02 5.81997 151.648 5.59466C151.282 5.36835 150.85 5.2552 150.355 5.2552C149.818 5.2552 149.348 5.38738 148.948 5.65174C148.55 5.9121 148.244 6.25358 148.025 6.67616C147.812 7.09373 147.706 7.54838 147.706 8.03906V9.15955C147.706 9.81645 147.821 10.3752 148.051 10.8368C148.286 11.2975 148.612 11.649 149.031 11.8923C149.448 12.1316 149.937 12.2508 150.497 12.2508C150.859 12.2508 151.19 12.1997 151.488 12.0976C151.787 11.9905 152.045 11.8332 152.263 11.6239C152.48 11.4146 152.647 11.1563 152.762 10.8489L154.573 11.1753C154.428 11.7091 154.168 12.1767 153.792 12.5773C153.422 12.9748 152.954 13.2842 152.391 13.5055C151.831 13.7228 151.194 13.832 150.477 13.832ZM164.185 6.20249L162.451 6.50992C162.379 6.28761 162.264 6.07633 162.106 5.87605C161.952 5.67578 161.743 5.51054 161.479 5.38337C161.213 5.25519 160.883 5.19109 160.486 5.19109C159.945 5.19109 159.492 5.31227 159.13 5.5556C158.767 5.79493 158.585 6.10436 158.585 6.48388C158.585 6.81233 158.707 7.07672 158.95 7.278C159.194 7.47828 159.586 7.64251 160.128 7.77068L161.69 8.12914C162.594 8.33843 163.268 8.6599 163.712 9.0955C164.156 9.5311 164.378 10.0958 164.378 10.7918C164.378 11.3806 164.208 11.9053 163.866 12.366C163.529 12.8226 163.057 13.1811 162.451 13.4414C161.849 13.7018 161.152 13.832 160.358 13.832C159.258 13.832 158.359 13.5977 157.664 13.128C156.968 12.6544 156.541 11.9824 156.384 11.1122L158.233 10.8299C158.348 11.3125 158.585 11.6771 158.943 11.9244C159.302 12.1677 159.769 12.2899 160.345 12.2899C160.973 12.2899 161.474 12.1597 161.849 11.8993C162.225 11.635 162.413 11.3125 162.413 10.933C162.413 10.6256 162.298 10.3672 162.068 10.1579C161.841 9.94864 161.494 9.79147 161.024 9.68432L159.36 9.31981C158.443 9.11052 157.764 8.77805 157.324 8.32143C156.889 7.8648 156.671 7.28597 156.671 6.58601C156.671 6.00621 156.833 5.49852 157.158 5.06292C157.482 4.62732 157.93 4.28887 158.502 4.04553C159.073 3.79819 159.729 3.67405 160.467 3.67405C161.53 3.67405 162.366 3.90437 162.976 4.365C163.587 4.82163 163.989 5.43443 164.185 6.20249ZM173.167 7.79568V13.6337H171.252V3.80222H173.09V5.40244H173.211C173.437 4.88172 173.792 4.4631 174.273 4.14766C174.76 3.83223 175.373 3.67405 176.111 3.67405C176.781 3.67405 177.368 3.81524 177.871 4.09663C178.375 4.37401 178.764 4.78757 179.042 5.33832C179.319 5.88908 179.458 6.56902 179.458 7.38013V13.6337H177.545V7.61043C177.545 6.89745 177.359 6.34071 176.988 5.94016C176.617 5.53461 176.107 5.33234 175.458 5.33234C175.014 5.33234 174.62 5.42745 174.273 5.61972C173.932 5.81198 173.661 6.09336 173.461 6.46487C173.265 6.83138 173.167 7.27597 173.167 7.79568ZM186.167 13.832C185.244 13.832 184.44 13.6207 183.753 13.1981C183.066 12.7755 182.533 12.1847 182.153 11.4257C181.774 10.6656 181.583 9.77841 181.583 8.76301C181.583 7.74261 181.774 6.85139 182.153 6.08734C182.533 5.32329 183.066 4.7305 183.753 4.30792C184.44 3.88534 185.244 3.67405 186.167 3.67405C187.088 3.67405 187.893 3.88534 188.58 4.30792C189.267 4.7305 189.8 5.32329 190.18 6.08734C190.56 6.85139 190.749 7.74261 190.749 8.76301C190.749 9.77841 190.56 10.6656 190.18 11.4257C189.8 12.1847 189.267 12.7755 188.58 13.1981C187.893 13.6207 187.088 13.832 186.167 13.832ZM186.173 12.2258C186.771 12.2258 187.265 12.0675 187.658 11.7521C188.05 11.4357 188.341 11.0161 188.528 10.4914C188.72 9.96568 188.816 9.38791 188.816 8.75604C188.816 8.12918 188.72 7.55338 188.528 7.02766C188.341 6.49893 188.05 6.07431 187.658 5.75387C187.265 5.43443 186.771 5.27421 186.173 5.27421C185.571 5.27421 185.072 5.43443 184.675 5.75387C184.282 6.07431 183.99 6.49893 183.798 7.02766C183.61 7.55338 183.516 8.12918 183.516 8.75604C183.516 9.38791 183.61 9.96568 183.798 10.4914C183.99 11.0161 184.282 11.4357 184.675 11.7521C185.072 12.0675 185.571 12.2258 186.173 12.2258ZM197.475 3.80222V5.33832H192.105V3.80222H197.475ZM193.545 1.44699H195.458V10.7468C195.458 11.1183 195.515 11.3977 195.626 11.5859C195.736 11.7692 195.879 11.8943 196.054 11.9634C196.233 12.0275 196.428 12.0595 196.637 12.0595C196.79 12.0595 196.924 12.0485 197.04 12.0275C197.155 12.0055 197.245 11.9884 197.309 11.9754L197.654 13.5566C197.543 13.5996 197.385 13.6428 197.181 13.6848C196.976 13.7319 196.72 13.7579 196.413 13.7619C195.909 13.7699 195.439 13.6808 195.005 13.4925C194.569 13.3053 194.217 13.0149 193.948 12.6223C193.679 12.2298 193.545 11.7371 193.545 11.1433V1.44699ZM211.73 6.20249L209.995 6.50992C209.922 6.28761 209.807 6.07633 209.65 5.87605C209.496 5.67578 209.286 5.51054 209.022 5.38337C208.758 5.25519 208.427 5.19109 208.03 5.19109C207.488 5.19109 207.036 5.31227 206.673 5.5556C206.31 5.79493 206.129 6.10436 206.129 6.48388C206.129 6.81233 206.25 7.07672 206.494 7.278C206.737 7.47828 207.129 7.64251 207.671 7.77068L209.233 8.12914C210.139 8.33843 210.812 8.6599 211.256 9.0955C211.7 9.5311 211.922 10.0958 211.922 10.7918C211.922 11.3806 211.751 11.9053 211.409 12.366C211.073 12.8226 210.601 13.1811 209.995 13.4414C209.394 13.7018 208.696 13.832 207.902 13.832C206.801 13.832 205.903 13.5977 205.208 13.128C204.512 12.6544 204.085 11.9824 203.927 11.1122L205.777 10.8299C205.892 11.3125 206.129 11.6771 206.488 11.9244C206.846 12.1677 207.314 12.2899 207.889 12.2899C208.516 12.2899 209.018 12.1597 209.394 11.8993C209.769 11.635 209.956 11.3125 209.956 10.933C209.956 10.6256 209.841 10.3672 209.611 10.1579C209.385 9.94864 209.037 9.79147 208.567 9.68432L206.903 9.31981C205.986 9.11052 205.308 8.77805 204.868 8.32143C204.433 7.8648 204.215 7.28597 204.215 6.58601C204.215 6.00621 204.378 5.49852 204.702 5.06292C205.026 4.62732 205.474 4.28887 206.046 4.04553C206.618 3.79819 207.273 3.67405 208.011 3.67405C209.073 3.67405 209.91 3.90437 210.52 4.365C211.13 4.82163 211.533 5.43443 211.73 6.20249ZM215.94 7.79568V13.6337H214.026V0.524707H215.915V5.40244H216.036C216.266 4.87271 216.618 4.4531 217.092 4.14167C217.566 3.83025 218.185 3.67405 218.949 3.67405C219.623 3.67405 220.211 3.81222 220.715 4.0896C221.223 4.36698 221.615 4.78158 221.893 5.33234C222.174 5.87808 222.315 6.56101 222.315 7.38013V13.6337H220.402V7.61043C220.402 6.88944 220.215 6.33068 219.845 5.93314C219.473 5.53259 218.957 5.33234 218.296 5.33234C217.843 5.33234 217.438 5.42745 217.079 5.61972C216.725 5.81198 216.445 6.09336 216.241 6.46487C216.041 6.83138 215.94 7.27597 215.94 7.79568ZM229.011 13.832C228.088 13.832 227.284 13.6207 226.597 13.1981C225.91 12.7755 225.377 12.1847 224.997 11.4257C224.617 10.6656 224.427 9.77841 224.427 8.76301C224.427 7.74261 224.617 6.85139 224.997 6.08734C225.377 5.32329 225.91 4.7305 226.597 4.30792C227.284 3.88534 228.088 3.67405 229.011 3.67405C229.932 3.67405 230.737 3.88534 231.424 4.30792C232.111 4.7305 232.643 5.32329 233.024 6.08734C233.404 6.85139 233.594 7.74261 233.594 8.76301C233.594 9.77841 233.404 10.6656 233.024 11.4257C232.643 12.1847 232.111 12.7755 231.424 13.1981C230.737 13.6207 229.932 13.832 229.011 13.832ZM229.017 12.2258C229.614 12.2258 230.109 12.0675 230.502 11.7521C230.894 11.4357 231.185 11.0161 231.373 10.4914C231.564 9.96568 231.66 9.38791 231.66 8.75604C231.66 8.12918 231.564 7.55338 231.373 7.02766C231.185 6.49893 230.894 6.07431 230.502 5.75387C230.109 5.43443 229.614 5.27421 229.017 5.27421C228.415 5.27421 227.916 5.43443 227.519 5.75387C227.127 6.07431 226.835 6.49893 226.642 7.02766C226.454 7.55338 226.361 8.12918 226.361 8.75604C226.361 9.38791 226.454 9.96568 226.642 10.4914C226.835 11.0161 227.127 11.4357 227.519 11.7521C227.916 12.0675 228.415 12.2258 229.017 12.2258ZM237.562 13.6337L234.669 3.80222H236.647L238.574 11.0222H238.67L240.602 3.80222H242.58L244.501 10.9901H244.597L246.511 3.80222H248.488L245.601 13.6337H243.65L241.652 6.53498H241.505L239.508 13.6337H237.562ZM250.305 13.6337V3.80222H252.218V13.6337H250.305ZM251.271 2.28512C250.938 2.28512 250.652 2.174 250.413 1.95269C250.179 1.72638 250.061 1.45698 250.061 1.14556C250.061 0.830122 250.179 0.560759 250.413 0.339455C250.652 0.113145 250.938 0 251.271 0C251.604 0 251.888 0.113145 252.122 0.339455C252.362 0.560759 252.481 0.830122 252.481 1.14556C252.481 1.45698 252.362 1.72638 252.122 1.95269C251.888 2.174 251.604 2.28512 251.271 2.28512ZM256.707 7.79568V13.6337H254.793V3.80222H256.63V5.40244H256.752C256.978 4.88172 257.332 4.4631 257.814 4.14766C258.301 3.83223 258.913 3.67405 259.652 3.67405C260.322 3.67405 260.908 3.81524 261.411 4.09663C261.915 4.37401 262.305 4.78757 262.583 5.33832C262.86 5.88908 262.999 6.56902 262.999 7.38013V13.6337H261.085V7.61043C261.085 6.89745 260.899 6.34071 260.528 5.94016C260.157 5.53461 259.647 5.33234 258.999 5.33234C258.554 5.33234 258.16 5.42745 257.814 5.61972C257.473 5.81198 257.202 6.09336 257.001 6.46487C256.805 6.83138 256.707 7.27597 256.707 7.79568ZM269.687 17.525C268.907 17.525 268.234 17.4229 267.672 17.2187C267.113 17.0134 266.656 16.742 266.302 16.4055C265.947 16.0681 265.683 15.6995 265.508 15.298L267.153 14.6191C267.268 14.8073 267.422 15.0056 267.614 15.2149C267.81 15.4282 268.075 15.6094 268.408 15.7586C268.745 15.9078 269.178 15.9829 269.707 15.9829C270.432 15.9829 271.032 15.8057 271.506 15.4512C271.98 15.1017 272.216 14.543 272.216 13.7749V11.8413H272.095C271.979 12.0506 271.813 12.2828 271.595 12.5392C271.382 12.7955 271.087 13.0169 270.712 13.2051C270.336 13.3924 269.848 13.4865 269.246 13.4865C268.47 13.4865 267.77 13.3053 267.147 12.9428C266.528 12.5753 266.037 12.0355 265.675 11.3226C265.316 10.6066 265.137 9.72532 265.137 8.67989C265.137 7.63445 265.313 6.73822 265.668 5.9912C266.026 5.24417 266.517 4.67244 267.14 4.27589C267.764 3.87434 268.47 3.67405 269.259 3.67405C269.869 3.67405 270.362 3.7762 270.738 3.98148C271.113 4.18176 271.406 4.41608 271.614 4.68545C271.827 4.95382 271.993 5.19113 272.108 5.39541H272.248V3.80222H274.123V13.851C274.123 14.6962 273.927 15.3901 273.535 15.9319C273.142 16.4736 272.61 16.8751 271.94 17.1345C271.276 17.3949 270.524 17.525 269.687 17.525ZM269.668 11.8993C270.219 11.8993 270.684 11.7711 271.064 11.5148C271.448 11.2544 271.738 10.8839 271.934 10.4012C272.135 9.91458 272.235 9.33278 272.235 8.65385C272.235 7.99194 272.137 7.41015 271.94 6.90646C271.744 6.40277 271.457 6.01026 271.076 5.72888C270.697 5.44248 270.227 5.30025 269.668 5.30025C269.093 5.30025 268.613 5.44947 268.228 5.74788C267.844 6.04229 267.554 6.44387 267.358 6.95156C267.166 7.45926 267.07 8.02699 267.07 8.65385C267.07 9.29774 267.168 9.86354 267.364 10.3502C267.56 10.8369 267.851 11.2164 268.234 11.4898C268.623 11.7622 269.101 11.8993 269.668 11.8993ZM278.783 9.86352V9.74238C278.792 8.94829 278.871 8.3164 279.02 7.84775C279.173 7.37811 279.392 6.99859 279.673 6.70819C279.954 6.41779 280.294 6.15346 280.69 5.91413C280.947 5.7519 281.177 5.57063 281.382 5.37035C281.587 5.17008 281.749 4.93876 281.868 4.6794C281.988 4.41904 282.047 4.13067 282.047 3.81524C282.047 3.43471 281.958 3.10628 281.779 2.8289C281.6 2.55152 281.36 2.33819 281.062 2.18898C280.768 2.03577 280.439 1.95868 280.077 1.95868C279.748 1.95868 279.434 2.02676 279.135 2.16294C278.837 2.30013 278.59 2.51344 278.393 2.80384C278.197 3.08923 278.084 3.45872 278.054 3.91034H276.108C276.137 3.14228 276.332 2.4944 276.69 1.96467C277.048 1.43194 277.522 1.02838 278.111 0.755004C278.705 0.481629 279.36 0.345445 280.077 0.345445C280.862 0.345445 281.549 0.492687 282.137 0.787092C282.726 1.07749 283.183 1.48506 283.507 2.00978C283.836 2.53049 284 3.13829 284 3.83425C284 4.3119 283.925 4.74251 283.776 5.12704C283.627 5.50656 283.413 5.84601 283.136 6.14442C282.862 6.44384 282.534 6.70823 282.15 6.93854C281.787 7.16486 281.493 7.39918 281.267 7.64251C281.045 7.88585 280.883 8.17422 280.781 8.50668C280.678 8.83913 280.622 9.25171 280.614 9.74238V9.86352H278.783ZM279.75 13.7549C279.4 13.7549 279.099 13.6317 278.847 13.3843C278.596 13.132 278.469 12.8296 278.469 12.4751C278.469 12.1257 278.596 11.8262 278.847 11.5789C279.099 11.3275 279.4 11.2014 279.75 11.2014C280.096 11.2014 280.394 11.3275 280.646 11.5789C280.902 11.8262 281.03 12.1257 281.03 12.4751C281.03 12.7095 280.97 12.9258 280.851 13.122C280.736 13.3133 280.582 13.4675 280.39 13.5826C280.198 13.6978 279.985 13.7549 279.75 13.7549Z" fill="#101828"/>
</svg>
