<svg width="241" height="36" viewBox="0 0 241 36" fill="none" xmlns="http://www.w3.org/2000/svg">
<path d="M6.33689 0V34.98H0V0H6.33689ZM18.1458 19.6078V34.98H11.9633V8.74473H17.8733V13.2028H18.1799C18.7841 11.7338 19.7461 10.5664 21.0668 9.70167C22.3995 8.83592 24.0448 8.40305 26.0028 8.40305C27.8134 8.40305 29.3907 8.79083 30.7344 9.5644C32.0892 10.339 33.1373 11.4603 33.8768 12.9292C34.6283 14.3982 34.999 16.1808 34.987 18.2761V34.98H28.8045V19.232C28.8045 17.4785 28.3485 16.1067 27.4377 15.1157C26.5379 14.1246 25.2914 13.6296 23.6971 13.6296C22.6159 13.6296 21.6529 13.8691 20.8102 14.3471C19.9795 14.814 19.3253 15.4914 18.8463 16.3802C18.3793 17.268 18.1458 18.3442 18.1458 19.6078ZM61.0459 15.6798L55.4095 16.2941C55.2502 15.7249 54.9716 15.1898 54.5728 14.6888C54.186 14.1878 53.6619 13.784 53.0016 13.4763C52.3412 13.1687 51.5326 13.0154 50.5756 13.0154C49.289 13.0154 48.2079 13.294 47.3311 13.8521C46.4653 14.4102 46.0385 15.1327 46.0495 16.0215C46.0385 16.7841 46.317 17.4043 46.8861 17.8833C47.4673 18.3613 48.4243 18.754 49.756 19.0617L54.2311 20.0176C56.7131 20.5527 58.5578 21.4014 59.7653 22.5628C60.9838 23.7241 61.598 25.2442 61.61 27.123C61.598 28.7744 61.114 30.2313 60.1581 31.4959C59.2131 32.7484 57.8975 33.7274 56.2121 34.4339C54.5266 35.1393 52.5917 35.492 50.4053 35.492C47.1938 35.492 44.6095 34.8206 42.6506 33.4769C40.6926 32.1222 39.5252 30.2373 39.1494 27.8234L45.1787 27.2423C45.4523 28.4267 46.0324 29.3205 46.9212 29.9247C47.809 30.5279 48.9644 30.8295 50.3882 30.8295C51.8572 30.8295 53.0356 30.5279 53.9234 29.9247C54.8233 29.3205 55.2732 28.575 55.2732 27.6872C55.2732 26.9356 54.9826 26.3144 54.4014 25.8254C53.8322 25.3354 52.9444 24.9596 51.737 24.6981L47.2619 23.7582C44.7458 23.2341 42.884 22.3523 41.6776 21.1108C40.4701 19.8583 39.8719 18.2761 39.884 16.3622C39.8719 14.7459 40.3108 13.3451 41.1986 12.1607C42.0985 10.9652 43.345 10.0434 44.9392 9.39406C46.5455 8.73372 48.3952 8.40305 50.4904 8.40305C53.5647 8.40305 55.9846 9.05838 57.7492 10.368C59.5258 11.6767 60.6251 13.4473 61.0459 15.6798ZM78.847 8.74473V13.5274H63.7644V8.74473H78.847ZM67.4879 2.45898H73.6715V27.089C73.6715 27.9206 73.7968 28.5579 74.0473 29.0018C74.3088 29.4347 74.6505 29.7303 75.0724 29.8896C75.4932 30.05 75.9601 30.1291 76.4722 30.1291C76.86 30.1291 77.2127 30.1011 77.5313 30.044C77.862 29.9868 78.1125 29.9357 78.2828 29.8896L79.3249 34.7234C78.9943 34.8377 78.5223 34.9629 77.9071 35.0992C77.3039 35.2365 76.5634 35.3156 75.6866 35.3387C74.1384 35.3838 72.7436 35.1503 71.5021 34.6383C70.2606 34.1142 69.2756 33.3066 68.5471 32.2134C67.8296 31.1201 67.4769 29.7534 67.4879 28.114V2.45898ZM83.0555 34.98V8.74473H89.0507V13.1176H89.3242C89.8022 11.6025 90.6219 10.4362 91.7833 9.61651C92.9566 8.78482 94.2943 8.36897 95.7974 8.36897C96.1391 8.36897 96.5209 8.38601 96.9417 8.42008C97.3746 8.44313 97.7333 8.48321 98.0179 8.54032V14.2279C97.7564 14.1367 97.3405 14.0565 96.7713 13.9884C96.2132 13.9092 95.6721 13.8691 95.1481 13.8691C94.0208 13.8691 93.0077 14.1136 92.1079 14.6036C91.2201 15.0816 90.5197 15.7479 90.0076 16.6017C89.4946 17.4554 89.2391 18.4404 89.2391 19.5567V34.98H83.0555ZM117.885 23.9466V8.74473H124.068V34.98H118.073V30.3175H117.8C117.208 31.7855 116.234 32.9869 114.879 33.9208C113.535 34.8547 111.879 35.3217 109.909 35.3217C108.19 35.3217 106.669 34.9399 105.348 34.1773C104.039 33.4028 103.014 32.2815 102.274 30.8125C101.534 29.3325 101.163 27.5449 101.163 25.4496V8.74473H107.347V24.4927C107.347 26.1551 107.802 27.4757 108.713 28.4557C109.624 29.4347 110.82 29.9247 112.3 29.9247C113.211 29.9247 114.094 29.7023 114.947 29.2584C115.801 28.8144 116.501 28.1541 117.049 27.2763C117.606 26.3885 117.885 25.2783 117.885 23.9466ZM140.908 35.492C138.289 35.492 136.04 34.9178 134.161 33.7675C132.293 32.6172 130.854 31.0289 129.839 29.0018C128.837 26.9637 128.336 24.6179 128.336 21.9646C128.336 19.3002 128.849 16.9494 129.875 14.9112C130.899 12.8611 132.345 11.2669 134.212 10.1286C136.091 8.97822 138.312 8.40305 140.874 8.40305C143.003 8.40305 144.887 8.79584 146.527 9.58144C148.179 10.356 149.493 11.4552 150.472 12.8781C151.452 14.29 152.009 15.9413 152.147 17.8312H146.237C145.997 16.5676 145.428 15.5145 144.529 14.6718C143.64 13.818 142.451 13.3912 140.959 13.3912C139.695 13.3912 138.585 13.7319 137.628 14.4152C136.672 15.0876 135.926 16.0556 135.391 17.3191C134.867 18.5827 134.605 20.0978 134.605 21.8623C134.605 23.65 134.867 25.1871 135.391 26.4737C135.915 27.7493 136.649 28.7343 137.594 29.4287C138.551 30.1121 139.672 30.4538 140.959 30.4538C141.87 30.4538 142.685 30.2824 143.402 29.9417C144.13 29.588 144.74 29.082 145.229 28.4217C145.719 27.7603 146.054 26.9577 146.237 26.0128H152.147C151.998 27.8685 151.452 29.5139 150.506 30.9488C149.561 32.3727 148.275 33.4879 146.647 34.2966C145.018 35.0942 143.105 35.492 140.908 35.492ZM169.362 8.74473V13.5274H154.28V8.74473H169.362ZM158.004 2.45898H164.187V27.089C164.187 27.9206 164.312 28.5579 164.563 29.0018C164.824 29.4347 165.166 29.7303 165.587 29.8896C166.009 30.05 166.476 30.1291 166.988 30.1291C167.375 30.1291 167.728 30.1011 168.047 30.044C168.377 29.9868 168.627 29.9357 168.799 29.8896L169.841 34.7234C169.51 34.8377 169.038 34.9629 168.423 35.0992C167.82 35.2365 167.079 35.3156 166.202 35.3387C164.654 35.3838 163.258 35.1503 162.018 34.6383C160.776 34.1142 159.791 33.3066 159.063 32.2134C158.345 31.1201 157.993 29.7534 158.004 28.114V2.45898ZM184.733 35.492C182.171 35.492 179.95 34.9289 178.071 33.8016C176.192 32.6743 174.736 31.0971 173.699 29.07C172.674 27.0439 172.162 24.6751 172.162 21.9646C172.162 19.2551 172.674 16.8802 173.699 14.8421C174.736 12.804 176.192 11.2218 178.071 10.0945C179.95 8.96718 182.171 8.40305 184.733 8.40305C187.295 8.40305 189.516 8.96718 191.394 10.0945C193.273 11.2218 194.725 12.804 195.749 14.8421C196.786 16.8802 197.304 19.2551 197.304 21.9646C197.304 24.6751 196.786 27.0439 195.749 29.07C194.725 31.0971 193.273 32.6743 191.394 33.8016C189.516 34.9289 187.295 35.492 184.733 35.492ZM184.767 30.5389C186.157 30.5389 187.318 30.1572 188.252 29.3946C189.185 28.6201 189.88 27.584 190.335 26.2863C190.802 24.9877 191.036 23.5418 191.036 21.9475C191.036 20.3423 190.802 18.8903 190.335 17.5927C189.88 16.283 189.185 15.2409 188.252 14.4663C187.318 13.6928 186.157 13.305 184.767 13.305C183.344 13.305 182.16 13.6928 181.215 14.4663C180.281 15.2409 179.58 16.283 179.113 17.5927C178.658 18.8903 178.43 20.3423 178.43 21.9475C178.43 23.5418 178.658 24.9877 179.113 26.2863C179.58 27.584 180.281 28.6201 181.215 29.3946C182.16 30.1572 183.344 30.5389 184.767 30.5389ZM201.59 34.98V8.74473H207.585V13.1176H207.858C208.337 11.6025 209.156 10.4362 210.318 9.61651C211.49 8.78482 212.829 8.36897 214.332 8.36897C214.674 8.36897 215.054 8.38601 215.476 8.42008C215.909 8.44313 216.268 8.48321 216.552 8.54032V14.2279C216.29 14.1367 215.874 14.0565 215.305 13.9884C214.747 13.9092 214.207 13.8691 213.683 13.8691C212.555 13.8691 211.542 14.1136 210.642 14.6036C209.755 15.0816 209.054 15.7479 208.541 16.6017C208.029 17.4554 207.773 18.4404 207.773 19.5567V34.98H201.59ZM240.433 15.6798L234.796 16.2941C234.637 15.7249 234.359 15.1898 233.96 14.6888C233.573 14.1878 233.049 13.784 232.389 13.4763C231.728 13.1687 230.92 13.0154 229.963 13.0154C228.676 13.0154 227.595 13.294 226.718 13.8521C225.852 14.4102 225.425 15.1327 225.436 16.0215C225.425 16.7841 225.704 17.4043 226.274 17.8833C226.854 18.3613 227.811 18.754 229.143 19.0617L233.618 20.0176C236.1 20.5527 237.945 21.4014 239.152 22.5628C240.371 23.7241 240.99 25.2442 241 27.123C240.99 28.7744 240.499 30.2313 239.545 31.4959C238.6 32.7484 237.284 33.7274 235.599 34.4339C233.915 35.1393 231.979 35.492 229.792 35.492C226.581 35.492 223.996 34.8206 222.038 33.4769C220.08 32.1222 218.912 30.2373 218.536 27.8234L224.566 27.2423C224.839 28.4267 225.419 29.3205 226.308 29.9247C227.196 30.5279 228.351 30.8295 229.775 30.8295C231.244 30.8295 232.423 30.5279 233.31 29.9247C234.21 29.3205 234.66 28.575 234.66 27.6872C234.66 26.9356 234.369 26.3144 233.789 25.8254C233.219 25.3354 232.331 24.9596 231.124 24.6981L226.65 23.7582C224.133 23.2341 222.271 22.3523 221.065 21.1108C219.857 19.8583 219.26 18.2761 219.271 16.3622C219.26 14.7459 219.698 13.3451 220.586 12.1607C221.485 10.9652 222.732 10.0434 224.326 9.39406C225.932 8.73372 227.782 8.40305 229.877 8.40305C232.952 8.40305 235.372 9.05838 237.136 10.368C238.913 11.6767 240.012 13.4473 240.433 15.6798Z" fill="#101828"/>
</svg>
