<svg width="726" height="50" viewBox="0 0 726 50" fill="none" xmlns="http://www.w3.org/2000/svg">
<path d="M0.227219 15.2424V0.682666H9.01513V2.24626H1.99103V7.16624H8.55965V8.7298H1.99103V13.6788H9.12825V15.2424H0.227219ZM20.8951 4.32236L16.857 15.2424H15.1503L11.1122 4.32236H12.9321L15.9461 13.0242H16.0602L19.0743 4.32236H20.8951ZM27.2966 15.4696C26.2445 15.4696 25.3366 15.2374 24.5739 14.7729C23.8161 14.3035 23.2305 13.6498 22.8181 12.811C22.4107 11.9671 22.2064 10.9861 22.2064 9.86798C22.2064 8.74885 22.4107 7.76283 22.8181 6.90997C23.2305 6.0521 23.8041 5.38444 24.5388 4.90495C25.2776 4.42146 26.1404 4.18022 27.1264 4.18022C27.695 4.18022 28.2566 4.27531 28.8111 4.4645C29.3657 4.6537 29.8702 4.96201 30.3257 5.38844C30.7801 5.81087 31.1435 6.36943 31.4128 7.06613C31.683 7.76284 31.8182 8.62072 31.8182 9.63975V10.3515H23.4007V8.901H30.1124C30.1124 8.28437 29.9893 7.73481 29.7421 7.25132C29.5008 6.76783 29.1545 6.38644 28.705 6.10716C28.2586 5.82687 27.733 5.68773 27.1264 5.68773C26.4577 5.68773 25.8802 5.8529 25.3917 6.18524C24.9082 6.51157 24.5358 6.93902 24.2755 7.46455C24.0143 7.99108 23.8842 8.55465 23.8842 9.15626V10.1232C23.8842 10.948 24.0263 11.6478 24.3106 12.2213C24.5999 12.7899 25.0003 13.2234 25.5128 13.5217C26.0243 13.816 26.6189 13.9631 27.2966 13.9631C27.7381 13.9631 28.1354 13.901 28.4908 13.7779C28.8512 13.6498 29.1615 13.4606 29.4227 13.2093C29.683 12.9531 29.8842 12.6358 30.0274 12.2564L31.648 12.7118C31.4768 13.2614 31.1905 13.7449 30.7871 14.1613C30.3847 14.5737 29.8872 14.896 29.2946 15.1283C28.702 15.3565 28.0364 15.4696 27.2966 15.4696ZM34.3707 15.2424V4.32236H35.9914V5.97204H36.1055C36.3047 5.43149 36.6651 4.99302 37.1866 4.65668C37.7071 4.32034 38.2947 4.1512 38.9494 4.1512C39.0725 4.1512 39.2267 4.1542 39.4118 4.1592C39.596 4.16321 39.7362 4.17021 39.8313 4.18022V5.88595C39.7742 5.87194 39.6441 5.85089 39.4399 5.82186C39.2407 5.78883 39.0295 5.77283 38.8072 5.77283C38.2767 5.77283 37.8022 5.88393 37.3848 6.10716C36.9724 6.32438 36.646 6.62768 36.4038 7.01707C36.1676 7.40046 36.0484 7.8389 36.0484 8.3324V15.2424H34.3707ZM43.2327 19.3375C42.9484 19.3375 42.6952 19.3135 42.4719 19.2665C42.2497 19.2234 42.0956 19.1814 42.0095 19.1383L42.4369 17.6598C42.8443 17.764 43.2047 17.802 43.517 17.773C43.8303 17.7449 44.1076 17.6048 44.3488 17.3535C44.5951 17.1073 44.8203 16.7069 45.0245 16.1523L45.3368 15.2995L41.2987 4.32236H43.1186L46.1336 13.0242H46.2468L49.2618 4.32236H51.0816L46.446 16.835C46.2378 17.3986 45.9795 17.866 45.6712 18.2354C45.3629 18.6098 45.0055 18.8871 44.5981 19.0673C44.1947 19.2475 43.7402 19.3375 43.2327 19.3375ZM58.0457 4.32236V5.74378H52.386V4.32236H58.0457ZM54.0356 1.7057H55.7133V12.1142C55.7133 12.5877 55.7824 12.9441 55.9195 13.1803C56.0617 13.4126 56.2419 13.5697 56.4601 13.6498C56.6823 13.7259 56.9176 13.7639 57.1638 13.7639C57.349 13.7639 57.5001 13.7539 57.6182 13.7349C57.7374 13.7118 57.8325 13.6928 57.9035 13.6788L58.2439 15.1853C58.1308 15.2284 57.9716 15.2704 57.7684 15.3135C57.5642 15.3605 57.3059 15.3845 56.9926 15.3845C56.5191 15.3845 56.0547 15.2824 55.5992 15.0792C55.1497 14.875 54.7754 14.5647 54.4761 14.1473C54.1828 13.7309 54.0356 13.2043 54.0356 12.5697V1.7057ZM62.4812 8.67375V15.2424H60.8035V0.682666H62.4812V6.0281H62.6233C62.8796 5.46453 63.2639 5.01706 63.7755 4.68473C64.292 4.34839 64.9797 4.18022 65.8375 4.18022C66.5813 4.18022 67.233 4.32936 67.7925 4.62766C68.3521 4.92196 68.7856 5.37441 69.0939 5.98603C69.4062 6.59264 69.5623 7.36543 69.5623 8.30338V15.2424H67.8846V8.41751C67.8846 7.54963 67.6594 6.87894 67.2089 6.40546C66.7635 5.92698 66.1449 5.68773 65.3541 5.68773C64.8035 5.68773 64.311 5.80387 63.8746 6.0361C63.4441 6.26834 63.1028 6.60666 62.8515 7.05211C62.6053 7.49756 62.4812 8.0381 62.4812 8.67375ZM72.6324 15.2424V4.32236H74.3101V15.2424H72.6324ZM73.4853 2.50253C73.158 2.50253 72.8767 2.3904 72.6394 2.16818C72.4072 1.94495 72.2911 1.67767 72.2911 1.36436C72.2911 1.05204 72.4072 0.783797 72.6394 0.561572C72.8767 0.338347 73.158 0.227219 73.4853 0.227219C73.8126 0.227219 74.0919 0.338347 74.3241 0.561572C74.5614 0.783797 74.6795 1.05204 74.6795 1.36436C74.6795 1.67767 74.5614 1.94495 74.3241 2.16818C74.0919 2.3904 73.8126 2.50253 73.4853 2.50253ZM79.0609 8.67375V15.2424H77.3832V4.32236H79.0039V6.0281H79.146C79.4023 5.47354 79.7907 5.02806 80.3122 4.69172C80.8337 4.35038 81.5064 4.18022 82.3312 4.18022C83.071 4.18022 83.7176 4.33138 84.2722 4.63469C84.8268 4.93399 85.2582 5.38843 85.5655 6.00005C85.8738 6.60667 86.028 7.37444 86.028 8.30338V15.2424H84.3503V8.41751C84.3503 7.55964 84.1271 6.89094 83.6816 6.41246C83.2362 5.92897 82.6255 5.68773 81.8478 5.68773C81.3122 5.68773 80.8337 5.80387 80.4113 6.0361C79.9949 6.26834 79.6655 6.60666 79.4233 7.05211C79.1821 7.49756 79.0609 8.0381 79.0609 8.67375ZM93.5015 19.5648C92.6917 19.5648 91.995 19.4607 91.4114 19.2525C90.8288 19.0483 90.3433 18.778 89.9539 18.4416C89.5705 18.1103 89.2642 17.7539 89.037 17.3756L90.3734 16.4366C90.5255 16.6358 90.7177 16.863 90.9499 17.1193C91.1822 17.3796 91.4995 17.6048 91.9019 17.795C92.3103 17.9892 92.8429 18.0863 93.5015 18.0863C94.3834 18.0863 95.1112 17.8731 95.6847 17.4466C96.2583 17.0202 96.5446 16.3515 96.5446 15.4416V13.2234H96.4024C96.2793 13.4226 96.1041 13.6688 95.8769 13.9631C95.6537 14.2514 95.3314 14.5097 94.9099 14.7379C94.4925 14.9601 93.929 15.0722 93.2172 15.0722C92.3364 15.0722 91.5445 14.863 90.8428 14.4466C90.1461 14.0292 89.5946 13.4225 89.1862 12.6257C88.7838 11.8299 88.5826 10.863 88.5826 9.72583C88.5826 8.6067 88.7787 7.63271 89.1721 6.80387C89.5655 5.96903 90.1131 5.32437 90.8148 4.86991C91.5165 4.41045 92.3263 4.18022 93.2463 4.18022C93.957 4.18022 94.5206 4.29832 94.938 4.53556C95.3594 4.76779 95.6817 5.03308 95.905 5.33138C96.1322 5.62568 96.3074 5.86693 96.4315 6.05712H96.6016V4.32236H98.2223V15.5547C98.2223 16.4937 98.0091 17.2564 97.5827 17.844C97.1612 18.4366 96.5926 18.8711 95.8769 19.1453C95.1652 19.4256 94.3744 19.5648 93.5015 19.5648ZM93.4455 13.5647C94.1182 13.5647 94.6867 13.4105 95.1512 13.1022C95.6156 12.7939 95.969 12.3515 96.2103 11.7729C96.4525 11.1943 96.5736 10.5026 96.5736 9.69678C96.5736 8.90999 96.4545 8.21629 96.2173 7.61368C95.981 7.01208 95.6297 6.5406 95.1652 6.19926C94.7007 5.85791 94.1272 5.68773 93.4455 5.68773C92.7338 5.68773 92.1422 5.86691 91.6677 6.22727C91.1982 6.58764 90.8458 7.07113 90.6086 7.67774C90.3764 8.28436 90.2602 8.95804 90.2602 9.69678C90.2602 10.4556 90.3784 11.1262 90.6156 11.7088C90.8569 12.2874 91.2122 12.7419 91.6817 13.0742C92.1561 13.4016 92.7438 13.5647 93.4455 13.5647ZM108.005 19.3375C107.721 19.3375 107.468 19.3135 107.244 19.2665C107.022 19.2234 106.868 19.1814 106.782 19.1383L107.209 17.6598C107.617 17.764 107.977 17.802 108.289 17.773C108.603 17.7449 108.88 17.6048 109.121 17.3535C109.368 17.1073 109.593 16.7069 109.797 16.1523L110.109 15.2995L106.071 4.32236H107.891L110.906 13.0242H111.019L114.034 4.32236H115.854L111.218 16.835C111.01 17.3986 110.752 17.866 110.444 18.2354C110.135 18.6098 109.778 18.8871 109.371 19.0673C108.967 19.2475 108.513 19.3375 108.005 19.3375ZM122.114 15.4696C121.128 15.4696 120.264 15.2354 119.519 14.7659C118.78 14.2964 118.201 13.6408 117.784 12.7969C117.372 11.9531 117.165 10.9671 117.165 9.83893C117.165 8.70178 117.372 7.70879 117.784 6.85993C118.201 6.01207 118.78 5.35341 119.519 4.88393C120.264 4.41446 121.128 4.18022 122.114 4.18022C123.099 4.18022 123.962 4.41446 124.702 4.88393C125.446 5.35341 126.024 6.01207 126.437 6.85993C126.853 7.70879 127.062 8.70178 127.062 9.83893C127.062 10.9671 126.853 11.9531 126.437 12.7969C126.024 13.6408 125.446 14.2964 124.702 14.7659C123.962 15.2354 123.099 15.4696 122.114 15.4696ZM122.114 13.9631C122.863 13.9631 123.479 13.7709 123.962 13.3865C124.446 13.0031 124.804 12.4986 125.036 11.873C125.269 11.2474 125.385 10.5687 125.385 9.83893C125.385 9.10919 125.269 8.42951 125.036 7.79887C124.804 7.16823 124.446 6.65871 123.962 6.27032C123.479 5.88192 122.863 5.68773 122.114 5.68773C121.365 5.68773 120.749 5.88192 120.266 6.27032C119.782 6.65871 119.424 7.16823 119.192 7.79887C118.959 8.42951 118.843 9.10919 118.843 9.83893C118.843 10.5687 118.959 11.2474 119.192 11.873C119.424 12.4986 119.782 13.0031 120.266 13.3865C120.749 13.7709 121.365 13.9631 122.114 13.9631ZM136.505 10.7779V4.32236H138.183V15.2424H136.505V13.3935H136.392C136.136 13.9481 135.737 14.4206 135.197 14.8089C134.657 15.1923 133.974 15.3845 133.15 15.3845C132.467 15.3845 131.86 15.2354 131.33 14.9371C130.799 14.6338 130.382 14.1783 130.079 13.5717C129.775 12.9601 129.623 12.1903 129.623 11.2614V4.32236H131.301V11.1473C131.301 11.9441 131.524 12.5787 131.969 13.0522C132.42 13.5267 132.993 13.7639 133.69 13.7639C134.107 13.7639 134.531 13.6568 134.962 13.4436C135.399 13.2304 135.763 12.903 136.058 12.4626C136.356 12.0221 136.505 11.4606 136.505 10.7779ZM148.565 8.67375V15.2424H146.886V4.32236H148.508V6.0281H148.65C148.906 5.47354 149.295 5.02806 149.816 4.69172C150.337 4.35038 151.011 4.18022 151.835 4.18022C152.574 4.18022 153.221 4.33138 153.775 4.63469C154.33 4.93399 154.761 5.38843 155.07 6.00005C155.378 6.60667 155.532 7.37444 155.532 8.30338V15.2424H153.855V8.41751C153.855 7.55964 153.631 6.89094 153.186 6.41246C152.74 5.92897 152.129 5.68773 151.352 5.68773C150.816 5.68773 150.337 5.80387 149.916 6.0361C149.498 6.26834 149.169 6.60666 148.928 7.05211C148.685 7.49756 148.565 8.0381 148.565 8.67375ZM163.176 15.4696C162.124 15.4696 161.217 15.2374 160.453 14.7729C159.695 14.3035 159.11 13.6498 158.697 12.811C158.29 11.9671 158.086 10.9861 158.086 9.86798C158.086 8.74885 158.29 7.76283 158.697 6.90997C159.11 6.0521 159.683 5.38444 160.418 4.90495C161.157 4.42146 162.02 4.18022 163.006 4.18022C163.574 4.18022 164.136 4.27531 164.69 4.4645C165.245 4.6537 165.75 4.96201 166.205 5.38844C166.66 5.81087 167.023 6.36943 167.293 7.06613C167.563 7.76284 167.698 8.62072 167.698 9.63975V10.3515H159.28V8.901H165.992C165.992 8.28437 165.869 7.73481 165.622 7.25132C165.38 6.76783 165.035 6.38644 164.584 6.10716C164.139 5.82687 163.612 5.68773 163.006 5.68773C162.337 5.68773 161.76 5.8529 161.271 6.18524C160.788 6.51157 160.415 6.93902 160.155 7.46455C159.895 7.99108 159.763 8.55465 159.763 9.15626V10.1232C159.763 10.948 159.906 11.6478 160.19 12.2213C160.479 12.7899 160.88 13.2234 161.392 13.5217C161.904 13.816 162.498 13.9631 163.176 13.9631C163.617 13.9631 164.016 13.901 164.371 13.7779C164.731 13.6498 165.042 13.4606 165.302 13.2093C165.562 12.9531 165.765 12.6358 165.907 12.2564L167.527 12.7118C167.357 13.2614 167.07 13.7449 166.668 14.1613C166.264 14.5737 165.767 14.896 165.174 15.1283C164.581 15.3565 163.916 15.4696 163.176 15.4696ZM174.829 15.4696C173.777 15.4696 172.869 15.2374 172.106 14.7729C171.347 14.3035 170.763 13.6498 170.35 12.811C169.942 11.9671 169.739 10.9861 169.739 9.86798C169.739 8.74885 169.942 7.76283 170.35 6.90997C170.763 6.0521 171.335 5.38444 172.07 4.90495C172.81 4.42146 173.673 4.18022 174.659 4.18022C175.227 4.18022 175.789 4.27531 176.343 4.4645C176.898 4.6537 177.402 4.96201 177.858 5.38844C178.312 5.81087 178.675 6.36943 178.945 7.06613C179.215 7.76284 179.35 8.62072 179.35 9.63975V10.3515H170.933V8.901H177.645C177.645 8.28437 177.52 7.73481 177.274 7.25132C177.033 6.76783 176.687 6.38644 176.236 6.10716C175.791 5.82687 175.265 5.68773 174.659 5.68773C173.99 5.68773 173.411 5.8529 172.924 6.18524C172.44 6.51157 172.068 6.93902 171.808 7.46455C171.546 7.99108 171.416 8.55465 171.416 9.15626V10.1232C171.416 10.948 171.558 11.6478 171.843 12.2213C172.132 12.7899 172.532 13.2234 173.044 13.5217C173.556 13.816 174.151 13.9631 174.829 13.9631C175.269 13.9631 175.668 13.901 176.023 13.7779C176.383 13.6498 176.694 13.4606 176.955 13.2093C177.215 12.9531 177.416 12.6358 177.559 12.2564L179.18 12.7118C179.009 13.2614 178.723 13.7449 178.319 14.1613C177.917 14.5737 177.419 14.896 176.827 15.1283C176.234 15.3565 175.568 15.4696 174.829 15.4696ZM186.026 15.4696C185.116 15.4696 184.313 15.2404 183.616 14.7799C182.919 14.3155 182.374 13.6618 181.981 12.8179C181.588 11.9701 181.39 10.9671 181.39 9.81091C181.39 8.66375 181.588 7.66875 181.981 6.82489C182.374 5.98104 182.922 5.32938 183.624 4.86991C184.324 4.41045 185.135 4.18022 186.055 4.18022C186.766 4.18022 187.327 4.29832 187.74 4.53556C188.156 4.76779 188.475 5.03308 188.693 5.33138C188.915 5.62568 189.088 5.86693 189.211 6.05712H189.353V0.682666H191.031V15.2424H189.41V13.5647H189.211C189.088 13.7639 188.913 14.0152 188.685 14.3185C188.458 14.6168 188.133 14.885 187.711 15.1213C187.289 15.3535 186.728 15.4696 186.026 15.4696ZM186.253 13.9631C186.927 13.9631 187.496 13.7869 187.96 13.4366C188.424 13.0812 188.778 12.5907 189.019 11.9651C189.261 11.3345 189.381 10.6067 189.381 9.78189C189.381 8.96707 189.263 8.25332 189.026 7.6427C188.79 7.02608 188.438 6.5476 187.974 6.20626C187.51 5.85991 186.936 5.68773 186.253 5.68773C185.543 5.68773 184.95 5.86993 184.476 6.2343C184.007 6.59466 183.654 7.08514 183.417 7.70677C183.185 8.32239 183.069 9.01412 183.069 9.78189C183.069 10.5597 183.187 11.2654 183.424 11.901C183.666 12.5316 184.021 13.0342 184.491 13.4085C184.965 13.7779 185.553 13.9631 186.253 13.9631ZM204.717 4.32236V5.74378H199.058V4.32236H204.717ZM200.707 1.7057H202.385V12.1142C202.385 12.5877 202.454 12.9441 202.591 13.1803C202.734 13.4126 202.913 13.5697 203.131 13.6498C203.355 13.7259 203.589 13.7639 203.835 13.7639C204.02 13.7639 204.172 13.7539 204.29 13.7349C204.409 13.7118 204.504 13.6928 204.575 13.6788L204.916 15.1853C204.802 15.2284 204.644 15.2704 204.44 15.3135C204.235 15.3605 203.977 15.3845 203.665 15.3845C203.19 15.3845 202.726 15.2824 202.271 15.0792C201.821 14.875 201.447 14.5647 201.148 14.1473C200.854 13.7309 200.707 13.2043 200.707 12.5697V1.7057ZM211.56 15.4696C210.574 15.4696 209.709 15.2354 208.965 14.7659C208.226 14.2964 207.647 13.6408 207.23 12.7969C206.818 11.9531 206.612 10.9671 206.612 9.83893C206.612 8.70178 206.818 7.70879 207.23 6.85993C207.647 6.01207 208.226 5.35341 208.965 4.88393C209.709 4.41446 210.574 4.18022 211.56 4.18022C212.546 4.18022 213.409 4.41446 214.148 4.88393C214.892 5.35341 215.47 6.01207 215.882 6.85993C216.3 7.70879 216.508 8.70178 216.508 9.83893C216.508 10.9671 216.3 11.9531 215.882 12.7969C215.47 13.6408 214.892 14.2964 214.148 14.7659C213.409 15.2354 212.546 15.4696 211.56 15.4696ZM211.56 13.9631C212.309 13.9631 212.925 13.7709 213.409 13.3865C213.892 13.0031 214.25 12.4986 214.482 11.873C214.714 11.2474 214.83 10.5687 214.83 9.83893C214.83 9.10919 214.714 8.42951 214.482 7.79887C214.25 7.16823 213.892 6.65871 213.409 6.27032C212.925 5.88192 212.309 5.68773 211.56 5.68773C210.811 5.68773 210.195 5.88192 209.711 6.27032C209.228 6.65871 208.87 7.16823 208.638 7.79887C208.406 8.42951 208.29 9.10919 208.29 9.83893C208.29 10.5687 208.406 11.2474 208.638 11.873C208.87 12.4986 209.228 13.0031 209.711 13.3865C210.195 13.7709 210.811 13.9631 211.56 13.9631ZM226.264 11.2614L226.236 9.18528H226.577L231.354 4.32236H233.43L228.34 9.46956H228.198L226.264 11.2614ZM224.7 15.2424V0.682666H226.378V15.2424H224.7ZM231.639 15.2424L227.373 9.83893L228.567 8.67375L233.771 15.2424H231.639ZM237.268 8.67375V15.2424H235.59V4.32236H237.211V6.0281H237.353C237.609 5.47354 237.998 5.02806 238.519 4.69172C239.041 4.35038 239.713 4.18022 240.538 4.18022C241.277 4.18022 241.925 4.33138 242.479 4.63469C243.034 4.93399 243.465 5.38843 243.772 6.00005C244.081 6.60667 244.235 7.37444 244.235 8.30338V15.2424H242.557V8.41751C242.557 7.55964 242.334 6.89094 241.888 6.41246C241.443 5.92897 240.831 5.68773 240.055 5.68773C239.519 5.68773 239.041 5.80387 238.618 6.0361C238.202 6.26834 237.871 6.60666 237.63 7.05211C237.389 7.49756 237.268 8.0381 237.268 8.67375ZM251.738 15.4696C250.752 15.4696 249.887 15.2354 249.142 14.7659C248.403 14.2964 247.825 13.6408 247.407 12.7969C246.995 11.9531 246.789 10.9671 246.789 9.83893C246.789 8.70178 246.995 7.70879 247.407 6.85993C247.825 6.01207 248.403 5.35341 249.142 4.88393C249.887 4.41446 250.752 4.18022 251.738 4.18022C252.724 4.18022 253.585 4.41446 254.325 4.88393C255.069 5.35341 255.647 6.01207 256.06 6.85993C256.477 7.70879 256.685 8.70178 256.685 9.83893C256.685 10.9671 256.477 11.9531 256.06 12.7969C255.647 13.6408 255.069 14.2964 254.325 14.7659C253.585 15.2354 252.724 15.4696 251.738 15.4696ZM251.738 13.9631C252.486 13.9631 253.102 13.7709 253.585 13.3865C254.069 13.0031 254.427 12.4986 254.659 11.873C254.892 11.2474 255.008 10.5687 255.008 9.83893C255.008 9.10919 254.892 8.42951 254.659 7.79887C254.427 7.16823 254.069 6.65871 253.585 6.27032C253.102 5.88192 252.486 5.68773 251.738 5.68773C250.989 5.68773 250.372 5.88192 249.889 6.27032C249.405 6.65871 249.048 7.16823 248.816 7.79887C248.583 8.42951 248.467 9.10919 248.467 9.83893C248.467 10.5687 248.583 11.2474 248.816 11.873C249.048 12.4986 249.405 13.0031 249.889 13.3865C250.372 13.7709 250.989 13.9631 251.738 13.9631ZM261.349 15.2424L258.022 4.32236H259.785L262.145 12.6828H262.259L264.591 4.32236H266.382L268.687 12.6548H268.8L271.16 4.32236H272.923L269.596 15.2424H267.947L265.558 6.85291H265.387L262.999 15.2424H261.349ZM283.986 15.4987C283.293 15.4987 282.666 15.3675 282.101 15.1073C281.538 14.842 281.09 14.4606 280.758 13.9631C280.426 13.4606 280.26 12.854 280.26 12.1423C280.26 11.5166 280.383 11.0101 280.63 10.6217C280.877 10.2283 281.206 9.92001 281.619 9.69678C282.03 9.47456 282.486 9.30841 282.983 9.1993C283.486 9.08519 283.99 8.99508 284.498 8.92901C285.161 8.84392 285.699 8.77987 286.111 8.73683C286.529 8.68978 286.832 8.61169 287.021 8.50258C287.215 8.39347 287.312 8.20429 287.312 7.93402V7.87695C287.312 7.17524 287.121 6.6307 286.737 6.2423C286.357 5.85291 285.782 5.6587 285.009 5.6587C284.208 5.6587 283.581 5.83388 283.125 6.18524C282.671 6.53559 282.35 6.90998 282.165 7.30838L280.574 6.73981C280.858 6.07614 281.236 5.55961 281.711 5.18924C282.189 4.81486 282.711 4.55459 283.274 4.40744C283.844 4.25629 284.402 4.18022 284.953 4.18022C285.303 4.18022 285.706 4.22225 286.161 4.30834C286.621 4.38842 287.064 4.55659 287.491 4.81285C287.922 5.06911 288.279 5.45552 288.564 5.97204C288.849 6.48856 288.991 7.18026 288.991 8.04714V15.2424H287.312V13.7639H287.227C287.114 14.0002 286.924 14.2544 286.659 14.5247C286.394 14.7949 286.04 15.0242 285.6 15.2144C285.158 15.4035 284.621 15.4987 283.986 15.4987ZM284.241 13.9911C284.905 13.9911 285.465 13.861 285.919 13.5997C286.379 13.3395 286.725 13.0031 286.957 12.5907C287.194 12.1783 287.312 11.7449 287.312 11.2894V9.75385C287.241 9.83893 287.085 9.91702 286.844 9.98809C286.607 10.0552 286.331 10.1142 286.019 10.1663C285.711 10.2133 285.41 10.2564 285.116 10.2944C284.827 10.3274 284.593 10.3555 284.413 10.3795C283.976 10.4365 283.569 10.5286 283.189 10.6568C282.815 10.7799 282.512 10.9671 282.279 11.2183C282.052 11.4646 281.938 11.8009 281.938 12.2284C281.938 12.811 282.154 13.2514 282.585 13.5507C283.021 13.844 283.574 13.9911 284.241 13.9911ZM292.28 15.2424V0.682666H293.958V6.05712H294.1C294.223 5.86693 294.395 5.62568 294.613 5.33138C294.835 5.03308 295.152 4.76779 295.565 4.53556C295.982 4.29832 296.547 4.18022 297.258 4.18022C298.176 4.18022 298.987 4.41045 299.689 4.86991C300.391 5.32938 300.937 5.98104 301.331 6.82489C301.724 7.66875 301.921 8.66375 301.921 9.81091C301.921 10.9671 301.724 11.9701 301.331 12.8179C300.937 13.6618 300.393 14.3155 299.696 14.7799C298.999 15.2404 298.195 15.4696 297.286 15.4696C296.584 15.4696 296.022 15.3535 295.601 15.1213C295.179 14.885 294.854 14.6168 294.627 14.3185C294.4 14.0152 294.223 13.7639 294.1 13.5647H293.901V15.2424H292.28ZM293.93 9.78189C293.93 10.6067 294.051 11.3345 294.292 11.9651C294.535 12.5907 294.887 13.0812 295.352 13.4366C295.816 13.7869 296.386 13.9631 297.058 13.9631C297.76 13.9631 298.345 13.7779 298.814 13.4085C299.289 13.0342 299.644 12.5316 299.881 11.901C300.122 11.2654 300.244 10.5597 300.244 9.78189C300.244 9.01412 300.124 8.32239 299.888 7.70677C299.656 7.08514 299.303 6.59466 298.828 6.2343C298.36 5.86993 297.769 5.68773 297.058 5.68773C296.376 5.68773 295.802 5.85991 295.338 6.20626C294.873 6.5476 294.523 7.02608 294.285 7.6427C294.048 8.25332 293.93 8.96707 293.93 9.78189ZM308.924 15.4696C307.938 15.4696 307.073 15.2354 306.329 14.7659C305.59 14.2964 305.011 13.6408 304.594 12.7969C304.182 11.9531 303.975 10.9671 303.975 9.83893C303.975 8.70178 304.182 7.70879 304.594 6.85993C305.011 6.01207 305.59 5.35341 306.329 4.88393C307.073 4.41446 307.938 4.18022 308.924 4.18022C309.909 4.18022 310.772 4.41446 311.512 4.88393C312.256 5.35341 312.834 6.01207 313.247 6.85993C313.663 7.70879 313.872 8.70178 313.872 9.83893C313.872 10.9671 313.663 11.9531 313.247 12.7969C312.834 13.6408 312.256 14.2964 311.512 14.7659C310.772 15.2354 309.909 15.4696 308.924 15.4696ZM308.924 13.9631C309.673 13.9631 310.289 13.7709 310.772 13.3865C311.256 13.0031 311.614 12.4986 311.846 11.873C312.078 11.2474 312.195 10.5687 312.195 9.83893C312.195 9.10919 312.078 8.42951 311.846 7.79887C311.614 7.16823 311.256 6.65871 310.772 6.27032C310.289 5.88192 309.673 5.68773 308.924 5.68773C308.175 5.68773 307.559 5.88192 307.075 6.27032C306.592 6.65871 306.235 7.16823 306.002 7.79887C305.77 8.42951 305.654 9.10919 305.654 9.83893C305.654 10.5687 305.77 11.2474 306.002 11.873C306.235 12.4986 306.592 13.0031 307.075 13.3865C307.559 13.7709 308.175 13.9631 308.924 13.9631ZM323.315 10.7779V4.32236H324.994V15.2424H323.315V13.3935H323.202C322.945 13.9481 322.547 14.4206 322.008 14.8089C321.467 15.1923 320.784 15.3845 319.959 15.3845C319.277 15.3845 318.67 15.2354 318.14 14.9371C317.609 14.6338 317.192 14.1783 316.888 13.5717C316.585 12.9601 316.433 12.1903 316.433 11.2614V4.32236H318.112V11.1473C318.112 11.9441 318.334 12.5787 318.779 13.0522C319.23 13.5267 319.803 13.7639 320.5 13.7639C320.917 13.7639 321.341 13.6568 321.772 13.4436C322.209 13.2304 322.573 12.903 322.867 12.4626C323.166 12.0221 323.315 11.4606 323.315 10.7779ZM332.815 4.32236V5.74378H327.156V4.32236H332.815ZM328.805 1.7057H330.483V12.1142C330.483 12.5877 330.552 12.9441 330.689 13.1803C330.831 13.4126 331.012 13.5697 331.23 13.6498C331.453 13.7259 331.687 13.7639 331.934 13.7639C332.119 13.7639 332.27 13.7539 332.389 13.7349C332.507 13.7118 332.602 13.6928 332.673 13.6788L333.015 15.1853C332.9 15.2284 332.741 15.2704 332.538 15.3135C332.334 15.3605 332.076 15.3845 331.763 15.3845C331.289 15.3845 330.824 15.2824 330.37 15.0792C329.92 14.875 329.545 14.5647 329.246 14.1473C328.953 13.7309 328.805 13.2043 328.805 12.5697V1.7057ZM342.051 19.3375C341.766 19.3375 341.512 19.3135 341.29 19.2665C341.067 19.2234 340.913 19.1814 340.828 19.1383L341.254 17.6598C341.661 17.764 342.022 17.802 342.335 17.773C342.647 17.7449 342.925 17.6048 343.167 17.3535C343.413 17.1073 343.638 16.7069 343.842 16.1523L344.155 15.2995L340.117 4.32236H341.937L344.951 13.0242H345.065L348.079 4.32236H349.9L345.264 16.835C345.056 17.3986 344.797 17.866 344.489 18.2354C344.181 18.6098 343.823 18.8871 343.415 19.0673C343.013 19.2475 342.557 19.3375 342.051 19.3375ZM356.159 15.4696C355.173 15.4696 354.308 15.2354 353.564 14.7659C352.825 14.2964 352.246 13.6408 351.83 12.7969C351.417 11.9531 351.211 10.9671 351.211 9.83893C351.211 8.70178 351.417 7.70879 351.83 6.85993C352.246 6.01207 352.825 5.35341 353.564 4.88393C354.308 4.41446 355.173 4.18022 356.159 4.18022C357.145 4.18022 358.008 4.41446 358.747 4.88393C359.491 5.35341 360.069 6.01207 360.481 6.85993C360.899 7.70879 361.107 8.70178 361.107 9.83893C361.107 10.9671 360.899 11.9531 360.481 12.7969C360.069 13.6408 359.491 14.2964 358.747 14.7659C358.008 15.2354 357.145 15.4696 356.159 15.4696ZM356.159 13.9631C356.908 13.9631 357.524 13.7709 358.008 13.3865C358.491 13.0031 358.849 12.4986 359.081 11.873C359.313 11.2474 359.429 10.5687 359.429 9.83893C359.429 9.10919 359.313 8.42951 359.081 7.79887C358.849 7.16823 358.491 6.65871 358.008 6.27032C357.524 5.88192 356.908 5.68773 356.159 5.68773C355.41 5.68773 354.794 5.88192 354.311 6.27032C353.828 6.65871 353.469 7.16823 353.237 7.79887C353.005 8.42951 352.889 9.10919 352.889 9.83893C352.889 10.5687 353.005 11.2474 353.237 11.873C353.469 12.4986 353.828 13.0031 354.311 13.3865C354.794 13.7709 355.41 13.9631 356.159 13.9631ZM370.551 10.7779V4.32236H372.228V15.2424H370.551V13.3935H370.436C370.181 13.9481 369.783 14.4206 369.242 14.8089C368.702 15.1923 368.019 15.3845 367.195 15.3845C366.512 15.3845 365.906 15.2354 365.374 14.9371C364.844 14.6338 364.426 14.1783 364.123 13.5717C363.82 12.9601 363.669 12.1903 363.669 11.2614V4.32236H365.346V11.1473C365.346 11.9441 365.57 12.5787 366.015 13.0522C366.464 13.5267 367.038 13.7639 367.735 13.7639C368.152 13.7639 368.577 13.6568 369.008 13.4436C369.443 13.2304 369.809 12.903 370.102 12.4626C370.401 12.0221 370.551 11.4606 370.551 10.7779ZM375.301 15.2424V4.32236H376.922V5.97204H377.036C377.235 5.43149 377.596 4.99302 378.116 4.65668C378.638 4.32034 379.225 4.1512 379.88 4.1512C380.003 4.1512 380.157 4.1542 380.342 4.1592C380.527 4.16321 380.667 4.17021 380.762 4.18022V5.88595C380.705 5.87194 380.574 5.85089 380.371 5.82186C380.171 5.78883 379.96 5.77283 379.738 5.77283C379.206 5.77283 378.733 5.88393 378.315 6.10716C377.903 6.32438 377.577 6.62768 377.334 7.01707C377.097 7.40046 376.979 7.8389 376.979 8.3324V15.2424H375.301ZM392.789 19.5648C391.978 19.5648 391.282 19.4607 390.699 19.2525C390.115 19.0483 389.63 18.778 389.241 18.4416C388.857 18.1103 388.552 17.7539 388.325 17.3756L389.661 16.4366C389.812 16.6358 390.004 16.863 390.236 17.1193C390.469 17.3796 390.786 17.6048 391.189 17.795C391.597 17.9892 392.13 18.0863 392.789 18.0863C393.67 18.0863 394.398 17.8731 394.971 17.4466C395.545 17.0202 395.832 16.3515 395.832 15.4416V13.2234H395.69C395.566 13.4226 395.391 13.6688 395.163 13.9631C394.94 14.2514 394.618 14.5097 394.196 14.7379C393.779 14.9601 393.216 15.0722 392.505 15.0722C391.623 15.0722 390.831 14.863 390.13 14.4466C389.434 14.0292 388.881 13.4225 388.474 12.6257C388.07 11.8299 387.869 10.863 387.869 9.72583C387.869 8.6067 388.066 7.63271 388.459 6.80387C388.852 5.96903 389.4 5.32437 390.101 4.86991C390.803 4.41045 391.614 4.18022 392.533 4.18022C393.243 4.18022 393.808 4.29832 394.224 4.53556C394.647 4.76779 394.969 5.03308 395.191 5.33138C395.42 5.62568 395.595 5.86693 395.718 6.05712H395.888V4.32236H397.51V15.5547C397.51 16.4937 397.297 17.2564 396.869 17.844C396.448 18.4366 395.879 18.8711 395.163 19.1453C394.453 19.4256 393.661 19.5648 392.789 19.5648ZM392.732 13.5647C393.405 13.5647 393.973 13.4105 394.439 13.1022C394.903 12.7939 395.256 12.3515 395.498 11.7729C395.739 11.1943 395.86 10.5026 395.86 9.69678C395.86 8.90999 395.742 8.21629 395.505 7.61368C395.268 7.01208 394.917 6.5406 394.453 6.19926C393.988 5.85791 393.415 5.68773 392.732 5.68773C392.021 5.68773 391.429 5.86691 390.954 6.22727C390.486 6.58764 390.132 7.07113 389.895 7.67774C389.663 8.28436 389.547 8.95804 389.547 9.69678C389.547 10.4556 389.666 11.1262 389.902 11.7088C390.144 12.2874 390.5 12.7419 390.969 13.0742C391.443 13.4016 392.03 13.5647 392.732 13.5647ZM400.581 15.2424V4.32236H402.202V5.97204H402.316C402.515 5.43149 402.875 4.99302 403.396 4.65668C403.917 4.32034 404.505 4.1512 405.16 4.1512C405.283 4.1512 405.437 4.1542 405.621 4.1592C405.806 4.16321 405.946 4.17021 406.04 4.18022V5.88595C405.984 5.87194 405.853 5.85089 405.65 5.82186C405.451 5.78883 405.24 5.77283 405.017 5.77283C404.486 5.77283 404.012 5.88393 403.595 6.10716C403.183 6.32438 402.856 6.62768 402.614 7.01707C402.377 7.40046 402.259 7.8389 402.259 8.3324V15.2424H400.581ZM411.244 15.4987C410.551 15.4987 409.923 15.3675 409.359 15.1073C408.795 14.842 408.348 14.4606 408.015 13.9631C407.684 13.4606 407.518 12.854 407.518 12.1423C407.518 11.5166 407.641 11.0101 407.887 10.6217C408.134 10.2283 408.464 9.92001 408.875 9.69678C409.288 9.47456 409.743 9.30841 410.241 9.1993C410.743 9.08519 411.248 8.99508 411.755 8.92901C412.419 8.84392 412.956 8.77987 413.369 8.73683C413.786 8.68978 414.09 8.61169 414.279 8.50258C414.473 8.39347 414.57 8.20429 414.57 7.93402V7.87695C414.57 7.17524 414.379 6.6307 413.994 6.2423C413.615 5.85291 413.04 5.6587 412.267 5.6587C411.466 5.6587 410.838 5.83388 410.383 6.18524C409.928 6.53559 409.608 6.90998 409.423 7.30838L407.83 6.73981C408.116 6.07614 408.494 5.55961 408.968 5.18924C409.447 4.81486 409.968 4.55459 410.532 4.40744C411.101 4.25629 411.66 4.18022 412.21 4.18022C412.561 4.18022 412.963 4.22225 413.419 4.30834C413.878 4.38842 414.322 4.55659 414.748 4.81285C415.18 5.06911 415.537 5.45552 415.821 5.97204C416.106 6.48856 416.249 7.18026 416.249 8.04714V15.2424H414.57V13.7639H414.485C414.372 14.0002 414.182 14.2544 413.916 14.5247C413.651 14.7949 413.298 15.0242 412.857 15.2144C412.416 15.4035 411.878 15.4987 411.244 15.4987ZM411.499 13.9911C412.163 13.9911 412.722 13.861 413.177 13.5997C413.637 13.3395 413.983 13.0031 414.215 12.5907C414.452 12.1783 414.57 11.7449 414.57 11.2894V9.75385C414.499 9.83893 414.343 9.91702 414.102 9.98809C413.864 10.0552 413.589 10.1142 413.277 10.1663C412.968 10.2133 412.667 10.2564 412.374 10.2944C412.085 10.3274 411.85 10.3555 411.67 10.3795C411.234 10.4365 410.826 10.5286 410.447 10.6568C410.073 10.7799 409.769 10.9671 409.537 11.2183C409.31 11.4646 409.196 11.8009 409.196 12.2284C409.196 12.811 409.411 13.2514 409.842 13.5507C410.279 13.844 410.831 13.9911 411.499 13.9911ZM423.434 15.4696C422.524 15.4696 421.72 15.2404 421.024 14.7799C420.327 14.3155 419.782 13.6618 419.389 12.8179C418.996 11.9701 418.798 10.9671 418.798 9.81091C418.798 8.66375 418.996 7.66875 419.389 6.82489C419.782 5.98104 420.33 5.32938 421.032 4.86991C421.732 4.41045 422.543 4.18022 423.463 4.18022C424.174 4.18022 424.735 4.29832 425.148 4.53556C425.564 4.76779 425.883 5.03308 426.1 5.33138C426.323 5.62568 426.496 5.86693 426.619 6.05712H426.761V0.682666H428.439V15.2424H426.818V13.5647H426.619C426.496 13.7639 426.321 14.0152 426.093 14.3185C425.865 14.6168 425.541 14.885 425.119 15.1213C424.697 15.3535 424.136 15.4696 423.434 15.4696ZM423.661 13.9631C424.335 13.9631 424.904 13.7869 425.368 13.4366C425.832 13.0812 426.186 12.5907 426.427 11.9651C426.669 11.3345 426.789 10.6067 426.789 9.78189C426.789 8.96707 426.671 8.25332 426.434 7.6427C426.198 7.02608 425.846 6.5476 425.382 6.20626C424.918 5.85991 424.344 5.68773 423.661 5.68773C422.951 5.68773 422.358 5.86993 421.884 6.2343C421.415 6.59466 421.062 7.08514 420.825 7.70677C420.593 8.32239 420.477 9.01412 420.477 9.78189C420.477 10.5597 420.595 11.2654 420.832 11.901C421.074 12.5316 421.429 13.0342 421.898 13.4085C422.373 13.7779 422.961 13.9631 423.661 13.9631ZM436.324 15.4696C435.271 15.4696 434.364 15.2374 433.6 14.7729C432.843 14.3035 432.257 13.6498 431.845 12.811C431.437 11.9671 431.233 10.9861 431.233 9.86798C431.233 8.74885 431.437 7.76283 431.845 6.90997C432.257 6.0521 432.831 5.38444 433.565 4.90495C434.305 4.42146 435.167 4.18022 436.153 4.18022C436.721 4.18022 437.283 4.27531 437.838 4.4645C438.392 4.6537 438.898 4.96201 439.352 5.38844C439.808 5.81087 440.17 6.36943 440.44 7.06613C440.71 7.76284 440.846 8.62072 440.846 9.63975V10.3515H432.428V8.901H439.139C439.139 8.28437 439.016 7.73481 438.77 7.25132C438.527 6.76783 438.182 6.38644 437.731 6.10716C437.286 5.82687 436.759 5.68773 436.153 5.68773C435.484 5.68773 434.907 5.8529 434.418 6.18524C433.935 6.51157 433.562 6.93902 433.302 7.46455C433.042 7.99108 432.911 8.55465 432.911 9.15626V10.1232C432.911 10.948 433.054 11.6478 433.338 12.2213C433.626 12.7899 434.028 13.2234 434.539 13.5217C435.051 13.816 435.645 13.9631 436.324 13.9631C436.765 13.9631 437.163 13.901 437.518 13.7779C437.879 13.6498 438.189 13.4606 438.449 13.2093C438.71 12.9531 438.912 12.6358 439.054 12.2564L440.674 12.7118C440.504 13.2614 440.217 13.7449 439.815 14.1613C439.411 14.5737 438.914 14.896 438.321 15.1283C437.728 15.3565 437.063 15.4696 436.324 15.4696ZM451.133 6.76783L449.626 7.19425C449.53 6.943 449.391 6.69877 449.206 6.46253C449.026 6.22028 448.78 6.02106 448.466 5.86491C448.154 5.70875 447.754 5.63069 447.265 5.63069C446.596 5.63069 446.04 5.78485 445.594 6.09216C445.154 6.39546 444.933 6.78184 444.933 7.25132C444.933 7.66874 445.085 7.99807 445.388 8.23932C445.692 8.48156 446.165 8.68277 446.81 8.84393L448.431 9.24234C449.407 9.47858 450.135 9.84195 450.614 10.3294C451.092 10.8129 451.331 11.4365 451.331 12.1993C451.331 12.8249 451.152 13.3845 450.792 13.877C450.436 14.3705 449.938 14.7589 449.298 15.0432C448.659 15.3275 447.915 15.4696 447.066 15.4696C445.952 15.4696 445.03 15.2284 444.3 14.7449C443.57 14.2614 443.108 13.5547 442.914 12.6257L444.506 12.2284C444.659 12.816 444.945 13.2564 445.367 13.5507C445.794 13.844 446.35 13.9911 447.038 13.9911C447.82 13.9911 448.44 13.825 448.9 13.4936C449.364 13.1573 449.597 12.7539 449.597 12.2844C449.597 11.906 449.464 11.5877 449.199 11.3324C448.934 11.0712 448.525 10.877 447.976 10.7488L446.156 10.3224C445.156 10.0852 444.421 9.71882 443.952 9.22032C443.487 8.71781 443.255 8.09016 443.255 7.3364C443.255 6.72077 443.428 6.17523 443.775 5.70175C444.125 5.22727 444.601 4.8559 445.203 4.58563C445.81 4.31536 446.497 4.18022 447.265 4.18022C448.345 4.18022 449.194 4.41745 449.811 4.89093C450.431 5.36541 450.872 5.99104 451.133 6.76783ZM455.08 15.3565C454.73 15.3565 454.428 15.2304 454.177 14.9791C453.926 14.7279 453.801 14.4276 453.801 14.0762C453.801 13.7259 453.926 13.4246 454.177 13.1733C454.428 12.9221 454.73 12.7969 455.08 12.7969C455.43 12.7969 455.732 12.9221 455.983 13.1733C456.234 13.4246 456.36 13.7259 456.36 14.0762C456.36 14.3084 456.3 14.5217 456.182 14.7159C456.068 14.9111 455.914 15.0672 455.72 15.1853C455.531 15.2994 455.317 15.3565 455.08 15.3565ZM476.945 5.23228H475.182C475.078 4.72477 474.895 4.27932 474.635 3.89594C474.379 3.51155 474.066 3.18922 473.696 2.92896C473.331 2.66369 472.926 2.46447 472.481 2.33134C472.035 2.1992 471.571 2.13216 471.087 2.13216C470.205 2.13216 469.406 2.35539 468.691 2.80084C467.98 3.24629 467.414 3.90293 466.992 4.76981C466.575 5.63768 466.366 6.70175 466.366 7.96203C466.366 9.2233 466.575 10.2874 466.992 11.1543C467.414 12.0221 467.98 12.6778 468.691 13.1243C469.406 13.5697 470.205 13.7919 471.087 13.7919C471.571 13.7919 472.035 13.7259 472.481 13.5927C472.926 13.4606 473.331 13.2634 473.696 13.0031C474.066 12.7379 474.379 12.4125 474.635 12.0292C474.895 11.6408 475.078 11.1943 475.182 10.6928H476.945C476.813 11.4365 476.571 12.1022 476.22 12.6898C475.869 13.2774 475.434 13.7779 474.912 14.1903C474.391 14.5978 473.805 14.9081 473.156 15.1213C472.512 15.3345 471.822 15.4416 471.087 15.4416C469.845 15.4416 468.741 15.1383 467.774 14.5317C466.807 13.9251 466.046 13.0622 465.492 11.9441C464.937 10.8249 464.66 9.49758 464.66 7.96203C464.66 6.42648 464.937 5.09914 465.492 3.98101C466.046 2.86288 466.807 2.00002 467.774 1.39341C468.741 0.786794 469.845 0.48349 471.087 0.48349C471.822 0.48349 472.512 0.589598 473.156 0.802813C473.805 1.01603 474.391 1.32933 474.912 1.74175C475.434 2.14916 475.869 2.64666 476.22 3.23426C476.571 3.81785 476.813 4.48352 476.945 5.23228ZM482.78 15.4987C482.088 15.4987 481.461 15.3675 480.896 15.1073C480.333 14.842 479.884 14.4606 479.553 13.9631C479.22 13.4606 479.055 12.854 479.055 12.1423C479.055 11.5166 479.178 11.0101 479.425 10.6217C479.671 10.2283 480 9.92001 480.413 9.69678C480.825 9.47456 481.281 9.30841 481.778 9.1993C482.281 9.08519 482.785 8.99508 483.293 8.92901C483.956 8.84392 484.494 8.77987 484.906 8.73683C485.324 8.68978 485.627 8.61169 485.816 8.50258C486.01 8.39347 486.107 8.20429 486.107 7.93402V7.87695C486.107 7.17524 485.915 6.6307 485.532 6.2423C485.152 5.85291 484.577 5.6587 483.804 5.6587C483.003 5.6587 482.376 5.83388 481.92 6.18524C481.465 6.53559 481.145 6.90998 480.96 7.30838L479.368 6.73981C479.652 6.07614 480.031 5.55961 480.506 5.18924C480.984 4.81486 481.506 4.55459 482.069 4.40744C482.638 4.25629 483.197 4.18022 483.747 4.18022C484.098 4.18022 484.501 4.22225 484.956 4.30834C485.416 4.38842 485.859 4.55659 486.286 4.81285C486.717 5.06911 487.074 5.45552 487.359 5.97204C487.643 6.48856 487.785 7.18026 487.785 8.04714V15.2424H486.107V13.7639H486.022C485.908 14.0002 485.719 14.2544 485.454 14.5247C485.188 14.7949 484.835 15.0242 484.395 15.2144C483.953 15.4035 483.416 15.4987 482.78 15.4987ZM483.036 13.9911C483.7 13.9911 484.26 13.861 484.714 13.5997C485.173 13.3395 485.52 13.0031 485.752 12.5907C485.989 12.1783 486.107 11.7449 486.107 11.2894V9.75385C486.036 9.83893 485.88 9.91702 485.638 9.98809C485.402 10.0552 485.126 10.1142 484.814 10.1663C484.506 10.2133 484.204 10.2564 483.911 10.2944C483.622 10.3274 483.387 10.3555 483.206 10.3795C482.771 10.4365 482.364 10.5286 481.984 10.6568C481.61 10.7799 481.307 10.9671 481.074 11.2183C480.847 11.4646 480.733 11.8009 480.733 12.2284C480.733 12.811 480.948 13.2514 481.38 13.5507C481.816 13.844 482.368 13.9911 483.036 13.9911ZM492.526 8.67375V15.2424H490.848V4.32236H492.469V6.0281H492.611C492.867 5.47354 493.256 5.02806 493.777 4.69172C494.299 4.35038 494.971 4.18022 495.796 4.18022C496.535 4.18022 497.183 4.33138 497.737 4.63469C498.292 4.93399 498.723 5.38843 499.03 6.00005C499.339 6.60667 499.493 7.37444 499.493 8.30338V15.2424H497.815V8.41751C497.815 7.55964 497.592 6.89094 497.147 6.41246C496.701 5.92897 496.089 5.68773 495.313 5.68773C494.777 5.68773 494.299 5.80387 493.876 6.0361C493.46 6.26834 493.129 6.60666 492.888 7.05211C492.647 7.49756 492.526 8.0381 492.526 8.67375ZM504.038 0.682666V1.96197C504.038 2.35037 503.966 2.7658 503.824 3.20624C503.687 3.64168 503.483 4.06611 503.213 4.47853C502.947 4.88594 502.625 5.2413 502.246 5.54461L501.336 4.80585C501.635 4.37942 501.893 3.93597 502.111 3.47651C502.334 3.01204 502.445 2.51652 502.445 1.98999V0.682666H504.038ZM511.297 4.32236V5.74378H505.637V4.32236H511.297ZM507.287 1.7057H508.965V12.1142C508.965 12.5877 509.034 12.9441 509.171 13.1803C509.313 13.4126 509.493 13.5697 509.711 13.6498C509.933 13.7259 510.169 13.7639 510.415 13.7639C510.6 13.7639 510.751 13.7539 510.869 13.7349C510.989 13.7118 511.083 13.6928 511.155 13.6788L511.495 15.1853C511.382 15.2284 511.223 15.2704 511.02 15.3135C510.815 15.3605 510.557 15.3845 510.244 15.3845C509.77 15.3845 509.306 15.2824 508.85 15.0792C508.401 14.875 508.027 14.5647 507.727 14.1473C507.434 13.7309 507.287 13.2043 507.287 12.5697V1.7057ZM524.314 4.32236V5.74378H518.427V4.32236H524.314ZM520.191 15.2424V2.81483C520.191 2.18919 520.337 1.66769 520.631 1.25126C520.925 0.833843 521.307 0.521508 521.775 0.312297C522.245 0.104086 522.74 0 523.262 0C523.674 0 524.011 0.0330324 524.271 0.0990992C524.532 0.165166 524.726 0.227226 524.855 0.284284L524.371 1.73476C524.285 1.70573 524.167 1.67067 524.016 1.62762C523.869 1.58558 523.674 1.56356 523.432 1.56356C522.878 1.56356 522.477 1.70371 522.231 1.98299C521.989 2.26328 521.869 2.67269 521.869 3.21324V15.2424H520.191ZM526.665 15.2424V4.32236H528.343V15.2424H526.665ZM527.518 2.50253C527.191 2.50253 526.91 2.3904 526.672 2.16818C526.44 1.94495 526.324 1.67767 526.324 1.36436C526.324 1.05204 526.44 0.783797 526.672 0.561572C526.91 0.338347 527.191 0.227219 527.518 0.227219C527.846 0.227219 528.125 0.338347 528.357 0.561572C528.594 0.783797 528.712 1.05204 528.712 1.36436C528.712 1.67767 528.594 1.94495 528.357 2.16818C528.125 2.3904 527.846 2.50253 527.518 2.50253ZM533.094 8.67375V15.2424H531.416V4.32236H533.037V6.0281H533.179C533.435 5.47354 533.824 5.02806 534.345 4.69172C534.867 4.35038 535.539 4.18022 536.364 4.18022C537.104 4.18022 537.751 4.33138 538.305 4.63469C538.86 4.93399 539.291 5.38843 539.599 6.00005C539.907 6.60667 540.061 7.37444 540.061 8.30338V15.2424H538.383V8.41751C538.383 7.55964 538.161 6.89094 537.716 6.41246C537.27 5.92897 536.658 5.68773 535.881 5.68773C535.345 5.68773 534.867 5.80387 534.445 6.0361C534.028 6.26834 533.698 6.60666 533.456 7.05211C533.215 7.49756 533.094 8.0381 533.094 8.67375ZM547.251 15.4696C546.34 15.4696 545.537 15.2404 544.841 14.7799C544.144 14.3155 543.599 13.6618 543.205 12.8179C542.812 11.9701 542.616 10.9671 542.616 9.81091C542.616 8.66375 542.812 7.66875 543.205 6.82489C543.599 5.98104 544.146 5.32938 544.848 4.86991C545.549 4.41045 546.359 4.18022 547.279 4.18022C547.99 4.18022 548.552 4.29832 548.964 4.53556C549.381 4.76779 549.699 5.03308 549.917 5.33138C550.139 5.62568 550.312 5.86693 550.435 6.05712H550.578V0.682666H552.256V15.2424H550.635V13.5647H550.435C550.312 13.7639 550.137 14.0152 549.91 14.3185C549.683 14.6168 549.357 14.885 548.936 15.1213C548.513 15.3535 547.952 15.4696 547.251 15.4696ZM547.478 13.9631C548.151 13.9631 548.72 13.7869 549.184 13.4366C549.649 13.0812 550.002 12.5907 550.244 11.9651C550.485 11.3345 550.607 10.6067 550.607 9.78189C550.607 8.96707 550.487 8.25332 550.251 7.6427C550.014 7.02608 549.664 6.5476 549.199 6.20626C548.735 5.85991 548.161 5.68773 547.478 5.68773C546.768 5.68773 546.175 5.86993 545.701 6.2343C545.231 6.59466 544.879 7.08514 544.642 7.70677C544.409 8.32239 544.293 9.01412 544.293 9.78189C544.293 10.5597 544.411 11.2654 544.649 11.901C544.891 12.5316 545.246 13.0342 545.715 13.4085C546.189 13.7779 546.777 13.9631 547.478 13.9631ZM565.941 4.32236V5.74378H560.282V4.32236H565.941ZM561.932 1.7057H563.61V12.1142C563.61 12.5877 563.679 12.9441 563.816 13.1803C563.958 13.4126 564.138 13.5697 564.356 13.6498C564.579 13.7259 564.814 13.7639 565.06 13.7639C565.244 13.7639 565.397 13.7539 565.515 13.7349C565.634 13.7118 565.728 13.6928 565.799 13.6788L566.14 15.1853C566.027 15.2284 565.868 15.2704 565.664 15.3135C565.461 15.3605 565.202 15.3845 564.889 15.3845C564.416 15.3845 563.951 15.2824 563.496 15.0792C563.045 14.875 562.671 14.5647 562.372 14.1473C562.079 13.7309 561.932 13.2043 561.932 12.5697V1.7057ZM570.378 8.67375V15.2424H568.7V0.682666H570.378V6.0281H570.52C570.776 5.46453 571.159 5.01706 571.672 4.68473C572.188 4.34839 572.875 4.18022 573.734 4.18022C574.478 4.18022 575.129 4.32936 575.689 4.62766C576.247 4.92196 576.682 5.37441 576.989 5.98603C577.303 6.59264 577.459 7.36543 577.459 8.30338V15.2424H575.781V8.41751C575.781 7.54963 575.556 6.87894 575.105 6.40546C574.66 5.92698 574.041 5.68773 573.25 5.68773C572.7 5.68773 572.207 5.80387 571.771 6.0361C571.34 6.26834 570.998 6.60666 570.748 7.05211C570.501 7.49756 570.378 8.0381 570.378 8.67375ZM585.106 15.4696C584.054 15.4696 583.147 15.2374 582.384 14.7729C581.626 14.3035 581.04 13.6498 580.628 12.811C580.221 11.9671 580.016 10.9861 580.016 9.86798C580.016 8.74885 580.221 7.76283 580.628 6.90997C581.04 6.0521 581.614 5.38444 582.349 4.90495C583.087 4.42146 583.95 4.18022 584.936 4.18022C585.505 4.18022 586.066 4.27531 586.621 4.4645C587.176 4.6537 587.68 4.96201 588.136 5.38844C588.59 5.81087 588.953 6.36943 589.224 7.06613C589.493 7.76284 589.628 8.62072 589.628 9.63975V10.3515H581.211V8.901H587.922C587.922 8.28437 587.799 7.73481 587.553 7.25132C587.311 6.76783 586.964 6.38644 586.515 6.10716C586.069 5.82687 585.543 5.68773 584.936 5.68773C584.268 5.68773 583.69 5.8529 583.202 6.18524C582.718 6.51157 582.346 6.93902 582.085 7.46455C581.824 7.99108 581.694 8.55465 581.694 9.15626V10.1232C581.694 10.948 581.836 11.6478 582.12 12.2213C582.41 12.7899 582.81 13.2234 583.323 13.5217C583.834 13.816 584.429 13.9631 585.106 13.9631C585.548 13.9631 585.945 13.901 586.302 13.7779C586.661 13.6498 586.972 13.4606 587.233 13.2093C587.493 12.9531 587.695 12.6358 587.837 12.2564L589.458 12.7118C589.287 13.2614 589 13.7449 588.598 14.1613C588.195 14.5737 587.697 14.896 587.104 15.1283C586.512 15.3565 585.846 15.4696 585.106 15.4696ZM601.025 15.4987C600.333 15.4987 599.705 15.3675 599.141 15.1073C598.577 14.842 598.129 14.4606 597.797 13.9631C597.465 13.4606 597.3 12.854 597.3 12.1423C597.3 11.5166 597.423 11.0101 597.669 10.6217C597.915 10.2283 598.245 9.92001 598.657 9.69678C599.07 9.47456 599.525 9.30841 600.023 9.1993C600.525 9.08519 601.03 8.99508 601.537 8.92901C602.201 8.84392 602.738 8.77987 603.151 8.73683C603.568 8.68978 603.871 8.61169 604.061 8.50258C604.255 8.39347 604.352 8.20429 604.352 7.93402V7.87695C604.352 7.17524 604.16 6.6307 603.776 6.2423C603.397 5.85291 602.821 5.6587 602.049 5.6587C601.248 5.6587 600.62 5.83388 600.165 6.18524C599.709 6.53559 599.39 6.90998 599.205 7.30838L597.612 6.73981C597.896 6.07614 598.276 5.55961 598.75 5.18924C599.229 4.81486 599.75 4.55459 600.314 4.40744C600.882 4.25629 601.442 4.18022 601.992 4.18022C602.343 4.18022 602.745 4.22225 603.201 4.30834C603.66 4.38842 604.104 4.55659 604.53 4.81285C604.962 5.06911 605.319 5.45552 605.603 5.97204C605.887 6.48856 606.03 7.18026 606.03 8.04714V15.2424H604.352V13.7639H604.267C604.153 14.0002 603.964 14.2544 603.698 14.5247C603.433 14.7949 603.08 15.0242 602.639 15.2144C602.198 15.4035 601.66 15.4987 601.025 15.4987ZM601.281 13.9911C601.944 13.9911 602.504 13.861 602.959 13.5997C603.418 13.3395 603.764 13.0031 603.997 12.5907C604.234 12.1783 604.352 11.7449 604.352 11.2894V9.75385C604.281 9.83893 604.125 9.91702 603.882 9.98809C603.646 10.0552 603.371 10.1142 603.059 10.1663C602.75 10.2133 602.449 10.2564 602.156 10.2944C601.866 10.3274 601.631 10.3555 601.451 10.3795C601.016 10.4365 600.608 10.5286 600.229 10.6568C599.854 10.7799 599.551 10.9671 599.319 11.2183C599.092 11.4646 598.977 11.8009 598.977 12.2284C598.977 12.811 599.193 13.2514 599.624 13.5507C600.061 13.844 600.612 13.9911 601.281 13.9911ZM610.77 8.67375V15.2424H609.093V4.32236H610.713V6.0281H610.855C611.112 5.47354 611.5 5.02806 612.022 4.69172C612.543 4.35038 613.216 4.18022 614.041 4.18022C614.779 4.18022 615.427 4.33138 615.982 4.63469C616.539 4.93399 616.97 5.38843 617.28 6.00005C617.58 6.60667 617.74 7.37444 617.74 8.30338V15.2424H616.06V8.41751C616.06 7.55964 615.837 6.89094 615.391 6.41246C614.946 5.92897 614.334 5.68773 613.557 5.68773C613.022 5.68773 612.543 5.80387 612.121 6.0361C611.704 6.26834 611.374 6.60666 611.133 7.05211C610.892 7.49756 610.77 8.0381 610.77 8.67375ZM628.541 6.76783L627.03 7.19425C626.94 6.943 626.8 6.69877 626.609 6.46253C626.429 6.22028 626.189 6.02106 625.869 5.86491C625.558 5.70875 625.158 5.63069 624.667 5.63069C624.007 5.63069 623.446 5.78485 622.996 6.09216C622.555 6.39546 622.335 6.78184 622.335 7.25132C622.335 7.66874 622.495 7.99807 622.796 8.23932C623.096 8.48156 623.576 8.68277 624.217 8.84393L625.839 9.24234C626.81 9.47858 627.54 9.84195 628.021 10.3294C628.501 10.8129 628.742 11.4365 628.742 12.1993C628.742 12.8249 628.561 13.3845 628.201 13.877C627.841 14.3705 627.34 14.7589 626.699 15.0432C626.069 15.3275 625.318 15.4696 624.467 15.4696C623.356 15.4696 622.435 15.2284 621.704 14.7449C620.974 14.2614 620.513 13.5547 620.323 12.6257L621.915 12.2284C622.065 12.816 622.355 13.2564 622.776 13.5507C623.196 13.844 623.757 13.9911 624.447 13.9911C625.228 13.9911 625.849 13.825 626.309 13.4936C626.77 13.1573 627 12.7539 627 12.2844C627 11.906 626.87 11.5877 626.609 11.3324C626.339 11.0712 625.929 10.877 625.378 10.7488L623.566 10.3224C622.565 10.0852 621.825 9.71882 621.354 9.22032C620.894 8.71781 620.663 8.09016 620.663 7.3364C620.663 6.72077 620.834 6.17523 621.184 5.70175C621.534 5.22727 622.005 4.8559 622.605 4.58563C623.216 4.31536 623.907 4.18022 624.667 4.18022C625.749 4.18022 626.599 4.41745 627.22 4.89093C627.841 5.36541 628.281 5.99104 628.541 6.76783ZM633.737 15.2424L630.413 4.32236H632.175L634.537 12.6828H634.648L636.98 4.32236H638.772L641.074 12.6548H641.184L643.547 4.32236H645.308L641.985 15.2424H640.333L637.951 6.85291H637.771L635.388 15.2424H633.737ZM651.735 15.4696C650.684 15.4696 649.773 15.2374 649.012 14.7729C648.251 14.3035 647.671 13.6498 647.26 12.811C646.85 11.9671 646.65 10.9861 646.65 9.86798C646.65 8.74885 646.85 7.76283 647.26 6.90997C647.671 6.0521 648.241 5.38444 648.982 4.90495C649.713 4.42146 650.584 4.18022 651.565 4.18022C652.135 4.18022 652.696 4.27531 653.246 4.4645C653.807 4.6537 654.307 4.96201 654.768 5.38844C655.218 5.81087 655.579 6.36943 655.849 7.06613C656.119 7.76284 656.259 8.62072 656.259 9.63975V10.3515H647.841V8.901H654.548C654.548 8.28437 654.428 7.73481 654.187 7.25132C653.937 6.76783 653.597 6.38644 653.146 6.10716C652.696 5.82687 652.175 5.68773 651.565 5.68773C650.894 5.68773 650.323 5.8529 649.833 6.18524C649.352 6.51157 648.972 6.93902 648.712 7.46455C648.451 7.99108 648.321 8.55465 648.321 9.15626V10.1232C648.321 10.948 648.462 11.6478 648.752 12.2213C649.042 12.7899 649.442 13.2234 649.953 13.5217C650.463 13.816 651.054 13.9631 651.735 13.9631C652.175 13.9631 652.576 13.901 652.936 13.7779C653.286 13.6498 653.607 13.4606 653.867 13.2093C654.127 12.9531 654.327 12.6358 654.468 12.2564L656.089 12.7118C655.919 13.2614 655.629 13.7449 655.228 14.1613C654.828 14.5737 654.327 14.896 653.737 15.1283C653.146 15.3565 652.476 15.4696 651.735 15.4696ZM658.812 15.2424V4.32236H660.434V5.97204H660.544C660.744 5.43149 661.104 4.99302 661.625 4.65668C662.145 4.32034 662.736 4.1512 663.387 4.1512C663.517 4.1512 663.667 4.1542 663.847 4.1592C664.037 4.16321 664.177 4.17021 664.267 4.18022V5.88595C664.217 5.87194 664.087 5.85089 663.877 5.82186C663.677 5.78883 663.467 5.77283 663.246 5.77283C662.716 5.77283 662.245 5.88393 661.825 6.10716C661.415 6.32438 661.084 6.62768 660.844 7.01707C660.604 7.40046 660.484 7.8389 660.484 8.3324V15.2424H658.812ZM672.966 19.3375C672.686 19.3375 672.436 19.3135 672.206 19.2665C671.985 19.2234 671.835 19.1814 671.745 19.1383L672.176 17.6598C672.586 17.764 672.946 17.802 673.257 17.773C673.567 17.7449 673.847 17.6048 674.087 17.3535C674.338 17.1073 674.558 16.7069 674.758 16.1523L675.078 15.2995L671.034 4.32236H672.856L675.869 13.0242H675.989L679.002 4.32236H680.824L676.18 16.835C675.979 17.3986 675.719 17.866 675.409 18.2354C675.098 18.6098 674.748 18.8871 674.338 19.0673C673.937 19.2475 673.477 19.3375 672.966 19.3375ZM687.081 15.4696C686.09 15.4696 685.229 15.2354 684.488 14.7659C683.747 14.2964 683.167 13.6408 682.746 12.7969C682.336 11.9531 682.136 10.9671 682.136 9.83893C682.136 8.70178 682.336 7.70879 682.746 6.85993C683.167 6.01207 683.747 5.35341 684.488 4.88393C685.229 4.41446 686.09 4.18022 687.081 4.18022C688.062 4.18022 688.932 4.41446 689.663 4.88393C690.414 5.35341 690.995 6.01207 691.405 6.85993C691.815 7.70879 692.026 8.70178 692.026 9.83893C692.026 10.9671 691.815 11.9531 691.405 12.7969C690.995 13.6408 690.414 14.2964 689.663 14.7659C688.932 15.2354 688.062 15.4696 687.081 15.4696ZM687.081 13.9631C687.831 13.9631 688.442 13.7709 688.932 13.3865C689.413 13.0031 689.773 12.4986 690.003 11.873C690.234 11.2474 690.354 10.5687 690.354 9.83893C690.354 9.10919 690.234 8.42951 690.003 7.79887C689.773 7.16823 689.413 6.65871 688.932 6.27032C688.442 5.88192 687.831 5.68773 687.081 5.68773C686.33 5.68773 685.719 5.88192 685.229 6.27032C684.748 6.65871 684.388 7.16823 684.158 7.79887C683.927 8.42951 683.807 9.10919 683.807 9.83893C683.807 10.5687 683.927 11.2474 684.158 11.873C684.388 12.4986 684.748 13.0031 685.229 13.3865C685.719 13.7709 686.33 13.9631 687.081 13.9631ZM701.475 10.7779V4.32236H703.147V15.2424H701.475V13.3935H701.355C701.105 13.9481 700.704 14.4206 700.164 14.8089C699.623 15.1923 698.942 15.3845 698.112 15.3845C697.431 15.3845 696.83 15.2354 696.3 14.9371C695.769 14.6338 695.349 14.1783 695.049 13.5717C694.738 12.9601 694.588 12.1903 694.588 11.2614V4.32236H696.27V11.1473C696.27 11.9441 696.49 12.5787 696.931 13.0522C697.381 13.5267 697.962 13.7639 698.652 13.7639C699.073 13.7639 699.493 13.6568 699.924 13.4436C700.364 13.2304 700.724 12.903 701.025 12.4626C701.325 12.0221 701.475 11.4606 701.475 10.7779ZM707.992 0.682666V1.96197C707.992 2.35037 707.922 2.7658 707.781 3.20624C707.641 3.64168 707.441 4.06611 707.171 4.47853C706.901 4.88594 706.58 5.2413 706.2 5.54461L705.289 4.80585C705.589 4.37942 705.85 3.93597 706.07 3.47651C706.29 3.01204 706.4 2.51652 706.4 1.98999V0.682666H707.992ZM709.783 15.2424V4.32236H711.405V5.97204H711.515C711.715 5.43149 712.076 4.99302 712.596 4.65668C713.117 4.32034 713.707 4.1512 714.358 4.1512C714.478 4.1512 714.638 4.1542 714.819 4.1592C715.009 4.16321 715.149 4.17021 715.239 4.18022V5.88595C715.179 5.87194 715.049 5.85089 714.849 5.82186C714.648 5.78883 714.438 5.77283 714.218 5.77283C713.687 5.77283 713.207 5.88393 712.797 6.10716C712.386 6.32438 712.056 6.62768 711.816 7.01707C711.575 7.40046 711.455 7.8389 711.455 8.3324V15.2424H709.783ZM721.475 15.4696C720.424 15.4696 719.513 15.2374 718.753 14.7729C717.992 14.3035 717.411 13.6498 717.001 12.811C716.59 11.9671 716.38 10.9861 716.38 9.86798C716.38 8.74885 716.59 7.76283 717.001 6.90997C717.411 6.0521 717.982 5.38444 718.713 4.90495C719.453 4.42146 720.314 4.18022 721.305 4.18022C721.876 4.18022 722.436 4.27531 722.987 4.4645C723.547 4.6537 724.048 4.96201 724.508 5.38844C724.959 5.81087 725.319 6.36943 725.589 7.06613C725.86 7.76284 726 8.62072 726 9.63975V10.3515H717.581V8.901H724.288C724.288 8.28437 724.168 7.73481 723.918 7.25132C723.678 6.76783 723.337 6.38644 722.887 6.10716C722.436 5.82687 721.916 5.68773 721.305 5.68773C720.634 5.68773 720.054 5.8529 719.573 6.18524C719.083 6.51157 718.713 6.93902 718.452 7.46455C718.192 7.99108 718.062 8.55465 718.062 9.15626V10.1232C718.062 10.948 718.202 11.6478 718.492 12.2213C718.783 12.7899 719.183 13.2234 719.694 13.5217C720.204 13.816 720.795 13.9631 721.475 13.9631C721.916 13.9631 722.316 13.901 722.666 13.7779C723.027 13.6498 723.337 13.4606 723.597 13.2093C723.858 12.9531 724.068 12.6358 724.208 12.2564L725.83 12.7118C725.66 13.2614 725.369 13.7449 724.969 14.1613C724.558 14.5737 724.068 14.896 723.477 15.1283C722.877 15.3565 722.216 15.4696 721.475 15.4696ZM1.67769 30.713V45.2728H0V30.713H1.67769ZM9.1873 45.5C8.2013 45.5 7.33641 45.2657 6.59266 44.7963C5.85292 44.3268 5.27433 43.6711 4.85791 42.8273C4.44549 41.9834 4.2393 40.9974 4.2393 39.8693C4.2393 38.7321 4.44549 37.7391 4.85791 36.8903C5.27433 36.0424 5.85292 35.3838 6.59266 34.9143C7.33641 34.4448 8.2013 34.2106 9.1873 34.2106C10.1733 34.2106 11.0362 34.4448 11.7749 34.9143C12.5197 35.3838 13.0972 36.0424 13.5097 36.8903C13.9271 37.7391 14.1353 38.7321 14.1353 39.8693C14.1353 40.9974 13.9271 41.9834 13.5097 42.8273C13.0972 43.6711 12.5197 44.3268 11.7749 44.7963C11.0362 45.2657 10.1733 45.5 9.1873 45.5ZM9.1873 43.9934C9.93605 43.9934 10.5527 43.8013 11.0361 43.4169C11.5196 43.0335 11.877 42.529 12.1093 41.9034C12.3415 41.2777 12.4576 40.599 12.4576 39.8693C12.4576 39.1395 12.3415 38.4599 12.1093 37.8292C11.877 37.1986 11.5196 36.6891 11.0361 36.3007C10.5527 35.9123 9.93605 35.7181 9.1873 35.7181C8.43854 35.7181 7.8219 35.9123 7.33841 36.3007C6.85492 36.6891 6.49757 37.1986 6.26534 37.8292C6.0331 38.4599 5.91699 39.1395 5.91699 39.8693C5.91699 40.599 6.0331 41.2777 6.26534 41.9034C6.49757 42.529 6.85492 43.0335 7.33841 43.4169C7.8219 43.8013 8.43854 43.9934 9.1873 43.9934ZM21.1334 45.5C20.1474 45.5 19.2825 45.2657 18.5378 44.7963C17.799 44.3268 17.2204 43.6711 16.803 42.8273C16.3906 41.9834 16.1844 40.9974 16.1844 39.8693C16.1844 38.7321 16.3906 37.7391 16.803 36.8903C17.2204 36.0424 17.799 35.3838 18.5378 34.9143C19.2825 34.4448 20.1474 34.2106 21.1334 34.2106C22.1184 34.2106 22.9812 34.4448 23.721 34.9143C24.4647 35.3838 25.0433 36.0424 25.4557 36.8903C25.8721 37.7391 26.0814 38.7321 26.0814 39.8693C26.0814 40.9974 25.8721 41.9834 25.4557 42.8273C25.0433 43.6711 24.4647 44.3268 23.721 44.7963C22.9812 45.2657 22.1184 45.5 21.1334 45.5ZM21.1334 43.9934C21.8821 43.9934 22.4978 43.8013 22.9812 43.4169C23.4647 43.0335 23.8231 42.529 24.0553 41.9034C24.2876 41.2777 24.4037 40.599 24.4037 39.8693C24.4037 39.1395 24.2876 38.4599 24.0553 37.8292C23.8231 37.1986 23.4647 36.6891 22.9812 36.3007C22.4978 35.9123 21.8821 35.7181 21.1334 35.7181C20.3836 35.7181 19.768 35.9123 19.2845 36.3007C18.801 36.6891 18.4436 37.1986 18.2114 37.8292C17.9792 38.4599 17.8631 39.1395 17.8631 39.8693C17.8631 40.599 17.9792 41.2777 18.2114 41.9034C18.4436 42.529 18.801 43.0335 19.2845 43.4169C19.768 43.8013 20.3836 43.9934 21.1334 43.9934ZM30.2065 41.2917L30.1775 39.2156H30.5189L35.2967 34.3527H37.3728L32.2826 39.4999H32.1405L30.2065 41.2917ZM28.642 45.2728V30.713H30.3207V45.2728H28.642ZM35.581 45.2728L31.3157 39.8693L32.5099 38.7041L37.7141 45.2728H35.581ZM39.532 45.2728V34.3527H41.2097V45.2728H39.532ZM40.3858 32.5329C40.0585 32.5329 39.7762 32.4208 39.539 32.1985C39.3067 31.9753 39.1906 31.708 39.1906 31.3947C39.1906 31.0824 39.3067 30.8142 39.539 30.5919C39.7762 30.3687 40.0585 30.2576 40.3858 30.2576C40.7122 30.2576 40.9925 30.3687 41.2247 30.5919C41.4609 30.8142 41.58 31.0824 41.58 31.3947C41.58 31.708 41.4609 31.9753 41.2247 32.1985C40.9925 32.4208 40.7122 32.5329 40.3858 32.5329ZM45.9615 38.7041V45.2728H44.2828V34.3527H45.9044V36.0585H46.0465C46.3018 35.5039 46.6912 35.0584 47.2127 34.7221C47.7333 34.3807 48.4069 34.2106 49.2318 34.2106C49.9705 34.2106 50.6172 34.3617 51.1717 34.665C51.7263 34.9643 52.1577 35.4188 52.466 36.0304C52.7743 36.637 52.9285 37.4048 52.9285 38.3337V45.2728H51.2508V38.4479C51.2508 37.59 51.0276 36.9213 50.5821 36.4428C50.1367 35.9593 49.5251 35.7181 48.7483 35.7181C48.2127 35.7181 47.7333 35.8342 47.3118 36.0665C46.8944 36.2987 46.5651 36.637 46.3238 37.0825C46.0816 37.5279 45.9615 38.0685 45.9615 38.7041ZM60.4021 49.5951C59.5912 49.5951 58.8945 49.491 58.3119 49.2828C57.7293 49.0786 57.2429 48.8083 56.8545 48.472C56.4701 48.1407 56.1648 47.7843 55.9376 47.4059L57.2739 46.467C57.4261 46.6662 57.6173 46.8934 57.8495 47.1497C58.0817 47.4099 58.4 47.6351 58.8025 47.8253C59.2099 48.0195 59.7434 48.1166 60.4021 48.1166C61.284 48.1166 62.0107 47.9034 62.5843 47.477C63.1578 47.0505 63.4451 46.3819 63.4451 45.472V43.2537H63.303C63.1799 43.4529 63.0037 43.6991 62.7765 43.9934C62.5542 44.2817 62.2319 44.54 61.8095 44.7682C61.3931 44.9905 60.8285 45.1026 60.1178 45.1026C59.2359 45.1026 58.4451 44.8934 57.7434 44.4769C57.0467 44.0595 56.4941 43.4529 56.0867 42.6561C55.6833 41.8603 55.4821 40.8933 55.4821 39.7562C55.4821 38.6371 55.6793 37.6631 56.0727 36.8342C56.4661 35.9994 57.0136 35.3547 57.7143 34.9003C58.4161 34.4408 59.2269 34.2106 60.1458 34.2106C60.8575 34.2106 61.4211 34.3287 61.8385 34.5659C62.2599 34.7981 62.5823 35.0634 62.8055 35.3617C63.0327 35.656 63.2079 35.8973 63.331 36.0875H63.5022V34.3527H65.1228V45.5851C65.1228 46.524 64.9096 47.2868 64.4832 47.8744C64.0608 48.467 63.4922 48.9014 62.7765 49.1757C62.0658 49.456 61.2739 49.5951 60.4021 49.5951ZM60.345 43.5951C61.0187 43.5951 61.5873 43.4409 62.0517 43.1326C62.5162 42.8243 62.8685 42.3818 63.1108 41.8032C63.352 41.2247 63.4732 40.533 63.4732 39.7271C63.4732 38.9403 63.3551 38.2467 63.1178 37.644C62.8806 37.0424 62.5302 36.571 62.0657 36.2296C61.6013 35.8883 61.0277 35.7181 60.345 35.7181C59.6343 35.7181 59.0417 35.8973 58.5682 36.2576C58.0987 36.618 57.7454 37.1015 57.5081 37.7081C57.2759 38.3147 57.1598 38.9884 57.1598 39.7271C57.1598 40.4859 57.2789 41.1566 57.5151 41.7392C57.7574 42.3178 58.1128 42.7722 58.5822 43.1046C59.0557 43.4319 59.6433 43.5951 60.345 43.5951ZM78.6875 34.3527V35.7741H72.8006V34.3527H78.6875ZM74.5644 45.2728V32.8452C74.5644 32.2196 74.7115 31.698 75.0048 31.2816C75.2991 30.8642 75.6805 30.5519 76.15 30.3427C76.6185 30.1344 77.114 30.0304 77.6355 30.0304C78.0479 30.0304 78.3842 30.0634 78.6445 30.1295C78.9058 30.1955 79.1 30.2576 79.2281 30.3146L78.7446 31.7651C78.6595 31.7361 78.5404 31.701 78.3892 31.658C78.2421 31.6159 78.0479 31.5939 77.8056 31.5939C77.2511 31.5939 76.8507 31.7341 76.6044 32.0133C76.3632 32.2936 76.2421 32.703 76.2421 33.2436V45.2728H74.5644ZM85.026 45.5C84.04 45.5 83.1751 45.2657 82.4303 44.7963C81.6916 44.3268 81.113 43.6711 80.6956 42.8273C80.2842 41.9834 80.078 40.9974 80.078 39.8693C80.078 38.7321 80.2842 37.7391 80.6956 36.8903C81.113 36.0424 81.6916 35.3838 82.4303 34.9143C83.1751 34.4448 84.04 34.2106 85.026 34.2106C86.0119 34.2106 86.8738 34.4448 87.6136 34.9143C88.3573 35.3838 88.9359 36.0424 89.3483 36.8903C89.7657 37.7391 89.9739 38.7321 89.9739 39.8693C89.9739 40.9974 89.7657 41.9834 89.3483 42.8273C88.9359 43.6711 88.3573 44.3268 87.6136 44.7963C86.8738 45.2657 86.0119 45.5 85.026 45.5ZM85.026 43.9934C85.7747 43.9934 86.3903 43.8013 86.8738 43.4169C87.3573 43.0335 87.7157 42.529 87.9479 41.9034C88.1801 41.2777 88.2963 40.599 88.2963 39.8693C88.2963 39.1395 88.1801 38.4599 87.9479 37.8292C87.7157 37.1986 87.3573 36.6891 86.8738 36.3007C86.3903 35.9123 85.7747 35.7181 85.026 35.7181C84.2772 35.7181 83.6606 35.9123 83.1771 36.3007C82.6936 36.6891 82.3362 37.1986 82.104 37.8292C81.8718 38.4599 81.7556 39.1395 81.7556 39.8693C81.7556 40.599 81.8718 41.2777 82.104 41.9034C82.3362 42.529 82.6936 43.0335 83.1771 43.4169C83.6606 43.8013 84.2772 43.9934 85.026 43.9934ZM92.5345 45.2728V34.3527H94.1562V36.0024H94.2693C94.4685 35.4618 94.8289 35.0234 95.3504 34.687C95.8719 34.3507 96.4595 34.1816 97.1132 34.1816C97.2363 34.1816 97.3904 34.1846 97.5756 34.1896C97.7608 34.1936 97.9 34.2006 97.9951 34.2106V35.9163C97.938 35.9023 97.8079 35.8812 97.6037 35.8522C97.4055 35.8192 97.1943 35.8032 96.971 35.8032C96.4405 35.8032 95.967 35.9143 95.5496 36.1375C95.1372 36.3547 94.8098 36.658 94.5686 37.0474C94.3313 37.4308 94.2132 37.8693 94.2132 38.3628V45.2728H92.5345ZM102.173 41.1776V41.0925C102.183 40.1876 102.278 39.4669 102.458 38.9314C102.638 38.3958 102.894 37.9614 103.226 37.63C103.558 37.2987 103.956 36.9924 104.421 36.7131C104.7 36.5419 104.951 36.3407 105.174 36.1085C105.397 35.8713 105.572 35.599 105.7 35.2907C105.833 34.9834 105.899 34.642 105.899 34.2676C105.899 33.8032 105.79 33.3998 105.572 33.0584C105.353 32.7171 105.062 32.4548 104.698 32.2696C104.332 32.0844 103.927 31.9923 103.482 31.9923C103.093 31.9923 102.719 32.0724 102.358 32.2336C101.998 32.3947 101.698 32.649 101.456 32.9944C101.214 33.3407 101.074 33.7932 101.036 34.3527H99.2443C99.2824 33.5469 99.4906 32.8572 99.87 32.2836C100.254 31.71 100.759 31.2716 101.384 30.9683C102.015 30.665 102.714 30.5138 103.482 30.5138C104.316 30.5138 105.041 30.679 105.658 31.0113C106.278 31.3427 106.757 31.7981 107.093 32.3757C107.435 32.9543 107.606 33.613 107.606 34.3527C107.606 34.8742 107.525 35.3457 107.364 35.7671C107.207 36.1896 106.98 36.566 106.681 36.8983C106.388 37.2296 106.032 37.5239 105.615 37.7792C105.197 38.0405 104.863 38.3147 104.612 38.604C104.362 38.8883 104.178 39.2276 104.065 39.621C103.951 40.0144 103.889 40.5049 103.88 41.0925V41.1776H102.173ZM103.083 45.3869C102.733 45.3869 102.432 45.2607 102.181 45.0095C101.93 44.7582 101.804 44.4579 101.804 44.1066C101.804 43.7562 101.93 43.4549 102.181 43.2037C102.432 42.9524 102.733 42.8273 103.083 42.8273C103.435 42.8273 103.736 42.9524 103.986 43.2037C104.237 43.4549 104.363 43.7562 104.363 44.1066C104.363 44.3388 104.304 44.552 104.185 44.7462C104.072 44.9414 103.918 45.0976 103.724 45.2157C103.534 45.3298 103.32 45.3869 103.083 45.3869ZM115.989 45.2728V30.713H124.719V32.2766H117.752V37.1966H124.065V38.7602H117.752V45.2728H115.989ZM131.289 45.5C130.237 45.5 129.329 45.2678 128.566 44.8033C127.807 44.3338 127.222 43.6802 126.81 42.8413C126.402 41.9975 126.199 41.0165 126.199 39.8983C126.199 38.7792 126.402 37.7932 126.81 36.9403C127.222 36.0825 127.795 35.4148 128.53 34.9353C129.27 34.4518 130.133 34.2106 131.119 34.2106C131.687 34.2106 132.249 34.3057 132.803 34.4949C133.358 34.6841 133.862 34.9924 134.318 35.4188C134.772 35.8412 135.135 36.3998 135.405 37.0965C135.675 37.7932 135.81 38.6511 135.81 39.6701V40.3818H127.393V38.9314H134.104C134.104 38.3147 133.98 37.7652 133.734 37.2817C133.493 36.7982 133.147 36.4168 132.696 36.1375C132.251 35.8572 131.725 35.7181 131.119 35.7181C130.45 35.7181 129.871 35.8833 129.384 36.2156C128.9 36.5419 128.528 36.9694 128.268 37.4949C128.006 38.0214 127.876 38.585 127.876 39.1866V40.1536C127.876 40.9784 128.018 41.6781 128.303 42.2517C128.592 42.8203 128.992 43.2537 129.504 43.552C130.016 43.8463 130.611 43.9934 131.289 43.9934C131.729 43.9934 132.128 43.9314 132.483 43.8083C132.843 43.6801 133.154 43.4909 133.415 43.2397C133.675 42.9834 133.876 42.6661 134.018 42.2867L135.64 42.7422C135.469 43.2917 135.183 43.7753 134.779 44.1917C134.377 44.6041 133.879 44.9264 133.287 45.1586C132.694 45.3869 132.028 45.5 131.289 45.5ZM142.941 45.5C141.888 45.5 140.982 45.2678 140.218 44.8033C139.46 44.3338 138.874 43.6802 138.462 42.8413C138.055 41.9975 137.85 41.0165 137.85 39.8983C137.85 38.7792 138.055 37.7932 138.462 36.9403C138.874 36.0825 139.448 35.4148 140.183 34.9353C140.922 34.4518 141.784 34.2106 142.77 34.2106C143.339 34.2106 143.9 34.3057 144.455 34.4949C145.01 34.6841 145.515 34.9924 145.97 35.4188C146.425 35.8412 146.787 36.3998 147.058 37.0965C147.328 37.7932 147.463 38.6511 147.463 39.6701V40.3818H139.046V38.9314H145.756C145.756 38.3147 145.633 37.7652 145.387 37.2817C145.145 36.7982 144.799 36.4168 144.349 36.1375C143.903 35.8572 143.377 35.7181 142.77 35.7181C142.103 35.7181 141.524 35.8833 141.036 36.2156C140.552 36.5419 140.181 36.9694 139.919 37.4949C139.659 38.0214 139.529 38.585 139.529 39.1866V40.1536C139.529 40.9784 139.671 41.6781 139.956 42.2517C140.244 42.8203 140.645 43.2537 141.157 43.552C141.668 43.8463 142.264 43.9934 142.941 43.9934C143.382 43.9934 143.78 43.9314 144.136 43.8083C144.496 43.6801 144.806 43.4909 145.067 43.2397C145.328 42.9834 145.529 42.6661 145.671 42.2867L147.292 42.7422C147.122 43.2917 146.834 43.7753 146.432 44.1917C146.029 44.6041 145.531 44.9264 144.939 45.1586C144.346 45.3869 143.68 45.5 142.941 45.5ZM151.693 30.713V45.2728H150.015V30.713H151.693ZM165.259 34.3527V35.7741H159.373V34.3527H165.259ZM161.136 45.2728V32.8452C161.136 32.2196 161.283 31.698 161.576 31.2816C161.871 30.8642 162.252 30.5519 162.721 30.3427C163.191 30.1344 163.685 30.0304 164.207 30.0304C164.619 30.0304 164.956 30.0634 165.217 30.1295C165.477 30.1955 165.671 30.2576 165.8 30.3146L165.316 31.7651C165.231 31.7361 165.113 31.701 164.961 31.658C164.814 31.6159 164.619 31.5939 164.378 31.5939C163.824 31.5939 163.423 31.7341 163.176 32.0133C162.935 32.2936 162.814 32.703 162.814 33.2436V45.2728H161.136ZM167.61 45.2728V34.3527H169.232V36.0024H169.345C169.544 35.4618 169.905 35.0234 170.426 34.687C170.948 34.3507 171.535 34.1816 172.189 34.1816C172.312 34.1816 172.466 34.1846 172.652 34.1896C172.837 34.1936 172.976 34.2006 173.071 34.2106V35.9163C173.014 35.9023 172.884 35.8812 172.68 35.8522C172.481 35.8192 172.27 35.8032 172.047 35.8032C171.516 35.8032 171.043 35.9143 170.625 36.1375C170.213 36.3547 169.886 36.658 169.645 37.0474C169.407 37.4308 169.289 37.8693 169.289 38.3628V45.2728H167.61ZM179.306 45.5C178.254 45.5 177.346 45.2678 176.584 44.8033C175.825 44.3338 175.239 43.6802 174.827 42.8413C174.419 41.9975 174.216 41.0165 174.216 39.8983C174.216 38.7792 174.419 37.7932 174.827 36.9403C175.239 36.0825 175.813 35.4148 176.547 34.9353C177.287 34.4518 178.149 34.2106 179.135 34.2106C179.704 34.2106 180.266 34.3057 180.821 34.4949C181.374 34.6841 181.88 34.9924 182.334 35.4188C182.79 35.8412 183.152 36.3998 183.422 37.0965C183.693 37.7932 183.828 38.6511 183.828 39.6701V40.3818H175.41V38.9314H182.121C182.121 38.3147 181.998 37.7652 181.752 37.2817C181.509 36.7982 181.164 36.4168 180.714 36.1375C180.268 35.8572 179.742 35.7181 179.135 35.7181C178.467 35.7181 177.889 35.8833 177.4 36.2156C176.917 36.5419 176.545 36.9694 176.284 37.4949C176.024 38.0214 175.894 38.585 175.894 39.1866V40.1536C175.894 40.9784 176.036 41.6781 176.32 42.2517C176.61 42.8203 177.01 43.2537 177.521 43.552C178.033 43.8463 178.629 43.9934 179.306 43.9934C179.747 43.9934 180.145 43.9314 180.5 43.8083C180.861 43.6801 181.171 43.4909 181.431 43.2397C181.693 42.9834 181.894 42.6661 182.036 42.2867L183.657 42.7422C183.486 43.2917 183.199 43.7753 182.797 44.1917C182.393 44.6041 181.896 44.9264 181.303 45.1586C180.712 45.3869 180.045 45.5 179.306 45.5ZM190.958 45.5C189.906 45.5 188.999 45.2678 188.235 44.8033C187.477 44.3338 186.892 43.6802 186.48 42.8413C186.072 41.9975 185.868 41.0165 185.868 39.8983C185.868 38.7792 186.072 37.7932 186.48 36.9403C186.892 36.0825 187.466 35.4148 188.2 34.9353C188.939 34.4518 189.802 34.2106 190.788 34.2106C191.356 34.2106 191.918 34.3057 192.473 34.4949C193.027 34.6841 193.532 34.9924 193.987 35.4188C194.442 35.8412 194.805 36.3998 195.075 37.0965C195.344 37.7932 195.48 38.6511 195.48 39.6701V40.3818H187.062V38.9314H193.774C193.774 38.3147 193.651 37.7652 193.404 37.2817C193.162 36.7982 192.816 36.4168 192.366 36.1375C191.921 35.8572 191.395 35.7181 190.788 35.7181C190.119 35.7181 189.542 35.8833 189.053 36.2156C188.57 36.5419 188.197 36.9694 187.937 37.4949C187.676 38.0214 187.546 38.585 187.546 39.1866V40.1536C187.546 40.9784 187.688 41.6781 187.972 42.2517C188.261 42.8203 188.662 43.2537 189.174 43.552C189.686 43.8463 190.28 43.9934 190.958 43.9934C191.399 43.9934 191.797 43.9314 192.153 43.8083C192.513 43.6801 192.824 43.4909 193.084 43.2397C193.344 42.9834 193.547 42.6661 193.689 42.2867L195.309 42.7422C195.138 43.2917 194.852 43.7753 194.45 44.1917C194.046 44.6041 193.549 44.9264 192.956 45.1586C192.363 45.3869 191.698 45.5 190.958 45.5ZM208.412 34.3527V35.7741H202.753V34.3527H208.412ZM204.403 31.7361H206.08V42.1446C206.08 42.6181 206.149 42.9744 206.287 43.2107C206.429 43.4429 206.609 43.6001 206.827 43.6801C207.049 43.7562 207.285 43.7943 207.531 43.7943C207.715 43.7943 207.867 43.7842 207.985 43.7652C208.104 43.7422 208.198 43.7232 208.27 43.7092L208.611 45.2157C208.498 45.2587 208.339 45.3008 208.134 45.3438C207.931 45.3909 207.673 45.4149 207.36 45.4149C206.886 45.4149 206.422 45.3128 205.966 45.1096C205.516 44.9054 205.141 44.5951 204.843 44.1777C204.55 43.7612 204.403 43.2347 204.403 42.6V31.7361ZM215.255 45.5C214.27 45.5 213.404 45.2657 212.66 44.7963C211.92 44.3268 211.343 43.6711 210.925 42.8273C210.513 41.9834 210.307 40.9974 210.307 39.8693C210.307 38.7321 210.513 37.7391 210.925 36.8903C211.343 36.0424 211.92 35.3838 212.66 34.9143C213.404 34.4448 214.27 34.2106 215.255 34.2106C216.241 34.2106 217.103 34.4448 217.843 34.9143C218.587 35.3838 219.166 36.0424 219.578 36.8903C219.994 37.7391 220.204 38.7321 220.204 39.8693C220.204 40.9974 219.994 41.9834 219.578 42.8273C219.166 43.6711 218.587 44.3268 217.843 44.7963C217.103 45.2657 216.241 45.5 215.255 45.5ZM215.255 43.9934C216.003 43.9934 216.62 43.8013 217.103 43.4169C217.587 43.0335 217.944 42.529 218.177 41.9034C218.409 41.2777 218.525 40.599 218.525 39.8693C218.525 39.1395 218.409 38.4599 218.177 37.8292C217.944 37.1986 217.587 36.6891 217.103 36.3007C216.62 35.9123 216.003 35.7181 215.255 35.7181C214.506 35.7181 213.89 35.9123 213.407 36.3007C212.923 36.6891 212.565 37.1986 212.333 37.8292C212.1 38.4599 211.984 39.1395 211.984 39.8693C211.984 40.599 212.1 41.2777 212.333 41.9034C212.565 42.529 212.923 43.0335 213.407 43.4169C213.89 43.8013 214.506 43.9934 215.255 43.9934ZM236.13 36.7982L234.623 37.2246C234.528 36.9734 234.388 36.7291 234.204 36.4929C234.024 36.2506 233.777 36.0514 233.464 35.8953C233.152 35.7391 232.75 35.661 232.263 35.661C231.594 35.661 231.038 35.8152 230.592 36.1225C230.151 36.4258 229.93 36.8122 229.93 37.2817C229.93 37.6991 230.083 38.0284 230.386 38.2697C230.689 38.5119 231.163 38.7131 231.807 38.8743L233.429 39.2727C234.405 39.5089 235.133 39.8723 235.611 40.3598C236.09 40.8433 236.329 41.4669 236.329 42.2297C236.329 42.8553 236.149 43.4149 235.789 43.9074C235.433 44.4009 234.936 44.7893 234.296 45.0735C233.656 45.3578 232.911 45.5 232.064 45.5C230.949 45.5 230.028 45.2587 229.298 44.7752C228.568 44.2918 228.106 43.585 227.911 42.6561L229.504 42.2587C229.656 42.8463 229.942 43.2867 230.364 43.581C230.791 43.8743 231.348 44.0215 232.036 44.0215C232.817 44.0215 233.438 43.8553 233.897 43.524C234.362 43.1876 234.594 42.7843 234.594 42.3148C234.594 41.9364 234.462 41.6181 234.197 41.3628C233.93 41.1015 233.523 40.9073 232.973 40.7792L231.154 40.3528C230.154 40.1155 229.419 39.7492 228.949 39.2507C228.485 38.7482 228.253 38.1205 228.253 37.3668C228.253 36.7511 228.426 36.2056 228.772 35.7321C229.123 35.2576 229.599 34.8863 230.201 34.616C230.807 34.3457 231.495 34.2106 232.263 34.2106C233.343 34.2106 234.192 34.4478 234.807 34.9213C235.429 35.3958 235.869 36.0214 236.13 36.7982ZM243.433 45.5C242.381 45.5 241.473 45.2678 240.71 44.8033C239.952 44.3338 239.367 43.6802 238.955 42.8413C238.547 41.9975 238.343 41.0165 238.343 39.8983C238.343 38.7792 238.547 37.7932 238.955 36.9403C239.367 36.0825 239.941 35.4148 240.675 34.9353C241.414 34.4518 242.277 34.2106 243.263 34.2106C243.832 34.2106 244.393 34.3057 244.948 34.4949C245.502 34.6841 246.007 34.9924 246.462 35.4188C246.917 35.8412 247.28 36.3998 247.549 37.0965C247.82 37.7932 247.955 38.6511 247.955 39.6701V40.3818H239.537V38.9314H246.249C246.249 38.3147 246.126 37.7652 245.879 37.2817C245.637 36.7982 245.291 36.4168 244.841 36.1375C244.395 35.8572 243.87 35.7181 243.263 35.7181C242.594 35.7181 242.017 35.8833 241.528 36.2156C241.045 36.5419 240.672 36.9694 240.412 37.4949C240.151 38.0214 240.021 38.585 240.021 39.1866V40.1536C240.021 40.9784 240.163 41.6781 240.447 42.2517C240.736 42.8203 241.137 43.2537 241.649 43.552C242.161 43.8463 242.755 43.9934 243.433 43.9934C243.875 43.9934 244.272 43.9314 244.627 43.8083C244.988 43.6801 245.298 43.4909 245.559 43.2397C245.819 42.9834 246.021 42.6661 246.164 42.2867L247.784 42.7422C247.613 43.2917 247.327 43.7753 246.924 44.1917C246.521 44.6041 246.024 44.9264 245.431 45.1586C244.838 45.3869 244.173 45.5 243.433 45.5ZM252.185 38.7041V45.2728H250.507V34.3527H252.128V36.0585H252.27C252.526 35.5039 252.915 35.0584 253.436 34.7221C253.958 34.3807 254.63 34.2106 255.455 34.2106C256.195 34.2106 256.842 34.3617 257.396 34.665C257.951 34.9643 258.382 35.4188 258.691 36.0304C258.998 36.637 259.152 37.4048 259.152 38.3337V45.2728H257.474V38.4479C257.474 37.59 257.252 36.9213 256.807 36.4428C256.361 35.9593 255.75 35.7181 254.972 35.7181C254.436 35.7181 253.958 35.8342 253.536 36.0665C253.119 36.2987 252.79 36.637 252.547 37.0825C252.306 37.5279 252.185 38.0685 252.185 38.7041ZM266.342 45.5C265.431 45.5 264.628 45.2707 263.932 44.8103C263.235 44.3458 262.69 43.6922 262.296 42.8483C261.903 42.0004 261.707 40.9974 261.707 39.8413C261.707 38.6941 261.903 37.6991 262.296 36.8552C262.69 36.0114 263.237 35.3597 263.939 34.9003C264.641 34.4408 265.45 34.2106 266.37 34.2106C267.081 34.2106 267.643 34.3287 268.055 34.5659C268.472 34.7981 268.79 35.0634 269.008 35.3617C269.23 35.656 269.403 35.8973 269.526 36.0875H269.669V30.713H271.347V45.2728H269.726V43.5951H269.526C269.403 43.7943 269.228 44.0455 269.001 44.3488C268.774 44.6471 268.448 44.9154 268.027 45.1516C267.604 45.3839 267.043 45.5 266.342 45.5ZM266.569 43.9934C267.242 43.9934 267.811 43.8173 268.275 43.4669C268.74 43.1116 269.093 42.6211 269.335 41.9955C269.576 41.3648 269.698 40.6371 269.698 39.8122C269.698 38.9974 269.579 38.2837 269.342 37.6731C269.105 37.0564 268.755 36.578 268.29 36.2366C267.826 35.8903 267.252 35.7181 266.569 35.7181C265.859 35.7181 265.266 35.9003 264.792 36.2647C264.322 36.625 263.97 37.1155 263.733 37.7371C263.5 38.3527 263.384 39.0445 263.384 39.8122C263.384 40.59 263.502 41.2957 263.74 41.9314C263.982 42.562 264.337 43.0645 264.806 43.4389C265.28 43.8083 265.868 43.9934 266.569 43.9934ZM283.497 45.529C282.805 45.529 282.177 45.3979 281.613 45.1376C281.049 44.8723 280.601 44.491 280.269 43.9934C279.937 43.4909 279.772 42.8844 279.772 42.1726C279.772 41.547 279.895 41.0405 280.141 40.6521C280.387 40.2587 280.717 39.9504 281.129 39.7271C281.542 39.5049 281.997 39.3388 282.495 39.2297C282.997 39.1155 283.502 39.0254 284.009 38.9594C284.673 38.8743 285.21 38.8102 285.623 38.7672C286.04 38.7201 286.343 38.6421 286.533 38.5329C286.727 38.4238 286.824 38.2346 286.824 37.9644V37.9073C286.824 37.2056 286.632 36.6611 286.248 36.2727C285.869 35.8833 285.293 35.6891 284.521 35.6891C283.72 35.6891 283.091 35.8642 282.637 36.2156C282.181 36.5659 281.862 36.9403 281.677 37.3387L280.084 36.7702C280.368 36.1065 280.748 35.59 281.222 35.2196C281.701 34.8452 282.222 34.5849 282.786 34.4378C283.354 34.2866 283.914 34.2106 284.464 34.2106C284.815 34.2106 285.217 34.2526 285.673 34.3387C286.132 34.4188 286.576 34.5869 287.002 34.8432C287.434 35.0995 287.791 35.4859 288.075 36.0024C288.359 36.5189 288.502 37.2106 288.502 38.0775V45.2728H286.824V43.7943H286.739C286.625 44.0305 286.436 44.2847 286.17 44.555C285.905 44.8253 285.552 45.0545 285.111 45.2447C284.67 45.4339 284.132 45.529 283.497 45.529ZM283.753 44.0215C284.417 44.0215 284.976 43.8914 285.431 43.6301C285.89 43.3698 286.236 43.0335 286.469 42.6211C286.706 42.2087 286.824 41.7752 286.824 41.3198V39.7842C286.753 39.8693 286.597 39.9474 286.354 40.0185C286.118 40.0855 285.843 40.1446 285.531 40.1966C285.222 40.2437 284.921 40.2867 284.628 40.3248C284.338 40.3578 284.103 40.3858 283.923 40.4098C283.488 40.4669 283.08 40.559 282.701 40.6871C282.326 40.8103 282.023 40.9974 281.791 41.2487C281.564 41.4949 281.449 41.8313 281.449 42.2587C281.449 42.8413 281.665 43.2817 282.096 43.581C282.533 43.8743 283.084 44.0215 283.753 44.0215ZM293.242 38.7041V45.2728H291.565V34.3527H293.185V36.0585H293.328C293.584 35.5039 293.972 35.0584 294.494 34.7221C295.015 34.3807 295.688 34.2106 296.513 34.2106C297.251 34.2106 297.899 34.3617 298.454 34.665C299.008 34.9643 299.44 35.4188 299.747 36.0304C300.055 36.637 300.209 37.4048 300.209 38.3337V45.2728H298.532V38.4479C298.532 37.59 298.309 36.9213 297.863 36.4428C297.418 35.9593 296.806 35.7181 296.029 35.7181C295.494 35.7181 295.015 35.8342 294.593 36.0665C294.176 36.2987 293.846 36.637 293.605 37.0825C293.363 37.5279 293.242 38.0685 293.242 38.7041ZM309.133 45.2728V30.713H317.921V32.2766H310.896V37.1966H317.466V38.7602H310.896V43.7092H318.035V45.2728H309.133ZM320.871 45.2728V34.3527H322.492V36.0585H322.634C322.862 35.4759 323.23 35.0234 323.736 34.7011C324.244 34.3737 324.852 34.2106 325.563 34.2106C326.284 34.2106 326.883 34.3737 327.362 34.7011C327.845 35.0234 328.223 35.4759 328.493 36.0585H328.606C328.886 35.4949 329.306 35.0474 329.864 34.7151C330.424 34.3787 331.095 34.2106 331.876 34.2106C332.853 34.2106 333.651 34.5159 334.273 35.1275C334.894 35.7341 335.204 36.6801 335.204 37.9644V45.2728H333.526V37.9644C333.526 37.1586 333.306 36.583 332.864 36.2366C332.424 35.8903 331.906 35.7181 331.308 35.7181C330.54 35.7181 329.946 35.9503 329.523 36.4148C329.102 36.8743 328.89 37.4569 328.89 38.1636V45.2728H327.185V37.7932C327.185 37.1726 326.984 36.6731 326.58 36.2937C326.178 35.9093 325.658 35.7181 325.024 35.7181C324.587 35.7181 324.18 35.8342 323.8 36.0665C323.426 36.2987 323.123 36.621 322.89 37.0324C322.663 37.4408 322.549 37.9123 322.549 38.4479V45.2728H320.871ZM341.485 45.529C340.794 45.529 340.165 45.3979 339.601 45.1376C339.037 44.8723 338.589 44.491 338.258 43.9934C337.926 43.4909 337.759 42.8844 337.759 42.1726C337.759 41.547 337.884 41.0405 338.13 40.6521C338.376 40.2587 338.705 39.9504 339.118 39.7271C339.53 39.5049 339.985 39.3388 340.483 39.2297C340.985 39.1155 341.49 39.0254 341.997 38.9594C342.66 38.8743 343.199 38.8102 343.611 38.7672C344.028 38.7201 344.331 38.6421 344.521 38.5329C344.715 38.4238 344.813 38.2346 344.813 37.9644V37.9073C344.813 37.2056 344.62 36.6611 344.237 36.2727C343.858 35.8833 343.282 35.6891 342.509 35.6891C341.708 35.6891 341.08 35.8642 340.625 36.2156C340.17 36.5659 339.85 36.9403 339.665 37.3387L338.073 36.7702C338.357 36.1065 338.736 35.59 339.21 35.2196C339.688 34.8452 340.21 34.5849 340.774 34.4378C341.343 34.2866 341.903 34.2106 342.452 34.2106C342.803 34.2106 343.206 34.2526 343.66 34.3387C344.121 34.4188 344.563 34.5869 344.99 34.8432C345.421 35.0995 345.78 35.4859 346.064 36.0024C346.348 36.5189 346.49 37.2106 346.49 38.0775V45.2728H344.813V43.7943H344.728C344.613 44.0305 344.424 44.2847 344.158 44.555C343.893 44.8253 343.54 45.0545 343.099 45.2447C342.658 45.4339 342.12 45.529 341.485 45.529ZM341.741 44.0215C342.405 44.0215 342.964 43.8914 343.419 43.6301C343.879 43.3698 344.225 43.0335 344.457 42.6211C344.693 42.2087 344.813 41.7752 344.813 41.3198V39.7842C344.741 39.8693 344.585 39.9474 344.343 40.0185C344.106 40.0855 343.832 40.1446 343.518 40.1966C343.21 40.2437 342.91 40.2867 342.615 40.3248C342.326 40.3578 342.092 40.3858 341.912 40.4098C341.476 40.4669 341.068 40.559 340.689 40.6871C340.314 40.8103 340.011 40.9974 339.778 41.2487C339.551 41.4949 339.438 41.8313 339.438 42.2587C339.438 42.8413 339.653 43.2817 340.085 43.581C340.52 43.8743 341.073 44.0215 341.741 44.0215ZM349.552 45.2728V34.3527H351.23V45.2728H349.552ZM350.406 32.5329C350.079 32.5329 349.797 32.4208 349.559 32.1985C349.327 31.9753 349.211 31.708 349.211 31.3947C349.211 31.0824 349.327 30.8142 349.559 30.5919C349.797 30.3687 350.079 30.2576 350.406 30.2576C350.733 30.2576 351.013 30.3687 351.245 30.5919C351.481 30.8142 351.6 31.0824 351.6 31.3947C351.6 31.708 351.481 31.9753 351.245 32.1985C351.013 32.4208 350.733 32.5329 350.406 32.5329ZM355.982 30.713V45.2728H354.303V30.713H355.982ZM360.277 45.3869C359.927 45.3869 359.626 45.2607 359.374 45.0095C359.123 44.7582 358.998 44.4579 358.998 44.1066C358.998 43.7562 359.123 43.4549 359.374 43.2037C359.626 42.9524 359.927 42.8273 360.277 42.8273C360.628 42.8273 360.929 42.9524 361.18 43.2037C361.431 43.4549 361.556 43.7562 361.556 44.1066C361.556 44.3388 361.497 44.552 361.379 44.7462C361.265 44.9414 361.111 45.0976 360.917 45.2157C360.728 45.3298 360.514 45.3869 360.277 45.3869Z" fill="#475467"/>
</svg>
