<svg width="141" height="44" viewBox="0 0 141 44" fill="none" xmlns="http://www.w3.org/2000/svg">
<g filter="url(#filter0_d_2_10999)">
<path d="M133 0H8C3.58172 0 0 3.58172 0 8V36C0 40.4183 3.58172 44 8 44H133C137.418 44 141 40.4183 141 36V8C141 3.58172 137.418 0 133 0Z" fill="white"/>
<path d="M133 0.5H8C3.85786 0.5 0.5 3.85786 0.5 8V36C0.5 40.1421 3.85786 43.5 8 43.5H133C137.142 43.5 140.5 40.1421 140.5 36V8C140.5 3.85786 137.142 0.5 133 0.5Z" stroke="#D0D5DD"/>
<path d="M16.9052 27V25.668L20.4402 22.202C20.7782 21.861 21.0592 21.558 21.2852 21.293C21.5102 21.027 21.6792 20.771 21.7922 20.522C21.9052 20.273 21.9612 20.008 21.9612 19.727C21.9612 19.405 21.8882 19.13 21.7422 18.901C21.5962 18.669 21.3962 18.49 21.1412 18.364C20.8852 18.238 20.5952 18.175 20.2712 18.175C19.9362 18.175 19.6432 18.245 19.3912 18.384C19.1392 18.52 18.9432 18.714 18.8042 18.966C18.6682 19.218 18.6002 19.518 18.6002 19.866H16.8452C16.8452 19.219 16.9932 18.658 17.2882 18.18C17.5832 17.703 17.9892 17.334 18.5062 17.072C19.0262 16.81 19.6232 16.679 20.2952 16.679C20.9782 16.679 21.5782 16.807 22.0952 17.062C22.6122 17.317 23.0132 17.667 23.2982 18.111C23.5872 18.555 23.7312 19.062 23.7312 19.632C23.7312 20.013 23.6582 20.388 23.5122 20.756C23.3662 21.124 23.1092 21.531 22.7412 21.979C22.3772 22.426 21.8652 22.968 21.2052 23.604L19.4502 25.389V25.459H23.8852V27H16.9052ZM29.3642 27.194C28.5452 27.194 27.8422 26.987 27.2562 26.572C26.6722 26.155 26.2232 25.553 25.9082 24.768C25.5972 23.979 25.4412 23.029 25.4412 21.919C25.4442 20.809 25.6022 19.864 25.9132 19.085C26.2282 18.303 26.6772 17.706 27.2612 17.295C27.8472 16.884 28.5482 16.679 29.3642 16.679C30.1792 16.679 30.8802 16.884 31.4672 17.295C32.0532 17.706 32.5022 18.303 32.8142 19.085C33.1292 19.867 33.2862 20.812 33.2862 21.919C33.2862 23.033 33.1292 23.984 32.8142 24.773C32.5022 25.558 32.0532 26.158 31.4672 26.572C30.8832 26.987 30.1822 27.194 29.3642 27.194ZM29.3642 25.638C30.0002 25.638 30.5022 25.325 30.8702 24.698C31.2412 24.068 31.4272 23.142 31.4272 21.919C31.4272 21.11 31.3422 20.431 31.1732 19.881C31.0042 19.33 30.7662 18.916 30.4572 18.638C30.1492 18.356 29.7852 18.215 29.3642 18.215C28.7312 18.215 28.2302 18.53 27.8622 19.16C27.4942 19.786 27.3092 20.706 27.3052 21.919C27.3022 22.731 27.3832 23.414 27.5492 23.967C27.7182 24.521 27.9572 24.938 28.2652 25.22C28.5732 25.499 28.9392 25.638 29.3642 25.638ZM34.9382 27V25.668L38.4732 22.202C38.8112 21.861 39.0932 21.558 39.3182 21.293C39.5432 21.027 39.7122 20.771 39.8252 20.522C39.9382 20.273 39.9942 20.008 39.9942 19.727C39.9942 19.405 39.9212 19.13 39.7752 18.901C39.6302 18.669 39.4292 18.49 39.1742 18.364C38.9192 18.238 38.6292 18.175 38.3042 18.175C37.9692 18.175 37.6762 18.245 37.4242 18.384C37.1722 18.52 36.9762 18.714 36.8372 18.966C36.7012 19.218 36.6332 19.518 36.6332 19.866H34.8782C34.8782 19.219 35.0262 18.658 35.3212 18.18C35.6162 17.703 36.0222 17.334 36.5392 17.072C37.0592 16.81 37.6562 16.679 38.3292 16.679C39.0112 16.679 39.6112 16.807 40.1282 17.062C40.6452 17.317 41.0462 17.667 41.3312 18.111C41.6202 18.555 41.7642 19.062 41.7642 19.632C41.7642 20.013 41.6912 20.388 41.5452 20.756C41.3992 21.124 41.1432 21.531 40.7752 21.979C40.4102 22.426 39.8982 22.968 39.2382 23.604L37.4832 25.389V25.459H41.9182V27H34.9382ZM43.6332 27V25.668L47.1682 22.202C47.5062 21.861 47.7882 21.558 48.0132 21.293C48.2392 21.027 48.4082 20.771 48.5202 20.522C48.6332 20.273 48.6892 20.008 48.6892 19.727C48.6892 19.405 48.6172 19.13 48.4712 18.901C48.3252 18.669 48.1242 18.49 47.8692 18.364C47.6142 18.238 47.3242 18.175 46.9992 18.175C46.6642 18.175 46.3712 18.245 46.1192 18.384C45.8672 18.52 45.6722 18.714 45.5322 18.966C45.3972 19.218 45.3292 19.518 45.3292 19.866H43.5742C43.5742 19.219 43.7212 18.658 44.0162 18.18C44.3112 17.703 44.7172 17.334 45.2342 17.072C45.7552 16.81 46.3512 16.679 47.0242 16.679C47.7072 16.679 48.3072 16.807 48.8242 17.062C49.3412 17.317 49.7422 17.667 50.0272 18.111C50.3152 18.555 50.4592 19.062 50.4592 19.632C50.4592 20.013 50.3862 20.388 50.2412 20.756C50.0952 21.124 49.8382 21.531 49.4702 21.979C49.1052 22.426 48.5932 22.968 47.9342 23.604L46.1792 25.389V25.459H50.6132V27H43.6332ZM56.5052 16.341L53.2242 28.531H51.6482L54.9292 16.341H56.5052ZM57.6332 27V25.668L61.1682 22.202C61.5062 21.861 61.7882 21.558 62.0132 21.293C62.2392 21.027 62.4082 20.771 62.5202 20.522C62.6332 20.273 62.6892 20.008 62.6892 19.727C62.6892 19.405 62.6172 19.13 62.4712 18.901C62.3252 18.669 62.1242 18.49 61.8692 18.364C61.6142 18.238 61.3242 18.175 60.9992 18.175C60.6642 18.175 60.3712 18.245 60.1192 18.384C59.8672 18.52 59.6722 18.714 59.5322 18.966C59.3972 19.218 59.3292 19.518 59.3292 19.866H57.5742C57.5742 19.219 57.7212 18.658 58.0162 18.18C58.3112 17.703 58.7172 17.334 59.2342 17.072C59.7552 16.81 60.3512 16.679 61.0242 16.679C61.7072 16.679 62.3072 16.807 62.8242 17.062C63.3412 17.317 63.7422 17.667 64.0272 18.111C64.3152 18.555 64.4592 19.062 64.4592 19.632C64.4592 20.013 64.3862 20.388 64.2412 20.756C64.0952 21.124 63.8382 21.531 63.4702 21.979C63.1052 22.426 62.5932 22.968 61.9342 23.604L60.1792 25.389V25.459H64.6132V27H57.6332ZM70.0922 27.194C69.2732 27.194 68.5712 26.987 67.9842 26.572C67.4012 26.155 66.9522 25.553 66.6372 24.768C66.3252 23.979 66.1702 23.029 66.1702 21.919C66.1732 20.809 66.3302 19.864 66.6422 19.085C66.9572 18.303 67.4062 17.706 67.9892 17.295C68.5762 16.884 69.2772 16.679 70.0922 16.679C70.9072 16.679 71.6082 16.884 72.1952 17.295C72.7822 17.706 73.2312 18.303 73.5422 19.085C73.8572 19.867 74.0152 20.812 74.0152 21.919C74.0152 23.033 73.8572 23.984 73.5422 24.773C73.2312 25.558 72.7822 26.158 72.1952 26.572C71.6122 26.987 70.9112 27.194 70.0922 27.194ZM70.0922 25.638C70.7292 25.638 71.2312 25.325 71.5992 24.698C71.9702 24.068 72.1552 23.142 72.1552 21.919C72.1552 21.11 72.0712 20.431 71.9022 19.881C71.7332 19.33 71.4942 18.916 71.1862 18.638C70.8782 18.356 70.5132 18.215 70.0922 18.215C69.4592 18.215 68.9592 18.53 68.5912 19.16C68.2232 19.786 68.0372 20.706 68.0342 21.919C68.0312 22.731 68.1122 23.414 68.2782 23.967C68.4472 24.521 68.6852 24.938 68.9932 25.22C69.3022 25.499 69.6682 25.638 70.0922 25.638ZM75.6672 27V25.668L79.2012 22.202C79.5392 21.861 79.8212 21.558 80.0472 21.293C80.2722 21.027 80.4412 20.771 80.5542 20.522C80.6662 20.273 80.7232 20.008 80.7232 19.727C80.7232 19.405 80.6502 19.13 80.5042 18.901C80.3582 18.669 80.1582 18.49 79.9022 18.364C79.6472 18.238 79.3572 18.175 79.0322 18.175C78.6982 18.175 78.4042 18.245 78.1522 18.384C77.9002 18.52 77.7052 18.714 77.5662 18.966C77.4302 19.218 77.3622 19.518 77.3622 19.866H75.6072C75.6072 19.219 75.7542 18.658 76.0492 18.18C76.3442 17.703 76.7502 17.334 77.2672 17.072C77.7882 16.81 78.3842 16.679 79.0572 16.679C79.7402 16.679 80.3402 16.807 80.8572 17.062C81.3742 17.317 81.7752 17.667 82.0602 18.111C82.3482 18.555 82.4932 19.062 82.4932 19.632C82.4932 20.013 82.4202 20.388 82.2742 20.756C82.1282 21.124 81.8712 21.531 81.5032 21.979C81.1392 22.426 80.6272 22.968 79.9672 23.604L78.2122 25.389V25.459H82.6472V27H75.6672ZM88.0162 27.139C87.3002 27.139 86.6642 27.017 86.1072 26.771C85.5532 26.526 85.1162 26.185 84.7942 25.747C84.4732 25.31 84.3022 24.804 84.2822 24.231H86.1522C86.1682 24.506 86.2592 24.746 86.4252 24.952C86.5912 25.154 86.8112 25.311 87.0862 25.424C87.3612 25.537 87.6702 25.593 88.0112 25.593C88.3762 25.593 88.6992 25.53 88.9802 25.404C89.2622 25.275 89.4832 25.096 89.6422 24.867C89.8012 24.638 89.8792 24.375 89.8752 24.077C89.8792 23.768 89.7992 23.497 89.6372 23.261C89.4742 23.026 89.2392 22.842 88.9312 22.71C88.6262 22.577 88.2582 22.511 87.8272 22.511H86.9272V21.089H87.8272C88.1822 21.089 88.4922 21.027 88.7572 20.905C89.0252 20.782 89.2362 20.61 89.3882 20.388C89.5412 20.162 89.6152 19.902 89.6122 19.607C89.6152 19.319 89.5512 19.069 89.4182 18.857C89.2892 18.641 89.1052 18.474 88.8662 18.354C88.6312 18.235 88.3542 18.175 88.0362 18.175C87.7242 18.175 87.4362 18.232 87.1712 18.344C86.9062 18.457 86.6922 18.618 86.5292 18.827C86.3672 19.032 86.2812 19.277 86.2712 19.562H84.4962C84.5092 18.992 84.6732 18.492 84.9882 18.061C85.3062 17.627 85.7312 17.289 86.2612 17.047C86.7912 16.802 87.3862 16.679 88.0462 16.679C88.7252 16.679 89.3152 16.807 89.8162 17.062C90.3192 17.314 90.7092 17.653 90.9842 18.081C91.2592 18.509 91.3972 18.981 91.3972 19.498C91.4002 20.071 91.2312 20.552 90.8902 20.94C90.5512 21.327 90.1072 21.581 89.5572 21.7V21.78C90.2732 21.879 90.8222 22.144 91.2032 22.575C91.5872 23.003 91.7782 23.535 91.7752 24.171C91.7752 24.741 91.6122 25.252 91.2872 25.702C90.9662 26.15 90.5222 26.501 89.9552 26.756C89.3912 27.012 88.7452 27.139 88.0162 27.139Z" fill="#667085"/>
<path d="M107 19L113 25L119 19" stroke="black" stroke-width="2" stroke-linecap="round" stroke-linejoin="round"/>
</g>
<defs>
<filter id="filter0_d_2_10999" x="-2" y="-1" width="145" height="48" filterUnits="userSpaceOnUse" color-interpolation-filters="sRGB">
<feFlood flood-opacity="0" result="BackgroundImageFix"/>
<feColorMatrix in="SourceAlpha" type="matrix" values="0 0 0 0 0 0 0 0 0 0 0 0 0 0 0 0 0 0 127 0" result="hardAlpha"/>
<feOffset dy="1"/>
<feGaussianBlur stdDeviation="1"/>
<feColorMatrix type="matrix" values="0 0 0 0 0.0627451 0 0 0 0 0.0941176 0 0 0 0 0.156863 0 0 0 0.05 0"/>
<feBlend mode="normal" in2="BackgroundImageFix" result="effect1_dropShadow_2_10999"/>
<feBlend mode="normal" in="SourceGraphic" in2="effect1_dropShadow_2_10999" result="shape"/>
</filter>
</defs>
</svg>
