<svg width="174" height="56" viewBox="0 0 174 56" fill="none" xmlns="http://www.w3.org/2000/svg">
<g filter="url(#filter0_d_2_11265)">
<path d="M162 0H12C5.37258 0 0 5.37258 0 12V44C0 50.6274 5.37258 56 12 56H162C168.627 56 174 50.6274 174 44V12C174 5.37258 168.627 0 162 0Z" fill="white"/>
<path d="M162 0.5H12C5.64873 0.5 0.5 5.64873 0.5 12V44C0.5 50.3513 5.64873 55.5 12 55.5H162C168.351 55.5 173.5 50.3513 173.5 44V12C173.5 5.64873 168.351 0.5 162 0.5Z" stroke="#EAECF0"/>
<path d="M46.9829 22.364H49.0909V29.966C49.0909 30.799 48.8939 31.532 48.4999 32.165C48.1099 32.797 47.5609 33.292 46.8519 33.648C46.1439 34 45.316 34.176 44.369 34.176C43.419 34.176 42.5889 34 41.8809 33.648C41.1719 33.292 40.6229 32.797 40.2329 32.165C39.8429 31.532 39.6479 30.799 39.6479 29.966V22.364H41.7559V29.79C41.7559 30.275 41.8619 30.706 42.0739 31.085C42.2899 31.464 42.5929 31.761 42.9829 31.977C43.3729 32.189 43.835 32.295 44.369 32.295C44.903 32.295 45.3659 32.189 45.7559 31.977C46.1499 31.761 46.4529 31.464 46.6649 31.085C46.8769 30.706 46.9829 30.275 46.9829 29.79V22.364ZM59.1779 26.08C59.0829 25.773 58.952 25.498 58.7859 25.256C58.6229 25.009 58.4259 24.799 58.1949 24.625C57.9669 24.451 57.7059 24.32 57.4109 24.233C57.115 24.142 56.7929 24.097 56.4449 24.097C55.8199 24.097 55.2629 24.254 54.7739 24.568C54.2859 24.883 53.9009 25.345 53.6209 25.955C53.3439 26.561 53.2059 27.299 53.2059 28.17C53.2059 29.049 53.3439 29.794 53.6209 30.403C53.8969 31.013 54.2819 31.477 54.7739 31.795C55.2669 32.11 55.8389 32.267 56.4899 32.267C57.0809 32.267 57.5919 32.153 58.0239 31.926C58.4599 31.699 58.795 31.377 59.03 30.96C59.265 30.54 59.382 30.047 59.382 29.483L59.8589 29.557H56.7V27.909H61.4219V29.307C61.4219 30.303 61.2099 31.165 60.7859 31.892C60.361 32.619 59.778 33.18 59.0359 33.574C58.2929 33.964 57.4409 34.159 56.4789 34.159C55.4069 34.159 54.465 33.919 53.655 33.438C52.848 32.953 52.2169 32.265 51.7629 31.375C51.3119 30.481 51.0869 29.42 51.0869 28.193C51.0869 27.254 51.2189 26.415 51.4839 25.676C51.7529 24.938 52.1279 24.311 52.6089 23.795C53.0899 23.277 53.6549 22.883 54.3029 22.614C54.9499 22.341 55.655 22.205 56.416 22.205C57.06 22.205 57.6609 22.299 58.2169 22.489C58.7739 22.674 59.268 22.939 59.7 23.284C60.136 23.629 60.4939 24.038 60.7739 24.511C61.0539 24.985 61.238 25.508 61.325 26.08H59.1779ZM63.46 34V22.364H67.8239C68.7179 22.364 69.4679 22.519 70.0739 22.83C70.6839 23.14 71.144 23.576 71.455 24.136C71.769 24.693 71.926 25.343 71.926 26.085C71.926 26.831 71.7669 27.479 71.4489 28.028C71.1339 28.574 70.6699 28.996 70.0569 29.295C69.4429 29.591 68.6889 29.739 67.7949 29.739H64.6879V27.989H67.5109C68.0339 27.989 68.4619 27.917 68.7949 27.773C69.1289 27.625 69.3749 27.411 69.5339 27.131C69.6969 26.847 69.778 26.498 69.778 26.085C69.778 25.672 69.6969 25.32 69.5339 25.028C69.3709 24.733 69.1229 24.509 68.7899 24.358C68.4559 24.203 68.0269 24.125 67.4999 24.125H65.5679V34H63.46ZM69.4719 28.727L72.3519 34H69.9999L67.1699 28.727H69.4719ZM83.827 26.29H81.702C81.641 25.941 81.529 25.633 81.366 25.364C81.204 25.091 81.0009 24.86 80.7589 24.67C80.5159 24.481 80.24 24.339 79.929 24.244C79.622 24.146 79.2909 24.097 78.9349 24.097C78.3019 24.097 77.7409 24.256 77.2529 24.574C76.7639 24.888 76.3819 25.35 76.1049 25.96C75.8289 26.566 75.6899 27.307 75.6899 28.182C75.6899 29.072 75.8289 29.822 76.1049 30.432C76.3849 31.038 76.7679 31.496 77.2529 31.807C77.7409 32.114 78.3 32.267 78.929 32.267C79.277 32.267 79.6029 32.222 79.9059 32.131C80.2129 32.036 80.4879 31.898 80.7299 31.716C80.9759 31.534 81.1829 31.311 81.3489 31.045C81.5199 30.78 81.637 30.477 81.702 30.136L83.827 30.148C83.747 30.701 83.5749 31.22 83.3099 31.705C83.0479 32.189 82.7049 32.617 82.2809 32.989C81.8569 33.356 81.361 33.644 80.793 33.852C80.224 34.057 79.5939 34.159 78.9009 34.159C77.8779 34.159 76.9649 33.922 76.1619 33.449C75.3589 32.975 74.7259 32.292 74.2639 31.398C73.8019 30.504 73.5709 29.432 73.5709 28.182C73.5709 26.928 73.804 25.856 74.27 24.966C74.736 24.072 75.3699 23.388 76.1729 22.915C76.9759 22.441 77.8849 22.205 78.9009 22.205C79.5479 22.205 80.1509 22.295 80.7069 22.477C81.2639 22.659 81.7599 22.926 82.1959 23.278C82.6319 23.627 82.99 24.055 83.27 24.562C83.554 25.066 83.74 25.642 83.827 26.29ZM89.6119 34V32.477L93.6519 28.517C94.0379 28.127 94.3599 27.78 94.6179 27.477C94.8749 27.174 95.069 26.881 95.197 26.597C95.326 26.312 95.3909 26.009 95.3909 25.688C95.3909 25.32 95.3069 25.006 95.1409 24.744C94.9739 24.479 94.7449 24.275 94.4529 24.131C94.1609 23.987 93.8299 23.915 93.4589 23.915C93.0759 23.915 92.7409 23.994 92.4529 24.153C92.1649 24.309 91.942 24.53 91.783 24.818C91.627 25.106 91.5499 25.449 91.5499 25.847H89.5439C89.5439 25.108 89.7129 24.466 90.0499 23.92C90.3869 23.375 90.851 22.953 91.442 22.653C92.036 22.354 92.7179 22.205 93.4869 22.205C94.2679 22.205 94.9529 22.35 95.5439 22.642C96.1349 22.934 96.5929 23.333 96.9189 23.841C97.2489 24.348 97.413 24.928 97.413 25.58C97.413 26.015 97.33 26.443 97.163 26.864C96.997 27.284 96.703 27.75 96.283 28.261C95.866 28.773 95.2809 29.392 94.5269 30.119L92.5209 32.159V32.239H97.5889V34H89.6119ZM104.283 22.364V34H102.175V24.415H102.107L99.3849 26.153V24.222L102.277 22.364H104.283ZM111.538 34.222C110.603 34.222 109.8 33.985 109.129 33.511C108.463 33.034 107.949 32.347 107.589 31.449C107.233 30.547 107.055 29.462 107.055 28.193C107.059 26.924 107.239 25.845 107.595 24.955C107.955 24.061 108.468 23.379 109.135 22.909C109.805 22.439 110.607 22.205 111.538 22.205C112.47 22.205 113.271 22.439 113.942 22.909C114.612 23.379 115.125 24.061 115.482 24.955C115.841 25.848 116.021 26.928 116.021 28.193C116.021 29.466 115.841 30.553 115.482 31.455C115.125 32.352 114.612 33.038 113.942 33.511C113.275 33.985 112.474 34.222 111.538 34.222ZM111.538 32.443C112.266 32.443 112.839 32.085 113.26 31.369C113.684 30.65 113.896 29.591 113.896 28.193C113.896 27.269 113.8 26.492 113.607 25.864C113.413 25.235 113.141 24.761 112.788 24.443C112.436 24.121 112.019 23.96 111.538 23.96C110.815 23.96 110.243 24.32 109.822 25.04C109.402 25.756 109.19 26.807 109.186 28.193C109.182 29.121 109.275 29.902 109.464 30.534C109.658 31.167 109.93 31.644 110.283 31.966C110.635 32.284 111.054 32.443 111.538 32.443Z" fill="#101828"/>
</g>
<defs>
<filter id="filter0_d_2_11265" x="-2" y="-1" width="178" height="60" filterUnits="userSpaceOnUse" color-interpolation-filters="sRGB">
<feFlood flood-opacity="0" result="BackgroundImageFix"/>
<feColorMatrix in="SourceAlpha" type="matrix" values="0 0 0 0 0 0 0 0 0 0 0 0 0 0 0 0 0 0 127 0" result="hardAlpha"/>
<feOffset dy="1"/>
<feGaussianBlur stdDeviation="1"/>
<feColorMatrix type="matrix" values="0 0 0 0 0.0627451 0 0 0 0 0.0941176 0 0 0 0 0.156863 0 0 0 0.05 0"/>
<feBlend mode="normal" in2="BackgroundImageFix" result="effect1_dropShadow_2_11265"/>
<feBlend mode="normal" in="SourceGraphic" in2="effect1_dropShadow_2_11265" result="shape"/>
</filter>
</defs>
</svg>
