<svg width="134" height="48" viewBox="0 0 134 48" fill="none" xmlns="http://www.w3.org/2000/svg">
<g filter="url(#filter0_d_2_10767)">
<path d="M126 0H8C3.58172 0 0 3.58172 0 8V40C0 44.4183 3.58172 48 8 48H126C130.418 48 134 44.4183 134 40V8C134 3.58172 130.418 0 126 0Z" fill="#1751D0"/>
<path d="M126 0.5H8C3.85786 0.5 0.5 3.85786 0.5 8V40C0.5 44.1421 3.85786 47.5 8 47.5H126C130.142 47.5 133.5 44.1421 133.5 40V8C133.5 3.85786 130.142 0.5 126 0.5Z" stroke="#1751D0"/>
<path d="M28.9401 22.08C28.8501 21.77 28.7202 21.5 28.5502 21.26C28.3902 21.01 28.1901 20.8 27.9601 20.62C27.7301 20.45 27.4702 20.32 27.1802 20.23C26.8802 20.14 26.5601 20.1 26.2101 20.1C25.5901 20.1 25.0302 20.2499 24.5402 20.5699C24.0502 20.8799 23.6701 21.34 23.3901 21.95C23.1101 22.56 22.9701 23.3 22.9701 24.17C22.9701 25.05 23.1101 25.79 23.3901 26.4C23.6601 27.01 24.0502 27.48 24.5402 27.8C25.0302 28.11 25.6001 28.27 26.2601 28.27C26.8501 28.27 27.3602 28.1501 27.7902 27.9301C28.2302 27.7001 28.5602 27.38 28.8002 26.96C29.0302 26.54 29.1501 26.05 29.1501 25.48L29.6201 25.5601H26.4701V23.91H31.1901V25.3101C31.1901 26.3001 30.9802 27.16 30.5502 27.89C30.1302 28.62 29.5402 29.1799 28.8002 29.5699C28.0602 29.9599 27.2101 30.16 26.2401 30.16C25.1701 30.16 24.2302 29.9199 23.4202 29.4399C22.6102 28.9499 21.9802 28.27 21.5302 27.38C21.0802 26.48 20.8501 25.4199 20.8501 24.1899C20.8501 23.2499 20.9801 22.4101 21.2501 21.6801C21.5201 20.9401 21.8901 20.31 22.3801 19.8C22.8601 19.28 23.4201 18.88 24.0701 18.61C24.7201 18.34 25.4202 18.2 26.1802 18.2C26.8302 18.2 27.4301 18.3 27.9801 18.49C28.5401 18.67 29.0301 18.94 29.4701 19.28C29.9001 19.63 30.2602 20.04 30.5402 20.51C30.8202 20.98 31.0001 21.51 31.0901 22.08H28.9401ZM37.0001 30.17C36.1201 30.17 35.3701 29.99 34.7301 29.62C34.1001 29.26 33.6101 28.7399 33.2701 28.0699C32.9301 27.3899 32.7601 26.5999 32.7601 25.6899C32.7601 24.7899 32.9301 23.9999 33.2701 23.3199C33.6201 22.6399 34.1001 22.11 34.7101 21.73C35.3301 21.35 36.0601 21.16 36.8901 21.16C37.4301 21.16 37.9402 21.25 38.4102 21.42C38.8902 21.59 39.3201 21.86 39.6901 22.22C40.0601 22.58 40.3502 23.03 40.5602 23.59C40.7702 24.14 40.8801 24.7999 40.8801 25.5699V26.2H33.7301V24.8101H38.9102C38.9002 24.4201 38.8201 24.07 38.6501 23.76C38.4901 23.45 38.2501 23.21 37.9501 23.03C37.6601 22.85 37.3102 22.76 36.9202 22.76C36.5002 22.76 36.1302 22.8599 35.8102 23.0699C35.4902 23.2699 35.2401 23.53 35.0701 23.86C34.8901 24.19 34.8002 24.5499 34.8002 24.9399V26.15C34.8002 26.66 34.8901 27.09 35.0801 27.45C35.2601 27.81 35.5201 28.09 35.8601 28.28C36.1901 28.47 36.5802 28.5699 37.0302 28.5699C37.3302 28.5699 37.6001 28.5299 37.8401 28.4399C38.0801 28.3599 38.2901 28.2301 38.4701 28.0601C38.6501 27.9001 38.7801 27.6899 38.8701 27.4399L40.7902 27.66C40.6702 28.17 40.4401 28.61 40.1001 28.99C39.7601 29.36 39.3302 29.66 38.8102 29.86C38.2802 30.07 37.6801 30.17 37.0001 30.17ZM46.9801 21.27V22.86H41.9601V21.27H46.9801ZM43.2001 19.1801H45.2601V27.38C45.2601 27.65 45.3001 27.86 45.3801 28.01C45.4701 28.16 45.5801 28.2501 45.7201 28.3101C45.8601 28.3601 46.0201 28.39 46.1901 28.39C46.3201 28.39 46.4302 28.38 46.5402 28.36C46.6502 28.34 46.7302 28.3201 46.7902 28.3101L47.1401 29.91C47.0301 29.95 46.8702 29.99 46.6602 30.04C46.4602 30.09 46.2202 30.11 45.9302 30.12C45.4102 30.13 44.9502 30.06 44.5302 29.89C44.1202 29.71 43.7902 29.44 43.5502 29.08C43.3102 28.72 43.2001 28.26 43.2001 27.72V19.1801ZM52.6702 30V21.27H54.7201V30H52.6702ZM53.7001 20.03C53.3701 20.03 53.0901 19.93 52.8601 19.71C52.6201 19.49 52.5101 19.23 52.5101 18.92C52.5101 18.61 52.6201 18.35 52.8601 18.13C53.0901 17.91 53.3701 17.8 53.7001 17.8C54.0301 17.8 54.3102 17.91 54.5402 18.13C54.7802 18.35 54.8901 18.61 54.8901 18.92C54.8901 19.23 54.7802 19.49 54.5402 19.71C54.3102 19.93 54.0301 20.03 53.7001 20.03ZM58.8901 24.89V30H56.8401V21.27H58.8002V22.76H58.9102C59.1102 22.27 59.4301 21.88 59.8701 21.59C60.3101 21.3 60.8601 21.16 61.5101 21.16C62.1101 21.16 62.6401 21.29 63.0801 21.55C63.5301 21.8 63.8801 22.18 64.1301 22.66C64.3801 23.15 64.5001 23.7499 64.5001 24.4399V30H62.4401V24.76C62.4401 24.18 62.2901 23.72 61.9901 23.39C61.6901 23.06 61.2701 22.9 60.7401 22.9C60.3801 22.9 60.0602 22.98 59.7802 23.14C59.5002 23.29 59.2901 23.5201 59.1301 23.8101C58.9701 24.1101 58.8901 24.47 58.8901 24.89ZM74.9102 21.27V22.86H69.9001V21.27H74.9102ZM71.1401 19.1801H73.1901V27.38C73.1901 27.65 73.2301 27.86 73.3201 28.01C73.4101 28.16 73.5202 28.2501 73.6602 28.3101C73.8002 28.3601 73.9501 28.39 74.1201 28.39C74.2501 28.39 74.3701 28.38 74.4801 28.36C74.5901 28.34 74.6701 28.3201 74.7301 28.3101L75.0701 29.91C74.9601 29.95 74.8101 29.99 74.6001 30.04C74.4001 30.09 74.1601 30.11 73.8601 30.12C73.3501 30.13 72.8801 30.06 72.4701 29.89C72.0601 29.71 71.7301 29.44 71.4901 29.08C71.2501 28.72 71.1301 28.26 71.1401 27.72V19.1801ZM80.3501 30.17C79.5001 30.17 78.7601 29.98 78.1301 29.61C77.5101 29.23 77.0202 28.71 76.6802 28.03C76.3402 27.36 76.1702 26.57 76.1702 25.67C76.1702 24.77 76.3402 23.98 76.6802 23.3C77.0202 22.62 77.5101 22.1 78.1301 21.72C78.7601 21.35 79.5001 21.16 80.3501 21.16C81.2001 21.16 81.9402 21.35 82.5602 21.72C83.1902 22.1 83.6701 22.62 84.0101 23.3C84.3601 23.98 84.5302 24.77 84.5302 25.67C84.5302 26.57 84.3601 27.36 84.0101 28.03C83.6701 28.71 83.1902 29.23 82.5602 29.61C81.9402 29.98 81.2001 30.17 80.3501 30.17ZM80.3601 28.52C80.8201 28.52 81.2101 28.4 81.5201 28.14C81.8301 27.88 82.0601 27.54 82.2101 27.11C82.3701 26.68 82.4401 26.2 82.4401 25.66C82.4401 25.13 82.3701 24.65 82.2101 24.22C82.0601 23.78 81.8301 23.4301 81.5201 23.1801C81.2101 22.9201 80.8201 22.79 80.3601 22.79C79.8901 22.79 79.4902 22.9201 79.1802 23.1801C78.8702 23.4301 78.6301 23.78 78.4801 24.22C78.3301 24.65 78.2501 25.13 78.2501 25.66C78.2501 26.2 78.3301 26.68 78.4801 27.11C78.6301 27.54 78.8702 27.88 79.1802 28.14C79.4902 28.4 79.8901 28.52 80.3601 28.52ZM91.8401 26.33V21.27H93.8901V30H91.9001V28.45H91.8102C91.6102 28.94 91.2901 29.34 90.8401 29.65C90.3901 29.96 89.8402 30.11 89.1802 30.11C88.6102 30.11 88.1102 29.99 87.6702 29.73C87.2302 29.48 86.8901 29.1 86.6401 28.61C86.4001 28.12 86.2802 27.53 86.2802 26.83V21.27H88.3301V26.51C88.3301 27.06 88.4802 27.5 88.7902 27.83C89.0902 28.16 89.4901 28.3199 89.9801 28.3199C90.2801 28.3199 90.5801 28.24 90.8601 28.1C91.1401 27.95 91.3802 27.7299 91.5602 27.4399C91.7502 27.1399 91.8401 26.77 91.8401 26.33ZM99.8201 30.17C98.9501 30.17 98.2001 29.98 97.5701 29.6C96.9501 29.21 96.4701 28.69 96.1301 28.01C95.8001 27.33 95.6301 26.55 95.6301 25.67C95.6301 24.78 95.8102 23.9999 96.1501 23.3199C96.4901 22.6399 96.9701 22.11 97.5901 21.73C98.2101 21.35 98.9502 21.16 99.8102 21.16C100.51 21.16 101.14 21.29 101.69 21.55C102.24 21.81 102.67 22.17 103 22.65C103.32 23.12 103.51 23.67 103.56 24.3H101.59C101.51 23.87 101.32 23.52 101.02 23.24C100.73 22.96 100.33 22.8199 99.8301 22.8199C99.4101 22.8199 99.0401 22.93 98.7301 23.16C98.4101 23.38 98.1601 23.7 97.9801 24.12C97.8101 24.55 97.7201 25.05 97.7201 25.64C97.7201 26.23 97.8101 26.74 97.9801 27.17C98.1601 27.59 98.4001 27.92 98.7101 28.15C99.0301 28.38 99.4101 28.49 99.8301 28.49C100.14 28.49 100.41 28.4399 100.65 28.3199C100.89 28.2099 101.09 28.0399 101.25 27.8199C101.42 27.5999 101.53 27.33 101.59 27.02H103.56C103.51 27.63 103.32 28.18 103.01 28.66C102.7 29.13 102.27 29.5 101.73 29.77C101.18 30.04 100.55 30.17 99.8201 30.17ZM107.3 24.89V30H105.24V18.36H107.26V22.76H107.36C107.56 22.26 107.88 21.87 108.31 21.59C108.74 21.3 109.29 21.16 109.95 21.16C110.56 21.16 111.09 21.29 111.54 21.54C111.99 21.79 112.34 22.16 112.59 22.65C112.84 23.14 112.96 23.7399 112.96 24.4399V30H110.9V24.76C110.9 24.17 110.75 23.72 110.45 23.39C110.15 23.06 109.73 22.9 109.19 22.9C108.82 22.9 108.5 22.98 108.21 23.14C107.93 23.29 107.7 23.5201 107.54 23.8101C107.38 24.1101 107.3 24.47 107.3 24.89Z" fill="white"/>
</g>
<defs>
<filter id="filter0_d_2_10767" x="-2" y="-1" width="138" height="52" filterUnits="userSpaceOnUse" color-interpolation-filters="sRGB">
<feFlood flood-opacity="0" result="BackgroundImageFix"/>
<feColorMatrix in="SourceAlpha" type="matrix" values="0 0 0 0 0 0 0 0 0 0 0 0 0 0 0 0 0 0 127 0" result="hardAlpha"/>
<feOffset dy="1"/>
<feGaussianBlur stdDeviation="1"/>
<feColorMatrix type="matrix" values="0 0 0 0 0.0627451 0 0 0 0 0.0941176 0 0 0 0 0.156863 0 0 0 0.05 0"/>
<feBlend mode="normal" in2="BackgroundImageFix" result="effect1_dropShadow_2_10767"/>
<feBlend mode="normal" in="SourceGraphic" in2="effect1_dropShadow_2_10767" result="shape"/>
</filter>
</defs>
</svg>
