<svg width="1440" height="1082" viewBox="0 0 1440 1082" fill="none" xmlns="http://www.w3.org/2000/svg">
<mask id="mask0_2_11573" style="mask-type:luminance" maskUnits="userSpaceOnUse" x="0" y="0" width="1440" height="1082">
<path d="M1440 0H0V1082H1440V0Z" fill="white"/>
</mask>
<g mask="url(#mask0_2_11573)">
<g opacity="0.7">
<path d="M1440 0H0V1082H1440V0Z" fill="#101828"/>
</g>
<g filter="url(#filter0_dd_2_11573)">
<mask id="mask1_2_11573" style="mask-type:luminance" maskUnits="userSpaceOnUse" x="520" y="350" width="400" height="240">
<path d="M908 350H532C525.373 350 520 355.373 520 362V578C520 584.627 525.373 590 532 590H908C914.627 590 920 584.627 920 578V362C920 355.373 914.627 350 908 350Z" fill="white"/>
</mask>
<g mask="url(#mask1_2_11573)">
<path d="M908 350H532C525.373 350 520 355.373 520 362V578C520 584.627 525.373 590 532 590H908C914.627 590 920 584.627 920 578V362C920 355.373 914.627 350 908 350Z" fill="white"/>
<path d="M920 350H520V490H920V350Z" fill="white"/>
<path d="M920 350H520V490H920V350Z" fill="white"/>
<path d="M592 398C592 384.745 581.255 374 568 374C554.745 374 544 384.745 544 398C544 411.255 554.745 422 568 422C581.255 422 592 411.255 592 398Z" fill="#FEE4E2"/>
<path d="M592 398C592 384.745 581.255 374 568 374C554.745 374 544 384.745 544 398C544 411.255 554.745 422 568 422C581.255 422 592 411.255 592 398Z" stroke="#FEF3F2" stroke-width="8"/>
<path d="M572 403L577 398M577 398L572 393M577 398H565M565 389H563.8C562.12 389 561.28 389 560.638 389.327C560.074 389.615 559.615 390.074 559.327 390.638C559 391.28 559 392.12 559 393.8V402.2C559 403.88 559 404.72 559.327 405.362C559.615 405.926 560.074 406.385 560.638 406.673C561.28 407 562.12 407 563.8 407H565" stroke="#D92D20" stroke-width="2" stroke-linecap="round" stroke-linejoin="round"/>
<path d="M545.291 459V445.909H547.663V457.012H553.428V459H545.291ZM559.667 459.192C558.708 459.192 557.877 458.981 557.174 458.559C556.471 458.137 555.925 457.547 555.538 456.788C555.154 456.03 554.962 455.143 554.962 454.129C554.962 453.115 555.154 452.227 555.538 451.464C555.925 450.701 556.471 450.109 557.174 449.687C557.877 449.265 558.708 449.054 559.667 449.054C560.626 449.054 561.457 449.265 562.16 449.687C562.863 450.109 563.406 450.701 563.79 451.464C564.178 452.227 564.371 453.115 564.371 454.129C564.371 455.143 564.178 456.03 563.79 456.788C563.406 457.547 562.863 458.137 562.16 458.559C561.457 458.981 560.626 459.192 559.667 459.192ZM559.68 457.338C560.2 457.338 560.634 457.195 560.984 456.91C561.333 456.62 561.593 456.232 561.763 455.746C561.938 455.261 562.026 454.719 562.026 454.123C562.026 453.522 561.938 452.979 561.763 452.493C561.593 452.003 561.333 451.613 560.984 451.323C560.634 451.033 560.2 450.888 559.68 450.888C559.147 450.888 558.704 451.033 558.35 451.323C558.001 451.613 557.739 452.003 557.564 452.493C557.393 452.979 557.308 453.522 557.308 454.123C557.308 454.719 557.393 455.261 557.564 455.746C557.739 456.232 558.001 456.62 558.35 456.91C558.704 457.195 559.147 457.338 559.68 457.338ZM570.605 462.886C569.774 462.886 569.061 462.773 568.464 462.548C567.867 462.326 567.388 462.028 567.026 461.653C566.664 461.278 566.412 460.862 566.271 460.406L568.355 459.901C568.449 460.093 568.585 460.283 568.764 460.47C568.943 460.662 569.184 460.82 569.487 460.943C569.794 461.071 570.179 461.135 570.644 461.135C571.3 461.135 571.843 460.975 572.274 460.656C572.704 460.34 572.919 459.82 572.919 459.096V457.236H572.804C572.685 457.474 572.51 457.719 572.28 457.971C572.054 458.222 571.754 458.433 571.379 458.604C571.008 458.774 570.541 458.859 569.979 458.859C569.225 458.859 568.541 458.683 567.927 458.329C567.318 457.971 566.832 457.438 566.47 456.731C566.112 456.019 565.933 455.129 565.933 454.059C565.933 452.981 566.112 452.071 566.47 451.33C566.832 450.584 567.32 450.019 567.933 449.636C568.547 449.248 569.231 449.054 569.985 449.054C570.561 449.054 571.034 449.152 571.404 449.348C571.779 449.54 572.078 449.772 572.299 450.045C572.521 450.313 572.689 450.567 572.804 450.805H572.932V449.182H575.214V459.16C575.214 459.999 575.014 460.694 574.613 461.244C574.213 461.793 573.665 462.205 572.97 462.477C572.276 462.75 571.487 462.886 570.605 462.886ZM570.624 457.044C571.115 457.044 571.532 456.925 571.877 456.686C572.222 456.447 572.485 456.104 572.664 455.657C572.843 455.21 572.932 454.673 572.932 454.046C572.932 453.428 572.843 452.887 572.664 452.423C572.489 451.958 572.229 451.598 571.884 451.342C571.543 451.082 571.123 450.952 570.624 450.952C570.109 450.952 569.678 451.087 569.333 451.355C568.988 451.624 568.728 451.992 568.553 452.461C568.379 452.925 568.291 453.454 568.291 454.046C568.291 454.647 568.379 455.173 568.553 455.625C568.732 456.072 568.994 456.422 569.34 456.673C569.689 456.92 570.117 457.044 570.624 457.044ZM593.85 452.455C593.85 453.865 593.586 455.073 593.057 456.079C592.533 457.08 591.817 457.847 590.91 458.38C590.006 458.913 588.981 459.179 587.835 459.179C586.689 459.179 585.662 458.913 584.754 458.38C583.851 457.843 583.135 457.074 582.606 456.072C582.082 455.067 581.82 453.861 581.82 452.455C581.82 451.044 582.082 449.838 582.606 448.837C583.135 447.831 583.851 447.062 584.754 446.529C585.662 445.996 586.689 445.73 587.835 445.73C588.981 445.73 590.006 445.996 590.91 446.529C591.817 447.062 592.533 447.831 593.057 448.837C593.586 449.838 593.85 451.044 593.85 452.455ZM591.466 452.455C591.466 451.462 591.31 450.624 590.999 449.942C590.692 449.256 590.266 448.739 589.721 448.389C589.175 448.036 588.547 447.859 587.835 447.859C587.123 447.859 586.495 448.036 585.949 448.389C585.404 448.739 584.976 449.256 584.665 449.942C584.358 450.624 584.204 451.462 584.204 452.455C584.204 453.447 584.358 454.287 584.665 454.973C584.976 455.655 585.404 456.173 585.949 456.526C586.495 456.876 587.123 457.05 587.835 457.05C588.547 457.05 589.175 456.876 589.721 456.526C590.266 456.173 590.692 455.655 590.999 454.973C591.31 454.287 591.466 453.447 591.466 452.455ZM602.248 454.871V449.182H604.561V459H602.318V457.255H602.216C601.994 457.805 601.63 458.254 601.123 458.604C600.62 458.953 600 459.128 599.262 459.128C598.619 459.128 598.05 458.985 597.556 458.7C597.066 458.41 596.682 457.99 596.405 457.44C596.128 456.886 595.99 456.217 595.99 455.433V449.182H598.304V455.075C598.304 455.697 598.474 456.192 598.815 456.558C599.156 456.925 599.603 457.108 600.157 457.108C600.498 457.108 600.828 457.025 601.148 456.859C601.468 456.692 601.73 456.445 601.934 456.117C602.143 455.785 602.248 455.369 602.248 454.871ZM611.844 449.182V450.972H606.199V449.182H611.844ZM607.593 446.83H609.907V456.047C609.907 456.358 609.954 456.597 610.047 456.763C610.145 456.925 610.273 457.036 610.431 457.095C610.589 457.155 610.763 457.185 610.955 457.185C611.1 457.185 611.232 457.174 611.351 457.153C611.475 457.131 611.569 457.112 611.633 457.095L612.023 458.904C611.899 458.947 611.722 458.994 611.492 459.045C611.266 459.096 610.989 459.126 610.661 459.134C610.081 459.151 609.559 459.064 609.095 458.872C608.631 458.676 608.262 458.374 607.989 457.964C607.721 457.555 607.589 457.044 607.593 456.43V446.83ZM615.99 455.152V454.986C615.995 454.214 616.067 453.601 616.208 453.145C616.353 452.689 616.557 452.322 616.821 452.045C617.086 451.764 617.407 451.506 617.787 451.272C618.047 451.11 618.279 450.933 618.483 450.741C618.692 450.545 618.856 450.328 618.975 450.089C619.095 449.847 619.154 449.576 619.154 449.278C619.154 448.941 619.076 448.649 618.918 448.402C618.76 448.155 618.547 447.963 618.279 447.827C618.015 447.69 617.718 447.622 617.39 447.622C617.088 447.622 616.8 447.688 616.527 447.82C616.259 447.948 616.035 448.144 615.856 448.408C615.681 448.668 615.583 448.999 615.562 449.399H613.287C613.308 448.589 613.504 447.912 613.875 447.366C614.25 446.821 614.744 446.412 615.358 446.139C615.975 445.866 616.657 445.73 617.403 445.73C618.217 445.73 618.933 445.873 619.551 446.158C620.173 446.444 620.657 446.851 621.002 447.379C621.351 447.903 621.526 448.526 621.526 449.246C621.526 449.732 621.447 450.166 621.289 450.55C621.136 450.933 620.917 451.274 620.631 451.572C620.346 451.871 620.007 452.137 619.615 452.371C619.27 452.585 618.986 452.806 618.765 453.036C618.547 453.266 618.385 453.537 618.279 453.848C618.176 454.155 618.123 454.534 618.119 454.986V455.152H615.99ZM617.103 459.141C616.719 459.141 616.389 459.004 616.112 458.732C615.835 458.459 615.696 458.126 615.696 457.734C615.696 457.351 615.835 457.023 616.112 456.75C616.389 456.477 616.719 456.341 617.103 456.341C617.482 456.341 617.81 456.477 618.087 456.75C618.368 457.023 618.509 457.351 618.509 457.734C618.509 457.994 618.443 458.231 618.311 458.444C618.183 458.657 618.012 458.827 617.799 458.955C617.591 459.079 617.358 459.141 617.103 459.141Z" fill="#101828"/>
<path d="M544.358 474.818H545.77L548.594 479.571H548.713L551.537 474.818H552.949L549.27 480.804V485H548.037V480.804L544.358 474.818ZM556.407 485.159C555.717 485.159 555.112 484.995 554.592 484.667C554.075 484.339 553.671 483.88 553.379 483.29C553.091 482.7 552.946 482.01 552.946 481.222C552.946 480.426 553.091 479.732 553.379 479.138C553.671 478.545 554.075 478.085 554.592 477.756C555.112 477.428 555.717 477.264 556.407 477.264C557.096 477.264 557.699 477.428 558.216 477.756C558.737 478.085 559.141 478.545 559.429 479.138C559.721 479.732 559.867 480.426 559.867 481.222C559.867 482.01 559.721 482.7 559.429 483.29C559.141 483.88 558.737 484.339 558.216 484.667C557.699 484.995 557.096 485.159 556.407 485.159ZM556.407 484.105C556.93 484.105 557.361 483.971 557.699 483.702C558.037 483.434 558.288 483.081 558.45 482.643C558.612 482.206 558.694 481.732 558.694 481.222C558.694 480.711 558.612 480.236 558.45 479.795C558.288 479.354 558.037 478.998 557.699 478.726C557.361 478.454 556.93 478.318 556.407 478.318C555.883 478.318 555.452 478.454 555.114 478.726C554.776 478.998 554.526 479.354 554.363 479.795C554.201 480.236 554.12 480.711 554.12 481.222C554.12 481.732 554.201 482.206 554.363 482.643C554.526 483.081 554.776 483.434 555.114 483.702C555.452 483.971 555.883 484.105 556.407 484.105ZM566.47 481.878V477.364H567.644V485H566.47V483.707H566.391C566.212 484.095 565.933 484.425 565.556 484.697C565.178 484.965 564.7 485.099 564.124 485.099C563.646 485.099 563.222 484.995 562.851 484.786C562.48 484.574 562.188 484.256 561.976 483.832C561.764 483.404 561.658 482.866 561.658 482.216V477.364H562.831V482.136C562.831 482.693 562.987 483.137 563.298 483.469C563.613 483.8 564.014 483.966 564.502 483.966C564.793 483.966 565.09 483.891 565.392 483.742C565.696 483.593 565.952 483.364 566.157 483.056C566.366 482.748 566.47 482.355 566.47 481.878ZM575.46 485L573.134 477.364H574.366L576.017 483.21H576.097L577.727 477.364H578.98L580.591 483.19H580.67L582.321 477.364H583.554L581.227 485H580.074L578.403 479.134H578.284L576.614 485H575.46ZM585.105 485V477.364H586.278V485H585.105ZM585.702 476.091C585.473 476.091 585.276 476.013 585.11 475.857C584.948 475.701 584.866 475.514 584.866 475.295C584.866 475.077 584.948 474.889 585.11 474.734C585.276 474.578 585.473 474.5 585.702 474.5C585.93 474.5 586.126 474.578 586.288 474.734C586.454 474.889 586.537 475.077 586.537 475.295C586.537 475.514 586.454 475.701 586.288 475.857C586.126 476.013 585.93 476.091 585.702 476.091ZM589.601 474.818V485H588.427V474.818H589.601ZM592.923 474.818V485H591.75V474.818H592.923ZM599.169 485V474.818H600.342V478.577H600.441C600.527 478.444 600.647 478.275 600.799 478.07C600.955 477.861 601.177 477.675 601.465 477.513C601.757 477.347 602.151 477.264 602.649 477.264C603.292 477.264 603.858 477.425 604.349 477.746C604.839 478.068 605.222 478.524 605.497 479.114C605.772 479.704 605.91 480.4 605.91 481.202C605.91 482.01 605.772 482.711 605.497 483.305C605.222 483.895 604.841 484.352 604.354 484.677C603.867 484.998 603.305 485.159 602.669 485.159C602.178 485.159 601.785 485.078 601.49 484.915C601.195 484.75 600.968 484.562 600.809 484.354C600.65 484.142 600.527 483.966 600.441 483.827H600.302V485H599.169ZM600.322 481.182C600.322 481.759 600.406 482.267 600.575 482.708C600.744 483.146 600.991 483.489 601.316 483.737C601.641 483.982 602.039 484.105 602.509 484.105C603 484.105 603.409 483.976 603.737 483.717C604.069 483.455 604.317 483.104 604.483 482.663C604.652 482.219 604.737 481.725 604.737 481.182C604.737 480.645 604.654 480.161 604.488 479.73C604.326 479.296 604.079 478.953 603.747 478.701C603.419 478.446 603.007 478.318 602.509 478.318C602.032 478.318 601.631 478.439 601.306 478.681C600.981 478.92 600.736 479.254 600.57 479.685C600.405 480.113 600.322 480.612 600.322 481.182ZM610.906 485.159C610.171 485.159 609.536 484.997 609.002 484.672C608.472 484.344 608.063 483.886 607.774 483.3C607.489 482.71 607.347 482.024 607.347 481.241C607.347 480.459 607.489 479.77 607.774 479.173C608.063 478.573 608.464 478.106 608.977 477.771C609.494 477.433 610.098 477.264 610.787 477.264C611.185 477.264 611.578 477.33 611.965 477.463C612.353 477.596 612.706 477.811 613.024 478.109C613.343 478.404 613.596 478.795 613.785 479.283C613.974 479.77 614.068 480.37 614.068 481.082V481.58H608.182V480.565H612.875C612.875 480.134 612.789 479.75 612.617 479.412C612.448 479.074 612.206 478.807 611.891 478.612C611.579 478.416 611.211 478.318 610.787 478.318C610.32 478.318 609.915 478.434 609.574 478.666C609.236 478.895 608.976 479.193 608.794 479.561C608.611 479.929 608.52 480.323 608.52 480.744V481.42C608.52 481.997 608.619 482.486 608.818 482.887C609.021 483.285 609.301 483.588 609.659 483.797C610.017 484.002 610.432 484.105 610.906 484.105C611.215 484.105 611.493 484.062 611.742 483.976C611.994 483.886 612.211 483.754 612.393 483.578C612.575 483.399 612.716 483.177 612.816 482.912L613.949 483.23C613.83 483.615 613.629 483.953 613.347 484.244C613.066 484.533 612.718 484.758 612.303 484.92C611.889 485.08 611.423 485.159 610.906 485.159ZM620.964 474.818V485H619.791V474.818H620.964ZM626.215 485.159C625.526 485.159 624.921 484.995 624.401 484.667C623.884 484.339 623.479 483.88 623.188 483.29C622.899 482.7 622.755 482.01 622.755 481.222C622.755 480.426 622.899 479.732 623.188 479.138C623.479 478.545 623.884 478.085 624.401 477.756C624.921 477.428 625.526 477.264 626.215 477.264C626.905 477.264 627.508 477.428 628.025 477.756C628.545 478.085 628.95 478.545 629.238 479.138C629.53 479.732 629.675 480.426 629.675 481.222C629.675 482.01 629.53 482.7 629.238 483.29C628.95 483.88 628.545 484.339 628.025 484.667C627.508 484.995 626.905 485.159 626.215 485.159ZM626.215 484.105C626.739 484.105 627.17 483.971 627.508 483.702C627.846 483.434 628.096 483.081 628.259 482.643C628.421 482.206 628.502 481.732 628.502 481.222C628.502 480.711 628.421 480.236 628.259 479.795C628.096 479.354 627.846 478.998 627.508 478.726C627.17 478.454 626.739 478.318 626.215 478.318C625.692 478.318 625.261 478.454 624.923 478.726C624.585 478.998 624.334 479.354 624.172 479.795C624.009 480.236 623.928 480.711 623.928 481.222C623.928 481.732 624.009 482.206 624.172 482.643C624.334 483.081 624.585 483.434 624.923 483.702C625.261 483.971 625.692 484.105 626.215 484.105ZM634.549 488.023C633.982 488.023 633.495 487.95 633.087 487.804C632.68 487.661 632.34 487.473 632.068 487.237C631.8 487.005 631.586 486.757 631.427 486.491L632.361 485.835C632.467 485.974 632.602 486.134 632.764 486.312C632.926 486.495 633.148 486.652 633.43 486.785C633.715 486.921 634.088 486.989 634.549 486.989C635.165 486.989 635.674 486.839 636.075 486.541C636.476 486.243 636.677 485.776 636.677 485.139V483.588H636.577C636.491 483.727 636.368 483.9 636.209 484.105C636.054 484.307 635.828 484.488 635.533 484.647C635.242 484.803 634.847 484.881 634.35 484.881C633.733 484.881 633.18 484.735 632.689 484.443C632.202 484.152 631.816 483.727 631.531 483.17C631.249 482.614 631.108 481.937 631.108 481.142C631.108 480.36 631.246 479.679 631.521 479.099C631.796 478.515 632.179 478.065 632.67 477.746C633.16 477.425 633.727 477.264 634.37 477.264C634.867 477.264 635.261 477.347 635.553 477.513C635.848 477.675 636.073 477.861 636.229 478.07C636.388 478.275 636.511 478.444 636.597 478.577H636.716V477.364H637.85V485.219C637.85 485.875 637.701 486.409 637.403 486.82C637.108 487.234 636.71 487.537 636.209 487.729C635.712 487.925 635.159 488.023 634.549 488.023ZM634.509 483.827C634.98 483.827 635.377 483.719 635.702 483.504C636.027 483.288 636.274 482.978 636.443 482.574C636.612 482.17 636.697 481.686 636.697 481.122C636.697 480.572 636.614 480.086 636.448 479.665C636.282 479.245 636.037 478.915 635.712 478.676C635.387 478.437 634.986 478.318 634.509 478.318C634.012 478.318 633.598 478.444 633.266 478.696C632.938 478.948 632.691 479.286 632.525 479.71C632.363 480.134 632.282 480.605 632.282 481.122C632.282 481.652 632.365 482.121 632.53 482.529C632.699 482.933 632.948 483.252 633.276 483.484C633.608 483.712 634.019 483.827 634.509 483.827ZM647.037 485.159C646.348 485.159 645.743 484.995 645.223 484.667C644.706 484.339 644.301 483.88 644.01 483.29C643.721 482.7 643.577 482.01 643.577 481.222C643.577 480.426 643.721 479.732 644.01 479.138C644.301 478.545 644.706 478.085 645.223 477.756C645.743 477.428 646.348 477.264 647.037 477.264C647.727 477.264 648.33 477.428 648.847 477.756C649.367 478.085 649.772 478.545 650.06 479.138C650.352 479.732 650.498 480.426 650.498 481.222C650.498 482.01 650.352 482.7 650.06 483.29C649.772 483.88 649.367 484.339 648.847 484.667C648.33 484.995 647.727 485.159 647.037 485.159ZM647.037 484.105C647.561 484.105 647.992 483.971 648.33 483.702C648.668 483.434 648.918 483.081 649.081 482.643C649.243 482.206 649.324 481.732 649.324 481.222C649.324 480.711 649.243 480.236 649.081 479.795C648.918 479.354 648.668 478.998 648.33 478.726C647.992 478.454 647.561 478.318 647.037 478.318C646.514 478.318 646.083 478.454 645.745 478.726C645.407 478.998 645.157 479.354 644.994 479.795C644.832 480.236 644.751 480.711 644.751 481.222C644.751 481.732 644.832 482.206 644.994 482.643C645.157 483.081 645.407 483.434 645.745 483.702C646.083 483.971 646.514 484.105 647.037 484.105ZM657.101 481.878V477.364H658.275V485H657.101V483.707H657.022C656.843 484.095 656.564 484.425 656.186 484.697C655.809 484.965 655.331 485.099 654.755 485.099C654.277 485.099 653.853 484.995 653.482 484.786C653.111 484.574 652.819 484.256 652.607 483.832C652.395 483.404 652.289 482.866 652.289 482.216V477.364H653.462V482.136C653.462 482.693 653.618 483.137 653.929 483.469C654.244 483.8 654.645 483.966 655.132 483.966C655.424 483.966 655.721 483.891 656.022 483.742C656.327 483.593 656.583 483.364 656.788 483.056C656.997 482.748 657.101 482.355 657.101 481.878ZM663.744 477.364V478.358H659.787V477.364H663.744ZM660.941 475.534H662.114V482.812C662.114 483.144 662.162 483.393 662.258 483.558C662.357 483.721 662.483 483.83 662.636 483.886C662.792 483.939 662.956 483.966 663.128 483.966C663.257 483.966 663.363 483.959 663.446 483.946C663.529 483.929 663.595 483.916 663.645 483.906L663.884 484.96C663.804 484.99 663.693 485.02 663.551 485.05C663.408 485.083 663.227 485.099 663.009 485.099C662.677 485.099 662.352 485.028 662.034 484.886C661.719 484.743 661.458 484.526 661.249 484.234C661.043 483.943 660.941 483.575 660.941 483.131V475.534ZM672.549 485.159C671.86 485.159 671.255 484.995 670.735 484.667C670.218 484.339 669.813 483.88 669.521 483.29C669.233 482.7 669.089 482.01 669.089 481.222C669.089 480.426 669.233 479.732 669.521 479.138C669.813 478.545 670.218 478.085 670.735 477.756C671.255 477.428 671.86 477.264 672.549 477.264C673.239 477.264 673.842 477.428 674.359 477.756C674.879 478.085 675.284 478.545 675.572 479.138C675.864 479.732 676.009 480.426 676.009 481.222C676.009 482.01 675.864 482.7 675.572 483.29C675.284 483.88 674.879 484.339 674.359 484.667C673.842 484.995 673.239 485.159 672.549 485.159ZM672.549 484.105C673.073 484.105 673.504 483.971 673.842 483.702C674.18 483.434 674.43 483.081 674.593 482.643C674.755 482.206 674.836 481.732 674.836 481.222C674.836 480.711 674.755 480.236 674.593 479.795C674.43 479.354 674.18 478.998 673.842 478.726C673.504 478.454 673.073 478.318 672.549 478.318C672.026 478.318 671.595 478.454 671.257 478.726C670.919 478.998 670.668 479.354 670.506 479.795C670.343 480.236 670.262 480.711 670.262 481.222C670.262 481.732 670.343 482.206 670.506 482.643C670.668 483.081 670.919 483.434 671.257 483.702C671.595 483.971 672.026 484.105 672.549 484.105ZM681.201 477.364V478.358H677.085V477.364H681.201ZM678.317 485V476.31C678.317 475.872 678.42 475.508 678.626 475.216C678.831 474.924 679.098 474.705 679.426 474.56C679.754 474.414 680.101 474.341 680.465 474.341C680.754 474.341 680.989 474.364 681.171 474.411C681.353 474.457 681.489 474.5 681.579 474.54L681.241 475.554C681.181 475.534 681.098 475.509 680.992 475.479C680.889 475.45 680.754 475.435 680.585 475.435C680.197 475.435 679.917 475.532 679.744 475.728C679.575 475.924 679.491 476.21 679.491 476.588V485H678.317ZM687.539 487.864C687.34 487.864 687.162 487.847 687.007 487.814C686.851 487.784 686.743 487.754 686.683 487.724L686.982 486.69C687.267 486.763 687.519 486.79 687.737 486.77C687.956 486.75 688.15 486.652 688.319 486.477C688.491 486.304 688.649 486.024 688.791 485.636L689.01 485.04L686.186 477.364H687.459L689.567 483.449H689.646L691.754 477.364H693.027L689.786 486.114C689.64 486.508 689.459 486.835 689.244 487.093C689.028 487.355 688.778 487.549 688.493 487.675C688.211 487.801 687.893 487.864 687.539 487.864ZM697.405 485.159C696.715 485.159 696.11 484.995 695.59 484.667C695.073 484.339 694.669 483.88 694.377 483.29C694.089 482.7 693.944 482.01 693.944 481.222C693.944 480.426 694.089 479.732 694.377 479.138C694.669 478.545 695.073 478.085 695.59 477.756C696.11 477.428 696.715 477.264 697.405 477.264C698.094 477.264 698.697 477.428 699.214 477.756C699.735 478.085 700.139 478.545 700.427 479.138C700.719 479.732 700.865 480.426 700.865 481.222C700.865 482.01 700.719 482.7 700.427 483.29C700.139 483.88 699.735 484.339 699.214 484.667C698.697 484.995 698.094 485.159 697.405 485.159ZM697.405 484.105C697.928 484.105 698.359 483.971 698.697 483.702C699.035 483.434 699.286 483.081 699.448 482.643C699.61 482.206 699.692 481.732 699.692 481.222C699.692 480.711 699.61 480.236 699.448 479.795C699.286 479.354 699.035 478.998 698.697 478.726C698.359 478.454 697.928 478.318 697.405 478.318C696.881 478.318 696.45 478.454 696.112 478.726C695.774 478.998 695.524 479.354 695.361 479.795C695.199 480.236 695.118 480.711 695.118 481.222C695.118 481.732 695.199 482.206 695.361 482.643C695.524 483.081 695.774 483.434 696.112 483.702C696.45 483.971 696.881 484.105 697.405 484.105ZM707.468 481.878V477.364H708.642V485H707.468V483.707H707.389C707.21 484.095 706.931 484.425 706.554 484.697C706.176 484.965 705.699 485.099 705.122 485.099C704.645 485.099 704.22 484.995 703.849 484.786C703.478 484.574 703.186 484.256 702.974 483.832C702.762 483.404 702.656 482.866 702.656 482.216V477.364H703.829V482.136C703.829 482.693 703.985 483.137 704.297 483.469C704.611 483.8 705.012 483.966 705.5 483.966C705.791 483.966 706.088 483.891 706.39 483.742C706.694 483.593 706.95 483.364 707.155 483.056C707.364 482.748 707.468 482.355 707.468 481.878ZM710.791 485V477.364H711.924V478.517H712.004C712.143 478.139 712.395 477.833 712.759 477.597C713.124 477.362 713.535 477.244 713.992 477.244C714.079 477.244 714.186 477.246 714.316 477.249C714.445 477.253 714.543 477.258 714.609 477.264V478.457C714.569 478.447 714.478 478.433 714.335 478.413C714.196 478.389 714.049 478.378 713.893 478.378C713.522 478.378 713.19 478.456 712.899 478.612C712.61 478.764 712.382 478.976 712.213 479.248C712.047 479.516 711.964 479.823 711.964 480.168V485H710.791ZM722.184 485.179C721.7 485.179 721.261 485.088 720.867 484.906C720.472 484.72 720.159 484.453 719.927 484.105C719.695 483.754 719.579 483.33 719.579 482.832C719.579 482.395 719.665 482.04 719.838 481.768C720.01 481.493 720.24 481.278 720.529 481.122C720.817 480.966 721.135 480.85 721.483 480.774C721.835 480.695 722.188 480.632 722.542 480.585C723.006 480.526 723.382 480.481 723.671 480.451C723.962 480.418 724.175 480.363 724.307 480.287C724.443 480.211 724.511 480.078 724.511 479.889V479.849C724.511 479.359 724.377 478.978 724.108 478.706C723.843 478.434 723.44 478.298 722.9 478.298C722.34 478.298 721.901 478.421 721.583 478.666C721.265 478.911 721.041 479.173 720.912 479.452L719.798 479.054C719.997 478.59 720.262 478.229 720.593 477.97C720.928 477.708 721.293 477.526 721.687 477.423C722.085 477.317 722.476 477.264 722.86 477.264C723.106 477.264 723.387 477.294 723.706 477.354C724.027 477.41 724.337 477.528 724.635 477.707C724.937 477.886 725.187 478.156 725.386 478.517C725.585 478.878 725.684 479.362 725.684 479.969V485H724.511V483.966H724.451C724.372 484.132 724.239 484.309 724.054 484.498C723.868 484.687 723.621 484.848 723.313 484.98C723.005 485.113 722.628 485.179 722.184 485.179ZM722.363 484.125C722.827 484.125 723.218 484.034 723.537 483.852C723.858 483.669 724.1 483.434 724.262 483.146C724.428 482.857 724.511 482.554 724.511 482.236V481.162C724.461 481.222 724.352 481.276 724.183 481.326C724.017 481.372 723.825 481.414 723.606 481.45C723.391 481.483 723.18 481.513 722.975 481.54C722.773 481.563 722.609 481.583 722.483 481.599C722.178 481.639 721.893 481.704 721.627 481.793C721.366 481.879 721.154 482.01 720.991 482.186C720.832 482.358 720.752 482.594 720.752 482.892C720.752 483.3 720.903 483.608 721.205 483.817C721.51 484.022 721.896 484.125 722.363 484.125ZM730.928 485.159C730.212 485.159 729.596 484.99 729.079 484.652C728.562 484.314 728.164 483.848 727.885 483.255C727.607 482.662 727.468 481.984 727.468 481.222C727.468 480.446 727.61 479.762 727.895 479.168C728.184 478.572 728.585 478.106 729.099 477.771C729.616 477.433 730.219 477.264 730.908 477.264C731.445 477.264 731.929 477.364 732.36 477.562C732.791 477.761 733.144 478.04 733.419 478.398C733.694 478.756 733.865 479.173 733.931 479.651H732.758C732.668 479.303 732.469 478.994 732.161 478.726C731.856 478.454 731.445 478.318 730.928 478.318C730.471 478.318 730.07 478.437 729.725 478.676C729.384 478.911 729.117 479.245 728.925 479.675C728.736 480.103 728.641 480.605 728.641 481.182C728.641 481.772 728.734 482.286 728.92 482.723C729.108 483.161 729.374 483.5 729.715 483.742C730.06 483.984 730.464 484.105 730.928 484.105C731.233 484.105 731.51 484.052 731.758 483.946C732.007 483.84 732.217 483.688 732.39 483.489C732.562 483.29 732.685 483.051 732.758 482.773H733.931C733.865 483.223 733.701 483.629 733.439 483.991C733.18 484.349 732.837 484.634 732.41 484.846C731.985 485.055 731.492 485.159 730.928 485.159ZM738.748 485.159C738.032 485.159 737.416 484.99 736.899 484.652C736.382 484.314 735.984 483.848 735.706 483.255C735.427 482.662 735.288 481.984 735.288 481.222C735.288 480.446 735.431 479.762 735.716 479.168C736.004 478.572 736.405 478.106 736.919 477.771C737.436 477.433 738.039 477.264 738.729 477.264C739.265 477.264 739.749 477.364 740.18 477.562C740.611 477.761 740.964 478.04 741.239 478.398C741.514 478.756 741.685 479.173 741.751 479.651H740.578C740.488 479.303 740.29 478.994 739.981 478.726C739.676 478.454 739.265 478.318 738.748 478.318C738.291 478.318 737.89 478.437 737.545 478.676C737.204 478.911 736.937 479.245 736.745 479.675C736.556 480.103 736.461 480.605 736.461 481.182C736.461 481.772 736.554 482.286 736.74 482.723C736.929 483.161 737.194 483.5 737.535 483.742C737.88 483.984 738.284 484.105 738.748 484.105C739.053 484.105 739.33 484.052 739.579 483.946C739.827 483.84 740.038 483.688 740.21 483.489C740.382 483.29 740.505 483.051 740.578 482.773H741.751C741.685 483.223 741.521 483.629 741.259 483.991C741.001 484.349 740.657 484.634 740.23 484.846C739.806 485.055 739.312 485.159 738.748 485.159ZM746.569 485.159C745.879 485.159 745.274 484.995 744.754 484.667C744.237 484.339 743.833 483.88 743.541 483.29C743.253 482.7 743.108 482.01 743.108 481.222C743.108 480.426 743.253 479.732 743.541 479.138C743.833 478.545 744.237 478.085 744.754 477.756C745.274 477.428 745.879 477.264 746.569 477.264C747.258 477.264 747.861 477.428 748.378 477.756C748.899 478.085 749.303 478.545 749.591 479.138C749.883 479.732 750.029 480.426 750.029 481.222C750.029 482.01 749.883 482.7 749.591 483.29C749.303 483.88 748.899 484.339 748.378 484.667C747.861 484.995 747.258 485.159 746.569 485.159ZM746.569 484.105C747.092 484.105 747.523 483.971 747.861 483.702C748.199 483.434 748.45 483.081 748.612 482.643C748.774 482.206 748.856 481.732 748.856 481.222C748.856 480.711 748.774 480.236 748.612 479.795C748.45 479.354 748.199 478.998 747.861 478.726C747.523 478.454 747.092 478.318 746.569 478.318C746.045 478.318 745.614 478.454 745.276 478.726C744.938 478.998 744.688 479.354 744.525 479.795C744.363 480.236 744.282 480.711 744.282 481.222C744.282 481.732 744.363 482.206 744.525 482.643C744.688 483.081 744.938 483.434 745.276 483.702C745.614 483.971 746.045 484.105 746.569 484.105ZM756.632 481.878V477.364H757.806V485H756.632V483.707H756.553C756.374 484.095 756.096 484.425 755.718 484.697C755.34 484.965 754.863 485.099 754.286 485.099C753.809 485.099 753.384 484.995 753.013 484.786C752.642 484.574 752.35 484.256 752.138 483.832C751.926 483.404 751.82 482.866 751.82 482.216V477.364H752.993V482.136C752.993 482.693 753.149 483.137 753.461 483.469C753.775 483.8 754.176 483.966 754.664 483.966C754.955 483.966 755.252 483.891 755.554 483.742C755.859 483.593 756.114 483.364 756.319 483.056C756.528 482.748 756.632 482.355 756.632 481.878ZM761.128 480.406V485H759.955V477.364H761.088V478.557H761.188C761.367 478.169 761.638 477.857 762.003 477.622C762.368 477.384 762.838 477.264 763.415 477.264C763.932 477.264 764.384 477.37 764.772 477.582C765.16 477.791 765.462 478.109 765.677 478.537C765.892 478.961 766 479.498 766 480.148V485H764.827V480.227C764.827 479.627 764.671 479.16 764.36 478.825C764.048 478.487 763.62 478.318 763.077 478.318C762.702 478.318 762.368 478.399 762.073 478.562C761.781 478.724 761.551 478.961 761.382 479.273C761.213 479.584 761.128 479.962 761.128 480.406ZM771.465 477.364V478.358H767.508V477.364H771.465ZM768.661 475.534H769.835V482.812C769.835 483.144 769.883 483.393 769.979 483.558C770.078 483.721 770.204 483.83 770.357 483.886C770.512 483.939 770.676 483.966 770.849 483.966C770.978 483.966 771.084 483.959 771.167 483.946C771.25 483.929 771.316 483.916 771.366 483.906L771.604 484.96C771.525 484.99 771.414 485.02 771.271 485.05C771.129 485.083 770.948 485.099 770.729 485.099C770.398 485.099 770.073 485.028 769.755 484.886C769.44 484.743 769.178 484.526 768.969 484.234C768.764 483.943 768.661 483.575 768.661 483.131V475.534ZM774.085 485.08C773.84 485.08 773.629 484.992 773.454 484.816C773.278 484.64 773.19 484.43 773.19 484.185C773.19 483.939 773.278 483.729 773.454 483.553C773.629 483.378 773.84 483.29 774.085 483.29C774.33 483.29 774.541 483.378 774.717 483.553C774.892 483.729 774.98 483.939 774.98 484.185C774.98 484.347 774.939 484.496 774.856 484.632C774.776 484.768 774.669 484.877 774.533 484.96C774.4 485.04 774.251 485.08 774.085 485.08Z" fill="#475467"/>
<path d="M888 382L876 394M876 382L888 394" stroke="#667085" stroke-width="2" stroke-linecap="round" stroke-linejoin="round"/>
<g filter="url(#filter1_d_2_11573)">
<path d="M706 522H552C547.582 522 544 525.582 544 530V558C544 562.418 547.582 566 552 566H706C710.418 566 714 562.418 714 558V530C714 525.582 710.418 522 706 522Z" fill="white"/>
<path d="M706 522.5H552C547.858 522.5 544.5 525.858 544.5 530V558C544.5 562.142 547.858 565.5 552 565.5H706C710.142 565.5 713.5 562.142 713.5 558V530C713.5 525.858 710.142 522.5 706 522.5Z" stroke="#D0D5DD"/>
<path d="M613.108 542.29H610.983C610.922 541.941 610.811 541.633 610.648 541.364C610.485 541.091 610.282 540.86 610.04 540.67C609.797 540.481 609.521 540.339 609.21 540.244C608.903 540.146 608.572 540.097 608.216 540.097C607.583 540.097 607.023 540.256 606.534 540.574C606.045 540.888 605.663 541.35 605.386 541.96C605.11 542.566 604.972 543.307 604.972 544.182C604.972 545.072 605.11 545.822 605.386 546.432C605.667 547.038 606.049 547.496 606.534 547.807C607.023 548.114 607.581 548.267 608.21 548.267C608.559 548.267 608.884 548.222 609.188 548.131C609.494 548.036 609.769 547.898 610.011 547.716C610.258 547.534 610.464 547.311 610.631 547.045C610.801 546.78 610.919 546.477 610.983 546.136L613.108 546.148C613.028 546.701 612.856 547.22 612.591 547.705C612.33 548.189 611.987 548.617 611.562 548.989C611.138 549.356 610.642 549.644 610.074 549.852C609.506 550.057 608.875 550.159 608.182 550.159C607.159 550.159 606.246 549.922 605.443 549.449C604.64 548.975 604.008 548.292 603.545 547.398C603.083 546.504 602.852 545.432 602.852 544.182C602.852 542.928 603.085 541.856 603.551 540.966C604.017 540.072 604.652 539.388 605.455 538.915C606.258 538.441 607.167 538.205 608.182 538.205C608.83 538.205 609.432 538.295 609.989 538.477C610.545 538.659 611.042 538.926 611.477 539.278C611.913 539.627 612.271 540.055 612.551 540.562C612.835 541.066 613.021 541.642 613.108 542.29ZM617.459 550.176C616.906 550.176 616.408 550.078 615.964 549.881C615.525 549.68 615.177 549.384 614.919 548.994C614.665 548.604 614.538 548.123 614.538 547.551C614.538 547.059 614.629 546.652 614.811 546.33C614.993 546.008 615.241 545.75 615.555 545.557C615.87 545.364 616.224 545.218 616.618 545.119C617.016 545.017 617.427 544.943 617.851 544.898C618.362 544.845 618.777 544.797 619.095 544.756C619.413 544.71 619.644 544.642 619.788 544.551C619.936 544.456 620.01 544.311 620.01 544.114V544.08C620.01 543.652 619.883 543.32 619.629 543.085C619.375 542.85 619.01 542.733 618.533 542.733C618.029 542.733 617.629 542.843 617.334 543.062C617.042 543.282 616.845 543.542 616.743 543.841L614.822 543.568C614.974 543.038 615.224 542.595 615.572 542.239C615.921 541.879 616.347 541.61 616.851 541.432C617.355 541.25 617.911 541.159 618.521 541.159C618.942 541.159 619.36 541.208 619.777 541.307C620.194 541.405 620.574 541.568 620.919 541.795C621.264 542.019 621.54 542.324 621.749 542.71C621.961 543.097 622.067 543.58 622.067 544.159V550H620.089V548.801H620.021C619.896 549.044 619.72 549.271 619.493 549.483C619.269 549.691 618.987 549.86 618.646 549.989C618.309 550.114 617.913 550.176 617.459 550.176ZM617.993 548.665C618.406 548.665 618.764 548.583 619.067 548.42C619.37 548.254 619.603 548.034 619.766 547.761C619.932 547.489 620.016 547.191 620.016 546.869V545.841C619.951 545.894 619.841 545.943 619.686 545.989C619.535 546.034 619.364 546.074 619.175 546.108C618.985 546.142 618.798 546.172 618.612 546.199C618.427 546.225 618.266 546.248 618.129 546.267C617.822 546.309 617.548 546.377 617.305 546.472C617.063 546.566 616.872 546.699 616.732 546.869C616.591 547.036 616.521 547.252 616.521 547.517C616.521 547.896 616.66 548.182 616.936 548.375C617.213 548.568 617.565 548.665 617.993 548.665ZM626.192 544.886V550H624.135V541.273H626.101V542.756H626.203C626.404 542.267 626.724 541.879 627.163 541.591C627.607 541.303 628.154 541.159 628.805 541.159C629.408 541.159 629.932 541.288 630.379 541.545C630.83 541.803 631.179 542.176 631.425 542.665C631.675 543.153 631.798 543.746 631.794 544.443V550H629.737V544.761C629.737 544.178 629.586 543.722 629.283 543.392C628.983 543.062 628.569 542.898 628.038 542.898C627.679 542.898 627.358 542.977 627.078 543.136C626.802 543.292 626.584 543.517 626.425 543.812C626.269 544.108 626.192 544.466 626.192 544.886ZM637.692 550.17C636.821 550.17 636.072 549.979 635.447 549.597C634.826 549.214 634.347 548.686 634.01 548.011C633.677 547.333 633.51 546.553 633.51 545.67C633.51 544.784 633.68 544.002 634.021 543.324C634.362 542.642 634.843 542.112 635.464 541.733C636.089 541.35 636.828 541.159 637.68 541.159C638.389 541.159 639.016 541.29 639.561 541.551C640.11 541.809 640.548 542.174 640.874 542.648C641.199 543.117 641.385 543.667 641.43 544.295H639.464C639.385 543.875 639.196 543.525 638.896 543.244C638.601 542.96 638.205 542.818 637.709 542.818C637.288 542.818 636.919 542.932 636.601 543.159C636.283 543.383 636.035 543.705 635.857 544.125C635.682 544.545 635.595 545.049 635.595 545.636C635.595 546.231 635.682 546.742 635.857 547.17C636.031 547.595 636.275 547.922 636.589 548.153C636.908 548.381 637.281 548.494 637.709 548.494C638.012 548.494 638.283 548.437 638.521 548.324C638.764 548.206 638.966 548.038 639.129 547.818C639.292 547.598 639.404 547.331 639.464 547.017H641.43C641.381 547.634 641.199 548.182 640.885 548.659C640.571 549.133 640.143 549.504 639.601 549.773C639.059 550.038 638.423 550.17 637.692 550.17ZM646.983 550.17C646.108 550.17 645.352 549.989 644.716 549.625C644.083 549.258 643.597 548.739 643.256 548.068C642.915 547.394 642.744 546.6 642.744 545.688C642.744 544.79 642.915 544.002 643.256 543.324C643.6 542.642 644.081 542.112 644.699 541.733C645.316 541.35 646.042 541.159 646.875 541.159C647.413 541.159 647.92 541.246 648.398 541.42C648.879 541.591 649.303 541.856 649.67 542.216C650.042 542.576 650.333 543.034 650.545 543.591C650.758 544.144 650.864 544.803 650.864 545.568V546.199H643.71V544.812H648.892C648.888 544.419 648.803 544.068 648.636 543.761C648.47 543.451 648.237 543.206 647.938 543.028C647.642 542.85 647.297 542.761 646.903 542.761C646.483 542.761 646.114 542.864 645.795 543.068C645.477 543.269 645.229 543.534 645.051 543.864C644.877 544.189 644.788 544.547 644.784 544.938V546.148C644.784 546.655 644.877 547.091 645.062 547.455C645.248 547.814 645.508 548.091 645.841 548.284C646.174 548.473 646.564 548.568 647.011 548.568C647.311 548.568 647.581 548.527 647.824 548.443C648.066 548.356 648.277 548.229 648.455 548.062C648.633 547.896 648.767 547.689 648.858 547.443L650.778 547.659C650.657 548.167 650.426 548.61 650.085 548.989C649.748 549.364 649.316 549.655 648.79 549.864C648.263 550.068 647.661 550.17 646.983 550.17ZM654.661 538.364V550H652.604V538.364H654.661Z" fill="#344054"/>
</g>
<g filter="url(#filter2_d_2_11573)">
<path d="M888 522H734C729.582 522 726 525.582 726 530V558C726 562.418 729.582 566 734 566H888C892.418 566 896 562.418 896 558V530C896 525.582 892.418 522 888 522Z" fill="#D92D20"/>
<path d="M888 522.5H734C729.858 522.5 726.5 525.858 726.5 530V558C726.5 562.142 729.858 565.5 734 565.5H888C892.142 565.5 895.5 562.142 895.5 558V530C895.5 525.858 892.142 522.5 888 522.5Z" stroke="#D92D20"/>
<path d="M781.648 550V538.364H783.756V548.233H788.881V550H781.648ZM794.426 550.17C793.574 550.17 792.835 549.983 792.21 549.608C791.585 549.233 791.1 548.708 790.756 548.034C790.415 547.36 790.244 546.572 790.244 545.67C790.244 544.769 790.415 543.979 790.756 543.301C791.1 542.623 791.585 542.097 792.21 541.722C792.835 541.347 793.574 541.159 794.426 541.159C795.278 541.159 796.017 541.347 796.642 541.722C797.267 542.097 797.75 542.623 798.091 543.301C798.436 543.979 798.608 544.769 798.608 545.67C798.608 546.572 798.436 547.36 798.091 548.034C797.75 548.708 797.267 549.233 796.642 549.608C796.017 549.983 795.278 550.17 794.426 550.17ZM794.438 548.523C794.9 548.523 795.286 548.396 795.597 548.142C795.907 547.884 796.138 547.54 796.29 547.108C796.445 546.676 796.523 546.195 796.523 545.665C796.523 545.131 796.445 544.648 796.29 544.216C796.138 543.78 795.907 543.434 795.597 543.176C795.286 542.919 794.9 542.79 794.438 542.79C793.964 542.79 793.57 542.919 793.256 543.176C792.945 543.434 792.712 543.78 792.557 544.216C792.405 544.648 792.33 545.131 792.33 545.665C792.33 546.195 792.405 546.676 792.557 547.108C792.712 547.54 792.945 547.884 793.256 548.142C793.57 548.396 793.964 548.523 794.438 548.523ZM804.149 553.455C803.411 553.455 802.776 553.354 802.246 553.153C801.715 552.956 801.289 552.691 800.967 552.358C800.645 552.025 800.422 551.655 800.297 551.25L802.149 550.801C802.232 550.972 802.354 551.14 802.513 551.307C802.672 551.477 802.886 551.617 803.155 551.727C803.428 551.841 803.77 551.898 804.183 551.898C804.767 551.898 805.25 551.756 805.632 551.472C806.015 551.191 806.206 550.729 806.206 550.085V548.432H806.104C805.998 548.644 805.842 548.862 805.638 549.085C805.437 549.309 805.17 549.496 804.837 549.648C804.507 549.799 804.092 549.875 803.592 549.875C802.922 549.875 802.314 549.718 801.768 549.403C801.227 549.085 800.795 548.612 800.473 547.983C800.155 547.35 799.996 546.559 799.996 545.608C799.996 544.65 800.155 543.841 800.473 543.182C800.795 542.519 801.229 542.017 801.774 541.676C802.32 541.331 802.928 541.159 803.598 541.159C804.109 541.159 804.53 541.246 804.859 541.42C805.193 541.591 805.458 541.797 805.655 542.04C805.852 542.278 806.001 542.504 806.104 542.716H806.217V541.273H808.246V550.142C808.246 550.888 808.068 551.506 807.712 551.994C807.356 552.483 806.869 552.848 806.251 553.091C805.634 553.333 804.933 553.455 804.149 553.455ZM804.166 548.261C804.602 548.261 804.973 548.155 805.28 547.943C805.587 547.731 805.82 547.426 805.979 547.028C806.138 546.631 806.217 546.153 806.217 545.597C806.217 545.047 806.138 544.566 805.979 544.153C805.823 543.741 805.592 543.42 805.286 543.193C804.982 542.962 804.609 542.847 804.166 542.847C803.708 542.847 803.325 542.966 803.018 543.205C802.712 543.443 802.481 543.771 802.325 544.188C802.17 544.6 802.092 545.07 802.092 545.597C802.092 546.131 802.17 546.598 802.325 547C802.484 547.398 802.717 547.708 803.024 547.932C803.335 548.152 803.715 548.261 804.166 548.261ZM824.811 544.182C824.811 545.436 824.576 546.509 824.107 547.403C823.641 548.294 823.004 548.975 822.197 549.449C821.394 549.922 820.483 550.159 819.464 550.159C818.446 550.159 817.533 549.922 816.726 549.449C815.923 548.972 815.286 548.288 814.817 547.398C814.351 546.504 814.118 545.432 814.118 544.182C814.118 542.928 814.351 541.856 814.817 540.966C815.286 540.072 815.923 539.388 816.726 538.915C817.533 538.441 818.446 538.205 819.464 538.205C820.483 538.205 821.394 538.441 822.197 538.915C823.004 539.388 823.641 540.072 824.107 540.966C824.576 541.856 824.811 542.928 824.811 544.182ZM822.692 544.182C822.692 543.299 822.554 542.555 822.277 541.949C822.004 541.339 821.625 540.879 821.141 540.568C820.656 540.254 820.097 540.097 819.464 540.097C818.832 540.097 818.273 540.254 817.788 540.568C817.304 540.879 816.923 541.339 816.646 541.949C816.374 542.555 816.237 543.299 816.237 544.182C816.237 545.064 816.374 545.811 816.646 546.42C816.923 547.027 817.304 547.487 817.788 547.801C818.273 548.112 818.832 548.267 819.464 548.267C820.097 548.267 820.656 548.112 821.141 547.801C821.625 547.487 822.004 547.027 822.277 546.42C822.554 545.811 822.692 545.064 822.692 544.182ZM832.276 546.33V541.273H834.332V550H832.338V548.449H832.247C832.05 548.937 831.726 549.337 831.276 549.648C830.829 549.958 830.277 550.114 829.622 550.114C829.05 550.114 828.545 549.987 828.105 549.733C827.67 549.475 827.329 549.102 827.082 548.614C826.836 548.121 826.713 547.527 826.713 546.83V541.273H828.77V546.511C828.77 547.064 828.921 547.504 829.224 547.83C829.527 548.155 829.925 548.318 830.418 548.318C830.721 548.318 831.014 548.244 831.298 548.097C831.582 547.949 831.815 547.729 831.997 547.438C832.183 547.142 832.276 546.773 832.276 546.33ZM840.805 541.273V542.864H835.788V541.273H840.805ZM837.027 539.182H839.084V547.375C839.084 547.652 839.125 547.864 839.209 548.011C839.296 548.155 839.41 548.254 839.55 548.307C839.69 548.36 839.845 548.386 840.016 548.386C840.144 548.386 840.262 548.377 840.368 548.358C840.478 548.339 840.561 548.322 840.618 548.307L840.964 549.915C840.855 549.953 840.697 549.994 840.493 550.04C840.292 550.085 840.046 550.112 839.754 550.119C839.239 550.134 838.775 550.057 838.362 549.886C837.949 549.712 837.622 549.443 837.379 549.08C837.141 548.716 837.023 548.261 837.027 547.716V539.182Z" fill="white"/>
</g>
</g>
</g>
</g>
<defs>
<filter id="filter0_dd_2_11573" x="496" y="346" width="448" height="288" filterUnits="userSpaceOnUse" color-interpolation-filters="sRGB">
<feFlood flood-opacity="0" result="BackgroundImageFix"/>
<feColorMatrix in="SourceAlpha" type="matrix" values="0 0 0 0 0 0 0 0 0 0 0 0 0 0 0 0 0 0 127 0" result="hardAlpha"/>
<feOffset dy="8"/>
<feGaussianBlur stdDeviation="4"/>
<feColorMatrix type="matrix" values="0 0 0 0 0.0627451 0 0 0 0 0.0941176 0 0 0 0 0.156863 0 0 0 0.03 0"/>
<feBlend mode="normal" in2="BackgroundImageFix" result="effect1_dropShadow_2_11573"/>
<feColorMatrix in="SourceAlpha" type="matrix" values="0 0 0 0 0 0 0 0 0 0 0 0 0 0 0 0 0 0 127 0" result="hardAlpha"/>
<feOffset dy="20"/>
<feGaussianBlur stdDeviation="12"/>
<feColorMatrix type="matrix" values="0 0 0 0 0.0627451 0 0 0 0 0.0941176 0 0 0 0 0.156863 0 0 0 0.08 0"/>
<feBlend mode="normal" in2="effect1_dropShadow_2_11573" result="effect2_dropShadow_2_11573"/>
<feBlend mode="normal" in="SourceGraphic" in2="effect2_dropShadow_2_11573" result="shape"/>
</filter>
<filter id="filter1_d_2_11573" x="542" y="521" width="174" height="48" filterUnits="userSpaceOnUse" color-interpolation-filters="sRGB">
<feFlood flood-opacity="0" result="BackgroundImageFix"/>
<feColorMatrix in="SourceAlpha" type="matrix" values="0 0 0 0 0 0 0 0 0 0 0 0 0 0 0 0 0 0 127 0" result="hardAlpha"/>
<feOffset dy="1"/>
<feGaussianBlur stdDeviation="1"/>
<feColorMatrix type="matrix" values="0 0 0 0 0.0627451 0 0 0 0 0.0941176 0 0 0 0 0.156863 0 0 0 0.05 0"/>
<feBlend mode="normal" in2="BackgroundImageFix" result="effect1_dropShadow_2_11573"/>
<feBlend mode="normal" in="SourceGraphic" in2="effect1_dropShadow_2_11573" result="shape"/>
</filter>
<filter id="filter2_d_2_11573" x="724" y="521" width="174" height="48" filterUnits="userSpaceOnUse" color-interpolation-filters="sRGB">
<feFlood flood-opacity="0" result="BackgroundImageFix"/>
<feColorMatrix in="SourceAlpha" type="matrix" values="0 0 0 0 0 0 0 0 0 0 0 0 0 0 0 0 0 0 127 0" result="hardAlpha"/>
<feOffset dy="1"/>
<feGaussianBlur stdDeviation="1"/>
<feColorMatrix type="matrix" values="0 0 0 0 0.0627451 0 0 0 0 0.0941176 0 0 0 0 0.156863 0 0 0 0.05 0"/>
<feBlend mode="normal" in2="BackgroundImageFix" result="effect1_dropShadow_2_11573"/>
<feBlend mode="normal" in="SourceGraphic" in2="effect1_dropShadow_2_11573" result="shape"/>
</filter>
</defs>
</svg>
