<svg width="174" height="56" viewBox="0 0 174 56" fill="none" xmlns="http://www.w3.org/2000/svg">
<g filter="url(#filter0_d_2_11257)">
<path d="M162 0H12C5.37258 0 0 5.37258 0 12V44C0 50.6274 5.37258 56 12 56H162C168.627 56 174 50.6274 174 44V12C174 5.37258 168.627 0 162 0Z" fill="white"/>
<path d="M162 0.5H12C5.64873 0.5 0.5 5.64873 0.5 12V44C0.5 50.3513 5.64873 55.5 12 55.5H162C168.351 55.5 173.5 50.3513 173.5 44V12C173.5 5.64873 168.351 0.5 162 0.5Z" stroke="#EAECF0"/>
<path d="M43.5898 34H39.6499V22.364H43.6699C44.8299 22.364 45.8199 22.597 46.6499 23.062C47.4799 23.525 48.1198 24.189 48.5698 25.057C49.0198 25.924 49.2399 26.962 49.2399 28.17C49.2399 29.383 49.0099 30.424 48.5599 31.295C48.1199 32.167 47.4699 32.835 46.6199 33.301C45.7799 33.767 44.7698 34 43.5898 34ZM41.7599 32.176H43.4899C44.2999 32.176 44.9799 32.028 45.5199 31.733C46.0599 31.434 46.4699 30.989 46.7399 30.398C47.0099 29.803 47.1499 29.061 47.1499 28.17C47.1499 27.28 47.0099 26.542 46.7399 25.955C46.4699 25.364 46.0599 24.922 45.5299 24.631C44.9999 24.335 44.3399 24.188 43.5499 24.188H41.7599V32.176ZM61.1998 26.29H59.0798C59.0198 25.941 58.8999 25.633 58.7399 25.364C58.5799 25.091 58.3799 24.86 58.1299 24.67C57.8899 24.481 57.6099 24.339 57.2999 24.244C56.9999 24.146 56.6699 24.097 56.3099 24.097C55.6799 24.097 55.1199 24.256 54.6299 24.574C54.1399 24.888 53.7599 25.35 53.4799 25.96C53.1999 26.566 53.0698 27.307 53.0698 28.182C53.0698 29.072 53.1999 29.822 53.4799 30.432C53.7599 31.038 54.1399 31.496 54.6299 31.807C55.1199 32.114 55.6799 32.267 56.2999 32.267C56.6499 32.267 56.9799 32.222 57.2799 32.131C57.5899 32.036 57.8599 31.898 58.1099 31.716C58.3499 31.534 58.5598 31.311 58.7198 31.045C58.8898 30.78 59.0098 30.477 59.0798 30.136L61.1998 30.148C61.1198 30.701 60.9499 31.22 60.6799 31.705C60.4199 32.189 60.0799 32.617 59.6599 32.989C59.2299 33.356 58.7399 33.644 58.1699 33.852C57.5999 34.057 56.9699 34.159 56.2799 34.159C55.2499 34.159 54.3399 33.922 53.5399 33.449C52.7299 32.975 52.0999 32.292 51.6399 31.398C51.1799 30.504 50.9498 29.432 50.9498 28.182C50.9498 26.928 51.1799 25.856 51.6399 24.966C52.1099 24.072 52.7499 23.388 53.5499 22.915C54.3499 22.441 55.2599 22.205 56.2799 22.205C56.9199 22.205 57.5298 22.295 58.0798 22.477C58.6398 22.659 59.1398 22.926 59.5698 23.278C60.0098 23.627 60.3599 24.055 60.6399 24.562C60.9299 25.066 61.1098 25.642 61.1998 26.29ZM65.2399 22.364V34H63.1299V22.364H65.2399ZM67.0099 24.131V22.364H76.2999V24.131H72.6998V34H70.6099V24.131H67.0099ZM81.9398 34V32.477L85.9799 28.517C86.3699 28.127 86.6898 27.78 86.9498 27.477C87.1998 27.174 87.3999 26.881 87.5299 26.597C87.6499 26.312 87.7198 26.009 87.7198 25.688C87.7198 25.32 87.6398 25.006 87.4698 24.744C87.2999 24.479 87.0699 24.275 86.7799 24.131C86.4899 23.987 86.1599 23.915 85.7899 23.915C85.3999 23.915 85.0699 23.994 84.7799 24.153C84.4899 24.309 84.2699 24.53 84.1099 24.818C83.9599 25.106 83.8799 25.449 83.8799 25.847H81.8699C81.8699 25.108 82.0399 24.466 82.3799 23.92C82.7099 23.375 83.1799 22.953 83.7699 22.653C84.3599 22.354 85.0498 22.205 85.8198 22.205C86.5998 22.205 87.2799 22.35 87.8699 22.642C88.4599 22.934 88.9199 23.333 89.2499 23.841C89.5799 24.348 89.7399 24.928 89.7399 25.58C89.7399 26.015 89.6599 26.443 89.4899 26.864C89.3199 27.284 89.0299 27.75 88.6099 28.261C88.1899 28.773 87.6099 29.392 86.8599 30.119L84.8499 32.159V32.239H89.9199V34H81.9398ZM96.1799 34.222C95.2399 34.222 94.4399 33.985 93.7699 33.511C93.0999 33.034 92.5899 32.347 92.2299 31.449C91.8699 30.547 91.6998 29.462 91.6998 28.193C91.6998 26.924 91.8799 25.845 92.2399 24.955C92.5999 24.061 93.1099 23.379 93.7799 22.909C94.4499 22.439 95.2499 22.205 96.1799 22.205C97.1099 22.205 97.9098 22.439 98.5798 22.909C99.2498 23.379 99.7699 24.061 100.12 24.955C100.48 25.848 100.66 26.928 100.66 28.193C100.66 29.466 100.48 30.553 100.12 31.455C99.7699 32.352 99.2498 33.038 98.5798 33.511C97.9198 33.985 97.1099 34.222 96.1799 34.222ZM96.1799 32.443C96.9099 32.443 97.4799 32.085 97.8999 31.369C98.3199 30.65 98.5399 29.591 98.5399 28.193C98.5399 27.269 98.4399 26.492 98.2499 25.864C98.0499 25.235 97.7799 24.761 97.4299 24.443C97.0799 24.121 96.6599 23.96 96.1799 23.96C95.4599 23.96 94.8798 24.32 94.4598 25.04C94.0398 25.756 93.8298 26.807 93.8298 28.193C93.8198 29.121 93.9199 29.902 94.1099 30.534C94.2999 31.167 94.5699 31.644 94.9199 31.966C95.2799 32.284 95.6899 32.443 96.1799 32.443ZM106.69 34.159C105.84 34.159 105.09 34.017 104.44 33.733C103.78 33.449 103.27 33.061 102.9 32.568C102.53 32.072 102.35 31.509 102.36 30.881C102.35 30.392 102.46 29.943 102.67 29.534C102.89 29.125 103.18 28.784 103.55 28.511C103.92 28.235 104.33 28.059 104.79 27.983V27.903C104.19 27.771 103.71 27.466 103.33 26.989C102.97 26.508 102.78 25.953 102.79 25.324C102.78 24.725 102.95 24.191 103.29 23.722C103.63 23.252 104.09 22.883 104.67 22.614C105.26 22.341 105.93 22.205 106.69 22.205C107.43 22.205 108.1 22.341 108.68 22.614C109.27 22.883 109.73 23.252 110.07 23.722C110.41 24.191 110.58 24.725 110.58 25.324C110.58 25.953 110.39 26.508 110.02 26.989C109.64 27.466 109.17 27.771 108.58 27.903V27.983C109.03 28.059 109.44 28.235 109.81 28.511C110.17 28.784 110.46 29.125 110.68 29.534C110.9 29.943 111.01 30.392 111.01 30.881C111.01 31.509 110.82 32.072 110.45 32.568C110.08 33.061 109.57 33.449 108.92 33.733C108.27 34.017 107.53 34.159 106.69 34.159ZM106.69 32.534C107.12 32.534 107.5 32.46 107.82 32.312C108.14 32.161 108.39 31.949 108.57 31.676C108.75 31.403 108.84 31.089 108.85 30.733C108.84 30.362 108.74 30.034 108.56 29.75C108.37 29.462 108.11 29.237 107.79 29.074C107.47 28.911 107.1 28.83 106.69 28.83C106.27 28.83 105.9 28.911 105.57 29.074C105.25 29.237 104.99 29.462 104.8 29.75C104.61 30.034 104.52 30.362 104.53 30.733C104.52 31.089 104.61 31.403 104.79 31.676C104.97 31.945 105.22 32.155 105.54 32.307C105.86 32.458 106.25 32.534 106.69 32.534ZM106.69 27.233C107.04 27.233 107.36 27.161 107.63 27.017C107.91 26.873 108.12 26.672 108.28 26.415C108.44 26.157 108.52 25.86 108.53 25.523C108.52 25.189 108.44 24.898 108.29 24.648C108.13 24.394 107.92 24.199 107.64 24.062C107.36 23.922 107.05 23.852 106.69 23.852C106.32 23.852 105.99 23.922 105.71 24.062C105.44 24.199 105.22 24.394 105.07 24.648C104.92 24.898 104.84 25.189 104.85 25.523C104.84 25.86 104.92 26.157 105.07 26.415C105.23 26.669 105.45 26.869 105.73 27.017C106.01 27.161 106.33 27.233 106.69 27.233Z" fill="#101828"/>
</g>
<defs>
<filter id="filter0_d_2_11257" x="-2" y="-1" width="178" height="60" filterUnits="userSpaceOnUse" color-interpolation-filters="sRGB">
<feFlood flood-opacity="0" result="BackgroundImageFix"/>
<feColorMatrix in="SourceAlpha" type="matrix" values="0 0 0 0 0 0 0 0 0 0 0 0 0 0 0 0 0 0 127 0" result="hardAlpha"/>
<feOffset dy="1"/>
<feGaussianBlur stdDeviation="1"/>
<feColorMatrix type="matrix" values="0 0 0 0 0.0627451 0 0 0 0 0.0941176 0 0 0 0 0.156863 0 0 0 0.05 0"/>
<feBlend mode="normal" in2="BackgroundImageFix" result="effect1_dropShadow_2_11257"/>
<feBlend mode="normal" in="SourceGraphic" in2="effect1_dropShadow_2_11257" result="shape"/>
</filter>
</defs>
</svg>
