<svg width="85" height="29" viewBox="0 0 85 29" fill="none" xmlns="http://www.w3.org/2000/svg">
<path d="M0 26.7336V0.360613H16.8953V4.36562H4.7776V11.5255H15.7369V15.5304H4.7776V26.7336H0ZM20.6163 26.7336H15.5163L24.8016 0.360613H30.6993L39.9966 26.7336H34.8967L27.8527 5.76977H27.6472L20.6163 26.7336ZM20.7835 16.3927H34.6912V20.2305H20.7835V16.3927ZM51.3306 17.8744H55.658L58.2205 21.1965L60.0488 23.3601L64.4395 29H59.804L56.8164 25.2136L55.5421 23.4115L51.3306 17.8744ZM65.0711 13.5471C65.0711 16.3887 64.5382 18.8223 63.4745 20.8489C62.4179 22.8666 60.9755 24.4118 59.1472 25.4845C57.327 26.5573 55.2631 27.0942 52.9534 27.0942C50.6437 27.0942 48.5747 26.5573 46.7464 25.4845C44.9263 24.4027 43.4838 22.8535 42.4201 20.8358C41.3635 18.8102 40.8357 16.3806 40.8357 13.5471C40.8357 10.7055 41.3635 8.27593 42.4201 6.25832C43.4838 4.23266 44.9263 2.68345 46.7464 1.60968C48.5747 0.53691 50.6437 0 52.9534 0C55.2631 0 57.327 0.53691 59.1472 1.60968C60.9755 2.68345 62.4179 4.23266 63.4745 6.25832C64.5382 8.27593 65.0711 10.7055 65.0711 13.5471ZM60.2673 13.5471C60.2673 11.5466 59.9541 9.86041 59.3275 8.48646C58.7091 7.10446 57.8508 6.0609 56.7519 5.35681C55.6529 4.64465 54.3868 4.28806 52.9534 4.28806C51.52 4.28806 50.2539 4.64465 49.1549 5.35681C48.0559 6.0609 47.1927 7.10446 46.5661 8.48646C45.9477 9.86041 45.6394 11.5466 45.6394 13.5471C45.6394 15.5476 45.9477 17.2388 46.5661 18.6208C47.1927 19.9948 48.0559 21.0373 49.1549 21.7505C50.2539 22.4536 51.52 22.8061 52.9534 22.8061C54.3868 22.8061 55.6529 22.4536 56.7519 21.7505C57.8508 21.0373 58.7091 19.9948 59.3275 18.6208C59.9541 17.2388 60.2673 15.5476 60.2673 13.5471ZM84.3245 12.1822L80.0758 12.6456C79.9549 12.2165 79.7443 11.8136 79.4442 11.4348C79.1521 11.0581 78.7572 10.7529 78.2596 10.5212C77.762 10.2895 77.1526 10.1737 76.4314 10.1737C75.4613 10.1737 74.6454 10.3832 73.9847 10.8042C73.3319 11.2253 73.0096 11.7702 73.0186 12.4401C73.0096 13.0152 73.2201 13.4826 73.6492 13.8432C74.0874 14.2038 74.8086 14.5 75.8129 14.7317L79.1863 15.4529C81.0579 15.8568 82.4489 16.4964 83.3595 17.3718C84.2772 18.2471 84.7415 19.3934 84.7496 20.8097C84.7415 22.0547 84.3759 23.1536 83.6557 24.1065C82.9425 25.0514 81.9513 25.7887 80.6801 26.3216C79.4099 26.8534 77.9504 27.1204 76.3024 27.1204C73.8809 27.1204 71.9328 26.6137 70.4561 25.6004C68.9794 24.579 68.099 23.1577 67.816 21.3375L72.3619 20.9003C72.5674 21.7928 73.0056 22.4667 73.6754 22.922C74.3453 23.3773 75.2166 23.6039 76.2893 23.6039C77.3964 23.6039 78.2858 23.3773 78.9546 22.922C79.6335 22.4667 79.972 21.9046 79.972 21.2347C79.972 20.6686 79.7534 20.2003 79.3152 19.8316C78.8861 19.4619 78.2163 19.1788 77.3067 18.9814L73.9333 18.2733C72.0355 17.8785 70.6324 17.2126 69.7218 16.2768C68.8122 15.333 68.3609 14.1394 68.37 12.6969C68.3609 11.4781 68.6913 10.4225 69.3612 9.52901C70.0391 8.62849 70.9799 7.93244 72.1816 7.44289C73.3924 6.94529 74.7875 6.69649 76.3669 6.69649C78.6847 6.69649 80.5089 7.19007 81.8395 8.17721C83.1792 9.16436 84.0072 10.5 84.3245 12.1822Z" fill="#101828"/>
</svg>
