<svg width="174" height="56" viewBox="0 0 174 56" fill="none" xmlns="http://www.w3.org/2000/svg">
<g filter="url(#filter0_d_2_11249)">
<path d="M162 0H12C5.37258 0 0 5.37258 0 12V44C0 50.6274 5.37258 56 12 56H162C168.627 56 174 50.6274 174 44V12C174 5.37258 168.627 0 162 0Z" fill="white"/>
<path d="M162 0.5H12C5.64873 0.5 0.5 5.64873 0.5 12V44C0.5 50.3513 5.64873 55.5 12 55.5H162C168.351 55.5 173.5 50.3513 173.5 44V12C173.5 5.64873 168.351 0.5 162 0.5Z" stroke="#EAECF0"/>
<path d="M43.5909 34H39.6479V22.364H43.6699C44.8259 22.364 45.8179 22.597 46.6479 23.062C47.4809 23.525 48.1209 24.189 48.5679 25.057C49.0149 25.924 49.239 26.962 49.239 28.17C49.239 29.383 49.013 30.424 48.562 31.295C48.116 32.167 47.4699 32.835 46.6249 33.301C45.7839 33.767 44.7729 34 43.5909 34ZM41.7559 32.176H43.489C44.299 32.176 44.975 32.028 45.517 31.733C46.059 31.434 46.466 30.989 46.739 30.398C47.011 29.803 47.1479 29.061 47.1479 28.17C47.1479 27.28 47.011 26.542 46.739 25.955C46.466 25.364 46.063 24.922 45.528 24.631C44.998 24.335 44.339 24.188 43.551 24.188H41.7559V32.176ZM61.202 26.29H59.077C59.016 25.941 58.904 25.633 58.741 25.364C58.579 25.091 58.3759 24.86 58.1339 24.67C57.8909 24.481 57.615 24.339 57.304 24.244C56.997 24.146 56.6659 24.097 56.3099 24.097C55.6769 24.097 55.1159 24.256 54.6279 24.574C54.1389 24.888 53.7569 25.35 53.4799 25.96C53.2039 26.566 53.0649 27.307 53.0649 28.182C53.0649 29.072 53.2039 29.822 53.4799 30.432C53.7599 31.038 54.1429 31.496 54.6279 31.807C55.1159 32.114 55.675 32.267 56.304 32.267C56.652 32.267 56.9779 32.222 57.2809 32.131C57.5879 32.036 57.8629 31.898 58.1049 31.716C58.3509 31.534 58.5579 31.311 58.7239 31.045C58.8949 30.78 59.012 30.477 59.077 30.136L61.202 30.148C61.122 30.701 60.9499 31.22 60.6849 31.705C60.4229 32.189 60.0799 32.617 59.6559 32.989C59.2319 33.356 58.736 33.644 58.168 33.852C57.599 34.057 56.9689 34.159 56.2759 34.159C55.2529 34.159 54.3399 33.922 53.5369 33.449C52.7339 32.975 52.1009 32.292 51.6389 31.398C51.1769 30.504 50.9459 29.432 50.9459 28.182C50.9459 26.928 51.179 25.856 51.645 24.966C52.111 24.072 52.7449 23.388 53.5479 22.915C54.3509 22.441 55.2599 22.205 56.2759 22.205C56.9229 22.205 57.5259 22.295 58.0819 22.477C58.6389 22.659 59.1349 22.926 59.5709 23.278C60.0069 23.627 60.365 24.055 60.645 24.562C60.929 25.066 61.115 25.642 61.202 26.29ZM65.2399 22.364V34H63.132V22.364H65.2399ZM67.0109 24.131V22.364H76.2949V24.131H72.6989V34H70.6079V24.131H67.0109ZM81.9399 34V32.477L85.9799 28.517C86.3659 28.127 86.6879 27.78 86.9459 27.477C87.2039 27.174 87.3969 26.881 87.5259 26.597C87.6539 26.312 87.7189 26.009 87.7189 25.688C87.7189 25.32 87.6349 25.006 87.4689 24.744C87.3019 24.479 87.0729 24.275 86.7809 24.131C86.4899 23.987 86.1579 23.915 85.7869 23.915C85.4039 23.915 85.0689 23.994 84.7809 24.153C84.4929 24.309 84.27 24.53 84.111 24.818C83.955 25.106 83.8779 25.449 83.8779 25.847H81.8719C81.8719 25.108 82.0409 24.466 82.3779 23.92C82.7149 23.375 83.179 22.953 83.77 22.653C84.365 22.354 85.0459 22.205 85.8149 22.205C86.5959 22.205 87.2809 22.35 87.8719 22.642C88.4629 22.934 88.9209 23.333 89.2469 23.841C89.577 24.348 89.741 24.928 89.741 25.58C89.741 26.015 89.658 26.443 89.491 26.864C89.325 27.284 89.031 27.75 88.611 28.261C88.194 28.773 87.6089 29.392 86.8549 30.119L84.8489 32.159V32.239H89.918V34H81.9399ZM96.179 34.222C95.243 34.222 94.44 33.985 93.77 33.511C93.103 33.034 92.5899 32.347 92.2299 31.449C91.8739 30.547 91.6959 29.462 91.6959 28.193C91.6999 26.924 91.88 25.845 92.236 24.955C92.596 24.061 93.1089 23.379 93.7759 22.909C94.4459 22.439 95.247 22.205 96.179 22.205C97.111 22.205 97.9119 22.439 98.5819 22.909C99.2529 23.379 99.7659 24.061 100.122 24.955C100.482 25.848 100.662 26.928 100.662 28.193C100.662 29.466 100.482 30.553 100.122 31.455C99.7659 32.352 99.2529 33.038 98.5819 33.511C97.9159 33.985 97.115 34.222 96.179 34.222ZM96.179 32.443C96.906 32.443 97.4799 32.085 97.9009 31.369C98.3249 30.65 98.5369 29.591 98.5369 28.193C98.5369 27.269 98.4399 26.492 98.2469 25.864C98.0539 25.235 97.781 24.761 97.429 24.443C97.077 24.121 96.66 23.96 96.179 23.96C95.455 23.96 94.884 24.32 94.463 25.04C94.043 25.756 93.83 26.807 93.827 28.193C93.823 29.121 93.9159 29.902 94.1049 30.534C94.2979 31.167 94.5709 31.644 94.9229 31.966C95.2759 32.284 95.694 32.443 96.179 32.443ZM106.595 34.159C105.838 34.159 105.16 34.017 104.561 33.733C103.963 33.445 103.487 33.051 103.135 32.551C102.786 32.051 102.601 31.479 102.578 30.835H104.624C104.661 31.312 104.868 31.703 105.243 32.006C105.618 32.305 106.069 32.455 106.595 32.455C107.008 32.455 107.375 32.36 107.697 32.17C108.019 31.981 108.273 31.718 108.459 31.381C108.644 31.044 108.735 30.659 108.732 30.227C108.735 29.788 108.643 29.398 108.453 29.057C108.264 28.716 108.004 28.449 107.675 28.256C107.345 28.059 106.966 27.96 106.538 27.96C106.19 27.956 105.847 28.021 105.51 28.153C105.173 28.286 104.906 28.46 104.709 28.676L102.805 28.364L103.413 22.364H110.163V24.125H105.158L104.822 27.21H104.891C105.107 26.956 105.411 26.746 105.805 26.58C106.199 26.409 106.631 26.324 107.101 26.324C107.805 26.324 108.434 26.491 108.987 26.824C109.54 27.153 109.976 27.608 110.294 28.188C110.612 28.767 110.771 29.43 110.771 30.176C110.771 30.945 110.593 31.631 110.237 32.233C109.885 32.831 109.394 33.303 108.766 33.648C108.141 33.989 107.417 34.159 106.595 34.159Z" fill="#101828"/>
</g>
<defs>
<filter id="filter0_d_2_11249" x="-2" y="-1" width="178" height="60" filterUnits="userSpaceOnUse" color-interpolation-filters="sRGB">
<feFlood flood-opacity="0" result="BackgroundImageFix"/>
<feColorMatrix in="SourceAlpha" type="matrix" values="0 0 0 0 0 0 0 0 0 0 0 0 0 0 0 0 0 0 127 0" result="hardAlpha"/>
<feOffset dy="1"/>
<feGaussianBlur stdDeviation="1"/>
<feColorMatrix type="matrix" values="0 0 0 0 0.0627451 0 0 0 0 0.0941176 0 0 0 0 0.156863 0 0 0 0.05 0"/>
<feBlend mode="normal" in2="BackgroundImageFix" result="effect1_dropShadow_2_11249"/>
<feBlend mode="normal" in="SourceGraphic" in2="effect1_dropShadow_2_11249" result="shape"/>
</filter>
</defs>
</svg>
