<svg width="139" height="11" viewBox="0 0 139 11" fill="none" xmlns="http://www.w3.org/2000/svg">
<path d="M5.9052 2.93959C5.85818 2.50536 5.66307 2.16717 5.31788 1.92504C4.97669 1.68291 4.53145 1.56185 3.98516 1.56185C3.59995 1.56185 3.26978 1.61988 2.99463 1.73594C2.71948 1.852 2.50936 2.00909 2.36328 2.2082C2.2172 2.4073 2.14216 2.63443 2.13916 2.88956C2.13916 3.10268 2.1872 3.28678 2.28325 3.44186C2.3833 3.59795 2.51739 3.73102 2.68648 3.84007C2.85557 3.94613 3.04266 4.03618 3.24877 4.10922C3.45388 4.18126 3.66099 4.24329 3.87011 4.29232L4.82564 4.53144C5.20985 4.62149 5.58002 4.74256 5.93421 4.89465C6.2924 5.04673 6.6126 5.23983 6.89475 5.47195C7.17991 5.70408 7.40502 5.98424 7.57111 6.31242C7.7372 6.6406 7.82024 7.02581 7.82024 7.46604C7.82024 8.06337 7.66715 8.58864 7.36198 9.04289C7.05682 9.49413 6.61659 9.84733 6.03928 10.1025C5.46497 10.3546 4.77058 10.4807 3.95514 10.4807C3.16271 10.4807 2.47435 10.3576 1.89104 10.1125C1.31072 9.86733 0.855471 9.50915 0.527293 9.03789C0.203118 8.56764 0.0270146 7.99333 0 7.31696H1.81598C1.843 7.67215 1.95206 7.96731 2.14417 8.20244C2.33627 8.43756 2.58741 8.61367 2.89558 8.72973C3.20675 8.84579 3.55494 8.90382 3.94015 8.90382C4.34137 8.90382 4.69254 8.84379 4.99471 8.72472C5.29987 8.60266 5.538 8.43256 5.7111 8.21744C5.88319 7.99832 5.97124 7.74319 5.97424 7.45104C5.97124 7.18589 5.89319 6.96777 5.74111 6.79468C5.58803 6.61958 5.37392 6.47351 5.09877 6.35744C4.82662 6.23738 4.50847 6.13132 4.14427 6.03827L2.98462 5.7401C2.14616 5.52499 1.48283 5.19781 0.995564 4.76057C0.511302 4.31933 0.269158 3.73403 0.269158 3.00463C0.269158 2.40431 0.431245 1.87902 0.756421 1.42777C1.0846 0.97653 1.53085 0.626345 2.09415 0.378211C2.65846 0.126074 3.2968 0 4.00919 0C4.73258 0 5.36592 0.126074 5.91021 0.378211C6.45651 0.626345 6.88673 0.973519 7.19789 1.41776C7.51006 1.859 7.67118 2.36628 7.68018 2.93959H5.9052ZM13.2011 2.68645V4.0792H8.80878V2.68645H13.2011ZM9.89335 0.855459H11.6933V8.02835C11.6933 8.27048 11.7304 8.45657 11.8034 8.58564C11.8795 8.71171 11.9785 8.79776 12.1015 8.84379C12.2246 8.89081 12.3607 8.91382 12.5098 8.91382C12.6218 8.91382 12.7249 8.90582 12.8179 8.88881C12.914 8.8728 12.987 8.8578 13.0371 8.84379L13.3402 10.2515C13.2442 10.2856 13.1061 10.3216 12.927 10.3616C12.7519 10.4016 12.5358 10.4246 12.2807 10.4306C11.8294 10.4447 11.4232 10.3766 11.062 10.2275C10.7008 10.0745 10.4136 9.83933 10.2015 9.52116C9.99242 9.20198 9.88935 8.80477 9.89335 8.32651V0.855459ZM19.5766 7.11284V2.68645H21.3776V10.3266H19.6316V8.96886H19.5516C19.3795 9.39609 19.0953 9.74627 18.7011 10.0184C18.3099 10.2906 17.8277 10.4256 17.2534 10.4256C16.7531 10.4256 16.3098 10.3146 15.9256 10.0925C15.5444 9.86734 15.2453 9.54016 15.0301 9.11293C14.815 8.6817 14.707 8.16141 14.707 7.55108V2.68645H16.508V7.27194C16.508 7.7562 16.64 8.1414 16.9052 8.42656C17.1703 8.71171 17.5185 8.85379 17.9497 8.85379C18.2159 8.85379 18.472 8.78976 18.7211 8.66069C18.9703 8.53062 19.1734 8.33851 19.3325 8.08337C19.4956 7.82423 19.5766 7.50105 19.5766 7.11284ZM26.0641 10.4607C25.4638 10.4607 24.9265 10.3066 24.4523 9.99841C23.979 9.69024 23.6038 9.242 23.3286 8.65568C23.0535 8.06837 22.9154 7.35498 22.9154 6.51653C22.9154 5.66707 23.0545 4.95068 23.3336 4.36737C23.6158 3.78005 23.995 3.3378 24.4723 3.03964C24.9505 2.73748 25.4828 2.58641 26.0691 2.58641C26.5174 2.58641 26.8856 2.66244 27.1737 2.81552C27.4619 2.9646 27.691 3.1457 27.8601 3.35782C28.0292 3.56693 28.1602 3.76404 28.2533 3.94914H28.3273V0.139068H30.1333V10.3266H28.3624V9.12293H28.2533C28.1602 9.30803 28.0262 9.50614 27.8501 9.71425C27.674 9.92037 27.4419 10.0965 27.1537 10.2415C26.8655 10.3876 26.5024 10.4607 26.0641 10.4607ZM26.5664 8.98386C26.9486 8.98386 27.2728 8.8808 27.5419 8.67469C27.8101 8.46658 28.0142 8.17643 28.1532 7.80422C28.2933 7.43302 28.3624 7.00079 28.3624 6.50653C28.3624 6.01226 28.2933 5.58302 28.1532 5.21782C28.0172 4.85362 27.8151 4.56948 27.5469 4.36737C27.2818 4.16526 26.9546 4.0642 26.5664 4.0642C26.1652 4.0642 25.831 4.16825 25.5618 4.37737C25.2937 4.58648 25.0906 4.87464 24.9555 5.24284C24.8194 5.61104 24.7514 6.03227 24.7514 6.50653C24.7514 6.98378 24.8194 7.41001 24.9555 7.78522C25.0946 8.15642 25.2987 8.44957 25.5668 8.66469C25.839 8.87781 26.1722 8.98386 26.5664 8.98386ZM35.4342 10.4757C34.6688 10.4757 34.0074 10.3166 33.4501 9.99841C32.8958 9.67623 32.4696 9.22199 32.1714 8.63567C31.8733 8.04535 31.7242 7.34998 31.7242 6.55155C31.7242 5.76512 31.8733 5.07575 32.1714 4.48143C32.4736 3.88511 32.8948 3.42086 33.4351 3.08868C33.9754 2.7545 34.6107 2.58641 35.3401 2.58641C35.8114 2.58641 36.2556 2.66244 36.6729 2.81552C37.0941 2.9646 37.4663 3.19672 37.7875 3.51189C38.1126 3.82706 38.3678 4.22828 38.5539 4.71555C38.739 5.19981 38.832 5.77712 38.832 6.44648V6.99878H32.5696V5.78513H37.1061C37.1031 5.43994 37.028 5.13378 36.882 4.86463C36.7359 4.59248 36.5328 4.37936 36.2706 4.22328C36.0115 4.06719 35.7103 3.98916 35.3651 3.98916C34.9969 3.98916 34.6738 4.0792 34.3946 4.2583C34.1165 4.4334 33.8993 4.66552 33.7433 4.95468C33.5912 5.23983 33.5132 5.55301 33.5092 5.8942V6.95376C33.5092 7.398 33.5912 7.7802 33.7533 8.09838C33.9154 8.41355 34.1435 8.65567 34.4346 8.82477C34.7268 8.98986 35.068 9.0729 35.4592 9.0729C35.7213 9.0729 35.9585 9.03689 36.1706 8.96385C36.3827 8.88781 36.5668 8.77674 36.7229 8.63066C36.879 8.48458 36.997 8.30349 37.0761 8.08838L38.758 8.27747C38.6509 8.72171 38.4488 9.10993 38.1506 9.44111C37.8555 9.76929 37.4773 10.0244 37.016 10.2075C36.5558 10.3866 36.0285 10.4757 35.4342 10.4757ZM42.1558 5.85016V10.3266H40.3558V2.68645H42.0768V3.98415H42.1658C42.3419 3.55692 42.6221 3.21674 43.0063 2.9646C43.3945 2.71246 43.8737 2.58641 44.4441 2.58641C44.9713 2.58641 45.4306 2.69946 45.8218 2.92459C46.217 3.15071 46.5222 3.47688 46.7373 3.90511C46.9564 4.33234 47.0645 4.85162 47.0605 5.46195V10.3266H45.2605V5.7401C45.2605 5.22983 45.1274 4.82961 44.8623 4.54146C44.6001 4.2533 44.237 4.10922 43.7727 4.10922C43.4575 4.10922 43.1774 4.17826 42.9323 4.31734C42.6901 4.45341 42.499 4.65051 42.3599 4.90965C42.2238 5.16779 42.1558 5.48197 42.1558 5.85016ZM52.7065 2.68645V4.0792H48.3142V2.68645H52.7065ZM49.3987 0.855459H51.1997V8.02835C51.1997 8.27048 51.2357 8.45657 51.3088 8.58564C51.3848 8.71171 51.4849 8.79776 51.6069 8.84379C51.73 8.89081 51.8661 8.91382 52.0151 8.91382C52.1282 8.91382 52.2303 8.90582 52.3233 8.88881C52.4194 8.8728 52.4924 8.8578 52.5424 8.84379L52.8456 10.2515C52.7496 10.2856 52.6125 10.3216 52.4334 10.3616C52.2573 10.4016 52.0422 10.4246 51.786 10.4306C51.3358 10.4447 50.9296 10.3766 50.5674 10.2275C50.2062 10.0745 49.919 9.83933 49.7069 9.52116C49.4978 9.20198 49.3957 8.80477 49.3987 8.32651V0.855459ZM59.6123 0.139068V10.3266H57.7663V0.139068H59.6123ZM65.0632 10.3266H61.6104V0.139068H65.1323C66.1438 0.139068 67.0123 0.343177 67.7387 0.751398C68.4681 1.15562 69.0294 1.73794 69.4206 2.49735C69.8118 3.25676 70.0069 4.16525 70.0069 5.22283C70.0069 6.2844 69.8098 7.19589 69.4156 7.95931C69.0244 8.72172 68.458 9.30703 67.7186 9.71425C66.9832 10.1225 66.0978 10.3266 65.0632 10.3266ZM63.4564 8.72973H64.9732C65.6826 8.72973 66.2749 8.60066 66.7491 8.34152C67.2234 8.07938 67.5796 7.69017 67.8187 7.17289C68.0568 6.65261 68.1769 6.00225 68.1769 5.22283C68.1769 4.44341 68.0568 3.79706 67.8187 3.28278C67.5796 2.7655 67.2264 2.37929 66.7591 2.12415C66.2949 1.86501 65.7176 1.73594 65.0282 1.73594H63.4564V8.72973ZM72.6853 9.02289C72.4402 9.02289 72.2301 8.93584 72.054 8.75974C71.8779 8.58365 71.7909 8.37352 71.7909 8.12839C71.7909 7.88226 71.8779 7.67215 72.054 7.49606C72.2301 7.32096 72.4402 7.23292 72.6853 7.23292C72.9315 7.23292 73.1416 7.32096 73.3177 7.49606C73.4938 7.67215 73.5808 7.88226 73.5808 8.12839C73.5808 8.29048 73.5398 8.43957 73.4568 8.57564C73.3777 8.71171 73.2697 8.82077 73.1336 8.90382C73.0005 8.98386 72.8514 9.02289 72.6853 9.02289ZM72.6853 3.87009C72.4402 3.87009 72.2301 3.78205 72.054 3.60595C71.8779 3.43086 71.7909 3.21973 71.7909 2.9746C71.7909 2.72947 71.8779 2.51836 72.054 2.34326C72.2301 2.16717 72.4402 2.07913 72.6853 2.07913C72.9315 2.07913 73.1416 2.16717 73.3177 2.34326C73.4938 2.51836 73.5808 2.72947 73.5808 2.9746C73.5808 3.13669 73.5398 3.28678 73.4568 3.42185C73.3777 3.55792 73.2697 3.66798 73.1336 3.75102C73.0005 3.83006 72.8514 3.87009 72.6853 3.87009ZM82.9299 10.4657C82.1805 10.4657 81.5421 10.2615 81.0148 9.85433C80.4875 9.44311 80.0853 8.84778 79.8062 8.06836C79.528 7.28594 79.389 6.34043 79.389 5.23283C79.389 4.13223 79.528 3.19172 79.8062 2.4123C80.0883 1.62988 80.4926 1.03256 81.0198 0.621338C81.5511 0.207114 82.1875 0 82.9299 0C83.6733 0 84.3086 0.207114 84.8359 0.621338C85.3662 1.03256 85.7704 1.62988 86.0495 2.4123C86.3307 3.19172 86.4718 4.13223 86.4718 5.23283C86.4718 6.34043 86.3327 7.28594 86.0545 8.06836C85.7754 8.84778 85.3732 9.44311 84.8459 9.85433C84.3186 10.2615 83.6803 10.4657 82.9299 10.4657ZM82.9299 9.37107C83.6733 9.37107 84.2506 9.01288 84.6618 8.29749C85.0731 7.5811 85.2781 6.55954 85.2781 5.23283C85.2781 4.35035 85.1841 3.59994 84.995 2.97961C84.8089 2.35927 84.5407 1.88703 84.1885 1.56185C83.8404 1.23667 83.4211 1.07459 82.9299 1.07459C82.1945 1.07459 81.6192 1.43777 81.204 2.16417C80.7897 2.88656 80.5826 3.91011 80.5826 5.23283C80.5826 6.1153 80.6757 6.86472 80.8608 7.48105C81.0469 8.09839 81.314 8.56764 81.6622 8.88881C82.0134 9.21099 82.4366 9.37107 82.9299 9.37107ZM91.6846 10.4657C90.9352 10.4657 90.2969 10.2615 89.7696 9.85433C89.2423 9.44311 88.8401 8.84778 88.5609 8.06836C88.2828 7.28594 88.1437 6.34043 88.1437 5.23283C88.1437 4.13223 88.2828 3.19172 88.5609 2.4123C88.8431 1.62988 89.2473 1.03256 89.7746 0.621338C90.3059 0.207114 90.9422 0 91.6846 0C92.428 0 93.0634 0.207114 93.5907 0.621338C94.121 1.03256 94.5251 1.62988 94.8043 2.4123C95.0854 3.19172 95.2265 4.13223 95.2265 5.23283C95.2265 6.34043 95.0874 7.28594 94.8093 8.06836C94.5301 8.84778 94.1279 9.44311 93.6006 9.85433C93.0733 10.2615 92.435 10.4657 91.6846 10.4657ZM91.6846 9.37107C92.428 9.37107 93.0053 9.01288 93.4166 8.29749C93.8278 7.5811 94.0329 6.55954 94.0329 5.23283C94.0329 4.35035 93.9389 3.59994 93.7498 2.97961C93.5637 2.35927 93.2955 1.88703 92.9433 1.56185C92.5951 1.23667 92.1759 1.07459 91.6846 1.07459C90.9492 1.07459 90.3739 1.43777 89.9587 2.16417C89.5445 2.88656 89.3373 3.91011 89.3373 5.23283C89.3373 6.1153 89.4304 6.86472 89.6155 7.48105C89.8016 8.09839 90.0688 8.56764 90.417 8.88881C90.7681 9.21099 91.1913 9.37107 91.6846 9.37107ZM100.439 10.4657C99.6899 10.4657 99.0516 10.2615 98.5243 9.85433C97.997 9.44311 97.5948 8.84778 97.3156 8.06836C97.0375 7.28594 96.8984 6.34043 96.8984 5.23283C96.8984 4.13223 97.0375 3.19172 97.3156 2.4123C97.5978 1.62988 98.002 1.03256 98.5293 0.621338C99.0606 0.207114 99.6969 0 100.439 0C101.183 0 101.818 0.207114 102.345 0.621338C102.876 1.03256 103.28 1.62988 103.559 2.4123C103.84 3.19172 103.981 4.13223 103.981 5.23283C103.981 6.34043 103.842 7.28594 103.564 8.06836C103.285 8.84778 102.883 9.44311 102.355 9.85433C101.828 10.2615 101.19 10.4657 100.439 10.4657ZM100.439 9.37107C101.183 9.37107 101.76 9.01288 102.171 8.29749C102.583 7.5811 102.788 6.55954 102.788 5.23283C102.788 4.35035 102.694 3.59994 102.504 2.97961C102.318 2.35927 102.05 1.88703 101.698 1.56185C101.35 1.23667 100.931 1.07459 100.439 1.07459C99.7039 1.07459 99.1287 1.43777 98.7134 2.16417C98.2992 2.88656 98.0921 3.91011 98.0921 5.23283C98.0921 6.1153 98.1851 6.86472 98.3702 7.48105C98.5563 8.09839 98.8235 8.56764 99.1717 8.88881C99.5229 9.21099 99.9461 9.37107 100.439 9.37107ZM109.194 10.4657C108.445 10.4657 107.806 10.2615 107.279 9.85433C106.752 9.44311 106.35 8.84778 106.07 8.06836C105.792 7.28594 105.653 6.34043 105.653 5.23283C105.653 4.13223 105.792 3.19172 106.07 2.4123C106.353 1.62988 106.757 1.03256 107.284 0.621338C107.815 0.207114 108.452 0 109.194 0C109.937 0 110.573 0.207114 111.1 0.621338C111.63 1.03256 112.035 1.62988 112.314 2.4123C112.595 3.19172 112.736 4.13223 112.736 5.23283C112.736 6.34043 112.597 7.28594 112.319 8.06836C112.04 8.84778 111.637 9.44311 111.11 9.85433C110.583 10.2615 109.944 10.4657 109.194 10.4657ZM109.194 9.37107C109.937 9.37107 110.515 9.01288 110.926 8.29749C111.337 7.5811 111.542 6.55954 111.542 5.23283C111.542 4.35035 111.448 3.59994 111.259 2.97961C111.073 2.35927 110.805 1.88703 110.453 1.56185C110.105 1.23667 109.685 1.07459 109.194 1.07459C108.459 1.07459 107.883 1.43777 107.468 2.16417C107.054 2.88656 106.847 3.91011 106.847 5.23283C106.847 6.1153 106.94 6.86472 107.125 7.48105C107.311 8.09839 107.578 8.56764 107.926 8.88881C108.278 9.21099 108.701 9.37107 109.194 9.37107ZM117.949 10.4657C117.199 10.4657 116.561 10.2615 116.034 9.85433C115.506 9.44311 115.104 8.84778 114.825 8.06836C114.547 7.28594 114.408 6.34043 114.408 5.23283C114.408 4.13223 114.547 3.19172 114.825 2.4123C115.107 1.62988 115.512 1.03256 116.039 0.621338C116.57 0.207114 117.206 0 117.949 0C118.692 0 119.328 0.207114 119.855 0.621338C120.385 1.03256 120.789 1.62988 121.068 2.4123C121.35 3.19172 121.491 4.13223 121.491 5.23283C121.491 6.34043 121.352 7.28594 121.073 8.06836C120.794 8.84778 120.392 9.44311 119.865 9.85433C119.338 10.2615 118.699 10.4657 117.949 10.4657ZM117.949 9.37107C118.692 9.37107 119.27 9.01288 119.681 8.29749C120.092 7.5811 120.297 6.55954 120.297 5.23283C120.297 4.35035 120.203 3.59994 120.014 2.97961C119.828 2.35927 119.56 1.88703 119.207 1.56185C118.859 1.23667 118.44 1.07459 117.949 1.07459C117.213 1.07459 116.638 1.43777 116.223 2.16417C115.809 2.88656 115.602 3.91011 115.602 5.23283C115.602 6.1153 115.695 6.86472 115.88 7.48105C116.066 8.09839 116.333 8.56764 116.681 8.88881C117.032 9.21099 117.456 9.37107 117.949 9.37107ZM126.704 10.4657C125.954 10.4657 125.316 10.2615 124.789 9.85433C124.261 9.44311 123.859 8.84778 123.58 8.06836C123.302 7.28594 123.163 6.34043 123.163 5.23283C123.163 4.13223 123.302 3.19172 123.58 2.4123C123.862 1.62988 124.266 1.03256 124.794 0.621338C125.325 0.207114 125.961 0 126.704 0C127.447 0 128.082 0.207114 128.61 0.621338C129.14 1.03256 129.544 1.62988 129.823 2.4123C130.104 3.19172 130.245 4.13223 130.245 5.23283C130.245 6.34043 130.106 7.28594 129.828 8.06836C129.549 8.84778 129.147 9.44311 128.62 9.85433C128.092 10.2615 127.454 10.4657 126.704 10.4657ZM126.704 9.37107C127.447 9.37107 128.024 9.01288 128.436 8.29749C128.847 7.5811 129.052 6.55954 129.052 5.23283C129.052 4.35035 128.958 3.59994 128.769 2.97961C128.583 2.35927 128.314 1.88703 127.962 1.56185C127.614 1.23667 127.195 1.07459 126.704 1.07459C125.968 1.07459 125.393 1.43777 124.978 2.16417C124.563 2.88656 124.356 3.91011 124.356 5.23283C124.356 6.1153 124.449 6.86472 124.634 7.48105C124.821 8.09839 125.088 8.56764 125.436 8.88881C125.787 9.21099 126.21 9.37107 126.704 9.37107ZM135.458 10.4657C134.709 10.4657 134.071 10.2615 133.543 9.85433C133.016 9.44311 132.614 8.84778 132.335 8.06836C132.056 7.28594 131.917 6.34043 131.917 5.23283C131.917 4.13223 132.056 3.19172 132.335 2.4123C132.617 1.62988 133.021 1.03256 133.548 0.621338C134.08 0.207114 134.716 0 135.458 0C136.202 0 136.837 0.207114 137.364 0.621338C137.895 1.03256 138.299 1.62988 138.578 2.4123C138.859 3.19172 139 4.13223 139 5.23283C139 6.34043 138.861 7.28594 138.583 8.06836C138.304 8.84778 137.902 9.44311 137.374 9.85433C136.847 10.2615 136.209 10.4657 135.458 10.4657ZM135.458 9.37107C136.202 9.37107 136.779 9.01288 137.19 8.29749C137.601 7.5811 137.807 6.55954 137.807 5.23283C137.807 4.35035 137.713 3.59994 137.523 2.97961C137.337 2.35927 137.069 1.88703 136.717 1.56185C136.369 1.23667 135.95 1.07459 135.458 1.07459C134.723 1.07459 134.148 1.43777 133.732 2.16417C133.318 2.88656 133.111 3.91011 133.111 5.23283C133.111 6.1153 133.204 6.86472 133.389 7.48105C133.575 8.09839 133.842 8.56764 134.191 8.88881C134.542 9.21099 134.965 9.37107 135.458 9.37107Z" fill="#475467"/>
</svg>
