<svg width="150" height="16" viewBox="0 0 150 16" fill="none" xmlns="http://www.w3.org/2000/svg">
<path d="M0 12.0075V3.27506H1.29579V4.63889H1.40988C1.59099 4.1726 1.88518 3.81141 2.29044 3.55325C2.69669 3.29209 3.18299 3.16098 3.75235 3.16098C4.32771 3.16098 4.80799 3.29209 5.19023 3.55325C5.57648 3.81141 5.87868 4.1726 6.09381 4.63889H6.18488C6.40902 4.18861 6.74421 3.83041 7.19149 3.56425C7.63877 3.29608 8.17511 3.16098 8.8005 3.16098C9.58099 3.16098 10.2204 3.40516 10.7167 3.89447C11.213 4.37977 11.4612 5.13622 11.4612 6.16286V12.0075H10.1193V6.16286C10.1193 5.51845 9.94322 5.05818 9.591 4.78101C9.23878 4.50484 8.82353 4.36675 8.34523 4.36675C7.73184 4.36675 7.25555 4.55184 6.91834 4.92307C6.58113 5.2913 6.41302 5.7576 6.41302 6.32195V12.0075H5.04815V6.02679C5.04815 5.53048 4.88704 5.13019 4.56484 4.827C4.24264 4.51981 3.82739 4.36675 3.32007 4.36675C2.97085 4.36675 2.64565 4.45882 2.34146 4.64494C2.04228 4.83106 1.80013 5.08817 1.61402 5.41837C1.4319 5.74458 1.34084 6.12082 1.34084 6.54909V12.0075H0ZM15.893 12.0075L13.2323 3.27506H14.6422L16.5293 9.96126H16.6204L18.4856 3.27506H19.9185L21.7606 9.93823H21.8517L23.7389 3.27506H25.1488L22.4881 12.0075H21.1693L19.2591 5.2983H19.122L17.2118 12.0075H15.893ZM26.9229 12.0075V3.27506H28.2647V12.0075H26.9229ZM27.6053 1.81913C27.3431 1.81913 27.118 1.73011 26.9289 1.552C26.7427 1.37389 26.6497 1.15972 26.6497 0.909567C26.6497 0.65941 26.7427 0.445308 26.9289 0.267196C27.118 0.0890846 27.3431 0 27.6053 0C27.8664 0 28.0906 0.0890846 28.2757 0.267196C28.4658 0.445308 28.5599 0.65941 28.5599 0.909567C28.5599 1.15972 28.4658 1.37389 28.2757 1.552C28.0906 1.73011 27.8664 1.81913 27.6053 1.81913ZM32.0641 0.364242V12.0075H30.7223V0.364242H32.0641ZM40.7065 5.23027L39.5017 5.57148C39.4257 5.37036 39.3136 5.17521 39.1665 4.9861C39.0224 4.79297 38.8253 4.63389 38.5752 4.50881C38.325 4.38373 38.0048 4.3207 37.6136 4.3207C37.0792 4.3207 36.634 4.44377 36.2777 4.69093C35.9255 4.93308 35.7494 5.2423 35.7494 5.61753C35.7494 5.95074 35.8705 6.21391 36.1126 6.40703C36.3558 6.60115 36.735 6.76222 37.2503 6.8903L38.5462 7.20953C39.3276 7.39865 39.909 7.68879 40.2922 8.07904C40.6745 8.46528 40.8656 8.96361 40.8656 9.57399C40.8656 10.0743 40.7225 10.5216 40.4343 10.9158C40.1502 11.3101 39.7519 11.6213 39.2396 11.8484C38.7283 12.0756 38.1329 12.1896 37.4545 12.1896C36.5639 12.1896 35.8275 11.9965 35.2431 11.6093C34.6597 11.223 34.2905 10.6587 34.1344 9.91521L35.4082 9.59702C35.5292 10.0673 35.7584 10.4195 36.0956 10.6547C36.4368 10.8898 36.8821 11.0069 37.4325 11.0069C38.0578 11.0069 38.5542 10.8738 38.9214 10.6086C39.2936 10.3395 39.4787 10.0173 39.4787 9.64203C39.4787 9.33884 39.3727 9.08569 39.1605 8.88056C38.9484 8.67243 38.6222 8.51633 38.1829 8.41427L36.727 8.07305C35.9275 7.88393 35.3401 7.58974 34.9649 7.1925C34.5937 6.79024 34.4075 6.28795 34.4075 5.68557C34.4075 5.19226 34.5456 4.75698 34.8228 4.37774C35.103 3.99851 35.4842 3.70129 35.9655 3.48516C36.4508 3.26902 37.0002 3.16098 37.6136 3.16098C38.4781 3.16098 39.1565 3.35009 39.6498 3.72933C40.1462 4.10856 40.4984 4.60888 40.7065 5.23027ZM46.4331 12.1896C45.6456 12.1896 44.9532 12.0015 44.3588 11.6263C43.7674 11.2511 43.3051 10.7267 42.9709 10.0513C42.6417 9.37686 42.4766 8.58839 42.4766 7.68682C42.4766 6.77725 42.6417 5.98277 42.9709 5.30435C43.3051 4.62592 43.7674 4.09955 44.3588 3.72432C44.9532 3.34908 45.6456 3.16098 46.4331 3.16098C47.2216 3.16098 47.912 3.34908 48.5034 3.72432C49.0978 4.09955 49.5601 4.62592 49.8903 5.30435C50.2235 5.98277 50.3906 6.77725 50.3906 7.68682C50.3906 8.58839 50.2235 9.37686 49.8903 10.0513C49.5601 10.7267 49.0978 11.2511 48.5034 11.6263C47.912 12.0015 47.2216 12.1896 46.4331 12.1896ZM46.4331 10.9839C47.0325 10.9839 47.5248 10.8308 47.912 10.5236C48.2983 10.2164 48.5844 9.81316 48.7706 9.31284C48.9557 8.81253 49.0487 8.27019 49.0487 7.68682C49.0487 7.10246 48.9557 6.55914 48.7706 6.05482C48.5844 5.5505 48.2983 5.14324 47.912 4.83305C47.5248 4.52185 47.0325 4.36675 46.4331 4.36675C45.8347 4.36675 45.3424 4.52185 44.9552 4.83305C44.5689 5.14324 44.2827 5.5505 44.0966 6.05482C43.9115 6.55914 43.8184 7.10246 43.8184 7.68682C43.8184 8.27019 43.9115 8.81253 44.0966 9.31284C44.2827 9.81316 44.5689 10.2164 44.9552 10.5236C45.3424 10.8308 45.8347 10.9839 46.4331 10.9839ZM53.7807 6.75423V12.0075H52.4389V3.27506H53.7347V4.63889H53.8487C54.0529 4.19562 54.3641 3.8394 54.7813 3.57023C55.1976 3.29706 55.7359 3.16098 56.3953 3.16098C56.9867 3.16098 57.504 3.28207 57.9483 3.52522C58.3916 3.76337 58.7358 4.1276 58.9829 4.61691C59.2291 5.10121 59.3522 5.7156 59.3522 6.45906V12.0075H58.0103V6.54909C58.0103 5.86366 57.8322 5.32933 57.476 4.94609C57.1198 4.55985 56.6305 4.36675 56.0091 4.36675C55.5808 4.36675 55.1976 4.45882 54.8604 4.64494C54.5272 4.83106 54.264 5.10121 54.0709 5.45844C53.8767 5.81466 53.7807 6.24591 53.7807 6.75423ZM68.5129 15.0774C67.3532 15.0774 66.3276 14.9184 65.437 14.6002C64.5464 14.286 63.798 13.8216 63.1916 13.2073C62.5852 12.5929 62.1259 11.8404 61.8157 10.9499C61.5045 10.0593 61.3494 9.03965 61.3494 7.89093C61.3494 6.78124 61.5065 5.78762 61.8207 4.91207C62.1389 4.03653 62.6002 3.29407 63.2026 2.68369C63.809 2.0693 64.5445 1.60102 65.408 1.27882C66.2765 0.956615 67.2581 0.795481 68.3538 0.795481C69.4185 0.795481 70.3511 0.970601 71.1506 1.31882C71.9541 1.66404 72.6255 2.13232 73.1629 2.72369C73.7052 3.31106 74.1105 3.97251 74.3796 4.70797C74.6528 5.44243 74.7889 6.20088 74.7889 6.98136C74.7889 7.53171 74.7628 8.08808 74.7098 8.65343C74.6568 9.21779 74.5447 9.73712 74.3746 10.2114C74.2035 10.6807 73.9403 11.0599 73.5841 11.3481C73.2319 11.6363 72.7536 11.7804 72.1512 11.7804C71.886 11.7804 71.5939 11.7384 71.2757 11.6553C70.9575 11.5713 70.6753 11.4331 70.4291 11.24C70.182 11.0469 70.0359 10.7868 69.9908 10.4616H69.9228C69.8318 10.6807 69.6917 10.8898 69.5016 11.087C69.3164 11.2841 69.0713 11.4412 68.7681 11.5583C68.4689 11.6763 68.1037 11.7274 67.6714 11.7124C67.1781 11.6933 66.7448 11.5833 66.3696 11.3821C65.9944 11.177 65.6792 10.9008 65.426 10.5516C65.1759 10.1994 64.9857 9.79211 64.8567 9.32982C64.7316 8.86353 64.6695 8.36123 64.6695 7.8229C64.6695 7.31157 64.7456 6.84327 64.8967 6.419C65.0487 5.99473 65.2589 5.62255 65.5281 5.30435C65.8012 4.98615 66.1194 4.73194 66.4827 4.54282C66.8509 4.3497 67.2471 4.22966 67.6714 4.18463C68.0506 4.14661 68.3949 4.16358 68.706 4.23563C69.0172 4.30367 69.2724 4.40775 69.4735 4.54783C69.6746 4.68492 69.8017 4.83603 69.8548 5.00314H69.9228V4.36675H71.1276V9.50596C71.1276 9.82416 71.2166 10.1043 71.3947 10.3475C71.5729 10.5896 71.833 10.7117 72.1742 10.7117C72.5605 10.7117 72.8566 10.5786 73.0608 10.3135C73.2699 10.0483 73.412 9.63906 73.4871 9.08571C73.5671 8.53236 73.6071 7.82292 73.6071 6.95938C73.6071 6.45106 73.5371 5.95075 73.396 5.45844C73.2599 4.96113 73.0518 4.49683 72.7706 4.06456C72.4944 3.63329 72.1442 3.25202 71.7189 2.92181C71.2947 2.59261 70.7964 2.33447 70.224 2.14936C69.6556 1.95924 69.0092 1.86518 68.2848 1.86518C67.3942 1.86518 66.5967 2.00327 65.8913 2.27944C65.1909 2.55261 64.5935 2.95284 64.1012 3.47917C63.6119 4.0025 63.2386 4.63889 62.9805 5.38936C62.7273 6.13683 62.6002 6.98538 62.6002 7.93698C62.6002 8.90359 62.7273 9.7621 62.9805 10.5126C63.2386 11.263 63.6179 11.8955 64.1182 12.4108C64.6215 12.9271 65.2459 13.3173 65.9883 13.5825C66.7308 13.8517 67.5883 13.9858 68.5579 13.9858C68.9752 13.9858 69.3865 13.9467 69.7917 13.8667C70.197 13.7866 70.5552 13.6996 70.8664 13.6055C71.1776 13.5105 71.4007 13.4404 71.5368 13.3944L71.856 14.4411C71.6209 14.5391 71.3137 14.6382 70.9344 14.7362C70.5592 14.8353 70.158 14.9163 69.7297 14.9814C69.3044 15.0454 68.8992 15.0774 68.5129 15.0774ZM67.8535 10.5516C68.3608 10.5516 68.7721 10.4496 69.0873 10.2454C69.4015 10.0403 69.6306 9.73111 69.7747 9.31785C69.9188 8.90559 69.9908 8.38425 69.9908 7.75486C69.9908 7.11846 69.9108 6.62114 69.7517 6.26491C69.5926 5.90869 69.3575 5.65853 69.0473 5.51444C68.7361 5.37035 68.3538 5.2983 67.8985 5.2983C67.4663 5.2983 67.097 5.41238 66.7898 5.63952C66.4866 5.86366 66.2535 6.16286 66.0904 6.53809C65.9313 6.90933 65.8523 7.31558 65.8523 7.75486C65.8523 8.24016 65.9163 8.69647 66.0454 9.12474C66.1745 9.55 66.3846 9.89421 66.6768 10.1594C66.968 10.4215 67.3602 10.5516 67.8535 10.5516ZM82.3016 8.43729V3.27506H83.6424V12.0075H82.3016V10.5296H82.2105C82.0054 10.9729 81.6872 11.3501 81.2549 11.6603C80.8227 11.9675 80.2773 12.1216 79.6179 12.1216C79.0715 12.1216 78.5863 12.0015 78.162 11.7634C77.7377 11.5202 77.4045 11.157 77.1614 10.6717C76.9192 10.1824 76.7981 9.56699 76.7981 8.82352V3.27506H78.139V8.73246C78.139 9.36986 78.3181 9.87719 78.6743 10.2564C79.0335 10.6357 79.4928 10.8248 80.0502 10.8248C80.3834 10.8248 80.7226 10.7397 81.0678 10.5686C81.416 10.3985 81.7082 10.1374 81.9433 9.78415C82.1815 9.43193 82.3016 8.98264 82.3016 8.43729ZM89.6252 15.4647C88.9768 15.4647 88.4204 15.3807 87.9541 15.2146C87.4878 15.0514 87.0996 14.8353 86.7884 14.5661C86.4812 14.301 86.237 14.0168 86.0549 13.7136L87.1236 12.9631C87.2447 13.1222 87.3988 13.3033 87.5839 13.5085C87.77 13.7166 88.0241 13.8967 88.3463 14.0488C88.6725 14.2039 89.0988 14.282 89.6252 14.282C90.3306 14.282 90.912 14.1108 91.3713 13.7696C91.8295 13.4284 92.0587 12.8941 92.0587 12.1666V10.3925H91.9446C91.8465 10.5516 91.7065 10.7487 91.5244 10.9839C91.3462 11.215 91.0881 11.4221 90.7509 11.6043C90.4177 11.7824 89.9664 11.8715 89.398 11.8715C88.6926 11.8715 88.0602 11.7043 87.4988 11.3711C86.9415 11.0369 86.5002 10.5516 86.174 9.91521C85.8518 9.27881 85.6907 8.50533 85.6907 7.59576C85.6907 6.7012 85.8488 5.92269 86.163 5.25928C86.4772 4.59186 86.9155 4.07658 87.4758 3.71235C88.0372 3.34512 88.6856 3.16098 89.421 3.16098C89.9894 3.16098 90.4407 3.25603 90.7739 3.44515C91.1111 3.63127 91.3692 3.84343 91.5474 4.08258C91.7285 4.31672 91.8696 4.51082 91.9676 4.66192H92.1037V3.27506H93.4005V12.2577C93.4005 13.0082 93.2294 13.6186 92.8892 14.0888C92.551 14.5621 92.0967 14.9094 91.5244 15.1285C90.956 15.3526 90.3226 15.4647 89.6252 15.4647ZM89.5801 10.6657C90.1185 10.6657 90.5727 10.5426 90.944 10.2964C91.3162 10.0503 91.5984 9.69506 91.7915 9.23278C91.9846 8.77049 92.0817 8.21714 92.0817 7.57274C92.0817 6.94334 91.9866 6.38802 91.7975 5.90672C91.6074 5.42541 91.3272 5.04817 90.956 4.776C90.5847 4.50283 90.1255 4.36675 89.5801 4.36675C89.0118 4.36675 88.5375 4.51081 88.1582 4.79799C87.783 5.08617 87.5008 5.47345 87.3117 5.95875C87.1256 6.44305 87.0325 6.98137 87.0325 7.57274C87.0325 8.17912 87.1276 8.71549 87.3167 9.18178C87.5108 9.64407 87.795 10.0083 88.1702 10.2735C88.5485 10.5346 89.0188 10.6657 89.5801 10.6657ZM96.8347 12.0986C96.5535 12.0986 96.3133 11.9985 96.1122 11.7974C95.9111 11.5962 95.811 11.3551 95.811 11.0749C95.811 10.7948 95.9111 10.5536 96.1122 10.3535C96.3133 10.1523 96.5535 10.0513 96.8347 10.0513C97.1149 10.0513 97.356 10.1523 97.5562 10.3535C97.7573 10.5536 97.8573 10.7948 97.8573 11.0749C97.8573 11.261 97.8103 11.4312 97.7153 11.5873C97.6252 11.7424 97.5011 11.8675 97.346 11.9625C97.1949 12.0526 97.0238 12.0986 96.8347 12.0986ZM103.927 12.1896C103.086 12.1896 102.36 12.0035 101.75 11.6323C101.143 11.2571 100.675 10.7337 100.345 10.0633C100.019 9.38889 99.8565 8.60341 99.8565 7.70985C99.8565 6.81529 100.019 6.02678 100.345 5.34435C100.675 4.65792 101.133 4.1236 101.721 3.74136C102.312 3.35412 103.003 3.16098 103.79 3.16098C104.245 3.16098 104.695 3.23701 105.138 3.38811C105.581 3.5402 105.985 3.78637 106.349 4.12759C106.713 4.4648 107.003 4.91208 107.219 5.46943C107.434 6.02678 107.542 6.71222 107.542 7.52773V8.09608H100.811V6.93635H106.179C106.179 6.44304 106.079 6.00378 105.882 5.61753C105.689 5.23029 105.413 4.92506 105.053 4.70192C104.697 4.47778 104.275 4.36675 103.79 4.36675C103.256 4.36675 102.793 4.49881 102.403 4.76397C102.017 5.02614 101.719 5.36736 101.511 5.78762C101.302 6.20889 101.198 6.65916 101.198 7.14046V7.91396C101.198 8.57337 101.311 9.13274 101.539 9.59103C101.77 10.0463 102.091 10.3925 102.5 10.6317C102.909 10.8668 103.385 10.9839 103.927 10.9839C104.279 10.9839 104.598 10.9349 104.882 10.8368C105.17 10.7337 105.418 10.5826 105.627 10.3815C105.835 10.1764 105.996 9.92323 106.11 9.62004L107.406 9.98325C107.27 10.4235 107.041 10.8098 106.719 11.143C106.397 11.4732 105.998 11.7303 105.524 11.9165C105.051 12.0986 104.518 12.1896 103.927 12.1896ZM112.882 12.1896C112.153 12.1896 111.511 12.0055 110.955 11.6383C110.397 11.266 109.961 10.7437 109.647 10.0683C109.331 9.3899 109.174 8.58838 109.174 7.6638C109.174 6.74622 109.331 5.95074 109.647 5.27632C109.961 4.60089 110.399 4.08058 110.96 3.71235C111.521 3.34512 112.169 3.16098 112.904 3.16098C113.473 3.16098 113.921 3.25603 114.252 3.44515C114.585 3.63127 114.839 3.84343 115.013 4.08258C115.191 4.31672 115.33 4.51082 115.428 4.66192H115.542V0.364242H116.884V12.0075H115.587V10.6657H115.428C115.33 10.8248 115.189 11.0259 115.008 11.268C114.826 11.5072 114.566 11.7214 114.229 11.9105C113.891 12.0966 113.442 12.1896 112.882 12.1896ZM113.063 10.9839C113.601 10.9839 114.056 10.8438 114.428 10.5636C114.799 10.2794 115.082 9.88718 115.275 9.38686C115.468 8.88255 115.564 8.30019 115.564 7.64077C115.564 6.98937 115.47 6.41905 115.28 5.92974C115.091 5.43743 114.811 5.05418 114.439 4.78101C114.067 4.50484 113.609 4.36675 113.063 4.36675C112.494 4.36675 112.021 4.51185 111.642 4.80404C111.267 5.09222 110.985 5.48443 110.794 5.98074C110.609 6.47405 110.516 7.02739 110.516 7.64077C110.516 8.26316 110.611 8.82755 110.8 9.33587C110.994 9.83918 111.278 10.2414 111.653 10.5406C112.032 10.8368 112.502 10.9839 113.063 10.9839ZM125.031 8.43729V3.27506H126.373V12.0075H125.031V10.5296H124.94C124.735 10.9729 124.417 11.3501 123.985 11.6603C123.552 11.9675 123.007 12.1216 122.348 12.1216C121.801 12.1216 121.317 12.0015 120.892 11.7634C120.467 11.5202 120.134 11.157 119.891 10.6717C119.649 10.1824 119.528 9.56699 119.528 8.82352V3.27506H120.87V8.73246C120.87 9.36986 121.048 9.87719 121.404 10.2564C121.764 10.6357 122.223 10.8248 122.78 10.8248C123.113 10.8248 123.452 10.7397 123.798 10.5686C124.146 10.3985 124.438 10.1374 124.673 9.78415C124.911 9.43193 125.031 8.98264 125.031 8.43729ZM129.808 12.0986C129.528 12.0986 129.287 11.9985 129.086 11.7974C128.886 11.5962 128.785 11.3551 128.785 11.0749C128.785 10.7948 128.886 10.5536 129.086 10.3535C129.287 10.1523 129.528 10.0513 129.808 10.0513C130.089 10.0513 130.33 10.1523 130.53 10.3535C130.731 10.5536 130.832 10.7948 130.832 11.0749C130.832 11.261 130.784 11.4312 130.69 11.5873C130.599 11.7424 130.476 11.8675 130.32 11.9625C130.169 12.0526 129.997 12.0986 129.808 12.0986ZM136.765 15.4647C136.116 15.4647 135.559 15.3807 135.093 15.2146C134.626 15.0514 134.238 14.8353 133.927 14.5661C133.621 14.301 133.376 14.0168 133.193 13.7136L134.263 12.9631C134.384 13.1222 134.537 13.3033 134.723 13.5085C134.909 13.7166 135.163 13.8967 135.485 14.0488C135.811 14.2039 136.237 14.282 136.765 14.282C137.469 14.282 138.052 14.1108 138.51 13.7696C138.968 13.4284 139.197 12.8941 139.197 12.1666V10.3925H139.084C138.985 10.5516 138.845 10.7487 138.663 10.9839C138.485 11.215 138.228 11.4221 137.89 11.6043C137.556 11.7824 137.105 11.8715 136.537 11.8715C135.832 11.8715 135.199 11.7043 134.638 11.3711C134.081 11.0369 133.639 10.5516 133.314 9.91521C132.991 9.27881 132.83 8.50533 132.83 7.59576C132.83 6.7012 132.987 5.92269 133.302 5.25928C133.617 4.59186 134.054 4.07658 134.615 3.71235C135.176 3.34512 135.824 3.16098 136.56 3.16098C137.128 3.16098 137.579 3.25603 137.912 3.44515C138.25 3.63127 138.508 3.84343 138.686 4.08258C138.868 4.31672 139.008 4.51082 139.106 4.66192H139.243V3.27506H140.539V12.2577C140.539 13.0082 140.369 13.6186 140.028 14.0888C139.691 14.5621 139.235 14.9094 138.663 15.1285C138.095 15.3526 137.462 15.4647 136.765 15.4647ZM136.719 10.6657C137.257 10.6657 137.712 10.5426 138.084 10.2964C138.455 10.0503 138.737 9.69506 138.93 9.23278C139.124 8.77049 139.22 8.21714 139.22 7.57274C139.22 6.94334 139.125 6.38802 138.936 5.90672C138.747 5.42541 138.466 5.04817 138.095 4.776C137.723 4.50283 137.265 4.36675 136.719 4.36675C136.15 4.36675 135.676 4.51081 135.298 4.79799C134.923 5.08617 134.639 5.47345 134.45 5.95875C134.264 6.44305 134.172 6.98137 134.172 7.57274C134.172 8.17912 134.266 8.71549 134.456 9.18178C134.649 9.64407 134.934 10.0083 135.309 10.2735C135.688 10.5346 136.158 10.6657 136.719 10.6657ZM144.337 6.75423V12.0075H142.996V0.364242H144.337V4.63889H144.451C144.656 4.18861 144.963 3.83041 145.372 3.56425C145.785 3.29608 146.335 3.16098 147.021 3.16098C147.615 3.16098 148.137 3.28008 148.584 3.51923C149.031 3.75438 149.379 4.11657 149.625 4.60488C149.875 5.09018 150 5.70859 150 6.45906V12.0075H148.658V6.54909C148.658 5.85565 148.478 5.31932 148.118 4.94108C147.762 4.55784 147.267 4.36675 146.634 4.36675C146.195 4.36675 145.8 4.45882 145.451 4.64494C145.107 4.83106 144.834 5.10121 144.633 5.45844C144.436 5.81466 144.337 6.24591 144.337 6.75423Z" fill="#1751D0"/>
</svg>
