<?xml version="1.0" encoding="UTF-8" standalone="no"?>
<svg
   xmlns:dc="http://purl.org/dc/elements/1.1/"
   xmlns:cc="http://creativecommons.org/ns#"
   xmlns:rdf="http://www.w3.org/1999/02/22-rdf-syntax-ns#"
   xmlns:svg="http://www.w3.org/2000/svg"
   xmlns="http://www.w3.org/2000/svg"
   id="svg1126"
   version="1.1"
   viewBox="0 0 79.375 95.152534"
   height="95.152534mm"
   width="79.375mm">
  <defs
     id="defs1120">
    <clipPath
       clipPathUnits="userSpaceOnUse"
       id="clipPath881">
      <path
         d="m 120.224,311.686 h 57.19 v 63.068 h -57.19 z"
         id="path879" />
    </clipPath>
  </defs>
  <metadata
     id="metadata1123">
    <rdf:RDF>
      <cc:Work
         rdf:about="">
        <dc:format>image/svg+xml</dc:format>
        <dc:type
           rdf:resource="http://purl.org/dc/dcmitype/StillImage" />
        <dc:title></dc:title>
      </cc:Work>
    </rdf:RDF>
  </metadata>
  <g
     transform="translate(-277.33903,-79.374992)"
     id="layer1">
    <g
       transform="matrix(1.5273232,0,0,-1.5273232,89.813117,651.74547)"
       clip-path="url(#clipPath881)"
       id="g877">
      <g
         transform="translate(162.2469,318.9329)"
         id="g883">
        <path
           id="path885"
           style="fill:#ba8f4a;fill-opacity:1;fill-rule:evenodd;stroke:none"
           d="M 0,0 C 0.066,0.415 0.077,0.569 0.144,0.984 1.228,1.048 2.258,0.852 3.287,0.656 2.584,0.121 1.168,-0.058 0,0 m -26.877,-0.277 c -1.177,0.087 -2.549,0.435 -3.137,1.044 1.067,0.065 2.135,0.13 3.202,-0.065 -0.022,-0.414 -0.043,-0.566 -0.065,-0.979 M 4.113,1.102 C 2.085,1.731 1.022,1.559 -0.396,1.579 L -0.59,-0.429 c -8.26,-1.467 -16.926,-1.347 -25.53,0.04 -0.134,0.852 -0.011,1.223 -0.151,1.769 -2.64,0.167 -4.724,0.073 -4.748,-0.805 0,-1.316 0,-3.485 0,-4.8 11.507,-3.005 23.625,-3.046 35.132,0.121 0,1.097 0,4.11 0,5.206" />
      </g>
      <g
         transform="translate(174.7213,323.2938)"
         id="g887">
        <path
           id="path889"
           style="fill:#ba8f4a;fill-opacity:1;fill-rule:evenodd;stroke:none"
           d="m 0,0 c 0.11,1.556 -3.268,2.458 -6.043,0.844 -3.245,-2.713 3.211,-3.413 4.429,-1.433 0.35,0.712 -0.256,0.867 -0.798,0.511 -1.008,-0.663 -3.369,-0.889 -3.137,0.123 0.683,0.87 3.352,0.85 3.814,0.585 3.412,-1.691 -3.438,-3.872 -5.096,-2.823 -4.193,1.443 -5.894,0.576 -5.856,0.44 -0.048,-0.646 0.475,-0.602 1.655,-0.553 1.041,0.042 2.22,-0.068 3.122,-0.579 0,-1.302 0.113,-2.886 0.113,-4.187 2.765,-0.14 5.195,0.228 7.309,1.712 C -0.494,-3.742 0.176,-0.434 0,0" />
      </g>
      <g
         transform="translate(163.3264,315.8483)"
         id="g891">
        <path
           id="path893"
           style="fill:#232559;fill-opacity:1;fill-rule:evenodd;stroke:none"
           d="m 0,0 0.379,0.117 c 0.103,-0.287 0.276,-0.409 0.519,-0.363 0.119,0.022 0.208,0.07 0.264,0.144 C 1.219,-0.029 1.238,0.053 1.22,0.142 1.21,0.195 1.189,0.237 1.158,0.27 1.126,0.302 1.083,0.325 1.029,0.34 0.975,0.354 0.849,0.372 0.648,0.392 0.469,0.41 0.334,0.44 0.244,0.484 0.154,0.527 0.076,0.591 0.01,0.676 -0.055,0.762 -0.098,0.859 -0.12,0.967 -0.146,1.094 -0.139,1.213 -0.1,1.325 -0.061,1.437 0.006,1.529 0.1,1.6 0.195,1.671 0.319,1.721 0.473,1.75 0.705,1.794 0.897,1.767 1.051,1.67 1.206,1.574 1.31,1.413 1.362,1.189 L 0.969,1.094 C 0.926,1.216 0.871,1.295 0.803,1.334 0.736,1.372 0.648,1.381 0.541,1.361 0.434,1.341 0.356,1.304 0.307,1.251 0.258,1.196 0.239,1.138 0.252,1.073 0.265,1.01 0.302,0.962 0.363,0.929 0.425,0.895 0.555,0.871 0.754,0.854 0.965,0.836 1.121,0.804 1.222,0.759 1.324,0.714 1.408,0.647 1.474,0.559 1.541,0.47 1.588,0.357 1.616,0.218 1.657,0.017 1.626,-0.164 1.526,-0.325 1.425,-0.486 1.238,-0.592 0.966,-0.643 0.483,-0.733 0.161,-0.519 0,0 m -2.163,1.255 0.397,0.067 0.23,-1.257 c 0.036,-0.196 0.064,-0.322 0.085,-0.38 0.036,-0.099 0.092,-0.171 0.169,-0.216 0.076,-0.045 0.169,-0.058 0.277,-0.039 0.092,0.015 0.163,0.048 0.215,0.097 0.05,0.05 0.08,0.112 0.088,0.186 0.009,0.073 -0.008,0.226 -0.05,0.457 l -0.235,1.285 0.399,0.068 0.223,-1.22 c 0.057,-0.312 0.081,-0.54 0.072,-0.684 -0.01,-0.145 -0.066,-0.271 -0.172,-0.377 -0.105,-0.108 -0.257,-0.177 -0.455,-0.211 -0.206,-0.035 -0.373,-0.027 -0.502,0.025 -0.128,0.051 -0.23,0.138 -0.306,0.258 -0.076,0.12 -0.145,0.354 -0.209,0.702 z m -1.876,-2.629 -0.298,2.34 0.601,0.071 0.565,-1.554 0.154,1.639 0.602,0.072 0.298,-2.341 -0.372,-0.044 -0.235,1.843 -0.161,-1.89 -0.387,-0.045 -0.627,1.795 0.234,-1.842 z M -5.1,-0.606 -5.469,0.237 -5.644,-0.661 Z m 0.843,-0.852 -0.438,-0.045 -0.232,0.516 -0.797,-0.081 -0.106,-0.55 -0.428,-0.043 0.521,2.424 0.426,0.043 z m -3.563,1.635 0.141,-1.556 0.303,0.026 c 0.129,0.01 0.223,0.03 0.278,0.058 0.057,0.029 0.101,0.068 0.134,0.119 0.033,0.051 0.057,0.128 0.072,0.233 0.015,0.105 0.014,0.241 -10e-4,0.409 -0.016,0.173 -0.041,0.31 -0.074,0.408 -0.035,0.098 -0.08,0.174 -0.138,0.227 -0.058,0.054 -0.125,0.086 -0.202,0.098 -0.059,0.009 -0.168,0.007 -0.33,-0.007 z m -0.437,0.363 0.735,0.062 c 0.186,0.016 0.329,0.008 0.427,-0.024 0.098,-0.032 0.192,-0.093 0.28,-0.181 0.089,-0.088 0.162,-0.206 0.222,-0.354 0.059,-0.148 0.099,-0.334 0.119,-0.56 0.019,-0.203 0.011,-0.381 -0.023,-0.536 -0.034,-0.154 -0.084,-0.277 -0.149,-0.372 -0.066,-0.093 -0.148,-0.166 -0.247,-0.219 -0.1,-0.053 -0.231,-0.087 -0.394,-0.101 l -0.757,-0.064 z m -1.652,-2.454 -0.128,2.354 1.486,0.076 0.022,-0.399 -1.084,-0.055 0.029,-0.522 1.006,0.051 0.022,-0.396 -1.007,-0.051 0.035,-0.641 1.12,0.057 0.021,-0.397 z m -0.771,0.84 0.397,-0.133 c -0.052,-0.266 -0.146,-0.462 -0.284,-0.588 -0.138,-0.127 -0.311,-0.193 -0.519,-0.2 -0.261,-0.009 -0.476,0.081 -0.645,0.269 -0.196,0.218 -0.3,0.517 -0.314,0.897 -0.014,0.402 0.068,0.72 0.248,0.953 0.156,0.203 0.372,0.309 0.648,0.318 0.224,0.008 0.415,-0.06 0.571,-0.202 0.112,-0.102 0.196,-0.255 0.254,-0.46 l -0.396,-0.126 c -0.03,0.127 -0.084,0.222 -0.163,0.288 -0.079,0.065 -0.17,0.096 -0.273,0.093 -0.148,-0.005 -0.266,-0.071 -0.355,-0.199 -0.089,-0.127 -0.128,-0.334 -0.118,-0.62 0.011,-0.297 0.064,-0.507 0.16,-0.629 0.095,-0.122 0.216,-0.181 0.362,-0.176 0.107,0.004 0.197,0.047 0.272,0.129 0.075,0.083 0.127,0.211 0.155,0.386 m -3.096,0.264 c 0,-0.271 0.054,-0.474 0.16,-0.61 0.107,-0.136 0.239,-0.204 0.398,-0.204 0.158,0 0.29,0.068 0.395,0.202 0.105,0.135 0.156,0.341 0.156,0.62 0,0.274 -0.05,0.476 -0.152,0.607 -0.102,0.13 -0.235,0.196 -0.399,0.196 -0.165,0 -0.299,-0.066 -0.403,-0.198 -0.103,-0.132 -0.155,-0.336 -0.155,-0.613 m -0.417,-0.016 c 0,0.281 0.043,0.512 0.13,0.694 0.086,0.182 0.198,0.317 0.337,0.406 0.139,0.089 0.308,0.134 0.506,0.134 0.287,0 0.52,-0.106 0.701,-0.317 0.181,-0.211 0.271,-0.512 0.271,-0.903 0,-0.394 -0.095,-0.702 -0.287,-0.924 -0.168,-0.197 -0.395,-0.295 -0.683,-0.295 -0.291,0 -0.52,0.098 -0.688,0.291 -0.191,0.222 -0.287,0.527 -0.287,0.914 m -1.512,0.219 0.301,-0.005 c 0.183,-0.003 0.3,0.003 0.35,0.017 0.051,0.015 0.092,0.045 0.124,0.092 0.031,0.047 0.048,0.109 0.05,0.187 0.001,0.076 -0.014,0.136 -0.044,0.182 -0.03,0.047 -0.072,0.079 -0.125,0.096 -0.037,0.013 -0.147,0.02 -0.328,0.023 l -0.317,0.006 z m -0.428,-1.354 0.042,2.358 0.853,-0.015 c 0.218,-0.003 0.373,-0.027 0.466,-0.071 0.093,-0.044 0.168,-0.119 0.226,-0.224 0.058,-0.106 0.086,-0.232 0.083,-0.377 -0.003,-0.185 -0.052,-0.333 -0.145,-0.444 -0.094,-0.111 -0.226,-0.179 -0.395,-0.205 0.085,-0.062 0.156,-0.128 0.211,-0.201 0.055,-0.072 0.131,-0.201 0.225,-0.387 l 0.235,-0.464 -0.482,0.008 -0.284,0.518 c -0.102,0.187 -0.172,0.304 -0.209,0.352 -0.037,0.047 -0.077,0.079 -0.118,0.098 -0.042,0.019 -0.11,0.028 -0.203,0.03 l -0.084,0.001 -0.018,-0.984 z m -1.396,2.007 -0.024,-0.669 0.223,-0.007 c 0.151,-0.005 0.253,0.001 0.308,0.02 0.054,0.018 0.1,0.053 0.136,0.106 0.036,0.052 0.056,0.116 0.059,0.193 0.002,0.078 -0.013,0.145 -0.046,0.199 -0.034,0.055 -0.077,0.093 -0.128,0.113 -0.052,0.02 -0.162,0.032 -0.331,0.038 z m -0.474,-1.944 0.085,2.356 0.65,-0.022 c 0.243,-0.008 0.401,-0.025 0.474,-0.05 0.118,-0.04 0.213,-0.121 0.286,-0.242 0.073,-0.122 0.106,-0.276 0.1,-0.464 -0.007,-0.171 -0.045,-0.312 -0.116,-0.425 -0.071,-0.113 -0.157,-0.191 -0.259,-0.234 -0.102,-0.044 -0.275,-0.061 -0.519,-0.053 l -0.266,0.009 -0.032,-0.889 z m -1.57,0.092 0.171,2.353 0.402,-0.028 -0.17,-2.352 z m -1.484,1.483 0.3,-0.026 c 0.182,-0.015 0.299,-0.017 0.35,-0.006 0.052,0.011 0.095,0.039 0.13,0.083 0.035,0.045 0.057,0.106 0.064,0.184 0.007,0.075 -0.004,0.136 -0.03,0.184 -0.027,0.048 -0.066,0.083 -0.118,0.104 -0.037,0.016 -0.146,0.03 -0.326,0.046 l -0.316,0.026 z m -0.525,-1.322 0.213,2.349 0.849,-0.072 c 0.217,-0.018 0.371,-0.053 0.46,-0.103 0.089,-0.05 0.159,-0.129 0.209,-0.238 0.051,-0.11 0.069,-0.237 0.056,-0.382 -0.017,-0.184 -0.075,-0.328 -0.177,-0.433 -0.102,-0.104 -0.238,-0.163 -0.409,-0.178 0.081,-0.067 0.147,-0.138 0.196,-0.214 0.05,-0.076 0.116,-0.21 0.197,-0.402 l 0.201,-0.479 -0.48,0.041 -0.247,0.536 c -0.088,0.193 -0.149,0.315 -0.183,0.365 -0.033,0.049 -0.07,0.084 -0.111,0.106 -0.04,0.021 -0.107,0.035 -0.2,0.043 l -0.083,0.007 -0.089,-0.98 z m -1.159,0.995 0.043,0.395 0.867,-0.088 -0.101,-0.934 c -0.099,-0.09 -0.232,-0.163 -0.4,-0.218 -0.168,-0.056 -0.333,-0.075 -0.495,-0.058 -0.196,0.02 -0.365,0.083 -0.505,0.192 -0.14,0.109 -0.245,0.261 -0.312,0.456 -0.067,0.195 -0.088,0.418 -0.06,0.669 0.028,0.259 0.097,0.475 0.205,0.649 0.109,0.175 0.24,0.3 0.392,0.376 0.152,0.076 0.327,0.104 0.525,0.084 0.238,-0.024 0.422,-0.101 0.553,-0.233 0.13,-0.131 0.203,-0.311 0.22,-0.542 L -22.217,0.05 c -0.016,0.124 -0.061,0.222 -0.134,0.294 -0.073,0.072 -0.164,0.114 -0.275,0.125 -0.171,0.017 -0.318,-0.033 -0.437,-0.151 -0.121,-0.117 -0.195,-0.308 -0.224,-0.572 -0.03,-0.282 0.003,-0.503 0.102,-0.661 0.085,-0.138 0.212,-0.214 0.379,-0.231 0.079,-0.008 0.163,10e-4 0.251,0.028 0.089,0.028 0.169,0.069 0.243,0.124 l 0.032,0.297 z m -2.856,-0.508 0.298,2.34 1.477,-0.175 -0.05,-0.396 -1.077,0.128 -0.066,-0.519 1,-0.118 -0.05,-0.394 -1,0.118 -0.081,-0.637 1.112,-0.132 -0.05,-0.394 z m -1.266,0.2 0.282,1.939 -0.59,0.08 0.058,0.396 1.578,-0.214 -0.058,-0.395 -0.588,0.079 -0.283,-1.94 z m -2.432,0.415 0.425,2.322 0.388,-0.066 0.524,-1.688 0.284,1.551 0.371,-0.063 -0.425,-2.322 -0.401,0.068 -0.518,1.649 -0.277,-1.514 z m -0.762,0.131 0.467,2.315 0.396,-0.074 -0.466,-2.315 z" />
      </g>
      <g
         transform="translate(122.8102,323.162)"
         id="g895">
        <path
           id="path897"
           style="fill:#ba8f4a;fill-opacity:1;fill-rule:evenodd;stroke:none"
           d="M 0,0 C -0.11,1.556 3.268,2.458 6.043,0.844 9.288,-1.869 2.832,-2.569 1.614,-0.589 1.264,0.123 1.87,0.278 2.412,-0.078 3.42,-0.741 5.781,-0.967 5.549,0.045 4.866,0.915 2.197,0.895 1.735,0.63 c -3.412,-1.691 3.438,-3.872 5.096,-2.823 4.193,1.443 5.894,0.576 5.856,0.44 0.048,-0.646 -0.475,-0.602 -1.655,-0.553 C 9.991,-2.264 8.812,-2.374 7.91,-2.885 7.91,-4.187 7.797,-5.771 7.797,-7.072 5.032,-7.212 2.602,-6.844 0.488,-5.36 0.495,-3.742 -0.176,-0.434 0,0" />
      </g>
      <g
         transform="translate(170.121,374.7548)"
         id="g899">
        <path
           id="path901"
           style="fill:#232559;fill-opacity:1;fill-rule:evenodd;stroke:none"
           d="m 0,0 h -42.68 v -40.007 c 0,-13.333 11.943,-8.445 21.337,-13.875 C -10.46,-47.224 0,-54.324 0,-40.007 Z" />
      </g>
      <path
         id="path903"
         style="fill:#ffffff;fill-opacity:1;fill-rule:evenodd;stroke:none"
         d="m 127.411,354.664 h 42.698 v -0.732 h -42.698 z" />
      <g
         transform="translate(162.369,373.6439)"
         id="g905">
        <path
           id="path907"
           style="fill:#ba8f4a;fill-opacity:1;fill-rule:evenodd;stroke:none"
           d="M 0,0 -0.186,-0.373 -0.3,-0.601 -0.442,-0.884 -0.276,-1.161 -0.587,-1.415 c -0.064,-0.052 0.14,-0.169 0.09,-0.235 l -0.166,-0.219 c -0.703,-0.927 -0.245,-2.387 0.249,-4.361 -0.309,-0.533 -2.024,0.189 -2.751,1.02 -0.188,-0.842 0.866,-3.248 2.074,-3.585 l 0.207,-0.594 c -1.283,-0.322 -3.433,1.32 -3.593,1.456 -0.124,-2.165 1.5,-3.695 3.046,-4.407 0.153,-0.071 0.093,-0.652 0.212,-0.783 -1.489,-0.363 -2.875,1.022 -4.111,1.767 0.115,-1.732 0.952,-3.071 2.165,-3.817 l 0.743,-0.022 -0.141,-0.366 0.509,0.1 0.068,-0.555 0.432,0.293 0.227,-0.41 0.191,-0.363 c 0.288,-0.691 0.182,-1.732 0.294,-2.686 1.011,0 1.582,0 2.594,0 -0.169,1.515 -0.179,1.515 0.253,3.703 1.629,0.673 3.195,2.129 3.139,4.064 -0.927,-0.729 -2.614,-1.578 -3.824,-1.456 l 0.192,0.647 c 0.219,0.321 2.665,0.048 3.453,4.427 -1.155,-1.209 -2.502,-1.408 -3.537,-1.461 -0.061,0.098 0.037,0.195 0.034,0.382 0.786,0.898 1.705,0.998 1.818,3.662 -0.843,-0.667 -2.102,-1.325 -2.792,-1.083 1.09,2.503 0.93,3.341 0.355,4.413 C 0.805,-1.813 0.534,-1.75 0.551,-1.67 L 0.6,-1.44 0.307,-1.046 0.345,-0.751 C 0.378,-0.501 0.068,-0.273 0,0" />
      </g>
      <g
         transform="translate(133.3813,340.3219)"
         id="g909">
        <path
           id="path911"
           style="fill:#ba8f4a;fill-opacity:1;fill-rule:evenodd;stroke:none"
           d="m 0,0 c 0.648,-0.496 1.491,-0.993 2.14,-1.489 2.312,0.475 10.784,2.633 11.995,-2.655 -0.361,-4.999 -4.189,-5.295 -6.095,-4.208 -1.48,1.42 -2.074,3.972 0.489,5.003 2.219,0.535 2.753,-1.503 1.826,-1.872 -2.17,-0.863 0.556,-2.58 1.617,-0.034 0.688,4.233 -7.032,4.473 -6.521,-0.956 0.355,-3.787 4.727,-4.802 7.257,-3.177 4.366,2.914 2.702,7.642 0.065,9.455 C 7.543,0.089 5.23,-0.021 0,0 M 0,0 C 0.648,0.496 1.491,0.993 2.14,1.489 4.452,1.014 12.924,-1.144 14.135,4.143 13.774,9.143 9.946,9.439 8.04,8.352 6.56,6.932 5.966,4.38 8.529,3.349 c 2.219,-0.535 2.753,1.503 1.826,1.872 -2.17,0.863 0.556,2.58 1.617,0.034 C 12.66,1.022 4.94,0.782 5.451,6.211 5.806,9.998 10.178,11.013 12.708,9.388 17.074,6.474 15.41,1.877 12.773,0.065 7.543,0.043 5.23,0.021 0,0 m 15.399,0.809 c 0.447,0 0.811,-0.363 0.811,-0.809 0,-0.446 -0.364,-0.809 -0.811,-0.809 -0.446,0 -0.81,0.363 -0.81,0.809 0,0.446 0.364,0.809 0.81,0.809 M 30.799,0 c -0.648,0.496 -1.491,0.993 -2.14,1.489 -2.312,-0.475 -10.784,-2.633 -11.995,2.654 0.361,5 4.189,5.296 6.095,4.209 1.48,-1.42 2.074,-3.972 -0.489,-5.003 -2.219,-0.535 -2.753,1.503 -1.826,1.872 2.169,0.863 -0.556,2.58 -1.617,0.034 -0.688,-4.233 7.032,-4.473 6.521,0.956 -0.355,3.787 -4.727,4.802 -7.257,3.177 C 13.725,6.474 15.389,1.746 18.026,-0.067 23.256,-0.089 25.569,0.021 30.799,0 m 0,0 c -0.648,-0.496 -1.491,-0.993 -2.14,-1.489 -2.312,0.475 -10.784,2.633 -11.995,-2.655 0.361,-4.999 4.189,-5.295 6.095,-4.208 1.48,1.42 2.074,3.972 -0.489,5.003 -2.219,0.535 -2.753,-1.503 -1.826,-1.872 2.169,-0.863 -0.556,-2.58 -1.617,-0.034 -0.688,4.233 7.032,4.473 6.521,-0.956 -0.355,-3.787 -4.727,-4.802 -7.257,-3.177 -4.366,2.914 -2.702,7.51 -0.065,9.323 5.23,0.022 7.543,0.044 12.773,0.065" />
      </g>
      <g
         transform="translate(133.3813,340.3219)"
         id="g913">
        <path
           id="path915"
           style="fill:none;stroke:#ba8f4a;stroke-width:0.025;stroke-linecap:butt;stroke-linejoin:miter;stroke-miterlimit:2.613;stroke-dasharray:none;stroke-opacity:1"
           d="m 0,0 c 0.648,-0.496 1.491,-0.993 2.14,-1.489 2.312,0.475 10.784,2.633 11.995,-2.655 -0.361,-4.999 -4.189,-5.295 -6.095,-4.208 -1.48,1.42 -2.074,3.972 0.489,5.003 2.219,0.535 2.753,-1.503 1.826,-1.872 -2.17,-0.863 0.556,-2.58 1.617,-0.034 0.688,4.233 -7.032,4.473 -6.521,-0.956 0.355,-3.787 4.727,-4.802 7.257,-3.177 4.366,2.914 2.702,7.642 0.065,9.455 C 7.543,0.089 5.23,-0.021 0,0 Z M 0,0 C 0.648,0.496 1.491,0.993 2.14,1.489 4.452,1.014 12.924,-1.144 14.135,4.143 13.774,9.143 9.946,9.439 8.04,8.352 6.56,6.932 5.966,4.38 8.529,3.349 c 2.219,-0.535 2.753,1.503 1.826,1.872 -2.17,0.863 0.556,2.58 1.617,0.034 C 12.66,1.022 4.94,0.782 5.451,6.211 5.806,9.998 10.178,11.013 12.708,9.388 17.074,6.474 15.41,1.877 12.773,0.065 7.543,0.043 5.23,0.021 0,0 Z m 15.399,0.809 c 0.447,0 0.811,-0.363 0.811,-0.809 0,-0.446 -0.364,-0.809 -0.811,-0.809 -0.446,0 -0.81,0.363 -0.81,0.809 0,0.446 0.364,0.809 0.81,0.809 z M 30.799,0 c -0.648,0.496 -1.491,0.993 -2.14,1.489 -2.312,-0.475 -10.784,-2.633 -11.995,2.654 0.361,5 4.189,5.296 6.095,4.209 1.48,-1.42 2.074,-3.972 -0.489,-5.003 -2.219,-0.535 -2.753,1.503 -1.826,1.872 2.169,0.863 -0.556,2.58 -1.617,0.034 -0.688,-4.233 7.032,-4.473 6.521,0.956 -0.355,3.787 -4.727,4.802 -7.257,3.177 C 13.725,6.474 15.389,1.746 18.026,-0.067 23.256,-0.089 25.569,0.021 30.799,0 Z m 0,0 c -0.648,-0.496 -1.491,-0.993 -2.14,-1.489 -2.312,0.475 -10.784,2.633 -11.995,-2.655 0.361,-4.999 4.189,-5.295 6.095,-4.208 1.48,1.42 2.074,3.972 -0.489,5.003 -2.219,0.535 -2.753,-1.503 -1.826,-1.872 2.169,-0.863 -0.556,-2.58 -1.617,-0.034 -0.688,4.233 7.032,4.473 6.521,-0.956 -0.355,-3.787 -4.727,-4.802 -7.257,-3.177 -4.366,2.914 -2.702,7.51 -0.065,9.323 5.23,0.022 7.543,0.044 12.773,0.065 z" />
      </g>
      <g
         transform="translate(148.9932,373.6439)"
         id="g917">
        <path
           id="path919"
           style="fill:#ba8f4a;fill-opacity:1;fill-rule:evenodd;stroke:none"
           d="M 0,0 -0.186,-0.373 -0.3,-0.601 -0.442,-0.884 -0.276,-1.161 -0.587,-1.415 c -0.064,-0.052 0.14,-0.169 0.09,-0.235 l -0.166,-0.219 c -0.703,-0.927 -0.245,-2.387 0.249,-4.361 -0.309,-0.533 -2.024,0.189 -2.751,1.02 -0.188,-0.842 0.866,-3.248 2.074,-3.585 l 0.207,-0.594 c -1.283,-0.322 -3.433,1.32 -3.593,1.456 -0.124,-2.165 1.5,-3.695 3.046,-4.407 0.154,-0.071 0.093,-0.652 0.212,-0.783 -1.489,-0.363 -2.875,1.022 -4.111,1.767 0.115,-1.732 0.952,-3.071 2.166,-3.817 l 0.742,-0.022 -0.141,-0.366 0.509,0.1 0.068,-0.555 0.432,0.293 0.227,-0.41 0.192,-0.363 c 0.287,-0.691 0.181,-1.732 0.293,-2.686 1.011,0 1.582,0 2.594,0 -0.169,1.515 -0.179,1.515 0.253,3.703 1.629,0.673 3.195,2.129 3.139,4.064 -0.927,-0.729 -2.614,-1.578 -3.824,-1.456 l 0.192,0.647 c 0.219,0.321 2.665,0.048 3.453,4.427 -1.155,-1.209 -2.502,-1.408 -3.537,-1.461 -0.061,0.098 0.037,0.195 0.034,0.382 0.786,0.898 1.705,0.998 1.818,3.662 -0.843,-0.667 -2.102,-1.325 -2.792,-1.083 1.09,2.503 0.93,3.341 0.355,4.413 C 0.805,-1.813 0.534,-1.75 0.551,-1.67 L 0.6,-1.44 0.307,-1.046 0.345,-0.751 C 0.378,-0.501 0.068,-0.273 0,0" />
      </g>
      <g
         transform="translate(135.1845,373.6439)"
         id="g921">
        <path
           id="path923"
           style="fill:#ba8f4a;fill-opacity:1;fill-rule:evenodd;stroke:none"
           d="M 0,0 -0.186,-0.373 -0.3,-0.601 -0.441,-0.884 -0.276,-1.161 -0.587,-1.415 c -0.064,-0.052 0.14,-0.169 0.09,-0.235 l -0.166,-0.219 c -0.703,-0.927 -0.245,-2.387 0.249,-4.361 -0.309,-0.533 -2.024,0.189 -2.751,1.02 -0.188,-0.842 0.866,-3.248 2.074,-3.585 l 0.207,-0.594 c -1.283,-0.322 -3.433,1.32 -3.593,1.456 -0.124,-2.165 1.5,-3.695 3.046,-4.407 0.154,-0.071 0.093,-0.652 0.212,-0.783 -1.489,-0.363 -2.875,1.022 -4.111,1.767 0.115,-1.732 0.952,-3.071 2.166,-3.817 l 0.742,-0.022 -0.141,-0.366 0.509,0.1 0.068,-0.555 0.432,0.293 0.227,-0.41 0.191,-0.363 c 0.288,-0.691 0.182,-1.732 0.294,-2.686 1.011,0 1.582,0 2.594,0 -0.169,1.515 -0.179,1.515 0.253,3.703 1.629,0.673 3.195,2.129 3.139,4.064 -0.927,-0.729 -2.614,-1.578 -3.824,-1.456 l 0.192,0.647 c 0.219,0.321 2.665,0.048 3.453,4.427 -1.155,-1.209 -2.502,-1.408 -3.537,-1.461 -0.061,0.098 0.037,0.195 0.034,0.382 0.786,0.898 1.705,0.998 1.818,3.662 -0.843,-0.667 -2.102,-1.325 -2.792,-1.083 1.09,2.503 0.93,3.341 0.355,4.413 C 0.805,-1.813 0.534,-1.75 0.551,-1.67 L 0.6,-1.44 0.307,-1.046 0.345,-0.751 C 0.378,-0.501 0.068,-0.273 0,0" />
      </g>
      <path
         id="path925"
         style="fill:#ba8f4a;fill-opacity:1;fill-rule:evenodd;stroke:none"
         d="m 127.441,354.751 h 42.667 v -0.82 h -42.667 z" />
    </g>
  </g>
</svg>
