<svg id="visual" viewBox="0 0 900 600" width="900" height="600" xmlns="http://www.w3.org/2000/svg" xmlns:xlink="http://www.w3.org/1999/xlink" version="1.1"><rect x="0" y="0" width="900" height="600" fill="#89c2d9"></rect><path d="M0 407L13.7 406.7C27.3 406.3 54.7 405.7 82 405.2C109.3 404.7 136.7 404.3 163.8 404C191 403.7 218 403.3 245.2 394.7C272.3 386 299.7 369 327 372.5C354.3 376 381.7 400 409 409.3C436.3 418.7 463.7 413.3 491 403.5C518.3 393.7 545.7 379.3 573 375.2C600.3 371 627.7 377 654.8 379.7C682 382.3 709 381.7 736.2 390.2C763.3 398.7 790.7 416.3 818 415.2C845.3 414 872.7 394 886.3 384L900 374L900 601L886.3 601C872.7 601 845.3 601 818 601C790.7 601 763.3 601 736.2 601C709 601 682 601 654.8 601C627.7 601 600.3 601 573 601C545.7 601 518.3 601 491 601C463.7 601 436.3 601 409 601C381.7 601 354.3 601 327 601C299.7 601 272.3 601 245.2 601C218 601 191 601 163.8 601C136.7 601 109.3 601 82 601C54.7 601 27.3 601 13.7 601L0 601Z" fill="#2c7da0"></path><path d="M0 442L13.7 444C27.3 446 54.7 450 82 451.3C109.3 452.7 136.7 451.3 163.8 445.3C191 439.3 218 428.7 245.2 427.2C272.3 425.7 299.7 433.3 327 438.2C354.3 443 381.7 445 409 447.8C436.3 450.7 463.7 454.3 491 457.7C518.3 461 545.7 464 573 455.2C600.3 446.3 627.7 425.7 654.8 414.5C682 403.3 709 401.7 736.2 406.3C763.3 411 790.7 422 818 425.3C845.3 428.7 872.7 424.3 886.3 422.2L900 420L900 601L886.3 601C872.7 601 845.3 601 818 601C790.7 601 763.3 601 736.2 601C709 601 682 601 654.8 601C627.7 601 600.3 601 573 601C545.7 601 518.3 601 491 601C463.7 601 436.3 601 409 601C381.7 601 354.3 601 327 601C299.7 601 272.3 601 245.2 601C218 601 191 601 163.8 601C136.7 601 109.3 601 82 601C54.7 601 27.3 601 13.7 601L0 601Z" fill="#206c91"></path><path d="M0 451L13.7 452.3C27.3 453.7 54.7 456.3 82 459.5C109.3 462.7 136.7 466.3 163.8 468.2C191 470 218 470 245.2 472.3C272.3 474.7 299.7 479.3 327 478.7C354.3 478 381.7 472 409 464.7C436.3 457.3 463.7 448.7 491 450C518.3 451.3 545.7 462.7 573 464.8C600.3 467 627.7 460 654.8 463.7C682 467.3 709 481.7 736.2 486.2C763.3 490.7 790.7 485.3 818 485.3C845.3 485.3 872.7 490.7 886.3 493.3L900 496L900 601L886.3 601C872.7 601 845.3 601 818 601C790.7 601 763.3 601 736.2 601C709 601 682 601 654.8 601C627.7 601 600.3 601 573 601C545.7 601 518.3 601 491 601C463.7 601 436.3 601 409 601C381.7 601 354.3 601 327 601C299.7 601 272.3 601 245.2 601C218 601 191 601 163.8 601C136.7 601 109.3 601 82 601C54.7 601 27.3 601 13.7 601L0 601Z" fill="#145b82"></path><path d="M0 528L13.7 521C27.3 514 54.7 500 82 499.8C109.3 499.7 136.7 513.3 163.8 520C191 526.7 218 526.3 245.2 519C272.3 511.7 299.7 497.3 327 491.7C354.3 486 381.7 489 409 491C436.3 493 463.7 494 491 493.2C518.3 492.3 545.7 489.7 573 492.8C600.3 496 627.7 505 654.8 509.5C682 514 709 514 736.2 511.8C763.3 509.7 790.7 505.3 818 504.2C845.3 503 872.7 505 886.3 506L900 507L900 601L886.3 601C872.7 601 845.3 601 818 601C790.7 601 763.3 601 736.2 601C709 601 682 601 654.8 601C627.7 601 600.3 601 573 601C545.7 601 518.3 601 491 601C463.7 601 436.3 601 409 601C381.7 601 354.3 601 327 601C299.7 601 272.3 601 245.2 601C218 601 191 601 163.8 601C136.7 601 109.3 601 82 601C54.7 601 27.3 601 13.7 601L0 601Z" fill="#094a73"></path><path d="M0 542L13.7 544.3C27.3 546.7 54.7 551.3 82 548C109.3 544.7 136.7 533.3 163.8 532C191 530.7 218 539.3 245.2 542C272.3 544.7 299.7 541.3 327 541.7C354.3 542 381.7 546 409 544.2C436.3 542.3 463.7 534.7 491 532.3C518.3 530 545.7 533 573 532.2C600.3 531.3 627.7 526.7 654.8 528.2C682 529.7 709 537.3 736.2 541.7C763.3 546 790.7 547 818 547.3C845.3 547.7 872.7 547.3 886.3 547.2L900 547L900 601L886.3 601C872.7 601 845.3 601 818 601C790.7 601 763.3 601 736.2 601C709 601 682 601 654.8 601C627.7 601 600.3 601 573 601C545.7 601 518.3 601 491 601C463.7 601 436.3 601 409 601C381.7 601 354.3 601 327 601C299.7 601 272.3 601 245.2 601C218 601 191 601 163.8 601C136.7 601 109.3 601 82 601C54.7 601 27.3 601 13.7 601L0 601Z" fill="#013a63"></path></svg>