<svg id="visual" viewBox="0 0 900 600" width="900" height="600" xmlns="http://www.w3.org/2000/svg" xmlns:xlink="http://www.w3.org/1999/xlink" version="1.1"><rect x="0" y="0" width="900" height="600" fill="#FFFFFF"></rect><path d="M0 331L21.5 330.5C43 330 86 329 128.8 315C171.7 301 214.3 274 257.2 273.2C300 272.3 343 297.7 385.8 314.5C428.7 331.3 471.3 339.7 514.2 345.2C557 350.7 600 353.3 642.8 349.3C685.7 345.3 728.3 334.7 771.2 321.2C814 307.7 857 291.3 878.5 283.2L900 275L900 601L878.5 601C857 601 814 601 771.2 601C728.3 601 685.7 601 642.8 601C600 601 557 601 514.2 601C471.3 601 428.7 601 385.8 601C343 601 300 601 257.2 601C214.3 601 171.7 601 128.8 601C86 601 43 601 21.5 601L0 601Z" fill="#ffffff"></path><path d="M0 339L21.5 336.2C43 333.3 86 327.7 128.8 318.8C171.7 310 214.3 298 257.2 310.8C300 323.7 343 361.3 385.8 374.7C428.7 388 471.3 377 514.2 364.5C557 352 600 338 642.8 336C685.7 334 728.3 344 771.2 349.8C814 355.7 857 357.3 878.5 358.2L900 359L900 601L878.5 601C857 601 814 601 771.2 601C728.3 601 685.7 601 642.8 601C600 601 557 601 514.2 601C471.3 601 428.7 601 385.8 601C343 601 300 601 257.2 601C214.3 601 171.7 601 128.8 601C86 601 43 601 21.5 601L0 601Z" fill="#f8f8f8"></path><path d="M0 409L21.5 400.8C43 392.7 86 376.3 128.8 373.8C171.7 371.3 214.3 382.7 257.2 379.7C300 376.7 343 359.3 385.8 364.7C428.7 370 471.3 398 514.2 406.3C557 414.7 600 403.3 642.8 393.3C685.7 383.3 728.3 374.7 771.2 364.3C814 354 857 342 878.5 336L900 330L900 601L878.5 601C857 601 814 601 771.2 601C728.3 601 685.7 601 642.8 601C600 601 557 601 514.2 601C471.3 601 428.7 601 385.8 601C343 601 300 601 257.2 601C214.3 601 171.7 601 128.8 601C86 601 43 601 21.5 601L0 601Z" fill="#f0f0f0"></path><path d="M0 386L21.5 387.2C43 388.3 86 390.7 128.8 402.7C171.7 414.7 214.3 436.3 257.2 443.3C300 450.3 343 442.7 385.8 440.5C428.7 438.3 471.3 441.7 514.2 434.8C557 428 600 411 642.8 399C685.7 387 728.3 380 771.2 385C814 390 857 407 878.5 415.5L900 424L900 601L878.5 601C857 601 814 601 771.2 601C728.3 601 685.7 601 642.8 601C600 601 557 601 514.2 601C471.3 601 428.7 601 385.8 601C343 601 300 601 257.2 601C214.3 601 171.7 601 128.8 601C86 601 43 601 21.5 601L0 601Z" fill="#e9e9e9"></path><path d="M0 430L21.5 439.5C43 449 86 468 128.8 465.7C171.7 463.3 214.3 439.7 257.2 428.7C300 417.7 343 419.3 385.8 428.2C428.7 437 471.3 453 514.2 463.8C557 474.7 600 480.3 642.8 471.5C685.7 462.7 728.3 439.3 771.2 436.5C814 433.7 857 451.3 878.5 460.2L900 469L900 601L878.5 601C857 601 814 601 771.2 601C728.3 601 685.7 601 642.8 601C600 601 557 601 514.2 601C471.3 601 428.7 601 385.8 601C343 601 300 601 257.2 601C214.3 601 171.7 601 128.8 601C86 601 43 601 21.5 601L0 601Z" fill="#e1e1e1"></path><path d="M0 516L21.5 514.2C43 512.3 86 508.7 128.8 505C171.7 501.3 214.3 497.7 257.2 489.7C300 481.7 343 469.3 385.8 467.7C428.7 466 471.3 475 514.2 476.8C557 478.7 600 473.3 642.8 473.2C685.7 473 728.3 478 771.2 484.3C814 490.7 857 498.3 878.5 502.2L900 506L900 601L878.5 601C857 601 814 601 771.2 601C728.3 601 685.7 601 642.8 601C600 601 557 601 514.2 601C471.3 601 428.7 601 385.8 601C343 601 300 601 257.2 601C214.3 601 171.7 601 128.8 601C86 601 43 601 21.5 601L0 601Z" fill="#dadada"></path><path d="M0 538L21.5 538.2C43 538.3 86 538.7 128.8 535C171.7 531.3 214.3 523.7 257.2 522.3C300 521 343 526 385.8 527.2C428.7 528.3 471.3 525.7 514.2 526.8C557 528 600 533 642.8 536C685.7 539 728.3 540 771.2 538.5C814 537 857 533 878.5 531L900 529L900 601L878.5 601C857 601 814 601 771.2 601C728.3 601 685.7 601 642.8 601C600 601 557 601 514.2 601C471.3 601 428.7 601 385.8 601C343 601 300 601 257.2 601C214.3 601 171.7 601 128.8 601C86 601 43 601 21.5 601L0 601Z" fill="#d3d3d3"></path><path d="M0 566L21.5 560.2C43 554.3 86 542.7 128.8 537.8C171.7 533 214.3 535 257.2 538.7C300 542.3 343 547.7 385.8 547C428.7 546.3 471.3 539.7 514.2 536.7C557 533.7 600 534.3 642.8 538.2C685.7 542 728.3 549 771.2 553.3C814 557.7 857 559.3 878.5 560.2L900 561L900 601L878.5 601C857 601 814 601 771.2 601C728.3 601 685.7 601 642.8 601C600 601 557 601 514.2 601C471.3 601 428.7 601 385.8 601C343 601 300 601 257.2 601C214.3 601 171.7 601 128.8 601C86 601 43 601 21.5 601L0 601Z" fill="#cccccc"></path></svg>