<svg width="34" height="34" viewBox="0 0 34 34" fill="none" xmlns="http://www.w3.org/2000/svg">
<circle cx="17" cy="17" r="17" fill="#ECF6FF"/>
<path d="M19.8333 20.6667C19.1389 20.6667 18.5486 20.4237 18.0625 19.9375C17.5764 19.4514 17.3333 18.8612 17.3333 18.1667C17.3333 17.4723 17.5764 16.882 18.0625 16.3959C18.5486 15.9098 19.1389 15.6667 19.8333 15.6667C20.5278 15.6667 21.1181 15.9098 21.6042 16.3959C22.0903 16.882 22.3333 17.4723 22.3333 18.1667C22.3333 18.8612 22.0903 19.4514 21.6042 19.9375C21.1181 20.4237 20.5278 20.6667 19.8333 20.6667ZM15.6667 25.6667C15.4306 25.6667 15.2325 25.5867 15.0725 25.4267C14.9125 25.2667 14.8328 25.0689 14.8333 24.8334V24.0834C14.8333 23.7917 14.9028 23.5139 15.0417 23.25C15.1806 22.9862 15.375 22.7778 15.625 22.625C16.25 22.25 16.9133 21.9689 17.615 21.7817C18.3167 21.5945 19.0561 21.5006 19.8333 21.5C20.6111 21.5 21.3508 21.5939 22.0525 21.7817C22.7542 21.9695 23.4172 22.2506 24.0417 22.625C24.2917 22.7778 24.4861 22.9862 24.625 23.25C24.7639 23.5139 24.8333 23.7917 24.8333 24.0834V24.8334C24.8333 25.0695 24.7533 25.2675 24.5933 25.4275C24.4333 25.5875 24.2356 25.6673 24 25.6667H15.6667ZM14.8333 20.6667H9.83334C9.59723 20.6667 9.39917 20.5867 9.23917 20.4267C9.07917 20.2667 8.99945 20.0689 9 19.8334C9 19.5973 9.08 19.3992 9.24 19.2392C9.4 19.0792 9.59778 18.9995 9.83334 19H14.8333C15.0694 19 15.2675 19.08 15.4275 19.24C15.5875 19.4 15.6672 19.5978 15.6667 19.8334C15.6667 20.0695 15.5867 20.2675 15.4267 20.4275C15.2667 20.5875 15.0689 20.6673 14.8333 20.6667ZM18.1667 14H9.83334C9.59723 14 9.39917 13.92 9.23917 13.76C9.07917 13.6 8.99945 13.4023 9 13.1667C9 12.9306 9.08 12.7325 9.24 12.5725C9.4 12.4125 9.59778 12.3328 9.83334 12.3334H18.1667C18.4028 12.3334 18.6008 12.4134 18.7608 12.5734C18.9208 12.7334 19.0006 12.9312 19 13.1667C19 13.4028 18.92 13.6009 18.76 13.7609C18.6 13.9209 18.4022 14.0006 18.1667 14ZM15.75 17.3334H9.83334C9.59723 17.3334 9.39917 17.2534 9.23917 17.0934C9.07917 16.9334 8.99945 16.7356 9 16.5C9 16.2639 9.08 16.0659 9.24 15.9059C9.4 15.7459 9.59778 15.6662 9.83334 15.6667H16.5C16.3056 15.9028 16.1492 16.1598 16.0308 16.4375C15.9125 16.7153 15.8189 17.0139 15.75 17.3334Z" fill="#0500FF"/>
</svg>
