<svg width="20" height="20" viewBox="0 0 20 20" fill="none" xmlns="http://www.w3.org/2000/svg">
<path d="M6.50998 0H13.49C13.722 0 13.9 1.05239e-07 14.056 0.0150001C15.164 0.124 16.071 0.79 16.456 1.687H3.54398C3.92898 0.79 4.83598 0.124 5.94398 0.0150001C6.09798 1.05239e-07 6.27598 0 6.50998 0ZM4.30998 2.723C2.91998 2.723 1.77998 3.563 1.39998 4.677C1.39164 4.70022 1.38364 4.72355 1.37598 4.747C1.77398 4.627 2.18898 4.547 2.60798 4.494C3.68798 4.355 5.05398 4.355 6.63998 4.355H13.532C15.118 4.355 16.483 4.355 17.564 4.494C17.984 4.548 18.398 4.626 18.796 4.747C18.7887 4.72354 18.781 4.7002 18.773 4.677C18.393 3.563 17.253 2.723 15.862 2.723H4.30998Z" fill=""/>
<path fill-rule="evenodd" clip-rule="evenodd" d="M6.67208 5.54199H13.3281C16.7021 5.54199 18.3901 5.54199 19.3381 6.52899C20.2851 7.51599 20.0621 9.03999 19.6161 12.089L19.1941 14.981C18.8441 17.372 18.6691 18.568 17.7721 19.284C16.8751 20 15.5521 20 12.9051 20H7.09509C4.44909 20 3.12509 20 2.22809 19.284C1.33109 18.568 1.15609 17.372 0.806085 14.981L0.384085 12.09C-0.0629149 9.03999 -0.285915 7.51599 0.662085 6.52899C1.61009 5.54199 3.29808 5.54199 6.67208 5.54199ZM6.00008 16C6.00008 15.586 6.37309 15.25 6.83309 15.25H13.1671C13.6271 15.25 14.0001 15.586 14.0001 16C14.0001 16.414 13.6271 16.75 13.1671 16.75H6.83309C6.37309 16.75 6.00008 16.414 6.00008 16Z" fill=""/>
</svg>
