<svg width="600" height="600" viewBox="0 0 600 600" fill="none" xmlns="http://www.w3.org/2000/svg">
<rect x="140.01" y="317.499" width="61.7176" height="14.5712" fill="#FFE49D"/>
<circle cx="158.805" cy="360.685" r="12.8871" stroke="#662108" stroke-width="11.8171"/>
<circle cx="265.655" cy="360.685" r="12.8871" stroke="#662108" stroke-width="11.8171"/>
<circle cx="319.08" cy="360.685" r="18.7956" fill="#FFE49D"/>
<circle cx="212.23" cy="360.685" r="12.8871" stroke="#662108" stroke-width="11.8171"/>
<rect x="140.01" y="412.037" width="61.7176" height="14.5712" fill="#FFE49D"/>
<circle cx="158.805" cy="455.222" r="12.8871" stroke="#662108" stroke-width="11.8171"/>
<circle cx="265.655" cy="455.222" r="12.8871" stroke="#662108" stroke-width="11.8171"/>
<circle cx="214.377" cy="455.222" r="18.7956" fill="#FFE49D"/>
<path d="M429.037 303.703V108.837C429.037 95.784 418.456 85.2026 405.403 85.2026H118.851C105.798 85.2026 95.2168 95.784 95.2168 108.837V520.126C95.2168 533.179 105.798 543.76 118.851 543.76H387.382" stroke="#662108" stroke-width="11.8171"/>
<circle cx="260.299" cy="174.058" r="46.2768" fill="#FFE49D"/>
<path d="M216.918 204.548L224.187 186.149M224.187 186.149L241.01 143.567L257.832 186.149M224.187 186.149H257.832M257.832 186.149L265.101 204.548M293.59 157.423V174.058M293.59 174.058V190.692M293.59 174.058H276.955M293.59 174.058H310.224" stroke="#662108" stroke-width="11.8171" stroke-linecap="round" stroke-linejoin="round"/>
<line x1="92.3896" y1="516.801" x2="369.63" y2="516.801" stroke="#662108" stroke-width="11.8171"/>
<line x1="92.3896" y1="110.232" x2="429.037" y2="110.232" stroke="#662108" stroke-width="11.8171"/>
<rect x="140.01" y="222.961" width="61.7176" height="14.5712" fill="#FFE49D"/>
<circle cx="158.805" cy="266.147" r="12.8871" stroke="#662108" stroke-width="11.8171"/>
<circle cx="266.065" cy="266.147" r="12.8871" stroke="#662108" stroke-width="11.8171"/>
<circle cx="208.883" cy="266.147" r="18.7956" fill="#FFE49D"/>
<circle cx="318.538" cy="266.147" r="12.8871" stroke="#662108" stroke-width="11.8171"/>
<circle cx="370.116" cy="266.147" r="12.8871" stroke="#662108" stroke-width="11.8171"/>
<path d="M420.939 357.029L369.629 306.951V323.901L387.349 346.089L405.53 358.261L420.939 357.029Z" fill="#FFE49D"/>
<mask id="path-22-inside-1_606_103" fill="white">
<path d="M408.614 317.326C423.337 331.733 430.069 349.909 426.625 362.713C413.898 366.433 395.581 360.096 380.859 345.689C366.137 331.281 359.405 313.106 362.848 300.301C375.575 296.582 393.892 302.919 408.614 317.326Z"/>
</mask>
<path d="M408.614 317.326C423.337 331.733 430.069 349.909 426.625 362.713C413.898 366.433 395.581 360.096 380.859 345.689C366.137 331.281 359.405 313.106 362.848 300.301C375.575 296.582 393.892 302.919 408.614 317.326Z" stroke="#662108" stroke-width="23.6341" mask="url(#path-22-inside-1_606_103)"/>
<path d="M425.095 372.506C432.037 373.576 442.657 374.246 442.657 374.246C448.889 374.246 462.327 374.614 473.284 374.246C473.284 374.246 487.168 373.402 493.507 372.433C501.19 371.259 510.462 371.554 515.783 373.145C529.83 377.342 541.781 385.287 549.438 395.519C556.213 404.572 560.368 414.181 563.045 426.978C564.373 433.331 564.641 436.243 564.671 444.629C564.692 450.152 564.359 457 563.934 459.845C561.522 475.961 551.294 506.546 541.647 526.491C530.165 550.228 515.998 566.956 501.717 573.64C494.536 576.999 489.9 577.158 476.221 574.507C468.757 573.06 449.909 573.066 442.137 574.518C427.721 577.211 423.484 576.983 415.661 573.099C403.373 566.997 391.324 553.536 380.481 533.795C369.783 514.318 357.168 478.487 354.446 459.845C353.478 453.217 353.46 437.757 354.413 431.807C358.301 407.538 369.165 390.041 386.506 380.119C399.876 372.469 410.838 370.307 425.095 372.506Z" fill="#FFE49D"/>
<mask id="path-24-inside-2_606_103" fill="white">
<path d="M408.72 359.307C415.661 360.378 425.678 361.709 426.281 361.048C426.281 341.17 434.029 315.736 452.244 302.164L477.131 315.986C454.288 342.703 456.909 355.307 456.909 361.048C457.477 361.583 470.793 360.204 477.131 359.235C484.815 358.06 494.086 358.356 499.407 359.947C513.454 364.144 525.406 372.089 533.062 382.321C539.837 391.374 543.993 400.983 546.669 413.78C547.997 420.133 548.266 423.044 548.296 431.431C548.316 436.954 547.984 443.802 547.558 446.647C545.146 462.763 534.918 493.348 525.271 513.293C513.79 537.03 499.623 553.758 485.341 560.442C478.161 563.801 473.524 563.96 459.846 561.309C452.381 559.862 433.534 559.868 425.762 561.32C411.346 564.012 407.109 563.785 399.286 559.9C386.997 553.799 374.949 540.338 364.106 520.597C353.408 501.12 340.792 465.288 338.071 446.647C337.102 440.019 337.085 424.559 338.038 418.609C341.926 394.34 352.79 376.842 370.131 366.92C383.501 359.271 394.462 357.108 408.72 359.307Z"/>
</mask>
<path d="M408.72 359.307C415.661 360.378 425.678 361.709 426.281 361.048C426.281 341.17 434.029 315.736 452.244 302.164L477.131 315.986C454.288 342.703 456.909 355.307 456.909 361.048C457.477 361.583 470.793 360.204 477.131 359.235C484.815 358.06 494.086 358.356 499.407 359.947C513.454 364.144 525.406 372.089 533.062 382.321C539.837 391.374 543.993 400.983 546.669 413.78C547.997 420.133 548.266 423.044 548.296 431.431C548.316 436.954 547.984 443.802 547.558 446.647C545.146 462.763 534.918 493.348 525.271 513.293C513.79 537.03 499.623 553.758 485.341 560.442C478.161 563.801 473.524 563.96 459.846 561.309C452.381 559.862 433.534 559.868 425.762 561.32C411.346 564.012 407.109 563.785 399.286 559.9C386.997 553.799 374.949 540.338 364.106 520.597C353.408 501.12 340.792 465.288 338.071 446.647C337.102 440.019 337.085 424.559 338.038 418.609C341.926 394.34 352.79 376.842 370.131 366.92C383.501 359.271 394.462 357.108 408.72 359.307Z" stroke="#662108" stroke-width="23.6341" stroke-linejoin="round" mask="url(#path-24-inside-2_606_103)"/>
<circle cx="208.882" cy="267.147" r="6.86171" fill="#662108"/>
<circle cx="319.079" cy="361.684" r="6.86171" fill="#662108"/>
<circle cx="214.375" cy="456.222" r="6.86171" fill="#662108"/>
</svg>
