<svg width="15" height="18" viewBox="0 0 15 18" fill="none" xmlns="http://www.w3.org/2000/svg">
<path d="M4.41407 7.828H10.0561C10.1874 7.828 10.3174 7.85387 10.4388 7.90412C10.5601 7.95438 10.6703 8.02804 10.7632 8.12089C10.856 8.21375 10.9297 8.32399 10.98 8.44532C11.0302 8.56664 11.0561 8.69668 11.0561 8.828C11.0561 8.95932 11.0302 9.08936 10.98 9.21068C10.9297 9.33201 10.856 9.44225 10.7632 9.53511C10.6703 9.62796 10.5601 9.70162 10.4388 9.75188C10.3174 9.80213 10.1874 9.828 10.0561 9.828H4.41407L5.53607 10.95C5.72358 11.1376 5.82887 11.3921 5.82878 11.6574C5.82868 11.9226 5.72321 12.177 5.53557 12.3645C5.34793 12.552 5.09349 12.6573 4.82822 12.6572C4.56295 12.6571 4.30858 12.5516 4.12107 12.364L1.29307 9.536C1.19974 9.44333 1.12566 9.33311 1.07511 9.21168C1.02456 9.09025 0.998535 8.96003 0.998535 8.8285C0.998535 8.69697 1.02456 8.56674 1.07511 8.44532C1.12566 8.32389 1.19974 8.21367 1.29307 8.121L4.12007 5.293C4.30758 5.10536 4.56195 4.99989 4.82722 4.9998C5.09249 4.9997 5.34693 5.10499 5.53457 5.2925C5.72221 5.48001 5.82768 5.73438 5.82778 5.99965C5.82787 6.26492 5.72258 6.51936 5.53507 6.707L4.41407 7.828ZM14.0001 0C14.2653 0 14.5196 0.105357 14.7072 0.292893C14.8947 0.48043 15.0001 0.734784 15.0001 1V17C15.0001 17.2652 14.8947 17.5196 14.7072 17.7071C14.5196 17.8946 14.2653 18 14.0001 18C13.7349 18 13.4805 17.8946 13.293 17.7071C13.1054 17.5196 13.0001 17.2652 13.0001 17V1C13.0001 0.734784 13.1054 0.48043 13.293 0.292893C13.4805 0.105357 13.7349 0 14.0001 0V0Z" fill="#FF1F00"/>
</svg>
