<svg width="18" height="18" viewBox="0 0 18 18" fill="none" xmlns="http://www.w3.org/2000/svg">
<path d="M9 18C7.75 18 6.579 17.7623 5.487 17.287C4.395 16.8117 3.445 16.1703 2.637 15.363C1.829 14.5543 1.18767 13.6043 0.713 12.513C0.238333 11.4217 0.000666667 10.2507 0 9C0 7.75 0.237667 6.579 0.713 5.487C1.18833 4.395 1.82967 3.445 2.637 2.637C3.44567 1.829 4.39567 1.18767 5.487 0.713C6.57833 0.238333 7.74933 0.000666667 9 0C10.3667 0 11.6627 0.291667 12.888 0.875C14.1133 1.45833 15.1507 2.28333 16 3.35V1H18V7H12V5H14.75C14.0667 4.06667 13.225 3.33333 12.225 2.8C11.225 2.26667 10.15 2 9 2C7.05 2 5.39567 2.67933 4.037 4.038C2.67833 5.39667 1.99933 7.05067 2 9C2 10.95 2.67933 12.6043 4.038 13.963C5.39667 15.3217 7.05067 16.0007 9 16C10.75 16 12.2793 15.4333 13.588 14.3C14.8967 13.1667 15.6673 11.7333 15.9 10H17.95C17.7 12.2833 16.721 14.1877 15.013 15.713C13.305 17.2383 11.3007 18.0007 9 18ZM11.8 13.2L8 9.4V4H10V8.6L13.2 11.8L11.8 13.2Z" fill=""/>
</svg>
